<?xml version="1.0" encoding="utf-8"?>
<!-- Generator: Adobe Illustrator 19.1.0, SVG Export Plug-In . SVG Version: 6.00 Build 0)  -->
<svg version="1.1" xmlns="http://www.w3.org/2000/svg" xmlns:xlink="http://www.w3.org/1999/xlink" x="0px" y="0px"
	 viewBox="0 0 1024 768" style="enable-background:new 0 0 1024 768;" xml:space="preserve">
<style type="text/css">
	.st0{fill:none;stroke:#F2F9F8;stroke-width:8;stroke-linecap:round;stroke-miterlimit:10;}
	.st1{display:none;}
	.st2{display:inline;fill:none;stroke:#F2F9F8;stroke-width:8;stroke-linecap:round;stroke-miterlimit:10;}
</style>
<g id="small">
	<line class="st0" x1="32.2" y1="247.8" x2="40.7" y2="256.3"/>
	<line class="st0" x1="70.7" y1="252.3" x2="76.9" y2="258.5"/>
	<line class="st0" x1="78.7" y1="203.1" x2="84.5" y2="208.9"/>
	<line class="st0" x1="45.2" y1="208.9" x2="50.5" y2="214.2"/>
	<line class="st0" x1="96.2" y1="147.1" x2="102" y2="153"/>
	<line class="st0" x1="133.3" y1="184.3" x2="140.5" y2="191.4"/>
	<line class="st0" x1="111.8" y1="227.2" x2="116.8" y2="232.1"/>
	<line class="st0" x1="51.9" y1="306.9" x2="57.7" y2="312.7"/>
	<line class="st0" x1="32.2" y1="443.7" x2="39.8" y2="451.4"/>
	<line class="st0" x1="33.5" y1="327" x2="38.9" y2="332.3"/>
	<line class="st0" x1="538" y1="342.3" x2="543.8" y2="348.1"/>
	<line class="st0" x1="146.3" y1="139.1" x2="152.1" y2="144.9"/>
	<line class="st0" x1="124.4" y1="143.1" x2="129.7" y2="148.5"/>
	<line class="st0" x1="170" y1="163.7" x2="174.5" y2="168.2"/>
	<line class="st0" x1="107.4" y1="281.8" x2="114.5" y2="289"/>
	<line class="st0" x1="156.1" y1="254.5" x2="163.7" y2="262.1"/>
	<line class="st0" x1="167.8" y1="210.7" x2="173.1" y2="216"/>
	<line class="st0" x1="234" y1="189.2" x2="240.7" y2="195.9"/>
	<line class="st0" x1="205.3" y1="222.3" x2="212" y2="229"/>
	<line class="st0" x1="137.3" y1="308.2" x2="145.4" y2="316.2"/>
	<line class="st0" x1="157.5" y1="288.1" x2="164.6" y2="295.2"/>
	<line class="st0" x1="84.5" y1="316.2" x2="93.5" y2="325.2"/>
	<line class="st0" x1="107.4" y1="345.3" x2="114.1" y2="352"/>
	<line class="st0" x1="74" y1="473.1" x2="79.4" y2="478.5"/>
	<line class="st0" x1="45.1" y1="403.3" x2="50.4" y2="408.6"/>
	<line class="st0" x1="70.7" y1="382" x2="76.9" y2="388.3"/>
	<line class="st0" x1="10.1" y1="399.8" x2="18.2" y2="407.8"/>
	<line class="st0" x1="497.3" y1="411.6" x2="503.5" y2="417.9"/>
	<line class="st0" x1="525.9" y1="490.5" x2="531.2" y2="495.8"/>
	<line class="st0" x1="130.2" y1="107.8" x2="135.1" y2="112.7"/>
	<line class="st0" x1="17.8" y1="83.9" x2="23.6" y2="89.7"/>
	<line class="st0" x1="194.6" y1="143.6" x2="202.2" y2="151.2"/>
	<line class="st0" x1="226.8" y1="162.4" x2="232.2" y2="167.7"/>
	<line class="st0" x1="214.3" y1="269.7" x2="219.6" y2="275.1"/>
	<line class="st0" x1="266.9" y1="252.6" x2="274.1" y2="259.8"/>
	<line class="st0" x1="296.6" y1="229.8" x2="301.5" y2="234.7"/>
	<line class="st0" x1="149.4" y1="353.4" x2="157" y2="361"/>
	<line class="st0" x1="100.6" y1="377.1" x2="107.4" y2="383.8"/>
	<line class="st0" x1="85" y1="437.5" x2="91.3" y2="443.7"/>
	<line class="st0" x1="203.1" y1="405.3" x2="211.6" y2="413.8"/>
	<line class="st0" x1="178" y1="406.2" x2="183.9" y2="412"/>
	<line class="st0" x1="241.6" y1="409.7" x2="247.8" y2="416"/>
	<line class="st0" x1="216.1" y1="366.3" x2="221.4" y2="371.7"/>
	<line class="st0" x1="268.4" y1="340.8" x2="272.4" y2="344.9"/>
	<line class="st0" x1="336.2" y1="311.7" x2="343.3" y2="318.9"/>
	<line class="st0" x1="282.7" y1="384.7" x2="287.6" y2="389.6"/>
	<line class="st0" x1="181.2" y1="331.5" x2="187" y2="337.3"/>
	<line class="st0" x1="208.5" y1="306.9" x2="212.5" y2="310.9"/>
	<line class="st0" x1="274.7" y1="304.5" x2="279.6" y2="309.4"/>
	<line class="st0" x1="225.5" y1="434.8" x2="230.8" y2="440.2"/>
	<line class="st0" x1="174" y1="457.6" x2="181.6" y2="465.2"/>
	<line class="st0" x1="503" y1="366" x2="509.8" y2="372.6"/>
	<line class="st0" x1="308.5" y1="292.4" x2="313.9" y2="297.7"/>
	<line class="st0" x1="278.2" y1="439.3" x2="285.4" y2="446.4"/>
	<line class="st0" x1="377" y1="489" x2="384.6" y2="496.6"/>
	<line class="st0" x1="323.6" y1="395.1" x2="329" y2="400.5"/>
	<line class="st0" x1="378.5" y1="342.6" x2="383.8" y2="348"/>
	<line class="st0" x1="376.2" y1="379.8" x2="382.9" y2="386.5"/>
	<line class="st0" x1="629.6" y1="481.2" x2="635.8" y2="487.5"/>
	<line class="st0" x1="328.3" y1="445.5" x2="335.5" y2="452.7"/>
	<line class="st0" x1="255.4" y1="473.7" x2="264.4" y2="482.7"/>
	<line class="st0" x1="602.8" y1="371.8" x2="609.5" y2="378.5"/>
	<line class="st0" x1="542.4" y1="389.3" x2="547.8" y2="394.6"/>
	<line class="st0" x1="586.4" y1="397.8" x2="592.6" y2="404"/>
	<line class="st0" x1="550.5" y1="431.3" x2="558.5" y2="439.4"/>
	<line class="st0" x1="134.2" y1="437.5" x2="140.5" y2="443.7"/>
	<line class="st0" x1="141.8" y1="468.3" x2="147.2" y2="473.7"/>
	<line class="st0" x1="247.9" y1="283" x2="252.8" y2="287.9"/>
	<line class="st0" x1="335.5" y1="257.6" x2="339.5" y2="261.7"/>
	<line class="st0" x1="385.2" y1="427.2" x2="390.5" y2="432.6"/>
	<line class="st0" x1="427.7" y1="444.6" x2="434.8" y2="451.8"/>
	<line class="st0" x1="449.1" y1="389.2" x2="454.1" y2="394.1"/>
	<line class="st0" x1="438.8" y1="493" x2="443.8" y2="497.9"/>
	<line class="st0" x1="610" y1="41.4" x2="617.7" y2="49"/>
	<line class="st0" x1="599.2" y1="437.1" x2="606" y2="443.8"/>
	<line class="st0" x1="580.4" y1="464" x2="586.7" y2="470.2"/>
	<line class="st0" x1="28.9" y1="15.5" x2="36" y2="22.7"/>
	<line class="st0" x1="49.4" y1="134.3" x2="57.9" y2="142.8"/>
	<line class="st0" x1="61" y1="95.7" x2="66.8" y2="101.5"/>
	<line class="st0" x1="7.8" y1="199.8" x2="13.6" y2="205.6"/>
	<line class="st0" x1="36.4" y1="170.1" x2="41.8" y2="175.4"/>
	<line class="st0" x1="235.3" y1="16.1" x2="241.1" y2="21.9"/>
	<line class="st0" x1="272.4" y1="53.2" x2="279.6" y2="60.4"/>
	<line class="st0" x1="315.4" y1="31.7" x2="320.3" y2="36.7"/>
	<line class="st0" x1="33.3" y1="50.4" x2="38.7" y2="55.8"/>
	<line class="st0" x1="62.9" y1="47.7" x2="68.7" y2="53.5"/>
	<line class="st0" x1="131.6" y1="17.3" x2="138.2" y2="24.1"/>
	<line class="st0" x1="227.2" y1="66.2" x2="233.1" y2="72"/>
	<line class="st0" x1="342.6" y1="84.1" x2="348" y2="89.5"/>
	<line class="st0" x1="251.9" y1="89.9" x2="256.3" y2="94.4"/>
	<line class="st0" x1="370" y1="27.3" x2="377.1" y2="34.4"/>
	<line class="st0" x1="349.6" y1="49.4" x2="357.2" y2="57.1"/>
	<line class="st0" x1="298.8" y1="87.7" x2="304.2" y2="93"/>
	<line class="st0" x1="273.3" y1="127.5" x2="278.7" y2="132.8"/>
	<line class="st0" x1="310.5" y1="125.2" x2="317.2" y2="131.9"/>
	<line class="st0" x1="72.3" y1="125.9" x2="81.2" y2="134.9"/>
	<line class="st0" x1="433.5" y1="27.3" x2="440.2" y2="34"/>
	<line class="st0" x1="98.2" y1="76.8" x2="103.6" y2="82.2"/>
	<line class="st0" x1="118.8" y1="42.8" x2="124.2" y2="48.2"/>
	<line class="st0" x1="138" y1="66.5" x2="144.3" y2="72.8"/>
	<line class="st0" x1="195.9" y1="50.1" x2="200.9" y2="55"/>
	<line class="st0" x1="188.3" y1="84.5" x2="192.4" y2="88.5"/>
	<line class="st0" x1="231.7" y1="114.5" x2="239.3" y2="122.1"/>
	<line class="st0" x1="357.9" y1="134.2" x2="363.2" y2="139.5"/>
	<line class="st0" x1="335.1" y1="155.2" x2="342.2" y2="162.4"/>
	<line class="st0" x1="294.3" y1="188.8" x2="298.8" y2="193.2"/>
	<line class="st0" x1="441.5" y1="69.3" x2="449.1" y2="76.9"/>
	<line class="st0" x1="465.2" y1="20.5" x2="471.9" y2="27.3"/>
	<line class="st0" x1="177.7" y1="18.2" x2="183.9" y2="24.4"/>
	<line class="st0" x1="629.2" y1="13.7" x2="636.3" y2="20.8"/>
	<line class="st0" x1="493.4" y1="123" x2="501.9" y2="131.5"/>
	<line class="st0" x1="494.3" y1="97.9" x2="500.1" y2="103.8"/>
	<line class="st0" x1="497.9" y1="161.5" x2="504.2" y2="167.7"/>
	<line class="st0" x1="448.7" y1="169.5" x2="454.5" y2="175.3"/>
	<line class="st0" x1="454.5" y1="136" x2="459.9" y2="141.3"/>
	<line class="st0" x1="473.3" y1="471.7" x2="477.3" y2="475.8"/>
	<line class="st0" x1="392.8" y1="187" x2="398.6" y2="192.8"/>
	<line class="st0" x1="429.9" y1="224.1" x2="437.1" y2="231.2"/>
	<line class="st0" x1="472.8" y1="202.6" x2="477.8" y2="207.5"/>
	<line class="st0" x1="522.9" y1="145.4" x2="528.3" y2="150.7"/>
	<line class="st0" x1="552.5" y1="142.7" x2="558.3" y2="148.5"/>
	<line class="st0" x1="545.8" y1="93.9" x2="553.4" y2="101.5"/>
	<line class="st0" x1="572.6" y1="124.3" x2="578" y2="129.7"/>
	<line class="st0" x1="586.4" y1="54.1" x2="593" y2="60.9"/>
	<line class="st0" x1="604.4" y1="102.4" x2="610.2" y2="108.2"/>
	<line class="st0" x1="388.7" y1="215.1" x2="394.1" y2="220.5"/>
	<line class="st0" x1="409.3" y1="260.8" x2="413.8" y2="265.2"/>
	<line class="st0" x1="527.4" y1="198.1" x2="534.6" y2="205.3"/>
	<line class="st0" x1="500.1" y1="246.9" x2="507.7" y2="254.5"/>
	<line class="st0" x1="456.3" y1="258.5" x2="461.7" y2="263.9"/>
	<line class="st0" x1="434.8" y1="324.7" x2="441.5" y2="331.5"/>
	<line class="st0" x1="467.9" y1="296.1" x2="474.6" y2="302.8"/>
	<line class="st0" x1="553.8" y1="228.1" x2="561.9" y2="236.2"/>
	<line class="st0" x1="533.7" y1="248.2" x2="540.8" y2="255.4"/>
	<line class="st0" x1="561.9" y1="175.3" x2="570.8" y2="184.3"/>
	<line class="st0" x1="590.9" y1="198.1" x2="597.6" y2="204.9"/>
	<line class="st0" x1="627.4" y1="334.7" x2="632.7" y2="340"/>
	<line class="st0" x1="627.6" y1="161.5" x2="633.9" y2="167.7"/>
	<line class="st0" x1="625.1" y1="259" x2="633.2" y2="267.1"/>
	<line class="st0" x1="525.6" y1="54.1" x2="531.9" y2="60.4"/>
	<line class="st0" x1="566.6" y1="29.4" x2="572" y2="34.8"/>
	<line class="st0" x1="353.4" y1="221" x2="358.3" y2="225.9"/>
	<line class="st0" x1="389.2" y1="285.4" x2="396.8" y2="293"/>
	<line class="st0" x1="531" y1="307.3" x2="536.4" y2="312.7"/>
	<line class="st0" x1="589.6" y1="290.7" x2="595" y2="296.1"/>
	<line class="st0" x1="492.5" y1="326.1" x2="499.7" y2="333.2"/>
	<line class="st0" x1="599" y1="240.2" x2="606.6" y2="247.8"/>
	<line class="st0" x1="622.7" y1="191.4" x2="629.4" y2="198.1"/>
	<line class="st0" x1="418.7" y1="110" x2="424.1" y2="115.4"/>
	<line class="st0" x1="388.3" y1="138.6" x2="395.4" y2="145.8"/>
	<line class="st0" x1="524.6" y1="14.6" x2="530" y2="20"/>
	<line class="st0" x1="473.3" y1="63.5" x2="480.4" y2="70.7"/>
	<line class="st0" x1="137.8" y1="400.8" x2="144.9" y2="408"/>
	<line class="st0" x1="657.8" y1="305.4" x2="665" y2="312.6"/>
	<line class="st0" x1="679.2" y1="253.8" x2="687.7" y2="262.3"/>
	<line class="st0" x1="717.7" y1="258.3" x2="723.9" y2="264.5"/>
	<line class="st0" x1="725.7" y1="209.1" x2="731.5" y2="214.9"/>
	<line class="st0" x1="780.3" y1="190.3" x2="787.5" y2="197.4"/>
	<line class="st0" x1="758.8" y1="233.2" x2="763.8" y2="238.1"/>
	<line class="st0" x1="699" y1="360.5" x2="704.4" y2="365.9"/>
	<line class="st0" x1="698.9" y1="312.9" x2="704.7" y2="318.7"/>
	<line class="st0" x1="675.2" y1="501.7" x2="682.8" y2="509.4"/>
	<line class="st0" x1="680.5" y1="333" x2="685.9" y2="338.3"/>
	<line class="st0" x1="654.6" y1="345.5" x2="661.4" y2="352.1"/>
	<line class="st0" x1="566" y1="624.3" x2="571.8" y2="630.1"/>
	<line class="st0" x1="793.3" y1="145.1" x2="799.1" y2="150.9"/>
	<line class="st0" x1="751.4" y1="142.1" x2="756.7" y2="147.5"/>
	<line class="st0" x1="754.4" y1="287.8" x2="761.5" y2="295"/>
	<line class="st0" x1="803.1" y1="260.5" x2="810.7" y2="268.1"/>
	<line class="st0" x1="814.8" y1="216.7" x2="820.1" y2="222"/>
	<line class="st0" x1="854.6" y1="191.2" x2="859.9" y2="196.5"/>
	<line class="st0" x1="881" y1="195.2" x2="887.7" y2="201.9"/>
	<line class="st0" x1="852.3" y1="228.3" x2="859" y2="235"/>
	<line class="st0" x1="784.3" y1="314.2" x2="792.4" y2="322.2"/>
	<line class="st0" x1="804.5" y1="294.1" x2="811.6" y2="301.2"/>
	<line class="st0" x1="731.5" y1="322.2" x2="740.5" y2="331.2"/>
	<line class="st0" x1="754.4" y1="351.3" x2="761.1" y2="358"/>
	<line class="st0" x1="721" y1="479.1" x2="726.4" y2="484.5"/>
	<line class="st0" x1="672.1" y1="441.3" x2="677.4" y2="446.6"/>
	<line class="st0" x1="717.7" y1="388" x2="723.9" y2="394.3"/>
	<line class="st0" x1="657.1" y1="405.8" x2="665.2" y2="413.8"/>
	<line class="st0" x1="525.3" y1="693.6" x2="531.5" y2="699.9"/>
	<line class="st0" x1="532.9" y1="724.5" x2="538.2" y2="729.8"/>
	<line class="st0" x1="664.8" y1="89.9" x2="670.6" y2="95.7"/>
	<line class="st0" x1="841.6" y1="149.6" x2="849.2" y2="157.2"/>
	<line class="st0" x1="873.8" y1="168.4" x2="879.2" y2="173.7"/>
	<line class="st0" x1="861.3" y1="275.7" x2="866.6" y2="281.1"/>
	<line class="st0" x1="913.9" y1="258.6" x2="921.1" y2="265.8"/>
	<line class="st0" x1="943.6" y1="235.8" x2="948.5" y2="240.7"/>
	<line class="st0" x1="796.4" y1="359.4" x2="804" y2="367"/>
	<line class="st0" x1="747.6" y1="383.1" x2="754.4" y2="389.8"/>
	<line class="st0" x1="732" y1="443.5" x2="738.3" y2="449.7"/>
	<line class="st0" x1="837.6" y1="436.3" x2="844.7" y2="443.5"/>
	<line class="st0" x1="850.1" y1="411.3" x2="858.6" y2="419.8"/>
	<line class="st0" x1="987" y1="392.2" x2="992.9" y2="398"/>
	<line class="st0" x1="888.6" y1="415.7" x2="894.8" y2="422"/>
	<line class="st0" x1="896.6" y1="366.5" x2="902.4" y2="372.3"/>
	<line class="st0" x1="863.1" y1="372.3" x2="868.4" y2="377.7"/>
	<line class="st0" x1="915.4" y1="346.8" x2="919.4" y2="350.9"/>
	<line class="st0" x1="951.2" y1="347.7" x2="958.3" y2="354.9"/>
	<line class="st0" x1="929.7" y1="390.7" x2="934.6" y2="395.6"/>
	<line class="st0" x1="828.2" y1="337.5" x2="834" y2="343.3"/>
	<line class="st0" x1="855.5" y1="312.9" x2="859.5" y2="316.9"/>
	<line class="st0" x1="874.7" y1="337.5" x2="879.6" y2="342.4"/>
	<line class="st0" x1="984.5" y1="515.8" x2="989.8" y2="521.2"/>
	<line class="st0" x1="869.8" y1="470.3" x2="875.6" y2="476.1"/>
	<line class="st0" x1="821" y1="463.6" x2="828.6" y2="471.2"/>
	<line class="st0" x1="531" y1="648" x2="537.8" y2="654.6"/>
	<line class="st0" x1="955.5" y1="298.4" x2="960.9" y2="303.7"/>
	<line class="st0" x1="368.9" y1="603.2" x2="373.3" y2="607.6"/>
	<line class="st0" x1="925.2" y1="445.3" x2="932.4" y2="452.4"/>
	<line class="st0" x1="355" y1="694" x2="362.6" y2="701.6"/>
	<line class="st0" x1="366.6" y1="650.1" x2="372" y2="655.5"/>
	<line class="st0" x1="406.5" y1="624.6" x2="411.8" y2="630"/>
	<line class="st0" x1="432.8" y1="628.7" x2="439.6" y2="635.4"/>
	<line class="st0" x1="404.2" y1="661.8" x2="410.9" y2="668.5"/>
	<line class="st0" x1="662.6" y1="714.2" x2="668.8" y2="720.5"/>
	<line class="st0" x1="975.3" y1="451.5" x2="982.5" y2="458.7"/>
	<line class="st0" x1="902.4" y1="479.7" x2="911.4" y2="488.7"/>
	<line class="st0" x1="630.8" y1="653.8" x2="637.5" y2="660.5"/>
	<line class="st0" x1="570.4" y1="671.3" x2="575.8" y2="676.6"/>
	<line class="st0" x1="614.4" y1="679.8" x2="620.6" y2="686"/>
	<line class="st0" x1="578.5" y1="713.3" x2="586.5" y2="721.4"/>
	<line class="st0" x1="781.2" y1="443.5" x2="787.5" y2="449.7"/>
	<line class="st0" x1="788.8" y1="474.3" x2="794.2" y2="479.7"/>
	<line class="st0" x1="894.9" y1="289" x2="899.8" y2="293.9"/>
	<line class="st0" x1="363.5" y1="539.6" x2="367.5" y2="543.7"/>
	<line class="st0" x1="393.5" y1="583" x2="401.1" y2="590.6"/>
	<line class="st0" x1="413.2" y1="709.2" x2="418.5" y2="714.6"/>
	<line class="st0" x1="732.7" y1="718.6" x2="739.8" y2="725.8"/>
	<line class="st0" x1="477.1" y1="671.2" x2="482.1" y2="676.1"/>
	<line class="st0" x1="483.8" y1="702" x2="488.8" y2="706.9"/>
	<line class="st0" x1="287" y1="526.4" x2="294.7" y2="534"/>
	<line class="st0" x1="627.2" y1="719.1" x2="634" y2="725.8"/>
	<line class="st0" x1="885.4" y1="738" x2="891.7" y2="744.2"/>
	<line class="st0" x1="675.9" y1="21.5" x2="683" y2="28.7"/>
	<line class="st0" x1="656.4" y1="125.3" x2="664.9" y2="133.8"/>
	<line class="st0" x1="708" y1="101.7" x2="713.8" y2="107.5"/>
	<line class="st0" x1="654.8" y1="205.8" x2="660.6" y2="211.6"/>
	<line class="st0" x1="683.4" y1="176.1" x2="688.8" y2="181.4"/>
	<line class="st0" x1="882.3" y1="22.1" x2="888.1" y2="27.9"/>
	<line class="st0" x1="919.4" y1="59.2" x2="926.6" y2="66.4"/>
	<line class="st0" x1="962.4" y1="37.7" x2="967.3" y2="42.7"/>
	<line class="st0" x1="680.3" y1="56.4" x2="685.7" y2="61.8"/>
	<line class="st0" x1="778.6" y1="23.3" x2="785.2" y2="30.1"/>
	<line class="st0" x1="19.6" y1="569.1" x2="25" y2="574.5"/>
	<line class="st0" x1="898.9" y1="95.9" x2="903.3" y2="100.4"/>
	<line class="st0" x1="47" y1="512.3" x2="54.1" y2="519.4"/>
	<line class="st0" x1="26.6" y1="534.4" x2="34.2" y2="542.1"/>
	<line class="st0" x1="945.8" y1="93.7" x2="951.2" y2="99"/>
	<line class="st0" x1="920.3" y1="133.5" x2="925.7" y2="138.8"/>
	<line class="st0" x1="924.4" y1="159.9" x2="931.1" y2="166.6"/>
	<line class="st0" x1="957.5" y1="131.2" x2="964.2" y2="137.9"/>
	<line class="st0" x1="73.3" y1="542.2" x2="81.4" y2="550.3"/>
	<line class="st0" x1="723.5" y1="162.7" x2="732" y2="172.1"/>
	<line class="st0" x1="745.2" y1="82.8" x2="750.6" y2="88.2"/>
	<line class="st0" x1="800" y1="109.5" x2="806.3" y2="115.8"/>
	<line class="st0" x1="807.8" y1="56.8" x2="815.9" y2="64.9"/>
	<line class="st0" x1="842.9" y1="56.1" x2="847.9" y2="61"/>
	<line class="st0" x1="849.2" y1="116.9" x2="855" y2="122.7"/>
	<line class="st0" x1="878.7" y1="120.5" x2="886.3" y2="128.1"/>
	<line class="st0" x1="897.5" y1="152.7" x2="902.9" y2="158.1"/>
	<line class="st0" x1="34.9" y1="619.2" x2="40.2" y2="624.5"/>
	<line class="st0" x1="12.1" y1="640.2" x2="19.2" y2="647.4"/>
	<line class="st0" x1="5.1" y1="678.7" x2="10" y2="683.6"/>
	<line class="st0" x1="941.3" y1="194.8" x2="945.8" y2="199.2"/>
	<line class="st0" x1="118.5" y1="554.3" x2="126.1" y2="561.9"/>
	<line class="st0" x1="142.2" y1="505.5" x2="148.9" y2="512.3"/>
	<line class="st0" x1="824.7" y1="24.2" x2="830.9" y2="30.4"/>
	<line class="st0" x1="306.2" y1="498.7" x2="313.3" y2="505.8"/>
	<line class="st0" x1="170.4" y1="608" x2="178.9" y2="616.5"/>
	<line class="st0" x1="173.9" y1="734.5" x2="180.2" y2="740.7"/>
	<line class="st0" x1="125.7" y1="654.5" x2="131.5" y2="660.3"/>
	<line class="st0" x1="131.5" y1="621" x2="136.9" y2="626.3"/>
	<line class="st0" x1="778.3" y1="745.7" x2="782.3" y2="749.8"/>
	<line class="st0" x1="69.8" y1="672" x2="75.6" y2="677.8"/>
	<line class="st0" x1="89.9" y1="726.1" x2="97.1" y2="733.2"/>
	<line class="st0" x1="149.8" y1="687.6" x2="154.8" y2="692.5"/>
	<line class="st0" x1="199.9" y1="630.4" x2="205.3" y2="635.7"/>
	<line class="st0" x1="326.5" y1="617.7" x2="332.3" y2="623.5"/>
	<line class="st0" x1="222.8" y1="578.9" x2="230.4" y2="586.5"/>
	<line class="st0" x1="329.6" y1="560.3" x2="335" y2="565.7"/>
	<line class="st0" x1="263.4" y1="539.1" x2="270" y2="545.9"/>
	<line class="st0" x1="281.4" y1="587.4" x2="287.2" y2="593.2"/>
	<line class="st0" x1="65.7" y1="700.1" x2="71.1" y2="705.5"/>
	<line class="st0" x1="437.3" y1="542.8" x2="441.8" y2="547.2"/>
	<line class="st0" x1="204.4" y1="683.1" x2="211.6" y2="690.3"/>
	<line class="st0" x1="528.1" y1="528.9" x2="535.7" y2="536.5"/>
	<line class="st0" x1="484.3" y1="540.5" x2="489.7" y2="545.9"/>
	<line class="st0" x1="462.8" y1="606.7" x2="469.5" y2="613.5"/>
	<line class="st0" x1="495.9" y1="578.1" x2="502.6" y2="584.8"/>
	<line class="st0" x1="230.8" y1="713.1" x2="238.9" y2="721.2"/>
	<line class="st0" x1="561.7" y1="530.2" x2="568.8" y2="537.4"/>
	<line class="st0" x1="238.9" y1="660.3" x2="247.8" y2="669.3"/>
	<line class="st0" x1="267.9" y1="683.1" x2="274.6" y2="689.9"/>
	<line class="st0" x1="655.4" y1="616.7" x2="660.7" y2="622"/>
	<line class="st0" x1="285.4" y1="622.8" x2="290.8" y2="628.1"/>
	<line class="st0" x1="653.1" y1="541" x2="661.2" y2="549.1"/>
	<line class="st0" x1="202.6" y1="539.1" x2="208.9" y2="545.4"/>
	<line class="st0" x1="243.6" y1="514.4" x2="249" y2="519.8"/>
	<line class="st0" x1="31.4" y1="731" x2="36.3" y2="735.9"/>
	<line class="st0" x1="417.2" y1="567.4" x2="424.8" y2="575"/>
	<line class="st0" x1="559" y1="589.3" x2="564.4" y2="594.7"/>
	<line class="st0" x1="617.6" y1="572.7" x2="623" y2="578.1"/>
	<line class="st0" x1="520.5" y1="608.1" x2="527.7" y2="615.2"/>
	<line class="st0" x1="505.3" y1="651" x2="510.2" y2="656"/>
	<line class="st0" x1="575" y1="501.2" x2="582.6" y2="508.8"/>
	<line class="st0" x1="299.7" y1="676.4" x2="306.4" y2="683.1"/>
	<line class="st0" x1="600.4" y1="605.2" x2="606.6" y2="611.4"/>
	<line class="st0" x1="863" y1="620.3" x2="868.8" y2="626.1"/>
	<line class="st0" x1="822.3" y1="689.6" x2="828.5" y2="695.9"/>
	<line class="st0" x1="829.9" y1="720.5" x2="835.2" y2="725.8"/>
	<line class="st0" x1="981" y1="686" x2="987.8" y2="692.6"/>
	<line class="st0" x1="703.5" y1="620.6" x2="708.8" y2="626"/>
	<line class="st0" x1="729.8" y1="624.7" x2="736.6" y2="631.4"/>
	<line class="st0" x1="701.2" y1="657.8" x2="707.9" y2="664.5"/>
	<line class="st0" x1="959.6" y1="710.2" x2="965.8" y2="716.5"/>
	<line class="st0" x1="927.8" y1="649.8" x2="934.5" y2="656.5"/>
	<line class="st0" x1="867.4" y1="667.3" x2="872.8" y2="672.6"/>
	<line class="st0" x1="911.4" y1="675.8" x2="917.6" y2="682"/>
	<line class="st0" x1="875.5" y1="709.3" x2="883.5" y2="717.4"/>
	<line class="st0" x1="690.5" y1="579" x2="698.1" y2="586.6"/>
	<line class="st0" x1="710.2" y1="705.2" x2="715.5" y2="710.6"/>
	<line class="st0" x1="774.1" y1="667.2" x2="779.1" y2="672.1"/>
	<line class="st0" x1="780.8" y1="698" x2="785.8" y2="702.9"/>
	<line class="st0" x1="924.2" y1="715.1" x2="931" y2="721.8"/>
	<line class="st0" x1="734.3" y1="538.8" x2="738.8" y2="543.2"/>
	<line class="st0" x1="825.1" y1="524.9" x2="832.7" y2="532.5"/>
	<line class="st0" x1="781.3" y1="536.5" x2="786.7" y2="541.9"/>
	<line class="st0" x1="792.9" y1="574.1" x2="799.6" y2="580.8"/>
	<line class="st0" x1="858.7" y1="526.2" x2="865.8" y2="533.4"/>
	<line class="st0" x1="952.4" y1="612.7" x2="957.7" y2="618"/>
	<line class="st0" x1="950.1" y1="537" x2="958.2" y2="545.1"/>
	<line class="st0" x1="714.2" y1="563.4" x2="721.8" y2="571"/>
	<line class="st0" x1="856" y1="585.3" x2="861.4" y2="590.7"/>
	<line class="st0" x1="914.6" y1="568.7" x2="920" y2="574.1"/>
	<line class="st0" x1="817.5" y1="604.1" x2="824.7" y2="611.2"/>
	<line class="st0" x1="802.3" y1="647" x2="807.2" y2="652"/>
	<line class="st0" x1="924" y1="518.2" x2="931.6" y2="525.8"/>
	<line class="st0" x1="984.4" y1="586.2" x2="990.6" y2="592.4"/>
	<line class="st0" x1="95.7" y1="595" x2="101.1" y2="600.4"/>
	<line class="st0" x1="65.3" y1="623.6" x2="72.4" y2="630.8"/>
	<line class="st0" x1="201.6" y1="499.6" x2="207" y2="505"/>
	<line class="st0" x1="150.3" y1="548.5" x2="157.4" y2="555.7"/>
	<line class="st0" x1="807.6" y1="385.8" x2="813" y2="391.1"/>
	<line class="st0" x1="784.8" y1="406.8" x2="791.9" y2="414"/>
</g>
<g id="big" class="st1">
</g>
</svg>
