<?xml version="1.0" encoding="utf-8"?>
<!-- Generator: Adobe Illustrator 19.1.0, SVG Export Plug-In . SVG Version: 6.00 Build 0)  -->
<svg version="1.1" xmlns="http://www.w3.org/2000/svg" xmlns:xlink="http://www.w3.org/1999/xlink" x="0px" y="0px"
	 viewBox="0 0 145 31" style="enable-background:new 0 0 145 31;" xml:space="preserve">
<style type="text/css">
	.st0{display:none;}
	.st1{display:inline;fill:#18717A;}
	.st2{fill:#13585B;}
	.st3{fill:#F2F9F8;}
	.st4{fill:none;stroke:#31AA9B;stroke-width:8;stroke-linecap:round;stroke-miterlimit:10;}
	.st5{fill:#124C4F;}
	.st6{fill:none;stroke:#1C88A5;stroke-width:8;stroke-linecap:round;stroke-miterlimit:10;}
	.st7{fill:#EFEFEF;}
	.st8{fill:#4ACCC2;}
	.st9{fill:#18717A;}
	.st10{fill:#1C88A5;}
	.st11{fill:#1B7989;}
	.st12{fill:#31AA9B;}
	.st13{fill:#EA9C68;}
	.st14{fill:#EDA574;}
	.st15{fill:#5B463B;}
</style>
<g id="Layer_3" class="st0">
	<rect x="-3" y="-576.5" class="st1" width="1024" height="768"/>
</g>
<g id="Layer_1">
	<path class="st3" d="M109.4,10.7c-8.1,0-15.5,2.8-21.6,7.2c-2.8-1.6-5.9-2.7-9.2-3.1c-5-2.6-10.6-4.1-16.5-4.1
		c-8.1,0-15.5,2.8-21.6,7.2c-3.7-2.1-7.9-3.3-12.5-3.3c-6.5,0-12.5,2.5-17,6.6c-0.7,0.7-0.2,1.9,0.7,1.9h122.3c1,0,1.5-1.2,0.7-1.9
		C128.3,15,119.3,10.7,109.4,10.7z"/>
</g>
<g id="Layer_2">
</g>
</svg>
