<?xml version="1.0" encoding="utf-8"?>
<!-- Generator: Adobe Illustrator 19.1.0, SVG Export Plug-In . SVG Version: 6.00 Build 0)  -->
<svg version="1.1" xmlns="http://www.w3.org/2000/svg" xmlns:xlink="http://www.w3.org/1999/xlink" x="0px" y="0px"
	 viewBox="0 0 1024 768" style="enable-background:new 0 0 1024 768;" xml:space="preserve">
<style type="text/css">
	.st0{fill:none;stroke:#F2F9F8;stroke-width:8;stroke-linecap:round;stroke-miterlimit:10;}
</style>
<g id="Layer_1">
</g>
<g id="Layer_3">
</g>
<g id="Layer_2">
	<line class="st0" x1="9.7" y1="473.4" x2="21" y2="484.7"/>
	<line class="st0" x1="43.5" y1="391.8" x2="56.9" y2="405.2"/>
	<line class="st0" x1="104.3" y1="398.8" x2="114.2" y2="408.7"/>
	<line class="st0" x1="117" y1="321" x2="126.2" y2="330.2"/>
	<line class="st0" x1="64" y1="330.2" x2="72.5" y2="338.7"/>
	<line class="st0" x1="144.6" y1="232.7" x2="153.8" y2="241.8"/>
	<line class="st0" x1="203.3" y1="291.3" x2="214.6" y2="302.7"/>
	<line class="st0" x1="169.4" y1="359.2" x2="177.1" y2="367"/>
	<line class="st0" x1="74.8" y1="560.4" x2="83.3" y2="568.9"/>
	<line class="st0" x1="74.6" y1="485.1" x2="83.8" y2="494.3"/>
	<line class="st0" x1="43.5" y1="701.5" x2="55.6" y2="713.5"/>
	<line class="st0" x1="45.6" y1="516.9" x2="54.1" y2="525.4"/>
	<line class="st0" x1="4.6" y1="536.7" x2="15.4" y2="547.2"/>
	<line class="st0" x1="843" y1="541.1" x2="852.2" y2="550.3"/>
	<line class="st0" x1="223.8" y1="219.9" x2="233" y2="229.1"/>
	<line class="st0" x1="189.2" y1="226.3" x2="197.6" y2="234.8"/>
	<line class="st0" x1="261.3" y1="258.8" x2="268.4" y2="265.9"/>
	<line class="st0" x1="162.3" y1="445.5" x2="173.6" y2="456.8"/>
	<line class="st0" x1="239.4" y1="402.4" x2="251.4" y2="414.4"/>
	<line class="st0" x1="257.7" y1="333.1" x2="266.2" y2="341.5"/>
	<line class="st0" x1="320.7" y1="292.8" x2="329.2" y2="301.2"/>
	<line class="st0" x1="362.4" y1="299.1" x2="373" y2="309.7"/>
	<line class="st0" x1="317.1" y1="351.4" x2="327.7" y2="362.1"/>
	<line class="st0" x1="209.7" y1="487.2" x2="222.4" y2="499.9"/>
	<line class="st0" x1="241.5" y1="455.4" x2="252.8" y2="466.7"/>
	<line class="st0" x1="126.2" y1="499.9" x2="140.4" y2="514.1"/>
	<line class="st0" x1="162.3" y1="545.9" x2="172.9" y2="556.5"/>
	<line class="st0" x1="109.6" y1="748" x2="118.1" y2="756.4"/>
	<line class="st0" x1="63.8" y1="637.5" x2="72.3" y2="646"/>
	<line class="st0" x1="104.3" y1="603.9" x2="114.2" y2="613.8"/>
	<line class="st0" x1="8.6" y1="631.9" x2="21.3" y2="644.7"/>
	<line class="st0" x1="778.6" y1="650.7" x2="788.5" y2="660.6"/>
	<line class="st0" x1="790.6" y1="699.5" x2="799.1" y2="707.9"/>
	<line class="st0" x1="198.3" y1="170.4" x2="206.1" y2="178.2"/>
	<line class="st0" x1="20.7" y1="132.7" x2="29.9" y2="141.9"/>
	<line class="st0" x1="300.2" y1="227" x2="312.2" y2="239"/>
	<line class="st0" x1="351.1" y1="256.7" x2="359.6" y2="265.2"/>
	<line class="st0" x1="331.3" y1="426.4" x2="339.8" y2="434.9"/>
	<line class="st0" x1="414.5" y1="399.3" x2="425.8" y2="410.7"/>
	<line class="st0" x1="461.4" y1="363.3" x2="469.2" y2="371.1"/>
	<line class="st0" x1="228.8" y1="558.6" x2="240.8" y2="570.7"/>
	<line class="st0" x1="151.7" y1="596.1" x2="162.3" y2="606.7"/>
	<line class="st0" x1="126.9" y1="691.6" x2="136.8" y2="701.5"/>
	<line class="st0" x1="293.8" y1="680.3" x2="305.1" y2="691.6"/>
	<line class="st0" x1="313.6" y1="640.7" x2="327" y2="654.1"/>
	<line class="st0" x1="274" y1="642.1" x2="283.2" y2="651.3"/>
	<line class="st0" x1="374.4" y1="647.7" x2="384.3" y2="657.6"/>
	<line class="st0" x1="387.1" y1="569.9" x2="396.3" y2="579.1"/>
	<line class="st0" x1="334.1" y1="579.1" x2="342.6" y2="587.6"/>
	<line class="st0" x1="416.8" y1="538.8" x2="423.2" y2="545.2"/>
	<line class="st0" x1="473.4" y1="540.2" x2="484.7" y2="551.6"/>
	<line class="st0" x1="439.5" y1="608.1" x2="447.2" y2="615.9"/>
	<line class="st0" x1="279" y1="524" x2="288.2" y2="533.2"/>
	<line class="st0" x1="322.1" y1="485.1" x2="328.5" y2="491.5"/>
	<line class="st0" x1="352.5" y1="524" x2="360.3" y2="531.8"/>
	<line class="st0" x1="349" y1="687.3" x2="357.4" y2="695.8"/>
	<line class="st0" x1="344.7" y1="734" x2="353.9" y2="743.2"/>
	<line class="st0" x1="267.6" y1="723.4" x2="279.7" y2="735.4"/>
	<line class="st0" x1="787.7" y1="578.6" x2="798.5" y2="589.1"/>
	<line class="st0" x1="480.3" y1="462.2" x2="488.8" y2="470.7"/>
	<line class="st0" x1="531.4" y1="507.7" x2="538.5" y2="514.8"/>
	<line class="st0" x1="432.4" y1="694.4" x2="443.7" y2="705.7"/>
	<line class="st0" x1="509.5" y1="651.3" x2="521.5" y2="663.3"/>
	<line class="st0" x1="527.9" y1="582" x2="536.3" y2="590.5"/>
	<line class="st0" x1="590.8" y1="541.7" x2="599.3" y2="550.1"/>
	<line class="st0" x1="632.5" y1="548" x2="643.1" y2="558.6"/>
	<line class="st0" x1="587.3" y1="600.3" x2="597.9" y2="611"/>
	<line class="st0" x1="995.6" y1="683.3" x2="1005.5" y2="693.2"/>
	<line class="st0" x1="511.6" y1="704.3" x2="522.9" y2="715.6"/>
	<line class="st0" x1="396.3" y1="748.8" x2="410.5" y2="763"/>
	<line class="st0" x1="945.4" y1="587.8" x2="956" y2="598.4"/>
	<line class="st0" x1="849.9" y1="615.4" x2="858.4" y2="623.9"/>
	<line class="st0" x1="919.4" y1="628.8" x2="929.3" y2="638.7"/>
	<line class="st0" x1="862.7" y1="681.8" x2="875.4" y2="694.6"/>
	<line class="st0" x1="204.7" y1="691.6" x2="214.6" y2="701.5"/>
	<line class="st0" x1="216.7" y1="740.4" x2="225.2" y2="748.8"/>
	<line class="st0" x1="384.5" y1="447.3" x2="392.2" y2="455.1"/>
	<line class="st0" x1="522.9" y1="407.3" x2="529.3" y2="413.7"/>
	<line class="st0" x1="570.3" y1="475.9" x2="582.3" y2="487.9"/>
	<line class="st0" x1="601.4" y1="675.3" x2="609.9" y2="683.8"/>
	<line class="st0" x1="668.6" y1="702.9" x2="679.9" y2="714.2"/>
	<line class="st0" x1="702.5" y1="615.2" x2="710.3" y2="623"/>
	<line class="st0" x1="713.1" y1="664" x2="720.9" y2="671.8"/>
	<line class="st0" x1="956.9" y1="65.5" x2="968.9" y2="77.6"/>
	<line class="st0" x1="939.8" y1="691" x2="950.4" y2="701.6"/>
	<line class="st0" x1="910" y1="733.5" x2="919.9" y2="743.4"/>
	<line class="st0" x1="38.2" y1="24.6" x2="49.5" y2="35.9"/>
	<line class="st0" x1="70.6" y1="212.4" x2="84.1" y2="225.8"/>
	<line class="st0" x1="89" y1="151.4" x2="98.2" y2="160.6"/>
	<line class="st0" x1="4.9" y1="315.9" x2="14.1" y2="325.1"/>
	<line class="st0" x1="50.1" y1="268.9" x2="58.6" y2="277.3"/>
	<line class="st0" x1="421.8" y1="27.6" x2="428.2" y2="34"/>
	<line class="st0" x1="364.5" y1="25.5" x2="373.7" y2="34.7"/>
	<line class="st0" x1="423.2" y1="84.2" x2="434.5" y2="95.5"/>
	<line class="st0" x1="491.1" y1="50.2" x2="498.9" y2="58"/>
	<line class="st0" x1="45.3" y1="79.7" x2="53.8" y2="88.2"/>
	<line class="st0" x1="92" y1="75.5" x2="101.1" y2="84.7"/>
	<line class="st0" x1="200.6" y1="27.5" x2="211" y2="38.2"/>
	<line class="st0" x1="351.8" y1="104.7" x2="361" y2="113.9"/>
	<line class="st0" x1="534.2" y1="133" x2="542.6" y2="141.5"/>
	<line class="st0" x1="390.7" y1="142.1" x2="397.8" y2="149.2"/>
	<line class="st0" x1="577.4" y1="43.1" x2="588.7" y2="54.5"/>
	<line class="st0" x1="545.2" y1="78.2" x2="557.2" y2="90.2"/>
	<line class="st0" x1="464.9" y1="138.6" x2="473.4" y2="147.1"/>
	<line class="st0" x1="424.6" y1="201.5" x2="433.1" y2="210"/>
	<line class="st0" x1="431" y1="243.3" x2="441.6" y2="253.9"/>
	<line class="st0" x1="483.3" y1="198" x2="493.9" y2="208.6"/>
	<line class="st0" x1="619.1" y1="90.5" x2="631.8" y2="103.3"/>
	<line class="st0" x1="106.8" y1="199.1" x2="120.9" y2="213.2"/>
	<line class="st0" x1="677.8" y1="43.1" x2="688.4" y2="53.8"/>
	<line class="st0" x1="147.8" y1="121.4" x2="156.3" y2="129.9"/>
	<line class="st0" x1="180.3" y1="67.7" x2="188.8" y2="76.2"/>
	<line class="st0" x1="210.7" y1="105.2" x2="220.6" y2="115.1"/>
	<line class="st0" x1="246.8" y1="80.4" x2="259.5" y2="93.1"/>
	<line class="st0" x1="302.3" y1="79.2" x2="310.1" y2="87"/>
	<line class="st0" x1="290.3" y1="133.7" x2="296.6" y2="140"/>
	<line class="st0" x1="312.2" y1="175.4" x2="321.4" y2="184.6"/>
	<line class="st0" x1="358.9" y1="181" x2="370.9" y2="193.1"/>
	<line class="st0" x1="388.6" y1="231.9" x2="397" y2="240.4"/>
	<line class="st0" x1="558.3" y1="212.1" x2="566.8" y2="220.6"/>
	<line class="st0" x1="522.2" y1="245.4" x2="533.5" y2="256.7"/>
	<line class="st0" x1="511.2" y1="306.3" x2="518.9" y2="314"/>
	<line class="st0" x1="457.9" y1="298.4" x2="464.9" y2="305.5"/>
	<line class="st0" x1="690.5" y1="109.6" x2="702.5" y2="121.6"/>
	<line class="st0" x1="728" y1="32.5" x2="738.6" y2="43.1"/>
	<line class="st0" x1="273.4" y1="28.8" x2="283.3" y2="38.7"/>
	<line class="st0" x1="987.1" y1="21.7" x2="998.4" y2="33"/>
	<line class="st0" x1="772.5" y1="194.5" x2="786" y2="207.9"/>
	<line class="st0" x1="773.9" y1="154.9" x2="783.1" y2="164.1"/>
	<line class="st0" x1="779.6" y1="255.3" x2="789.5" y2="265.2"/>
	<line class="st0" x1="701.8" y1="268" x2="711" y2="277.2"/>
	<line class="st0" x1="711" y1="215" x2="719.5" y2="223.5"/>
	<line class="st0" x1="740.7" y1="745.7" x2="747.1" y2="752.1"/>
	<line class="st0" x1="613.4" y1="295.6" x2="622.6" y2="304.8"/>
	<line class="st0" x1="672.1" y1="354.3" x2="683.4" y2="365.6"/>
	<line class="st0" x1="740" y1="320.3" x2="747.8" y2="328.1"/>
	<line class="st0" x1="819.2" y1="229.8" x2="827.7" y2="238.3"/>
	<line class="st0" x1="865.9" y1="225.6" x2="875" y2="234.8"/>
	<line class="st0" x1="855.3" y1="148.5" x2="867.3" y2="160.5"/>
	<line class="st0" x1="897.7" y1="196.6" x2="906.2" y2="205.1"/>
	<line class="st0" x1="919.5" y1="85.6" x2="929.9" y2="96.3"/>
	<line class="st0" x1="947.9" y1="161.9" x2="957.1" y2="171.1"/>
	<line class="st0" x1="607.1" y1="340.1" x2="615.5" y2="348.6"/>
	<line class="st0" x1="639.6" y1="412.3" x2="646.7" y2="419.3"/>
	<line class="st0" x1="826.3" y1="313.3" x2="837.6" y2="324.6"/>
	<line class="st0" x1="783.1" y1="390.3" x2="795.1" y2="402.4"/>
	<line class="st0" x1="713.8" y1="408.7" x2="722.3" y2="417.2"/>
	<line class="st0" x1="679.9" y1="513.4" x2="690.5" y2="524"/>
	<line class="st0" x1="732.2" y1="468.1" x2="742.8" y2="478.7"/>
	<line class="st0" x1="868" y1="360.6" x2="880.7" y2="373.4"/>
	<line class="st0" x1="836.2" y1="392.5" x2="847.5" y2="403.8"/>
	<line class="st0" x1="880.7" y1="277.2" x2="894.8" y2="291.3"/>
	<line class="st0" x1="926.7" y1="313.3" x2="937.3" y2="323.9"/>
	<line class="st0" x1="984.2" y1="529" x2="992.7" y2="537.5"/>
	<line class="st0" x1="954.2" y1="217.8" x2="962.7" y2="226.3"/>
	<line class="st0" x1="984.7" y1="255.3" x2="994.6" y2="265.2"/>
	<line class="st0" x1="980.7" y1="409.5" x2="993.4" y2="422.3"/>
	<line class="st0" x1="823.4" y1="85.6" x2="833.3" y2="95.5"/>
	<line class="st0" x1="888.2" y1="46.6" x2="896.7" y2="55.1"/>
	<line class="st0" x1="551.2" y1="349.3" x2="559" y2="357.1"/>
	<line class="st0" x1="607.8" y1="451.2" x2="619.8" y2="463.2"/>
	<line class="st0" x1="831.9" y1="485.8" x2="840.4" y2="494.3"/>
	<line class="st0" x1="924.5" y1="459.6" x2="933" y2="468.1"/>
	<line class="st0" x1="771.1" y1="515.5" x2="782.4" y2="526.8"/>
	<line class="st0" x1="747.1" y1="583.4" x2="754.8" y2="591.2"/>
	<line class="st0" x1="939.4" y1="379.7" x2="951.4" y2="391.8"/>
	<line class="st0" x1="976.9" y1="302.7" x2="987.5" y2="313.3"/>
	<line class="st0" x1="897.3" y1="510.9" x2="907.2" y2="520.8"/>
	<line class="st0" x1="654.4" y1="174" x2="662.9" y2="182.4"/>
	<line class="st0" x1="606.3" y1="219.2" x2="617.7" y2="230.5"/>
	<line class="st0" x1="821.8" y1="23.2" x2="830.3" y2="31.7"/>
	<line class="st0" x1="740.7" y1="100.4" x2="752" y2="111.7"/>
	<line class="st0" x1="246.4" y1="600.3" x2="254.9" y2="608.8"/>
	<line class="st0" x1="210.4" y1="633.6" x2="221.7" y2="644.9"/>
</g>
</svg>
