<?xml version="1.0" encoding="utf-8"?>
<!-- Generator: Adobe Illustrator 19.1.0, SVG Export Plug-In . SVG Version: 6.00 Build 0)  -->
<svg version="1.1" id="Layer_1" xmlns="http://www.w3.org/2000/svg" xmlns:xlink="http://www.w3.org/1999/xlink" x="0px" y="0px"
	 viewBox="192 -47.4 1024 574.4" style="enable-background:new 192 -47.4 1024 574.4;" xml:space="preserve">
<style type="text/css">
	.st0{fill:#1B7F84;}
	.st1{fill:#17717A;}
	.st2{fill:#74B7AD;}
	.st3{fill:#84D3C9;}
	.st4{fill:#D89261;}
	.st5{fill:#1B7989;}
	.st6{display:none;}
	.st7{fill:none;stroke:#D89261;stroke-width:20;stroke-linecap:round;stroke-miterlimit:10;}
	.st8{fill:#5B463B;}
	.st9{fill:none;stroke:#31AA9B;stroke-width:6;stroke-linecap:round;stroke-miterlimit:10;}
	.st10{fill:#31AA9B;}
</style>
<g>
	<path class="st0" d="M539.2,375.7h-36.3c-2.2,0-3.8-2.8-3.8-6.2V261.9c0-1.9,0.5-3.8,1.5-5l14.9-18.6c1.3-1.6,3.1-1.7,4.4-0.3
		l19.2,20.8V375.7L539.2,375.7z"/>
	<path class="st1" d="M574.1,375.7h-34.9V258.9h34.9c2.9,0,5.2,2.3,5.2,5.2v106.4C579.3,373.3,577,375.7,574.1,375.7z"/>
	<g>
		<path class="st2" d="M549.5,283.6h-4c-0.7,0-1.3-0.5-1.3-1.3v-9.9c0-0.7,0.5-1.3,1.3-1.3h4c0.7,0,1.3,0.5,1.3,1.3v9.9
			C550.8,283.1,550.2,283.6,549.5,283.6z"/>
	</g>
	<g>
		<path class="st2" d="M549.5,310h-4c-0.7,0-1.3-0.5-1.3-1.3v-9.9c0-0.7,0.5-1.3,1.3-1.3h4c0.7,0,1.3,0.5,1.3,1.3v9.9
			C550.8,309.5,550.2,310,549.5,310z"/>
	</g>
	<g>
		<path class="st2" d="M561.2,283.6h-4c-0.7,0-1.3-0.5-1.3-1.3v-9.9c0-0.7,0.5-1.3,1.3-1.3h4c0.7,0,1.3,0.5,1.3,1.3v9.9
			C562.5,283,561.9,283.6,561.2,283.6z"/>
	</g>
	<g>
		<path class="st2" d="M573.1,283.6h-4c-0.7,0-1.3-0.5-1.3-1.3v-9.9c0-0.7,0.5-1.3,1.3-1.3h4c0.7,0,1.3,0.5,1.3,1.3v9.9
			C574.4,283.1,573.8,283.6,573.1,283.6z"/>
	</g>
	<g>
		<path class="st2" d="M561.2,310h-4c-0.7,0-1.3-0.5-1.3-1.3v-9.9c0-0.7,0.5-1.3,1.3-1.3h4c0.7,0,1.3,0.5,1.3,1.3v9.9
			C562.5,309.5,561.9,310,561.2,310z"/>
	</g>
	<g>
		<path class="st2" d="M573.1,310h-4c-0.7,0-1.3-0.5-1.3-1.3v-9.9c0-0.7,0.5-1.3,1.3-1.3h4c0.7,0,1.3,0.5,1.3,1.3v9.9
			C574.4,309.5,573.8,310,573.1,310z"/>
	</g>
	<g>
		<path class="st2" d="M549.5,335.3h-4c-0.7,0-1.3-0.5-1.3-1.3v-9.9c0-0.7,0.5-1.3,1.3-1.3h4c0.7,0,1.3,0.5,1.3,1.3v9.9
			C550.8,334.8,550.2,335.3,549.5,335.3z"/>
	</g>
	<g>
		<path class="st2" d="M549.5,361.7h-4c-0.7,0-1.3-0.5-1.3-1.3v-9.9c0-0.7,0.5-1.3,1.3-1.3h4c0.7,0,1.3,0.5,1.3,1.3v9.9
			C550.8,361.1,550.2,361.7,549.5,361.7z"/>
	</g>
	<g>
		<path class="st2" d="M561.2,335.3h-4c-0.7,0-1.3-0.5-1.3-1.3v-9.9c0-0.7,0.5-1.3,1.3-1.3h4c0.7,0,1.3,0.5,1.3,1.3v9.9
			C562.5,334.8,561.9,335.3,561.2,335.3z"/>
	</g>
	<g>
		<path class="st2" d="M573.1,335.3h-4c-0.7,0-1.3-0.5-1.3-1.3v-9.9c0-0.7,0.5-1.3,1.3-1.3h4c0.7,0,1.3,0.5,1.3,1.3v9.9
			C574.4,334.8,573.8,335.3,573.1,335.3z"/>
	</g>
	<g>
		<path class="st2" d="M561.2,361.7h-4c-0.7,0-1.3-0.5-1.3-1.3v-9.9c0-0.7,0.5-1.3,1.3-1.3h4c0.7,0,1.3,0.5,1.3,1.3v9.9
			C562.5,361.1,561.9,361.7,561.2,361.7z"/>
	</g>
	<g>
		<path class="st2" d="M573.1,361.7h-4c-0.7,0-1.3-0.5-1.3-1.3v-9.9c0-0.7,0.5-1.3,1.3-1.3h4c0.7,0,1.3,0.5,1.3,1.3v9.9
			C574.4,361.1,573.8,361.7,573.1,361.7z"/>
	</g>
	<g>
		<path class="st3" d="M509.4,283.6h-4c-0.7,0-1.3-0.5-1.3-1.3v-9.9c0-0.7,0.5-1.3,1.3-1.3h4c0.7,0,1.3,0.5,1.3,1.3v9.9
			C510.7,283.1,510,283.6,509.4,283.6z"/>
	</g>
	<g>
		<path class="st3" d="M509.4,310h-4c-0.7,0-1.3-0.5-1.3-1.3v-9.9c0-0.7,0.5-1.3,1.3-1.3h4c0.7,0,1.3,0.5,1.3,1.3v9.9
			C510.7,309.5,510,310,509.4,310z"/>
	</g>
	<g>
		<path class="st3" d="M521.1,283.6h-4c-0.7,0-1.3-0.5-1.3-1.3v-9.9c0-0.7,0.5-1.3,1.3-1.3h4c0.7,0,1.3,0.5,1.3,1.3v9.9
			C522.3,283,521.8,283.6,521.1,283.6z"/>
	</g>
	<g>
		<path class="st3" d="M532.9,283.6h-4c-0.7,0-1.3-0.5-1.3-1.3v-9.9c0-0.7,0.5-1.3,1.3-1.3h4c0.7,0,1.3,0.5,1.3,1.3v9.9
			C534.2,283.1,533.6,283.6,532.9,283.6z"/>
	</g>
	<g>
		<path class="st3" d="M521.1,310h-4c-0.7,0-1.3-0.5-1.3-1.3v-9.9c0-0.7,0.5-1.3,1.3-1.3h4c0.7,0,1.3,0.5,1.3,1.3v9.9
			C522.3,309.5,521.8,310,521.1,310z"/>
	</g>
	<g>
		<path class="st3" d="M532.9,310h-4c-0.7,0-1.3-0.5-1.3-1.3v-9.9c0-0.7,0.5-1.3,1.3-1.3h4c0.7,0,1.3,0.5,1.3,1.3v9.9
			C534.2,309.5,533.6,310,532.9,310z"/>
	</g>
	<g>
		<path class="st3" d="M509.4,335.3h-4c-0.7,0-1.3-0.5-1.3-1.3v-9.9c0-0.7,0.5-1.3,1.3-1.3h4c0.7,0,1.3,0.5,1.3,1.3v9.9
			C510.7,334.8,510,335.3,509.4,335.3z"/>
	</g>
	<g>
		<path class="st3" d="M509.4,361.7h-4c-0.7,0-1.3-0.5-1.3-1.3v-9.9c0-0.7,0.5-1.3,1.3-1.3h4c0.7,0,1.3,0.5,1.3,1.3v9.9
			C510.7,361.1,510,361.7,509.4,361.7z"/>
	</g>
	<g>
		<path class="st3" d="M521.1,335.3h-4c-0.7,0-1.3-0.5-1.3-1.3v-9.9c0-0.7,0.5-1.3,1.3-1.3h4c0.7,0,1.3,0.5,1.3,1.3v9.9
			C522.3,334.8,521.8,335.3,521.1,335.3z"/>
	</g>
	<g>
		<path class="st3" d="M532.9,335.3h-4c-0.7,0-1.3-0.5-1.3-1.3v-9.9c0-0.7,0.5-1.3,1.3-1.3h4c0.7,0,1.3,0.5,1.3,1.3v9.9
			C534.2,334.8,533.6,335.3,532.9,335.3z"/>
	</g>
	<g>
		<path class="st3" d="M521.1,361.7h-4c-0.7,0-1.3-0.5-1.3-1.3v-9.9c0-0.7,0.5-1.3,1.3-1.3h4c0.7,0,1.3,0.5,1.3,1.3v9.9
			C522.3,361.1,521.8,361.7,521.1,361.7z"/>
	</g>
	<g>
		<path class="st3" d="M532.9,361.7h-4c-0.7,0-1.3-0.5-1.3-1.3v-9.9c0-0.7,0.5-1.3,1.3-1.3h4c0.7,0,1.3,0.5,1.3,1.3v9.9
			C534.2,361.1,533.6,361.7,532.9,361.7z"/>
	</g>
	<path class="st4" d="M573.6,261.1h-32.2c-1.1,0-2.1-0.4-2.8-0.9l-23-20.2c-2-1.8-0.4-4.5,2.8-4.5h32.2c1.1,0,2.1,0.4,2.8,0.9
		l23,20.2C578.5,258.4,576.8,261.1,573.6,261.1z"/>
	<path class="st0" d="M550.3,247.4H538c-0.5,0-0.7-0.4-0.7-0.7v-15.8H551v15.8C551,247.1,550.7,247.4,550.3,247.4z"/>
	<path class="st1" d="M550.3,247.4h-6.1v-16.5h6.9v15.7C551,247,550.7,247.4,550.3,247.4z"/>
	<path class="st0" d="M553,233h-17.6c-0.3,0-0.5-0.3-0.5-0.5v-3.1c0-0.3,0.3-0.5,0.5-0.5H553c0.3,0,0.5,0.3,0.5,0.5v3.1
		C553.6,232.8,553.4,233,553,233z"/>
	<path class="st1" d="M553,233h-8.8v-4.2h8.8c0.4,0,0.5,0.3,0.5,0.5v3C553.6,232.8,553.4,233,553,233z"/>
</g>
<rect x="310.6" y="-18.4" class="st0" width="44.6" height="404.2"/>
<rect x="772.9" y="220.1" class="st0" width="62.2" height="172.5"/>
<rect x="1011.9" y="223.2" class="st0" width="62.2" height="172.5"/>
<rect x="425.8" y="223.6" class="st0" width="62.2" height="172.5"/>
<rect x="1161.9" y="-14.8" class="st0" width="32.1" height="404.2"/>
<rect x="946.6" y="-11.9" class="st0" width="28.4" height="404.2"/>
<rect x="660.1" y="-13.4" class="st0" width="92.7" height="404.2"/>
<g id="Layer_3">
	<rect x="190.8" y="374.2" class="st5" width="1024" height="152.8"/>
</g>
<g>
	<path class="st0" d="M604,378h-40.2c-2.4,0-4.2-3.1-4.2-6.9V252c0-2.1,0.6-4.2,1.7-5.5l16.5-20.6c1.4-1.8,3.4-1.9,4.9-0.3l21.3,23
		V378L604,378z"/>
	<path class="st1" d="M642.6,378H604V248.7h38.6c3.2,0,5.8,2.6,5.8,5.8v117.8C648.4,375.4,645.8,378,642.6,378z"/>
	<g>
		<path class="st2" d="M615.4,276.1H611c-0.8,0-1.4-0.6-1.4-1.4v-11c0-0.8,0.6-1.4,1.4-1.4h4.4c0.8,0,1.4,0.6,1.4,1.4v11
			C616.8,275.5,616.2,276.1,615.4,276.1z"/>
	</g>
	<g>
		<path class="st2" d="M615.4,305.3H611c-0.8,0-1.4-0.6-1.4-1.4v-11c0-0.8,0.6-1.4,1.4-1.4h4.4c0.8,0,1.4,0.6,1.4,1.4v11
			C616.8,304.7,616.2,305.3,615.4,305.3z"/>
	</g>
	<g>
		<path class="st2" d="M628.3,276.1h-4.4c-0.8,0-1.4-0.6-1.4-1.4v-11c0-0.8,0.6-1.4,1.4-1.4h4.4c0.8,0,1.4,0.6,1.4,1.4v11
			C629.8,275.4,629.1,276.1,628.3,276.1z"/>
	</g>
	<g>
		<path class="st2" d="M641.5,276.1h-4.4c-0.8,0-1.4-0.6-1.4-1.4v-11c0-0.8,0.6-1.4,1.4-1.4h4.4c0.8,0,1.4,0.6,1.4,1.4v11
			C642.9,275.5,642.3,276.1,641.5,276.1z"/>
	</g>
	<g>
		<path class="st2" d="M628.3,305.3h-4.4c-0.8,0-1.4-0.6-1.4-1.4v-11c0-0.8,0.6-1.4,1.4-1.4h4.4c0.8,0,1.4,0.6,1.4,1.4v11
			C629.8,304.7,629.1,305.3,628.3,305.3z"/>
	</g>
	<g>
		<path class="st2" d="M641.5,305.3h-4.4c-0.8,0-1.4-0.6-1.4-1.4v-11c0-0.8,0.6-1.4,1.4-1.4h4.4c0.8,0,1.4,0.6,1.4,1.4v11
			C642.9,304.7,642.3,305.3,641.5,305.3z"/>
	</g>
	<g>
		<path class="st2" d="M615.4,333.3H611c-0.8,0-1.4-0.6-1.4-1.4v-11c0-0.8,0.6-1.4,1.4-1.4h4.4c0.8,0,1.4,0.6,1.4,1.4v11
			C616.8,332.7,616.2,333.3,615.4,333.3z"/>
	</g>
	<g>
		<path class="st2" d="M615.4,362.5H611c-0.8,0-1.4-0.6-1.4-1.4v-11c0-0.8,0.6-1.4,1.4-1.4h4.4c0.8,0,1.4,0.6,1.4,1.4v11
			C616.8,361.8,616.2,362.5,615.4,362.5z"/>
	</g>
	<g>
		<path class="st2" d="M628.3,333.3h-4.4c-0.8,0-1.4-0.6-1.4-1.4v-11c0-0.8,0.6-1.4,1.4-1.4h4.4c0.8,0,1.4,0.6,1.4,1.4v11
			C629.8,332.7,629.1,333.3,628.3,333.3z"/>
	</g>
	<g>
		<path class="st2" d="M641.5,333.3h-4.4c-0.8,0-1.4-0.6-1.4-1.4v-11c0-0.8,0.6-1.4,1.4-1.4h4.4c0.8,0,1.4,0.6,1.4,1.4v11
			C642.9,332.7,642.3,333.3,641.5,333.3z"/>
	</g>
	<g>
		<path class="st2" d="M628.3,362.5h-4.4c-0.8,0-1.4-0.6-1.4-1.4v-11c0-0.8,0.6-1.4,1.4-1.4h4.4c0.8,0,1.4,0.6,1.4,1.4v11
			C629.8,361.8,629.1,362.5,628.3,362.5z"/>
	</g>
	<g>
		<path class="st2" d="M641.5,362.5h-4.4c-0.8,0-1.4-0.6-1.4-1.4v-11c0-0.8,0.6-1.4,1.4-1.4h4.4c0.8,0,1.4,0.6,1.4,1.4v11
			C642.9,361.8,642.3,362.5,641.5,362.5z"/>
	</g>
	<g>
		<path class="st3" d="M571,276.1h-4.4c-0.8,0-1.4-0.6-1.4-1.4v-11c0-0.8,0.6-1.4,1.4-1.4h4.4c0.8,0,1.4,0.6,1.4,1.4v11
			C572.4,275.5,571.7,276.1,571,276.1z"/>
	</g>
	<g>
		<path class="st3" d="M571,305.3h-4.4c-0.8,0-1.4-0.6-1.4-1.4v-11c0-0.8,0.6-1.4,1.4-1.4h4.4c0.8,0,1.4,0.6,1.4,1.4v11
			C572.4,304.7,571.7,305.3,571,305.3z"/>
	</g>
	<g>
		<path class="st3" d="M583.9,276.1h-4.4c-0.8,0-1.4-0.6-1.4-1.4v-11c0-0.8,0.6-1.4,1.4-1.4h4.4c0.8,0,1.4,0.6,1.4,1.4v11
			C585.3,275.4,584.7,276.1,583.9,276.1z"/>
	</g>
	<g>
		<path class="st3" d="M597,276.1h-4.4c-0.8,0-1.4-0.6-1.4-1.4v-11c0-0.8,0.6-1.4,1.4-1.4h4.4c0.8,0,1.4,0.6,1.4,1.4v11
			C598.5,275.5,597.8,276.1,597,276.1z"/>
	</g>
	<g>
		<path class="st3" d="M583.9,305.3h-4.4c-0.8,0-1.4-0.6-1.4-1.4v-11c0-0.8,0.6-1.4,1.4-1.4h4.4c0.8,0,1.4,0.6,1.4,1.4v11
			C585.3,304.7,584.7,305.3,583.9,305.3z"/>
	</g>
	<g>
		<path class="st3" d="M597,305.3h-4.4c-0.8,0-1.4-0.6-1.4-1.4v-11c0-0.8,0.6-1.4,1.4-1.4h4.4c0.8,0,1.4,0.6,1.4,1.4v11
			C598.5,304.7,597.8,305.3,597,305.3z"/>
	</g>
	<g>
		<path class="st3" d="M571,333.3h-4.4c-0.8,0-1.4-0.6-1.4-1.4v-11c0-0.8,0.6-1.4,1.4-1.4h4.4c0.8,0,1.4,0.6,1.4,1.4v11
			C572.4,332.7,571.7,333.3,571,333.3z"/>
	</g>
	<g>
		<path class="st3" d="M571,362.5h-4.4c-0.8,0-1.4-0.6-1.4-1.4v-11c0-0.8,0.6-1.4,1.4-1.4h4.4c0.8,0,1.4,0.6,1.4,1.4v11
			C572.4,361.8,571.7,362.5,571,362.5z"/>
	</g>
	<g>
		<path class="st3" d="M583.9,333.3h-4.4c-0.8,0-1.4-0.6-1.4-1.4v-11c0-0.8,0.6-1.4,1.4-1.4h4.4c0.8,0,1.4,0.6,1.4,1.4v11
			C585.3,332.7,584.7,333.3,583.9,333.3z"/>
	</g>
	<g>
		<path class="st3" d="M597,333.3h-4.4c-0.8,0-1.4-0.6-1.4-1.4v-11c0-0.8,0.6-1.4,1.4-1.4h4.4c0.8,0,1.4,0.6,1.4,1.4v11
			C598.5,332.7,597.8,333.3,597,333.3z"/>
	</g>
	<g>
		<path class="st3" d="M583.9,362.5h-4.4c-0.8,0-1.4-0.6-1.4-1.4v-11c0-0.8,0.6-1.4,1.4-1.4h4.4c0.8,0,1.4,0.6,1.4,1.4v11
			C585.3,361.8,584.7,362.5,583.9,362.5z"/>
	</g>
	<g>
		<path class="st3" d="M597,362.5h-4.4c-0.8,0-1.4-0.6-1.4-1.4v-11c0-0.8,0.6-1.4,1.4-1.4h4.4c0.8,0,1.4,0.6,1.4,1.4v11
			C598.5,361.8,597.8,362.5,597,362.5z"/>
	</g>
	<path class="st4" d="M642.1,251.2h-35.6c-1.2,0-2.3-0.4-3.1-1l-25.5-22.4c-2.2-2-0.4-5,3.1-5h35.6c1.2,0,2.3,0.4,3.1,1l25.5,22.4
		C647.5,248.2,645.6,251.2,642.1,251.2z"/>
	<path class="st0" d="M616.3,236h-13.6c-0.5,0-0.8-0.4-0.8-0.8v-17.5h15.2v17.5C617.1,235.7,616.7,236,616.3,236z"/>
	<path class="st1" d="M616.3,236h-6.8v-18.3h7.6v17.4C617.1,235.6,616.7,236,616.3,236z"/>
	<path class="st0" d="M619.3,220.1h-19.5c-0.3,0-0.6-0.3-0.6-0.6v-3.4c0-0.3,0.3-0.6,0.6-0.6h19.5c0.3,0,0.6,0.3,0.6,0.6v3.4
		C619.9,219.8,619.7,220.1,619.3,220.1z"/>
	<path class="st1" d="M619.3,220.1h-9.7v-4.7h9.7c0.4,0,0.6,0.3,0.6,0.6v3.3C619.9,219.8,619.7,220.1,619.3,220.1z"/>
</g>
<g id="Layer_2" class="st6">
</g>
<g id="globen">
</g>
<g id="roads">
	<path class="st7" d="M903.6,384c0,31.9-30.2,57.7-67.5,57.7H818c-0.8,0-1.5,0-2.3,0c-44,1.3-42.5,57.8,1.5,58l291.1-0.9
		c9.9,0,18-6.9,18-15.4V377.9"/>
	<path class="st7" d="M211.5,389.4l41.6,41.6c22.1,22.1,57.9,22.1,80,0l43.1-43.1"/>
</g>
<g id="houses_back">
</g>
<g>
	<path class="st1" d="M974.4,390.8H945v-396h29.4c1.5,0,2.6,1.2,2.6,2.6v390.7C977,389.6,975.8,390.8,974.4,390.8z"/>
	<path class="st0" d="M935.2-16.8l-7.9-9.7c-0.8-1-2.3-0.9-3.1,0.1l-7.9,9.6l-9,11c-0.3,0.4-0.5,0.9-0.5,1.4v393
		c0,1.2,1,2.2,2.2,2.2h35.8V-4.4c0-0.5-0.2-1-0.5-1.4L935.2-16.8z"/>
	<g>
		<path class="st3" d="M922.1,26.1h-5.6c-1,0-1.8-0.8-1.8-1.8V10.4c0-1,0.8-1.8,1.8-1.8h5.6c1,0,1.8,0.8,1.8,1.8v13.9
			C923.9,25.3,923.1,26.1,922.1,26.1z"/>
	</g>
	<g>
		<path class="st3" d="M938.7,26.1h-5.6c-1,0-1.8-0.8-1.8-1.8V10.4c0-1,0.8-1.8,1.8-1.8h5.6c1,0,1.8,0.8,1.8,1.8v13.9
			C940.5,25.3,939.7,26.1,938.7,26.1z"/>
	</g>
	<g>
		<path class="st3" d="M922.1,63.1h-5.6c-1,0-1.8-0.8-1.8-1.8V47.4c0-1,0.8-1.8,1.8-1.8h5.6c1,0,1.8,0.8,1.8,1.8v13.9
			C923.9,62.3,923.1,63.1,922.1,63.1z"/>
	</g>
	<g>
		<path class="st3" d="M938.7,63.1h-5.6c-1,0-1.8-0.8-1.8-1.8V47.4c0-1,0.8-1.8,1.8-1.8h5.6c1,0,1.8,0.8,1.8,1.8v13.9
			C940.5,62.3,939.7,63.1,938.7,63.1z"/>
	</g>
	<g>
		<path class="st3" d="M922.1,99.1h-5.6c-1,0-1.8-0.8-1.8-1.8V83.4c0-1,0.8-1.8,1.8-1.8h5.6c1,0,1.8,0.8,1.8,1.8v13.9
			C923.9,98.3,923.1,99.1,922.1,99.1z"/>
	</g>
	<g>
		<path class="st3" d="M938.7,99h-5.6c-1,0-1.8-0.8-1.8-1.8V83.3c0-1,0.8-1.8,1.8-1.8h5.6c1,0,1.8,0.8,1.8,1.8v13.9
			C940.5,98.2,939.7,99,938.7,99z"/>
	</g>
	<g>
		<path class="st3" d="M922.1,136h-5.6c-1,0-1.8-0.8-1.8-1.8v-13.9c0-1,0.8-1.8,1.8-1.8h5.6c1,0,1.8,0.8,1.8,1.8v13.9
			C923.9,135.2,923.1,136,922.1,136z"/>
	</g>
	<g>
		<path class="st3" d="M938.7,135.9h-5.6c-1,0-1.8-0.8-1.8-1.8v-13.9c0-1,0.8-1.8,1.8-1.8h5.6c1,0,1.8,0.8,1.8,1.8v13.9
			C940.5,135.1,939.7,135.9,938.7,135.9z"/>
	</g>
	<g>
		<path class="st3" d="M922.1,172.7h-5.5c-1,0-1.8-0.8-1.8-1.8v-13.5c0-1,0.8-1.8,1.8-1.8h5.5c1,0,1.8,0.8,1.8,1.8v13.5
			C923.9,171.9,923.1,172.7,922.1,172.7z"/>
	</g>
	<g>
		<path class="st3" d="M938.7,173h-5.6c-1,0-1.8-0.8-1.8-1.8v-13.9c0-1,0.8-1.8,1.8-1.8h5.6c1,0,1.8,0.8,1.8,1.8v13.9
			C940.5,172.3,939.7,173,938.7,173z"/>
	</g>
	<g>
		<path class="st3" d="M922.1,210.6h-5.5c-1,0-1.8-0.8-1.8-1.8v-13.5c0-1,0.8-1.8,1.8-1.8h5.5c1,0,1.8,0.8,1.8,1.8v13.5
			C923.9,209.8,923.1,210.6,922.1,210.6z"/>
	</g>
	<g>
		<path class="st3" d="M938.7,211h-5.6c-1,0-1.8-0.8-1.8-1.8v-13.9c0-1,0.8-1.8,1.8-1.8h5.6c1,0,1.8,0.8,1.8,1.8v13.9
			C940.5,210.2,939.7,211,938.7,211z"/>
	</g>
	<g>
		<path class="st3" d="M922.1,249.1h-5.6c-1,0-1.8-0.8-1.8-1.8v-13.9c0-1,0.8-1.8,1.8-1.8h5.6c1,0,1.8,0.8,1.8,1.8v13.9
			C923.9,248.3,923.1,249.1,922.1,249.1z"/>
	</g>
	<g>
		<path class="st3" d="M938.7,248.6h-5.5c-1,0-1.8-0.8-1.8-1.8v-13.5c0-1,0.8-1.8,1.8-1.8h5.5c1,0,1.8,0.8,1.8,1.8v13.5
			C940.5,247.8,939.7,248.6,938.7,248.6z"/>
	</g>
	<g>
		<path class="st3" d="M922.1,287.1h-5.6c-1,0-1.8-0.8-1.8-1.8v-13.9c0-1,0.8-1.8,1.8-1.8h5.6c1,0,1.8,0.8,1.8,1.8v13.9
			C923.9,286.3,923.1,287.1,922.1,287.1z"/>
	</g>
	<g>
		<path class="st3" d="M938.7,286.5h-5.5c-1,0-1.8-0.8-1.8-1.8v-13.5c0-1,0.8-1.8,1.8-1.8h5.5c1,0,1.8,0.8,1.8,1.8v13.5
			C940.5,285.7,939.7,286.5,938.7,286.5z"/>
	</g>
	<g>
		<path class="st3" d="M922.1,323.3h-5.6c-1,0-1.8-0.8-1.8-1.8v-13.9c0-1,0.8-1.8,1.8-1.8h5.6c1,0,1.8,0.8,1.8,1.8v14
			C923.9,322.5,923.1,323.3,922.1,323.3z"/>
	</g>
	<g>
		<path class="st3" d="M938.7,323.8h-5.5c-1,0-1.8-0.8-1.8-1.8v-14.5c0-1,0.8-1.8,1.8-1.8h5.5c1,0,1.8,0.8,1.8,1.8V322
			C940.5,323,939.7,323.8,938.7,323.8z"/>
	</g>
	<g>
		<path class="st3" d="M922.1,360.3h-5.6c-1,0-1.8-0.8-1.8-1.8v-13.9c0-1,0.8-1.8,1.8-1.8h5.6c1,0,1.8,0.8,1.8,1.8v13.9
			C923.9,359.5,923.1,360.3,922.1,360.3z"/>
	</g>
	<g>
		<path class="st3" d="M938.7,360.2h-5.6c-1,0-1.8-0.8-1.8-1.8v-13.9c0-1,0.8-1.8,1.8-1.8h5.6c1,0,1.8,0.8,1.8,1.8v13.9
			C940.5,359.4,939.7,360.2,938.7,360.2z"/>
	</g>
	<g>
		<path class="st2" d="M955.1,26.1h-5.6c-1,0-1.8-0.8-1.8-1.8V10.4c0-1,0.8-1.8,1.8-1.8h5.6c1,0,1.8,0.8,1.8,1.8v13.9
			C956.9,25.3,956.1,26.1,955.1,26.1z"/>
	</g>
	<g>
		<path class="st2" d="M971.7,26.1h-5.6c-1,0-1.8-0.8-1.8-1.8V10.4c0-1,0.8-1.8,1.8-1.8h5.6c1,0,1.8,0.8,1.8,1.8v13.9
			C973.5,25.3,972.7,26.1,971.7,26.1z"/>
	</g>
	<g>
		<path class="st2" d="M955.1,63.1h-5.6c-1,0-1.8-0.8-1.8-1.8V47.4c0-1,0.8-1.8,1.8-1.8h5.6c1,0,1.8,0.8,1.8,1.8v13.9
			C956.9,62.3,956.1,63.1,955.1,63.1z"/>
	</g>
	<g>
		<path class="st2" d="M971.7,63.1h-5.6c-1,0-1.8-0.8-1.8-1.8V47.4c0-1,0.8-1.8,1.8-1.8h5.6c1,0,1.8,0.8,1.8,1.8v13.9
			C973.5,62.3,972.7,63.1,971.7,63.1z"/>
	</g>
	<g>
		<path class="st2" d="M955.1,99.1h-5.6c-1,0-1.8-0.8-1.8-1.8V83.4c0-1,0.8-1.8,1.8-1.8h5.6c1,0,1.8,0.8,1.8,1.8v13.9
			C956.9,98.3,956.1,99.1,955.1,99.1z"/>
	</g>
	<g>
		<path class="st2" d="M971.7,99h-5.6c-1,0-1.8-0.8-1.8-1.8V83.3c0-1,0.8-1.8,1.8-1.8h5.6c1,0,1.8,0.8,1.8,1.8v13.9
			C973.5,98.2,972.7,99,971.7,99z"/>
	</g>
	<g>
		<path class="st2" d="M955.1,136h-5.6c-1,0-1.8-0.8-1.8-1.8v-13.9c0-1,0.8-1.8,1.8-1.8h5.6c1,0,1.8,0.8,1.8,1.8v13.9
			C956.9,135.2,956.1,136,955.1,136z"/>
	</g>
	<g>
		<path class="st2" d="M971.7,135.9h-5.6c-1,0-1.8-0.8-1.8-1.8v-13.9c0-1,0.8-1.8,1.8-1.8h5.6c1,0,1.8,0.8,1.8,1.8v13.9
			C973.5,135.1,972.7,135.9,971.7,135.9z"/>
	</g>
	<g>
		<path class="st2" d="M955.1,172.7h-5.5c-1,0-1.8-0.8-1.8-1.8v-13.5c0-1,0.8-1.8,1.8-1.8h5.5c1,0,1.8,0.8,1.8,1.8v13.5
			C956.9,171.9,956.1,172.7,955.1,172.7z"/>
	</g>
	<g>
		<path class="st2" d="M971.7,173h-5.6c-1,0-1.8-0.8-1.8-1.8v-13.9c0-1,0.8-1.8,1.8-1.8h5.6c1,0,1.8,0.8,1.8,1.8v13.9
			C973.5,172.3,972.7,173,971.7,173z"/>
	</g>
	<g>
		<path class="st2" d="M955.1,210.6h-5.5c-1,0-1.8-0.8-1.8-1.8v-13.5c0-1,0.8-1.8,1.8-1.8h5.5c1,0,1.8,0.8,1.8,1.8v13.5
			C956.9,209.8,956.1,210.6,955.1,210.6z"/>
	</g>
	<g>
		<path class="st2" d="M971.7,211h-5.6c-1,0-1.8-0.8-1.8-1.8v-13.9c0-1,0.8-1.8,1.8-1.8h5.6c1,0,1.8,0.8,1.8,1.8v13.9
			C973.5,210.2,972.7,211,971.7,211z"/>
	</g>
	<g>
		<path class="st2" d="M955.1,249.1h-5.6c-1,0-1.8-0.8-1.8-1.8v-13.9c0-1,0.8-1.8,1.8-1.8h5.6c1,0,1.8,0.8,1.8,1.8v13.9
			C956.9,248.3,956.1,249.1,955.1,249.1z"/>
	</g>
	<g>
		<path class="st2" d="M971.7,248.6h-5.5c-1,0-1.8-0.8-1.8-1.8v-13.5c0-1,0.8-1.8,1.8-1.8h5.5c1,0,1.8,0.8,1.8,1.8v13.5
			C973.5,247.8,972.7,248.6,971.7,248.6z"/>
	</g>
	<g>
		<path class="st2" d="M955.1,287.1h-5.6c-1,0-1.8-0.8-1.8-1.8v-13.9c0-1,0.8-1.8,1.8-1.8h5.6c1,0,1.8,0.8,1.8,1.8v13.9
			C956.9,286.3,956.1,287.1,955.1,287.1z"/>
	</g>
	<g>
		<path class="st2" d="M971.7,286.5h-5.5c-1,0-1.8-0.8-1.8-1.8v-13.5c0-1,0.8-1.8,1.8-1.8h5.5c1,0,1.8,0.8,1.8,1.8v13.5
			C973.5,285.7,972.7,286.5,971.7,286.5z"/>
	</g>
	<g>
		<path class="st2" d="M955.1,323.3h-5.6c-1,0-1.8-0.8-1.8-1.8v-13.9c0-1,0.8-1.8,1.8-1.8h5.6c1,0,1.8,0.8,1.8,1.8v14
			C956.9,322.5,956.1,323.3,955.1,323.3z"/>
	</g>
	<g>
		<path class="st2" d="M971.7,323.8h-5.5c-1,0-1.8-0.8-1.8-1.8v-14.5c0-1,0.8-1.8,1.8-1.8h5.5c1,0,1.8,0.8,1.8,1.8V322
			C973.5,323,972.7,323.8,971.7,323.8z"/>
	</g>
	<g>
		<path class="st2" d="M955.1,360.3h-5.6c-1,0-1.8-0.8-1.8-1.8v-13.9c0-1,0.8-1.8,1.8-1.8h5.6c1,0,1.8,0.8,1.8,1.8v13.9
			C956.9,359.5,956.1,360.3,955.1,360.3z"/>
	</g>
	<g>
		<path class="st2" d="M971.7,360.2h-5.6c-1,0-1.8-0.8-1.8-1.8v-13.9c0-1,0.8-1.8,1.8-1.8h5.6c1,0,1.8,0.8,1.8,1.8v13.9
			C973.5,359.4,972.7,360.2,971.7,360.2z"/>
	</g>
	<path class="st8" d="M973.5-1.4h-26.7c-0.9,0-1.7-0.4-2.3-1l-19.2-21c-1.7-1.8-0.3-4.7,2.3-4.7h26.8c0.9,0,1.7,0.4,2.3,1l19.2,21
		C977.5-4.2,976.1-1.4,973.5-1.4z"/>
	<g>
		<path class="st0" d="M951.5-21.1h-7.8c-0.6,0-1-0.5-1-1v-10.8h9.9V-22C952.5-21.5,952.1-21.1,951.5-21.1z"/>
		<path class="st1" d="M951.5-21.1h-3.9v-11.8h4.9v10.8C952.5-21.5,952.1-21.1,951.5-21.1z"/>
		<path class="st0" d="M953.5-32.9h-11.9c-0.4,0-0.8-0.4-0.8-0.8v-1.5c0-0.4,0.4-0.8,0.8-0.8h11.9c0.4,0,0.8,0.4,0.8,0.8v1.5
			C954.3-33.3,954-32.9,953.5-32.9z"/>
		<path class="st1" d="M953.5-32.9h-5.9v-3h5.9c0.5,0,0.8,0.4,0.8,0.8v1.4C954.3-33.3,954-32.9,953.5-32.9z"/>
	</g>
</g>
<g>
	<path class="st1" d="M709.9,381.8h-29.4v-396h29.4c1.5,0,2.6,1.2,2.6,2.6v390.7C712.5,380.6,711.3,381.8,709.9,381.8z"/>
	<path class="st0" d="M670.7-25.8l-7.9-9.7c-0.8-1-2.3-0.9-3.1,0.1l-7.9,9.6l-9,11c-0.3,0.4-0.5,0.9-0.5,1.4v393
		c0,1.2,1,2.2,2.2,2.2h35.8V-13.4c0-0.5-0.2-1-0.5-1.4L670.7-25.8z"/>
	<g>
		<path class="st3" d="M657.6,17.1H652c-1,0-1.8-0.8-1.8-1.8V1.4c0-1,0.8-1.8,1.8-1.8h5.6c1,0,1.8,0.8,1.8,1.8v13.9
			C659.4,16.3,658.6,17.1,657.6,17.1z"/>
	</g>
	<g>
		<path class="st3" d="M674.2,17.1h-5.6c-1,0-1.8-0.8-1.8-1.8V1.4c0-1,0.8-1.8,1.8-1.8h5.6c1,0,1.8,0.8,1.8,1.8v13.9
			C676,16.3,675.2,17.1,674.2,17.1z"/>
	</g>
	<g>
		<path class="st3" d="M657.6,54.1H652c-1,0-1.8-0.8-1.8-1.8V38.4c0-1,0.8-1.8,1.8-1.8h5.6c1,0,1.8,0.8,1.8,1.8v13.9
			C659.4,53.3,658.6,54.1,657.6,54.1z"/>
	</g>
	<g>
		<path class="st3" d="M674.2,54.1h-5.6c-1,0-1.8-0.8-1.8-1.8V38.4c0-1,0.8-1.8,1.8-1.8h5.6c1,0,1.8,0.8,1.8,1.8v13.9
			C676,53.3,675.2,54.1,674.2,54.1z"/>
	</g>
	<g>
		<path class="st3" d="M657.6,90.1H652c-1,0-1.8-0.8-1.8-1.8V74.4c0-1,0.8-1.8,1.8-1.8h5.6c1,0,1.8,0.8,1.8,1.8v13.9
			C659.4,89.3,658.6,90.1,657.6,90.1z"/>
	</g>
	<g>
		<path class="st3" d="M674.2,90h-5.6c-1,0-1.8-0.8-1.8-1.8V74.3c0-1,0.8-1.8,1.8-1.8h5.6c1,0,1.8,0.8,1.8,1.8v13.9
			C676,89.2,675.2,90,674.2,90z"/>
	</g>
	<g>
		<path class="st3" d="M657.6,127H652c-1,0-1.8-0.8-1.8-1.8v-13.9c0-1,0.8-1.8,1.8-1.8h5.6c1,0,1.8,0.8,1.8,1.8v13.9
			C659.4,126.2,658.6,127,657.6,127z"/>
	</g>
	<g>
		<path class="st3" d="M674.2,126.9h-5.6c-1,0-1.8-0.8-1.8-1.8v-13.9c0-1,0.8-1.8,1.8-1.8h5.6c1,0,1.8,0.8,1.8,1.8v13.9
			C676,126.1,675.2,126.9,674.2,126.9z"/>
	</g>
	<g>
		<path class="st3" d="M657.6,163.7h-5.5c-1,0-1.8-0.8-1.8-1.8v-13.5c0-1,0.8-1.8,1.8-1.8h5.5c1,0,1.8,0.8,1.8,1.8v13.5
			C659.4,162.9,658.6,163.7,657.6,163.7z"/>
	</g>
	<g>
		<path class="st3" d="M674.2,164h-5.6c-1,0-1.8-0.8-1.8-1.8v-13.9c0-1,0.8-1.8,1.8-1.8h5.6c1,0,1.8,0.8,1.8,1.8v13.9
			C676,163.3,675.2,164,674.2,164z"/>
	</g>
	<g>
		<path class="st3" d="M657.6,201.6h-5.5c-1,0-1.8-0.8-1.8-1.8v-13.5c0-1,0.8-1.8,1.8-1.8h5.5c1,0,1.8,0.8,1.8,1.8v13.5
			C659.4,200.8,658.6,201.6,657.6,201.6z"/>
	</g>
	<g>
		<path class="st3" d="M674.2,202h-5.6c-1,0-1.8-0.8-1.8-1.8v-13.9c0-1,0.8-1.8,1.8-1.8h5.6c1,0,1.8,0.8,1.8,1.8v13.9
			C676,201.2,675.2,202,674.2,202z"/>
	</g>
	<g>
		<path class="st3" d="M657.6,240.1H652c-1,0-1.8-0.8-1.8-1.8v-13.9c0-1,0.8-1.8,1.8-1.8h5.6c1,0,1.8,0.8,1.8,1.8v13.9
			C659.4,239.3,658.6,240.1,657.6,240.1z"/>
	</g>
	<g>
		<path class="st3" d="M674.2,239.6h-5.5c-1,0-1.8-0.8-1.8-1.8v-13.5c0-1,0.8-1.8,1.8-1.8h5.5c1,0,1.8,0.8,1.8,1.8v13.5
			C676,238.8,675.2,239.6,674.2,239.6z"/>
	</g>
	<g>
		<path class="st3" d="M657.6,278.1H652c-1,0-1.8-0.8-1.8-1.8v-13.9c0-1,0.8-1.8,1.8-1.8h5.6c1,0,1.8,0.8,1.8,1.8v13.9
			C659.4,277.3,658.6,278.1,657.6,278.1z"/>
	</g>
	<g>
		<path class="st3" d="M674.2,277.5h-5.5c-1,0-1.8-0.8-1.8-1.8v-13.5c0-1,0.8-1.8,1.8-1.8h5.5c1,0,1.8,0.8,1.8,1.8v13.5
			C676,276.7,675.2,277.5,674.2,277.5z"/>
	</g>
	<g>
		<path class="st3" d="M657.6,314.3H652c-1,0-1.8-0.8-1.8-1.8v-13.9c0-1,0.8-1.8,1.8-1.8h5.6c1,0,1.8,0.8,1.8,1.8v14
			C659.4,313.5,658.6,314.3,657.6,314.3z"/>
	</g>
	<g>
		<path class="st3" d="M674.2,314.8h-5.5c-1,0-1.8-0.8-1.8-1.8v-14.5c0-1,0.8-1.8,1.8-1.8h5.5c1,0,1.8,0.8,1.8,1.8V313
			C676,314,675.2,314.8,674.2,314.8z"/>
	</g>
	<g>
		<path class="st3" d="M657.6,351.3H652c-1,0-1.8-0.8-1.8-1.8v-13.9c0-1,0.8-1.8,1.8-1.8h5.6c1,0,1.8,0.8,1.8,1.8v13.9
			C659.4,350.5,658.6,351.3,657.6,351.3z"/>
	</g>
	<g>
		<path class="st3" d="M674.2,351.2h-5.6c-1,0-1.8-0.8-1.8-1.8v-13.9c0-1,0.8-1.8,1.8-1.8h5.6c1,0,1.8,0.8,1.8,1.8v13.9
			C676,350.4,675.2,351.2,674.2,351.2z"/>
	</g>
	<g>
		<path class="st2" d="M690.6,17.1H685c-1,0-1.8-0.8-1.8-1.8V1.4c0-1,0.8-1.8,1.8-1.8h5.6c1,0,1.8,0.8,1.8,1.8v13.9
			C692.4,16.3,691.6,17.1,690.6,17.1z"/>
	</g>
	<g>
		<path class="st2" d="M707.2,17.1h-5.6c-1,0-1.8-0.8-1.8-1.8V1.4c0-1,0.8-1.8,1.8-1.8h5.6c1,0,1.8,0.8,1.8,1.8v13.9
			C709,16.3,708.2,17.1,707.2,17.1z"/>
	</g>
	<g>
		<path class="st2" d="M690.6,54.1H685c-1,0-1.8-0.8-1.8-1.8V38.4c0-1,0.8-1.8,1.8-1.8h5.6c1,0,1.8,0.8,1.8,1.8v13.9
			C692.4,53.3,691.6,54.1,690.6,54.1z"/>
	</g>
	<g>
		<path class="st2" d="M707.2,54.1h-5.6c-1,0-1.8-0.8-1.8-1.8V38.4c0-1,0.8-1.8,1.8-1.8h5.6c1,0,1.8,0.8,1.8,1.8v13.9
			C709,53.3,708.2,54.1,707.2,54.1z"/>
	</g>
	<g>
		<path class="st2" d="M690.6,90.1H685c-1,0-1.8-0.8-1.8-1.8V74.4c0-1,0.8-1.8,1.8-1.8h5.6c1,0,1.8,0.8,1.8,1.8v13.9
			C692.4,89.3,691.6,90.1,690.6,90.1z"/>
	</g>
	<g>
		<path class="st2" d="M707.2,90h-5.6c-1,0-1.8-0.8-1.8-1.8V74.3c0-1,0.8-1.8,1.8-1.8h5.6c1,0,1.8,0.8,1.8,1.8v13.9
			C709,89.2,708.2,90,707.2,90z"/>
	</g>
	<g>
		<path class="st2" d="M690.6,127H685c-1,0-1.8-0.8-1.8-1.8v-13.9c0-1,0.8-1.8,1.8-1.8h5.6c1,0,1.8,0.8,1.8,1.8v13.9
			C692.4,126.2,691.6,127,690.6,127z"/>
	</g>
	<g>
		<path class="st2" d="M707.2,126.9h-5.6c-1,0-1.8-0.8-1.8-1.8v-13.9c0-1,0.8-1.8,1.8-1.8h5.6c1,0,1.8,0.8,1.8,1.8v13.9
			C709,126.1,708.2,126.9,707.2,126.9z"/>
	</g>
	<g>
		<path class="st2" d="M690.6,163.7h-5.5c-1,0-1.8-0.8-1.8-1.8v-13.5c0-1,0.8-1.8,1.8-1.8h5.5c1,0,1.8,0.8,1.8,1.8v13.5
			C692.4,162.9,691.6,163.7,690.6,163.7z"/>
	</g>
	<g>
		<path class="st2" d="M707.2,164h-5.6c-1,0-1.8-0.8-1.8-1.8v-13.9c0-1,0.8-1.8,1.8-1.8h5.6c1,0,1.8,0.8,1.8,1.8v13.9
			C709,163.3,708.2,164,707.2,164z"/>
	</g>
	<g>
		<path class="st2" d="M690.6,201.6h-5.5c-1,0-1.8-0.8-1.8-1.8v-13.5c0-1,0.8-1.8,1.8-1.8h5.5c1,0,1.8,0.8,1.8,1.8v13.5
			C692.4,200.8,691.6,201.6,690.6,201.6z"/>
	</g>
	<g>
		<path class="st2" d="M707.2,202h-5.6c-1,0-1.8-0.8-1.8-1.8v-13.9c0-1,0.8-1.8,1.8-1.8h5.6c1,0,1.8,0.8,1.8,1.8v13.9
			C709,201.2,708.2,202,707.2,202z"/>
	</g>
	<g>
		<path class="st2" d="M690.6,240.1H685c-1,0-1.8-0.8-1.8-1.8v-13.9c0-1,0.8-1.8,1.8-1.8h5.6c1,0,1.8,0.8,1.8,1.8v13.9
			C692.4,239.3,691.6,240.1,690.6,240.1z"/>
	</g>
	<g>
		<path class="st2" d="M707.2,239.6h-5.5c-1,0-1.8-0.8-1.8-1.8v-13.5c0-1,0.8-1.8,1.8-1.8h5.5c1,0,1.8,0.8,1.8,1.8v13.5
			C709,238.8,708.2,239.6,707.2,239.6z"/>
	</g>
	<g>
		<path class="st2" d="M690.6,278.1H685c-1,0-1.8-0.8-1.8-1.8v-13.9c0-1,0.8-1.8,1.8-1.8h5.6c1,0,1.8,0.8,1.8,1.8v13.9
			C692.4,277.3,691.6,278.1,690.6,278.1z"/>
	</g>
	<g>
		<path class="st2" d="M707.2,277.5h-5.5c-1,0-1.8-0.8-1.8-1.8v-13.5c0-1,0.8-1.8,1.8-1.8h5.5c1,0,1.8,0.8,1.8,1.8v13.5
			C709,276.7,708.2,277.5,707.2,277.5z"/>
	</g>
	<g>
		<path class="st2" d="M690.6,314.3H685c-1,0-1.8-0.8-1.8-1.8v-13.9c0-1,0.8-1.8,1.8-1.8h5.6c1,0,1.8,0.8,1.8,1.8v14
			C692.4,313.5,691.6,314.3,690.6,314.3z"/>
	</g>
	<g>
		<path class="st2" d="M707.2,314.8h-5.5c-1,0-1.8-0.8-1.8-1.8v-14.5c0-1,0.8-1.8,1.8-1.8h5.5c1,0,1.8,0.8,1.8,1.8V313
			C709,314,708.2,314.8,707.2,314.8z"/>
	</g>
	<g>
		<path class="st2" d="M690.6,351.3H685c-1,0-1.8-0.8-1.8-1.8v-13.9c0-1,0.8-1.8,1.8-1.8h5.6c1,0,1.8,0.8,1.8,1.8v13.9
			C692.4,350.5,691.6,351.3,690.6,351.3z"/>
	</g>
	<g>
		<path class="st2" d="M707.2,351.2h-5.6c-1,0-1.8-0.8-1.8-1.8v-13.9c0-1,0.8-1.8,1.8-1.8h5.6c1,0,1.8,0.8,1.8,1.8v13.9
			C709,350.4,708.2,351.2,707.2,351.2z"/>
	</g>
	<path class="st8" d="M709-10.4h-26.7c-0.9,0-1.7-0.4-2.3-1l-19.2-21c-1.7-1.8-0.3-4.7,2.3-4.7h26.8c0.9,0,1.7,0.4,2.3,1l19.2,21
		C713-13.2,711.6-10.4,709-10.4z"/>
	<g>
		<path class="st0" d="M687-30.1h-7.8c-0.6,0-1-0.5-1-1v-10.8h9.9V-31C688-30.5,687.6-30.1,687-30.1z"/>
		<path class="st1" d="M687-30.1h-3.9v-11.8h4.9v10.8C688-30.5,687.6-30.1,687-30.1z"/>
		<path class="st0" d="M689-41.9h-11.9c-0.4,0-0.8-0.4-0.8-0.8v-1.5c0-0.4,0.4-0.8,0.8-0.8H689c0.4,0,0.8,0.4,0.8,0.8v1.5
			C689.8-42.3,689.5-41.9,689-41.9z"/>
		<path class="st1" d="M689-41.9h-5.9v-3h5.9c0.5,0,0.8,0.4,0.8,0.8v1.4C689.8-42.3,689.5-41.9,689-41.9z"/>
	</g>
</g>
<g>
	<path class="st1" d="M772.9,381.8h-29.4v-396h29.4c1.5,0,2.6,1.2,2.6,2.6v390.7C775.5,380.6,774.3,381.8,772.9,381.8z"/>
	<path class="st0" d="M733.7-25.8l-7.9-9.7c-0.8-1-2.3-0.9-3.1,0.1l-7.9,9.6l-9,11c-0.3,0.4-0.5,0.9-0.5,1.4v393
		c0,1.2,1,2.2,2.2,2.2h35.8V-13.4c0-0.5-0.2-1-0.5-1.4L733.7-25.8z"/>
	<g>
		<path class="st3" d="M720.6,17.1H715c-1,0-1.8-0.8-1.8-1.8V1.4c0-1,0.8-1.8,1.8-1.8h5.6c1,0,1.8,0.8,1.8,1.8v13.9
			C722.4,16.3,721.6,17.1,720.6,17.1z"/>
	</g>
	<g>
		<path class="st3" d="M737.2,17.1h-5.6c-1,0-1.8-0.8-1.8-1.8V1.4c0-1,0.8-1.8,1.8-1.8h5.6c1,0,1.8,0.8,1.8,1.8v13.9
			C739,16.3,738.2,17.1,737.2,17.1z"/>
	</g>
	<g>
		<path class="st3" d="M720.6,54.1H715c-1,0-1.8-0.8-1.8-1.8V38.4c0-1,0.8-1.8,1.8-1.8h5.6c1,0,1.8,0.8,1.8,1.8v13.9
			C722.4,53.3,721.6,54.1,720.6,54.1z"/>
	</g>
	<g>
		<path class="st3" d="M737.2,54.1h-5.6c-1,0-1.8-0.8-1.8-1.8V38.4c0-1,0.8-1.8,1.8-1.8h5.6c1,0,1.8,0.8,1.8,1.8v13.9
			C739,53.3,738.2,54.1,737.2,54.1z"/>
	</g>
	<g>
		<path class="st3" d="M720.6,90.1H715c-1,0-1.8-0.8-1.8-1.8V74.4c0-1,0.8-1.8,1.8-1.8h5.6c1,0,1.8,0.8,1.8,1.8v13.9
			C722.4,89.3,721.6,90.1,720.6,90.1z"/>
	</g>
	<g>
		<path class="st3" d="M737.2,90h-5.6c-1,0-1.8-0.8-1.8-1.8V74.3c0-1,0.8-1.8,1.8-1.8h5.6c1,0,1.8,0.8,1.8,1.8v13.9
			C739,89.2,738.2,90,737.2,90z"/>
	</g>
	<g>
		<path class="st3" d="M720.6,127H715c-1,0-1.8-0.8-1.8-1.8v-13.9c0-1,0.8-1.8,1.8-1.8h5.6c1,0,1.8,0.8,1.8,1.8v13.9
			C722.4,126.2,721.6,127,720.6,127z"/>
	</g>
	<g>
		<path class="st3" d="M737.2,126.9h-5.6c-1,0-1.8-0.8-1.8-1.8v-13.9c0-1,0.8-1.8,1.8-1.8h5.6c1,0,1.8,0.8,1.8,1.8v13.9
			C739,126.1,738.2,126.9,737.2,126.9z"/>
	</g>
	<g>
		<path class="st3" d="M720.6,163.7h-5.5c-1,0-1.8-0.8-1.8-1.8v-13.5c0-1,0.8-1.8,1.8-1.8h5.5c1,0,1.8,0.8,1.8,1.8v13.5
			C722.4,162.9,721.6,163.7,720.6,163.7z"/>
	</g>
	<g>
		<path class="st3" d="M737.2,164h-5.6c-1,0-1.8-0.8-1.8-1.8v-13.9c0-1,0.8-1.8,1.8-1.8h5.6c1,0,1.8,0.8,1.8,1.8v13.9
			C739,163.3,738.2,164,737.2,164z"/>
	</g>
	<g>
		<path class="st3" d="M720.6,201.6h-5.5c-1,0-1.8-0.8-1.8-1.8v-13.5c0-1,0.8-1.8,1.8-1.8h5.5c1,0,1.8,0.8,1.8,1.8v13.5
			C722.4,200.8,721.6,201.6,720.6,201.6z"/>
	</g>
	<g>
		<path class="st3" d="M737.2,202h-5.6c-1,0-1.8-0.8-1.8-1.8v-13.9c0-1,0.8-1.8,1.8-1.8h5.6c1,0,1.8,0.8,1.8,1.8v13.9
			C739,201.2,738.2,202,737.2,202z"/>
	</g>
	<g>
		<path class="st3" d="M720.6,240.1H715c-1,0-1.8-0.8-1.8-1.8v-13.9c0-1,0.8-1.8,1.8-1.8h5.6c1,0,1.8,0.8,1.8,1.8v13.9
			C722.4,239.3,721.6,240.1,720.6,240.1z"/>
	</g>
	<g>
		<path class="st3" d="M737.2,239.6h-5.5c-1,0-1.8-0.8-1.8-1.8v-13.5c0-1,0.8-1.8,1.8-1.8h5.5c1,0,1.8,0.8,1.8,1.8v13.5
			C739,238.8,738.2,239.6,737.2,239.6z"/>
	</g>
	<g>
		<path class="st3" d="M720.6,278.1H715c-1,0-1.8-0.8-1.8-1.8v-13.9c0-1,0.8-1.8,1.8-1.8h5.6c1,0,1.8,0.8,1.8,1.8v13.9
			C722.4,277.3,721.6,278.1,720.6,278.1z"/>
	</g>
	<g>
		<path class="st3" d="M737.2,277.5h-5.5c-1,0-1.8-0.8-1.8-1.8v-13.5c0-1,0.8-1.8,1.8-1.8h5.5c1,0,1.8,0.8,1.8,1.8v13.5
			C739,276.7,738.2,277.5,737.2,277.5z"/>
	</g>
	<g>
		<path class="st3" d="M720.6,314.3H715c-1,0-1.8-0.8-1.8-1.8v-13.9c0-1,0.8-1.8,1.8-1.8h5.6c1,0,1.8,0.8,1.8,1.8v14
			C722.4,313.5,721.6,314.3,720.6,314.3z"/>
	</g>
	<g>
		<path class="st3" d="M737.2,314.8h-5.5c-1,0-1.8-0.8-1.8-1.8v-14.5c0-1,0.8-1.8,1.8-1.8h5.5c1,0,1.8,0.8,1.8,1.8V313
			C739,314,738.2,314.8,737.2,314.8z"/>
	</g>
	<g>
		<path class="st3" d="M720.6,351.3H715c-1,0-1.8-0.8-1.8-1.8v-13.9c0-1,0.8-1.8,1.8-1.8h5.6c1,0,1.8,0.8,1.8,1.8v13.9
			C722.4,350.5,721.6,351.3,720.6,351.3z"/>
	</g>
	<g>
		<path class="st3" d="M737.2,351.2h-5.6c-1,0-1.8-0.8-1.8-1.8v-13.9c0-1,0.8-1.8,1.8-1.8h5.6c1,0,1.8,0.8,1.8,1.8v13.9
			C739,350.4,738.2,351.2,737.2,351.2z"/>
	</g>
	<g>
		<path class="st2" d="M753.6,17.1H748c-1,0-1.8-0.8-1.8-1.8V1.4c0-1,0.8-1.8,1.8-1.8h5.6c1,0,1.8,0.8,1.8,1.8v13.9
			C755.4,16.3,754.6,17.1,753.6,17.1z"/>
	</g>
	<g>
		<path class="st2" d="M770.2,17.1h-5.6c-1,0-1.8-0.8-1.8-1.8V1.4c0-1,0.8-1.8,1.8-1.8h5.6c1,0,1.8,0.8,1.8,1.8v13.9
			C772,16.3,771.2,17.1,770.2,17.1z"/>
	</g>
	<g>
		<path class="st2" d="M753.6,54.1H748c-1,0-1.8-0.8-1.8-1.8V38.4c0-1,0.8-1.8,1.8-1.8h5.6c1,0,1.8,0.8,1.8,1.8v13.9
			C755.4,53.3,754.6,54.1,753.6,54.1z"/>
	</g>
	<g>
		<path class="st2" d="M770.2,54.1h-5.6c-1,0-1.8-0.8-1.8-1.8V38.4c0-1,0.8-1.8,1.8-1.8h5.6c1,0,1.8,0.8,1.8,1.8v13.9
			C772,53.3,771.2,54.1,770.2,54.1z"/>
	</g>
	<g>
		<path class="st2" d="M753.6,90.1H748c-1,0-1.8-0.8-1.8-1.8V74.4c0-1,0.8-1.8,1.8-1.8h5.6c1,0,1.8,0.8,1.8,1.8v13.9
			C755.4,89.3,754.6,90.1,753.6,90.1z"/>
	</g>
	<g>
		<path class="st2" d="M770.2,90h-5.6c-1,0-1.8-0.8-1.8-1.8V74.3c0-1,0.8-1.8,1.8-1.8h5.6c1,0,1.8,0.8,1.8,1.8v13.9
			C772,89.2,771.2,90,770.2,90z"/>
	</g>
	<g>
		<path class="st2" d="M753.6,127H748c-1,0-1.8-0.8-1.8-1.8v-13.9c0-1,0.8-1.8,1.8-1.8h5.6c1,0,1.8,0.8,1.8,1.8v13.9
			C755.4,126.2,754.6,127,753.6,127z"/>
	</g>
	<g>
		<path class="st2" d="M770.2,126.9h-5.6c-1,0-1.8-0.8-1.8-1.8v-13.9c0-1,0.8-1.8,1.8-1.8h5.6c1,0,1.8,0.8,1.8,1.8v13.9
			C772,126.1,771.2,126.9,770.2,126.9z"/>
	</g>
	<g>
		<path class="st2" d="M753.6,163.7h-5.5c-1,0-1.8-0.8-1.8-1.8v-13.5c0-1,0.8-1.8,1.8-1.8h5.5c1,0,1.8,0.8,1.8,1.8v13.5
			C755.4,162.9,754.6,163.7,753.6,163.7z"/>
	</g>
	<g>
		<path class="st2" d="M770.2,164h-5.6c-1,0-1.8-0.8-1.8-1.8v-13.9c0-1,0.8-1.8,1.8-1.8h5.6c1,0,1.8,0.8,1.8,1.8v13.9
			C772,163.3,771.2,164,770.2,164z"/>
	</g>
	<g>
		<path class="st2" d="M753.6,201.6h-5.5c-1,0-1.8-0.8-1.8-1.8v-13.5c0-1,0.8-1.8,1.8-1.8h5.5c1,0,1.8,0.8,1.8,1.8v13.5
			C755.4,200.8,754.6,201.6,753.6,201.6z"/>
	</g>
	<g>
		<path class="st2" d="M770.2,202h-5.6c-1,0-1.8-0.8-1.8-1.8v-13.9c0-1,0.8-1.8,1.8-1.8h5.6c1,0,1.8,0.8,1.8,1.8v13.9
			C772,201.2,771.2,202,770.2,202z"/>
	</g>
	<g>
		<path class="st2" d="M753.6,240.1H748c-1,0-1.8-0.8-1.8-1.8v-13.9c0-1,0.8-1.8,1.8-1.8h5.6c1,0,1.8,0.8,1.8,1.8v13.9
			C755.4,239.3,754.6,240.1,753.6,240.1z"/>
	</g>
	<g>
		<path class="st2" d="M770.2,239.6h-5.5c-1,0-1.8-0.8-1.8-1.8v-13.5c0-1,0.8-1.8,1.8-1.8h5.5c1,0,1.8,0.8,1.8,1.8v13.5
			C772,238.8,771.2,239.6,770.2,239.6z"/>
	</g>
	<g>
		<path class="st2" d="M753.6,278.1H748c-1,0-1.8-0.8-1.8-1.8v-13.9c0-1,0.8-1.8,1.8-1.8h5.6c1,0,1.8,0.8,1.8,1.8v13.9
			C755.4,277.3,754.6,278.1,753.6,278.1z"/>
	</g>
	<g>
		<path class="st2" d="M770.2,277.5h-5.5c-1,0-1.8-0.8-1.8-1.8v-13.5c0-1,0.8-1.8,1.8-1.8h5.5c1,0,1.8,0.8,1.8,1.8v13.5
			C772,276.7,771.2,277.5,770.2,277.5z"/>
	</g>
	<g>
		<path class="st2" d="M753.6,314.3H748c-1,0-1.8-0.8-1.8-1.8v-13.9c0-1,0.8-1.8,1.8-1.8h5.6c1,0,1.8,0.8,1.8,1.8v14
			C755.4,313.5,754.6,314.3,753.6,314.3z"/>
	</g>
	<g>
		<path class="st2" d="M770.2,314.8h-5.5c-1,0-1.8-0.8-1.8-1.8v-14.5c0-1,0.8-1.8,1.8-1.8h5.5c1,0,1.8,0.8,1.8,1.8V313
			C772,314,771.2,314.8,770.2,314.8z"/>
	</g>
	<g>
		<path class="st2" d="M753.6,351.3H748c-1,0-1.8-0.8-1.8-1.8v-13.9c0-1,0.8-1.8,1.8-1.8h5.6c1,0,1.8,0.8,1.8,1.8v13.9
			C755.4,350.5,754.6,351.3,753.6,351.3z"/>
	</g>
	<g>
		<path class="st2" d="M770.2,351.2h-5.6c-1,0-1.8-0.8-1.8-1.8v-13.9c0-1,0.8-1.8,1.8-1.8h5.6c1,0,1.8,0.8,1.8,1.8v13.9
			C772,350.4,771.2,351.2,770.2,351.2z"/>
	</g>
	<path class="st8" d="M772-10.4h-26.7c-0.9,0-1.7-0.4-2.3-1l-19.2-21c-1.7-1.8-0.3-4.7,2.3-4.7h26.8c0.9,0,1.7,0.4,2.3,1l19.2,21
		C776-13.2,774.6-10.4,772-10.4z"/>
	<g>
		<path class="st0" d="M750-30.1h-7.8c-0.6,0-1-0.5-1-1v-10.8h9.9V-31C751-30.5,750.6-30.1,750-30.1z"/>
		<path class="st1" d="M750-30.1h-3.9v-11.8h4.9v10.8C751-30.5,750.6-30.1,750-30.1z"/>
		<path class="st0" d="M752-41.9h-11.9c-0.4,0-0.8-0.4-0.8-0.8v-1.5c0-0.4,0.4-0.8,0.8-0.8H752c0.4,0,0.8,0.4,0.8,0.8v1.5
			C752.8-42.3,752.5-41.9,752-41.9z"/>
		<path class="st1" d="M752-41.9h-5.9v-3h5.9c0.5,0,0.8,0.4,0.8,0.8v1.4C752.8-42.3,752.5-41.9,752-41.9z"/>
	</g>
</g>
<g>
	<path class="st0" d="M1129.7,377.4h-35.5c-2.1,0-3.7-2.7-3.7-6.1V265.9c0-1.9,0.6-3.7,1.5-4.8l14.6-18.2c1.3-1.6,3-1.7,4.3-0.3
		l18.9,20.3L1129.7,377.4L1129.7,377.4z"/>
	<path class="st1" d="M1163.8,377.4h-34.1V263h34.1c2.9,0,5.1,2.3,5.1,5.1v104.1C1169,375,1166.7,377.4,1163.8,377.4z"/>
	<g>
		<path class="st2" d="M1139.8,287.2h-3.9c-0.7,0-1.3-0.6-1.3-1.3v-9.7c0-0.7,0.6-1.3,1.3-1.3h3.9c0.7,0,1.3,0.6,1.3,1.3v9.7
			C1141,286.7,1140.5,287.2,1139.8,287.2z"/>
	</g>
	<g>
		<path class="st2" d="M1139.8,313h-3.9c-0.7,0-1.3-0.6-1.3-1.3V302c0-0.7,0.6-1.3,1.3-1.3h3.9c0.7,0,1.3,0.6,1.3,1.3v9.7
			C1141,312.5,1140.5,313,1139.8,313z"/>
	</g>
	<g>
		<path class="st2" d="M1151.2,287.2h-3.9c-0.7,0-1.3-0.6-1.3-1.3v-9.7c0-0.7,0.6-1.3,1.3-1.3h3.9c0.7,0,1.3,0.6,1.3,1.3v9.7
			C1152.5,286.6,1151.9,287.2,1151.2,287.2z"/>
	</g>
	<g>
		<path class="st2" d="M1162.8,287.2h-3.9c-0.7,0-1.3-0.6-1.3-1.3v-9.7c0-0.7,0.6-1.3,1.3-1.3h3.9c0.7,0,1.3,0.6,1.3,1.3v9.7
			C1164.1,286.7,1163.5,287.2,1162.8,287.2z"/>
	</g>
	<g>
		<path class="st2" d="M1151.2,313h-3.9c-0.7,0-1.3-0.6-1.3-1.3V302c0-0.7,0.6-1.3,1.3-1.3h3.9c0.7,0,1.3,0.6,1.3,1.3v9.7
			C1152.5,312.5,1151.9,313,1151.2,313z"/>
	</g>
	<g>
		<path class="st2" d="M1162.8,313h-3.9c-0.7,0-1.3-0.6-1.3-1.3V302c0-0.7,0.6-1.3,1.3-1.3h3.9c0.7,0,1.3,0.6,1.3,1.3v9.7
			C1164.1,312.5,1163.5,313,1162.8,313z"/>
	</g>
	<g>
		<path class="st2" d="M1139.8,337.8h-3.9c-0.7,0-1.3-0.6-1.3-1.3v-9.7c0-0.7,0.6-1.3,1.3-1.3h3.9c0.7,0,1.3,0.6,1.3,1.3v9.7
			C1141,337.2,1140.5,337.8,1139.8,337.8z"/>
	</g>
	<g>
		<path class="st2" d="M1139.8,363.6h-3.9c-0.7,0-1.3-0.6-1.3-1.3v-9.7c0-0.7,0.6-1.3,1.3-1.3h3.9c0.7,0,1.3,0.6,1.3,1.3v9.7
			C1141,363,1140.5,363.6,1139.8,363.6z"/>
	</g>
	<g>
		<path class="st2" d="M1151.2,337.8h-3.9c-0.7,0-1.3-0.6-1.3-1.3v-9.7c0-0.7,0.6-1.3,1.3-1.3h3.9c0.7,0,1.3,0.6,1.3,1.3v9.7
			C1152.5,337.2,1151.9,337.8,1151.2,337.8z"/>
	</g>
	<g>
		<path class="st2" d="M1162.8,337.8h-3.9c-0.7,0-1.3-0.6-1.3-1.3v-9.7c0-0.7,0.6-1.3,1.3-1.3h3.9c0.7,0,1.3,0.6,1.3,1.3v9.7
			C1164.1,337.2,1163.5,337.8,1162.8,337.8z"/>
	</g>
	<g>
		<path class="st2" d="M1151.2,363.6h-3.9c-0.7,0-1.3-0.6-1.3-1.3v-9.7c0-0.7,0.6-1.3,1.3-1.3h3.9c0.7,0,1.3,0.6,1.3,1.3v9.7
			C1152.5,363,1151.9,363.6,1151.2,363.6z"/>
	</g>
	<g>
		<path class="st2" d="M1162.8,363.6h-3.9c-0.7,0-1.3-0.6-1.3-1.3v-9.7c0-0.7,0.6-1.3,1.3-1.3h3.9c0.7,0,1.3,0.6,1.3,1.3v9.7
			C1164.1,363,1163.5,363.6,1162.8,363.6z"/>
	</g>
	<g>
		<path class="st3" d="M1100.5,287.2h-3.9c-0.7,0-1.3-0.6-1.3-1.3v-9.7c0-0.7,0.6-1.3,1.3-1.3h3.9c0.7,0,1.3,0.6,1.3,1.3v9.7
			C1101.7,286.7,1101.2,287.2,1100.5,287.2z"/>
	</g>
	<g>
		<path class="st3" d="M1100.5,313h-3.9c-0.7,0-1.3-0.6-1.3-1.3V302c0-0.7,0.6-1.3,1.3-1.3h3.9c0.7,0,1.3,0.6,1.3,1.3v9.7
			C1101.7,312.5,1101.2,313,1100.5,313z"/>
	</g>
	<g>
		<path class="st3" d="M1111.9,287.2h-3.9c-0.7,0-1.3-0.6-1.3-1.3v-9.7c0-0.7,0.6-1.3,1.3-1.3h3.9c0.7,0,1.3,0.6,1.3,1.3v9.7
			C1113.2,286.6,1112.6,287.2,1111.9,287.2z"/>
	</g>
	<g>
		<path class="st3" d="M1123.5,287.2h-3.9c-0.7,0-1.3-0.6-1.3-1.3v-9.7c0-0.7,0.6-1.3,1.3-1.3h3.9c0.7,0,1.3,0.6,1.3,1.3v9.7
			C1124.8,286.7,1124.2,287.2,1123.5,287.2z"/>
	</g>
	<g>
		<path class="st3" d="M1111.9,313h-3.9c-0.7,0-1.3-0.6-1.3-1.3V302c0-0.7,0.6-1.3,1.3-1.3h3.9c0.7,0,1.3,0.6,1.3,1.3v9.7
			C1113.2,312.5,1112.6,313,1111.9,313z"/>
	</g>
	<g>
		<path class="st3" d="M1123.5,313h-3.9c-0.7,0-1.3-0.6-1.3-1.3V302c0-0.7,0.6-1.3,1.3-1.3h3.9c0.7,0,1.3,0.6,1.3,1.3v9.7
			C1124.8,312.5,1124.2,313,1123.5,313z"/>
	</g>
	<g>
		<path class="st3" d="M1100.5,337.8h-3.9c-0.7,0-1.3-0.6-1.3-1.3v-9.7c0-0.7,0.6-1.3,1.3-1.3h3.9c0.7,0,1.3,0.6,1.3,1.3v9.7
			C1101.7,337.2,1101.2,337.8,1100.5,337.8z"/>
	</g>
	<g>
		<path class="st3" d="M1100.5,363.6h-3.9c-0.7,0-1.3-0.6-1.3-1.3v-9.7c0-0.7,0.6-1.3,1.3-1.3h3.9c0.7,0,1.3,0.6,1.3,1.3v9.7
			C1101.7,363,1101.2,363.6,1100.5,363.6z"/>
	</g>
	<g>
		<path class="st3" d="M1111.9,337.8h-3.9c-0.7,0-1.3-0.6-1.3-1.3v-9.7c0-0.7,0.6-1.3,1.3-1.3h3.9c0.7,0,1.3,0.6,1.3,1.3v9.7
			C1113.2,337.2,1112.6,337.8,1111.9,337.8z"/>
	</g>
	<g>
		<path class="st3" d="M1123.5,337.8h-3.9c-0.7,0-1.3-0.6-1.3-1.3v-9.7c0-0.7,0.6-1.3,1.3-1.3h3.9c0.7,0,1.3,0.6,1.3,1.3v9.7
			C1124.8,337.2,1124.2,337.8,1123.5,337.8z"/>
	</g>
	<g>
		<path class="st3" d="M1111.9,363.6h-3.9c-0.7,0-1.3-0.6-1.3-1.3v-9.7c0-0.7,0.6-1.3,1.3-1.3h3.9c0.7,0,1.3,0.6,1.3,1.3v9.7
			C1113.2,363,1112.6,363.6,1111.9,363.6z"/>
	</g>
	<g>
		<path class="st3" d="M1123.5,363.6h-3.9c-0.7,0-1.3-0.6-1.3-1.3v-9.7c0-0.7,0.6-1.3,1.3-1.3h3.9c0.7,0,1.3,0.6,1.3,1.3v9.7
			C1124.8,363,1124.2,363.6,1123.5,363.6z"/>
	</g>
	<path class="st4" d="M1163.4,265.2h-31.5c-1,0-2-0.3-2.7-0.9l-22.6-19.8c-2-1.7-0.3-4.4,2.7-4.4h31.5c1,0,2,0.3,2.7,0.9l22.6,19.8
		C1168.1,262.6,1166.5,265.2,1163.4,265.2z"/>
	<path class="st0" d="M1140.6,251.7h-12c-0.4,0-0.7-0.3-0.7-0.7v-15.4h13.4V251C1141.3,251.4,1141,251.7,1140.6,251.7z"/>
	<path class="st1" d="M1140.5,251.7h-6v-16.1h6.7V251C1141.3,251.4,1141,251.7,1140.5,251.7z"/>
	<path class="st0" d="M1143.3,237.7H1126c-0.3,0-0.6-0.3-0.6-0.6v-3c0-0.3,0.3-0.6,0.6-0.6h17.3c0.3,0,0.6,0.3,0.6,0.6v3
		C1143.8,237.4,1143.5,237.7,1143.3,237.7z"/>
	<path class="st1" d="M1143.2,237.7h-8.6v-4.1h8.6c0.3,0,0.6,0.3,0.6,0.6v2.9C1143.8,237.4,1143.5,237.7,1143.2,237.7z"/>
</g>
<g>
	<path class="st1" d="M1212.4,377.5H1183v-396h29.4c1.5,0,2.6,1.2,2.6,2.6v390.7C1215,376.3,1213.8,377.5,1212.4,377.5z"/>
	<path class="st0" d="M1173.2-30.1l-7.9-9.7c-0.8-1-2.3-0.9-3.1,0.1l-7.9,9.6l-9,11c-0.3,0.4-0.5,0.9-0.5,1.4v393
		c0,1.2,1,2.2,2.2,2.2h35.8V-17.7c0-0.5-0.2-1-0.5-1.4L1173.2-30.1z"/>
	<g>
		<path class="st3" d="M1160.1,12.8h-5.6c-1,0-1.8-0.8-1.8-1.8V-2.9c0-1,0.8-1.8,1.8-1.8h5.6c1,0,1.8,0.8,1.8,1.8V11
			C1161.9,12,1161.1,12.8,1160.1,12.8z"/>
	</g>
	<g>
		<path class="st3" d="M1176.7,12.8h-5.6c-1,0-1.8-0.8-1.8-1.8V-2.9c0-1,0.8-1.8,1.8-1.8h5.6c1,0,1.8,0.8,1.8,1.8V11
			C1178.5,12,1177.7,12.8,1176.7,12.8z"/>
	</g>
	<g>
		<path class="st3" d="M1160.1,49.8h-5.6c-1,0-1.8-0.8-1.8-1.8V34.1c0-1,0.8-1.8,1.8-1.8h5.6c1,0,1.8,0.8,1.8,1.8V48
			C1161.9,49,1161.1,49.8,1160.1,49.8z"/>
	</g>
	<g>
		<path class="st3" d="M1176.7,49.8h-5.6c-1,0-1.8-0.8-1.8-1.8V34.1c0-1,0.8-1.8,1.8-1.8h5.6c1,0,1.8,0.8,1.8,1.8V48
			C1178.5,49,1177.7,49.8,1176.7,49.8z"/>
	</g>
	<g>
		<path class="st3" d="M1160.1,85.8h-5.6c-1,0-1.8-0.8-1.8-1.8V70.1c0-1,0.8-1.8,1.8-1.8h5.6c1,0,1.8,0.8,1.8,1.8V84
			C1161.9,85,1161.1,85.8,1160.1,85.8z"/>
	</g>
	<g>
		<path class="st3" d="M1176.7,85.7h-5.6c-1,0-1.8-0.8-1.8-1.8V70c0-1,0.8-1.8,1.8-1.8h5.6c1,0,1.8,0.8,1.8,1.8v13.9
			C1178.5,84.9,1177.7,85.7,1176.7,85.7z"/>
	</g>
	<g>
		<path class="st3" d="M1160.1,122.7h-5.6c-1,0-1.8-0.8-1.8-1.8V107c0-1,0.8-1.8,1.8-1.8h5.6c1,0,1.8,0.8,1.8,1.8v13.9
			C1161.9,121.9,1161.1,122.7,1160.1,122.7z"/>
	</g>
	<g>
		<path class="st3" d="M1176.7,122.6h-5.6c-1,0-1.8-0.8-1.8-1.8v-13.9c0-1,0.8-1.8,1.8-1.8h5.6c1,0,1.8,0.8,1.8,1.8v13.9
			C1178.5,121.8,1177.7,122.6,1176.7,122.6z"/>
	</g>
	<g>
		<path class="st3" d="M1160.1,159.4h-5.5c-1,0-1.8-0.8-1.8-1.8v-13.5c0-1,0.8-1.8,1.8-1.8h5.5c1,0,1.8,0.8,1.8,1.8v13.5
			C1161.9,158.6,1161.1,159.4,1160.1,159.4z"/>
	</g>
	<g>
		<path class="st3" d="M1176.7,159.7h-5.6c-1,0-1.8-0.8-1.8-1.8V144c0-1,0.8-1.8,1.8-1.8h5.6c1,0,1.8,0.8,1.8,1.8v13.9
			C1178.5,159,1177.7,159.7,1176.7,159.7z"/>
	</g>
	<g>
		<path class="st3" d="M1160.1,197.3h-5.5c-1,0-1.8-0.8-1.8-1.8V182c0-1,0.8-1.8,1.8-1.8h5.5c1,0,1.8,0.8,1.8,1.8v13.5
			C1161.9,196.5,1161.1,197.3,1160.1,197.3z"/>
	</g>
	<g>
		<path class="st3" d="M1176.7,197.7h-5.6c-1,0-1.8-0.8-1.8-1.8V182c0-1,0.8-1.8,1.8-1.8h5.6c1,0,1.8,0.8,1.8,1.8v13.9
			C1178.5,196.9,1177.7,197.7,1176.7,197.7z"/>
	</g>
	<g>
		<path class="st3" d="M1160.1,235.8h-5.6c-1,0-1.8-0.8-1.8-1.8v-13.9c0-1,0.8-1.8,1.8-1.8h5.6c1,0,1.8,0.8,1.8,1.8V234
			C1161.9,235,1161.1,235.8,1160.1,235.8z"/>
	</g>
	<g>
		<path class="st3" d="M1176.7,235.3h-5.5c-1,0-1.8-0.8-1.8-1.8V220c0-1,0.8-1.8,1.8-1.8h5.5c1,0,1.8,0.8,1.8,1.8v13.5
			C1178.5,234.5,1177.7,235.3,1176.7,235.3z"/>
	</g>
	<g>
		<path class="st3" d="M1160.1,273.8h-5.6c-1,0-1.8-0.8-1.8-1.8v-13.9c0-1,0.8-1.8,1.8-1.8h5.6c1,0,1.8,0.8,1.8,1.8V272
			C1161.9,273,1161.1,273.8,1160.1,273.8z"/>
	</g>
	<g>
		<path class="st3" d="M1176.7,273.2h-5.5c-1,0-1.8-0.8-1.8-1.8v-13.5c0-1,0.8-1.8,1.8-1.8h5.5c1,0,1.8,0.8,1.8,1.8v13.5
			C1178.5,272.4,1177.7,273.2,1176.7,273.2z"/>
	</g>
	<g>
		<path class="st3" d="M1160.1,310h-5.6c-1,0-1.8-0.8-1.8-1.8v-13.9c0-1,0.8-1.8,1.8-1.8h5.6c1,0,1.8,0.8,1.8,1.8v14
			C1161.9,309.2,1161.1,310,1160.1,310z"/>
	</g>
	<g>
		<path class="st3" d="M1176.7,310.5h-5.5c-1,0-1.8-0.8-1.8-1.8v-14.5c0-1,0.8-1.8,1.8-1.8h5.5c1,0,1.8,0.8,1.8,1.8v14.5
			C1178.5,309.7,1177.7,310.5,1176.7,310.5z"/>
	</g>
	<g>
		<path class="st3" d="M1160.1,347h-5.6c-1,0-1.8-0.8-1.8-1.8v-13.9c0-1,0.8-1.8,1.8-1.8h5.6c1,0,1.8,0.8,1.8,1.8v13.9
			C1161.9,346.2,1161.1,347,1160.1,347z"/>
	</g>
	<g>
		<path class="st3" d="M1176.7,346.9h-5.6c-1,0-1.8-0.8-1.8-1.8v-13.9c0-1,0.8-1.8,1.8-1.8h5.6c1,0,1.8,0.8,1.8,1.8v13.9
			C1178.5,346.1,1177.7,346.9,1176.7,346.9z"/>
	</g>
	<g>
		<path class="st2" d="M1193.1,12.8h-5.6c-1,0-1.8-0.8-1.8-1.8V-2.9c0-1,0.8-1.8,1.8-1.8h5.6c1,0,1.8,0.8,1.8,1.8V11
			C1194.9,12,1194.1,12.8,1193.1,12.8z"/>
	</g>
	<g>
		<path class="st2" d="M1209.7,12.8h-5.6c-1,0-1.8-0.8-1.8-1.8V-2.9c0-1,0.8-1.8,1.8-1.8h5.6c1,0,1.8,0.8,1.8,1.8V11
			C1211.5,12,1210.7,12.8,1209.7,12.8z"/>
	</g>
	<g>
		<path class="st2" d="M1193.1,49.8h-5.6c-1,0-1.8-0.8-1.8-1.8V34.1c0-1,0.8-1.8,1.8-1.8h5.6c1,0,1.8,0.8,1.8,1.8V48
			C1194.9,49,1194.1,49.8,1193.1,49.8z"/>
	</g>
	<g>
		<path class="st2" d="M1209.7,49.8h-5.6c-1,0-1.8-0.8-1.8-1.8V34.1c0-1,0.8-1.8,1.8-1.8h5.6c1,0,1.8,0.8,1.8,1.8V48
			C1211.5,49,1210.7,49.8,1209.7,49.8z"/>
	</g>
	<g>
		<path class="st2" d="M1193.1,85.8h-5.6c-1,0-1.8-0.8-1.8-1.8V70.1c0-1,0.8-1.8,1.8-1.8h5.6c1,0,1.8,0.8,1.8,1.8V84
			C1194.9,85,1194.1,85.8,1193.1,85.8z"/>
	</g>
	<g>
		<path class="st2" d="M1209.7,85.7h-5.6c-1,0-1.8-0.8-1.8-1.8V70c0-1,0.8-1.8,1.8-1.8h5.6c1,0,1.8,0.8,1.8,1.8v13.9
			C1211.5,84.9,1210.7,85.7,1209.7,85.7z"/>
	</g>
	<g>
		<path class="st2" d="M1193.1,122.7h-5.6c-1,0-1.8-0.8-1.8-1.8V107c0-1,0.8-1.8,1.8-1.8h5.6c1,0,1.8,0.8,1.8,1.8v13.9
			C1194.9,121.9,1194.1,122.7,1193.1,122.7z"/>
	</g>
	<g>
		<path class="st2" d="M1209.7,122.6h-5.6c-1,0-1.8-0.8-1.8-1.8v-13.9c0-1,0.8-1.8,1.8-1.8h5.6c1,0,1.8,0.8,1.8,1.8v13.9
			C1211.5,121.8,1210.7,122.6,1209.7,122.6z"/>
	</g>
	<g>
		<path class="st2" d="M1193.1,159.4h-5.5c-1,0-1.8-0.8-1.8-1.8v-13.5c0-1,0.8-1.8,1.8-1.8h5.5c1,0,1.8,0.8,1.8,1.8v13.5
			C1194.9,158.6,1194.1,159.4,1193.1,159.4z"/>
	</g>
	<g>
		<path class="st2" d="M1209.7,159.7h-5.6c-1,0-1.8-0.8-1.8-1.8V144c0-1,0.8-1.8,1.8-1.8h5.6c1,0,1.8,0.8,1.8,1.8v13.9
			C1211.5,159,1210.7,159.7,1209.7,159.7z"/>
	</g>
	<g>
		<path class="st2" d="M1193.1,197.3h-5.5c-1,0-1.8-0.8-1.8-1.8V182c0-1,0.8-1.8,1.8-1.8h5.5c1,0,1.8,0.8,1.8,1.8v13.5
			C1194.9,196.5,1194.1,197.3,1193.1,197.3z"/>
	</g>
	<g>
		<path class="st2" d="M1209.7,197.7h-5.6c-1,0-1.8-0.8-1.8-1.8V182c0-1,0.8-1.8,1.8-1.8h5.6c1,0,1.8,0.8,1.8,1.8v13.9
			C1211.5,196.9,1210.7,197.7,1209.7,197.7z"/>
	</g>
	<g>
		<path class="st2" d="M1193.1,235.8h-5.6c-1,0-1.8-0.8-1.8-1.8v-13.9c0-1,0.8-1.8,1.8-1.8h5.6c1,0,1.8,0.8,1.8,1.8V234
			C1194.9,235,1194.1,235.8,1193.1,235.8z"/>
	</g>
	<g>
		<path class="st2" d="M1209.7,235.3h-5.5c-1,0-1.8-0.8-1.8-1.8V220c0-1,0.8-1.8,1.8-1.8h5.5c1,0,1.8,0.8,1.8,1.8v13.5
			C1211.5,234.5,1210.7,235.3,1209.7,235.3z"/>
	</g>
	<g>
		<path class="st2" d="M1193.1,273.8h-5.6c-1,0-1.8-0.8-1.8-1.8v-13.9c0-1,0.8-1.8,1.8-1.8h5.6c1,0,1.8,0.8,1.8,1.8V272
			C1194.9,273,1194.1,273.8,1193.1,273.8z"/>
	</g>
	<g>
		<path class="st2" d="M1209.7,273.2h-5.5c-1,0-1.8-0.8-1.8-1.8v-13.5c0-1,0.8-1.8,1.8-1.8h5.5c1,0,1.8,0.8,1.8,1.8v13.5
			C1211.5,272.4,1210.7,273.2,1209.7,273.2z"/>
	</g>
	<g>
		<path class="st2" d="M1193.1,310h-5.6c-1,0-1.8-0.8-1.8-1.8v-13.9c0-1,0.8-1.8,1.8-1.8h5.6c1,0,1.8,0.8,1.8,1.8v14
			C1194.9,309.2,1194.1,310,1193.1,310z"/>
	</g>
	<g>
		<path class="st2" d="M1209.7,310.5h-5.5c-1,0-1.8-0.8-1.8-1.8v-14.5c0-1,0.8-1.8,1.8-1.8h5.5c1,0,1.8,0.8,1.8,1.8v14.5
			C1211.5,309.7,1210.7,310.5,1209.7,310.5z"/>
	</g>
	<g>
		<path class="st2" d="M1193.1,347h-5.6c-1,0-1.8-0.8-1.8-1.8v-13.9c0-1,0.8-1.8,1.8-1.8h5.6c1,0,1.8,0.8,1.8,1.8v13.9
			C1194.9,346.2,1194.1,347,1193.1,347z"/>
	</g>
	<g>
		<path class="st2" d="M1209.7,346.9h-5.6c-1,0-1.8-0.8-1.8-1.8v-13.9c0-1,0.8-1.8,1.8-1.8h5.6c1,0,1.8,0.8,1.8,1.8v13.9
			C1211.5,346.1,1210.7,346.9,1209.7,346.9z"/>
	</g>
	<path class="st8" d="M1211.5-14.7h-26.7c-0.9,0-1.7-0.4-2.3-1l-19.2-21c-1.7-1.8-0.3-4.7,2.3-4.7h26.8c0.9,0,1.7,0.4,2.3,1l19.2,21
		C1215.5-17.5,1214.1-14.7,1211.5-14.7z"/>
	<g>
		<path class="st0" d="M1189.5-34.5h-7.8c-0.6,0-1-0.5-1-1v-10.8h9.9v10.9C1190.5-34.9,1190.1-34.5,1189.5-34.5z"/>
		<path class="st1" d="M1189.5-34.5h-3.9v-11.8h4.9v10.8C1190.5-34.9,1190.1-34.5,1189.5-34.5z"/>
		<path class="st0" d="M1191.5-46.3h-11.9c-0.4,0-0.8-0.4-0.8-0.8v-1.5c0-0.4,0.4-0.8,0.8-0.8h11.9c0.4,0,0.8,0.4,0.8,0.8v1.5
			C1192.3-46.7,1192-46.3,1191.5-46.3z"/>
		<path class="st1" d="M1191.5-46.3h-5.9v-3h5.9c0.5,0,0.8,0.4,0.8,0.8v1.4C1192.3-46.7,1192-46.3,1191.5-46.3z"/>
	</g>
</g>
<g>
	<path class="st0" d="M1033.6,390.7h-50.8c-3,0-5.3-3.9-5.3-8.7V231.3c0-2.7,0.8-5.3,2.1-6.9l20.9-26.1c1.8-2.3,4.3-2.4,6.2-0.4
		l27,29.1L1033.6,390.7L1033.6,390.7z"/>
	<path class="st1" d="M1082.4,390.7h-48.8V227.1h48.8c4.1,0,7.3,3.3,7.3,7.3v149C1089.8,387.4,1086.5,390.7,1082.4,390.7z"/>
	<g>
		<path class="st2" d="M1048,261.7h-5.6c-1,0-1.8-0.8-1.8-1.8V246c0-1,0.8-1.8,1.8-1.8h5.6c1,0,1.8,0.8,1.8,1.8v13.9
			C1049.8,261,1049,261.7,1048,261.7z"/>
	</g>
	<g>
		<path class="st2" d="M1048,298.7h-5.6c-1,0-1.8-0.8-1.8-1.8V283c0-1,0.8-1.8,1.8-1.8h5.6c1,0,1.8,0.8,1.8,1.8v13.9
			C1049.8,297.9,1049,298.7,1048,298.7z"/>
	</g>
	<g>
		<path class="st2" d="M1064.4,261.7h-5.6c-1,0-1.8-0.8-1.8-1.8V246c0-1,0.8-1.8,1.8-1.8h5.6c1,0,1.8,0.8,1.8,1.8v13.9
			C1066.2,260.9,1065.4,261.7,1064.4,261.7z"/>
	</g>
	<g>
		<path class="st2" d="M1081,261.7h-5.6c-1,0-1.8-0.8-1.8-1.8V246c0-1,0.8-1.8,1.8-1.8h5.6c1,0,1.8,0.8,1.8,1.8v13.9
			C1082.8,261,1082,261.7,1081,261.7z"/>
	</g>
	<g>
		<path class="st2" d="M1064.4,298.7h-5.6c-1,0-1.8-0.8-1.8-1.8V283c0-1,0.8-1.8,1.8-1.8h5.6c1,0,1.8,0.8,1.8,1.8v13.9
			C1066.2,297.9,1065.4,298.7,1064.4,298.7z"/>
	</g>
	<g>
		<path class="st2" d="M1081,298.7h-5.6c-1,0-1.8-0.8-1.8-1.8V283c0-1,0.8-1.8,1.8-1.8h5.6c1,0,1.8,0.8,1.8,1.8v13.9
			C1082.8,297.9,1082,298.7,1081,298.7z"/>
	</g>
	<g>
		<path class="st2" d="M1048,334.1h-5.6c-1,0-1.8-0.8-1.8-1.8v-13.9c0-1,0.8-1.8,1.8-1.8h5.6c1,0,1.8,0.8,1.8,1.8v13.9
			C1049.8,333.3,1049,334.1,1048,334.1z"/>
	</g>
	<g>
		<path class="st2" d="M1048,371h-5.6c-1,0-1.8-0.8-1.8-1.8v-13.9c0-1,0.8-1.8,1.8-1.8h5.6c1,0,1.8,0.8,1.8,1.8v13.9
			C1049.8,370.2,1049,371,1048,371z"/>
	</g>
	<g>
		<path class="st2" d="M1064.4,334.1h-5.6c-1,0-1.8-0.8-1.8-1.8v-13.9c0-1,0.8-1.8,1.8-1.8h5.6c1,0,1.8,0.8,1.8,1.8v13.9
			C1066.2,333.3,1065.4,334.1,1064.4,334.1z"/>
	</g>
	<g>
		<path class="st2" d="M1081,334.1h-5.6c-1,0-1.8-0.8-1.8-1.8v-13.9c0-1,0.8-1.8,1.8-1.8h5.6c1,0,1.8,0.8,1.8,1.8v13.9
			C1082.8,333.3,1082,334.1,1081,334.1z"/>
	</g>
	<g>
		<path class="st2" d="M1064.4,371h-5.6c-1,0-1.8-0.8-1.8-1.8v-13.9c0-1,0.8-1.8,1.8-1.8h5.6c1,0,1.8,0.8,1.8,1.8v13.9
			C1066.2,370.2,1065.4,371,1064.4,371z"/>
	</g>
	<g>
		<path class="st2" d="M1081,371h-5.6c-1,0-1.8-0.8-1.8-1.8v-13.9c0-1,0.8-1.8,1.8-1.8h5.6c1,0,1.8,0.8,1.8,1.8v13.9
			C1082.8,370.2,1082,371,1081,371z"/>
	</g>
	<g>
		<path class="st3" d="M991.8,261.7h-5.6c-1,0-1.8-0.8-1.8-1.8V246c0-1,0.8-1.8,1.8-1.8h5.6c1,0,1.8,0.8,1.8,1.8v13.9
			C993.6,261,992.8,261.7,991.8,261.7z"/>
	</g>
	<g>
		<path class="st3" d="M991.8,298.7h-5.6c-1,0-1.8-0.8-1.8-1.8V283c0-1,0.8-1.8,1.8-1.8h5.6c1,0,1.8,0.8,1.8,1.8v13.9
			C993.6,297.9,992.8,298.7,991.8,298.7z"/>
	</g>
	<g>
		<path class="st3" d="M1008.2,261.7h-5.6c-1,0-1.8-0.8-1.8-1.8V246c0-1,0.8-1.8,1.8-1.8h5.6c1,0,1.8,0.8,1.8,1.8v13.9
			C1010,260.9,1009.2,261.7,1008.2,261.7z"/>
	</g>
	<g>
		<path class="st3" d="M1024.8,261.7h-5.6c-1,0-1.8-0.8-1.8-1.8V246c0-1,0.8-1.8,1.8-1.8h5.6c1,0,1.8,0.8,1.8,1.8v13.9
			C1026.6,261,1025.8,261.7,1024.8,261.7z"/>
	</g>
	<g>
		<path class="st3" d="M1008.2,298.7h-5.6c-1,0-1.8-0.8-1.8-1.8V283c0-1,0.8-1.8,1.8-1.8h5.6c1,0,1.8,0.8,1.8,1.8v13.9
			C1010,297.9,1009.2,298.7,1008.2,298.7z"/>
	</g>
	<g>
		<path class="st3" d="M1024.8,298.7h-5.6c-1,0-1.8-0.8-1.8-1.8V283c0-1,0.8-1.8,1.8-1.8h5.6c1,0,1.8,0.8,1.8,1.8v13.9
			C1026.6,297.9,1025.8,298.7,1024.8,298.7z"/>
	</g>
	<g>
		<path class="st3" d="M991.8,334.1h-5.6c-1,0-1.8-0.8-1.8-1.8v-13.9c0-1,0.8-1.8,1.8-1.8h5.6c1,0,1.8,0.8,1.8,1.8v13.9
			C993.6,333.3,992.8,334.1,991.8,334.1z"/>
	</g>
	<g>
		<path class="st3" d="M991.8,371h-5.6c-1,0-1.8-0.8-1.8-1.8v-13.9c0-1,0.8-1.8,1.8-1.8h5.6c1,0,1.8,0.8,1.8,1.8v13.9
			C993.6,370.2,992.8,371,991.8,371z"/>
	</g>
	<g>
		<path class="st3" d="M1008.2,334.1h-5.6c-1,0-1.8-0.8-1.8-1.8v-13.9c0-1,0.8-1.8,1.8-1.8h5.6c1,0,1.8,0.8,1.8,1.8v13.9
			C1010,333.3,1009.2,334.1,1008.2,334.1z"/>
	</g>
	<g>
		<path class="st3" d="M1024.8,334.1h-5.6c-1,0-1.8-0.8-1.8-1.8v-13.9c0-1,0.8-1.8,1.8-1.8h5.6c1,0,1.8,0.8,1.8,1.8v13.9
			C1026.6,333.3,1025.8,334.1,1024.8,334.1z"/>
	</g>
	<g>
		<path class="st3" d="M1008.2,371h-5.6c-1,0-1.8-0.8-1.8-1.8v-13.9c0-1,0.8-1.8,1.8-1.8h5.6c1,0,1.8,0.8,1.8,1.8v13.9
			C1010,370.2,1009.2,371,1008.2,371z"/>
	</g>
	<g>
		<path class="st3" d="M1024.8,371h-5.6c-1,0-1.8-0.8-1.8-1.8v-13.9c0-1,0.8-1.8,1.8-1.8h5.6c1,0,1.8,0.8,1.8,1.8v13.9
			C1026.6,370.2,1025.8,371,1024.8,371z"/>
	</g>
	<path class="st4" d="M1081.8,230.3h-45c-1.5,0-2.9-0.5-3.9-1.3l-32.3-28.3c-2.8-2.5-0.5-6.3,3.9-6.3h45c1.5,0,2.9,0.5,3.9,1.3
		l32.3,28.3C1088.6,226.5,1086.2,230.3,1081.8,230.3z"/>
	<path class="st0" d="M1049.2,211H1032c-0.6,0-1-0.5-1-1v-22.1h19.2V210C1050.2,210.6,1049.7,211,1049.2,211z"/>
	<path class="st1" d="M1049.1,211h-8.6v-23.1h9.6v22C1050.2,210.5,1049.7,211,1049.1,211z"/>
	<path class="st0" d="M1053,190.9h-24.7c-0.4,0-0.8-0.4-0.8-0.8v-4.3c0-0.4,0.4-0.8,0.8-0.8h24.7c0.4,0,0.8,0.4,0.8,0.8v4.3
		C1053.7,190.5,1053.4,190.9,1053,190.9z"/>
	<path class="st1" d="M1052.9,190.9h-12.3V185h12.3c0.5,0,0.8,0.4,0.8,0.8v4.2C1053.7,190.5,1053.4,190.9,1052.9,190.9z"/>
</g>
<g>
	<path class="st0" d="M811.7,386.5h-50.8c-3,0-5.3-3.9-5.3-8.7V227.1c0-2.7,0.8-5.3,2.1-6.9l20.9-26.1c1.8-2.3,4.3-2.4,6.2-0.4
		l27,29.1v163.7H811.7z"/>
	<path class="st1" d="M860.5,386.5h-48.8V223h48.8c4.1,0,7.3,3.3,7.3,7.3v149C867.9,383.2,864.6,386.5,860.5,386.5z"/>
	<g>
		<path class="st2" d="M826.1,257.5h-5.6c-1,0-1.8-0.8-1.8-1.8v-13.9c0-1,0.8-1.8,1.8-1.8h5.6c1,0,1.8,0.8,1.8,1.8v13.9
			C827.9,256.8,827.1,257.5,826.1,257.5z"/>
	</g>
	<g>
		<path class="st2" d="M826.1,294.5h-5.6c-1,0-1.8-0.8-1.8-1.8v-13.9c0-1,0.8-1.8,1.8-1.8h5.6c1,0,1.8,0.8,1.8,1.8v13.9
			C827.9,293.7,827.1,294.5,826.1,294.5z"/>
	</g>
	<g>
		<path class="st2" d="M842.5,257.5h-5.6c-1,0-1.8-0.8-1.8-1.8v-13.9c0-1,0.8-1.8,1.8-1.8h5.6c1,0,1.8,0.8,1.8,1.8v13.9
			C844.3,256.7,843.5,257.5,842.5,257.5z"/>
	</g>
	<g>
		<path class="st2" d="M859.1,257.5h-5.6c-1,0-1.8-0.8-1.8-1.8v-13.9c0-1,0.8-1.8,1.8-1.8h5.6c1,0,1.8,0.8,1.8,1.8v13.9
			C860.9,256.8,860.1,257.5,859.1,257.5z"/>
	</g>
	<g>
		<path class="st2" d="M842.5,294.5h-5.6c-1,0-1.8-0.8-1.8-1.8v-13.9c0-1,0.8-1.8,1.8-1.8h5.6c1,0,1.8,0.8,1.8,1.8v13.9
			C844.3,293.7,843.5,294.5,842.5,294.5z"/>
	</g>
	<g>
		<path class="st2" d="M859.1,294.5h-5.6c-1,0-1.8-0.8-1.8-1.8v-13.9c0-1,0.8-1.8,1.8-1.8h5.6c1,0,1.8,0.8,1.8,1.8v13.9
			C860.9,293.7,860.1,294.5,859.1,294.5z"/>
	</g>
	<g>
		<path class="st2" d="M826.1,330h-5.6c-1,0-1.8-0.8-1.8-1.8v-13.9c0-1,0.8-1.8,1.8-1.8h5.6c1,0,1.8,0.8,1.8,1.8v13.9
			C827.9,329.1,827.1,330,826.1,330z"/>
	</g>
	<g>
		<path class="st2" d="M826.1,366.8h-5.6c-1,0-1.8-0.8-1.8-1.8v-13.8c0-1,0.8-1.8,1.8-1.8h5.6c1,0,1.8,0.8,1.8,1.8v13.9
			C827.9,366,827.1,366.8,826.1,366.8z"/>
	</g>
	<g>
		<path class="st2" d="M842.5,330h-5.6c-1,0-1.8-0.8-1.8-1.8v-13.9c0-1,0.8-1.8,1.8-1.8h5.6c1,0,1.8,0.8,1.8,1.8v13.9
			C844.3,329.1,843.5,330,842.5,330z"/>
	</g>
	<g>
		<path class="st2" d="M859.1,330h-5.6c-1,0-1.8-0.8-1.8-1.8v-13.9c0-1,0.8-1.8,1.8-1.8h5.6c1,0,1.8,0.8,1.8,1.8v13.9
			C860.9,329.1,860.1,330,859.1,330z"/>
	</g>
	<g>
		<path class="st2" d="M842.5,366.8h-5.6c-1,0-1.8-0.8-1.8-1.8v-13.8c0-1,0.8-1.8,1.8-1.8h5.6c1,0,1.8,0.8,1.8,1.8v13.9
			C844.3,366,843.5,366.8,842.5,366.8z"/>
	</g>
	<g>
		<path class="st2" d="M859.1,366.8h-5.6c-1,0-1.8-0.8-1.8-1.8v-13.8c0-1,0.8-1.8,1.8-1.8h5.6c1,0,1.8,0.8,1.8,1.8v13.9
			C860.9,366,860.1,366.8,859.1,366.8z"/>
	</g>
	<g>
		<path class="st3" d="M769.9,257.5h-5.6c-1,0-1.8-0.8-1.8-1.8v-13.9c0-1,0.8-1.8,1.8-1.8h5.6c1,0,1.8,0.8,1.8,1.8v13.9
			C771.7,256.8,770.9,257.5,769.9,257.5z"/>
	</g>
	<g>
		<path class="st3" d="M769.9,294.5h-5.6c-1,0-1.8-0.8-1.8-1.8v-13.9c0-1,0.8-1.8,1.8-1.8h5.6c1,0,1.8,0.8,1.8,1.8v13.9
			C771.7,293.7,770.9,294.5,769.9,294.5z"/>
	</g>
	<g>
		<path class="st3" d="M786.3,257.5h-5.6c-1,0-1.8-0.8-1.8-1.8v-13.9c0-1,0.8-1.8,1.8-1.8h5.6c1,0,1.8,0.8,1.8,1.8v13.9
			C788.1,256.7,787.3,257.5,786.3,257.5z"/>
	</g>
	<g>
		<path class="st3" d="M802.9,257.5h-5.6c-1,0-1.8-0.8-1.8-1.8v-13.9c0-1,0.8-1.8,1.8-1.8h5.6c1,0,1.8,0.8,1.8,1.8v13.9
			C804.7,256.8,803.9,257.5,802.9,257.5z"/>
	</g>
	<g>
		<path class="st3" d="M786.3,294.5h-5.6c-1,0-1.8-0.8-1.8-1.8v-13.9c0-1,0.8-1.8,1.8-1.8h5.6c1,0,1.8,0.8,1.8,1.8v13.9
			C788.1,293.7,787.3,294.5,786.3,294.5z"/>
	</g>
	<g>
		<path class="st3" d="M802.9,294.5h-5.6c-1,0-1.8-0.8-1.8-1.8v-13.9c0-1,0.8-1.8,1.8-1.8h5.6c1,0,1.8,0.8,1.8,1.8v13.9
			C804.7,293.7,803.9,294.5,802.9,294.5z"/>
	</g>
	<g>
		<path class="st3" d="M769.9,330h-5.6c-1,0-1.8-0.8-1.8-1.8v-13.9c0-1,0.8-1.8,1.8-1.8h5.6c1,0,1.8,0.8,1.8,1.8v13.9
			C771.7,329.1,770.9,330,769.9,330z"/>
	</g>
	<g>
		<path class="st3" d="M769.9,366.8h-5.6c-1,0-1.8-0.8-1.8-1.8v-13.8c0-1,0.8-1.8,1.8-1.8h5.6c1,0,1.8,0.8,1.8,1.8v13.9
			C771.7,366,770.9,366.8,769.9,366.8z"/>
	</g>
	<g>
		<path class="st3" d="M786.3,330h-5.6c-1,0-1.8-0.8-1.8-1.8v-13.9c0-1,0.8-1.8,1.8-1.8h5.6c1,0,1.8,0.8,1.8,1.8v13.9
			C788.1,329.1,787.3,330,786.3,330z"/>
	</g>
	<g>
		<path class="st3" d="M802.9,330h-5.6c-1,0-1.8-0.8-1.8-1.8v-13.9c0-1,0.8-1.8,1.8-1.8h5.6c1,0,1.8,0.8,1.8,1.8v13.9
			C804.7,329.1,803.9,330,802.9,330z"/>
	</g>
	<g>
		<path class="st3" d="M786.3,366.8h-5.6c-1,0-1.8-0.8-1.8-1.8v-13.8c0-1,0.8-1.8,1.8-1.8h5.6c1,0,1.8,0.8,1.8,1.8v13.9
			C788.1,366,787.3,366.8,786.3,366.8z"/>
	</g>
	<g>
		<path class="st3" d="M802.9,366.8h-5.6c-1,0-1.8-0.8-1.8-1.8v-13.8c0-1,0.8-1.8,1.8-1.8h5.6c1,0,1.8,0.8,1.8,1.8v13.9
			C804.7,366,803.9,366.8,802.9,366.8z"/>
	</g>
	<path class="st4" d="M859.9,226.1h-45c-1.5,0-2.9-0.5-3.9-1.3l-32.3-28.3c-2.8-2.5-0.5-6.3,3.9-6.3h45c1.5,0,2.9,0.5,3.9,1.3
		l32.3,28.3C866.7,222.3,864.3,226.1,859.9,226.1z"/>
	<path class="st0" d="M827.3,206.8h-17.2c-0.6,0-1-0.5-1-1v-22.1h19.2v22.1C828.3,206.4,827.8,206.8,827.3,206.8z"/>
	<path class="st1" d="M827.2,206.8h-8.6v-23.1h9.6v22C828.3,206.3,827.8,206.8,827.2,206.8z"/>
	<path class="st0" d="M831.1,186.7h-24.7c-0.4,0-0.8-0.4-0.8-0.8v-4.3c0-0.4,0.4-0.8,0.8-0.8h24.7c0.4,0,0.8,0.4,0.8,0.8v4.3
		C831.8,186.3,831.5,186.7,831.1,186.7z"/>
	<path class="st1" d="M831,186.7h-12.3v-5.9H831c0.5,0,0.8,0.4,0.8,0.8v4.2C831.8,186.3,831.5,186.7,831,186.7z"/>
</g>
<g>
	<path class="st1" d="M454.4,386.6V222.9l27-29.1c1.9-2,4.4-1.9,6.2,0.4l20.9,26.1c1.3,1.6,2.1,4.2,2.1,6.9v150.7
		c0,4.8-2.3,8.7-5.3,8.7h-50.8H454.4z"/>
	<path class="st0" d="M398.4,379.3v-149c0-4,3.2-7.3,7.3-7.3h48.8v163.6h-48.8C401.6,386.6,398.3,383.3,398.4,379.3z"/>
	<g>
		<path class="st3" d="M438.3,255.8v-13.9c0-1,0.8-1.8,1.8-1.8h5.6c1,0,1.8,0.8,1.8,1.8v13.9c0,1-0.8,1.8-1.8,1.8h-5.6
			C439.1,257.6,438.3,257,438.3,255.8z"/>
	</g>
	<g>
		<path class="st3" d="M438.3,292.8v-13.9c0-1,0.8-1.8,1.8-1.8h5.6c1,0,1.8,0.8,1.8,1.8v13.9c0,1-0.8,1.8-1.8,1.8h-5.6
			C439.1,294.6,438.3,293.8,438.3,292.8z"/>
	</g>
	<g>
		<path class="st3" d="M421.9,255.8v-13.9c0-1,0.8-1.8,1.8-1.8h5.6c1,0,1.8,0.8,1.8,1.8v13.9c0,1-0.8,1.8-1.8,1.8h-5.6
			C422.7,257.6,421.9,256.8,421.9,255.8z"/>
	</g>
	<g>
		<path class="st3" d="M405.3,255.8v-13.9c0-1,0.8-1.8,1.8-1.8h5.6c1,0,1.8,0.8,1.8,1.8v13.9c0,1-0.8,1.8-1.8,1.8h-5.6
			C406.1,257.6,405.3,257,405.3,255.8z"/>
	</g>
	<g>
		<path class="st3" d="M421.9,292.8v-13.9c0-1,0.8-1.8,1.8-1.8h5.6c1,0,1.8,0.8,1.8,1.8v13.9c0,1-0.8,1.8-1.8,1.8h-5.6
			C422.7,294.6,421.9,293.8,421.9,292.8z"/>
	</g>
	<g>
		<path class="st3" d="M405.3,292.8v-13.9c0-1,0.8-1.8,1.8-1.8h5.6c1,0,1.8,0.8,1.8,1.8v13.9c0,1-0.8,1.8-1.8,1.8h-5.6
			C406.1,294.6,405.3,293.8,405.3,292.8z"/>
	</g>
	<g>
		<path class="st3" d="M438.3,328.3v-13.9c0-1,0.8-1.8,1.8-1.8h5.6c1,0,1.8,0.8,1.8,1.8v13.9c0,1-0.8,1.8-1.8,1.8h-5.6
			C439.1,330.1,438.3,329.2,438.3,328.3z"/>
	</g>
	<g>
		<path class="st3" d="M438.3,365.2v-13.9c0-1,0.8-1.8,1.8-1.8h5.6c1,0,1.8,0.8,1.8,1.8v13.9c0,1-0.8,1.8-1.8,1.8h-5.6
			C439.1,367,438.3,366.1,438.3,365.2z"/>
	</g>
	<g>
		<path class="st3" d="M421.9,328.3v-13.9c0-1,0.8-1.8,1.8-1.8h5.6c1,0,1.8,0.8,1.8,1.8v13.9c0,1-0.8,1.8-1.8,1.8h-5.6
			C422.7,330.1,421.9,329.2,421.9,328.3z"/>
	</g>
	<g>
		<path class="st3" d="M405.3,328.3v-13.9c0-1,0.8-1.8,1.8-1.8h5.6c1,0,1.8,0.8,1.8,1.8v13.9c0,1-0.8,1.8-1.8,1.8h-5.6
			C406.1,330.1,405.3,329.2,405.3,328.3z"/>
	</g>
	<g>
		<path class="st3" d="M421.9,365.2v-13.9c0-1,0.8-1.8,1.8-1.8h5.6c1,0,1.8,0.8,1.8,1.8v13.9c0,1-0.8,1.8-1.8,1.8h-5.6
			C422.7,367,421.9,366.1,421.9,365.2z"/>
	</g>
	<g>
		<path class="st3" d="M405.3,365.2v-13.9c0-1,0.8-1.8,1.8-1.8h5.6c1,0,1.8,0.8,1.8,1.8v13.9c0,1-0.8,1.8-1.8,1.8h-5.6
			C406.1,367,405.3,366.1,405.3,365.2z"/>
	</g>
	<g>
		<path class="st2" d="M494.5,255.8v-13.9c0-1,0.8-1.8,1.8-1.8h5.6c1,0,1.8,0.8,1.8,1.8v13.9c0,1-0.8,1.8-1.8,1.8h-5.6
			C495.3,257.6,494.5,257,494.5,255.8z"/>
	</g>
	<g>
		<path class="st2" d="M494.5,292.8v-13.9c0-1,0.8-1.8,1.8-1.8h5.6c1,0,1.8,0.8,1.8,1.8v13.9c0,1-0.8,1.8-1.8,1.8h-5.6
			C495.3,294.6,494.5,293.8,494.5,292.8z"/>
	</g>
	<g>
		<path class="st2" d="M478.1,255.8v-13.9c0-1,0.8-1.8,1.8-1.8h5.6c1,0,1.8,0.8,1.8,1.8v13.9c0,1-0.8,1.8-1.8,1.8h-5.6
			C478.9,257.6,478.1,256.8,478.1,255.8z"/>
	</g>
	<g>
		<path class="st2" d="M461.5,255.8v-13.9c0-1,0.8-1.8,1.8-1.8h5.6c1,0,1.8,0.8,1.8,1.8v13.9c0,1-0.8,1.8-1.8,1.8h-5.6
			C462.3,257.6,461.5,257,461.5,255.8z"/>
	</g>
	<g>
		<path class="st2" d="M478.1,292.8v-13.9c0-1,0.8-1.8,1.8-1.8h5.6c1,0,1.8,0.8,1.8,1.8v13.9c0,1-0.8,1.8-1.8,1.8h-5.6
			C478.9,294.6,478.1,293.8,478.1,292.8z"/>
	</g>
	<g>
		<path class="st2" d="M461.5,292.8v-13.9c0-1,0.8-1.8,1.8-1.8h5.6c1,0,1.8,0.8,1.8,1.8v13.9c0,1-0.8,1.8-1.8,1.8h-5.6
			C462.3,294.6,461.5,293.8,461.5,292.8z"/>
	</g>
	<g>
		<path class="st2" d="M494.5,328.3v-13.9c0-1,0.8-1.8,1.8-1.8h5.6c1,0,1.8,0.8,1.8,1.8v13.9c0,1-0.8,1.8-1.8,1.8h-5.6
			C495.3,330.1,494.5,329.2,494.5,328.3z"/>
	</g>
	<g>
		<path class="st2" d="M494.5,365.2v-13.9c0-1,0.8-1.8,1.8-1.8h5.6c1,0,1.8,0.8,1.8,1.8v13.9c0,1-0.8,1.8-1.8,1.8h-5.6
			C495.3,367,494.5,366.1,494.5,365.2z"/>
	</g>
	<g>
		<path class="st2" d="M478.1,328.3v-13.9c0-1,0.8-1.8,1.8-1.8h5.6c1,0,1.8,0.8,1.8,1.8v13.9c0,1-0.8,1.8-1.8,1.8h-5.6
			C478.9,330.1,478.1,329.2,478.1,328.3z"/>
	</g>
	<g>
		<path class="st2" d="M461.5,328.3v-13.9c0-1,0.8-1.8,1.8-1.8h5.6c1,0,1.8,0.8,1.8,1.8v13.9c0,1-0.8,1.8-1.8,1.8h-5.6
			C462.3,330.1,461.5,329.2,461.5,328.3z"/>
	</g>
	<g>
		<path class="st2" d="M478.1,365.2v-13.9c0-1,0.8-1.8,1.8-1.8h5.6c1,0,1.8,0.8,1.8,1.8v13.9c0,1-0.8,1.8-1.8,1.8h-5.6
			C478.9,367,478.1,366.1,478.1,365.2z"/>
	</g>
	<g>
		<path class="st2" d="M461.5,365.2v-13.9c0-1,0.8-1.8,1.8-1.8h5.6c1,0,1.8,0.8,1.8,1.8v13.9c0,1-0.8,1.8-1.8,1.8h-5.6
			C462.3,367,461.5,366.1,461.5,365.2z"/>
	</g>
	<path class="st8" d="M401.8,219.3l32.9-27.7c1-0.8,2.4-1.3,3.9-1.3h45c4.4,0,6.7,3.8,3.9,6.3l-32.3,28.3c-1,0.8-2.4,1.3-3.9,1.3
		l-45.6-0.6C401.3,225.6,398.9,221.8,401.8,219.3z"/>
	<path class="st0" d="M456,206.9h-17.2c-0.6,0-1-0.5-1-1v-22.1H457v22.1C457,206.5,456.5,206.9,456,206.9z"/>
	<path class="st1" d="M455.9,206.9h-8.6v-23.1h9.6v22C457,206.4,456.5,206.9,455.9,206.9z"/>
	<path class="st0" d="M459.8,186.8h-24.7c-0.4,0-0.8-0.4-0.8-0.8v-4.3c0-0.4,0.4-0.8,0.8-0.8h24.7c0.4,0,0.8,0.4,0.8,0.8v4.3
		C460.5,186.4,460.2,186.8,459.8,186.8z"/>
	<path class="st1" d="M459.7,186.8h-12.3v-5.9h12.3c0.5,0,0.8,0.4,0.8,0.8v4.2C460.5,186.4,460.2,186.8,459.7,186.8z"/>
</g>
<g>
	<path class="st0" d="M305.8,376.8V-13.9c0-1.4,1.1-2.6,2.6-2.6h29.4v396h-29.4C307,379.5,305.8,378.3,305.8,376.8z"/>
	<path class="st1" d="M338.5-17.1c-0.3,0.4-0.5,0.9-0.5,1.4v395.2h35.8c1.2,0,2.2-1,2.2-2.2v-393c0-0.5-0.2-1-0.5-1.4l-9-11
		l-7.9-9.6c-0.8-1-2.3-1.1-3.1-0.1l-7.9,9.7L338.5-17.1z"/>
	<g>
		<path class="st2" d="M358.9,13V-0.9c0-1,0.8-1.8,1.8-1.8h5.6c1,0,1.8,0.8,1.8,1.8V13c0,1-0.8,1.8-1.8,1.8h-5.6
			C359.7,14.8,358.9,14,358.9,13z"/>
	</g>
	<g>
		<path class="st2" d="M342.3,13V-0.9c0-1,0.8-1.8,1.8-1.8h5.6c1,0,1.8,0.8,1.8,1.8V13c0,1-0.8,1.8-1.8,1.8h-5.6
			C343.1,14.8,342.3,14,342.3,13z"/>
	</g>
	<g>
		<path class="st2" d="M358.9,50V36.1c0-1,0.8-1.8,1.8-1.8h5.6c1,0,1.8,0.8,1.8,1.8V50c0,1-0.8,1.8-1.8,1.8h-5.6
			C359.7,51.8,358.9,51,358.9,50z"/>
	</g>
	<g>
		<path class="st2" d="M342.3,50V36.1c0-1,0.8-1.8,1.8-1.8h5.6c1,0,1.8,0.8,1.8,1.8V50c0,1-0.8,1.8-1.8,1.8h-5.6
			C343.1,51.8,342.3,51,342.3,50z"/>
	</g>
	<g>
		<path class="st2" d="M358.9,86V72.1c0-1,0.8-1.8,1.8-1.8h5.6c1,0,1.8,0.8,1.8,1.8V86c0,1-0.8,1.8-1.8,1.8h-5.6
			C359.7,87.8,358.9,87,358.9,86z"/>
	</g>
	<g>
		<path class="st2" d="M342.3,85.9V72c0-1,0.8-1.8,1.8-1.8h5.6c1,0,1.8,0.8,1.8,1.8v13.9c0,1-0.8,1.8-1.8,1.8h-5.6
			C343.1,87.7,342.3,86.9,342.3,85.9z"/>
	</g>
	<g>
		<path class="st2" d="M358.9,122.9V109c0-1,0.8-1.8,1.8-1.8h5.6c1,0,1.8,0.8,1.8,1.8v13.9c0,1-0.8,1.8-1.8,1.8h-5.6
			C359.7,124.7,358.9,123.9,358.9,122.9z"/>
	</g>
	<g>
		<path class="st2" d="M342.3,122.8v-13.9c0-1,0.8-1.8,1.8-1.8h5.6c1,0,1.8,0.8,1.8,1.8v13.9c0,1-0.8,1.8-1.8,1.8h-5.6
			C343.1,124.6,342.3,123.8,342.3,122.8z"/>
	</g>
	<g>
		<path class="st2" d="M358.9,159.6v-13.5c0-1,0.8-1.8,1.8-1.8h5.5c1,0,1.8,0.8,1.8,1.8v13.5c0,1-0.8,1.8-1.8,1.8h-5.5
			C359.7,161.4,358.9,160.6,358.9,159.6z"/>
	</g>
	<g>
		<path class="st2" d="M342.3,159.9V146c0-1,0.8-1.8,1.8-1.8h5.6c1,0,1.8,0.8,1.8,1.8v13.9c0,1-0.8,1.8-1.8,1.8h-5.6
			C343.1,161.7,342.3,161,342.3,159.9z"/>
	</g>
	<g>
		<path class="st2" d="M358.9,197.5V184c0-1,0.8-1.8,1.8-1.8h5.5c1,0,1.8,0.8,1.8,1.8v13.5c0,1-0.8,1.8-1.8,1.8h-5.5
			C359.7,199.3,358.9,198.5,358.9,197.5z"/>
	</g>
	<g>
		<path class="st2" d="M342.3,197.9V184c0-1,0.8-1.8,1.8-1.8h5.6c1,0,1.8,0.8,1.8,1.8v13.9c0,1-0.8,1.8-1.8,1.8h-5.6
			C343.1,199.7,342.3,198.9,342.3,197.9z"/>
	</g>
	<g>
		<path class="st2" d="M358.9,236v-13.9c0-1,0.8-1.8,1.8-1.8h5.6c1,0,1.8,0.8,1.8,1.8V236c0,1-0.8,1.8-1.8,1.8h-5.6
			C359.7,237.8,358.9,237,358.9,236z"/>
	</g>
	<g>
		<path class="st2" d="M342.3,235.5V222c0-1,0.8-1.8,1.8-1.8h5.5c1,0,1.8,0.8,1.8,1.8v13.5c0,1-0.8,1.8-1.8,1.8h-5.5
			C343.1,237.3,342.3,236.5,342.3,235.5z"/>
	</g>
	<g>
		<path class="st2" d="M358.9,274v-13.9c0-1,0.8-1.8,1.8-1.8h5.6c1,0,1.8,0.8,1.8,1.8V274c0,1-0.8,1.8-1.8,1.8h-5.6
			C359.7,275.8,358.9,275,358.9,274z"/>
	</g>
	<g>
		<path class="st2" d="M342.3,273.4v-13.5c0-1,0.8-1.8,1.8-1.8h5.5c1,0,1.8,0.8,1.8,1.8v13.5c0,1-0.8,1.8-1.8,1.8h-5.5
			C343.1,275.2,342.3,274.4,342.3,273.4z"/>
	</g>
	<g>
		<path class="st2" d="M358.9,310.3v-14c0-1,0.8-1.8,1.8-1.8h5.6c1,0,1.8,0.8,1.8,1.8v13.9c0,1-0.8,1.8-1.8,1.8h-5.6
			C359.7,312,358.9,311.2,358.9,310.3z"/>
	</g>
	<g>
		<path class="st2" d="M342.3,310.7v-14.5c0-1,0.8-1.8,1.8-1.8h5.5c1,0,1.8,0.8,1.8,1.8v14.5c0,1-0.8,1.8-1.8,1.8h-5.5
			C343.1,312.5,342.3,311.7,342.3,310.7z"/>
	</g>
	<g>
		<path class="st2" d="M358.9,347.2v-13.9c0-1,0.8-1.8,1.8-1.8h5.6c1,0,1.8,0.8,1.8,1.8v13.9c0,1-0.8,1.8-1.8,1.8h-5.6
			C359.7,349,358.9,348.2,358.9,347.2z"/>
	</g>
	<g>
		<path class="st2" d="M342.3,347.1v-13.9c0-1,0.8-1.8,1.8-1.8h5.6c1,0,1.8,0.8,1.8,1.8v13.9c0,1-0.8,1.8-1.8,1.8h-5.6
			C343.1,348.9,342.3,348.1,342.3,347.1z"/>
	</g>
	<g>
		<path class="st3" d="M325.9,13V-0.9c0-1,0.8-1.8,1.8-1.8h5.6c1,0,1.8,0.8,1.8,1.8V13c0,1-0.8,1.8-1.8,1.8h-5.6
			C326.7,14.8,325.9,14,325.9,13z"/>
	</g>
	<g>
		<path class="st3" d="M309.3,13V-0.9c0-1,0.8-1.8,1.8-1.8h5.6c1,0,1.8,0.8,1.8,1.8V13c0,1-0.8,1.8-1.8,1.8h-5.6
			C310.1,14.8,309.3,14,309.3,13z"/>
	</g>
	<g>
		<path class="st3" d="M325.9,50V36.1c0-1,0.8-1.8,1.8-1.8h5.6c1,0,1.8,0.8,1.8,1.8V50c0,1-0.8,1.8-1.8,1.8h-5.6
			C326.7,51.8,325.9,51,325.9,50z"/>
	</g>
	<g>
		<path class="st3" d="M309.3,50V36.1c0-1,0.8-1.8,1.8-1.8h5.6c1,0,1.8,0.8,1.8,1.8V50c0,1-0.8,1.8-1.8,1.8h-5.6
			C310.1,51.8,309.3,51,309.3,50z"/>
	</g>
	<g>
		<path class="st3" d="M325.9,86V72.1c0-1,0.8-1.8,1.8-1.8h5.6c1,0,1.8,0.8,1.8,1.8V86c0,1-0.8,1.8-1.8,1.8h-5.6
			C326.7,87.8,325.9,87,325.9,86z"/>
	</g>
	<g>
		<path class="st3" d="M309.3,85.9V72c0-1,0.8-1.8,1.8-1.8h5.6c1,0,1.8,0.8,1.8,1.8v13.9c0,1-0.8,1.8-1.8,1.8h-5.6
			C310.1,87.7,309.3,86.9,309.3,85.9z"/>
	</g>
	<g>
		<path class="st3" d="M325.9,122.9V109c0-1,0.8-1.8,1.8-1.8h5.6c1,0,1.8,0.8,1.8,1.8v13.9c0,1-0.8,1.8-1.8,1.8h-5.6
			C326.7,124.7,325.9,123.9,325.9,122.9z"/>
	</g>
	<g>
		<path class="st3" d="M309.3,122.8v-13.9c0-1,0.8-1.8,1.8-1.8h5.6c1,0,1.8,0.8,1.8,1.8v13.9c0,1-0.8,1.8-1.8,1.8h-5.6
			C310.1,124.6,309.3,123.8,309.3,122.8z"/>
	</g>
	<g>
		<path class="st3" d="M325.9,159.6v-13.5c0-1,0.8-1.8,1.8-1.8h5.5c1,0,1.8,0.8,1.8,1.8v13.5c0,1-0.8,1.8-1.8,1.8h-5.5
			C326.7,161.4,325.9,160.6,325.9,159.6z"/>
	</g>
	<g>
		<path class="st3" d="M309.3,159.9V146c0-1,0.8-1.8,1.8-1.8h5.6c1,0,1.8,0.8,1.8,1.8v13.9c0,1-0.8,1.8-1.8,1.8h-5.6
			C310.1,161.7,309.3,161,309.3,159.9z"/>
	</g>
	<g>
		<path class="st3" d="M325.9,197.5V184c0-1,0.8-1.8,1.8-1.8h5.5c1,0,1.8,0.8,1.8,1.8v13.5c0,1-0.8,1.8-1.8,1.8h-5.5
			C326.7,199.3,325.9,198.5,325.9,197.5z"/>
	</g>
	<g>
		<path class="st3" d="M309.3,197.9V184c0-1,0.8-1.8,1.8-1.8h5.6c1,0,1.8,0.8,1.8,1.8v13.9c0,1-0.8,1.8-1.8,1.8h-5.6
			C310.1,199.7,309.3,198.9,309.3,197.9z"/>
	</g>
	<g>
		<path class="st3" d="M325.9,236v-13.9c0-1,0.8-1.8,1.8-1.8h5.6c1,0,1.8,0.8,1.8,1.8V236c0,1-0.8,1.8-1.8,1.8h-5.6
			C326.7,237.8,325.9,237,325.9,236z"/>
	</g>
	<g>
		<path class="st3" d="M309.3,235.5V222c0-1,0.8-1.8,1.8-1.8h5.5c1,0,1.8,0.8,1.8,1.8v13.5c0,1-0.8,1.8-1.8,1.8h-5.5
			C310.1,237.3,309.3,236.5,309.3,235.5z"/>
	</g>
	<g>
		<path class="st3" d="M325.9,274v-13.9c0-1,0.8-1.8,1.8-1.8h5.6c1,0,1.8,0.8,1.8,1.8V274c0,1-0.8,1.8-1.8,1.8h-5.6
			C326.7,275.8,325.9,275,325.9,274z"/>
	</g>
	<g>
		<path class="st3" d="M309.3,273.4v-13.5c0-1,0.8-1.8,1.8-1.8h5.5c1,0,1.8,0.8,1.8,1.8v13.5c0,1-0.8,1.8-1.8,1.8h-5.5
			C310.1,275.2,309.3,274.4,309.3,273.4z"/>
	</g>
	<g>
		<path class="st3" d="M325.9,310.3v-14c0-1,0.8-1.8,1.8-1.8h5.6c1,0,1.8,0.8,1.8,1.8v13.9c0,1-0.8,1.8-1.8,1.8h-5.6
			C326.7,312,325.9,311.2,325.9,310.3z"/>
	</g>
	<g>
		<path class="st3" d="M309.3,310.7v-14.5c0-1,0.8-1.8,1.8-1.8h5.5c1,0,1.8,0.8,1.8,1.8v14.5c0,1-0.8,1.8-1.8,1.8h-5.5
			C310.1,312.5,309.3,311.7,309.3,310.7z"/>
	</g>
	<g>
		<path class="st3" d="M325.9,347.2v-13.9c0-1,0.8-1.8,1.8-1.8h5.6c1,0,1.8,0.8,1.8,1.8v13.9c0,1-0.8,1.8-1.8,1.8h-5.6
			C326.7,349,325.9,348.2,325.9,347.2z"/>
	</g>
	<g>
		<path class="st3" d="M309.3,347.1v-13.9c0-1,0.8-1.8,1.8-1.8h5.6c1,0,1.8,0.8,1.8,1.8v13.9c0,1-0.8,1.8-1.8,1.8h-5.6
			C310.1,348.9,309.3,348.1,309.3,347.1z"/>
	</g>
	<path class="st4" d="M306.9-17.4l19.2-21c0.6-0.6,1.4-1,2.3-1h26.8c2.6,0,4,2.9,2.3,4.7l-19.2,21c-0.6,0.6-1.4,1-2.3,1h-26.7
		C306.7-12.7,305.3-15.5,306.9-17.4z"/>
	<g>
		<path class="st0" d="M339.2-32.5h-7.8c-0.6,0-1-0.5-1-1v-10.8h9.9v10.9C340.2-32.9,339.8-32.5,339.2-32.5z"/>
		<path class="st1" d="M339.2-32.5h-3.9v-11.8h4.9v10.8C340.2-32.9,339.8-32.5,339.2-32.5z"/>
		<path class="st0" d="M341.2-44.3h-11.9c-0.4,0-0.8-0.4-0.8-0.8v-1.5c0-0.4,0.4-0.8,0.8-0.8h11.9c0.4,0,0.8,0.4,0.8,0.8v1.5
			C342-44.7,341.7-44.3,341.2-44.3z"/>
		<path class="st1" d="M341.2-44.3h-5.9v-3h5.9c0.5,0,0.8,0.4,0.8,0.8v1.4C342-44.7,341.7-44.3,341.2-44.3z"/>
	</g>
</g>
<g>
	<line class="st9" x1="228.2" y1="401.2" x2="227" y2="496.2"/>
	<circle class="st10" cx="218.5" cy="393" r="19.2"/>
	<circle class="st10" cx="239.6" cy="376.9" r="11.9"/>
	<circle class="st10" cx="215.3" cy="428.5" r="8.8"/>
	<circle class="st10" cx="247.7" cy="399.2" r="14.1"/>
	<line class="st9" x1="227.5" y1="442.5" x2="215.2" y2="429.9"/>
	<line class="st9" x1="229.9" y1="424.7" x2="247.4" y2="408"/>
</g>
<g>
	<line class="st9" x1="491.8" y1="393.2" x2="491.8" y2="488.2"/>
	<circle class="st10" cx="482" cy="386.2" r="19.2"/>
	<circle class="st10" cx="503" cy="369.7" r="11.9"/>
	<circle class="st10" cx="479.3" cy="420.7" r="8.8"/>
	<circle class="st10" cx="511.3" cy="391" r="14.1"/>
	<line class="st9" x1="491.6" y1="434.5" x2="479.2" y2="422.1"/>
	<line class="st9" x1="493.8" y1="416.7" x2="511.1" y2="399.8"/>
</g>
<g>
	<line class="st9" x1="641.8" y1="389.2" x2="641.8" y2="449.2"/>
	<line class="st9" x1="641.8" y1="401.5" x2="652.9" y2="391.6"/>
	<circle class="st10" cx="634.9" cy="382.8" r="12.7"/>
	<circle class="st10" cx="654.4" cy="386" r="9.4"/>
	<circle class="st10" cx="654.5" cy="405.6" r="5.9"/>
	<line class="st9" x1="641.8" y1="413.5" x2="652" y2="407.1"/>
</g>
<g>
	<line class="st9" x1="909.4" y1="379" x2="909.4" y2="439"/>
	<line class="st9" x1="909.4" y1="391.3" x2="920.5" y2="381.4"/>
	<circle class="st10" cx="902.5" cy="372.6" r="12.7"/>
	<circle class="st10" cx="922" cy="375.8" r="9.4"/>
	<circle class="st10" cx="922.1" cy="395.4" r="5.9"/>
	<line class="st9" x1="909.4" y1="403.3" x2="919.6" y2="396.9"/>
</g>
<g>
	<line class="st9" x1="1143.8" y1="388.2" x2="1143.8" y2="472.2"/>
	<circle class="st10" cx="1134.8" cy="381.9" r="17"/>
	<circle class="st10" cx="1153.3" cy="367.4" r="10.5"/>
	<circle class="st10" cx="1132.4" cy="412.4" r="7.8"/>
	<circle class="st10" cx="1160.7" cy="386.1" r="12.5"/>
	<line class="st9" x1="1143.3" y1="424.7" x2="1132.3" y2="413.7"/>
	<line class="st9" x1="1145.2" y1="408.9" x2="1160.5" y2="394"/>
</g>
<g>
	<line class="st9" x1="385.8" y1="383.2" x2="385.8" y2="443.2"/>
	<line class="st9" x1="385.8" y1="395.5" x2="396.9" y2="385.6"/>
	<circle class="st10" cx="378.9" cy="376.8" r="12.7"/>
	<circle class="st10" cx="398.4" cy="380" r="9.4"/>
	<circle class="st10" cx="398.5" cy="399.6" r="5.9"/>
	<line class="st9" x1="385.8" y1="407.5" x2="396" y2="401.1"/>
</g>
</svg>
