<?xml version="1.0" encoding="utf-8"?>
<!-- Generator: Adobe Illustrator 19.1.0, SVG Export Plug-In . SVG Version: 6.00 Build 0)  -->
<svg version="1.1" id="Layer_1" xmlns="http://www.w3.org/2000/svg" xmlns:xlink="http://www.w3.org/1999/xlink" x="0px" y="0px"
	 viewBox="91 309.1 1024 574.4" style="enable-background:new 91 309.1 1024 574.4;" xml:space="preserve">
<style type="text/css">
	.st0{fill:#1C88A5;}
	.st1{display:none;}
	.st2{fill:#1B7989;}
	.st3{fill:none;stroke:#D89261;stroke-width:20;stroke-linecap:round;stroke-miterlimit:10;}
	.st4{fill:#18717A;}
	.st5{fill:#D89261;}
	.st6{fill:#4ACCC2;}
	.st7{fill:#5B463B;}
	.st8{fill:none;stroke:#31AA9B;stroke-width:6;stroke-linecap:round;stroke-miterlimit:10;}
	.st9{fill:#31AA9B;}
</style>
<rect x="858.5" y="355.1" class="st0" width="40.7" height="390.1"/>
<rect x="566.5" y="351.8" class="st0" width="100.1" height="390.1"/>
<g id="Layer_2" class="st1">
</g>
<g id="Layer_3">
	<rect x="91" y="734.5" class="st2" width="1024" height="149"/>
</g>
<g id="globen">
</g>
<g id="roads">
	<path class="st3" d="M803.8,744.3c0,31.9-30.2,57.7-67.5,57.7h-18.1c-0.8,0-1.5,0-2.3,0c-44,1.3-42.5,57.8,1.5,58l291.1-0.9
		c9.9,0,18-6.9,18-15.4V738.2"/>
	<path class="st3" d="M111.7,749.7l41.6,41.6c22.1,22.1,57.9,22.1,80,0l43.1-43.1"/>
</g>
<g id="houses_back">
</g>
<g id="houses_front">
	<g>
		<g>
			<path class="st0" d="M504.1,738.8h-39.4c-2.3,0-4.1-3-4.1-6.7V615.3c0-2.1,0.6-4.1,1.6-5.3l16.2-20.2c1.4-1.8,3.3-1.9,4.8-0.3
				l20.9,22.5V738.8z"/>
			<path class="st2" d="M540.3,738.8h-36.2V612h36.2c4.1,0,7.3,3.3,7.3,7.3v112.1C547.6,735.5,544.3,738.8,540.3,738.8z"/>
			<g>
				<path class="st4" d="M514.8,638.9h-3.6c-1,0-1.8-0.8-1.8-1.8v-10c0-1,0.8-1.8,1.8-1.8h3.6c1,0,1.8,0.8,1.8,1.8v10
					C516.6,638.1,515.8,638.9,514.8,638.9z"/>
			</g>
			<g>
				<path class="st4" d="M514.8,667.5h-3.6c-1,0-1.8-0.8-1.8-1.8v-10c0-1,0.8-1.8,1.8-1.8h3.6c1,0,1.8,0.8,1.8,1.8v10
					C516.6,666.7,515.8,667.5,514.8,667.5z"/>
			</g>
			<g>
				<path class="st4" d="M527.5,638.9H524c-1,0-1.8-0.8-1.8-1.8v-10c0-1,0.8-1.8,1.8-1.8h3.6c1,0,1.8,0.8,1.8,1.8v10
					C529.3,638.1,528.5,638.9,527.5,638.9z"/>
			</g>
			<g>
				<path class="st4" d="M540.4,638.9h-3.6c-1,0-1.8-0.8-1.8-1.8v-10c0-1,0.8-1.8,1.8-1.8h3.6c1,0,1.8,0.8,1.8,1.8v10
					C542.2,638.1,541.4,638.9,540.4,638.9z"/>
			</g>
			<g>
				<path class="st4" d="M527.5,667.5H524c-1,0-1.8-0.8-1.8-1.8v-10c0-1,0.8-1.8,1.8-1.8h3.6c1,0,1.8,0.8,1.8,1.8v10
					C529.3,666.7,528.5,667.5,527.5,667.5z"/>
			</g>
			<g>
				<path class="st4" d="M540.4,667.5h-3.6c-1,0-1.8-0.8-1.8-1.8v-10c0-1,0.8-1.8,1.8-1.8h3.6c1,0,1.8,0.8,1.8,1.8v10
					C542.2,666.7,541.4,667.5,540.4,667.5z"/>
			</g>
			<g>
				<path class="st4" d="M514.8,694.9h-3.6c-1,0-1.8-0.8-1.8-1.8v-10c0-1,0.8-1.8,1.8-1.8h3.6c1,0,1.8,0.8,1.8,1.8v10
					C516.6,694.1,515.8,694.9,514.8,694.9z"/>
			</g>
			<g>
				<path class="st4" d="M514.8,723.6h-3.6c-1,0-1.8-0.8-1.8-1.8v-10c0-1,0.8-1.8,1.8-1.8h3.6c1,0,1.8,0.8,1.8,1.8v10
					C516.6,722.8,515.8,723.6,514.8,723.6z"/>
			</g>
			<g>
				<path class="st4" d="M527.5,694.9H524c-1,0-1.8-0.8-1.8-1.8v-10c0-1,0.8-1.8,1.8-1.8h3.6c1,0,1.8,0.8,1.8,1.8v10
					C529.3,694.1,528.5,694.9,527.5,694.9z"/>
			</g>
			<g>
				<path class="st4" d="M540.4,694.9h-3.6c-1,0-1.8-0.8-1.8-1.8v-10c0-1,0.8-1.8,1.8-1.8h3.6c1,0,1.8,0.8,1.8,1.8v10
					C542.2,694.1,541.4,694.9,540.4,694.9z"/>
			</g>
			<g>
				<path class="st4" d="M527.5,723.6H524c-1,0-1.8-0.8-1.8-1.8v-10c0-1,0.8-1.8,1.8-1.8h3.6c1,0,1.8,0.8,1.8,1.8v10
					C529.3,722.8,528.5,723.6,527.5,723.6z"/>
			</g>
			<g>
				<path class="st4" d="M540.4,723.6h-3.6c-1,0-1.8-0.8-1.8-1.8v-10c0-1,0.8-1.8,1.8-1.8h3.6c1,0,1.8,0.8,1.8,1.8v10
					C542.2,722.8,541.4,723.6,540.4,723.6z"/>
			</g>
			<g>
				<path class="st4" d="M471.3,638.9h-3.6c-1,0-1.8-0.8-1.8-1.8v-10c0-1,0.8-1.8,1.8-1.8h3.6c1,0,1.8,0.8,1.8,1.8v10
					C473.1,638.1,472.3,638.9,471.3,638.9z"/>
			</g>
			<g>
				<path class="st4" d="M471.3,667.5h-3.6c-1,0-1.8-0.8-1.8-1.8v-10c0-1,0.8-1.8,1.8-1.8h3.6c1,0,1.8,0.8,1.8,1.8v10
					C473.1,666.7,472.3,667.5,471.3,667.5z"/>
			</g>
			<g>
				<path class="st4" d="M484,638.9h-3.6c-1,0-1.8-0.8-1.8-1.8v-10c0-1,0.8-1.8,1.8-1.8h3.6c1,0,1.8,0.8,1.8,1.8v10
					C485.8,638.1,485,638.9,484,638.9z"/>
			</g>
			<g>
				<path class="st4" d="M496.9,638.9h-3.6c-1,0-1.8-0.8-1.8-1.8v-10c0-1,0.8-1.8,1.8-1.8h3.6c1,0,1.8,0.8,1.8,1.8v10
					C498.6,638.1,497.9,638.9,496.9,638.9z"/>
			</g>
			<g>
				<path class="st4" d="M484,667.5h-3.6c-1,0-1.8-0.8-1.8-1.8v-10c0-1,0.8-1.8,1.8-1.8h3.6c1,0,1.8,0.8,1.8,1.8v10
					C485.8,666.7,485,667.5,484,667.5z"/>
			</g>
			<g>
				<path class="st4" d="M496.9,667.5h-3.6c-1,0-1.8-0.8-1.8-1.8v-10c0-1,0.8-1.8,1.8-1.8h3.6c1,0,1.8,0.8,1.8,1.8v10
					C498.6,666.7,497.9,667.5,496.9,667.5z"/>
			</g>
			<g>
				<path class="st4" d="M471.3,694.9h-3.6c-1,0-1.8-0.8-1.8-1.8v-10c0-1,0.8-1.8,1.8-1.8h3.6c1,0,1.8,0.8,1.8,1.8v10
					C473.1,694.1,472.3,694.9,471.3,694.9z"/>
			</g>
			<g>
				<path class="st4" d="M471.3,723.6h-3.6c-1,0-1.8-0.8-1.8-1.8v-10c0-1,0.8-1.8,1.8-1.8h3.6c1,0,1.8,0.8,1.8,1.8v10
					C473.1,722.8,472.3,723.6,471.3,723.6z"/>
			</g>
			<g>
				<path class="st4" d="M484,694.9h-3.6c-1,0-1.8-0.8-1.8-1.8v-10c0-1,0.8-1.8,1.8-1.8h3.6c1,0,1.8,0.8,1.8,1.8v10
					C485.8,694.1,485,694.9,484,694.9z"/>
			</g>
			<g>
				<path class="st4" d="M496.9,694.9h-3.6c-1,0-1.8-0.8-1.8-1.8v-10c0-1,0.8-1.8,1.8-1.8h3.6c1,0,1.8,0.8,1.8,1.8v10
					C498.6,694.1,497.9,694.9,496.9,694.9z"/>
			</g>
			<g>
				<path class="st4" d="M484,723.6h-3.6c-1,0-1.8-0.8-1.8-1.8v-10c0-1,0.8-1.8,1.8-1.8h3.6c1,0,1.8,0.8,1.8,1.8v10
					C485.8,722.8,485,723.6,484,723.6z"/>
			</g>
			<g>
				<path class="st4" d="M496.9,723.6h-3.6c-1,0-1.8-0.8-1.8-1.8v-10c0-1,0.8-1.8,1.8-1.8h3.6c1,0,1.8,0.8,1.8,1.8v10
					C498.6,722.8,497.9,723.6,496.9,723.6z"/>
			</g>
			<path class="st5" d="M541.4,614.5h-34.9c-1.2,0-2.3-0.4-3-1l-25-21.9c-2.2-1.9-0.4-4.9,3-4.9h34.9c1.2,0,2.3,0.4,3,1l25,21.9
				C546.7,611.6,544.8,614.5,541.4,614.5z"/>
		</g>
		<path class="st2" d="M504.1,738.8h-36.6c-3.8,0-6.9-3.1-6.9-6.9v-4h43.5V738.8z"/>
		<path class="st4" d="M504.1,738.8h36.6c3.8,0,6.9-3.1,6.9-6.9v-4h-43.5V738.8z"/>
		<path class="st0" d="M515.9,599.6H503c-0.6,0-1-0.5-1-1v-16.9h14.9v16.9C516.9,599.1,516.5,599.6,515.9,599.6z"/>
		<path class="st2" d="M515.9,599.6h-6.4v-17.9h7.4v16.8C516.9,599.1,516.5,599.6,515.9,599.6z"/>
		<path class="st0" d="M518.9,584h-18.8c-0.4,0-0.8-0.4-0.8-0.8v-3c0-0.4,0.4-0.8,0.8-0.8h18.8c0.4,0,0.8,0.4,0.8,0.8v3
			C519.7,583.6,519.3,584,518.9,584z"/>
		<path class="st2" d="M518.9,584h-9.3v-4.6h9.3c0.5,0,0.8,0.4,0.8,0.8v2.9C519.7,583.6,519.3,584,518.9,584z"/>
	</g>
	<g>
		<path class="st6" d="M1050.8,742.9h-38.3c-2.2,0-4-2.9-4-6.5V624c0-2,0.6-3.9,1.6-5.1l15.8-19.5c1.4-1.7,3.2-1.8,4.7-0.3
			l20.3,21.7L1050.8,742.9L1050.8,742.9z"/>
		<path class="st2" d="M1088,744.4h-37.2V621h35c4.1,0,7.3,3.3,7.3,7.3v110.9C1093.1,742.1,1090.8,744.4,1088,744.4z"/>
		<g>
			<path class="st4" d="M1061.2,647.2h-3.4c-1,0-1.8-0.8-1.8-1.8v-9.6c0-1,0.8-1.8,1.8-1.8h3.4c1,0,1.8,0.8,1.8,1.8v9.6
				C1063,646.4,1062.2,647.2,1061.2,647.2z"/>
		</g>
		<g>
			<path class="st4" d="M1061.2,675h-3.4c-1,0-1.8-0.8-1.8-1.8v-9.6c0-1,0.8-1.8,1.8-1.8h3.4c1,0,1.8,0.8,1.8,1.8v9.6
				C1063,674.3,1062.2,675,1061.2,675z"/>
		</g>
		<g>
			<path class="st4" d="M1073.6,647.2h-3.4c-1,0-1.8-0.8-1.8-1.8v-9.6c0-1,0.8-1.8,1.8-1.8h3.4c1,0,1.8,0.8,1.8,1.8v9.6
				C1075.3,646.4,1074.5,647.2,1073.6,647.2z"/>
		</g>
		<g>
			<path class="st4" d="M1086.1,647.2h-3.4c-1,0-1.8-0.8-1.8-1.8v-9.6c0-1,0.8-1.8,1.8-1.8h3.4c1,0,1.8,0.8,1.8,1.8v9.6
				C1087.8,646.4,1087,647.2,1086.1,647.2z"/>
		</g>
		<g>
			<path class="st4" d="M1073.6,675h-3.4c-1,0-1.8-0.8-1.8-1.8v-9.6c0-1,0.8-1.8,1.8-1.8h3.4c1,0,1.8,0.8,1.8,1.8v9.6
				C1075.3,674.2,1074.5,675,1073.6,675z"/>
		</g>
		<g>
			<path class="st4" d="M1086.1,675h-3.4c-1,0-1.8-0.8-1.8-1.8v-9.6c0-1,0.8-1.8,1.8-1.8h3.4c1,0,1.8,0.8,1.8,1.8v9.6
				C1087.8,674.3,1087,675,1086.1,675z"/>
		</g>
		<g>
			<path class="st4" d="M1061.2,701.7h-3.4c-1,0-1.8-0.8-1.8-1.8v-9.6c0-1,0.8-1.8,1.8-1.8h3.4c1,0,1.8,0.8,1.8,1.8v9.6
				C1063,700.9,1062.2,701.7,1061.2,701.7z"/>
		</g>
		<g>
			<path class="st4" d="M1061.2,729.6h-3.4c-1,0-1.8-0.8-1.8-1.8v-9.6c0-1,0.8-1.8,1.8-1.8h3.4c1,0,1.8,0.8,1.8,1.8v9.6
				C1063,728.8,1062.2,729.6,1061.2,729.6z"/>
		</g>
		<g>
			<path class="st4" d="M1073.6,701.7h-3.4c-1,0-1.8-0.8-1.8-1.8v-9.6c0-1,0.8-1.8,1.8-1.8h3.4c1,0,1.8,0.8,1.8,1.8v9.6
				C1075.3,700.9,1074.5,701.7,1073.6,701.7z"/>
		</g>
		<g>
			<path class="st4" d="M1086.1,701.7h-3.4c-1,0-1.8-0.8-1.8-1.8v-9.6c0-1,0.8-1.8,1.8-1.8h3.4c1,0,1.8,0.8,1.8,1.8v9.6
				C1087.8,700.9,1087,701.7,1086.1,701.7z"/>
		</g>
		<g>
			<path class="st4" d="M1073.6,729.6h-3.4c-1,0-1.8-0.8-1.8-1.8v-9.6c0-1,0.8-1.8,1.8-1.8h3.4c1,0,1.8,0.8,1.8,1.8v9.6
				C1075.3,728.8,1074.5,729.6,1073.6,729.6z"/>
		</g>
		<g>
			<path class="st4" d="M1086.1,729.6h-3.4c-1,0-1.8-0.8-1.8-1.8v-9.6c0-1,0.8-1.8,1.8-1.8h3.4c1,0,1.8,0.8,1.8,1.8v9.6
				C1087.8,728.8,1087,729.6,1086.1,729.6z"/>
		</g>
		<g>
			<path class="st4" d="M1018.8,647.2h-3.4c-1,0-1.8-0.8-1.8-1.8v-9.6c0-1,0.8-1.8,1.8-1.8h3.4c1,0,1.8,0.8,1.8,1.8v9.6
				C1020.6,646.4,1019.8,647.2,1018.8,647.2z"/>
		</g>
		<g>
			<path class="st4" d="M1018.8,675h-3.4c-1,0-1.8-0.8-1.8-1.8v-9.6c0-1,0.8-1.8,1.8-1.8h3.4c1,0,1.8,0.8,1.8,1.8v9.6
				C1020.6,674.3,1019.8,675,1018.8,675z"/>
		</g>
		<g>
			<path class="st4" d="M1031.2,647.2h-3.4c-1,0-1.8-0.8-1.8-1.8v-9.6c0-1,0.8-1.8,1.8-1.8h3.4c1,0,1.8,0.8,1.8,1.8v9.6
				C1033,646.4,1032.2,647.2,1031.2,647.2z"/>
		</g>
		<g>
			<path class="st4" d="M1043.7,647.2h-3.4c-1,0-1.8-0.8-1.8-1.8v-9.6c0-1,0.8-1.8,1.8-1.8h3.4c1,0,1.8,0.8,1.8,1.8v9.6
				C1045.5,646.4,1044.7,647.2,1043.7,647.2z"/>
		</g>
		<g>
			<path class="st4" d="M1031.2,675h-3.4c-1,0-1.8-0.8-1.8-1.8v-9.6c0-1,0.8-1.8,1.8-1.8h3.4c1,0,1.8,0.8,1.8,1.8v9.6
				C1033,674.2,1032.2,675,1031.2,675z"/>
		</g>
		<g>
			<path class="st4" d="M1043.7,675h-3.4c-1,0-1.8-0.8-1.8-1.8v-9.6c0-1,0.8-1.8,1.8-1.8h3.4c1,0,1.8,0.8,1.8,1.8v9.6
				C1045.5,674.3,1044.7,675,1043.7,675z"/>
		</g>
		<g>
			<path class="st4" d="M1018.8,701.7h-3.4c-1,0-1.8-0.8-1.8-1.8v-9.6c0-1,0.8-1.8,1.8-1.8h3.4c1,0,1.8,0.8,1.8,1.8v9.6
				C1020.6,700.9,1019.8,701.7,1018.8,701.7z"/>
		</g>
		<g>
			<path class="st4" d="M1018.8,729.6h-3.4c-1,0-1.8-0.8-1.8-1.8v-9.6c0-1,0.8-1.8,1.8-1.8h3.4c1,0,1.8,0.8,1.8,1.8v9.6
				C1020.6,728.8,1019.8,729.6,1018.8,729.6z"/>
		</g>
		<g>
			<path class="st4" d="M1031.2,701.7h-3.4c-1,0-1.8-0.8-1.8-1.8v-9.6c0-1,0.8-1.8,1.8-1.8h3.4c1,0,1.8,0.8,1.8,1.8v9.6
				C1033,700.9,1032.2,701.7,1031.2,701.7z"/>
		</g>
		<g>
			<path class="st4" d="M1043.7,701.7h-3.4c-1,0-1.8-0.8-1.8-1.8v-9.6c0-1,0.8-1.8,1.8-1.8h3.4c1,0,1.8,0.8,1.8,1.8v9.6
				C1045.5,700.9,1044.7,701.7,1043.7,701.7z"/>
		</g>
		<g>
			<path class="st4" d="M1031.2,729.6h-3.4c-1,0-1.8-0.8-1.8-1.8v-9.6c0-1,0.8-1.8,1.8-1.8h3.4c1,0,1.8,0.8,1.8,1.8v9.6
				C1033,728.8,1032.2,729.6,1031.2,729.6z"/>
		</g>
		<g>
			<path class="st4" d="M1043.7,729.6h-3.4c-1,0-1.8-0.8-1.8-1.8v-9.6c0-1,0.8-1.8,1.8-1.8h3.4c1,0,1.8,0.8,1.8,1.8v9.6
				C1045.5,728.8,1044.7,729.6,1043.7,729.6z"/>
		</g>
		<path class="st5" d="M1087.1,623.5h-33.9c-1.1,0-2.2-0.4-2.9-1l-24.4-21.4c-2.1-1.9-0.4-4.8,2.9-4.8h33.9c1.1,0,2.2,0.4,2.9,1
			l24.3,21.3C1092.2,620.6,1090.4,623.5,1087.1,623.5z"/>
		<path class="st2" d="M1050.8,744.4h-38.2c-2.3,0-4.2-1.9-4.2-4.2v-6.4h42.4V744.4z"/>
		<path class="st4" d="M1050.8,744.4h37.6c2.6,0,4.7-2.1,4.7-4.7v-5.9h-42.4v10.6H1050.8z"/>
		<path class="st6" d="M1062.3,608.9h-12.5c-0.6,0-1-0.5-1-1v-16.4h14.5v16.4C1063.3,608.5,1062.8,608.9,1062.3,608.9z"/>
		<path class="st2" d="M1062.2,608.9h-6.2v-17.4h7.2v16.4C1063.3,608.5,1062.8,608.9,1062.2,608.9z"/>
		<path class="st6" d="M1065.2,593.7H1047c-0.4,0-0.8-0.4-0.8-0.8v-2.8c0-0.4,0.4-0.8,0.8-0.8h18.2c0.4,0,0.8,0.4,0.8,0.8v2.9
			C1066,593.4,1065.6,593.7,1065.2,593.7z"/>
		<path class="st2" d="M1065.1,593.7h-9.1v-4.4h9.1c0.5,0,0.8,0.4,0.8,0.8v2.8C1066,593.4,1065.6,593.7,1065.1,593.7z"/>
	</g>
	<g>
		<path class="st2" d="M617,745.3h-29.4v-396H617c1.5,0,2.6,1.2,2.6,2.6v390.7C619.6,744.1,618.4,745.3,617,745.3z"/>
		<path class="st0" d="M577.9,337.7L570,328c-0.8-1-2.3-0.9-3.1,0.1l-7.9,9.6l-9,11c-0.3,0.4-0.5,0.9-0.5,1.4v393
			c0,1.2,1,2.2,2.2,2.2h35.8V350.1c0-0.5-0.2-1-0.5-1.4L577.9,337.7z"/>
		<g>
			<path class="st4" d="M564.7,380.6h-5.6c-1,0-1.8-0.8-1.8-1.8v-13.9c0-1,0.8-1.8,1.8-1.8h5.6c1,0,1.8,0.8,1.8,1.8v13.9
				C566.5,379.8,565.7,380.6,564.7,380.6z"/>
		</g>
		<g>
			<path class="st4" d="M581.4,380.6h-5.6c-1,0-1.8-0.8-1.8-1.8v-13.9c0-1,0.8-1.8,1.8-1.8h5.6c1,0,1.8,0.8,1.8,1.8v13.9
				C583.1,379.8,582.3,380.6,581.4,380.6z"/>
		</g>
		<g>
			<path class="st4" d="M564.7,417.5h-5.6c-1,0-1.8-0.8-1.8-1.8v-13.8c0-1,0.8-1.8,1.8-1.8h5.6c1,0,1.8,0.8,1.8,1.8v13.9
				C566.5,416.8,565.7,417.5,564.7,417.5z"/>
		</g>
		<g>
			<path class="st4" d="M581.4,417.6h-5.6c-1,0-1.8-0.8-1.8-1.8v-13.9c0-1,0.8-1.8,1.8-1.8h5.6c1,0,1.8,0.8,1.8,1.8v13.9
				C583.1,416.8,582.3,417.6,581.4,417.6z"/>
		</g>
		<g>
			<path class="st4" d="M564.7,453.6h-5.6c-1,0-1.8-0.8-1.8-1.8v-13.9c0-1,0.8-1.8,1.8-1.8h5.6c1,0,1.8,0.8,1.8,1.8v13.9
				C566.5,452.8,565.7,453.6,564.7,453.6z"/>
		</g>
		<g>
			<path class="st4" d="M581.4,453.5h-5.6c-1,0-1.8-0.8-1.8-1.8v-13.9c0-1,0.8-1.8,1.8-1.8h5.6c1,0,1.8,0.8,1.8,1.8v13.9
				C583.1,452.7,582.3,453.5,581.4,453.5z"/>
		</g>
		<g>
			<path class="st4" d="M564.7,490.5h-5.6c-1,0-1.8-0.8-1.8-1.8v-13.9c0-1,0.8-1.8,1.8-1.8h5.6c1,0,1.8,0.8,1.8,1.8v13.9
				C566.5,489.7,565.7,490.5,564.7,490.5z"/>
		</g>
		<g>
			<path class="st4" d="M581.4,490.4h-5.6c-1,0-1.8-0.8-1.8-1.8v-13.9c0-1,0.8-1.8,1.8-1.8h5.6c1,0,1.8,0.8,1.8,1.8v13.9
				C583.1,489.6,582.3,490.4,581.4,490.4z"/>
		</g>
		<g>
			<path class="st4" d="M564.7,527.2h-5.5c-1,0-1.8-0.8-1.8-1.8v-13.5c0-1,0.8-1.8,1.8-1.8h5.5c1,0,1.8,0.8,1.8,1.8v13.5
				C566.5,526.4,565.7,527.2,564.7,527.2z"/>
		</g>
		<g>
			<path class="st4" d="M581.4,527.5h-5.6c-1,0-1.8-0.8-1.8-1.8v-13.9c0-1,0.8-1.8,1.8-1.8h5.6c1,0,1.8,0.8,1.8,1.8v13.9
				C583.1,526.7,582.3,527.5,581.4,527.5z"/>
		</g>
		<g>
			<path class="st4" d="M564.7,565.1h-5.5c-1,0-1.8-0.8-1.8-1.8v-13.5c0-1,0.8-1.8,1.8-1.8h5.5c1,0,1.8,0.8,1.8,1.8v13.5
				C566.5,564.3,565.7,565.1,564.7,565.1z"/>
		</g>
		<g>
			<path class="st4" d="M581.4,565.5h-5.6c-1,0-1.8-0.8-1.8-1.8v-13.9c0-1,0.8-1.8,1.8-1.8h5.6c1,0,1.8,0.8,1.8,1.8v13.9
				C583.1,564.7,582.3,565.5,581.4,565.5z"/>
		</g>
		<g>
			<path class="st4" d="M564.7,603.6h-5.6c-1,0-1.8-0.8-1.8-1.8v-13.9c0-1,0.8-1.8,1.8-1.8h5.6c1,0,1.8,0.8,1.8,1.8v13.9
				C566.5,602.8,565.7,603.6,564.7,603.6z"/>
		</g>
		<g>
			<path class="st4" d="M581.4,603.1h-5.5c-1,0-1.8-0.8-1.8-1.8v-13.5c0-1,0.8-1.8,1.8-1.8h5.5c1,0,1.8,0.8,1.8,1.8v13.5
				C583.1,602.3,582.3,603.1,581.4,603.1z"/>
		</g>
		<g>
			<path class="st4" d="M564.7,641.5h-5.6c-1,0-1.8-0.8-1.8-1.8v-13.9c0-1,0.8-1.8,1.8-1.8h5.6c1,0,1.8,0.8,1.8,1.8v13.9
				C566.5,640.8,565.7,641.5,564.7,641.5z"/>
		</g>
		<g>
			<path class="st4" d="M581.4,641h-5.5c-1,0-1.8-0.8-1.8-1.8v-13.5c0-1,0.8-1.8,1.8-1.8h5.5c1,0,1.8,0.8,1.8,1.8v13.5
				C583.1,640.2,582.3,641,581.4,641z"/>
		</g>
		<g>
			<path class="st4" d="M564.7,677.8h-5.6c-1,0-1.8-0.8-1.8-1.8v-13.9c0-1,0.8-1.8,1.8-1.8h5.6c1,0,1.8,0.8,1.8,1.8V676
				C566.5,677,565.7,677.8,564.7,677.8z"/>
		</g>
		<g>
			<path class="st4" d="M581.4,678.3h-5.5c-1,0-1.8-0.8-1.8-1.8V662c0-1,0.8-1.8,1.8-1.8h5.5c1,0,1.8,0.8,1.8,1.8v14.5
				C583.1,677.5,582.3,678.3,581.4,678.3z"/>
		</g>
		<g>
			<path class="st4" d="M564.7,714.7h-5.6c-1,0-1.8-0.8-1.8-1.8v-13.8c0-1,0.8-1.8,1.8-1.8h5.6c1,0,1.8,0.8,1.8,1.8V713
				C566.5,714,565.7,714.7,564.7,714.7z"/>
		</g>
		<g>
			<path class="st4" d="M581.4,714.6h-5.6c-1,0-1.8-0.8-1.8-1.8v-13.9c0-1,0.8-1.8,1.8-1.8h5.6c1,0,1.8,0.8,1.8,1.8v13.9
				C583.1,713.9,582.3,714.6,581.4,714.6z"/>
		</g>
		<g>
			<path class="st4" d="M597.8,380.6h-5.6c-1,0-1.8-0.8-1.8-1.8v-13.9c0-1,0.8-1.8,1.8-1.8h5.6c1,0,1.8,0.8,1.8,1.8v13.9
				C599.5,379.8,598.7,380.6,597.8,380.6z"/>
		</g>
		<g>
			<path class="st4" d="M614.4,380.6h-5.6c-1,0-1.8-0.8-1.8-1.8v-13.9c0-1,0.8-1.8,1.8-1.8h5.6c1,0,1.8,0.8,1.8,1.8v13.9
				C616.1,379.8,615.3,380.6,614.4,380.6z"/>
		</g>
		<g>
			<path class="st4" d="M597.8,417.5h-5.6c-1,0-1.8-0.8-1.8-1.8v-13.8c0-1,0.8-1.8,1.8-1.8h5.6c1,0,1.8,0.8,1.8,1.8v13.9
				C599.5,416.8,598.7,417.5,597.8,417.5z"/>
		</g>
		<g>
			<path class="st4" d="M614.4,417.6h-5.6c-1,0-1.8-0.8-1.8-1.8v-13.9c0-1,0.8-1.8,1.8-1.8h5.6c1,0,1.8,0.8,1.8,1.8v13.9
				C616.1,416.8,615.3,417.6,614.4,417.6z"/>
		</g>
		<g>
			<path class="st4" d="M597.8,453.6h-5.6c-1,0-1.8-0.8-1.8-1.8v-13.9c0-1,0.8-1.8,1.8-1.8h5.6c1,0,1.8,0.8,1.8,1.8v13.9
				C599.5,452.8,598.7,453.6,597.8,453.6z"/>
		</g>
		<g>
			<path class="st4" d="M614.4,453.5h-5.6c-1,0-1.8-0.8-1.8-1.8v-13.9c0-1,0.8-1.8,1.8-1.8h5.6c1,0,1.8,0.8,1.8,1.8v13.9
				C616.1,452.7,615.3,453.5,614.4,453.5z"/>
		</g>
		<g>
			<path class="st4" d="M597.8,490.5h-5.6c-1,0-1.8-0.8-1.8-1.8v-13.9c0-1,0.8-1.8,1.8-1.8h5.6c1,0,1.8,0.8,1.8,1.8v13.9
				C599.5,489.7,598.7,490.5,597.8,490.5z"/>
		</g>
		<g>
			<path class="st4" d="M614.4,490.4h-5.6c-1,0-1.8-0.8-1.8-1.8v-13.9c0-1,0.8-1.8,1.8-1.8h5.6c1,0,1.8,0.8,1.8,1.8v13.9
				C616.1,489.6,615.3,490.4,614.4,490.4z"/>
		</g>
		<g>
			<path class="st4" d="M597.8,527.2h-5.5c-1,0-1.8-0.8-1.8-1.8v-13.5c0-1,0.8-1.8,1.8-1.8h5.5c1,0,1.8,0.8,1.8,1.8v13.5
				C599.5,526.4,598.7,527.2,597.8,527.2z"/>
		</g>
		<g>
			<path class="st4" d="M614.4,527.5h-5.6c-1,0-1.8-0.8-1.8-1.8v-13.9c0-1,0.8-1.8,1.8-1.8h5.6c1,0,1.8,0.8,1.8,1.8v13.9
				C616.1,526.7,615.3,527.5,614.4,527.5z"/>
		</g>
		<g>
			<path class="st4" d="M597.8,565.1h-5.5c-1,0-1.8-0.8-1.8-1.8v-13.5c0-1,0.8-1.8,1.8-1.8h5.5c1,0,1.8,0.8,1.8,1.8v13.5
				C599.5,564.3,598.7,565.1,597.8,565.1z"/>
		</g>
		<g>
			<path class="st4" d="M614.4,565.5h-5.6c-1,0-1.8-0.8-1.8-1.8v-13.9c0-1,0.8-1.8,1.8-1.8h5.6c1,0,1.8,0.8,1.8,1.8v13.9
				C616.1,564.7,615.3,565.5,614.4,565.5z"/>
		</g>
		<g>
			<path class="st4" d="M597.8,603.6h-5.6c-1,0-1.8-0.8-1.8-1.8v-13.9c0-1,0.8-1.8,1.8-1.8h5.6c1,0,1.8,0.8,1.8,1.8v13.9
				C599.5,602.8,598.7,603.6,597.8,603.6z"/>
		</g>
		<g>
			<path class="st4" d="M614.4,603.1h-5.5c-1,0-1.8-0.8-1.8-1.8v-13.5c0-1,0.8-1.8,1.8-1.8h5.5c1,0,1.8,0.8,1.8,1.8v13.5
				C616.1,602.3,615.3,603.1,614.4,603.1z"/>
		</g>
		<g>
			<path class="st4" d="M597.8,641.5h-5.6c-1,0-1.8-0.8-1.8-1.8v-13.9c0-1,0.8-1.8,1.8-1.8h5.6c1,0,1.8,0.8,1.8,1.8v13.9
				C599.5,640.8,598.7,641.5,597.8,641.5z"/>
		</g>
		<g>
			<path class="st4" d="M614.4,641h-5.5c-1,0-1.8-0.8-1.8-1.8v-13.5c0-1,0.8-1.8,1.8-1.8h5.5c1,0,1.8,0.8,1.8,1.8v13.5
				C616.1,640.2,615.3,641,614.4,641z"/>
		</g>
		<g>
			<path class="st4" d="M597.8,677.8h-5.6c-1,0-1.8-0.8-1.8-1.8v-13.9c0-1,0.8-1.8,1.8-1.8h5.6c1,0,1.8,0.8,1.8,1.8V676
				C599.5,677,598.7,677.8,597.8,677.8z"/>
		</g>
		<g>
			<path class="st4" d="M614.4,678.3h-5.5c-1,0-1.8-0.8-1.8-1.8V662c0-1,0.8-1.8,1.8-1.8h5.5c1,0,1.8,0.8,1.8,1.8v14.5
				C616.1,677.5,615.3,678.3,614.4,678.3z"/>
		</g>
		<g>
			<path class="st4" d="M597.8,714.7h-5.6c-1,0-1.8-0.8-1.8-1.8v-13.8c0-1,0.8-1.8,1.8-1.8h5.6c1,0,1.8,0.8,1.8,1.8V713
				C599.5,714,598.7,714.7,597.8,714.7z"/>
		</g>
		<g>
			<path class="st4" d="M614.4,714.6h-5.6c-1,0-1.8-0.8-1.8-1.8v-13.9c0-1,0.8-1.8,1.8-1.8h5.6c1,0,1.8,0.8,1.8,1.8v13.9
				C616.1,713.9,615.3,714.6,614.4,714.6z"/>
		</g>
		<path class="st7" d="M616.2,353.1h-26.8c-0.9,0-1.7-0.4-2.3-1l-19.2-21c-1.7-1.8-0.3-4.7,2.3-4.7H597c0.9,0,1.7,0.4,2.3,1l19.2,21
			C620.2,350.3,618.8,353.1,616.2,353.1z"/>
		<path class="st2" d="M588,745.3h-36.2c-1.2,0-2.2-1-2.2-2.2v-12.6H588V745.3z"/>
		<path class="st4" d="M587.6,745.3h29.9c1.2,0,2.2-1,2.2-2.2v-12.6h-32v14.8H587.6z"/>
		<path class="st0" d="M594.7,334.7h-7.8c-0.6,0-1-0.5-1-1v-10.9h9.9v10.9C595.8,334.3,595.3,334.7,594.7,334.7z"/>
		<path class="st2" d="M594.7,334.7h-3.9v-11.9h4.9v10.8C595.8,334.2,595.3,334.7,594.7,334.7z"/>
		<path class="st0" d="M596.8,322.8h-11.9c-0.4,0-0.8-0.4-0.8-0.8v-1.5c0-0.4,0.4-0.8,0.8-0.8h11.9c0.4,0,0.8,0.4,0.8,0.8v1.6
			C597.6,322.5,597.2,322.8,596.8,322.8z"/>
		<path class="st2" d="M596.7,322.8h-5.9v-3h5.9c0.5,0,0.8,0.4,0.8,0.8v1.4C597.6,322.5,597.2,322.8,596.7,322.8z"/>
	</g>
	<g>
		<path class="st2" d="M913.4,751.1H884v-396h29.4c1.5,0,2.6,1.2,2.6,2.6v390.7C916.1,750,914.9,751.1,913.4,751.1z"/>
		<path class="st0" d="M874.3,343.6l-7.9-9.7c-0.8-1-2.3-0.9-3.1,0.1l-7.9,9.6l-9,11c-0.3,0.4-0.5,0.9-0.5,1.4v393
			c0,1.2,1,2.2,2.2,2.2H884V356c0-0.5-0.2-1-0.5-1.4L874.3,343.6z"/>
		<g>
			<path class="st4" d="M861.2,386.5h-5.6c-1,0-1.8-0.8-1.8-1.8v-13.9c0-1,0.8-1.8,1.8-1.8h5.6c1,0,1.8,0.8,1.8,1.8v13.9
				C862.9,385.7,862.2,386.5,861.2,386.5z"/>
		</g>
		<g>
			<path class="st4" d="M877.8,386.5h-5.6c-1,0-1.8-0.8-1.8-1.8v-13.9c0-1,0.8-1.8,1.8-1.8h5.6c1,0,1.8,0.8,1.8,1.8v13.9
				C879.6,385.7,878.8,386.5,877.8,386.5z"/>
		</g>
		<g>
			<path class="st4" d="M861.2,423.4h-5.6c-1,0-1.8-0.8-1.8-1.8v-13.8c0-1,0.8-1.8,1.8-1.8h5.6c1,0,1.8,0.8,1.8,1.8v13.9
				C862.9,422.6,862.2,423.4,861.2,423.4z"/>
		</g>
		<g>
			<path class="st4" d="M877.8,423.4h-5.6c-1,0-1.8-0.8-1.8-1.8v-13.8c0-1,0.8-1.8,1.8-1.8h5.6c1,0,1.8,0.8,1.8,1.8v13.9
				C879.6,422.6,878.8,423.4,877.8,423.4z"/>
		</g>
		<g>
			<path class="st4" d="M861.2,459.5h-5.6c-1,0-1.8-0.8-1.8-1.8v-13.9c0-1,0.8-1.8,1.8-1.8h5.6c1,0,1.8,0.8,1.8,1.8v13.9
				C862.9,458.7,862.2,459.5,861.2,459.5z"/>
		</g>
		<g>
			<path class="st4" d="M877.8,459.4h-5.6c-1,0-1.8-0.8-1.8-1.8v-13.9c0-1,0.8-1.8,1.8-1.8h5.6c1,0,1.8,0.8,1.8,1.8v13.9
				C879.6,458.6,878.8,459.4,877.8,459.4z"/>
		</g>
		<g>
			<path class="st4" d="M861.2,496.4h-5.6c-1,0-1.8-0.8-1.8-1.8v-13.9c0-1,0.8-1.8,1.8-1.8h5.6c1,0,1.8,0.8,1.8,1.8v13.9
				C862.9,495.6,862.2,496.4,861.2,496.4z"/>
		</g>
		<g>
			<path class="st4" d="M877.8,496.3h-5.6c-1,0-1.8-0.8-1.8-1.8v-13.9c0-1,0.8-1.8,1.8-1.8h5.6c1,0,1.8,0.8,1.8,1.8v13.9
				C879.6,495.5,878.8,496.3,877.8,496.3z"/>
		</g>
		<g>
			<path class="st4" d="M861.2,533.1h-5.5c-1,0-1.8-0.8-1.8-1.8v-13.5c0-1,0.8-1.8,1.8-1.8h5.5c1,0,1.8,0.8,1.8,1.8v13.5
				C862.9,532.3,862.2,533.1,861.2,533.1z"/>
		</g>
		<g>
			<path class="st4" d="M877.8,533.4h-5.6c-1,0-1.8-0.8-1.8-1.8v-13.9c0-1,0.8-1.8,1.8-1.8h5.6c1,0,1.8,0.8,1.8,1.8v13.9
				C879.6,532.6,878.8,533.4,877.8,533.4z"/>
		</g>
		<g>
			<path class="st4" d="M861.2,571h-5.5c-1,0-1.8-0.8-1.8-1.8v-13.5c0-1,0.8-1.8,1.8-1.8h5.5c1,0,1.8,0.8,1.8,1.8v13.5
				C862.9,570.2,862.2,571,861.2,571z"/>
		</g>
		<g>
			<path class="st4" d="M877.8,571.4h-5.6c-1,0-1.8-0.8-1.8-1.8v-13.9c0-1,0.8-1.8,1.8-1.8h5.6c1,0,1.8,0.8,1.8,1.8v13.9
				C879.6,570.6,878.8,571.4,877.8,571.4z"/>
		</g>
		<g>
			<path class="st4" d="M861.2,609.5h-5.6c-1,0-1.8-0.8-1.8-1.8v-13.9c0-1,0.8-1.8,1.8-1.8h5.6c1,0,1.8,0.8,1.8,1.8v13.9
				C862.9,608.7,862.2,609.5,861.2,609.5z"/>
		</g>
		<g>
			<path class="st4" d="M877.8,609h-5.5c-1,0-1.8-0.8-1.8-1.8v-13.5c0-1,0.8-1.8,1.8-1.8h5.5c1,0,1.8,0.8,1.8,1.8v13.5
				C879.6,608.2,878.8,609,877.8,609z"/>
		</g>
		<g>
			<path class="st4" d="M861.2,647.4h-5.6c-1,0-1.8-0.8-1.8-1.8v-13.9c0-1,0.8-1.8,1.8-1.8h5.6c1,0,1.8,0.8,1.8,1.8v13.9
				C862.9,646.6,862.2,647.4,861.2,647.4z"/>
		</g>
		<g>
			<path class="st4" d="M877.8,646.9h-5.5c-1,0-1.8-0.8-1.8-1.8v-13.5c0-1,0.8-1.8,1.8-1.8h5.5c1,0,1.8,0.8,1.8,1.8v13.5
				C879.6,646.1,878.8,646.9,877.8,646.9z"/>
		</g>
		<g>
			<path class="st4" d="M861.2,683.7h-5.6c-1,0-1.8-0.8-1.8-1.8V668c0-1,0.8-1.8,1.8-1.8h5.6c1,0,1.8,0.8,1.8,1.8v13.9
				C862.9,682.9,862.2,683.7,861.2,683.7z"/>
		</g>
		<g>
			<path class="st4" d="M877.8,684.2h-5.5c-1,0-1.8-0.8-1.8-1.8v-14.5c0-1,0.8-1.8,1.8-1.8h5.5c1,0,1.8,0.8,1.8,1.8v14.5
				C879.6,683.4,878.8,684.2,877.8,684.2z"/>
		</g>
		<g>
			<path class="st4" d="M861.2,720.6h-5.6c-1,0-1.8-0.8-1.8-1.8v-13.9c0-1,0.8-1.8,1.8-1.8h5.6c1,0,1.8,0.8,1.8,1.8v13.9
				C862.9,719.8,862.2,720.6,861.2,720.6z"/>
		</g>
		<g>
			<path class="st4" d="M877.8,720.5h-5.6c-1,0-1.8-0.8-1.8-1.8v-13.9c0-1,0.8-1.8,1.8-1.8h5.6c1,0,1.8,0.8,1.8,1.8v13.9
				C879.6,719.7,878.8,720.5,877.8,720.5z"/>
		</g>
		<g>
			<path class="st4" d="M894.2,386.5h-5.6c-1,0-1.8-0.8-1.8-1.8v-13.9c0-1,0.8-1.8,1.8-1.8h5.6c1,0,1.8,0.8,1.8,1.8v13.9
				C896,385.7,895.2,386.5,894.2,386.5z"/>
		</g>
		<g>
			<path class="st4" d="M910.8,386.5h-5.6c-1,0-1.8-0.8-1.8-1.8v-13.9c0-1,0.8-1.8,1.8-1.8h5.6c1,0,1.8,0.8,1.8,1.8v13.9
				C912.6,385.7,911.8,386.5,910.8,386.5z"/>
		</g>
		<g>
			<path class="st4" d="M894.2,423.4h-5.6c-1,0-1.8-0.8-1.8-1.8v-13.8c0-1,0.8-1.8,1.8-1.8h5.6c1,0,1.8,0.8,1.8,1.8v13.9
				C896,422.6,895.2,423.4,894.2,423.4z"/>
		</g>
		<g>
			<path class="st4" d="M910.8,423.4h-5.6c-1,0-1.8-0.8-1.8-1.8v-13.8c0-1,0.8-1.8,1.8-1.8h5.6c1,0,1.8,0.8,1.8,1.8v13.9
				C912.6,422.6,911.8,423.4,910.8,423.4z"/>
		</g>
		<g>
			<path class="st4" d="M894.2,459.5h-5.6c-1,0-1.8-0.8-1.8-1.8v-13.9c0-1,0.8-1.8,1.8-1.8h5.6c1,0,1.8,0.8,1.8,1.8v13.9
				C896,458.7,895.2,459.5,894.2,459.5z"/>
		</g>
		<g>
			<path class="st4" d="M910.8,459.4h-5.6c-1,0-1.8-0.8-1.8-1.8v-13.9c0-1,0.8-1.8,1.8-1.8h5.6c1,0,1.8,0.8,1.8,1.8v13.9
				C912.6,458.6,911.8,459.4,910.8,459.4z"/>
		</g>
		<g>
			<path class="st4" d="M894.2,496.4h-5.6c-1,0-1.8-0.8-1.8-1.8v-13.9c0-1,0.8-1.8,1.8-1.8h5.6c1,0,1.8,0.8,1.8,1.8v13.9
				C896,495.6,895.2,496.4,894.2,496.4z"/>
		</g>
		<g>
			<path class="st4" d="M910.8,496.3h-5.6c-1,0-1.8-0.8-1.8-1.8v-13.9c0-1,0.8-1.8,1.8-1.8h5.6c1,0,1.8,0.8,1.8,1.8v13.9
				C912.6,495.5,911.8,496.3,910.8,496.3z"/>
		</g>
		<g>
			<path class="st4" d="M894.2,533.1h-5.5c-1,0-1.8-0.8-1.8-1.8v-13.5c0-1,0.8-1.8,1.8-1.8h5.5c1,0,1.8,0.8,1.8,1.8v13.5
				C896,532.3,895.2,533.1,894.2,533.1z"/>
		</g>
		<g>
			<path class="st4" d="M910.8,533.4h-5.6c-1,0-1.8-0.8-1.8-1.8v-13.9c0-1,0.8-1.8,1.8-1.8h5.6c1,0,1.8,0.8,1.8,1.8v13.9
				C912.6,532.6,911.8,533.4,910.8,533.4z"/>
		</g>
		<g>
			<path class="st4" d="M894.2,571h-5.5c-1,0-1.8-0.8-1.8-1.8v-13.5c0-1,0.8-1.8,1.8-1.8h5.5c1,0,1.8,0.8,1.8,1.8v13.5
				C896,570.2,895.2,571,894.2,571z"/>
		</g>
		<g>
			<path class="st4" d="M910.8,571.4h-5.6c-1,0-1.8-0.8-1.8-1.8v-13.9c0-1,0.8-1.8,1.8-1.8h5.6c1,0,1.8,0.8,1.8,1.8v13.9
				C912.6,570.6,911.8,571.4,910.8,571.4z"/>
		</g>
		<g>
			<path class="st4" d="M894.2,609.5h-5.6c-1,0-1.8-0.8-1.8-1.8v-13.9c0-1,0.8-1.8,1.8-1.8h5.6c1,0,1.8,0.8,1.8,1.8v13.9
				C896,608.7,895.2,609.5,894.2,609.5z"/>
		</g>
		<g>
			<path class="st4" d="M910.8,609h-5.5c-1,0-1.8-0.8-1.8-1.8v-13.5c0-1,0.8-1.8,1.8-1.8h5.5c1,0,1.8,0.8,1.8,1.8v13.5
				C912.6,608.2,911.8,609,910.8,609z"/>
		</g>
		<g>
			<path class="st4" d="M894.2,647.4h-5.6c-1,0-1.8-0.8-1.8-1.8v-13.9c0-1,0.8-1.8,1.8-1.8h5.6c1,0,1.8,0.8,1.8,1.8v13.9
				C896,646.6,895.2,647.4,894.2,647.4z"/>
		</g>
		<g>
			<path class="st4" d="M910.8,646.9h-5.5c-1,0-1.8-0.8-1.8-1.8v-13.5c0-1,0.8-1.8,1.8-1.8h5.5c1,0,1.8,0.8,1.8,1.8v13.5
				C912.6,646.1,911.8,646.9,910.8,646.9z"/>
		</g>
		<g>
			<path class="st4" d="M894.2,683.7h-5.6c-1,0-1.8-0.8-1.8-1.8V668c0-1,0.8-1.8,1.8-1.8h5.6c1,0,1.8,0.8,1.8,1.8v13.9
				C896,682.9,895.2,683.7,894.2,683.7z"/>
		</g>
		<g>
			<path class="st4" d="M910.8,684.2h-5.5c-1,0-1.8-0.8-1.8-1.8v-14.5c0-1,0.8-1.8,1.8-1.8h5.5c1,0,1.8,0.8,1.8,1.8v14.5
				C912.6,683.4,911.8,684.2,910.8,684.2z"/>
		</g>
		<g>
			<path class="st4" d="M894.2,720.6h-5.6c-1,0-1.8-0.8-1.8-1.8v-13.9c0-1,0.8-1.8,1.8-1.8h5.6c1,0,1.8,0.8,1.8,1.8v13.9
				C896,719.8,895.2,720.6,894.2,720.6z"/>
		</g>
		<g>
			<path class="st4" d="M910.8,720.5h-5.6c-1,0-1.8-0.8-1.8-1.8v-13.9c0-1,0.8-1.8,1.8-1.8h5.6c1,0,1.8,0.8,1.8,1.8v13.9
				C912.6,719.7,911.8,720.5,910.8,720.5z"/>
		</g>
		<path class="st7" d="M912.6,359h-26.8c-0.9,0-1.7-0.4-2.3-1l-19.2-21c-1.7-1.8-0.3-4.7,2.3-4.7h26.8c0.9,0,1.7,0.4,2.3,1l19.2,21
			C916.6,356.1,915.2,359,912.6,359z"/>
		<path class="st2" d="M884.5,751.1h-36.2c-1.2,0-2.2-1-2.2-2.2v-12.6h38.4V751.1z"/>
		<path class="st4" d="M884,751.1h29.9c1.2,0,2.2-1,2.2-2.2v-12.6h-32v14.8H884z"/>
		<path class="st0" d="M891.2,340.6h-7.8c-0.6,0-1-0.5-1-1v-10.9h9.9v10.9C892.2,340.2,891.7,340.6,891.2,340.6z"/>
		<path class="st2" d="M891.1,340.6h-3.9v-11.9h4.9v10.8C892.2,340.1,891.7,340.6,891.1,340.6z"/>
		<path class="st0" d="M893.2,328.7h-11.9c-0.4,0-0.8-0.4-0.8-0.8v-1.5c0-0.4,0.4-0.8,0.8-0.8h11.9c0.4,0,0.8,0.4,0.8,0.8v1.5
			C894,328.4,893.6,328.7,893.2,328.7z"/>
		<path class="st2" d="M893.2,328.7h-5.9v-3h5.9c0.5,0,0.8,0.4,0.8,0.8v1.4C894,328.4,893.6,328.7,893.2,328.7z"/>
	</g>
	<g>
		<path class="st2" d="M180.5,747.8h29.4v-396h-29.4c-1.5,0-2.6,1.2-2.6,2.6v390.7C177.8,746.6,179,747.8,180.5,747.8z"/>
		<path class="st0" d="M219.6,340.3l7.9-9.7c0.8-1,2.3-0.9,3.1,0.1l7.9,9.6l9,11c0.3,0.4,0.5,0.9,0.5,1.4v393c0,1.2-1,2.2-2.2,2.2
			H210V352.6c0-0.5,0.2-1,0.5-1.4L219.6,340.3z"/>
		<g>
			<path class="st4" d="M232.7,383.2h5.6c1,0,1.8-0.8,1.8-1.8v-13.9c0-1-0.8-1.8-1.8-1.8h-5.6c-1,0-1.8,0.8-1.8,1.8v13.9
				C230.9,382.4,231.7,383.2,232.7,383.2z"/>
		</g>
		<g>
			<path class="st4" d="M216.1,383.2h5.6c1,0,1.8-0.8,1.8-1.8v-13.9c0-1-0.8-1.8-1.8-1.8h-5.6c-1,0-1.8,0.8-1.8,1.8v13.9
				C214.3,382.4,215.1,383.2,216.1,383.2z"/>
		</g>
		<g>
			<path class="st4" d="M232.7,420.1h5.6c1,0,1.8-0.8,1.8-1.8v-13.9c0-1-0.8-1.8-1.8-1.8h-5.6c-1,0-1.8,0.8-1.8,1.8v13.9
				C230.9,419.3,231.7,420.1,232.7,420.1z"/>
		</g>
		<g>
			<path class="st4" d="M216.1,420.1h5.6c1,0,1.8-0.8,1.8-1.8v-13.9c0-1-0.8-1.8-1.8-1.8h-5.6c-1,0-1.8,0.8-1.8,1.8v13.9
				C214.3,419.3,215.1,420.1,216.1,420.1z"/>
		</g>
		<g>
			<path class="st4" d="M232.7,456.2h5.6c1,0,1.8-0.8,1.8-1.8v-13.9c0-1-0.8-1.8-1.8-1.8h-5.6c-1,0-1.8,0.8-1.8,1.8v13.9
				C230.9,455.4,231.7,456.2,232.7,456.2z"/>
		</g>
		<g>
			<path class="st4" d="M216.1,456.1h5.6c1,0,1.8-0.8,1.8-1.8v-13.9c0-1-0.8-1.8-1.8-1.8h-5.6c-1,0-1.8,0.8-1.8,1.8v13.9
				C214.3,455.3,215.1,456.1,216.1,456.1z"/>
		</g>
		<g>
			<path class="st4" d="M232.7,493.1h5.6c1,0,1.8-0.8,1.8-1.8v-13.9c0-1-0.8-1.8-1.8-1.8h-5.6c-1,0-1.8,0.8-1.8,1.8v13.9
				C230.9,492.3,231.7,493.1,232.7,493.1z"/>
		</g>
		<g>
			<path class="st4" d="M216.1,493h5.6c1,0,1.8-0.8,1.8-1.8v-13.9c0-1-0.8-1.8-1.8-1.8h-5.6c-1,0-1.8,0.8-1.8,1.8v13.9
				C214.3,492.2,215.1,493,216.1,493z"/>
		</g>
		<g>
			<path class="st4" d="M232.7,529.8h5.5c1,0,1.8-0.8,1.8-1.8v-13.5c0-1-0.8-1.8-1.8-1.8h-5.5c-1,0-1.8,0.8-1.8,1.8V528
				C230.9,529,231.7,529.8,232.7,529.8z"/>
		</g>
		<g>
			<path class="st4" d="M216.1,530.1h5.6c1,0,1.8-0.8,1.8-1.8v-13.9c0-1-0.8-1.8-1.8-1.8h-5.6c-1,0-1.8,0.8-1.8,1.8v13.9
				C214.3,529.3,215.1,530.1,216.1,530.1z"/>
		</g>
		<g>
			<path class="st4" d="M232.7,567.7h5.5c1,0,1.8-0.8,1.8-1.8v-13.5c0-1-0.8-1.8-1.8-1.8h-5.5c-1,0-1.8,0.8-1.8,1.8v13.5
				C230.9,566.9,231.7,567.7,232.7,567.7z"/>
		</g>
		<g>
			<path class="st4" d="M216.1,568h5.6c1,0,1.8-0.8,1.8-1.8v-13.9c0-1-0.8-1.8-1.8-1.8h-5.6c-1,0-1.8,0.8-1.8,1.8v13.9
				C214.3,567.2,215.1,568,216.1,568z"/>
		</g>
		<g>
			<path class="st4" d="M232.7,606.2h5.6c1,0,1.8-0.8,1.8-1.8v-13.9c0-1-0.8-1.8-1.8-1.8h-5.6c-1,0-1.8,0.8-1.8,1.8v13.9
				C230.9,605.4,231.7,606.2,232.7,606.2z"/>
		</g>
		<g>
			<path class="st4" d="M216.1,605.6h5.5c1,0,1.8-0.8,1.8-1.8v-13.5c0-1-0.8-1.8-1.8-1.8h-5.5c-1,0-1.8,0.8-1.8,1.8v13.5
				C214.3,604.8,215.1,605.6,216.1,605.6z"/>
		</g>
		<g>
			<path class="st4" d="M232.7,644.1h5.6c1,0,1.8-0.8,1.8-1.8v-13.9c0-1-0.8-1.8-1.8-1.8h-5.6c-1,0-1.8,0.8-1.8,1.8v13.9
				C230.9,643.3,231.7,644.1,232.7,644.1z"/>
		</g>
		<g>
			<path class="st4" d="M216.1,643.5h5.5c1,0,1.8-0.8,1.8-1.8v-13.5c0-1-0.8-1.8-1.8-1.8h-5.5c-1,0-1.8,0.8-1.8,1.8v13.5
				C214.3,642.8,215.1,643.5,216.1,643.5z"/>
		</g>
		<g>
			<path class="st4" d="M232.7,680.4h5.6c1,0,1.8-0.8,1.8-1.8v-13.9c0-1-0.8-1.8-1.8-1.8h-5.6c-1,0-1.8,0.8-1.8,1.8v13.9
				C230.9,679.6,231.7,680.4,232.7,680.4z"/>
		</g>
		<g>
			<path class="st4" d="M216.1,680.8h5.5c1,0,1.8-0.8,1.8-1.8v-14.5c0-1-0.8-1.8-1.8-1.8h-5.5c-1,0-1.8,0.8-1.8,1.8v14.6
				C214.3,680,215.1,680.8,216.1,680.8z"/>
		</g>
		<g>
			<path class="st4" d="M232.7,717.3h5.6c1,0,1.8-0.8,1.8-1.8v-13.9c0-1-0.8-1.8-1.8-1.8h-5.6c-1,0-1.8,0.8-1.8,1.8v13.9
				C230.9,716.5,231.7,717.3,232.7,717.3z"/>
		</g>
		<g>
			<path class="st4" d="M216.1,717.2h5.6c1,0,1.8-0.8,1.8-1.8v-13.9c0-1-0.8-1.8-1.8-1.8h-5.6c-1,0-1.8,0.8-1.8,1.8v13.9
				C214.3,716.4,215.1,717.2,216.1,717.2z"/>
		</g>
		<g>
			<path class="st4" d="M199.7,383.2h5.6c1,0,1.8-0.8,1.8-1.8v-13.9c0-1-0.8-1.8-1.8-1.8h-5.6c-1,0-1.8,0.8-1.8,1.8v13.9
				C197.9,382.4,198.7,383.2,199.7,383.2z"/>
		</g>
		<g>
			<path class="st4" d="M183.1,383.2h5.6c1,0,1.8-0.8,1.8-1.8v-13.9c0-1-0.8-1.8-1.8-1.8h-5.6c-1,0-1.8,0.8-1.8,1.8v13.9
				C181.3,382.4,182.1,383.2,183.1,383.2z"/>
		</g>
		<g>
			<path class="st4" d="M199.7,420.1h5.6c1,0,1.8-0.8,1.8-1.8v-13.9c0-1-0.8-1.8-1.8-1.8h-5.6c-1,0-1.8,0.8-1.8,1.8v13.9
				C197.9,419.3,198.7,420.1,199.7,420.1z"/>
		</g>
		<g>
			<path class="st4" d="M183.1,420.1h5.6c1,0,1.8-0.8,1.8-1.8v-13.9c0-1-0.8-1.8-1.8-1.8h-5.6c-1,0-1.8,0.8-1.8,1.8v13.9
				C181.3,419.3,182.1,420.1,183.1,420.1z"/>
		</g>
		<g>
			<path class="st4" d="M199.7,456.2h5.6c1,0,1.8-0.8,1.8-1.8v-13.9c0-1-0.8-1.8-1.8-1.8h-5.6c-1,0-1.8,0.8-1.8,1.8v13.9
				C197.9,455.4,198.7,456.2,199.7,456.2z"/>
		</g>
		<g>
			<path class="st4" d="M183.1,456.1h5.6c1,0,1.8-0.8,1.8-1.8v-13.9c0-1-0.8-1.8-1.8-1.8h-5.6c-1,0-1.8,0.8-1.8,1.8v13.9
				C181.3,455.3,182.1,456.1,183.1,456.1z"/>
		</g>
		<g>
			<path class="st4" d="M199.7,493.1h5.6c1,0,1.8-0.8,1.8-1.8v-13.9c0-1-0.8-1.8-1.8-1.8h-5.6c-1,0-1.8,0.8-1.8,1.8v13.9
				C197.9,492.3,198.7,493.1,199.7,493.1z"/>
		</g>
		<g>
			<path class="st4" d="M183.1,493h5.6c1,0,1.8-0.8,1.8-1.8v-13.9c0-1-0.8-1.8-1.8-1.8h-5.6c-1,0-1.8,0.8-1.8,1.8v13.9
				C181.3,492.2,182.1,493,183.1,493z"/>
		</g>
		<g>
			<path class="st4" d="M199.7,529.8h5.5c1,0,1.8-0.8,1.8-1.8v-13.5c0-1-0.8-1.8-1.8-1.8h-5.5c-1,0-1.8,0.8-1.8,1.8V528
				C197.9,529,198.7,529.8,199.7,529.8z"/>
		</g>
		<g>
			<path class="st4" d="M183.1,530.1h5.6c1,0,1.8-0.8,1.8-1.8v-13.9c0-1-0.8-1.8-1.8-1.8h-5.6c-1,0-1.8,0.8-1.8,1.8v13.9
				C181.3,529.3,182.1,530.1,183.1,530.1z"/>
		</g>
		<g>
			<path class="st4" d="M199.7,567.7h5.5c1,0,1.8-0.8,1.8-1.8v-13.5c0-1-0.8-1.8-1.8-1.8h-5.5c-1,0-1.8,0.8-1.8,1.8v13.5
				C197.9,566.9,198.7,567.7,199.7,567.7z"/>
		</g>
		<g>
			<path class="st4" d="M183.1,568h5.6c1,0,1.8-0.8,1.8-1.8v-13.9c0-1-0.8-1.8-1.8-1.8h-5.6c-1,0-1.8,0.8-1.8,1.8v13.9
				C181.3,567.2,182.1,568,183.1,568z"/>
		</g>
		<g>
			<path class="st4" d="M199.7,606.2h5.6c1,0,1.8-0.8,1.8-1.8v-13.9c0-1-0.8-1.8-1.8-1.8h-5.6c-1,0-1.8,0.8-1.8,1.8v13.9
				C197.9,605.4,198.7,606.2,199.7,606.2z"/>
		</g>
		<g>
			<path class="st4" d="M183.1,605.6h5.5c1,0,1.8-0.8,1.8-1.8v-13.5c0-1-0.8-1.8-1.8-1.8h-5.5c-1,0-1.8,0.8-1.8,1.8v13.5
				C181.3,604.8,182.1,605.6,183.1,605.6z"/>
		</g>
		<g>
			<path class="st4" d="M199.7,644.1h5.6c1,0,1.8-0.8,1.8-1.8v-13.9c0-1-0.8-1.8-1.8-1.8h-5.6c-1,0-1.8,0.8-1.8,1.8v13.9
				C197.9,643.3,198.7,644.1,199.7,644.1z"/>
		</g>
		<g>
			<path class="st4" d="M183.1,643.5h5.5c1,0,1.8-0.8,1.8-1.8v-13.5c0-1-0.8-1.8-1.8-1.8h-5.5c-1,0-1.8,0.8-1.8,1.8v13.5
				C181.3,642.8,182.1,643.5,183.1,643.5z"/>
		</g>
		<g>
			<path class="st4" d="M199.7,680.4h5.6c1,0,1.8-0.8,1.8-1.8v-13.9c0-1-0.8-1.8-1.8-1.8h-5.6c-1,0-1.8,0.8-1.8,1.8v13.9
				C197.9,679.6,198.7,680.4,199.7,680.4z"/>
		</g>
		<g>
			<path class="st4" d="M183.1,680.8h5.5c1,0,1.8-0.8,1.8-1.8v-14.5c0-1-0.8-1.8-1.8-1.8h-5.5c-1,0-1.8,0.8-1.8,1.8v14.6
				C181.3,680,182.1,680.8,183.1,680.8z"/>
		</g>
		<g>
			<path class="st4" d="M199.7,717.3h5.6c1,0,1.8-0.8,1.8-1.8v-13.9c0-1-0.8-1.8-1.8-1.8h-5.6c-1,0-1.8,0.8-1.8,1.8v13.9
				C197.9,716.5,198.7,717.3,199.7,717.3z"/>
		</g>
		<g>
			<path class="st4" d="M183.1,717.2h5.6c1,0,1.8-0.8,1.8-1.8v-13.9c0-1-0.8-1.8-1.8-1.8h-5.6c-1,0-1.8,0.8-1.8,1.8v13.9
				C181.3,716.4,182.1,717.2,183.1,717.2z"/>
		</g>
		<path class="st5" d="M181.3,355.7h26.8c0.9,0,1.7-0.4,2.3-1l19.2-21c1.7-1.8,0.3-4.7-2.3-4.7h-26.8c-0.9,0-1.7,0.4-2.3,1L179,351
			C177.3,352.8,178.7,355.7,181.3,355.7z"/>
		<path class="st2" d="M209.4,747.8h36.2c1.2,0,2.2-1,2.2-2.2v-12.5h-38.4V747.8z"/>
		<path class="st4" d="M209.9,747.8H180c-1.2,0-2.2-1-2.2-2.2v-12.5h32L209.9,747.8L209.9,747.8z"/>
		<path class="st0" d="M202.7,337.3h7.8c0.6,0,1-0.5,1-1v-10.9h-9.9v10.9C201.7,336.8,202.2,337.3,202.7,337.3z"/>
		<path class="st2" d="M202.8,337.3h3.9v-11.9h-4.9v10.8C201.7,336.8,202.2,337.3,202.8,337.3z"/>
		<path class="st0" d="M200.7,325.4h11.9c0.4,0,0.8-0.4,0.8-0.8v-1.5c0-0.4-0.4-0.8-0.8-0.8h-11.9c-0.4,0-0.8,0.4-0.8,0.8v1.5
			C199.9,325.1,200.3,325.4,200.7,325.4z"/>
		<path class="st2" d="M200.7,325.4h5.9v-3h-5.9c-0.5,0-0.8,0.4-0.8,0.8v1.4C199.9,325,200.3,325.4,200.7,325.4z"/>
	</g>
	<g>
		<g>
			<path class="st0" d="M955.2,753.9h-50.8c-3,0-5.3-3.9-5.3-8.7V594.5c0-2.7,0.8-5.3,2.1-6.9l20.9-26.1c1.8-2.3,4.3-2.4,6.2-0.4
				l27,29.1v163.7H955.2z"/>
			<path class="st2" d="M1004,753.9h-48.8V590.3h48.8c4.1,0,7.3,3.3,7.3,7.3v149C1011.4,750.6,1008.1,753.9,1004,753.9z"/>
			<g>
				<path class="st4" d="M969.6,624.9H964c-1,0-1.8-0.8-1.8-1.8v-13.9c0-1,0.8-1.8,1.8-1.8h5.6c1,0,1.8,0.8,1.8,1.8v13.9
					C971.4,624.2,970.6,624.9,969.6,624.9z"/>
			</g>
			<g>
				<path class="st4" d="M969.6,661.9H964c-1,0-1.8-0.8-1.8-1.8v-13.9c0-1,0.8-1.8,1.8-1.8h5.6c1,0,1.8,0.8,1.8,1.8v13.9
					C971.4,661.1,970.6,661.9,969.6,661.9z"/>
			</g>
			<g>
				<path class="st4" d="M986,624.9h-5.6c-1,0-1.8-0.8-1.8-1.8v-13.9c0-1,0.8-1.8,1.8-1.8h5.6c1,0,1.8,0.8,1.8,1.8v13.9
					C987.8,624.1,987,624.9,986,624.9z"/>
			</g>
			<g>
				<path class="st4" d="M1002.6,624.9H997c-1,0-1.8-0.8-1.8-1.8v-13.9c0-1,0.8-1.8,1.8-1.8h5.6c1,0,1.8,0.8,1.8,1.8v13.9
					C1004.4,624.2,1003.6,624.9,1002.6,624.9z"/>
			</g>
			<g>
				<path class="st4" d="M986,661.9h-5.6c-1,0-1.8-0.8-1.8-1.8v-13.9c0-1,0.8-1.8,1.8-1.8h5.6c1,0,1.8,0.8,1.8,1.8v13.9
					C987.8,661.1,987,661.9,986,661.9z"/>
			</g>
			<g>
				<path class="st4" d="M1002.6,661.9H997c-1,0-1.8-0.8-1.8-1.8v-13.9c0-1,0.8-1.8,1.8-1.8h5.6c1,0,1.8,0.8,1.8,1.8v13.9
					C1004.4,661.1,1003.6,661.9,1002.6,661.9z"/>
			</g>
			<g>
				<path class="st4" d="M969.6,697.3H964c-1,0-1.8-0.8-1.8-1.8v-13.9c0-1,0.8-1.8,1.8-1.8h5.6c1,0,1.8,0.8,1.8,1.8v13.9
					C971.4,696.5,970.6,697.3,969.6,697.3z"/>
			</g>
			<g>
				<path class="st4" d="M969.6,734.2H964c-1,0-1.8-0.8-1.8-1.8v-13.9c0-1,0.8-1.8,1.8-1.8h5.6c1,0,1.8,0.8,1.8,1.8v13.9
					C971.4,733.4,970.6,734.2,969.6,734.2z"/>
			</g>
			<g>
				<path class="st4" d="M986,697.3h-5.6c-1,0-1.8-0.8-1.8-1.8v-13.9c0-1,0.8-1.8,1.8-1.8h5.6c1,0,1.8,0.8,1.8,1.8v13.9
					C987.8,696.5,987,697.3,986,697.3z"/>
			</g>
			<g>
				<path class="st4" d="M1002.6,697.3H997c-1,0-1.8-0.8-1.8-1.8v-13.9c0-1,0.8-1.8,1.8-1.8h5.6c1,0,1.8,0.8,1.8,1.8v13.9
					C1004.4,696.5,1003.6,697.3,1002.6,697.3z"/>
			</g>
			<g>
				<path class="st4" d="M986,734.2h-5.6c-1,0-1.8-0.8-1.8-1.8v-13.9c0-1,0.8-1.8,1.8-1.8h5.6c1,0,1.8,0.8,1.8,1.8v13.9
					C987.8,733.4,987,734.2,986,734.2z"/>
			</g>
			<g>
				<path class="st4" d="M1002.6,734.2H997c-1,0-1.8-0.8-1.8-1.8v-13.9c0-1,0.8-1.8,1.8-1.8h5.6c1,0,1.8,0.8,1.8,1.8v13.9
					C1004.4,733.4,1003.6,734.2,1002.6,734.2z"/>
			</g>
			<g>
				<path class="st4" d="M913.4,624.9h-5.6c-1,0-1.8-0.8-1.8-1.8v-13.9c0-1,0.8-1.8,1.8-1.8h5.6c1,0,1.8,0.8,1.8,1.8v13.9
					C915.2,624.2,914.4,624.9,913.4,624.9z"/>
			</g>
			<g>
				<path class="st4" d="M913.4,661.9h-5.6c-1,0-1.8-0.8-1.8-1.8v-13.9c0-1,0.8-1.8,1.8-1.8h5.6c1,0,1.8,0.8,1.8,1.8v13.9
					C915.2,661.1,914.4,661.9,913.4,661.9z"/>
			</g>
			<g>
				<path class="st4" d="M929.8,624.9h-5.6c-1,0-1.8-0.8-1.8-1.8v-13.9c0-1,0.8-1.8,1.8-1.8h5.6c1,0,1.8,0.8,1.8,1.8v13.9
					C931.6,624.1,930.8,624.9,929.8,624.9z"/>
			</g>
			<g>
				<path class="st4" d="M946.4,624.9h-5.6c-1,0-1.8-0.8-1.8-1.8v-13.9c0-1,0.8-1.8,1.8-1.8h5.6c1,0,1.8,0.8,1.8,1.8v13.9
					C948.2,624.2,947.4,624.9,946.4,624.9z"/>
			</g>
			<g>
				<path class="st4" d="M929.8,661.9h-5.6c-1,0-1.8-0.8-1.8-1.8v-13.9c0-1,0.8-1.8,1.8-1.8h5.6c1,0,1.8,0.8,1.8,1.8v13.9
					C931.6,661.1,930.8,661.9,929.8,661.9z"/>
			</g>
			<g>
				<path class="st4" d="M946.4,661.9h-5.6c-1,0-1.8-0.8-1.8-1.8v-13.9c0-1,0.8-1.8,1.8-1.8h5.6c1,0,1.8,0.8,1.8,1.8v13.9
					C948.2,661.1,947.4,661.9,946.4,661.9z"/>
			</g>
			<g>
				<path class="st4" d="M913.4,697.3h-5.6c-1,0-1.8-0.8-1.8-1.8v-13.9c0-1,0.8-1.8,1.8-1.8h5.6c1,0,1.8,0.8,1.8,1.8v13.9
					C915.2,696.5,914.4,697.3,913.4,697.3z"/>
			</g>
			<g>
				<path class="st4" d="M913.4,734.2h-5.6c-1,0-1.8-0.8-1.8-1.8v-13.9c0-1,0.8-1.8,1.8-1.8h5.6c1,0,1.8,0.8,1.8,1.8v13.9
					C915.2,733.4,914.4,734.2,913.4,734.2z"/>
			</g>
			<g>
				<path class="st4" d="M929.8,697.3h-5.6c-1,0-1.8-0.8-1.8-1.8v-13.9c0-1,0.8-1.8,1.8-1.8h5.6c1,0,1.8,0.8,1.8,1.8v13.9
					C931.6,696.5,930.8,697.3,929.8,697.3z"/>
			</g>
			<g>
				<path class="st4" d="M946.4,697.3h-5.6c-1,0-1.8-0.8-1.8-1.8v-13.9c0-1,0.8-1.8,1.8-1.8h5.6c1,0,1.8,0.8,1.8,1.8v13.9
					C948.2,696.5,947.4,697.3,946.4,697.3z"/>
			</g>
			<g>
				<path class="st4" d="M929.8,734.2h-5.6c-1,0-1.8-0.8-1.8-1.8v-13.9c0-1,0.8-1.8,1.8-1.8h5.6c1,0,1.8,0.8,1.8,1.8v13.9
					C931.6,733.4,930.8,734.2,929.8,734.2z"/>
			</g>
			<g>
				<path class="st4" d="M946.4,734.2h-5.6c-1,0-1.8-0.8-1.8-1.8v-13.9c0-1,0.8-1.8,1.8-1.8h5.6c1,0,1.8,0.8,1.8,1.8v13.9
					C948.2,733.4,947.4,734.2,946.4,734.2z"/>
			</g>
			<path class="st5" d="M1003.4,593.5h-45c-1.5,0-2.9-0.5-3.9-1.3l-32.3-28.3c-2.8-2.5-0.5-6.3,3.9-6.3h45c1.5,0,2.9,0.5,3.9,1.3
				l32.3,28.3C1010.2,589.7,1007.8,593.5,1003.4,593.5z"/>
		</g>
		<path class="st2" d="M955.2,753.9h-49.3c-3.8,0-6.9-3.1-6.9-6.9v-7.1h56.2V753.9z"/>
		<path class="st4" d="M955.2,753.9h49.3c3.8,0,6.9-3.1,6.9-6.9v-7.1h-56.2V753.9z"/>
		<path class="st0" d="M970.8,574.2h-17.2c-0.6,0-1-0.5-1-1v-22.1h19.2v22.1C971.8,573.8,971.3,574.2,970.8,574.2z"/>
		<path class="st2" d="M970.7,574.2h-8.6v-23.1h9.6v22C971.8,573.7,971.3,574.2,970.7,574.2z"/>
		<path class="st0" d="M974.6,554.1h-24.7c-0.4,0-0.8-0.4-0.8-0.8V549c0-0.4,0.4-0.8,0.8-0.8h24.7c0.4,0,0.8,0.4,0.8,0.8v4.3
			C975.3,553.7,975,554.1,974.6,554.1z"/>
		<path class="st2" d="M974.5,554.1h-12.3v-5.9h12.3c0.5,0,0.8,0.4,0.8,0.8v4.2C975.3,553.7,975,554.1,974.5,554.1z"/>
	</g>
	<g>
		<path class="st2" d="M676.6,746.7h-29.4v-396h29.4c1.5,0,2.6,1.2,2.6,2.6V744C679.3,745.5,678.1,746.7,676.6,746.7z"/>
		<path class="st0" d="M637.5,339.1l-7.9-9.7c-0.8-1-2.3-0.9-3.1,0.1l-7.9,9.6l-9,11c-0.3,0.4-0.5,0.9-0.5,1.4v393
			c0,1.2,1,2.2,2.2,2.2h35.8V351.5c0-0.5-0.2-1-0.5-1.4L637.5,339.1z"/>
		<g>
			<path class="st4" d="M624.4,382h-5.6c-1,0-1.8-0.8-1.8-1.8v-13.8c0-1,0.8-1.8,1.8-1.8h5.6c1,0,1.8,0.8,1.8,1.8v13.9
				C626.2,381.2,625.4,382,624.4,382z"/>
		</g>
		<g>
			<path class="st4" d="M641,382h-5.6c-1,0-1.8-0.8-1.8-1.8v-13.8c0-1,0.8-1.8,1.8-1.8h5.6c1,0,1.8,0.8,1.8,1.8v13.9
				C642.8,381.2,642,382,641,382z"/>
		</g>
		<g>
			<path class="st4" d="M624.4,419h-5.6c-1,0-1.8-0.8-1.8-1.8v-13.9c0-1,0.8-1.8,1.8-1.8h5.6c1,0,1.8,0.8,1.8,1.8v13.9
				C626.2,418.2,625.4,419,624.4,419z"/>
		</g>
		<g>
			<path class="st4" d="M641,419h-5.6c-1,0-1.8-0.8-1.8-1.8v-13.9c0-1,0.8-1.8,1.8-1.8h5.6c1,0,1.8,0.8,1.8,1.8v13.9
				C642.8,418.2,642,419,641,419z"/>
		</g>
		<g>
			<path class="st4" d="M624.4,455h-5.6c-1,0-1.8-0.8-1.8-1.8v-13.9c0-1,0.8-1.8,1.8-1.8h5.6c1,0,1.8,0.8,1.8,1.8v13.9
				C626.2,454.2,625.4,455,624.4,455z"/>
		</g>
		<g>
			<path class="st4" d="M641,454.9h-5.6c-1,0-1.8-0.8-1.8-1.8v-13.9c0-1,0.8-1.8,1.8-1.8h5.6c1,0,1.8,0.8,1.8,1.8v13.9
				C642.8,454.1,642,454.9,641,454.9z"/>
		</g>
		<g>
			<path class="st4" d="M624.4,492h-5.6c-1,0-1.8-0.8-1.8-1.8v-13.9c0-1,0.8-1.8,1.8-1.8h5.6c1,0,1.8,0.8,1.8,1.8v13.9
				C626.2,491.2,625.4,492,624.4,492z"/>
		</g>
		<g>
			<path class="st4" d="M641,491.9h-5.6c-1,0-1.8-0.8-1.8-1.8v-13.9c0-1,0.8-1.8,1.8-1.8h5.6c1,0,1.8,0.8,1.8,1.8v13.9
				C642.8,491.1,642,491.9,641,491.9z"/>
		</g>
		<g>
			<path class="st4" d="M624.4,528.6h-5.5c-1,0-1.8-0.8-1.8-1.8v-13.5c0-1,0.8-1.8,1.8-1.8h5.5c1,0,1.8,0.8,1.8,1.8v13.5
				C626.2,527.8,625.4,528.6,624.4,528.6z"/>
		</g>
		<g>
			<path class="st4" d="M641,529h-5.6c-1,0-1.8-0.8-1.8-1.8v-13.9c0-1,0.8-1.8,1.8-1.8h5.6c1,0,1.8,0.8,1.8,1.8v13.9
				C642.8,528.2,642,529,641,529z"/>
		</g>
		<g>
			<path class="st4" d="M624.4,566.6h-5.5c-1,0-1.8-0.8-1.8-1.8v-13.5c0-1,0.8-1.8,1.8-1.8h5.5c1,0,1.8,0.8,1.8,1.8v13.5
				C626.2,565.8,625.4,566.6,624.4,566.6z"/>
		</g>
		<g>
			<path class="st4" d="M641,566.9h-5.6c-1,0-1.8-0.8-1.8-1.8v-13.9c0-1,0.8-1.8,1.8-1.8h5.6c1,0,1.8,0.8,1.8,1.8v13.9
				C642.8,566.1,642,566.9,641,566.9z"/>
		</g>
		<g>
			<path class="st4" d="M624.4,605h-5.6c-1,0-1.8-0.8-1.8-1.8v-13.9c0-1,0.8-1.8,1.8-1.8h5.6c1,0,1.8,0.8,1.8,1.8v13.9
				C626.2,604.2,625.4,605,624.4,605z"/>
		</g>
		<g>
			<path class="st4" d="M641,604.5h-5.5c-1,0-1.8-0.8-1.8-1.8v-13.5c0-1,0.8-1.8,1.8-1.8h5.5c1,0,1.8,0.8,1.8,1.8v13.5
				C642.8,603.7,642,604.5,641,604.5z"/>
		</g>
		<g>
			<path class="st4" d="M624.4,643h-5.6c-1,0-1.8-0.8-1.8-1.8v-13.9c0-1,0.8-1.8,1.8-1.8h5.6c1,0,1.8,0.8,1.8,1.8v13.9
				C626.2,642.2,625.4,643,624.4,643z"/>
		</g>
		<g>
			<path class="st4" d="M641,642.4h-5.5c-1,0-1.8-0.8-1.8-1.8v-13.5c0-1,0.8-1.8,1.8-1.8h5.5c1,0,1.8,0.8,1.8,1.8v13.5
				C642.8,641.6,642,642.4,641,642.4z"/>
		</g>
		<g>
			<path class="st4" d="M624.4,679.2h-5.6c-1,0-1.8-0.8-1.8-1.8v-13.9c0-1,0.8-1.8,1.8-1.8h5.6c1,0,1.8,0.8,1.8,1.8v13.9
				C626.2,678.5,625.4,679.2,624.4,679.2z"/>
		</g>
		<g>
			<path class="st4" d="M641,679.7h-5.5c-1,0-1.8-0.8-1.8-1.8v-14.5c0-1,0.8-1.8,1.8-1.8h5.5c1,0,1.8,0.8,1.8,1.8v14.5
				C642.8,678.9,642,679.7,641,679.7z"/>
		</g>
		<g>
			<path class="st4" d="M624.4,716.2h-5.6c-1,0-1.8-0.8-1.8-1.8v-13.9c0-1,0.8-1.8,1.8-1.8h5.6c1,0,1.8,0.8,1.8,1.8v13.9
				C626.2,715.4,625.4,716.2,624.4,716.2z"/>
		</g>
		<g>
			<path class="st4" d="M641,716.1h-5.6c-1,0-1.8-0.8-1.8-1.8v-13.9c0-1,0.8-1.8,1.8-1.8h5.6c1,0,1.8,0.8,1.8,1.8v13.9
				C642.8,715.3,642,716.1,641,716.1z"/>
		</g>
		<g>
			<path class="st4" d="M657.4,382h-5.6c-1,0-1.8-0.8-1.8-1.8v-13.8c0-1,0.8-1.8,1.8-1.8h5.6c1,0,1.8,0.8,1.8,1.8v13.9
				C659.2,381.2,658.4,382,657.4,382z"/>
		</g>
		<g>
			<path class="st4" d="M674,382h-5.6c-1,0-1.8-0.8-1.8-1.8v-13.8c0-1,0.8-1.8,1.8-1.8h5.6c1,0,1.8,0.8,1.8,1.8v13.9
				C675.8,381.2,675,382,674,382z"/>
		</g>
		<g>
			<path class="st4" d="M657.4,419h-5.6c-1,0-1.8-0.8-1.8-1.8v-13.9c0-1,0.8-1.8,1.8-1.8h5.6c1,0,1.8,0.8,1.8,1.8v13.9
				C659.2,418.2,658.4,419,657.4,419z"/>
		</g>
		<g>
			<path class="st4" d="M674,419h-5.6c-1,0-1.8-0.8-1.8-1.8v-13.9c0-1,0.8-1.8,1.8-1.8h5.6c1,0,1.8,0.8,1.8,1.8v13.9
				C675.8,418.2,675,419,674,419z"/>
		</g>
		<g>
			<path class="st4" d="M657.4,455h-5.6c-1,0-1.8-0.8-1.8-1.8v-13.9c0-1,0.8-1.8,1.8-1.8h5.6c1,0,1.8,0.8,1.8,1.8v13.9
				C659.2,454.2,658.4,455,657.4,455z"/>
		</g>
		<g>
			<path class="st4" d="M674,454.9h-5.6c-1,0-1.8-0.8-1.8-1.8v-13.9c0-1,0.8-1.8,1.8-1.8h5.6c1,0,1.8,0.8,1.8,1.8v13.9
				C675.8,454.1,675,454.9,674,454.9z"/>
		</g>
		<g>
			<path class="st4" d="M657.4,492h-5.6c-1,0-1.8-0.8-1.8-1.8v-13.9c0-1,0.8-1.8,1.8-1.8h5.6c1,0,1.8,0.8,1.8,1.8v13.9
				C659.2,491.2,658.4,492,657.4,492z"/>
		</g>
		<g>
			<path class="st4" d="M674,491.9h-5.6c-1,0-1.8-0.8-1.8-1.8v-13.9c0-1,0.8-1.8,1.8-1.8h5.6c1,0,1.8,0.8,1.8,1.8v13.9
				C675.8,491.1,675,491.9,674,491.9z"/>
		</g>
		<g>
			<path class="st4" d="M657.4,528.6h-5.5c-1,0-1.8-0.8-1.8-1.8v-13.5c0-1,0.8-1.8,1.8-1.8h5.5c1,0,1.8,0.8,1.8,1.8v13.5
				C659.2,527.8,658.4,528.6,657.4,528.6z"/>
		</g>
		<g>
			<path class="st4" d="M674,529h-5.6c-1,0-1.8-0.8-1.8-1.8v-13.9c0-1,0.8-1.8,1.8-1.8h5.6c1,0,1.8,0.8,1.8,1.8v13.9
				C675.8,528.2,675,529,674,529z"/>
		</g>
		<g>
			<path class="st4" d="M657.4,566.6h-5.5c-1,0-1.8-0.8-1.8-1.8v-13.5c0-1,0.8-1.8,1.8-1.8h5.5c1,0,1.8,0.8,1.8,1.8v13.5
				C659.2,565.8,658.4,566.6,657.4,566.6z"/>
		</g>
		<g>
			<path class="st4" d="M674,566.9h-5.6c-1,0-1.8-0.8-1.8-1.8v-13.9c0-1,0.8-1.8,1.8-1.8h5.6c1,0,1.8,0.8,1.8,1.8v13.9
				C675.8,566.1,675,566.9,674,566.9z"/>
		</g>
		<g>
			<path class="st4" d="M657.4,605h-5.6c-1,0-1.8-0.8-1.8-1.8v-13.9c0-1,0.8-1.8,1.8-1.8h5.6c1,0,1.8,0.8,1.8,1.8v13.9
				C659.2,604.2,658.4,605,657.4,605z"/>
		</g>
		<g>
			<path class="st4" d="M674,604.5h-5.5c-1,0-1.8-0.8-1.8-1.8v-13.5c0-1,0.8-1.8,1.8-1.8h5.5c1,0,1.8,0.8,1.8,1.8v13.5
				C675.8,603.7,675,604.5,674,604.5z"/>
		</g>
		<g>
			<path class="st4" d="M657.4,643h-5.6c-1,0-1.8-0.8-1.8-1.8v-13.9c0-1,0.8-1.8,1.8-1.8h5.6c1,0,1.8,0.8,1.8,1.8v13.9
				C659.2,642.2,658.4,643,657.4,643z"/>
		</g>
		<g>
			<path class="st4" d="M674,642.4h-5.5c-1,0-1.8-0.8-1.8-1.8v-13.5c0-1,0.8-1.8,1.8-1.8h5.5c1,0,1.8,0.8,1.8,1.8v13.5
				C675.8,641.6,675,642.4,674,642.4z"/>
		</g>
		<g>
			<path class="st4" d="M657.4,679.2h-5.6c-1,0-1.8-0.8-1.8-1.8v-13.9c0-1,0.8-1.8,1.8-1.8h5.6c1,0,1.8,0.8,1.8,1.8v13.9
				C659.2,678.5,658.4,679.2,657.4,679.2z"/>
		</g>
		<g>
			<path class="st4" d="M674,679.7h-5.5c-1,0-1.8-0.8-1.8-1.8v-14.5c0-1,0.8-1.8,1.8-1.8h5.5c1,0,1.8,0.8,1.8,1.8v14.5
				C675.8,678.9,675,679.7,674,679.7z"/>
		</g>
		<g>
			<path class="st4" d="M657.4,716.2h-5.6c-1,0-1.8-0.8-1.8-1.8v-13.9c0-1,0.8-1.8,1.8-1.8h5.6c1,0,1.8,0.8,1.8,1.8v13.9
				C659.2,715.4,658.4,716.2,657.4,716.2z"/>
		</g>
		<g>
			<path class="st4" d="M674,716.1h-5.6c-1,0-1.8-0.8-1.8-1.8v-13.9c0-1,0.8-1.8,1.8-1.8h5.6c1,0,1.8,0.8,1.8,1.8v13.9
				C675.8,715.3,675,716.1,674,716.1z"/>
		</g>
		<path class="st7" d="M675.8,354.5H649c-0.9,0-1.7-0.4-2.3-1l-19.2-21c-1.7-1.8-0.3-4.7,2.3-4.7h26.8c0.9,0,1.7,0.4,2.3,1l19.2,21
			C679.8,351.7,678.4,354.5,675.8,354.5z"/>
		<path class="st2" d="M647.7,746.7h-36.2c-1.2,0-2.2-1-2.2-2.2v-12.6h38.4V746.7z"/>
		<path class="st4" d="M647.2,746.7h29.9c1.2,0,2.2-1,2.2-2.2v-12.6h-32v14.8H647.2z"/>
		<path class="st0" d="M654.4,336.2h-7.8c-0.6,0-1-0.5-1-1v-10.9h9.9v10.8C655.4,335.7,655,336.2,654.4,336.2z"/>
		<path class="st2" d="M654.4,336.2h-3.9v-11.9h4.9v10.8C655.4,335.7,654.9,336.2,654.4,336.2z"/>
		<path class="st0" d="M656.4,324.3h-11.9c-0.4,0-0.8-0.4-0.8-0.8V322c0-0.4,0.4-0.8,0.8-0.8h11.9c0.4,0,0.8,0.4,0.8,0.8v1.5
			C657.2,323.9,656.9,324.3,656.4,324.3z"/>
		<path class="st2" d="M656.4,324.3h-5.9v-3h5.9c0.5,0,0.8,0.4,0.8,0.8v1.4C657.2,323.9,656.8,324.3,656.4,324.3z"/>
	</g>
	<g>
		<g>
			<path class="st0" d="M714.9,749.8h-52.7c-3.1,0-5.5-4-5.5-9V584.6c0-2.8,0.8-5.4,2.2-7.2l21.7-27.1c1.9-2.3,4.5-2.5,6.4-0.4
				l28,30.2v169.7H714.9z"/>
			<path class="st2" d="M765.8,749.8h-50.9V580.1h50.9c4.1,0,7.3,3.3,7.3,7.3v155C773.1,746.5,769.8,749.8,765.8,749.8z"/>
			<g>
				<path class="st4" d="M729.9,616.1h-6c-1,0-1.8-0.8-1.8-1.8v-14.6c0-1,0.8-1.8,1.8-1.8h6c1,0,1.8,0.8,1.8,1.8v14.6
					C731.6,615.3,730.8,616.1,729.9,616.1z"/>
			</g>
			<g>
				<path class="st4" d="M729.9,654.4h-6c-1,0-1.8-0.8-1.8-1.8v-14.5c0-1,0.8-1.8,1.8-1.8h6c1,0,1.8,0.8,1.8,1.8v14.6
					C731.6,653.6,730.8,654.4,729.9,654.4z"/>
			</g>
			<g>
				<path class="st4" d="M746.9,616.1h-6c-1,0-1.8-0.8-1.8-1.8v-14.6c0-1,0.8-1.8,1.8-1.8h6c1,0,1.8,0.8,1.8,1.8v14.6
					C748.6,615.3,747.8,616.1,746.9,616.1z"/>
			</g>
			<g>
				<path class="st4" d="M764.1,616.1h-6c-1,0-1.8-0.8-1.8-1.8v-14.6c0-1,0.8-1.8,1.8-1.8h6c1,0,1.8,0.8,1.8,1.8v14.6
					C765.9,615.3,765.1,616.1,764.1,616.1z"/>
			</g>
			<g>
				<path class="st4" d="M746.9,654.4h-6c-1,0-1.8-0.8-1.8-1.8v-14.5c0-1,0.8-1.8,1.8-1.8h6c1,0,1.8,0.8,1.8,1.8v14.6
					C748.6,653.6,747.8,654.4,746.9,654.4z"/>
			</g>
			<g>
				<path class="st4" d="M764.1,654.4h-6c-1,0-1.8-0.8-1.8-1.8v-14.5c0-1,0.8-1.8,1.8-1.8h6c1,0,1.8,0.8,1.8,1.8v14.6
					C765.9,653.6,765.1,654.4,764.1,654.4z"/>
			</g>
			<g>
				<path class="st4" d="M729.9,691.1h-6c-1,0-1.8-0.8-1.8-1.8v-14.6c0-1,0.8-1.8,1.8-1.8h6c1,0,1.8,0.8,1.8,1.8v14.6
					C731.6,690.3,730.8,691.1,729.9,691.1z"/>
			</g>
			<g>
				<path class="st4" d="M729.9,729.4h-6c-1,0-1.8-0.8-1.8-1.8v-14.5c0-1,0.8-1.8,1.8-1.8h6c1,0,1.8,0.8,1.8,1.8v14.6
					C731.6,728.6,730.8,729.4,729.9,729.4z"/>
			</g>
			<g>
				<path class="st4" d="M746.9,691.1h-6c-1,0-1.8-0.8-1.8-1.8v-14.6c0-1,0.8-1.8,1.8-1.8h6c1,0,1.8,0.8,1.8,1.8v14.6
					C748.6,690.3,747.8,691.1,746.9,691.1z"/>
			</g>
			<g>
				<path class="st4" d="M764.1,691.1h-6c-1,0-1.8-0.8-1.8-1.8v-14.6c0-1,0.8-1.8,1.8-1.8h6c1,0,1.8,0.8,1.8,1.8v14.6
					C765.9,690.3,765.1,691.1,764.1,691.1z"/>
			</g>
			<g>
				<path class="st4" d="M746.9,729.4h-6c-1,0-1.8-0.8-1.8-1.8v-14.5c0-1,0.8-1.8,1.8-1.8h6c1,0,1.8,0.8,1.8,1.8v14.6
					C748.6,728.6,747.8,729.4,746.9,729.4z"/>
			</g>
			<g>
				<path class="st4" d="M764.1,729.4h-6c-1,0-1.8-0.8-1.8-1.8v-14.5c0-1,0.8-1.8,1.8-1.8h6c1,0,1.8,0.8,1.8,1.8v14.6
					C765.9,728.6,765.1,729.4,764.1,729.4z"/>
			</g>
			<g>
				<path class="st4" d="M671.6,616.1h-6c-1,0-1.8-0.8-1.8-1.8v-14.6c0-1,0.8-1.8,1.8-1.8h6c1,0,1.8,0.8,1.8,1.8v14.6
					C673.4,615.3,672.6,616.1,671.6,616.1z"/>
			</g>
			<g>
				<path class="st4" d="M671.6,654.4h-6c-1,0-1.8-0.8-1.8-1.8v-14.5c0-1,0.8-1.8,1.8-1.8h6c1,0,1.8,0.8,1.8,1.8v14.6
					C673.4,653.6,672.6,654.4,671.6,654.4z"/>
			</g>
			<g>
				<path class="st4" d="M688.6,616.1h-6c-1,0-1.8-0.8-1.8-1.8v-14.6c0-1,0.8-1.8,1.8-1.8h6c1,0,1.8,0.8,1.8,1.8v14.6
					C690.4,615.3,689.6,616.1,688.6,616.1z"/>
			</g>
			<g>
				<path class="st4" d="M705.8,616.1h-6c-1,0-1.8-0.8-1.8-1.8v-14.6c0-1,0.8-1.8,1.8-1.8h6c1,0,1.8,0.8,1.8,1.8v14.6
					C707.6,615.3,706.8,616.1,705.8,616.1z"/>
			</g>
			<g>
				<path class="st4" d="M688.6,654.4h-6c-1,0-1.8-0.8-1.8-1.8v-14.5c0-1,0.8-1.8,1.8-1.8h6c1,0,1.8,0.8,1.8,1.8v14.6
					C690.4,653.6,689.6,654.4,688.6,654.4z"/>
			</g>
			<g>
				<path class="st4" d="M705.8,654.4h-6c-1,0-1.8-0.8-1.8-1.8v-14.5c0-1,0.8-1.8,1.8-1.8h6c1,0,1.8,0.8,1.8,1.8v14.6
					C707.6,653.6,706.8,654.4,705.8,654.4z"/>
			</g>
			<g>
				<path class="st4" d="M671.6,691.1h-6c-1,0-1.8-0.8-1.8-1.8v-14.6c0-1,0.8-1.8,1.8-1.8h6c1,0,1.8,0.8,1.8,1.8v14.6
					C673.4,690.3,672.6,691.1,671.6,691.1z"/>
			</g>
			<g>
				<path class="st4" d="M671.6,729.4h-6c-1,0-1.8-0.8-1.8-1.8v-14.5c0-1,0.8-1.8,1.8-1.8h6c1,0,1.8,0.8,1.8,1.8v14.6
					C673.4,728.6,672.6,729.4,671.6,729.4z"/>
			</g>
			<g>
				<path class="st4" d="M688.6,691.1h-6c-1,0-1.8-0.8-1.8-1.8v-14.6c0-1,0.8-1.8,1.8-1.8h6c1,0,1.8,0.8,1.8,1.8v14.6
					C690.4,690.3,689.6,691.1,688.6,691.1z"/>
			</g>
			<g>
				<path class="st4" d="M705.8,691.1h-6c-1,0-1.8-0.8-1.8-1.8v-14.6c0-1,0.8-1.8,1.8-1.8h6c1,0,1.8,0.8,1.8,1.8v14.6
					C707.6,690.3,706.8,691.1,705.8,691.1z"/>
			</g>
			<g>
				<path class="st4" d="M688.6,729.4h-6c-1,0-1.8-0.8-1.8-1.8v-14.5c0-1,0.8-1.8,1.8-1.8h6c1,0,1.8,0.8,1.8,1.8v14.6
					C690.4,728.6,689.6,729.4,688.6,729.4z"/>
			</g>
			<g>
				<path class="st4" d="M705.8,729.4h-6c-1,0-1.8-0.8-1.8-1.8v-14.5c0-1,0.8-1.8,1.8-1.8h6c1,0,1.8,0.8,1.8,1.8v14.6
					C707.6,728.6,706.8,729.4,705.8,729.4z"/>
			</g>
			<path class="st5" d="M764.9,583.5h-46.7c-1.6,0-3-0.5-4.1-1.4l-33.5-29.3c-2.9-2.6-0.5-6.5,4.1-6.5h46.7c1.6,0,3,0.5,4.1,1.4
				L769,577C771.9,579.5,769.4,583.5,764.9,583.5z"/>
		</g>
		<path class="st2" d="M714.9,749.8h-51.3c-3.8,0-6.9-3.1-6.9-6.9v-7.7H715L714.9,749.8L714.9,749.8z"/>
		<path class="st4" d="M714.9,749.8h51.3c3.8,0,6.9-3.1,6.9-6.9v-7.7h-58.3L714.9,749.8L714.9,749.8z"/>
		<path class="st0" d="M731.1,563.5h-17.9c-0.6,0-1-0.5-1-1v-22.9h19.9v22.9C732.1,563,731.6,563.5,731.1,563.5z"/>
		<path class="st2" d="M731,563.5h-8.9v-24h10v22.9C732.1,563,731.6,563.5,731,563.5z"/>
		<path class="st0" d="M735,542.6h-25.6c-0.4,0-0.8-0.4-0.8-0.8v-4.5c0-0.4,0.4-0.8,0.8-0.8H735c0.4,0,0.8,0.4,0.8,0.8v4.5
			C735.8,542.3,735.4,542.6,735,542.6z"/>
		<path class="st2" d="M734.9,542.6h-12.8v-6.1h12.8c0.5,0,0.8,0.4,0.8,0.8v4.5C735.8,542.2,735.4,542.6,734.9,542.6z"/>
	</g>
	<g>
		<path class="st0" d="M349.9,751.5H405c3.2,0,5.8-4.2,5.8-9.4V578.8c0-2.9-0.8-5.7-2.3-7.5L385.8,543c-2-2.5-4.7-2.6-6.7-0.4
			l-29.2,31.5V751.5z"/>
		<path class="st2" d="M296.4,751.5h53.5V574.1h-53.5c-4.1,0-7.3,3.3-7.3,7.3v162.7C289,748.2,292.3,751.5,296.4,751.5z"/>
		<g>
			<path class="st4" d="M334.2,611.7h6.4c1,0,1.8-0.8,1.8-1.8v-15.4c0-1-0.8-1.8-1.8-1.8h-6.4c-1,0-1.8,0.8-1.8,1.8v15.4
				C332.4,610.9,333.2,611.7,334.2,611.7z"/>
		</g>
		<g>
			<path class="st4" d="M334.2,651.8h6.4c1,0,1.8-0.8,1.8-1.8v-15.4c0-1-0.8-1.8-1.8-1.8h-6.4c-1,0-1.8,0.8-1.8,1.8V650
				C332.4,651,333.2,651.8,334.2,651.8z"/>
		</g>
		<g>
			<path class="st4" d="M316.4,611.7h6.4c1,0,1.8-0.8,1.8-1.8v-15.4c0-1-0.8-1.8-1.8-1.8h-6.4c-1,0-1.8,0.8-1.8,1.8v15.4
				C314.6,610.9,315.4,611.7,316.4,611.7z"/>
		</g>
		<g>
			<path class="st4" d="M298.4,611.7h6.4c1,0,1.8-0.8,1.8-1.8v-15.4c0-1-0.8-1.8-1.8-1.8h-6.4c-1,0-1.8,0.8-1.8,1.8v15.4
				C296.6,610.9,297.4,611.7,298.4,611.7z"/>
		</g>
		<g>
			<path class="st4" d="M316.4,651.8h6.4c1,0,1.8-0.8,1.8-1.8v-15.4c0-1-0.8-1.8-1.8-1.8h-6.4c-1,0-1.8,0.8-1.8,1.8V650
				C314.6,651,315.4,651.8,316.4,651.8z"/>
		</g>
		<g>
			<path class="st4" d="M298.4,651.8h6.4c1,0,1.8-0.8,1.8-1.8v-15.4c0-1-0.8-1.8-1.8-1.8h-6.4c-1,0-1.8,0.8-1.8,1.8V650
				C296.6,651,297.4,651.8,298.4,651.8z"/>
		</g>
		<g>
			<path class="st4" d="M334.2,690.1h6.4c1,0,1.8-0.8,1.8-1.8v-15.4c0-1-0.8-1.8-1.8-1.8h-6.4c-1,0-1.8,0.8-1.8,1.8v15.4
				C332.4,689.3,333.2,690.1,334.2,690.1z"/>
		</g>
		<g>
			<path class="st4" d="M334.2,730.1h6.4c1,0,1.8-0.8,1.8-1.8v-15.4c0-1-0.8-1.8-1.8-1.8h-6.4c-1,0-1.8,0.8-1.8,1.8v15.4
				C332.4,729.4,333.2,730.1,334.2,730.1z"/>
		</g>
		<g>
			<path class="st4" d="M316.4,690.1h6.4c1,0,1.8-0.8,1.8-1.8v-15.4c0-1-0.8-1.8-1.8-1.8h-6.4c-1,0-1.8,0.8-1.8,1.8v15.4
				C314.6,689.3,315.4,690.1,316.4,690.1z"/>
		</g>
		<g>
			<path class="st4" d="M298.4,690.1h6.4c1,0,1.8-0.8,1.8-1.8v-15.4c0-1-0.8-1.8-1.8-1.8h-6.4c-1,0-1.8,0.8-1.8,1.8v15.4
				C296.6,689.3,297.4,690.1,298.4,690.1z"/>
		</g>
		<g>
			<path class="st4" d="M316.4,730.1h6.4c1,0,1.8-0.8,1.8-1.8v-15.4c0-1-0.8-1.8-1.8-1.8h-6.4c-1,0-1.8,0.8-1.8,1.8v15.4
				C314.6,729.3,315.4,730.1,316.4,730.1z"/>
		</g>
		<g>
			<path class="st4" d="M298.4,730.1h6.4c1,0,1.8-0.8,1.8-1.8v-15.4c0-1-0.8-1.8-1.8-1.8h-6.4c-1,0-1.8,0.8-1.8,1.8v15.4
				C296.6,729.4,297.4,730.1,298.4,730.1z"/>
		</g>
		<g>
			<path class="st4" d="M395,611.7h6.4c1,0,1.8-0.8,1.8-1.8v-15.4c0-1-0.8-1.8-1.8-1.8H395c-1,0-1.8,0.8-1.8,1.8v15.4
				C393.3,610.9,394.1,611.7,395,611.7z"/>
		</g>
		<g>
			<path class="st4" d="M395,651.8h6.4c1,0,1.8-0.8,1.8-1.8v-15.4c0-1-0.8-1.8-1.8-1.8H395c-1,0-1.8,0.8-1.8,1.8V650
				C393.3,651,394.1,651.8,395,651.8z"/>
		</g>
		<g>
			<path class="st4" d="M377.3,611.7h6.4c1,0,1.8-0.8,1.8-1.8v-15.4c0-1-0.8-1.8-1.8-1.8h-6.4c-1,0-1.8,0.8-1.8,1.8v15.4
				C375.5,610.9,376.3,611.7,377.3,611.7z"/>
		</g>
		<g>
			<path class="st4" d="M359.3,611.7h6.4c1,0,1.8-0.8,1.8-1.8v-15.4c0-1-0.8-1.8-1.8-1.8h-6.4c-1,0-1.8,0.8-1.8,1.8v15.4
				C357.5,610.9,358.3,611.7,359.3,611.7z"/>
		</g>
		<g>
			<path class="st4" d="M377.3,651.8h6.4c1,0,1.8-0.8,1.8-1.8v-15.4c0-1-0.8-1.8-1.8-1.8h-6.4c-1,0-1.8,0.8-1.8,1.8V650
				C375.5,651,376.3,651.8,377.3,651.8z"/>
		</g>
		<g>
			<path class="st4" d="M359.3,651.8h6.4c1,0,1.8-0.8,1.8-1.8v-15.4c0-1-0.8-1.8-1.8-1.8h-6.4c-1,0-1.8,0.8-1.8,1.8V650
				C357.5,651,358.3,651.8,359.3,651.8z"/>
		</g>
		<g>
			<path class="st4" d="M395,690.1h6.4c1,0,1.8-0.8,1.8-1.8v-15.4c0-1-0.8-1.8-1.8-1.8H395c-1,0-1.8,0.8-1.8,1.8v15.4
				C393.3,689.3,394.1,690.1,395,690.1z"/>
		</g>
		<g>
			<path class="st4" d="M395,730.1h6.4c1,0,1.8-0.8,1.8-1.8v-15.4c0-1-0.8-1.8-1.8-1.8H395c-1,0-1.8,0.8-1.8,1.8v15.4
				C393.3,729.4,394.1,730.1,395,730.1z"/>
		</g>
		<g>
			<path class="st4" d="M377.3,690.1h6.4c1,0,1.8-0.8,1.8-1.8v-15.4c0-1-0.8-1.8-1.8-1.8h-6.4c-1,0-1.8,0.8-1.8,1.8v15.4
				C375.5,689.3,376.3,690.1,377.3,690.1z"/>
		</g>
		<g>
			<path class="st4" d="M359.3,690.1h6.4c1,0,1.8-0.8,1.8-1.8v-15.4c0-1-0.8-1.8-1.8-1.8h-6.4c-1,0-1.8,0.8-1.8,1.8v15.4
				C357.5,689.3,358.3,690.1,359.3,690.1z"/>
		</g>
		<g>
			<path class="st4" d="M377.3,730.1h6.4c1,0,1.8-0.8,1.8-1.8v-15.4c0-1-0.8-1.8-1.8-1.8h-6.4c-1,0-1.8,0.8-1.8,1.8v15.4
				C375.5,729.3,376.3,730.1,377.3,730.1z"/>
		</g>
		<g>
			<path class="st4" d="M359.3,730.1h6.4c1,0,1.8-0.8,1.8-1.8v-15.4c0-1-0.8-1.8-1.8-1.8h-6.4c-1,0-1.8,0.8-1.8,1.8v15.4
				C357.5,729.4,358.3,730.1,359.3,730.1z"/>
		</g>
		<path class="st4" d="M297.7,577.6h48.8c1.6,0,3.2-0.5,4.2-1.5l35-30.7c3.1-2.7,0.5-6.8-4.2-6.8h-48.8c-1.6,0-3.2,0.5-4.2,1.5
			l-35,30.7C290.3,573.5,292.9,577.6,297.7,577.6z"/>
		<path class="st2" d="M349.9,751.5h54c3.8,0,6.9-3.1,6.9-6.9v-8.3h-60.9V751.5z"/>
		<path class="st4" d="M349.9,751.5h-54c-3.8,0-6.9-3.1-6.9-6.9v-8.3h60.9V751.5z"/>
		<path class="st0" d="M332.9,556.7h18.8c0.6,0,1-0.5,1-1v-24h-20.8v24C331.9,556.3,332.4,556.7,332.9,556.7z"/>
		<path class="st2" d="M333,556.7h9.4v-25H332v24C331.9,556.3,332.4,556.7,333,556.7z"/>
		<path class="st0" d="M328.9,534.9h26.9c0.4,0,0.8-0.4,0.8-0.8v-4.8c0-0.4-0.4-0.8-0.8-0.8h-26.9c-0.4,0-0.8,0.4-0.8,0.8v4.8
			C328.1,534.5,328.4,534.9,328.9,534.9z"/>
		<path class="st2" d="M328.9,534.9h13.4v-6.4h-13.4c-0.5,0-0.8,0.4-0.8,0.8v4.7C328.1,534.5,328.4,534.9,328.9,534.9z"/>
	</g>
	<g>
		<path class="st6" d="M442.9,741.1h40.2c2.3,0,4.2-3,4.2-6.7V618.6c0-2.1-0.6-4-1.7-5.3l-16.5-20.1c-1.4-1.7-3.4-1.8-4.9-0.3
			l-21.3,22.4L442.9,741.1L442.9,741.1z"/>
		<path class="st2" d="M403.6,745.5h39.3V616h-37.1c-4.1,0-7.3,3.3-7.3,7.3v117C398.5,743.2,400.8,745.5,403.6,745.5z"/>
		<g>
			<path class="st4" d="M431.9,643.5h3.7c1,0,1.8-0.8,1.8-1.8v-10.3c0-1-0.8-1.8-1.8-1.8h-3.7c-1,0-1.8,0.8-1.8,1.8v10.3
				C430.1,642.7,430.9,643.5,431.9,643.5z"/>
		</g>
		<g>
			<path class="st4" d="M431.9,672.7h3.7c1,0,1.8-0.8,1.8-1.8v-10.3c0-1-0.8-1.8-1.8-1.8h-3.7c-1,0-1.8,0.8-1.8,1.8v10.3
				C430.1,671.9,430.9,672.7,431.9,672.7z"/>
		</g>
		<g>
			<path class="st4" d="M418.9,643.5h3.7c1,0,1.8-0.8,1.8-1.8v-10.3c0-1-0.8-1.8-1.8-1.8h-3.7c-1,0-1.8,0.8-1.8,1.8v10.3
				C417.1,642.7,417.9,643.5,418.9,643.5z"/>
		</g>
		<g>
			<path class="st4" d="M405.8,643.5h3.7c1,0,1.8-0.8,1.8-1.8v-10.3c0-1-0.8-1.8-1.8-1.8h-3.7c-1,0-1.8,0.8-1.8,1.8v10.3
				C404,642.7,404.8,643.5,405.8,643.5z"/>
		</g>
		<g>
			<path class="st4" d="M418.9,672.7h3.7c1,0,1.8-0.8,1.8-1.8v-10.3c0-1-0.8-1.8-1.8-1.8h-3.7c-1,0-1.8,0.8-1.8,1.8v10.3
				C417.1,671.9,417.9,672.7,418.9,672.7z"/>
		</g>
		<g>
			<path class="st4" d="M405.8,672.7h3.7c1,0,1.8-0.8,1.8-1.8v-10.3c0-1-0.8-1.8-1.8-1.8h-3.7c-1,0-1.8,0.8-1.8,1.8v10.3
				C404,671.9,404.8,672.7,405.8,672.7z"/>
		</g>
		<g>
			<path class="st4" d="M431.9,700.7h3.7c1,0,1.8-0.8,1.8-1.8v-10.3c0-1-0.8-1.8-1.8-1.8h-3.7c-1,0-1.8,0.8-1.8,1.8v10.3
				C430.1,699.9,430.9,700.7,431.9,700.7z"/>
		</g>
		<g>
			<path class="st4" d="M431.9,729.9h3.7c1,0,1.8-0.8,1.8-1.8v-10.3c0-1-0.8-1.8-1.8-1.8h-3.7c-1,0-1.8,0.8-1.8,1.8v10.3
				C430.1,729.2,430.9,729.9,431.9,729.9z"/>
		</g>
		<g>
			<path class="st4" d="M418.9,700.7h3.7c1,0,1.8-0.8,1.8-1.8v-10.3c0-1-0.8-1.8-1.8-1.8h-3.7c-1,0-1.8,0.8-1.8,1.8v10.3
				C417.1,699.9,417.9,700.7,418.9,700.7z"/>
		</g>
		<g>
			<path class="st4" d="M405.8,700.7h3.7c1,0,1.8-0.8,1.8-1.8v-10.3c0-1-0.8-1.8-1.8-1.8h-3.7c-1,0-1.8,0.8-1.8,1.8v10.3
				C404,699.9,404.8,700.7,405.8,700.7z"/>
		</g>
		<g>
			<path class="st4" d="M418.9,729.9h3.7c1,0,1.8-0.8,1.8-1.8v-10.3c0-1-0.8-1.8-1.8-1.8h-3.7c-1,0-1.8,0.8-1.8,1.8v10.3
				C417.1,729.2,417.9,729.9,418.9,729.9z"/>
		</g>
		<g>
			<path class="st4" d="M405.8,729.9h3.7c1,0,1.8-0.8,1.8-1.8v-10.3c0-1-0.8-1.8-1.8-1.8h-3.7c-1,0-1.8,0.8-1.8,1.8v10.3
				C404,729.2,404.8,729.9,405.8,729.9z"/>
		</g>
		<g>
			<path class="st4" d="M476.3,643.5h3.7c1,0,1.8-0.8,1.8-1.8v-10.3c0-1-0.8-1.8-1.8-1.8h-3.7c-1,0-1.8,0.8-1.8,1.8v10.3
				C474.6,642.7,475.3,643.5,476.3,643.5z"/>
		</g>
		<g>
			<path class="st4" d="M476.3,672.7h3.7c1,0,1.8-0.8,1.8-1.8v-10.3c0-1-0.8-1.8-1.8-1.8h-3.7c-1,0-1.8,0.8-1.8,1.8v10.3
				C474.6,671.9,475.3,672.7,476.3,672.7z"/>
		</g>
		<g>
			<path class="st4" d="M463.3,643.5h3.7c1,0,1.8-0.8,1.8-1.8v-10.3c0-1-0.8-1.8-1.8-1.8h-3.7c-1,0-1.8,0.8-1.8,1.8v10.3
				C461.6,642.7,462.4,643.5,463.3,643.5z"/>
		</g>
		<g>
			<path class="st4" d="M450.2,643.5h3.7c1,0,1.8-0.8,1.8-1.8v-10.3c0-1-0.8-1.8-1.8-1.8h-3.7c-1,0-1.8,0.8-1.8,1.8v10.3
				C448.4,642.7,449.2,643.5,450.2,643.5z"/>
		</g>
		<g>
			<path class="st4" d="M463.3,672.7h3.7c1,0,1.8-0.8,1.8-1.8v-10.3c0-1-0.8-1.8-1.8-1.8h-3.7c-1,0-1.8,0.8-1.8,1.8v10.3
				C461.6,671.9,462.4,672.7,463.3,672.7z"/>
		</g>
		<g>
			<path class="st4" d="M450.2,672.7h3.7c1,0,1.8-0.8,1.8-1.8v-10.3c0-1-0.8-1.8-1.8-1.8h-3.7c-1,0-1.8,0.8-1.8,1.8v10.3
				C448.4,671.9,449.2,672.7,450.2,672.7z"/>
		</g>
		<g>
			<path class="st4" d="M476.3,700.7h3.7c1,0,1.8-0.8,1.8-1.8v-10.3c0-1-0.8-1.8-1.8-1.8h-3.7c-1,0-1.8,0.8-1.8,1.8v10.3
				C474.6,699.9,475.3,700.7,476.3,700.7z"/>
		</g>
		<g>
			<path class="st4" d="M476.3,729.9h3.7c1,0,1.8-0.8,1.8-1.8v-10.3c0-1-0.8-1.8-1.8-1.8h-3.7c-1,0-1.8,0.8-1.8,1.8v10.3
				C474.6,729.2,475.3,729.9,476.3,729.9z"/>
		</g>
		<g>
			<path class="st4" d="M463.3,700.7h3.7c1,0,1.8-0.8,1.8-1.8v-10.3c0-1-0.8-1.8-1.8-1.8h-3.7c-1,0-1.8,0.8-1.8,1.8v10.3
				C461.6,699.9,462.4,700.7,463.3,700.7z"/>
		</g>
		<g>
			<path class="st4" d="M450.2,700.7h3.7c1,0,1.8-0.8,1.8-1.8v-10.3c0-1-0.8-1.8-1.8-1.8h-3.7c-1,0-1.8,0.8-1.8,1.8v10.3
				C448.4,699.9,449.2,700.7,450.2,700.7z"/>
		</g>
		<g>
			<path class="st4" d="M463.3,729.9h3.7c1,0,1.8-0.8,1.8-1.8v-10.3c0-1-0.8-1.8-1.8-1.8h-3.7c-1,0-1.8,0.8-1.8,1.8v10.3
				C461.6,729.2,462.4,729.9,463.3,729.9z"/>
		</g>
		<g>
			<path class="st4" d="M450.2,729.9h3.7c1,0,1.8-0.8,1.8-1.8v-10.3c0-1-0.8-1.8-1.8-1.8h-3.7c-1,0-1.8,0.8-1.8,1.8v10.3
				C448.4,729.2,449.2,729.9,450.2,729.9z"/>
		</g>
		<path class="st5" d="M404.7,618.6h35.6c1.2,0,2.3-0.4,3.1-1.1l25.5-22.4c2.2-2,0.4-5-3.1-5h-35.6c-1.2,0-2.3,0.4-3.1,1.1
			l-25.5,22.4C399.4,615.6,401.3,618.6,404.7,618.6z"/>
		<path class="st2" d="M442.9,745.5h40.3c2.3,0,4.2-1.9,4.2-4.2v-6.9H443v11.1H442.9z"/>
		<path class="st4" d="M442.9,745.5h-39.7c-2.6,0-4.7-2.1-4.7-4.7v-6.4h44.4L442.9,745.5L442.9,745.5z"/>
		<path class="st6" d="M430.8,603.4H444c0.6,0,1-0.5,1-1v-17.3h-15.2v17.3C429.8,602.9,430.2,603.4,430.8,603.4z"/>
		<path class="st2" d="M430.8,603.4h6.5v-18.3h-7.6v17.2C429.8,602.9,430.2,603.4,430.8,603.4z"/>
		<path class="st6" d="M427.7,587.4h19.2c0.4,0,0.8-0.4,0.8-0.8v-3.1c0-0.4-0.4-0.8-0.8-0.8h-19.2c-0.4,0-0.8,0.4-0.8,0.8v3.1
			C427,587.1,427.3,587.4,427.7,587.4z"/>
		<path class="st2" d="M427.8,587.4h9.5v-4.7h-9.5c-0.5,0-0.8,0.4-0.8,0.8v3C427,587,427.3,587.4,427.8,587.4z"/>
	</g>
	<g>
		<path class="st2" d="M1109.6,770.3h-29.4v-396h29.4c1.5,0,2.6,1.2,2.6,2.6v390.7C1112.2,769.1,1111,770.3,1109.6,770.3z"/>
		<path class="st0" d="M1070.4,362.7l-7.9-9.7c-0.8-1-2.3-0.9-3.1,0.1l-7.9,9.6l-9,11c-0.3,0.4-0.5,0.9-0.5,1.4v393
			c0,1.2,1,2.2,2.2,2.2h35.8V375.1c0-0.5-0.2-1-0.5-1.4L1070.4,362.7z"/>
		<g>
			<path class="st4" d="M1057.3,405.6h-5.6c-1,0-1.8-0.8-1.8-1.8v-13.9c0-1,0.8-1.8,1.8-1.8h5.6c1,0,1.8,0.8,1.8,1.8v13.9
				C1059.1,404.8,1058.3,405.6,1057.3,405.6z"/>
		</g>
		<g>
			<path class="st4" d="M1073.9,405.6h-5.6c-1,0-1.8-0.8-1.8-1.8v-13.9c0-1,0.8-1.8,1.8-1.8h5.6c1,0,1.8,0.8,1.8,1.8v13.9
				C1075.7,404.8,1074.9,405.6,1073.9,405.6z"/>
		</g>
		<g>
			<path class="st4" d="M1057.3,442.6h-5.6c-1,0-1.8-0.8-1.8-1.8v-13.9c0-1,0.8-1.8,1.8-1.8h5.6c1,0,1.8,0.8,1.8,1.8v13.9
				C1059.1,441.8,1058.3,442.6,1057.3,442.6z"/>
		</g>
		<g>
			<path class="st4" d="M1073.9,442.6h-5.6c-1,0-1.8-0.8-1.8-1.8v-13.9c0-1,0.8-1.8,1.8-1.8h5.6c1,0,1.8,0.8,1.8,1.8v13.9
				C1075.7,441.8,1074.9,442.6,1073.9,442.6z"/>
		</g>
		<g>
			<path class="st4" d="M1057.3,478.6h-5.6c-1,0-1.8-0.8-1.8-1.8v-13.9c0-1,0.8-1.8,1.8-1.8h5.6c1,0,1.8,0.8,1.8,1.8v13.9
				C1059.1,477.8,1058.3,478.6,1057.3,478.6z"/>
		</g>
		<g>
			<path class="st4" d="M1073.9,478.5h-5.6c-1,0-1.8-0.8-1.8-1.8v-13.9c0-1,0.8-1.8,1.8-1.8h5.6c1,0,1.8,0.8,1.8,1.8v13.9
				C1075.7,477.7,1074.9,478.5,1073.9,478.5z"/>
		</g>
		<g>
			<path class="st4" d="M1057.3,515.5h-5.6c-1,0-1.8-0.8-1.8-1.8v-13.9c0-1,0.8-1.8,1.8-1.8h5.6c1,0,1.8,0.8,1.8,1.8v13.9
				C1059.1,514.7,1058.3,515.5,1057.3,515.5z"/>
		</g>
		<g>
			<path class="st4" d="M1073.9,515.4h-5.6c-1,0-1.8-0.8-1.8-1.8v-13.9c0-1,0.8-1.8,1.8-1.8h5.6c1,0,1.8,0.8,1.8,1.8v13.9
				C1075.7,514.6,1074.9,515.4,1073.9,515.4z"/>
		</g>
		<g>
			<path class="st4" d="M1057.3,552.2h-5.5c-1,0-1.8-0.8-1.8-1.8v-13.5c0-1,0.8-1.8,1.8-1.8h5.5c1,0,1.8,0.8,1.8,1.8v13.5
				C1059.1,551.4,1058.3,552.2,1057.3,552.2z"/>
		</g>
		<g>
			<path class="st4" d="M1073.9,552.5h-5.6c-1,0-1.8-0.8-1.8-1.8v-13.9c0-1,0.8-1.8,1.8-1.8h5.6c1,0,1.8,0.8,1.8,1.8v13.9
				C1075.7,551.8,1074.9,552.5,1073.9,552.5z"/>
		</g>
		<g>
			<path class="st4" d="M1057.3,590.1h-5.5c-1,0-1.8-0.8-1.8-1.8v-13.5c0-1,0.8-1.8,1.8-1.8h5.5c1,0,1.8,0.8,1.8,1.8v13.5
				C1059.1,589.3,1058.3,590.1,1057.3,590.1z"/>
		</g>
		<g>
			<path class="st4" d="M1073.9,590.5h-5.6c-1,0-1.8-0.8-1.8-1.8v-13.9c0-1,0.8-1.8,1.8-1.8h5.6c1,0,1.8,0.8,1.8,1.8v13.9
				C1075.7,589.7,1074.9,590.5,1073.9,590.5z"/>
		</g>
		<g>
			<path class="st4" d="M1057.3,628.6h-5.6c-1,0-1.8-0.8-1.8-1.8v-13.9c0-1,0.8-1.8,1.8-1.8h5.6c1,0,1.8,0.8,1.8,1.8v13.9
				C1059.1,627.8,1058.3,628.6,1057.3,628.6z"/>
		</g>
		<g>
			<path class="st4" d="M1073.9,628.1h-5.5c-1,0-1.8-0.8-1.8-1.8v-13.5c0-1,0.8-1.8,1.8-1.8h5.5c1,0,1.8,0.8,1.8,1.8v13.5
				C1075.7,627.3,1074.9,628.1,1073.9,628.1z"/>
		</g>
		<g>
			<path class="st4" d="M1057.3,666.6h-5.6c-1,0-1.8-0.8-1.8-1.8v-13.9c0-1,0.8-1.8,1.8-1.8h5.6c1,0,1.8,0.8,1.8,1.8v13.9
				C1059.1,665.8,1058.3,666.6,1057.3,666.6z"/>
		</g>
		<g>
			<path class="st4" d="M1073.9,666h-5.5c-1,0-1.8-0.8-1.8-1.8v-13.5c0-1,0.8-1.8,1.8-1.8h5.5c1,0,1.8,0.8,1.8,1.8v13.5
				C1075.7,665.2,1074.9,666,1073.9,666z"/>
		</g>
		<g>
			<path class="st4" d="M1057.3,702.8h-5.6c-1,0-1.8-0.8-1.8-1.8v-13.9c0-1,0.8-1.8,1.8-1.8h5.6c1,0,1.8,0.8,1.8,1.8v14
				C1059.1,702,1058.3,702.8,1057.3,702.8z"/>
		</g>
		<g>
			<path class="st4" d="M1073.9,703.3h-5.5c-1,0-1.8-0.8-1.8-1.8V687c0-1,0.8-1.8,1.8-1.8h5.5c1,0,1.8,0.8,1.8,1.8v14.5
				C1075.7,702.5,1074.9,703.3,1073.9,703.3z"/>
		</g>
		<g>
			<path class="st4" d="M1057.3,739.8h-5.6c-1,0-1.8-0.8-1.8-1.8v-13.9c0-1,0.8-1.8,1.8-1.8h5.6c1,0,1.8,0.8,1.8,1.8V738
				C1059.1,739,1058.3,739.8,1057.3,739.8z"/>
		</g>
		<g>
			<path class="st4" d="M1073.9,739.7h-5.6c-1,0-1.8-0.8-1.8-1.8V724c0-1,0.8-1.8,1.8-1.8h5.6c1,0,1.8,0.8,1.8,1.8v13.9
				C1075.7,738.9,1074.9,739.7,1073.9,739.7z"/>
		</g>
		<g>
			<path class="st4" d="M1090.3,405.6h-5.6c-1,0-1.8-0.8-1.8-1.8v-13.9c0-1,0.8-1.8,1.8-1.8h5.6c1,0,1.8,0.8,1.8,1.8v13.9
				C1092.1,404.8,1091.3,405.6,1090.3,405.6z"/>
		</g>
		<g>
			<path class="st4" d="M1106.9,405.6h-5.6c-1,0-1.8-0.8-1.8-1.8v-13.9c0-1,0.8-1.8,1.8-1.8h5.6c1,0,1.8,0.8,1.8,1.8v13.9
				C1108.7,404.8,1107.9,405.6,1106.9,405.6z"/>
		</g>
		<g>
			<path class="st4" d="M1090.3,442.6h-5.6c-1,0-1.8-0.8-1.8-1.8v-13.9c0-1,0.8-1.8,1.8-1.8h5.6c1,0,1.8,0.8,1.8,1.8v13.9
				C1092.1,441.8,1091.3,442.6,1090.3,442.6z"/>
		</g>
		<g>
			<path class="st4" d="M1106.9,442.6h-5.6c-1,0-1.8-0.8-1.8-1.8v-13.9c0-1,0.8-1.8,1.8-1.8h5.6c1,0,1.8,0.8,1.8,1.8v13.9
				C1108.7,441.8,1107.9,442.6,1106.9,442.6z"/>
		</g>
		<g>
			<path class="st4" d="M1090.3,478.6h-5.6c-1,0-1.8-0.8-1.8-1.8v-13.9c0-1,0.8-1.8,1.8-1.8h5.6c1,0,1.8,0.8,1.8,1.8v13.9
				C1092.1,477.8,1091.3,478.6,1090.3,478.6z"/>
		</g>
		<g>
			<path class="st4" d="M1106.9,478.5h-5.6c-1,0-1.8-0.8-1.8-1.8v-13.9c0-1,0.8-1.8,1.8-1.8h5.6c1,0,1.8,0.8,1.8,1.8v13.9
				C1108.7,477.7,1107.9,478.5,1106.9,478.5z"/>
		</g>
		<g>
			<path class="st4" d="M1090.3,515.5h-5.6c-1,0-1.8-0.8-1.8-1.8v-13.9c0-1,0.8-1.8,1.8-1.8h5.6c1,0,1.8,0.8,1.8,1.8v13.9
				C1092.1,514.7,1091.3,515.5,1090.3,515.5z"/>
		</g>
		<g>
			<path class="st4" d="M1106.9,515.4h-5.6c-1,0-1.8-0.8-1.8-1.8v-13.9c0-1,0.8-1.8,1.8-1.8h5.6c1,0,1.8,0.8,1.8,1.8v13.9
				C1108.7,514.6,1107.9,515.4,1106.9,515.4z"/>
		</g>
		<g>
			<path class="st4" d="M1090.3,552.2h-5.5c-1,0-1.8-0.8-1.8-1.8v-13.5c0-1,0.8-1.8,1.8-1.8h5.5c1,0,1.8,0.8,1.8,1.8v13.5
				C1092.1,551.4,1091.3,552.2,1090.3,552.2z"/>
		</g>
		<g>
			<path class="st4" d="M1106.9,552.5h-5.6c-1,0-1.8-0.8-1.8-1.8v-13.9c0-1,0.8-1.8,1.8-1.8h5.6c1,0,1.8,0.8,1.8,1.8v13.9
				C1108.7,551.8,1107.9,552.5,1106.9,552.5z"/>
		</g>
		<g>
			<path class="st4" d="M1090.3,590.1h-5.5c-1,0-1.8-0.8-1.8-1.8v-13.5c0-1,0.8-1.8,1.8-1.8h5.5c1,0,1.8,0.8,1.8,1.8v13.5
				C1092.1,589.3,1091.3,590.1,1090.3,590.1z"/>
		</g>
		<g>
			<path class="st4" d="M1106.9,590.5h-5.6c-1,0-1.8-0.8-1.8-1.8v-13.9c0-1,0.8-1.8,1.8-1.8h5.6c1,0,1.8,0.8,1.8,1.8v13.9
				C1108.7,589.7,1107.9,590.5,1106.9,590.5z"/>
		</g>
		<g>
			<path class="st4" d="M1090.3,628.6h-5.6c-1,0-1.8-0.8-1.8-1.8v-13.9c0-1,0.8-1.8,1.8-1.8h5.6c1,0,1.8,0.8,1.8,1.8v13.9
				C1092.1,627.8,1091.3,628.6,1090.3,628.6z"/>
		</g>
		<g>
			<path class="st4" d="M1106.9,628.1h-5.5c-1,0-1.8-0.8-1.8-1.8v-13.5c0-1,0.8-1.8,1.8-1.8h5.5c1,0,1.8,0.8,1.8,1.8v13.5
				C1108.7,627.3,1107.9,628.1,1106.9,628.1z"/>
		</g>
		<g>
			<path class="st4" d="M1090.3,666.6h-5.6c-1,0-1.8-0.8-1.8-1.8v-13.9c0-1,0.8-1.8,1.8-1.8h5.6c1,0,1.8,0.8,1.8,1.8v13.9
				C1092.1,665.8,1091.3,666.6,1090.3,666.6z"/>
		</g>
		<g>
			<path class="st4" d="M1106.9,666h-5.5c-1,0-1.8-0.8-1.8-1.8v-13.5c0-1,0.8-1.8,1.8-1.8h5.5c1,0,1.8,0.8,1.8,1.8v13.5
				C1108.7,665.2,1107.9,666,1106.9,666z"/>
		</g>
		<g>
			<path class="st4" d="M1090.3,702.8h-5.6c-1,0-1.8-0.8-1.8-1.8v-13.9c0-1,0.8-1.8,1.8-1.8h5.6c1,0,1.8,0.8,1.8,1.8v14
				C1092.1,702,1091.3,702.8,1090.3,702.8z"/>
		</g>
		<g>
			<path class="st4" d="M1106.9,703.3h-5.5c-1,0-1.8-0.8-1.8-1.8V687c0-1,0.8-1.8,1.8-1.8h5.5c1,0,1.8,0.8,1.8,1.8v14.5
				C1108.7,702.5,1107.9,703.3,1106.9,703.3z"/>
		</g>
		<g>
			<path class="st4" d="M1090.3,739.8h-5.6c-1,0-1.8-0.8-1.8-1.8v-13.9c0-1,0.8-1.8,1.8-1.8h5.6c1,0,1.8,0.8,1.8,1.8V738
				C1092.1,739,1091.3,739.8,1090.3,739.8z"/>
		</g>
		<g>
			<path class="st4" d="M1106.9,739.7h-5.6c-1,0-1.8-0.8-1.8-1.8V724c0-1,0.8-1.8,1.8-1.8h5.6c1,0,1.8,0.8,1.8,1.8v13.9
				C1108.7,738.9,1107.9,739.7,1106.9,739.7z"/>
		</g>
		<path class="st7" d="M1108.7,378.1H1082c-0.9,0-1.7-0.4-2.3-1l-19.2-21c-1.7-1.8-0.3-4.7,2.3-4.7h26.8c0.9,0,1.7,0.4,2.3,1
			l19.2,21C1112.7,375.3,1111.3,378.1,1108.7,378.1z"/>
		<path class="st2" d="M1080.6,770.3h-36.2c-1.2,0-2.2-1-2.2-2.2v-12.6h38.4V770.3z"/>
		<path class="st4" d="M1080.2,770.3h29.9c1.2,0,2.2-1,2.2-2.2v-12.6h-32v14.8H1080.2z"/>
		<path class="st0" d="M1087.3,359.7h-7.8c-0.6,0-1-0.5-1-1v-10.8h9.9v10.9C1088.3,359.3,1087.9,359.7,1087.3,359.7z"/>
		<path class="st2" d="M1087.3,359.7h-3.9v-11.8h4.9v10.8C1088.3,359.3,1087.9,359.7,1087.3,359.7z"/>
		<path class="st0" d="M1089.3,347.9h-11.9c-0.4,0-0.8-0.4-0.8-0.8v-1.5c0-0.4,0.4-0.8,0.8-0.8h11.9c0.4,0,0.8,0.4,0.8,0.8v1.5
			C1090.1,347.5,1089.8,347.9,1089.3,347.9z"/>
		<path class="st2" d="M1089.3,347.9h-5.9v-3h5.9c0.5,0,0.8,0.4,0.8,0.8v1.4C1090.1,347.5,1089.8,347.9,1089.3,347.9z"/>
	</g>
</g>
<g id="trees">
	<g>
		<line class="st8" x1="127.4" y1="761.5" x2="126.2" y2="856.5"/>
		<circle class="st9" cx="117.7" cy="753.3" r="19.2"/>
		<circle class="st9" cx="138.8" cy="737.2" r="11.9"/>
		<circle class="st9" cx="114.5" cy="788.8" r="8.8"/>
		<circle class="st9" cx="146.9" cy="759.5" r="14.1"/>
		<line class="st8" x1="126.7" y1="802.8" x2="114.4" y2="790.2"/>
		<line class="st8" x1="129.1" y1="785" x2="146.6" y2="768.3"/>
	</g>
	<g>
		<line class="st8" x1="391" y1="753.5" x2="391" y2="848.5"/>
		<circle class="st9" cx="381.2" cy="746.5" r="19.2"/>
		<circle class="st9" cx="402.2" cy="730" r="11.9"/>
		<circle class="st9" cx="378.5" cy="781" r="8.8"/>
		<circle class="st9" cx="410.5" cy="751.3" r="14.1"/>
		<line class="st8" x1="390.8" y1="794.8" x2="378.4" y2="782.4"/>
		<line class="st8" x1="393" y1="777" x2="410.3" y2="760.1"/>
	</g>
	<g>
		<line class="st8" x1="541" y1="749.5" x2="541" y2="809.5"/>
		<line class="st8" x1="541" y1="761.8" x2="552.1" y2="751.9"/>
		<circle class="st9" cx="534.1" cy="743.1" r="12.7"/>
		<circle class="st9" cx="553.6" cy="746.3" r="9.4"/>
		<circle class="st9" cx="553.7" cy="765.9" r="5.9"/>
		<line class="st8" x1="541" y1="773.8" x2="551.2" y2="767.4"/>
	</g>
	<g>
		<line class="st8" x1="813" y1="748.5" x2="813" y2="808.5"/>
		<line class="st8" x1="813" y1="760.8" x2="824.1" y2="750.9"/>
		<circle class="st9" cx="806.1" cy="742.1" r="12.7"/>
		<circle class="st9" cx="825.6" cy="745.3" r="9.4"/>
		<circle class="st9" cx="825.7" cy="764.9" r="5.9"/>
		<line class="st8" x1="813" y1="772.8" x2="823.2" y2="766.4"/>
	</g>
	<g>
		<line class="st8" x1="1043" y1="748.5" x2="1043" y2="832.5"/>
		<circle class="st9" cx="1034" cy="742.2" r="17"/>
		<circle class="st9" cx="1052.5" cy="727.7" r="10.5"/>
		<circle class="st9" cx="1031.6" cy="772.7" r="7.8"/>
		<circle class="st9" cx="1059.9" cy="746.4" r="12.5"/>
		<line class="st8" x1="1042.5" y1="785" x2="1031.5" y2="774"/>
		<line class="st8" x1="1044.4" y1="769.2" x2="1059.7" y2="754.3"/>
	</g>
	<g>
		<line class="st8" x1="285" y1="743.5" x2="285" y2="803.5"/>
		<line class="st8" x1="285" y1="755.8" x2="296.1" y2="745.9"/>
		<circle class="st9" cx="278.1" cy="737.1" r="12.7"/>
		<circle class="st9" cx="297.6" cy="740.3" r="9.4"/>
		<circle class="st9" cx="297.7" cy="759.9" r="5.9"/>
		<line class="st8" x1="285" y1="767.8" x2="295.2" y2="761.4"/>
	</g>
</g>
</svg>
