<?xml version="1.0" encoding="utf-8"?>
<!-- Generator: Adobe Illustrator 19.1.0, SVG Export Plug-In . SVG Version: 6.00 Build 0)  -->
<svg version="1.1" id="Layer_1" xmlns="http://www.w3.org/2000/svg" xmlns:xlink="http://www.w3.org/1999/xlink" x="0px" y="0px"
	 viewBox="192 -45 1024 571" style="enable-background:new 192 -45 1024 571;" xml:space="preserve">
<style type="text/css">
	.st0{fill:#1B7F84;}
	.st1{display:none;}
	.st2{fill:#1B7989;}
	.st3{fill:none;stroke:#D89261;stroke-width:20;stroke-linecap:round;stroke-miterlimit:10;}
	.st4{fill:#17717A;}
	.st5{fill:#74BAB0;}
	.st6{fill:#84D3C9;}
	.st7{fill:#D89261;}
	.st8{fill:#5B463B;}
	.st9{fill:#18717A;}
	.st10{fill:none;stroke:#31AA9B;stroke-width:6;stroke-linecap:round;stroke-miterlimit:10;}
	.st11{fill:#31AA9B;}
</style>
<rect x="1150.2" y="-11.4" class="st0" width="40.4" height="404.1"/>
<rect x="285.2" y="-11.1" class="st0" width="42.3" height="404.1"/>
<rect x="425.1" y="205.9" class="st0" width="87.3" height="207.8"/>
<rect x="947" y="-13" class="st0" width="37.5" height="419.9"/>
<rect x="691.8" y="-3.7" class="st0" width="87.3" height="404.1"/>
<g id="Layer_2" class="st1">
</g>
<g id="Layer_3">
	<rect x="190" y="376" class="st2" width="1024" height="149"/>
</g>
<g id="globen">
</g>
<g id="roads">
	<path class="st3" d="M902.8,385.8c0,31.9-30.2,57.7-67.5,57.7h-18.1c-0.8,0-1.5,0-2.3,0c-44,1.3-42.5,57.8,1.5,58l291.1-0.9
		c9.9,0,18-6.9,18-15.4V379.7"/>
	<path class="st3" d="M210.7,391.2l41.6,41.6c22.1,22.1,57.9,22.1,80,0l43.1-43.1"/>
</g>
<g id="houses_back">
</g>
<g>
	<path class="st0" d="M272.6,384.1V-6.6c0-1.4,1.1-2.6,2.6-2.6h29.4v396h-29.4C273.8,386.8,272.6,385.6,272.6,384.1z"/>
	<path class="st4" d="M305.2-9.8c-0.3,0.4-0.5,0.9-0.5,1.4v395.2h35.8c1.2,0,2.2-1,2.2-2.2v-393c0-0.5-0.2-1-0.5-1.4l-9-11l-7.9-9.6
		c-0.8-1-2.3-1.1-3.1-0.1l-7.9,9.7L305.2-9.8z"/>
	<g>
		<path class="st5" d="M325.7,20.3V6.4c0-1,0.8-1.8,1.8-1.8h5.6c1,0,1.8,0.8,1.8,1.8v13.9c0,1-0.8,1.8-1.8,1.8h-5.6
			C326.5,22.1,325.7,21.3,325.7,20.3z"/>
	</g>
	<g>
		<path class="st5" d="M309,20.3V6.4c0-1,0.8-1.8,1.8-1.8h5.6c1,0,1.8,0.8,1.8,1.8v13.9c0,1-0.8,1.8-1.8,1.8h-5.6
			C309.9,22.1,309.1,21.3,309,20.3z"/>
	</g>
	<g>
		<path class="st5" d="M325.7,57.3V43.4c0-1,0.8-1.8,1.8-1.8h5.6c1,0,1.8,0.8,1.8,1.8v13.8c0,1-0.8,1.8-1.8,1.8h-5.6
			C326.5,59,325.7,58.3,325.7,57.3z"/>
	</g>
	<g>
		<path class="st5" d="M309,57.3V43.4c0-1,0.8-1.8,1.8-1.8h5.6c1,0,1.8,0.8,1.8,1.8v13.9c0,1-0.8,1.8-1.8,1.8h-5.6
			C309.9,59.1,309.1,58.3,309,57.3z"/>
	</g>
	<g>
		<path class="st5" d="M325.7,93.3V79.4c0-1,0.8-1.8,1.8-1.8h5.6c1,0,1.8,0.8,1.8,1.8v13.9c0,1-0.8,1.8-1.8,1.8h-5.6
			C326.5,95.1,325.7,94.3,325.7,93.3z"/>
	</g>
	<g>
		<path class="st5" d="M309,93.2V79.3c0-1,0.8-1.8,1.8-1.8h5.6c1,0,1.8,0.8,1.8,1.8v13.9c0,1-0.8,1.8-1.8,1.8h-5.6
			C309.9,95,309.1,94.2,309,93.2z"/>
	</g>
	<g>
		<path class="st5" d="M325.7,130.2v-13.9c0-1,0.8-1.8,1.8-1.8h5.6c1,0,1.8,0.8,1.8,1.8v13.9c0,1-0.8,1.8-1.8,1.8h-5.6
			C326.5,132,325.7,131.2,325.7,130.2z"/>
	</g>
	<g>
		<path class="st5" d="M309,130.1v-13.9c0-1,0.8-1.8,1.8-1.8h5.6c1,0,1.8,0.8,1.8,1.8v13.9c0,1-0.8,1.8-1.8,1.8h-5.6
			C309.9,131.9,309.1,131.1,309,130.1z"/>
	</g>
	<g>
		<path class="st5" d="M325.7,166.9v-13.5c0-1,0.8-1.8,1.8-1.8h5.5c1,0,1.8,0.8,1.8,1.8v13.5c0,1-0.8,1.8-1.8,1.8h-5.5
			C326.5,168.7,325.7,167.9,325.7,166.9z"/>
	</g>
	<g>
		<path class="st5" d="M309,167.2v-13.9c0-1,0.8-1.8,1.8-1.8h5.6c1,0,1.8,0.8,1.8,1.8v13.9c0,1-0.8,1.8-1.8,1.8h-5.6
			C309.9,169,309.1,168.2,309,167.2z"/>
	</g>
	<g>
		<path class="st5" d="M325.7,204.8v-13.5c0-1,0.8-1.8,1.8-1.8h5.5c1,0,1.8,0.8,1.8,1.8v13.5c0,1-0.8,1.8-1.8,1.8h-5.5
			C326.5,206.6,325.7,205.8,325.7,204.8z"/>
	</g>
	<g>
		<path class="st5" d="M309,205.2v-13.9c0-1,0.8-1.8,1.8-1.8h5.6c1,0,1.8,0.8,1.8,1.8v13.9c0,1-0.8,1.8-1.8,1.8h-5.6
			C309.9,207,309.1,206.2,309,205.2z"/>
	</g>
	<g>
		<path class="st5" d="M325.7,243.3v-13.9c0-1,0.8-1.8,1.8-1.8h5.6c1,0,1.8,0.8,1.8,1.8v13.9c0,1-0.8,1.8-1.8,1.8h-5.6
			C326.5,245.1,325.7,244.3,325.7,243.3z"/>
	</g>
	<g>
		<path class="st5" d="M309,242.8v-13.5c0-1,0.8-1.8,1.8-1.8h5.5c1,0,1.8,0.8,1.8,1.8v13.5c0,1-0.8,1.8-1.8,1.8h-5.5
			C309.9,244.6,309.1,243.8,309,242.8z"/>
	</g>
	<g>
		<path class="st5" d="M325.7,281.2v-13.9c0-1,0.8-1.8,1.8-1.8h5.6c1,0,1.8,0.8,1.8,1.8v13.9c0,1-0.8,1.8-1.8,1.8h-5.6
			C326.5,283,325.7,282.3,325.7,281.2z"/>
	</g>
	<g>
		<path class="st5" d="M309,280.7v-13.5c0-1,0.8-1.8,1.8-1.8h5.5c1,0,1.8,0.8,1.8,1.8v13.5c0,1-0.8,1.8-1.8,1.8h-5.5
			C309.9,282.5,309.1,281.7,309,280.7z"/>
	</g>
	<g>
		<path class="st5" d="M325.7,317.5v-13.9c0-1,0.8-1.8,1.8-1.8h5.6c1,0,1.8,0.8,1.8,1.8v13.9c0,1-0.8,1.8-1.8,1.8h-5.6
			C326.5,319.3,325.7,318.5,325.7,317.5z"/>
	</g>
	<g>
		<path class="st5" d="M309,318v-14.5c0-1,0.8-1.8,1.8-1.8h5.5c1,0,1.8,0.8,1.8,1.8V318c0,1-0.8,1.8-1.8,1.8h-5.5
			C309.9,319.8,309.1,319,309,318z"/>
	</g>
	<g>
		<path class="st5" d="M325.7,354.5v-13.9c0-1,0.8-1.8,1.8-1.8h5.6c1,0,1.8,0.8,1.8,1.8v13.8c0,1-0.8,1.8-1.8,1.8h-5.6
			C326.5,356.2,325.7,355.5,325.7,354.5z"/>
	</g>
	<g>
		<path class="st5" d="M309,354.3v-13.9c0-1,0.8-1.8,1.8-1.8h5.6c1,0,1.8,0.8,1.8,1.8v13.9c0,1-0.8,1.8-1.8,1.8h-5.6
			C309.9,356.1,309.1,355.4,309,354.3z"/>
	</g>
	<g>
		<path class="st6" d="M292.6,20.3V6.4c0-1,0.8-1.8,1.8-1.8h5.6c1,0,1.8,0.8,1.8,1.8v13.9c0,1-0.8,1.8-1.8,1.8h-5.6
			C293.5,22.1,292.7,21.3,292.6,20.3z"/>
	</g>
	<g>
		<path class="st6" d="M276,20.3V6.4c0-1,0.8-1.8,1.8-1.8h5.6c1,0,1.8,0.8,1.8,1.8v13.9c0,1-0.8,1.8-1.8,1.8h-5.6
			C276.9,22.1,276.1,21.3,276,20.3z"/>
	</g>
	<g>
		<path class="st6" d="M292.6,57.3V43.4c0-1,0.8-1.8,1.8-1.8h5.6c1,0,1.8,0.8,1.8,1.8v13.8c0,1-0.8,1.8-1.8,1.8h-5.6
			C293.5,59,292.7,58.3,292.6,57.3z"/>
	</g>
	<g>
		<path class="st6" d="M276,57.3V43.4c0-1,0.8-1.8,1.8-1.8h5.6c1,0,1.8,0.8,1.8,1.8v13.9c0,1-0.8,1.8-1.8,1.8h-5.6
			C276.9,59.1,276.1,58.3,276,57.3z"/>
	</g>
	<g>
		<path class="st6" d="M292.6,93.3V79.4c0-1,0.8-1.8,1.8-1.8h5.6c1,0,1.8,0.8,1.8,1.8v13.9c0,1-0.8,1.8-1.8,1.8h-5.6
			C293.5,95.1,292.7,94.3,292.6,93.3z"/>
	</g>
	<g>
		<path class="st6" d="M276,93.2V79.3c0-1,0.8-1.8,1.8-1.8h5.6c1,0,1.8,0.8,1.8,1.8v13.9c0,1-0.8,1.8-1.8,1.8h-5.6
			C276.9,95,276.1,94.2,276,93.2z"/>
	</g>
	<g>
		<path class="st6" d="M292.6,130.2v-13.9c0-1,0.8-1.8,1.8-1.8h5.6c1,0,1.8,0.8,1.8,1.8v13.9c0,1-0.8,1.8-1.8,1.8h-5.6
			C293.5,132,292.7,131.2,292.6,130.2z"/>
	</g>
	<g>
		<path class="st6" d="M276,130.1v-13.9c0-1,0.8-1.8,1.8-1.8h5.6c1,0,1.8,0.8,1.8,1.8v13.9c0,1-0.8,1.8-1.8,1.8h-5.6
			C276.9,131.9,276.1,131.1,276,130.1z"/>
	</g>
	<g>
		<path class="st6" d="M292.6,166.9v-13.5c0-1,0.8-1.8,1.8-1.8h5.5c1,0,1.8,0.8,1.8,1.8v13.5c0,1-0.8,1.8-1.8,1.8h-5.5
			C293.5,168.7,292.7,167.9,292.6,166.9z"/>
	</g>
	<g>
		<path class="st6" d="M276,167.2v-13.9c0-1,0.8-1.8,1.8-1.8h5.6c1,0,1.8,0.8,1.8,1.8v13.9c0,1-0.8,1.8-1.8,1.8h-5.6
			C276.9,169,276.1,168.2,276,167.2z"/>
	</g>
	<g>
		<path class="st6" d="M292.6,204.8v-13.5c0-1,0.8-1.8,1.8-1.8h5.5c1,0,1.8,0.8,1.8,1.8v13.5c0,1-0.8,1.8-1.8,1.8h-5.5
			C293.5,206.6,292.7,205.8,292.6,204.8z"/>
	</g>
	<g>
		<path class="st6" d="M276,205.2v-13.9c0-1,0.8-1.8,1.8-1.8h5.6c1,0,1.8,0.8,1.8,1.8v13.9c0,1-0.8,1.8-1.8,1.8h-5.6
			C276.9,207,276.1,206.2,276,205.2z"/>
	</g>
	<g>
		<path class="st6" d="M292.6,243.3v-13.9c0-1,0.8-1.8,1.8-1.8h5.6c1,0,1.8,0.8,1.8,1.8v13.9c0,1-0.8,1.8-1.8,1.8h-5.6
			C293.5,245.1,292.7,244.3,292.6,243.3z"/>
	</g>
	<g>
		<path class="st6" d="M276,242.8v-13.5c0-1,0.8-1.8,1.8-1.8h5.5c1,0,1.8,0.8,1.8,1.8v13.5c0,1-0.8,1.8-1.8,1.8h-5.5
			C276.9,244.6,276.1,243.8,276,242.8z"/>
	</g>
	<g>
		<path class="st6" d="M292.6,281.2v-13.9c0-1,0.8-1.8,1.8-1.8h5.6c1,0,1.8,0.8,1.8,1.8v13.9c0,1-0.8,1.8-1.8,1.8h-5.6
			C293.5,283,292.7,282.3,292.6,281.2z"/>
	</g>
	<g>
		<path class="st6" d="M276,280.7v-13.5c0-1,0.8-1.8,1.8-1.8h5.5c1,0,1.8,0.8,1.8,1.8v13.5c0,1-0.8,1.8-1.8,1.8h-5.5
			C276.9,282.5,276.1,281.7,276,280.7z"/>
	</g>
	<g>
		<path class="st6" d="M292.6,317.5v-13.9c0-1,0.8-1.8,1.8-1.8h5.6c1,0,1.8,0.8,1.8,1.8v13.9c0,1-0.8,1.8-1.8,1.8h-5.6
			C293.5,319.3,292.7,318.5,292.6,317.5z"/>
	</g>
	<g>
		<path class="st6" d="M276,318v-14.5c0-1,0.8-1.8,1.8-1.8h5.5c1,0,1.8,0.8,1.8,1.8V318c0,1-0.8,1.8-1.8,1.8h-5.5
			C276.9,319.8,276.1,319,276,318z"/>
	</g>
	<g>
		<path class="st6" d="M292.6,354.5v-13.9c0-1,0.8-1.8,1.8-1.8h5.6c1,0,1.8,0.8,1.8,1.8v13.8c0,1-0.8,1.8-1.8,1.8h-5.6
			C293.5,356.2,292.7,355.5,292.6,354.5z"/>
	</g>
	<g>
		<path class="st6" d="M276,354.3v-13.9c0-1,0.8-1.8,1.8-1.8h5.6c1,0,1.8,0.8,1.8,1.8v13.9c0,1-0.8,1.8-1.8,1.8h-5.6
			C276.9,356.1,276.1,355.4,276,354.3z"/>
	</g>
	<path class="st7" d="M273.7-10.1l19.2-21c0.6-0.6,1.4-1,2.3-1H322c2.6,0,4,2.9,2.3,4.7l-19.2,21c-0.6,0.6-1.4,1-2.3,1H276
		C273.4-5.4,272-8.2,273.7-10.1z"/>
	<path class="st4" d="M296.4-24.8v-10.9h9.9v10.9c0,0.5-0.4,1-1,1h-7.8C296.9-23.8,296.4-24.2,296.4-24.8z"/>
	<path class="st0" d="M296.5-24.9v-10.8h4.9v11.9h-3.9C296.9-23.8,296.4-24.3,296.5-24.9z"/>
	<path class="st4" d="M294.6-36.4V-38c0-0.4,0.4-0.8,0.8-0.8h11.9c0.4,0,0.8,0.4,0.8,0.8v1.5c0,0.4-0.4,0.8-0.8,0.8h-11.9
		C295-35.7,294.6-36,294.6-36.4z"/>
	<path class="st0" d="M294.7-36.5v-1.4c0-0.4,0.3-0.8,0.8-0.8h5.9v3h-5.9C295-35.7,294.6-36,294.7-36.5z"/>
</g>
<g>
	<path class="st4" d="M1208,386.5h-29.4v-396h29.4c1.5,0,2.6,1.2,2.6,2.6v390.7C1210.6,385.3,1209.4,386.5,1208,386.5z"/>
	<path class="st0" d="M1168.9-21.1l-7.9-9.7c-0.8-1-2.3-0.9-3.1,0.1l-7.9,9.6l-9,11c-0.3,0.4-0.5,0.9-0.5,1.4v393
		c0,1.2,1,2.2,2.2,2.2h35.8V-8.7c0-0.5-0.2-1-0.5-1.4L1168.9-21.1z"/>
	<g>
		<path class="st6" d="M1155.7,21.8h-5.6c-1,0-1.8-0.8-1.8-1.8V6.1c0-1,0.8-1.8,1.8-1.8h5.6c1,0,1.8,0.8,1.8,1.8V20
			C1157.5,21,1156.7,21.8,1155.7,21.8z"/>
	</g>
	<g>
		<path class="st6" d="M1172.4,21.8h-5.6c-1,0-1.8-0.8-1.8-1.8V6.1c0-1,0.8-1.8,1.8-1.8h5.6c1,0,1.8,0.8,1.8,1.8V20
			C1174.1,21,1173.3,21.8,1172.4,21.8z"/>
	</g>
	<g>
		<path class="st6" d="M1155.7,58.7h-5.6c-1,0-1.8-0.8-1.8-1.8V43.1c0-1,0.8-1.8,1.8-1.8h5.6c1,0,1.8,0.8,1.8,1.8V57
			C1157.5,58,1156.7,58.7,1155.7,58.7z"/>
	</g>
	<g>
		<path class="st6" d="M1172.4,58.8h-5.6c-1,0-1.8-0.8-1.8-1.8V43.1c0-1,0.8-1.8,1.8-1.8h5.6c1,0,1.8,0.8,1.8,1.8V57
			C1174.1,58,1173.3,58.8,1172.4,58.8z"/>
	</g>
	<g>
		<path class="st6" d="M1155.7,94.8h-5.6c-1,0-1.8-0.8-1.8-1.8V79.1c0-1,0.8-1.8,1.8-1.8h5.6c1,0,1.8,0.8,1.8,1.8V93
			C1157.5,94,1156.7,94.8,1155.7,94.8z"/>
	</g>
	<g>
		<path class="st6" d="M1172.4,94.7h-5.6c-1,0-1.8-0.8-1.8-1.8V79c0-1,0.8-1.8,1.8-1.8h5.6c1,0,1.8,0.8,1.8,1.8v13.9
			C1174.1,93.9,1173.3,94.7,1172.4,94.7z"/>
	</g>
	<g>
		<path class="st6" d="M1155.7,131.7h-5.6c-1,0-1.8-0.8-1.8-1.8V116c0-1,0.8-1.8,1.8-1.8h5.6c1,0,1.8,0.8,1.8,1.8v13.9
			C1157.5,130.9,1156.7,131.7,1155.7,131.7z"/>
	</g>
	<g>
		<path class="st6" d="M1172.4,131.6h-5.6c-1,0-1.8-0.8-1.8-1.8v-13.9c0-1,0.8-1.8,1.8-1.8h5.6c1,0,1.8,0.8,1.8,1.8v13.9
			C1174.1,130.8,1173.3,131.6,1172.4,131.6z"/>
	</g>
	<g>
		<path class="st6" d="M1155.7,168.4h-5.5c-1,0-1.8-0.8-1.8-1.8v-13.5c0-1,0.8-1.8,1.8-1.8h5.5c1,0,1.8,0.8,1.8,1.8v13.5
			C1157.5,167.6,1156.7,168.4,1155.7,168.4z"/>
	</g>
	<g>
		<path class="st6" d="M1172.4,168.7h-5.6c-1,0-1.8-0.8-1.8-1.8V153c0-1,0.8-1.8,1.8-1.8h5.6c1,0,1.8,0.8,1.8,1.8v13.9
			C1174.1,167.9,1173.3,168.7,1172.4,168.7z"/>
	</g>
	<g>
		<path class="st6" d="M1155.7,206.3h-5.5c-1,0-1.8-0.8-1.8-1.8V191c0-1,0.8-1.8,1.8-1.8h5.5c1,0,1.8,0.8,1.8,1.8v13.5
			C1157.5,205.5,1156.7,206.3,1155.7,206.3z"/>
	</g>
	<g>
		<path class="st6" d="M1172.4,206.7h-5.6c-1,0-1.8-0.8-1.8-1.8V191c0-1,0.8-1.8,1.8-1.8h5.6c1,0,1.8,0.8,1.8,1.8v13.9
			C1174.1,205.9,1173.3,206.7,1172.4,206.7z"/>
	</g>
	<g>
		<path class="st6" d="M1155.7,244.8h-5.6c-1,0-1.8-0.8-1.8-1.8v-13.9c0-1,0.8-1.8,1.8-1.8h5.6c1,0,1.8,0.8,1.8,1.8V243
			C1157.5,244,1156.7,244.8,1155.7,244.8z"/>
	</g>
	<g>
		<path class="st6" d="M1172.4,244.3h-5.5c-1,0-1.8-0.8-1.8-1.8V229c0-1,0.8-1.8,1.8-1.8h5.5c1,0,1.8,0.8,1.8,1.8v13.5
			C1174.1,243.5,1173.3,244.3,1172.4,244.3z"/>
	</g>
	<g>
		<path class="st6" d="M1155.7,282.7h-5.6c-1,0-1.8-0.8-1.8-1.8V267c0-1,0.8-1.8,1.8-1.8h5.6c1,0,1.8,0.8,1.8,1.8v13.9
			C1157.5,282,1156.7,282.7,1155.7,282.7z"/>
	</g>
	<g>
		<path class="st6" d="M1172.4,282.2h-5.5c-1,0-1.8-0.8-1.8-1.8v-13.5c0-1,0.8-1.8,1.8-1.8h5.5c1,0,1.8,0.8,1.8,1.8v13.5
			C1174.1,281.4,1173.3,282.2,1172.4,282.2z"/>
	</g>
	<g>
		<path class="st6" d="M1155.7,319h-5.6c-1,0-1.8-0.8-1.8-1.8v-13.9c0-1,0.8-1.8,1.8-1.8h5.6c1,0,1.8,0.8,1.8,1.8v13.9
			C1157.5,318.2,1156.7,319,1155.7,319z"/>
	</g>
	<g>
		<path class="st6" d="M1172.4,319.5h-5.5c-1,0-1.8-0.8-1.8-1.8v-14.5c0-1,0.8-1.8,1.8-1.8h5.5c1,0,1.8,0.8,1.8,1.8v14.5
			C1174.1,318.7,1173.3,319.5,1172.4,319.5z"/>
	</g>
	<g>
		<path class="st6" d="M1155.7,355.9h-5.6c-1,0-1.8-0.8-1.8-1.8v-13.8c0-1,0.8-1.8,1.8-1.8h5.6c1,0,1.8,0.8,1.8,1.8v13.9
			C1157.5,355.2,1156.7,355.9,1155.7,355.9z"/>
	</g>
	<g>
		<path class="st6" d="M1172.4,355.8h-5.6c-1,0-1.8-0.8-1.8-1.8v-13.9c0-1,0.8-1.8,1.8-1.8h5.6c1,0,1.8,0.8,1.8,1.8V354
			C1174.1,355.1,1173.3,355.8,1172.4,355.8z"/>
	</g>
	<g>
		<path class="st5" d="M1188.8,21.8h-5.6c-1,0-1.8-0.8-1.8-1.8V6.1c0-1,0.8-1.8,1.8-1.8h5.6c1,0,1.8,0.8,1.8,1.8V20
			C1190.5,21,1189.7,21.8,1188.8,21.8z"/>
	</g>
	<g>
		<path class="st5" d="M1205.4,21.8h-5.6c-1,0-1.8-0.8-1.8-1.8V6.1c0-1,0.8-1.8,1.8-1.8h5.6c1,0,1.8,0.8,1.8,1.8V20
			C1207.1,21,1206.3,21.8,1205.4,21.8z"/>
	</g>
	<g>
		<path class="st5" d="M1188.8,58.7h-5.6c-1,0-1.8-0.8-1.8-1.8V43.1c0-1,0.8-1.8,1.8-1.8h5.6c1,0,1.8,0.8,1.8,1.8V57
			C1190.5,58,1189.7,58.7,1188.8,58.7z"/>
	</g>
	<g>
		<path class="st5" d="M1205.4,58.8h-5.6c-1,0-1.8-0.8-1.8-1.8V43.1c0-1,0.8-1.8,1.8-1.8h5.6c1,0,1.8,0.8,1.8,1.8V57
			C1207.1,58,1206.3,58.8,1205.4,58.8z"/>
	</g>
	<g>
		<path class="st5" d="M1188.8,94.8h-5.6c-1,0-1.8-0.8-1.8-1.8V79.1c0-1,0.8-1.8,1.8-1.8h5.6c1,0,1.8,0.8,1.8,1.8V93
			C1190.5,94,1189.7,94.8,1188.8,94.8z"/>
	</g>
	<g>
		<path class="st5" d="M1205.4,94.7h-5.6c-1,0-1.8-0.8-1.8-1.8V79c0-1,0.8-1.8,1.8-1.8h5.6c1,0,1.8,0.8,1.8,1.8v13.9
			C1207.1,93.9,1206.3,94.7,1205.4,94.7z"/>
	</g>
	<g>
		<path class="st5" d="M1188.8,131.7h-5.6c-1,0-1.8-0.8-1.8-1.8V116c0-1,0.8-1.8,1.8-1.8h5.6c1,0,1.8,0.8,1.8,1.8v13.9
			C1190.5,130.9,1189.7,131.7,1188.8,131.7z"/>
	</g>
	<g>
		<path class="st5" d="M1205.4,131.6h-5.6c-1,0-1.8-0.8-1.8-1.8v-13.9c0-1,0.8-1.8,1.8-1.8h5.6c1,0,1.8,0.8,1.8,1.8v13.9
			C1207.1,130.8,1206.3,131.6,1205.4,131.6z"/>
	</g>
	<g>
		<path class="st5" d="M1188.8,168.4h-5.5c-1,0-1.8-0.8-1.8-1.8v-13.5c0-1,0.8-1.8,1.8-1.8h5.5c1,0,1.8,0.8,1.8,1.8v13.5
			C1190.5,167.6,1189.7,168.4,1188.8,168.4z"/>
	</g>
	<g>
		<path class="st5" d="M1205.4,168.7h-5.6c-1,0-1.8-0.8-1.8-1.8V153c0-1,0.8-1.8,1.8-1.8h5.6c1,0,1.8,0.8,1.8,1.8v13.9
			C1207.1,167.9,1206.3,168.7,1205.4,168.7z"/>
	</g>
	<g>
		<path class="st5" d="M1188.8,206.3h-5.5c-1,0-1.8-0.8-1.8-1.8V191c0-1,0.8-1.8,1.8-1.8h5.5c1,0,1.8,0.8,1.8,1.8v13.5
			C1190.5,205.5,1189.7,206.3,1188.8,206.3z"/>
	</g>
	<g>
		<path class="st5" d="M1205.4,206.7h-5.6c-1,0-1.8-0.8-1.8-1.8V191c0-1,0.8-1.8,1.8-1.8h5.6c1,0,1.8,0.8,1.8,1.8v13.9
			C1207.1,205.9,1206.3,206.7,1205.4,206.7z"/>
	</g>
	<g>
		<path class="st5" d="M1188.8,244.8h-5.6c-1,0-1.8-0.8-1.8-1.8v-13.9c0-1,0.8-1.8,1.8-1.8h5.6c1,0,1.8,0.8,1.8,1.8V243
			C1190.5,244,1189.7,244.8,1188.8,244.8z"/>
	</g>
	<g>
		<path class="st5" d="M1205.4,244.3h-5.5c-1,0-1.8-0.8-1.8-1.8V229c0-1,0.8-1.8,1.8-1.8h5.5c1,0,1.8,0.8,1.8,1.8v13.5
			C1207.1,243.5,1206.3,244.3,1205.4,244.3z"/>
	</g>
	<g>
		<path class="st5" d="M1188.8,282.7h-5.6c-1,0-1.8-0.8-1.8-1.8V267c0-1,0.8-1.8,1.8-1.8h5.6c1,0,1.8,0.8,1.8,1.8v13.9
			C1190.5,282,1189.7,282.7,1188.8,282.7z"/>
	</g>
	<g>
		<path class="st5" d="M1205.4,282.2h-5.5c-1,0-1.8-0.8-1.8-1.8v-13.5c0-1,0.8-1.8,1.8-1.8h5.5c1,0,1.8,0.8,1.8,1.8v13.5
			C1207.1,281.4,1206.3,282.2,1205.4,282.2z"/>
	</g>
	<g>
		<path class="st5" d="M1188.8,319h-5.6c-1,0-1.8-0.8-1.8-1.8v-13.9c0-1,0.8-1.8,1.8-1.8h5.6c1,0,1.8,0.8,1.8,1.8v13.9
			C1190.5,318.2,1189.7,319,1188.8,319z"/>
	</g>
	<g>
		<path class="st5" d="M1205.4,319.5h-5.5c-1,0-1.8-0.8-1.8-1.8v-14.5c0-1,0.8-1.8,1.8-1.8h5.5c1,0,1.8,0.8,1.8,1.8v14.5
			C1207.1,318.7,1206.3,319.5,1205.4,319.5z"/>
	</g>
	<g>
		<path class="st5" d="M1188.8,355.9h-5.6c-1,0-1.8-0.8-1.8-1.8v-13.8c0-1,0.8-1.8,1.8-1.8h5.6c1,0,1.8,0.8,1.8,1.8v13.9
			C1190.5,355.2,1189.7,355.9,1188.8,355.9z"/>
	</g>
	<g>
		<path class="st5" d="M1205.4,355.8h-5.6c-1,0-1.8-0.8-1.8-1.8v-13.9c0-1,0.8-1.8,1.8-1.8h5.6c1,0,1.8,0.8,1.8,1.8V354
			C1207.1,355.1,1206.3,355.8,1205.4,355.8z"/>
	</g>
	<path class="st8" d="M1207.2-5.7h-26.8c-0.9,0-1.7-0.4-2.3-1l-19.2-21c-1.7-1.8-0.3-4.7,2.3-4.7h26.8c0.9,0,1.7,0.4,2.3,1l19.2,21
		C1211.2-8.5,1209.8-5.7,1207.2-5.7z"/>
	<g>
		<path class="st4" d="M1177.7-25v-10.9h9.9V-25c0,0.5-0.4,1-1,1h-7.8C1178.2-24,1177.7-24.4,1177.7-25z"/>
		<path class="st0" d="M1177.8-25.1v-10.8h4.9V-24h-3.9C1178.2-24,1177.7-24.5,1177.8-25.1z"/>
		<path class="st4" d="M1175.8-36.6v-1.6c0-0.4,0.4-0.8,0.8-0.8h11.9c0.4,0,0.8,0.4,0.8,0.8v1.5c0,0.4-0.4,0.8-0.8,0.8h-11.9
			C1176.2-35.9,1175.8-36.2,1175.8-36.6z"/>
		<path class="st0" d="M1175.9-36.7v-1.4c0-0.4,0.3-0.8,0.8-0.8h5.9v3h-5.9C1176.2-35.9,1175.8-36.2,1175.9-36.7z"/>
	</g>
</g>
<g>
	<path class="st4" d="M979.6,388.1h-29.4v-396h29.4c1.5,0,2.6,1.2,2.6,2.6v390.7C982.2,386.9,981,388.1,979.6,388.1z"/>
	<path class="st0" d="M940.5-19.5l-7.9-9.7c-0.8-1-2.3-0.9-3.1,0.1l-7.9,9.6l-9,11c-0.3,0.4-0.5,0.9-0.5,1.4v393
		c0,1.2,1,2.2,2.2,2.2h35.8V-7.1c0-0.5-0.2-1-0.5-1.4L940.5-19.5z"/>
	<g>
		<path class="st6" d="M927.3,23.4h-5.6c-1,0-1.8-0.8-1.8-1.8V7.7c0-1,0.8-1.8,1.8-1.8h5.6c1,0,1.8,0.8,1.8,1.8v13.9
			C929.1,22.6,928.3,23.4,927.3,23.4z"/>
	</g>
	<g>
		<path class="st6" d="M944,23.4h-5.6c-1,0-1.8-0.8-1.8-1.8V7.7c0-1,0.8-1.8,1.8-1.8h5.6c1,0,1.8,0.8,1.8,1.8v13.9
			C945.7,22.6,944.9,23.4,944,23.4z"/>
	</g>
	<g>
		<path class="st6" d="M927.3,60.3h-5.6c-1,0-1.8-0.8-1.8-1.8V44.7c0-1,0.8-1.8,1.8-1.8h5.6c1,0,1.8,0.8,1.8,1.8v13.9
			C929.1,59.6,928.3,60.3,927.3,60.3z"/>
	</g>
	<g>
		<path class="st6" d="M944,60.4h-5.6c-1,0-1.8-0.8-1.8-1.8V44.7c0-1,0.8-1.8,1.8-1.8h5.6c1,0,1.8,0.8,1.8,1.8v13.9
			C945.7,59.6,944.9,60.4,944,60.4z"/>
	</g>
	<g>
		<path class="st6" d="M927.3,96.4h-5.6c-1,0-1.8-0.8-1.8-1.8V80.7c0-1,0.8-1.8,1.8-1.8h5.6c1,0,1.8,0.8,1.8,1.8v13.9
			C929.1,95.6,928.3,96.4,927.3,96.4z"/>
	</g>
	<g>
		<path class="st6" d="M944,96.3h-5.6c-1,0-1.8-0.8-1.8-1.8V80.6c0-1,0.8-1.8,1.8-1.8h5.6c1,0,1.8,0.8,1.8,1.8v13.9
			C945.7,95.5,944.9,96.3,944,96.3z"/>
	</g>
	<g>
		<path class="st6" d="M927.3,133.3h-5.6c-1,0-1.8-0.8-1.8-1.8v-13.9c0-1,0.8-1.8,1.8-1.8h5.6c1,0,1.8,0.8,1.8,1.8v13.9
			C929.1,132.5,928.3,133.3,927.3,133.3z"/>
	</g>
	<g>
		<path class="st6" d="M944,133.2h-5.6c-1,0-1.8-0.8-1.8-1.8v-13.9c0-1,0.8-1.8,1.8-1.8h5.6c1,0,1.8,0.8,1.8,1.8v13.9
			C945.7,132.4,944.9,133.2,944,133.2z"/>
	</g>
	<g>
		<path class="st6" d="M927.3,170h-5.5c-1,0-1.8-0.8-1.8-1.8v-13.5c0-1,0.8-1.8,1.8-1.8h5.5c1,0,1.8,0.8,1.8,1.8v13.5
			C929.1,169.2,928.3,170,927.3,170z"/>
	</g>
	<g>
		<path class="st6" d="M944,170.3h-5.6c-1,0-1.8-0.8-1.8-1.8v-13.9c0-1,0.8-1.8,1.8-1.8h5.6c1,0,1.8,0.8,1.8,1.8v13.9
			C945.7,169.5,944.9,170.3,944,170.3z"/>
	</g>
	<g>
		<path class="st6" d="M927.3,207.9h-5.5c-1,0-1.8-0.8-1.8-1.8v-13.5c0-1,0.8-1.8,1.8-1.8h5.5c1,0,1.8,0.8,1.8,1.8v13.5
			C929.1,207.1,928.3,207.9,927.3,207.9z"/>
	</g>
	<g>
		<path class="st6" d="M944,208.3h-5.6c-1,0-1.8-0.8-1.8-1.8v-13.9c0-1,0.8-1.8,1.8-1.8h5.6c1,0,1.8,0.8,1.8,1.8v13.9
			C945.7,207.5,944.9,208.3,944,208.3z"/>
	</g>
	<g>
		<path class="st6" d="M927.3,246.4h-5.6c-1,0-1.8-0.8-1.8-1.8v-13.9c0-1,0.8-1.8,1.8-1.8h5.6c1,0,1.8,0.8,1.8,1.8v13.9
			C929.1,245.6,928.3,246.4,927.3,246.4z"/>
	</g>
	<g>
		<path class="st6" d="M944,245.9h-5.5c-1,0-1.8-0.8-1.8-1.8v-13.5c0-1,0.8-1.8,1.8-1.8h5.5c1,0,1.8,0.8,1.8,1.8v13.5
			C945.7,245.1,944.9,245.9,944,245.9z"/>
	</g>
	<g>
		<path class="st6" d="M927.3,284.3h-5.6c-1,0-1.8-0.8-1.8-1.8v-13.9c0-1,0.8-1.8,1.8-1.8h5.6c1,0,1.8,0.8,1.8,1.8v13.9
			C929.1,283.6,928.3,284.3,927.3,284.3z"/>
	</g>
	<g>
		<path class="st6" d="M944,283.8h-5.5c-1,0-1.8-0.8-1.8-1.8v-13.5c0-1,0.8-1.8,1.8-1.8h5.5c1,0,1.8,0.8,1.8,1.8V282
			C945.7,283,944.9,283.8,944,283.8z"/>
	</g>
	<g>
		<path class="st6" d="M927.3,320.6h-5.6c-1,0-1.8-0.8-1.8-1.8v-13.9c0-1,0.8-1.8,1.8-1.8h5.6c1,0,1.8,0.8,1.8,1.8v13.9
			C929.1,319.8,928.3,320.6,927.3,320.6z"/>
	</g>
	<g>
		<path class="st6" d="M944,321.1h-5.5c-1,0-1.8-0.8-1.8-1.8v-14.5c0-1,0.8-1.8,1.8-1.8h5.5c1,0,1.8,0.8,1.8,1.8v14.5
			C945.7,320.3,944.9,321.1,944,321.1z"/>
	</g>
	<g>
		<path class="st6" d="M927.3,357.5h-5.6c-1,0-1.8-0.8-1.8-1.8v-13.8c0-1,0.8-1.8,1.8-1.8h5.6c1,0,1.8,0.8,1.8,1.8v13.9
			C929.1,356.8,928.3,357.5,927.3,357.5z"/>
	</g>
	<g>
		<path class="st6" d="M944,357.4h-5.6c-1,0-1.8-0.8-1.8-1.8v-13.9c0-1,0.8-1.8,1.8-1.8h5.6c1,0,1.8,0.8,1.8,1.8v13.9
			C945.7,356.7,944.9,357.4,944,357.4z"/>
	</g>
	<g>
		<path class="st5" d="M960.4,23.4h-5.6c-1,0-1.8-0.8-1.8-1.8V7.7c0-1,0.8-1.8,1.8-1.8h5.6c1,0,1.8,0.8,1.8,1.8v13.9
			C962.1,22.6,961.3,23.4,960.4,23.4z"/>
	</g>
	<g>
		<path class="st5" d="M977,23.4h-5.6c-1,0-1.8-0.8-1.8-1.8V7.7c0-1,0.8-1.8,1.8-1.8h5.6c1,0,1.8,0.8,1.8,1.8v13.9
			C978.7,22.6,977.9,23.4,977,23.4z"/>
	</g>
	<g>
		<path class="st5" d="M960.4,60.3h-5.6c-1,0-1.8-0.8-1.8-1.8V44.7c0-1,0.8-1.8,1.8-1.8h5.6c1,0,1.8,0.8,1.8,1.8v13.9
			C962.1,59.6,961.3,60.3,960.4,60.3z"/>
	</g>
	<g>
		<path class="st5" d="M977,60.4h-5.6c-1,0-1.8-0.8-1.8-1.8V44.7c0-1,0.8-1.8,1.8-1.8h5.6c1,0,1.8,0.8,1.8,1.8v13.9
			C978.7,59.6,977.9,60.4,977,60.4z"/>
	</g>
	<g>
		<path class="st5" d="M960.4,96.4h-5.6c-1,0-1.8-0.8-1.8-1.8V80.7c0-1,0.8-1.8,1.8-1.8h5.6c1,0,1.8,0.8,1.8,1.8v13.9
			C962.1,95.6,961.3,96.4,960.4,96.4z"/>
	</g>
	<g>
		<path class="st5" d="M977,96.3h-5.6c-1,0-1.8-0.8-1.8-1.8V80.6c0-1,0.8-1.8,1.8-1.8h5.6c1,0,1.8,0.8,1.8,1.8v13.9
			C978.7,95.5,977.9,96.3,977,96.3z"/>
	</g>
	<g>
		<path class="st5" d="M960.4,133.3h-5.6c-1,0-1.8-0.8-1.8-1.8v-13.9c0-1,0.8-1.8,1.8-1.8h5.6c1,0,1.8,0.8,1.8,1.8v13.9
			C962.1,132.5,961.3,133.3,960.4,133.3z"/>
	</g>
	<g>
		<path class="st5" d="M977,133.2h-5.6c-1,0-1.8-0.8-1.8-1.8v-13.9c0-1,0.8-1.8,1.8-1.8h5.6c1,0,1.8,0.8,1.8,1.8v13.9
			C978.7,132.4,977.9,133.2,977,133.2z"/>
	</g>
	<g>
		<path class="st5" d="M960.4,170h-5.5c-1,0-1.8-0.8-1.8-1.8v-13.5c0-1,0.8-1.8,1.8-1.8h5.5c1,0,1.8,0.8,1.8,1.8v13.5
			C962.1,169.2,961.3,170,960.4,170z"/>
	</g>
	<g>
		<path class="st5" d="M977,170.3h-5.6c-1,0-1.8-0.8-1.8-1.8v-13.9c0-1,0.8-1.8,1.8-1.8h5.6c1,0,1.8,0.8,1.8,1.8v13.9
			C978.7,169.5,977.9,170.3,977,170.3z"/>
	</g>
	<g>
		<path class="st5" d="M960.4,207.9h-5.5c-1,0-1.8-0.8-1.8-1.8v-13.5c0-1,0.8-1.8,1.8-1.8h5.5c1,0,1.8,0.8,1.8,1.8v13.5
			C962.1,207.1,961.3,207.9,960.4,207.9z"/>
	</g>
	<g>
		<path class="st5" d="M977,208.3h-5.6c-1,0-1.8-0.8-1.8-1.8v-13.9c0-1,0.8-1.8,1.8-1.8h5.6c1,0,1.8,0.8,1.8,1.8v13.9
			C978.7,207.5,977.9,208.3,977,208.3z"/>
	</g>
	<g>
		<path class="st5" d="M960.4,246.4h-5.6c-1,0-1.8-0.8-1.8-1.8v-13.9c0-1,0.8-1.8,1.8-1.8h5.6c1,0,1.8,0.8,1.8,1.8v13.9
			C962.1,245.6,961.3,246.4,960.4,246.4z"/>
	</g>
	<g>
		<path class="st5" d="M977,245.9h-5.5c-1,0-1.8-0.8-1.8-1.8v-13.5c0-1,0.8-1.8,1.8-1.8h5.5c1,0,1.8,0.8,1.8,1.8v13.5
			C978.7,245.1,977.9,245.9,977,245.9z"/>
	</g>
	<g>
		<path class="st5" d="M960.4,284.3h-5.6c-1,0-1.8-0.8-1.8-1.8v-13.9c0-1,0.8-1.8,1.8-1.8h5.6c1,0,1.8,0.8,1.8,1.8v13.9
			C962.1,283.6,961.3,284.3,960.4,284.3z"/>
	</g>
	<g>
		<path class="st5" d="M977,283.8h-5.5c-1,0-1.8-0.8-1.8-1.8v-13.5c0-1,0.8-1.8,1.8-1.8h5.5c1,0,1.8,0.8,1.8,1.8V282
			C978.7,283,977.9,283.8,977,283.8z"/>
	</g>
	<g>
		<path class="st5" d="M960.4,320.6h-5.6c-1,0-1.8-0.8-1.8-1.8v-13.9c0-1,0.8-1.8,1.8-1.8h5.6c1,0,1.8,0.8,1.8,1.8v13.9
			C962.1,319.8,961.3,320.6,960.4,320.6z"/>
	</g>
	<g>
		<path class="st5" d="M977,321.1h-5.5c-1,0-1.8-0.8-1.8-1.8v-14.5c0-1,0.8-1.8,1.8-1.8h5.5c1,0,1.8,0.8,1.8,1.8v14.5
			C978.7,320.3,977.9,321.1,977,321.1z"/>
	</g>
	<g>
		<path class="st5" d="M960.4,357.5h-5.6c-1,0-1.8-0.8-1.8-1.8v-13.8c0-1,0.8-1.8,1.8-1.8h5.6c1,0,1.8,0.8,1.8,1.8v13.9
			C962.1,356.8,961.3,357.5,960.4,357.5z"/>
	</g>
	<g>
		<path class="st5" d="M977,357.4h-5.6c-1,0-1.8-0.8-1.8-1.8v-13.9c0-1,0.8-1.8,1.8-1.8h5.6c1,0,1.8,0.8,1.8,1.8v13.9
			C978.7,356.7,977.9,357.4,977,357.4z"/>
	</g>
	<path class="st8" d="M978.8-4.1H952c-0.9,0-1.7-0.4-2.3-1l-19.2-21c-1.7-1.8-0.3-4.7,2.3-4.7h26.8c0.9,0,1.7,0.4,2.3,1l19.2,21
		C982.8-6.9,981.4-4.1,978.8-4.1z"/>
	<g>
		<path class="st4" d="M948-24.3v-10.9h9.9v10.9c0,0.5-0.4,1-1,1h-7.8C948.5-23.3,948-23.7,948-24.3z"/>
		<path class="st0" d="M948.1-24.4v-10.8h4.9v11.9h-3.9C948.5-23.3,948-23.8,948.1-24.4z"/>
		<path class="st4" d="M946.2-35.9v-1.6c0-0.4,0.4-0.8,0.8-0.8h11.9c0.4,0,0.8,0.4,0.8,0.8v1.5c0,0.4-0.4,0.8-0.8,0.8H947
			C946.6-35.2,946.2-35.5,946.2-35.9z"/>
		<path class="st0" d="M946.3-36v-1.4c0-0.4,0.3-0.8,0.8-0.8h5.9v3h-5.9C946.6-35.2,946.2-35.5,946.3-36z"/>
	</g>
</g>
<g>
	<path class="st4" d="M740.3,386.3h-29.4v-396h29.4c1.5,0,2.6,1.2,2.6,2.6v390.7C742.9,385.1,741.7,386.3,740.3,386.3z"/>
	<path class="st0" d="M701.2-21.3l-7.9-9.7c-0.8-1-2.3-0.9-3.1,0.1l-7.9,9.6l-9,11c-0.3,0.4-0.5,0.9-0.5,1.4v393
		c0,1.2,1,2.2,2.2,2.2h35.8V-8.9c0-0.5-0.2-1-0.5-1.4L701.2-21.3z"/>
	<g>
		<path class="st6" d="M688,21.6h-5.6c-1,0-1.8-0.8-1.8-1.8V5.9c0-1,0.8-1.8,1.8-1.8h5.6c1,0,1.8,0.8,1.8,1.8v13.9
			C689.8,20.8,689,21.6,688,21.6z"/>
	</g>
	<g>
		<path class="st6" d="M704.7,21.6h-5.6c-1,0-1.8-0.8-1.8-1.8V5.9c0-1,0.8-1.8,1.8-1.8h5.6c1,0,1.8,0.8,1.8,1.8v13.9
			C706.4,20.8,705.6,21.6,704.7,21.6z"/>
	</g>
	<g>
		<path class="st6" d="M688,58.5h-5.6c-1,0-1.8-0.8-1.8-1.8V42.9c0-1,0.8-1.8,1.8-1.8h5.6c1,0,1.8,0.8,1.8,1.8v13.9
			C689.8,57.8,689,58.5,688,58.5z"/>
	</g>
	<g>
		<path class="st6" d="M704.7,58.6h-5.6c-1,0-1.8-0.8-1.8-1.8V42.9c0-1,0.8-1.8,1.8-1.8h5.6c1,0,1.8,0.8,1.8,1.8v13.9
			C706.4,57.8,705.6,58.6,704.7,58.6z"/>
	</g>
	<g>
		<path class="st6" d="M688,94.6h-5.6c-1,0-1.8-0.8-1.8-1.8V78.9c0-1,0.8-1.8,1.8-1.8h5.6c1,0,1.8,0.8,1.8,1.8v13.9
			C689.8,93.8,689,94.6,688,94.6z"/>
	</g>
	<g>
		<path class="st6" d="M704.7,94.5h-5.6c-1,0-1.8-0.8-1.8-1.8V78.8c0-1,0.8-1.8,1.8-1.8h5.6c1,0,1.8,0.8,1.8,1.8v13.9
			C706.4,93.7,705.6,94.5,704.7,94.5z"/>
	</g>
	<g>
		<path class="st6" d="M688,131.5h-5.6c-1,0-1.8-0.8-1.8-1.8v-13.9c0-1,0.8-1.8,1.8-1.8h5.6c1,0,1.8,0.8,1.8,1.8v13.9
			C689.8,130.7,689,131.5,688,131.5z"/>
	</g>
	<g>
		<path class="st6" d="M704.7,131.4h-5.6c-1,0-1.8-0.8-1.8-1.8v-13.9c0-1,0.8-1.8,1.8-1.8h5.6c1,0,1.8,0.8,1.8,1.8v13.9
			C706.4,130.6,705.6,131.4,704.7,131.4z"/>
	</g>
	<g>
		<path class="st6" d="M688,168.2h-5.5c-1,0-1.8-0.8-1.8-1.8v-13.5c0-1,0.8-1.8,1.8-1.8h5.5c1,0,1.8,0.8,1.8,1.8v13.5
			C689.8,167.4,689,168.2,688,168.2z"/>
	</g>
	<g>
		<path class="st6" d="M704.7,168.5h-5.6c-1,0-1.8-0.8-1.8-1.8v-13.9c0-1,0.8-1.8,1.8-1.8h5.6c1,0,1.8,0.8,1.8,1.8v13.9
			C706.4,167.7,705.6,168.5,704.7,168.5z"/>
	</g>
	<g>
		<path class="st6" d="M688,206.1h-5.5c-1,0-1.8-0.8-1.8-1.8v-13.5c0-1,0.8-1.8,1.8-1.8h5.5c1,0,1.8,0.8,1.8,1.8v13.5
			C689.8,205.3,689,206.1,688,206.1z"/>
	</g>
	<g>
		<path class="st6" d="M704.7,206.5h-5.6c-1,0-1.8-0.8-1.8-1.8v-13.9c0-1,0.8-1.8,1.8-1.8h5.6c1,0,1.8,0.8,1.8,1.8v13.9
			C706.4,205.7,705.6,206.5,704.7,206.5z"/>
	</g>
	<g>
		<path class="st6" d="M688,244.6h-5.6c-1,0-1.8-0.8-1.8-1.8v-13.9c0-1,0.8-1.8,1.8-1.8h5.6c1,0,1.8,0.8,1.8,1.8v13.9
			C689.8,243.8,689,244.6,688,244.6z"/>
	</g>
	<g>
		<path class="st6" d="M704.7,244.1h-5.5c-1,0-1.8-0.8-1.8-1.8v-13.5c0-1,0.8-1.8,1.8-1.8h5.5c1,0,1.8,0.8,1.8,1.8v13.5
			C706.4,243.3,705.6,244.1,704.7,244.1z"/>
	</g>
	<g>
		<path class="st6" d="M688,282.5h-5.6c-1,0-1.8-0.8-1.8-1.8v-13.9c0-1,0.8-1.8,1.8-1.8h5.6c1,0,1.8,0.8,1.8,1.8v13.9
			C689.8,281.8,689,282.5,688,282.5z"/>
	</g>
	<g>
		<path class="st6" d="M704.7,282h-5.5c-1,0-1.8-0.8-1.8-1.8v-13.5c0-1,0.8-1.8,1.8-1.8h5.5c1,0,1.8,0.8,1.8,1.8v13.5
			C706.4,281.2,705.6,282,704.7,282z"/>
	</g>
	<g>
		<path class="st6" d="M688,318.8h-5.6c-1,0-1.8-0.8-1.8-1.8v-13.9c0-1,0.8-1.8,1.8-1.8h5.6c1,0,1.8,0.8,1.8,1.8V317
			C689.8,318,689,318.8,688,318.8z"/>
	</g>
	<g>
		<path class="st6" d="M704.7,319.3h-5.5c-1,0-1.8-0.8-1.8-1.8V303c0-1,0.8-1.8,1.8-1.8h5.5c1,0,1.8,0.8,1.8,1.8v14.5
			C706.4,318.5,705.6,319.3,704.7,319.3z"/>
	</g>
	<g>
		<path class="st6" d="M688,355.7h-5.6c-1,0-1.8-0.8-1.8-1.8v-13.8c0-1,0.8-1.8,1.8-1.8h5.6c1,0,1.8,0.8,1.8,1.8V354
			C689.8,355,689,355.7,688,355.7z"/>
	</g>
	<g>
		<path class="st6" d="M704.7,355.6h-5.6c-1,0-1.8-0.8-1.8-1.8v-13.9c0-1,0.8-1.8,1.8-1.8h5.6c1,0,1.8,0.8,1.8,1.8v13.9
			C706.4,354.9,705.6,355.6,704.7,355.6z"/>
	</g>
	<g>
		<path class="st5" d="M721.1,21.6h-5.6c-1,0-1.8-0.8-1.8-1.8V5.9c0-1,0.8-1.8,1.8-1.8h5.6c1,0,1.8,0.8,1.8,1.8v13.9
			C722.8,20.8,722,21.6,721.1,21.6z"/>
	</g>
	<g>
		<path class="st5" d="M737.7,21.6h-5.6c-1,0-1.8-0.8-1.8-1.8V5.9c0-1,0.8-1.8,1.8-1.8h5.6c1,0,1.8,0.8,1.8,1.8v13.9
			C739.4,20.8,738.6,21.6,737.7,21.6z"/>
	</g>
	<g>
		<path class="st5" d="M721.1,58.5h-5.6c-1,0-1.8-0.8-1.8-1.8V42.9c0-1,0.8-1.8,1.8-1.8h5.6c1,0,1.8,0.8,1.8,1.8v13.9
			C722.8,57.8,722,58.5,721.1,58.5z"/>
	</g>
	<g>
		<path class="st5" d="M737.7,58.6h-5.6c-1,0-1.8-0.8-1.8-1.8V42.9c0-1,0.8-1.8,1.8-1.8h5.6c1,0,1.8,0.8,1.8,1.8v13.9
			C739.4,57.8,738.6,58.6,737.7,58.6z"/>
	</g>
	<g>
		<path class="st5" d="M721.1,94.6h-5.6c-1,0-1.8-0.8-1.8-1.8V78.9c0-1,0.8-1.8,1.8-1.8h5.6c1,0,1.8,0.8,1.8,1.8v13.9
			C722.8,93.8,722,94.6,721.1,94.6z"/>
	</g>
	<g>
		<path class="st5" d="M737.7,94.5h-5.6c-1,0-1.8-0.8-1.8-1.8V78.8c0-1,0.8-1.8,1.8-1.8h5.6c1,0,1.8,0.8,1.8,1.8v13.9
			C739.4,93.7,738.6,94.5,737.7,94.5z"/>
	</g>
	<g>
		<path class="st5" d="M721.1,131.5h-5.6c-1,0-1.8-0.8-1.8-1.8v-13.9c0-1,0.8-1.8,1.8-1.8h5.6c1,0,1.8,0.8,1.8,1.8v13.9
			C722.8,130.7,722,131.5,721.1,131.5z"/>
	</g>
	<g>
		<path class="st5" d="M737.7,131.4h-5.6c-1,0-1.8-0.8-1.8-1.8v-13.9c0-1,0.8-1.8,1.8-1.8h5.6c1,0,1.8,0.8,1.8,1.8v13.9
			C739.4,130.6,738.6,131.4,737.7,131.4z"/>
	</g>
	<g>
		<path class="st5" d="M721.1,168.2h-5.5c-1,0-1.8-0.8-1.8-1.8v-13.5c0-1,0.8-1.8,1.8-1.8h5.5c1,0,1.8,0.8,1.8,1.8v13.5
			C722.8,167.4,722,168.2,721.1,168.2z"/>
	</g>
	<g>
		<path class="st5" d="M737.7,168.5h-5.6c-1,0-1.8-0.8-1.8-1.8v-13.9c0-1,0.8-1.8,1.8-1.8h5.6c1,0,1.8,0.8,1.8,1.8v13.9
			C739.4,167.7,738.6,168.5,737.7,168.5z"/>
	</g>
	<g>
		<path class="st5" d="M721.1,206.1h-5.5c-1,0-1.8-0.8-1.8-1.8v-13.5c0-1,0.8-1.8,1.8-1.8h5.5c1,0,1.8,0.8,1.8,1.8v13.5
			C722.8,205.3,722,206.1,721.1,206.1z"/>
	</g>
	<g>
		<path class="st5" d="M737.7,206.5h-5.6c-1,0-1.8-0.8-1.8-1.8v-13.9c0-1,0.8-1.8,1.8-1.8h5.6c1,0,1.8,0.8,1.8,1.8v13.9
			C739.4,205.7,738.6,206.5,737.7,206.5z"/>
	</g>
	<g>
		<path class="st5" d="M721.1,244.6h-5.6c-1,0-1.8-0.8-1.8-1.8v-13.9c0-1,0.8-1.8,1.8-1.8h5.6c1,0,1.8,0.8,1.8,1.8v13.9
			C722.8,243.8,722,244.6,721.1,244.6z"/>
	</g>
	<g>
		<path class="st5" d="M737.7,244.1h-5.5c-1,0-1.8-0.8-1.8-1.8v-13.5c0-1,0.8-1.8,1.8-1.8h5.5c1,0,1.8,0.8,1.8,1.8v13.5
			C739.4,243.3,738.6,244.1,737.7,244.1z"/>
	</g>
	<g>
		<path class="st5" d="M721.1,282.5h-5.6c-1,0-1.8-0.8-1.8-1.8v-13.9c0-1,0.8-1.8,1.8-1.8h5.6c1,0,1.8,0.8,1.8,1.8v13.9
			C722.8,281.8,722,282.5,721.1,282.5z"/>
	</g>
	<g>
		<path class="st5" d="M737.7,282h-5.5c-1,0-1.8-0.8-1.8-1.8v-13.5c0-1,0.8-1.8,1.8-1.8h5.5c1,0,1.8,0.8,1.8,1.8v13.5
			C739.4,281.2,738.6,282,737.7,282z"/>
	</g>
	<g>
		<path class="st5" d="M721.1,318.8h-5.6c-1,0-1.8-0.8-1.8-1.8v-13.9c0-1,0.8-1.8,1.8-1.8h5.6c1,0,1.8,0.8,1.8,1.8V317
			C722.8,318,722,318.8,721.1,318.8z"/>
	</g>
	<g>
		<path class="st5" d="M737.7,319.3h-5.5c-1,0-1.8-0.8-1.8-1.8V303c0-1,0.8-1.8,1.8-1.8h5.5c1,0,1.8,0.8,1.8,1.8v14.5
			C739.4,318.5,738.6,319.3,737.7,319.3z"/>
	</g>
	<g>
		<path class="st5" d="M721.1,355.7h-5.6c-1,0-1.8-0.8-1.8-1.8v-13.8c0-1,0.8-1.8,1.8-1.8h5.6c1,0,1.8,0.8,1.8,1.8V354
			C722.8,355,722,355.7,721.1,355.7z"/>
	</g>
	<g>
		<path class="st5" d="M737.7,355.6h-5.6c-1,0-1.8-0.8-1.8-1.8v-13.9c0-1,0.8-1.8,1.8-1.8h5.6c1,0,1.8,0.8,1.8,1.8v13.9
			C739.4,354.9,738.6,355.6,737.7,355.6z"/>
	</g>
	<path class="st8" d="M739.5-5.9h-26.8c-0.9,0-1.7-0.4-2.3-1l-19.2-21c-1.7-1.8-0.3-4.7,2.3-4.7h26.8c0.9,0,1.7,0.4,2.3,1l19.2,21
		C743.5-8.7,742.1-5.9,739.5-5.9z"/>
	<g>
		<path class="st4" d="M708.9-25.3v-10.9h9.9v10.9c0,0.5-0.4,1-1,1H710C709.4-24.3,708.9-24.7,708.9-25.3z"/>
		<path class="st0" d="M709-25.4v-10.8h4.9v11.9H710C709.4-24.3,708.9-24.8,709-25.4z"/>
		<path class="st4" d="M707-36.9v-1.6c0-0.4,0.4-0.8,0.8-0.8h11.9c0.4,0,0.8,0.4,0.8,0.8v1.5c0,0.4-0.4,0.8-0.8,0.8h-11.9
			C707.5-36.2,707-36.5,707-36.9z"/>
		<path class="st0" d="M707.1-37v-1.4c0-0.4,0.3-0.8,0.8-0.8h5.9v3H708C707.5-36.2,707-36.5,707.1-37z"/>
	</g>
</g>
<g>
	<path class="st4" d="M471.1,392.9h55.1c3.2,0,5.8-4.2,5.8-9.4V220.2c0-2.9-0.8-5.7-2.3-7.5L507,184.4c-2-2.5-4.7-2.6-6.7-0.4
		l-29.2,31.5L471.1,392.9L471.1,392.9z"/>
	<path class="st0" d="M417.6,392.9h53.5V215.5h-53.5c-4.1,0-7.3,3.3-7.3,7.3v162.7C410.2,389.6,413.5,392.9,417.6,392.9z"/>
	<g>
		<path class="st6" d="M455.4,253.1h6.4c1,0,1.8-0.8,1.8-1.8v-15.4c0-1-0.8-1.8-1.8-1.8h-6.4c-1,0-1.8,0.8-1.8,1.8v15.4
			C453.6,252.3,454.4,253.1,455.4,253.1z"/>
	</g>
	<g>
		<path class="st6" d="M455.4,293.2h6.4c1,0,1.8-0.8,1.8-1.8V276c0-1-0.8-1.8-1.8-1.8h-6.4c-1,0-1.8,0.8-1.8,1.8v15.4
			C453.6,292.4,454.4,293.2,455.4,293.2z"/>
	</g>
	<g>
		<path class="st6" d="M437.6,253.1h6.4c1,0,1.8-0.8,1.8-1.8v-15.4c0-1-0.8-1.8-1.8-1.8h-6.4c-1,0-1.8,0.8-1.8,1.8v15.4
			C435.8,252.3,436.6,253.1,437.6,253.1z"/>
	</g>
	<g>
		<path class="st6" d="M419.6,253.1h6.4c1,0,1.8-0.8,1.8-1.8v-15.4c0-1-0.8-1.8-1.8-1.8h-6.4c-1,0-1.8,0.8-1.8,1.8v15.4
			C417.8,252.3,418.6,253.1,419.6,253.1z"/>
	</g>
	<g>
		<path class="st6" d="M437.6,293.2h6.4c1,0,1.8-0.8,1.8-1.8V276c0-1-0.8-1.8-1.8-1.8h-6.4c-1,0-1.8,0.8-1.8,1.8v15.4
			C435.8,292.4,436.6,293.2,437.6,293.2z"/>
	</g>
	<g>
		<path class="st6" d="M419.6,293.2h6.4c1,0,1.8-0.8,1.8-1.8V276c0-1-0.8-1.8-1.8-1.8h-6.4c-1,0-1.8,0.8-1.8,1.8v15.4
			C417.8,292.4,418.6,293.2,419.6,293.2z"/>
	</g>
	<g>
		<path class="st6" d="M455.4,331.5h6.4c1,0,1.8-0.8,1.8-1.8v-15.4c0-1-0.8-1.8-1.8-1.8h-6.4c-1,0-1.8,0.8-1.8,1.8v15.4
			C453.6,330.7,454.4,331.5,455.4,331.5z"/>
	</g>
	<g>
		<path class="st6" d="M455.4,371.5h6.4c1,0,1.8-0.8,1.8-1.8v-15.4c0-1-0.8-1.8-1.8-1.8h-6.4c-1,0-1.8,0.8-1.8,1.8v15.4
			C453.6,370.8,454.4,371.5,455.4,371.5z"/>
	</g>
	<g>
		<path class="st6" d="M437.6,331.5h6.4c1,0,1.8-0.8,1.8-1.8v-15.4c0-1-0.8-1.8-1.8-1.8h-6.4c-1,0-1.8,0.8-1.8,1.8v15.4
			C435.8,330.7,436.6,331.5,437.6,331.5z"/>
	</g>
	<g>
		<path class="st6" d="M419.6,331.5h6.4c1,0,1.8-0.8,1.8-1.8v-15.4c0-1-0.8-1.8-1.8-1.8h-6.4c-1,0-1.8,0.8-1.8,1.8v15.4
			C417.8,330.7,418.6,331.5,419.6,331.5z"/>
	</g>
	<g>
		<path class="st6" d="M437.6,371.5h6.4c1,0,1.8-0.8,1.8-1.8v-15.4c0-1-0.8-1.8-1.8-1.8h-6.4c-1,0-1.8,0.8-1.8,1.8v15.4
			C435.8,370.7,436.6,371.5,437.6,371.5z"/>
	</g>
	<g>
		<path class="st6" d="M419.6,371.5h6.4c1,0,1.8-0.8,1.8-1.8v-15.4c0-1-0.8-1.8-1.8-1.8h-6.4c-1,0-1.8,0.8-1.8,1.8v15.4
			C417.8,370.8,418.6,371.5,419.6,371.5z"/>
	</g>
	<g>
		<path class="st5" d="M516.2,253.1h6.4c1,0,1.8-0.8,1.8-1.8v-15.4c0-1-0.8-1.8-1.8-1.8h-6.4c-1,0-1.8,0.8-1.8,1.8v15.4
			C514.5,252.3,515.3,253.1,516.2,253.1z"/>
	</g>
	<g>
		<path class="st5" d="M516.2,293.2h6.4c1,0,1.8-0.8,1.8-1.8V276c0-1-0.8-1.8-1.8-1.8h-6.4c-1,0-1.8,0.8-1.8,1.8v15.4
			C514.5,292.4,515.3,293.2,516.2,293.2z"/>
	</g>
	<g>
		<path class="st5" d="M498.5,253.1h6.4c1,0,1.8-0.8,1.8-1.8v-15.4c0-1-0.8-1.8-1.8-1.8h-6.4c-1,0-1.8,0.8-1.8,1.8v15.4
			C496.7,252.3,497.5,253.1,498.5,253.1z"/>
	</g>
	<g>
		<path class="st5" d="M480.5,253.1h6.4c1,0,1.8-0.8,1.8-1.8v-15.4c0-1-0.8-1.8-1.8-1.8h-6.4c-1,0-1.8,0.8-1.8,1.8v15.4
			C478.7,252.3,479.5,253.1,480.5,253.1z"/>
	</g>
	<g>
		<path class="st5" d="M498.5,293.2h6.4c1,0,1.8-0.8,1.8-1.8V276c0-1-0.8-1.8-1.8-1.8h-6.4c-1,0-1.8,0.8-1.8,1.8v15.4
			C496.7,292.4,497.5,293.2,498.5,293.2z"/>
	</g>
	<g>
		<path class="st5" d="M480.5,293.2h6.4c1,0,1.8-0.8,1.8-1.8V276c0-1-0.8-1.8-1.8-1.8h-6.4c-1,0-1.8,0.8-1.8,1.8v15.4
			C478.7,292.4,479.5,293.2,480.5,293.2z"/>
	</g>
	<g>
		<path class="st5" d="M516.2,331.5h6.4c1,0,1.8-0.8,1.8-1.8v-15.4c0-1-0.8-1.8-1.8-1.8h-6.4c-1,0-1.8,0.8-1.8,1.8v15.4
			C514.5,330.7,515.3,331.5,516.2,331.5z"/>
	</g>
	<g>
		<path class="st5" d="M516.2,371.5h6.4c1,0,1.8-0.8,1.8-1.8v-15.4c0-1-0.8-1.8-1.8-1.8h-6.4c-1,0-1.8,0.8-1.8,1.8v15.4
			C514.5,370.8,515.3,371.5,516.2,371.5z"/>
	</g>
	<g>
		<path class="st5" d="M498.5,331.5h6.4c1,0,1.8-0.8,1.8-1.8v-15.4c0-1-0.8-1.8-1.8-1.8h-6.4c-1,0-1.8,0.8-1.8,1.8v15.4
			C496.7,330.7,497.5,331.5,498.5,331.5z"/>
	</g>
	<g>
		<path class="st5" d="M480.5,331.5h6.4c1,0,1.8-0.8,1.8-1.8v-15.4c0-1-0.8-1.8-1.8-1.8h-6.4c-1,0-1.8,0.8-1.8,1.8v15.4
			C478.7,330.7,479.5,331.5,480.5,331.5z"/>
	</g>
	<g>
		<path class="st5" d="M498.5,371.5h6.4c1,0,1.8-0.8,1.8-1.8v-15.4c0-1-0.8-1.8-1.8-1.8h-6.4c-1,0-1.8,0.8-1.8,1.8v15.4
			C496.7,370.7,497.5,371.5,498.5,371.5z"/>
	</g>
	<g>
		<path class="st5" d="M480.5,371.5h6.4c1,0,1.8-0.8,1.8-1.8v-15.4c0-1-0.8-1.8-1.8-1.8h-6.4c-1,0-1.8,0.8-1.8,1.8v15.4
			C478.7,370.8,479.5,371.5,480.5,371.5z"/>
	</g>
	<path class="st9" d="M416.8,218.9h48.8c1.6,0,3.2-0.5,4.2-1.5l35-30.7c3.1-2.7,0.5-6.8-4.2-6.8h-48.8c-1.6,0-3.2,0.5-4.2,1.5
		l-35,30.7C409.4,214.8,412,218.9,416.8,218.9z"/>
	<g>
		<path class="st4" d="M456.5,189.5v-15.6h14.2v15.6c0,0.7-0.6,1.4-1.4,1.4h-11.2C457.2,190.9,456.5,190.4,456.5,189.5z"/>
		<path class="st0" d="M456.7,189.4v-15.5h7v17h-5.6C457.2,190.9,456.5,190.2,456.7,189.4z"/>
		<path class="st4" d="M454,172.9v-2.3c0-0.6,0.6-1.1,1.1-1.1h17c0.6,0,1.1,0.6,1.1,1.1v2.1c0,0.6-0.6,1.1-1.1,1.1h-17
			C454.5,173.9,454,173.5,454,172.9z"/>
		<path class="st0" d="M454.1,172.8v-2c0-0.6,0.4-1.1,1.1-1.1h8.4v4.3h-8.4C454.5,173.9,454,173.5,454.1,172.8z"/>
	</g>
</g>
<g>
	<path class="st0" d="M612.8,389.2h-39.4c-2.3,0-4.1-1.7-4.1-5.4V265.7c0-2.1,0.6-4.1,1.6-5.3l16.2-20.2c1.4-1.8,3.3-1.9,4.8-0.3
		l20.9,22.5V389.2z"/>
	<path class="st4" d="M648.9,389.2h-36.2V262.4h36.2c4.1,0,7.3,3.3,7.3,7.3v113.6C656.2,387.4,652.9,389.2,648.9,389.2z"/>
	<g>
		<path class="st5" d="M623.5,289.3h-3.6c-1,0-1.8-0.8-1.8-1.8v-10c0-1,0.8-1.8,1.8-1.8h3.6c1,0,1.8,0.8,1.8,1.8v10
			C625.3,288.5,624.5,289.3,623.5,289.3z"/>
	</g>
	<g>
		<path class="st5" d="M623.5,317.9h-3.6c-1,0-1.8-0.8-1.8-1.8v-10c0-1,0.8-1.8,1.8-1.8h3.6c1,0,1.8,0.8,1.8,1.8v10
			C625.3,317.1,624.5,317.9,623.5,317.9z"/>
	</g>
	<g>
		<path class="st5" d="M636.2,289.3h-3.5c-1,0-1.8-0.8-1.8-1.8v-10c0-1,0.8-1.8,1.8-1.8h3.6c1,0,1.8,0.8,1.8,1.8v10
			C638,288.5,637.2,289.3,636.2,289.3z"/>
	</g>
	<g>
		<path class="st5" d="M649.1,289.3h-3.6c-1,0-1.8-0.8-1.8-1.8v-10c0-1,0.8-1.8,1.8-1.8h3.6c1,0,1.8,0.8,1.8,1.8v10
			C650.9,288.5,650.1,289.3,649.1,289.3z"/>
	</g>
	<g>
		<path class="st5" d="M636.2,317.9h-3.5c-1,0-1.8-0.8-1.8-1.8v-10c0-1,0.8-1.8,1.8-1.8h3.6c1,0,1.8,0.8,1.8,1.8v10
			C638,317.1,637.2,317.9,636.2,317.9z"/>
	</g>
	<g>
		<path class="st5" d="M649.1,317.9h-3.6c-1,0-1.8-0.8-1.8-1.8v-10c0-1,0.8-1.8,1.8-1.8h3.6c1,0,1.8,0.8,1.8,1.8v10
			C650.9,317.1,650.1,317.9,649.1,317.9z"/>
	</g>
	<g>
		<path class="st5" d="M623.5,345.3h-3.6c-1,0-1.8-0.8-1.8-1.8v-10c0-1,0.8-1.8,1.8-1.8h3.6c1,0,1.8,0.8,1.8,1.8v10
			C625.3,344.5,624.5,345.3,623.5,345.3z"/>
	</g>
	<g>
		<path class="st5" d="M623.5,374h-3.6c-1,0-1.8-0.8-1.8-1.8v-10c0-1,0.8-1.8,1.8-1.8h3.6c1,0,1.8,0.8,1.8,1.8v10
			C625.3,373.2,624.5,374,623.5,374z"/>
	</g>
	<g>
		<path class="st5" d="M636.2,345.3h-3.5c-1,0-1.8-0.8-1.8-1.8v-10c0-1,0.8-1.8,1.8-1.8h3.6c1,0,1.8,0.8,1.8,1.8v10
			C638,344.5,637.2,345.3,636.2,345.3z"/>
	</g>
	<g>
		<path class="st5" d="M649.1,345.3h-3.6c-1,0-1.8-0.8-1.8-1.8v-10c0-1,0.8-1.8,1.8-1.8h3.6c1,0,1.8,0.8,1.8,1.8v10
			C650.9,344.5,650.1,345.3,649.1,345.3z"/>
	</g>
	<g>
		<path class="st5" d="M636.2,374h-3.5c-1,0-1.8-0.8-1.8-1.8v-10c0-1,0.8-1.8,1.8-1.8h3.6c1,0,1.8,0.8,1.8,1.8v10
			C638,373.2,637.2,374,636.2,374z"/>
	</g>
	<g>
		<path class="st5" d="M649.1,374h-3.6c-1,0-1.8-0.8-1.8-1.8v-10c0-1,0.8-1.8,1.8-1.8h3.6c1,0,1.8,0.8,1.8,1.8v10
			C650.9,373.2,650.1,374,649.1,374z"/>
	</g>
	<g>
		<path class="st6" d="M580,289.3h-3.6c-1,0-1.8-0.8-1.8-1.8v-10c0-1,0.8-1.8,1.8-1.8h3.6c1,0,1.8,0.8,1.8,1.8v10
			C581.8,288.5,581,289.3,580,289.3z"/>
	</g>
	<g>
		<path class="st6" d="M580,317.9h-3.6c-1,0-1.8-0.8-1.8-1.8v-10c0-1,0.8-1.8,1.8-1.8h3.6c1,0,1.8,0.8,1.8,1.8v10
			C581.8,317.1,581,317.9,580,317.9z"/>
	</g>
	<g>
		<path class="st6" d="M592.7,289.3h-3.6c-1,0-1.8-0.8-1.8-1.8v-10c0-1,0.8-1.8,1.8-1.8h3.6c1,0,1.8,0.8,1.8,1.8v10
			C594.5,288.5,593.7,289.3,592.7,289.3z"/>
	</g>
	<g>
		<path class="st6" d="M605.6,289.3H602c-1,0-1.8-0.8-1.8-1.8v-10c0-1,0.8-1.8,1.8-1.8h3.6c1,0,1.8,0.8,1.8,1.8v10
			C607.3,288.5,606.6,289.3,605.6,289.3z"/>
	</g>
	<g>
		<path class="st6" d="M592.7,317.9h-3.6c-1,0-1.8-0.8-1.8-1.8v-10c0-1,0.8-1.8,1.8-1.8h3.6c1,0,1.8,0.8,1.8,1.8v10
			C594.5,317.1,593.7,317.9,592.7,317.9z"/>
	</g>
	<g>
		<path class="st6" d="M605.6,317.9H602c-1,0-1.8-0.8-1.8-1.8v-10c0-1,0.8-1.8,1.8-1.8h3.6c1,0,1.8,0.8,1.8,1.8v10
			C607.3,317.1,606.6,317.9,605.6,317.9z"/>
	</g>
	<g>
		<path class="st6" d="M580,345.3h-3.6c-1,0-1.8-0.8-1.8-1.8v-10c0-1,0.8-1.8,1.8-1.8h3.6c1,0,1.8,0.8,1.8,1.8v10
			C581.8,344.5,581,345.3,580,345.3z"/>
	</g>
	<g>
		<path class="st6" d="M580,374h-3.6c-1,0-1.8-0.8-1.8-1.8v-10c0-1,0.8-1.8,1.8-1.8h3.6c1,0,1.8,0.8,1.8,1.8v10
			C581.8,373.2,581,374,580,374z"/>
	</g>
	<g>
		<path class="st6" d="M592.7,345.3h-3.6c-1,0-1.8-0.8-1.8-1.8v-10c0-1,0.8-1.8,1.8-1.8h3.6c1,0,1.8,0.8,1.8,1.8v10
			C594.5,344.5,593.7,345.3,592.7,345.3z"/>
	</g>
	<g>
		<path class="st6" d="M605.6,345.3H602c-1,0-1.8-0.8-1.8-1.8v-10c0-1,0.8-1.8,1.8-1.8h3.6c1,0,1.8,0.8,1.8,1.8v10
			C607.3,344.5,606.6,345.3,605.6,345.3z"/>
	</g>
	<g>
		<path class="st6" d="M592.7,374h-3.6c-1,0-1.8-0.8-1.8-1.8v-10c0-1,0.8-1.8,1.8-1.8h3.6c1,0,1.8,0.8,1.8,1.8v10
			C594.5,373.2,593.7,374,592.7,374z"/>
	</g>
	<g>
		<path class="st6" d="M605.6,374H602c-1,0-1.8-0.8-1.8-1.8v-10c0-1,0.8-1.8,1.8-1.8h3.6c1,0,1.8,0.8,1.8,1.8v10
			C607.3,373.2,606.6,374,605.6,374z"/>
	</g>
	<path class="st7" d="M650.1,264.9h-34.9c-1.2,0-2.3-0.4-3-1l-25-21.9c-2.2-1.9-0.4-4.9,3-4.9h34.9c1.2,0,2.3,0.4,3,1l25,21.9
		C655.4,262,653.5,264.9,650.1,264.9z"/>
	<g>
		<path class="st4" d="M609.5,243.6V231h11.4v12.6c0,0.6-0.5,1.2-1.2,1.2h-9C610,244.8,609.5,244.3,609.5,243.6z"/>
		<path class="st0" d="M609.6,243.5V231h5.7v13.8h-4.5C610,244.8,609.5,244.2,609.6,243.5z"/>
		<path class="st4" d="M607.4,230.2v-1.8c0-0.5,0.5-0.9,0.9-0.9h13.8c0.5,0,0.9,0.5,0.9,0.9v1.7c0,0.5-0.5,0.9-0.9,0.9h-13.8
			C607.9,231,607.4,230.7,607.4,230.2z"/>
		<path class="st0" d="M607.5,230.1v-1.6c0-0.5,0.3-0.9,0.9-0.9h6.8v3.5h-6.8C607.9,231,607.4,230.7,607.5,230.1z"/>
	</g>
</g>
<g>
	<path class="st4" d="M551,263.6l20.9-22.5c1.5-1.6,3.4-1.5,4.8,0.3l16.2,20.2c1,1.2,1.6,3.2,1.6,5.3V385c0,3.7-1.8,5.4-4.1,5.4H551
		V263.6z"/>
	<path class="st0" d="M507.5,384.5V270.9c0-4,3.2-7.3,7.3-7.3H551v126.8h-36.2C510.8,390.4,507.5,388.6,507.5,384.5z"/>
	<g>
		<path class="st6" d="M538.5,288.7v-10c0-1,0.8-1.8,1.8-1.8h3.6c1,0,1.8,0.8,1.8,1.8v10c0,1-0.8,1.8-1.8,1.8h-3.6
			C539.3,290.5,538.5,289.7,538.5,288.7z"/>
	</g>
	<g>
		<path class="st6" d="M538.5,317.3v-10c0-1,0.8-1.8,1.8-1.8h3.6c1,0,1.8,0.8,1.8,1.8v10c0,1-0.8,1.8-1.8,1.8h-3.6
			C539.3,319.1,538.5,318.3,538.5,317.3z"/>
	</g>
	<g>
		<path class="st6" d="M525.7,288.7v-10c0-1,0.8-1.8,1.8-1.8h3.6c1,0,1.8,0.8,1.8,1.8v10c0,1-0.8,1.8-1.8,1.8h-3.5
			C526.6,290.5,525.8,289.7,525.7,288.7z"/>
	</g>
	<g>
		<path class="st6" d="M512.9,288.7v-10c0-1,0.8-1.8,1.8-1.8h3.6c1,0,1.8,0.8,1.8,1.8v10c0,1-0.8,1.8-1.8,1.8h-3.6
			C513.7,290.5,512.9,289.7,512.9,288.7z"/>
	</g>
	<g>
		<path class="st6" d="M525.7,317.3v-10c0-1,0.8-1.8,1.8-1.8h3.6c1,0,1.8,0.8,1.8,1.8v10c0,1-0.8,1.8-1.8,1.8h-3.5
			C526.6,319.1,525.8,318.3,525.7,317.3z"/>
	</g>
	<g>
		<path class="st6" d="M512.9,317.3v-10c0-1,0.8-1.8,1.8-1.8h3.6c1,0,1.8,0.8,1.8,1.8v10c0,1-0.8,1.8-1.8,1.8h-3.6
			C513.7,319.1,512.9,318.3,512.9,317.3z"/>
	</g>
	<g>
		<path class="st6" d="M538.5,344.7v-10c0-1,0.8-1.8,1.8-1.8h3.6c1,0,1.8,0.8,1.8,1.8v10c0,1-0.8,1.8-1.8,1.8h-3.6
			C539.3,346.5,538.5,345.7,538.5,344.7z"/>
	</g>
	<g>
		<path class="st6" d="M538.5,373.4v-10c0-1,0.8-1.8,1.8-1.8h3.6c1,0,1.8,0.8,1.8,1.8v10c0,1-0.8,1.8-1.8,1.8h-3.6
			C539.3,375.2,538.5,374.4,538.5,373.4z"/>
	</g>
	<g>
		<path class="st6" d="M525.7,344.7v-10c0-1,0.8-1.8,1.8-1.8h3.6c1,0,1.8,0.8,1.8,1.8v10c0,1-0.8,1.8-1.8,1.8h-3.5
			C526.6,346.5,525.8,345.7,525.7,344.7z"/>
	</g>
	<g>
		<path class="st6" d="M512.9,344.7v-10c0-1,0.8-1.8,1.8-1.8h3.6c1,0,1.8,0.8,1.8,1.8v10c0,1-0.8,1.8-1.8,1.8h-3.6
			C513.7,346.5,512.9,345.7,512.9,344.7z"/>
	</g>
	<g>
		<path class="st6" d="M525.7,373.4v-10c0-1,0.8-1.8,1.8-1.8h3.6c1,0,1.8,0.8,1.8,1.8v10c0,1-0.8,1.8-1.8,1.8h-3.5
			C526.6,375.2,525.8,374.4,525.7,373.4z"/>
	</g>
	<g>
		<path class="st6" d="M512.9,373.4v-10c0-1,0.8-1.8,1.8-1.8h3.6c1,0,1.8,0.8,1.8,1.8v10c0,1-0.8,1.8-1.8,1.8h-3.6
			C513.7,375.2,512.9,374.4,512.9,373.4z"/>
	</g>
	<g>
		<path class="st5" d="M582,288.7v-10c0-1,0.8-1.8,1.8-1.8h3.6c1,0,1.8,0.8,1.8,1.8v10c0,1-0.8,1.8-1.8,1.8h-3.6
			C582.8,290.5,582,289.7,582,288.7z"/>
	</g>
	<g>
		<path class="st5" d="M582,317.3v-10c0-1,0.8-1.8,1.8-1.8h3.6c1,0,1.8,0.8,1.8,1.8v10c0,1-0.8,1.8-1.8,1.8h-3.6
			C582.8,319.1,582,318.3,582,317.3z"/>
	</g>
	<g>
		<path class="st5" d="M569.3,288.7v-10c0-1,0.8-1.8,1.8-1.8h3.6c1,0,1.8,0.8,1.8,1.8v10c0,1-0.8,1.8-1.8,1.8h-3.6
			C570.1,290.5,569.3,289.7,569.3,288.7z"/>
	</g>
	<g>
		<path class="st5" d="M556.4,288.7v-10c0-1,0.8-1.8,1.8-1.8h3.6c1,0,1.8,0.8,1.8,1.8v10c0,1-0.8,1.8-1.8,1.8h-3.6
			C557.2,290.5,556.5,289.7,556.4,288.7z"/>
	</g>
	<g>
		<path class="st5" d="M569.3,317.3v-10c0-1,0.8-1.8,1.8-1.8h3.6c1,0,1.8,0.8,1.8,1.8v10c0,1-0.8,1.8-1.8,1.8h-3.6
			C570.1,319.1,569.3,318.3,569.3,317.3z"/>
	</g>
	<g>
		<path class="st5" d="M556.4,317.3v-10c0-1,0.8-1.8,1.8-1.8h3.6c1,0,1.8,0.8,1.8,1.8v10c0,1-0.8,1.8-1.8,1.8h-3.6
			C557.2,319.1,556.5,318.3,556.4,317.3z"/>
	</g>
	<g>
		<path class="st5" d="M582,344.7v-10c0-1,0.8-1.8,1.8-1.8h3.6c1,0,1.8,0.8,1.8,1.8v10c0,1-0.8,1.8-1.8,1.8h-3.6
			C582.8,346.5,582,345.7,582,344.7z"/>
	</g>
	<g>
		<path class="st5" d="M582,373.4v-10c0-1,0.8-1.8,1.8-1.8h3.6c1,0,1.8,0.8,1.8,1.8v10c0,1-0.8,1.8-1.8,1.8h-3.6
			C582.8,375.2,582,374.4,582,373.4z"/>
	</g>
	<g>
		<path class="st5" d="M569.3,344.7v-10c0-1,0.8-1.8,1.8-1.8h3.6c1,0,1.8,0.8,1.8,1.8v10c0,1-0.8,1.8-1.8,1.8h-3.6
			C570.1,346.5,569.3,345.7,569.3,344.7z"/>
	</g>
	<g>
		<path class="st5" d="M556.4,344.7v-10c0-1,0.8-1.8,1.8-1.8h3.6c1,0,1.8,0.8,1.8,1.8v10c0,1-0.8,1.8-1.8,1.8h-3.6
			C557.2,346.5,556.5,345.7,556.4,344.7z"/>
	</g>
	<g>
		<path class="st5" d="M569.3,373.4v-10c0-1,0.8-1.8,1.8-1.8h3.6c1,0,1.8,0.8,1.8,1.8v10c0,1-0.8,1.8-1.8,1.8h-3.6
			C570.1,375.2,569.3,374.4,569.3,373.4z"/>
	</g>
	<g>
		<path class="st5" d="M556.4,373.4v-10c0-1,0.8-1.8,1.8-1.8h3.6c1,0,1.8,0.8,1.8,1.8v10c0,1-0.8,1.8-1.8,1.8h-3.6
			C557.2,375.2,556.5,374.4,556.4,373.4z"/>
	</g>
	<path class="st7" d="M508.7,261.1l25.3-22.2c0.7-0.6,1.8-1,3-1h35.4c3.4,0,5.3,3,3,5l-25.3,22.2c-0.7,0.6-1.8,1-3,1h-35.4
		C508.3,266.1,506.4,263.1,508.7,261.1z"/>
	<g>
		<path class="st4" d="M542.9,244.8v-12.6h11.4v12.6c0,0.6-0.5,1.2-1.2,1.2h-9C543.4,245.9,542.9,245.5,542.9,244.8z"/>
		<path class="st0" d="M543,244.7v-12.5h5.7v13.8h-4.5C543.4,245.9,542.9,245.4,543,244.7z"/>
		<path class="st4" d="M540.8,231.4v-1.8c0-0.5,0.5-0.9,0.9-0.9h13.8c0.5,0,0.9,0.5,0.9,0.9v1.7c0,0.5-0.5,0.9-0.9,0.9h-13.8
			C541.2,232.2,540.8,231.8,540.8,231.4z"/>
		<path class="st0" d="M540.9,231.3v-1.6c0-0.5,0.3-0.9,0.9-0.9h6.8v3.5h-6.8C541.2,232.2,540.8,231.8,540.9,231.3z"/>
	</g>
</g>
<g>
	<path class="st4" d="M798.9,388.5h-29.4v-396h29.4c1.5,0,2.6,1.2,2.6,2.6v390.7C801.5,387.3,800.3,388.5,798.9,388.5z"/>
	<path class="st0" d="M759.8-19.1l-7.9-9.7c-0.8-1-2.3-0.9-3.1,0.1l-7.9,9.6l-9,11c-0.3,0.4-0.5,0.9-0.5,1.4v393
		c0,1.2,1,2.2,2.2,2.2h35.8V-6.7c0-0.5-0.2-1-0.5-1.4L759.8-19.1z"/>
	<g>
		<path class="st6" d="M746.6,23.8H741c-1,0-1.8-0.8-1.8-1.8V8.1c0-1,0.8-1.8,1.8-1.8h5.6c1,0,1.8,0.8,1.8,1.8V22
			C748.4,23,747.6,23.8,746.6,23.8z"/>
	</g>
	<g>
		<path class="st6" d="M763.3,23.8h-5.6c-1,0-1.8-0.8-1.8-1.8V8.1c0-1,0.8-1.8,1.8-1.8h5.6c1,0,1.8,0.8,1.8,1.8V22
			C765,23,764.2,23.8,763.3,23.8z"/>
	</g>
	<g>
		<path class="st6" d="M746.6,60.7H741c-1,0-1.8-0.8-1.8-1.8V45.1c0-1,0.8-1.8,1.8-1.8h5.6c1,0,1.8,0.8,1.8,1.8V59
			C748.4,60,747.6,60.7,746.6,60.7z"/>
	</g>
	<g>
		<path class="st6" d="M763.3,60.8h-5.6c-1,0-1.8-0.8-1.8-1.8V45.1c0-1,0.8-1.8,1.8-1.8h5.6c1,0,1.8,0.8,1.8,1.8V59
			C765,60,764.2,60.8,763.3,60.8z"/>
	</g>
	<g>
		<path class="st6" d="M746.6,96.8H741c-1,0-1.8-0.8-1.8-1.8V81.1c0-1,0.8-1.8,1.8-1.8h5.6c1,0,1.8,0.8,1.8,1.8V95
			C748.4,96,747.6,96.8,746.6,96.8z"/>
	</g>
	<g>
		<path class="st6" d="M763.3,96.7h-5.6c-1,0-1.8-0.8-1.8-1.8V81c0-1,0.8-1.8,1.8-1.8h5.6c1,0,1.8,0.8,1.8,1.8v13.9
			C765,95.9,764.2,96.7,763.3,96.7z"/>
	</g>
	<g>
		<path class="st6" d="M746.6,133.7H741c-1,0-1.8-0.8-1.8-1.8V118c0-1,0.8-1.8,1.8-1.8h5.6c1,0,1.8,0.8,1.8,1.8v13.9
			C748.4,132.9,747.6,133.7,746.6,133.7z"/>
	</g>
	<g>
		<path class="st6" d="M763.3,133.6h-5.6c-1,0-1.8-0.8-1.8-1.8v-13.9c0-1,0.8-1.8,1.8-1.8h5.6c1,0,1.8,0.8,1.8,1.8v13.9
			C765,132.8,764.2,133.6,763.3,133.6z"/>
	</g>
	<g>
		<path class="st6" d="M746.6,170.4h-5.5c-1,0-1.8-0.8-1.8-1.8v-13.5c0-1,0.8-1.8,1.8-1.8h5.5c1,0,1.8,0.8,1.8,1.8v13.5
			C748.4,169.6,747.6,170.4,746.6,170.4z"/>
	</g>
	<g>
		<path class="st6" d="M763.3,170.7h-5.6c-1,0-1.8-0.8-1.8-1.8V155c0-1,0.8-1.8,1.8-1.8h5.6c1,0,1.8,0.8,1.8,1.8v13.9
			C765,169.9,764.2,170.7,763.3,170.7z"/>
	</g>
	<g>
		<path class="st6" d="M746.6,208.3h-5.5c-1,0-1.8-0.8-1.8-1.8V193c0-1,0.8-1.8,1.8-1.8h5.5c1,0,1.8,0.8,1.8,1.8v13.5
			C748.4,207.5,747.6,208.3,746.6,208.3z"/>
	</g>
	<g>
		<path class="st6" d="M763.3,208.7h-5.6c-1,0-1.8-0.8-1.8-1.8V193c0-1,0.8-1.8,1.8-1.8h5.6c1,0,1.8,0.8,1.8,1.8v13.9
			C765,207.9,764.2,208.7,763.3,208.7z"/>
	</g>
	<g>
		<path class="st6" d="M746.6,246.8H741c-1,0-1.8-0.8-1.8-1.8v-13.9c0-1,0.8-1.8,1.8-1.8h5.6c1,0,1.8,0.8,1.8,1.8V245
			C748.4,246,747.6,246.8,746.6,246.8z"/>
	</g>
	<g>
		<path class="st6" d="M763.3,246.3h-5.5c-1,0-1.8-0.8-1.8-1.8V231c0-1,0.8-1.8,1.8-1.8h5.5c1,0,1.8,0.8,1.8,1.8v13.5
			C765,245.5,764.2,246.3,763.3,246.3z"/>
	</g>
	<g>
		<path class="st6" d="M746.6,284.7H741c-1,0-1.8-0.8-1.8-1.8V269c0-1,0.8-1.8,1.8-1.8h5.6c1,0,1.8,0.8,1.8,1.8v13.9
			C748.4,284,747.6,284.7,746.6,284.7z"/>
	</g>
	<g>
		<path class="st6" d="M763.3,284.2h-5.5c-1,0-1.8-0.8-1.8-1.8v-13.5c0-1,0.8-1.8,1.8-1.8h5.5c1,0,1.8,0.8,1.8,1.8v13.5
			C765,283.4,764.2,284.2,763.3,284.2z"/>
	</g>
	<g>
		<path class="st6" d="M746.6,321H741c-1,0-1.8-0.8-1.8-1.8v-13.9c0-1,0.8-1.8,1.8-1.8h5.6c1,0,1.8,0.8,1.8,1.8v13.9
			C748.4,320.2,747.6,321,746.6,321z"/>
	</g>
	<g>
		<path class="st6" d="M763.3,321.5h-5.5c-1,0-1.8-0.8-1.8-1.8v-14.5c0-1,0.8-1.8,1.8-1.8h5.5c1,0,1.8,0.8,1.8,1.8v14.5
			C765,320.7,764.2,321.5,763.3,321.5z"/>
	</g>
	<g>
		<path class="st6" d="M746.6,357.9H741c-1,0-1.8-0.8-1.8-1.8v-13.8c0-1,0.8-1.8,1.8-1.8h5.6c1,0,1.8,0.8,1.8,1.8v13.9
			C748.4,357.2,747.6,357.9,746.6,357.9z"/>
	</g>
	<g>
		<path class="st6" d="M763.3,357.8h-5.6c-1,0-1.8-0.8-1.8-1.8v-13.9c0-1,0.8-1.8,1.8-1.8h5.6c1,0,1.8,0.8,1.8,1.8V356
			C765,357.1,764.2,357.8,763.3,357.8z"/>
	</g>
	<g>
		<path class="st5" d="M779.7,23.8h-5.6c-1,0-1.8-0.8-1.8-1.8V8.1c0-1,0.8-1.8,1.8-1.8h5.6c1,0,1.8,0.8,1.8,1.8V22
			C781.4,23,780.6,23.8,779.7,23.8z"/>
	</g>
	<g>
		<path class="st5" d="M796.3,23.8h-5.6c-1,0-1.8-0.8-1.8-1.8V8.1c0-1,0.8-1.8,1.8-1.8h5.6c1,0,1.8,0.8,1.8,1.8V22
			C798,23,797.2,23.8,796.3,23.8z"/>
	</g>
	<g>
		<path class="st5" d="M779.7,60.7h-5.6c-1,0-1.8-0.8-1.8-1.8V45.1c0-1,0.8-1.8,1.8-1.8h5.6c1,0,1.8,0.8,1.8,1.8V59
			C781.4,60,780.6,60.7,779.7,60.7z"/>
	</g>
	<g>
		<path class="st5" d="M796.3,60.8h-5.6c-1,0-1.8-0.8-1.8-1.8V45.1c0-1,0.8-1.8,1.8-1.8h5.6c1,0,1.8,0.8,1.8,1.8V59
			C798,60,797.2,60.8,796.3,60.8z"/>
	</g>
	<g>
		<path class="st5" d="M779.7,96.8h-5.6c-1,0-1.8-0.8-1.8-1.8V81.1c0-1,0.8-1.8,1.8-1.8h5.6c1,0,1.8,0.8,1.8,1.8V95
			C781.4,96,780.6,96.8,779.7,96.8z"/>
	</g>
	<g>
		<path class="st5" d="M796.3,96.7h-5.6c-1,0-1.8-0.8-1.8-1.8V81c0-1,0.8-1.8,1.8-1.8h5.6c1,0,1.8,0.8,1.8,1.8v13.9
			C798,95.9,797.2,96.7,796.3,96.7z"/>
	</g>
	<g>
		<path class="st5" d="M779.7,133.7h-5.6c-1,0-1.8-0.8-1.8-1.8V118c0-1,0.8-1.8,1.8-1.8h5.6c1,0,1.8,0.8,1.8,1.8v13.9
			C781.4,132.9,780.6,133.7,779.7,133.7z"/>
	</g>
	<g>
		<path class="st5" d="M796.3,133.6h-5.6c-1,0-1.8-0.8-1.8-1.8v-13.9c0-1,0.8-1.8,1.8-1.8h5.6c1,0,1.8,0.8,1.8,1.8v13.9
			C798,132.8,797.2,133.6,796.3,133.6z"/>
	</g>
	<g>
		<path class="st5" d="M779.7,170.4h-5.5c-1,0-1.8-0.8-1.8-1.8v-13.5c0-1,0.8-1.8,1.8-1.8h5.5c1,0,1.8,0.8,1.8,1.8v13.5
			C781.4,169.6,780.6,170.4,779.7,170.4z"/>
	</g>
	<g>
		<path class="st5" d="M796.3,170.7h-5.6c-1,0-1.8-0.8-1.8-1.8V155c0-1,0.8-1.8,1.8-1.8h5.6c1,0,1.8,0.8,1.8,1.8v13.9
			C798,169.9,797.2,170.7,796.3,170.7z"/>
	</g>
	<g>
		<path class="st5" d="M779.7,208.3h-5.5c-1,0-1.8-0.8-1.8-1.8V193c0-1,0.8-1.8,1.8-1.8h5.5c1,0,1.8,0.8,1.8,1.8v13.5
			C781.4,207.5,780.6,208.3,779.7,208.3z"/>
	</g>
	<g>
		<path class="st5" d="M796.3,208.7h-5.6c-1,0-1.8-0.8-1.8-1.8V193c0-1,0.8-1.8,1.8-1.8h5.6c1,0,1.8,0.8,1.8,1.8v13.9
			C798,207.9,797.2,208.7,796.3,208.7z"/>
	</g>
	<g>
		<path class="st5" d="M779.7,246.8h-5.6c-1,0-1.8-0.8-1.8-1.8v-13.9c0-1,0.8-1.8,1.8-1.8h5.6c1,0,1.8,0.8,1.8,1.8V245
			C781.4,246,780.6,246.8,779.7,246.8z"/>
	</g>
	<g>
		<path class="st5" d="M796.3,246.3h-5.5c-1,0-1.8-0.8-1.8-1.8V231c0-1,0.8-1.8,1.8-1.8h5.5c1,0,1.8,0.8,1.8,1.8v13.5
			C798,245.5,797.2,246.3,796.3,246.3z"/>
	</g>
	<g>
		<path class="st5" d="M779.7,284.7h-5.6c-1,0-1.8-0.8-1.8-1.8V269c0-1,0.8-1.8,1.8-1.8h5.6c1,0,1.8,0.8,1.8,1.8v13.9
			C781.4,284,780.6,284.7,779.7,284.7z"/>
	</g>
	<g>
		<path class="st5" d="M796.3,284.2h-5.5c-1,0-1.8-0.8-1.8-1.8v-13.5c0-1,0.8-1.8,1.8-1.8h5.5c1,0,1.8,0.8,1.8,1.8v13.5
			C798,283.4,797.2,284.2,796.3,284.2z"/>
	</g>
	<g>
		<path class="st5" d="M779.7,321h-5.6c-1,0-1.8-0.8-1.8-1.8v-13.9c0-1,0.8-1.8,1.8-1.8h5.6c1,0,1.8,0.8,1.8,1.8v13.9
			C781.4,320.2,780.6,321,779.7,321z"/>
	</g>
	<g>
		<path class="st5" d="M796.3,321.5h-5.5c-1,0-1.8-0.8-1.8-1.8v-14.5c0-1,0.8-1.8,1.8-1.8h5.5c1,0,1.8,0.8,1.8,1.8v14.5
			C798,320.7,797.2,321.5,796.3,321.5z"/>
	</g>
	<g>
		<path class="st5" d="M779.7,357.9h-5.6c-1,0-1.8-0.8-1.8-1.8v-13.8c0-1,0.8-1.8,1.8-1.8h5.6c1,0,1.8,0.8,1.8,1.8v13.9
			C781.4,357.2,780.6,357.9,779.7,357.9z"/>
	</g>
	<g>
		<path class="st5" d="M796.3,357.8h-5.6c-1,0-1.8-0.8-1.8-1.8v-13.9c0-1,0.8-1.8,1.8-1.8h5.6c1,0,1.8,0.8,1.8,1.8V356
			C798,357.1,797.2,357.8,796.3,357.8z"/>
	</g>
	<path class="st8" d="M798.1-3.7h-26.8c-0.9,0-1.7-0.4-2.3-1l-19.2-21c-1.7-1.8-0.3-4.7,2.3-4.7h26.8c0.9,0,1.7,0.4,2.3,1l19.2,21
		C802.1-6.5,800.7-3.7,798.1-3.7z"/>
	<g>
		<path class="st4" d="M767.3-24.5v-10.9h9.9v10.9c0,0.5-0.4,1-1,1h-7.8C767.8-23.5,767.3-23.9,767.3-24.5z"/>
		<path class="st0" d="M767.4-24.6v-10.8h4.9v11.9h-3.9C767.8-23.5,767.3-24,767.4-24.6z"/>
		<path class="st4" d="M765.5-36.1v-1.6c0-0.4,0.4-0.8,0.8-0.8h11.9c0.4,0,0.8,0.4,0.8,0.8v1.5c0,0.4-0.4,0.8-0.8,0.8h-11.9
			C765.9-35.4,765.5-35.7,765.5-36.1z"/>
		<path class="st0" d="M765.6-36.2v-1.4c0-0.4,0.3-0.8,0.8-0.8h5.9v3h-5.9C765.9-35.4,765.5-35.7,765.6-36.2z"/>
	</g>
</g>
<g>
	<path class="st0" d="M1040.4,389.8h-52.7c-3.1,0-5.5-4-5.5-9V224.6c0-2.8,0.8-5.4,2.2-7.2l21.7-27.1c1.9-2.3,4.5-2.5,6.4-0.4
		l28,30.2v169.7L1040.4,389.8L1040.4,389.8z"/>
	<path class="st4" d="M1091.3,389.8h-50.9V220.1h50.9c4.1,0,7.3,3.3,7.3,7.3v155C1098.6,386.5,1095.3,389.8,1091.3,389.8z"/>
	<g>
		<path class="st5" d="M1055.4,256.1h-6c-1,0-1.8-0.8-1.8-1.8v-14.6c0-1,0.8-1.8,1.8-1.8h6c1,0,1.8,0.8,1.8,1.8v14.6
			C1057.1,255.3,1056.3,256.1,1055.4,256.1z"/>
	</g>
	<g>
		<path class="st5" d="M1055.4,294.4h-6c-1,0-1.8-0.8-1.8-1.8v-14.5c0-1,0.8-1.8,1.8-1.8h6c1,0,1.8,0.8,1.8,1.8v14.6
			C1057.1,293.6,1056.3,294.4,1055.4,294.4z"/>
	</g>
	<g>
		<path class="st5" d="M1072.4,256.1h-6c-1,0-1.8-0.8-1.8-1.8v-14.6c0-1,0.8-1.8,1.8-1.8h6c1,0,1.8,0.8,1.8,1.8v14.6
			C1074.1,255.3,1073.3,256.1,1072.4,256.1z"/>
	</g>
	<g>
		<path class="st5" d="M1089.6,256.1h-6c-1,0-1.8-0.8-1.8-1.8v-14.6c0-1,0.8-1.8,1.8-1.8h6c1,0,1.8,0.8,1.8,1.8v14.6
			C1091.4,255.3,1090.6,256.1,1089.6,256.1z"/>
	</g>
	<g>
		<path class="st5" d="M1072.4,294.4h-6c-1,0-1.8-0.8-1.8-1.8v-14.5c0-1,0.8-1.8,1.8-1.8h6c1,0,1.8,0.8,1.8,1.8v14.6
			C1074.1,293.6,1073.3,294.4,1072.4,294.4z"/>
	</g>
	<g>
		<path class="st5" d="M1089.6,294.4h-6c-1,0-1.8-0.8-1.8-1.8v-14.5c0-1,0.8-1.8,1.8-1.8h6c1,0,1.8,0.8,1.8,1.8v14.6
			C1091.4,293.6,1090.6,294.4,1089.6,294.4z"/>
	</g>
	<g>
		<path class="st5" d="M1055.4,331.1h-6c-1,0-1.8-0.8-1.8-1.8v-14.6c0-1,0.8-1.8,1.8-1.8h6c1,0,1.8,0.8,1.8,1.8v14.6
			C1057.1,330.3,1056.3,331.1,1055.4,331.1z"/>
	</g>
	<g>
		<path class="st5" d="M1055.4,369.4h-6c-1,0-1.8-0.8-1.8-1.8v-14.5c0-1,0.8-1.8,1.8-1.8h6c1,0,1.8,0.8,1.8,1.8v14.6
			C1057.1,368.6,1056.3,369.4,1055.4,369.4z"/>
	</g>
	<g>
		<path class="st5" d="M1072.4,331.1h-6c-1,0-1.8-0.8-1.8-1.8v-14.6c0-1,0.8-1.8,1.8-1.8h6c1,0,1.8,0.8,1.8,1.8v14.6
			C1074.1,330.3,1073.3,331.1,1072.4,331.1z"/>
	</g>
	<g>
		<path class="st5" d="M1089.6,331.1h-6c-1,0-1.8-0.8-1.8-1.8v-14.6c0-1,0.8-1.8,1.8-1.8h6c1,0,1.8,0.8,1.8,1.8v14.6
			C1091.4,330.3,1090.6,331.1,1089.6,331.1z"/>
	</g>
	<g>
		<path class="st5" d="M1072.4,369.4h-6c-1,0-1.8-0.8-1.8-1.8v-14.5c0-1,0.8-1.8,1.8-1.8h6c1,0,1.8,0.8,1.8,1.8v14.6
			C1074.1,368.6,1073.3,369.4,1072.4,369.4z"/>
	</g>
	<g>
		<path class="st5" d="M1089.6,369.4h-6c-1,0-1.8-0.8-1.8-1.8v-14.5c0-1,0.8-1.8,1.8-1.8h6c1,0,1.8,0.8,1.8,1.8v14.6
			C1091.4,368.6,1090.6,369.4,1089.6,369.4z"/>
	</g>
	<g>
		<path class="st6" d="M997.1,256.1h-6c-1,0-1.8-0.8-1.8-1.8v-14.6c0-1,0.8-1.8,1.8-1.8h6c1,0,1.8,0.8,1.8,1.8v14.6
			C998.9,255.3,998.1,256.1,997.1,256.1z"/>
	</g>
	<g>
		<path class="st6" d="M997.1,294.4h-6c-1,0-1.8-0.8-1.8-1.8v-14.5c0-1,0.8-1.8,1.8-1.8h6c1,0,1.8,0.8,1.8,1.8v14.6
			C998.9,293.6,998.1,294.4,997.1,294.4z"/>
	</g>
	<g>
		<path class="st6" d="M1014.1,256.1h-6c-1,0-1.8-0.8-1.8-1.8v-14.6c0-1,0.8-1.8,1.8-1.8h6c1,0,1.8,0.8,1.8,1.8v14.6
			C1015.9,255.3,1015.1,256.1,1014.1,256.1z"/>
	</g>
	<g>
		<path class="st6" d="M1031.3,256.1h-6c-1,0-1.8-0.8-1.8-1.8v-14.6c0-1,0.8-1.8,1.8-1.8h6c1,0,1.8,0.8,1.8,1.8v14.6
			C1033.1,255.3,1032.3,256.1,1031.3,256.1z"/>
	</g>
	<g>
		<path class="st6" d="M1014.1,294.4h-6c-1,0-1.8-0.8-1.8-1.8v-14.5c0-1,0.8-1.8,1.8-1.8h6c1,0,1.8,0.8,1.8,1.8v14.6
			C1015.9,293.6,1015.1,294.4,1014.1,294.4z"/>
	</g>
	<g>
		<path class="st6" d="M1031.3,294.4h-6c-1,0-1.8-0.8-1.8-1.8v-14.5c0-1,0.8-1.8,1.8-1.8h6c1,0,1.8,0.8,1.8,1.8v14.6
			C1033.1,293.6,1032.3,294.4,1031.3,294.4z"/>
	</g>
	<g>
		<path class="st6" d="M997.1,331.1h-6c-1,0-1.8-0.8-1.8-1.8v-14.6c0-1,0.8-1.8,1.8-1.8h6c1,0,1.8,0.8,1.8,1.8v14.6
			C998.9,330.3,998.1,331.1,997.1,331.1z"/>
	</g>
	<g>
		<path class="st6" d="M997.1,369.4h-6c-1,0-1.8-0.8-1.8-1.8v-14.5c0-1,0.8-1.8,1.8-1.8h6c1,0,1.8,0.8,1.8,1.8v14.6
			C998.9,368.6,998.1,369.4,997.1,369.4z"/>
	</g>
	<g>
		<path class="st6" d="M1014.1,331.1h-6c-1,0-1.8-0.8-1.8-1.8v-14.6c0-1,0.8-1.8,1.8-1.8h6c1,0,1.8,0.8,1.8,1.8v14.6
			C1015.9,330.3,1015.1,331.1,1014.1,331.1z"/>
	</g>
	<g>
		<path class="st6" d="M1031.3,331.1h-6c-1,0-1.8-0.8-1.8-1.8v-14.6c0-1,0.8-1.8,1.8-1.8h6c1,0,1.8,0.8,1.8,1.8v14.6
			C1033.1,330.3,1032.3,331.1,1031.3,331.1z"/>
	</g>
	<g>
		<path class="st6" d="M1014.1,369.4h-6c-1,0-1.8-0.8-1.8-1.8v-14.5c0-1,0.8-1.8,1.8-1.8h6c1,0,1.8,0.8,1.8,1.8v14.6
			C1015.9,368.6,1015.1,369.4,1014.1,369.4z"/>
	</g>
	<g>
		<path class="st6" d="M1031.3,369.4h-6c-1,0-1.8-0.8-1.8-1.8v-14.5c0-1,0.8-1.8,1.8-1.8h6c1,0,1.8,0.8,1.8,1.8v14.6
			C1033.1,368.6,1032.3,369.4,1031.3,369.4z"/>
	</g>
	<path class="st7" d="M1090.4,223.5h-46.7c-1.6,0-3-0.5-4.1-1.4l-33.5-29.3c-2.9-2.6-0.5-6.5,4.1-6.5h46.7c1.6,0,3,0.5,4.1,1.4
		l33.5,29.3C1097.4,219.5,1094.9,223.5,1090.4,223.5z"/>
	<g>
		<path class="st4" d="M1035.9,195.6v-16.8h15.3v16.8c0,0.8-0.6,1.5-1.5,1.5h-12C1036.7,197.2,1035.9,196.5,1035.9,195.6z"/>
		<path class="st0" d="M1036,195.5v-16.6h7.5v18.3h-6C1036.7,197.2,1035.9,196.4,1036,195.5z"/>
		<path class="st4" d="M1033.1,177.8v-2.5c0-0.6,0.6-1.2,1.2-1.2h18.3c0.6,0,1.2,0.6,1.2,1.2v2.3c0,0.6-0.6,1.2-1.2,1.2h-18.3
			C1033.7,178.8,1033.1,178.4,1033.1,177.8z"/>
		<path class="st0" d="M1033.3,177.6v-2.2c0-0.6,0.5-1.2,1.2-1.2h9.1v4.6h-9.1C1033.7,178.8,1033.1,178.4,1033.3,177.6z"/>
	</g>
</g>
<g>
	<path class="st0" d="M855.4,388.2h-52.7c-3.1,0-5.5-4-5.5-9V223c0-2.8,0.8-5.4,2.2-7.2l21.7-27.1c1.9-2.3,4.5-2.5,6.4-0.4l28,30.2
		v169.7L855.4,388.2L855.4,388.2z"/>
	<path class="st4" d="M906.3,388.2h-50.9V218.5h50.9c4.1,0,7.3,3.3,7.3,7.3v155C913.6,384.9,910.3,388.2,906.3,388.2z"/>
	<g>
		<path class="st5" d="M870.4,254.5h-6c-1,0-1.8-0.8-1.8-1.8v-14.6c0-1,0.8-1.8,1.8-1.8h6c1,0,1.8,0.8,1.8,1.8v14.6
			C872.1,253.7,871.3,254.5,870.4,254.5z"/>
	</g>
	<g>
		<path class="st5" d="M870.4,292.8h-6c-1,0-1.8-0.8-1.8-1.8v-14.5c0-1,0.8-1.8,1.8-1.8h6c1,0,1.8,0.8,1.8,1.8v14.6
			C872.1,292,871.3,292.8,870.4,292.8z"/>
	</g>
	<g>
		<path class="st5" d="M887.4,254.5h-6c-1,0-1.8-0.8-1.8-1.8v-14.6c0-1,0.8-1.8,1.8-1.8h6c1,0,1.8,0.8,1.8,1.8v14.6
			C889.1,253.7,888.3,254.5,887.4,254.5z"/>
	</g>
	<g>
		<path class="st5" d="M904.6,254.5h-6c-1,0-1.8-0.8-1.8-1.8v-14.6c0-1,0.8-1.8,1.8-1.8h6c1,0,1.8,0.8,1.8,1.8v14.6
			C906.4,253.7,905.6,254.5,904.6,254.5z"/>
	</g>
	<g>
		<path class="st5" d="M887.4,292.8h-6c-1,0-1.8-0.8-1.8-1.8v-14.5c0-1,0.8-1.8,1.8-1.8h6c1,0,1.8,0.8,1.8,1.8v14.6
			C889.1,292,888.3,292.8,887.4,292.8z"/>
	</g>
	<g>
		<path class="st5" d="M904.6,292.8h-6c-1,0-1.8-0.8-1.8-1.8v-14.5c0-1,0.8-1.8,1.8-1.8h6c1,0,1.8,0.8,1.8,1.8v14.6
			C906.4,292,905.6,292.8,904.6,292.8z"/>
	</g>
	<g>
		<path class="st5" d="M870.4,329.5h-6c-1,0-1.8-0.8-1.8-1.8v-14.6c0-1,0.8-1.8,1.8-1.8h6c1,0,1.8,0.8,1.8,1.8v14.6
			C872.1,328.7,871.3,329.5,870.4,329.5z"/>
	</g>
	<g>
		<path class="st5" d="M870.4,367.8h-6c-1,0-1.8-0.8-1.8-1.8v-14.5c0-1,0.8-1.8,1.8-1.8h6c1,0,1.8,0.8,1.8,1.8v14.6
			C872.1,367,871.3,367.8,870.4,367.8z"/>
	</g>
	<g>
		<path class="st5" d="M887.4,329.5h-6c-1,0-1.8-0.8-1.8-1.8v-14.6c0-1,0.8-1.8,1.8-1.8h6c1,0,1.8,0.8,1.8,1.8v14.6
			C889.1,328.7,888.3,329.5,887.4,329.5z"/>
	</g>
	<g>
		<path class="st5" d="M904.6,329.5h-6c-1,0-1.8-0.8-1.8-1.8v-14.6c0-1,0.8-1.8,1.8-1.8h6c1,0,1.8,0.8,1.8,1.8v14.6
			C906.4,328.7,905.6,329.5,904.6,329.5z"/>
	</g>
	<g>
		<path class="st5" d="M887.4,367.8h-6c-1,0-1.8-0.8-1.8-1.8v-14.5c0-1,0.8-1.8,1.8-1.8h6c1,0,1.8,0.8,1.8,1.8v14.6
			C889.1,367,888.3,367.8,887.4,367.8z"/>
	</g>
	<g>
		<path class="st5" d="M904.6,367.8h-6c-1,0-1.8-0.8-1.8-1.8v-14.5c0-1,0.8-1.8,1.8-1.8h6c1,0,1.8,0.8,1.8,1.8v14.6
			C906.4,367,905.6,367.8,904.6,367.8z"/>
	</g>
	<g>
		<path class="st6" d="M812.1,254.5h-6c-1,0-1.8-0.8-1.8-1.8v-14.6c0-1,0.8-1.8,1.8-1.8h6c1,0,1.8,0.8,1.8,1.8v14.6
			C813.9,253.7,813.1,254.5,812.1,254.5z"/>
	</g>
	<g>
		<path class="st6" d="M812.1,292.8h-6c-1,0-1.8-0.8-1.8-1.8v-14.5c0-1,0.8-1.8,1.8-1.8h6c1,0,1.8,0.8,1.8,1.8v14.6
			C813.9,292,813.1,292.8,812.1,292.8z"/>
	</g>
	<g>
		<path class="st6" d="M829.1,254.5h-6c-1,0-1.8-0.8-1.8-1.8v-14.6c0-1,0.8-1.8,1.8-1.8h6c1,0,1.8,0.8,1.8,1.8v14.6
			C830.9,253.7,830.1,254.5,829.1,254.5z"/>
	</g>
	<g>
		<path class="st6" d="M846.3,254.5h-6c-1,0-1.8-0.8-1.8-1.8v-14.6c0-1,0.8-1.8,1.8-1.8h6c1,0,1.8,0.8,1.8,1.8v14.6
			C848.1,253.7,847.3,254.5,846.3,254.5z"/>
	</g>
	<g>
		<path class="st6" d="M829.1,292.8h-6c-1,0-1.8-0.8-1.8-1.8v-14.5c0-1,0.8-1.8,1.8-1.8h6c1,0,1.8,0.8,1.8,1.8v14.6
			C830.9,292,830.1,292.8,829.1,292.8z"/>
	</g>
	<g>
		<path class="st6" d="M846.3,292.8h-6c-1,0-1.8-0.8-1.8-1.8v-14.5c0-1,0.8-1.8,1.8-1.8h6c1,0,1.8,0.8,1.8,1.8v14.6
			C848.1,292,847.3,292.8,846.3,292.8z"/>
	</g>
	<g>
		<path class="st6" d="M812.1,329.5h-6c-1,0-1.8-0.8-1.8-1.8v-14.6c0-1,0.8-1.8,1.8-1.8h6c1,0,1.8,0.8,1.8,1.8v14.6
			C813.9,328.7,813.1,329.5,812.1,329.5z"/>
	</g>
	<g>
		<path class="st6" d="M812.1,367.8h-6c-1,0-1.8-0.8-1.8-1.8v-14.5c0-1,0.8-1.8,1.8-1.8h6c1,0,1.8,0.8,1.8,1.8v14.6
			C813.9,367,813.1,367.8,812.1,367.8z"/>
	</g>
	<g>
		<path class="st6" d="M829.1,329.5h-6c-1,0-1.8-0.8-1.8-1.8v-14.6c0-1,0.8-1.8,1.8-1.8h6c1,0,1.8,0.8,1.8,1.8v14.6
			C830.9,328.7,830.1,329.5,829.1,329.5z"/>
	</g>
	<g>
		<path class="st6" d="M846.3,329.5h-6c-1,0-1.8-0.8-1.8-1.8v-14.6c0-1,0.8-1.8,1.8-1.8h6c1,0,1.8,0.8,1.8,1.8v14.6
			C848.1,328.7,847.3,329.5,846.3,329.5z"/>
	</g>
	<g>
		<path class="st6" d="M829.1,367.8h-6c-1,0-1.8-0.8-1.8-1.8v-14.5c0-1,0.8-1.8,1.8-1.8h6c1,0,1.8,0.8,1.8,1.8v14.6
			C830.9,367,830.1,367.8,829.1,367.8z"/>
	</g>
	<g>
		<path class="st6" d="M846.3,367.8h-6c-1,0-1.8-0.8-1.8-1.8v-14.5c0-1,0.8-1.8,1.8-1.8h6c1,0,1.8,0.8,1.8,1.8v14.6
			C848.1,367,847.3,367.8,846.3,367.8z"/>
	</g>
	<path class="st7" d="M905.4,221.9h-46.7c-1.6,0-3-0.5-4.1-1.4l-33.5-29.3c-2.9-2.6-0.5-6.5,4.1-6.5h46.7c1.6,0,3,0.5,4.1,1.4
		l33.5,29.3C912.4,217.9,909.9,221.9,905.4,221.9z"/>
	<g>
		<path class="st4" d="M850.9,194v-16.8h15.3V194c0,0.8-0.6,1.5-1.5,1.5h-12C851.7,195.5,850.9,194.9,850.9,194z"/>
		<path class="st0" d="M851.1,193.8v-16.6h7.5v18.3h-6C851.7,195.5,850.9,194.8,851.1,193.8z"/>
		<path class="st4" d="M848.1,176.1v-2.5c0-0.6,0.6-1.2,1.2-1.2h18.3c0.6,0,1.2,0.6,1.2,1.2v2.3c0,0.6-0.6,1.2-1.2,1.2h-18.3
			C848.8,177.2,848.1,176.7,848.1,176.1z"/>
		<path class="st0" d="M848.3,176v-2.2c0-0.6,0.5-1.2,1.2-1.2h9.1v4.6h-9.1C848.8,177.2,848.1,176.7,848.3,176z"/>
	</g>
</g>
<g id="trees">
	<g>
		<line class="st10" x1="226.4" y1="403" x2="225.2" y2="498"/>
		<circle class="st11" cx="216.7" cy="394.8" r="19.2"/>
		<circle class="st11" cx="237.8" cy="378.7" r="11.9"/>
		<circle class="st11" cx="213.5" cy="430.3" r="8.8"/>
		<circle class="st11" cx="245.9" cy="401" r="14.1"/>
		<line class="st10" x1="225.7" y1="444.3" x2="213.4" y2="431.7"/>
		<line class="st10" x1="228.1" y1="426.5" x2="245.6" y2="409.8"/>
	</g>
	<g>
		<line class="st10" x1="490" y1="395" x2="490" y2="490"/>
		<circle class="st11" cx="480.2" cy="388" r="19.2"/>
		<circle class="st11" cx="501.2" cy="371.5" r="11.9"/>
		<circle class="st11" cx="477.5" cy="422.5" r="8.8"/>
		<circle class="st11" cx="509.5" cy="392.8" r="14.1"/>
		<line class="st10" x1="489.8" y1="436.3" x2="477.4" y2="423.9"/>
		<line class="st10" x1="492" y1="418.5" x2="509.3" y2="401.6"/>
	</g>
	<g>
		<line class="st10" x1="640" y1="391" x2="640" y2="451"/>
		<line class="st10" x1="640" y1="403.3" x2="651.1" y2="393.4"/>
		<circle class="st11" cx="633.1" cy="384.6" r="12.7"/>
		<circle class="st11" cx="652.6" cy="387.8" r="9.4"/>
		<circle class="st11" cx="652.7" cy="407.4" r="5.9"/>
		<line class="st10" x1="640" y1="415.3" x2="650.2" y2="408.9"/>
	</g>
	<g>
		<line class="st10" x1="912" y1="390" x2="912" y2="450"/>
		<line class="st10" x1="912" y1="402.3" x2="923.1" y2="392.4"/>
		<circle class="st11" cx="905.1" cy="383.6" r="12.7"/>
		<circle class="st11" cx="924.6" cy="386.8" r="9.4"/>
		<circle class="st11" cx="924.7" cy="406.4" r="5.9"/>
		<line class="st10" x1="912" y1="414.3" x2="922.2" y2="407.9"/>
	</g>
	<g>
		<line class="st10" x1="1142" y1="390" x2="1142" y2="474"/>
		<circle class="st11" cx="1133" cy="383.7" r="17"/>
		<circle class="st11" cx="1151.5" cy="369.2" r="10.5"/>
		<circle class="st11" cx="1130.6" cy="414.2" r="7.8"/>
		<circle class="st11" cx="1158.9" cy="387.9" r="12.5"/>
		<line class="st10" x1="1141.5" y1="426.5" x2="1130.5" y2="415.5"/>
		<line class="st10" x1="1143.4" y1="410.7" x2="1158.7" y2="395.8"/>
	</g>
	<g>
		<line class="st10" x1="384" y1="385" x2="384" y2="445"/>
		<line class="st10" x1="384" y1="397.3" x2="395.1" y2="387.4"/>
		<circle class="st11" cx="377.1" cy="378.6" r="12.7"/>
		<circle class="st11" cx="396.6" cy="381.8" r="9.4"/>
		<circle class="st11" cx="396.7" cy="401.4" r="5.9"/>
		<line class="st10" x1="384" y1="409.3" x2="394.2" y2="402.9"/>
	</g>
</g>
</svg>
