<?xml version="1.0" encoding="utf-8"?>
<!-- Generator: Adobe Illustrator 19.1.0, SVG Export Plug-In . SVG Version: 6.00 Build 0)  -->
<svg version="1.1" xmlns="http://www.w3.org/2000/svg" xmlns:xlink="http://www.w3.org/1999/xlink" x="0px" y="0px"
	 viewBox="0 0 1024 574.4" style="enable-background:new 0 0 1024 574.4;" xml:space="preserve">
<style type="text/css">
	.st0{display:none;}
	.st1{display:inline;fill:#31AA9B;}
	.st2{fill:#1B7989;}
	.st3{fill:none;stroke:#D89261;stroke-width:20;stroke-linecap:round;stroke-miterlimit:10;}
	.st4{fill:#4ACCC2;}
	.st5{fill:#18717A;}
	.st6{fill:#5B463B;}
	.st7{fill:#1C88A5;}
	.st8{fill:#D89261;}
	.st9{fill:none;stroke:#31AA9B;stroke-width:6;stroke-linecap:round;stroke-miterlimit:10;}
	.st10{fill:#31AA9B;}
</style>
<g id="Layer_2" class="st0">
</g>
<g id="Layer_3">
	<rect y="425.4" class="st2" width="1024" height="149"/>
</g>
<g id="globen">
</g>
<g id="roads">
	<path class="st3" d="M712.8,435.2c0,31.9-30.2,57.7-67.5,57.7h-18.1c-0.8,0-1.5,0-2.3,0c-44,1.3-42.5,57.8,1.5,58l291.1-0.9
		c9.9,0,18-6.9,18-15.4V429.1"/>
	<path class="st3" d="M20.7,440.6l41.6,41.6c22.1,22.1,57.9,22.1,80,0l43.1-43.1"/>
</g>
<g id="houses_back">
</g>
<g id="houses_front">
	<g>
		<g>
			<path class="st7" d="M413.1,429.7h-39.4c-2.3,0-4.1-3-4.1-6.7V306.2c0-2.1,0.6-4.1,1.6-5.3l16.2-20.2c1.4-1.8,3.3-1.9,4.8-0.3
				l20.9,22.5V429.7z"/>
			<path class="st2" d="M449.3,429.7h-36.2V302.9h36.2c4.1,0,7.3,3.3,7.3,7.3v112.1C456.6,426.4,453.3,429.7,449.3,429.7z"/>
			<g>
				<path class="st5" d="M423.8,329.8h-3.6c-1,0-1.8-0.8-1.8-1.8v-10c0-1,0.8-1.8,1.8-1.8h3.6c1,0,1.8,0.8,1.8,1.8v10
					C425.6,329,424.8,329.8,423.8,329.8z"/>
			</g>
			<g>
				<path class="st5" d="M423.8,358.4h-3.6c-1,0-1.8-0.8-1.8-1.8v-10c0-1,0.8-1.8,1.8-1.8h3.6c1,0,1.8,0.8,1.8,1.8v10
					C425.6,357.6,424.8,358.4,423.8,358.4z"/>
			</g>
			<g>
				<path class="st5" d="M436.5,329.8H433c-1,0-1.8-0.8-1.8-1.8v-10c0-1,0.8-1.8,1.8-1.8h3.6c1,0,1.8,0.8,1.8,1.8v10
					C438.3,329,437.5,329.8,436.5,329.8z"/>
			</g>
			<g>
				<path class="st5" d="M449.4,329.8h-3.6c-1,0-1.8-0.8-1.8-1.8v-10c0-1,0.8-1.8,1.8-1.8h3.6c1,0,1.8,0.8,1.8,1.8v10
					C451.2,329,450.4,329.8,449.4,329.8z"/>
			</g>
			<g>
				<path class="st5" d="M436.5,358.4H433c-1,0-1.8-0.8-1.8-1.8v-10c0-1,0.8-1.8,1.8-1.8h3.6c1,0,1.8,0.8,1.8,1.8v10
					C438.3,357.6,437.5,358.4,436.5,358.4z"/>
			</g>
			<g>
				<path class="st5" d="M449.4,358.4h-3.6c-1,0-1.8-0.8-1.8-1.8v-10c0-1,0.8-1.8,1.8-1.8h3.6c1,0,1.8,0.8,1.8,1.8v10
					C451.2,357.6,450.4,358.4,449.4,358.4z"/>
			</g>
			<g>
				<path class="st5" d="M423.8,385.8h-3.6c-1,0-1.8-0.8-1.8-1.8v-10c0-1,0.8-1.8,1.8-1.8h3.6c1,0,1.8,0.8,1.8,1.8v10
					C425.6,385,424.8,385.8,423.8,385.8z"/>
			</g>
			<g>
				<path class="st5" d="M423.8,414.5h-3.6c-1,0-1.8-0.8-1.8-1.8v-10c0-1,0.8-1.8,1.8-1.8h3.6c1,0,1.8,0.8,1.8,1.8v10
					C425.6,413.7,424.8,414.5,423.8,414.5z"/>
			</g>
			<g>
				<path class="st5" d="M436.5,385.8H433c-1,0-1.8-0.8-1.8-1.8v-10c0-1,0.8-1.8,1.8-1.8h3.6c1,0,1.8,0.8,1.8,1.8v10
					C438.3,385,437.5,385.8,436.5,385.8z"/>
			</g>
			<g>
				<path class="st5" d="M449.4,385.8h-3.6c-1,0-1.8-0.8-1.8-1.8v-10c0-1,0.8-1.8,1.8-1.8h3.6c1,0,1.8,0.8,1.8,1.8v10
					C451.2,385,450.4,385.8,449.4,385.8z"/>
			</g>
			<g>
				<path class="st5" d="M436.5,414.5H433c-1,0-1.8-0.8-1.8-1.8v-10c0-1,0.8-1.8,1.8-1.8h3.6c1,0,1.8,0.8,1.8,1.8v10
					C438.3,413.7,437.5,414.5,436.5,414.5z"/>
			</g>
			<g>
				<path class="st5" d="M449.4,414.5h-3.6c-1,0-1.8-0.8-1.8-1.8v-10c0-1,0.8-1.8,1.8-1.8h3.6c1,0,1.8,0.8,1.8,1.8v10
					C451.2,413.7,450.4,414.5,449.4,414.5z"/>
			</g>
			<g>
				<path class="st5" d="M380.3,329.8h-3.6c-1,0-1.8-0.8-1.8-1.8v-10c0-1,0.8-1.8,1.8-1.8h3.6c1,0,1.8,0.8,1.8,1.8v10
					C382.1,329,381.3,329.8,380.3,329.8z"/>
			</g>
			<g>
				<path class="st5" d="M380.3,358.4h-3.6c-1,0-1.8-0.8-1.8-1.8v-10c0-1,0.8-1.8,1.8-1.8h3.6c1,0,1.8,0.8,1.8,1.8v10
					C382.1,357.6,381.3,358.4,380.3,358.4z"/>
			</g>
			<g>
				<path class="st5" d="M393,329.8h-3.6c-1,0-1.8-0.8-1.8-1.8v-10c0-1,0.8-1.8,1.8-1.8h3.6c1,0,1.8,0.8,1.8,1.8v10
					C394.8,329,394,329.8,393,329.8z"/>
			</g>
			<g>
				<path class="st5" d="M405.9,329.8h-3.6c-1,0-1.8-0.8-1.8-1.8v-10c0-1,0.8-1.8,1.8-1.8h3.6c1,0,1.8,0.8,1.8,1.8v10
					C407.6,329,406.9,329.8,405.9,329.8z"/>
			</g>
			<g>
				<path class="st5" d="M393,358.4h-3.6c-1,0-1.8-0.8-1.8-1.8v-10c0-1,0.8-1.8,1.8-1.8h3.6c1,0,1.8,0.8,1.8,1.8v10
					C394.8,357.6,394,358.4,393,358.4z"/>
			</g>
			<g>
				<path class="st5" d="M405.9,358.4h-3.6c-1,0-1.8-0.8-1.8-1.8v-10c0-1,0.8-1.8,1.8-1.8h3.6c1,0,1.8,0.8,1.8,1.8v10
					C407.6,357.6,406.9,358.4,405.9,358.4z"/>
			</g>
			<g>
				<path class="st5" d="M380.3,385.8h-3.6c-1,0-1.8-0.8-1.8-1.8v-10c0-1,0.8-1.8,1.8-1.8h3.6c1,0,1.8,0.8,1.8,1.8v10
					C382.1,385,381.3,385.8,380.3,385.8z"/>
			</g>
			<g>
				<path class="st5" d="M380.3,414.5h-3.6c-1,0-1.8-0.8-1.8-1.8v-10c0-1,0.8-1.8,1.8-1.8h3.6c1,0,1.8,0.8,1.8,1.8v10
					C382.1,413.7,381.3,414.5,380.3,414.5z"/>
			</g>
			<g>
				<path class="st5" d="M393,385.8h-3.6c-1,0-1.8-0.8-1.8-1.8v-10c0-1,0.8-1.8,1.8-1.8h3.6c1,0,1.8,0.8,1.8,1.8v10
					C394.8,385,394,385.8,393,385.8z"/>
			</g>
			<g>
				<path class="st5" d="M405.9,385.8h-3.6c-1,0-1.8-0.8-1.8-1.8v-10c0-1,0.8-1.8,1.8-1.8h3.6c1,0,1.8,0.8,1.8,1.8v10
					C407.6,385,406.9,385.8,405.9,385.8z"/>
			</g>
			<g>
				<path class="st5" d="M393,414.5h-3.6c-1,0-1.8-0.8-1.8-1.8v-10c0-1,0.8-1.8,1.8-1.8h3.6c1,0,1.8,0.8,1.8,1.8v10
					C394.8,413.7,394,414.5,393,414.5z"/>
			</g>
			<g>
				<path class="st5" d="M405.9,414.5h-3.6c-1,0-1.8-0.8-1.8-1.8v-10c0-1,0.8-1.8,1.8-1.8h3.6c1,0,1.8,0.8,1.8,1.8v10
					C407.6,413.7,406.9,414.5,405.9,414.5z"/>
			</g>
			<path class="st8" d="M450.4,305.4h-34.9c-1.2,0-2.3-0.4-3-1l-25-21.9c-2.2-1.9-0.4-4.9,3-4.9h34.9c1.2,0,2.3,0.4,3,1l25,21.9
				C455.7,302.5,453.8,305.4,450.4,305.4z"/>
		</g>
		<path class="st2" d="M413.1,429.7h-36.6c-3.8,0-6.9-3.1-6.9-6.9v-4h43.5V429.7z"/>
		<path class="st5" d="M413.1,429.7h36.6c3.8,0,6.9-3.1,6.9-6.9v-4h-43.5V429.7z"/>
		<path class="st7" d="M424.9,290.5h-12.9c-0.6,0-1-0.5-1-1v-16.9h14.9v16.9C425.9,290,425.5,290.5,424.9,290.5z"/>
		<path class="st2" d="M424.9,290.5h-6.4v-17.9h7.4v16.8C425.9,290,425.5,290.5,424.9,290.5z"/>
		<path class="st7" d="M427.9,274.9h-18.8c-0.4,0-0.8-0.4-0.8-0.8v-3c0-0.4,0.4-0.8,0.8-0.8h18.8c0.4,0,0.8,0.4,0.8,0.8v3
			C428.7,274.5,428.3,274.9,427.9,274.9z"/>
		<path class="st2" d="M427.9,274.9h-9.3v-4.6h9.3c0.5,0,0.8,0.4,0.8,0.8v2.9C428.7,274.5,428.3,274.9,427.9,274.9z"/>
	</g>
	<g>
		<path class="st4" d="M959.8,433.8h-38.3c-2.2,0-4-2.9-4-6.5V314.9c0-2,0.6-3.9,1.6-5.1l15.8-19.5c1.4-1.7,3.2-1.8,4.7-0.3
			l20.3,21.7V433.8z"/>
		<path class="st2" d="M997,435.3h-37.2V311.9h35c4.1,0,7.3,3.3,7.3,7.3v110.9C1002.1,433,999.8,435.3,997,435.3z"/>
		<g>
			<path class="st5" d="M970.2,338.1h-3.4c-1,0-1.8-0.8-1.8-1.8v-9.6c0-1,0.8-1.8,1.8-1.8h3.4c1,0,1.8,0.8,1.8,1.8v9.6
				C972,337.3,971.2,338.1,970.2,338.1z"/>
		</g>
		<g>
			<path class="st5" d="M970.2,365.9h-3.4c-1,0-1.8-0.8-1.8-1.8v-9.6c0-1,0.8-1.8,1.8-1.8h3.4c1,0,1.8,0.8,1.8,1.8v9.6
				C972,365.2,971.2,365.9,970.2,365.9z"/>
		</g>
		<g>
			<path class="st5" d="M982.6,338.1h-3.4c-1,0-1.8-0.8-1.8-1.8v-9.6c0-1,0.8-1.8,1.8-1.8h3.4c1,0,1.8,0.8,1.8,1.8v9.6
				C984.3,337.3,983.5,338.1,982.6,338.1z"/>
		</g>
		<g>
			<path class="st5" d="M995.1,338.1h-3.4c-1,0-1.8-0.8-1.8-1.8v-9.6c0-1,0.8-1.8,1.8-1.8h3.4c1,0,1.8,0.8,1.8,1.8v9.6
				C996.8,337.3,996,338.1,995.1,338.1z"/>
		</g>
		<g>
			<path class="st5" d="M982.6,365.9h-3.4c-1,0-1.8-0.8-1.8-1.8v-9.6c0-1,0.8-1.8,1.8-1.8h3.4c1,0,1.8,0.8,1.8,1.8v9.6
				C984.3,365.1,983.5,365.9,982.6,365.9z"/>
		</g>
		<g>
			<path class="st5" d="M995.1,365.9h-3.4c-1,0-1.8-0.8-1.8-1.8v-9.6c0-1,0.8-1.8,1.8-1.8h3.4c1,0,1.8,0.8,1.8,1.8v9.6
				C996.8,365.2,996,365.9,995.1,365.9z"/>
		</g>
		<g>
			<path class="st5" d="M970.2,392.6h-3.4c-1,0-1.8-0.8-1.8-1.8v-9.6c0-1,0.8-1.8,1.8-1.8h3.4c1,0,1.8,0.8,1.8,1.8v9.6
				C972,391.8,971.2,392.6,970.2,392.6z"/>
		</g>
		<g>
			<path class="st5" d="M970.2,420.5h-3.4c-1,0-1.8-0.8-1.8-1.8v-9.6c0-1,0.8-1.8,1.8-1.8h3.4c1,0,1.8,0.8,1.8,1.8v9.6
				C972,419.7,971.2,420.5,970.2,420.5z"/>
		</g>
		<g>
			<path class="st5" d="M982.6,392.6h-3.4c-1,0-1.8-0.8-1.8-1.8v-9.6c0-1,0.8-1.8,1.8-1.8h3.4c1,0,1.8,0.8,1.8,1.8v9.6
				C984.3,391.8,983.5,392.6,982.6,392.6z"/>
		</g>
		<g>
			<path class="st5" d="M995.1,392.6h-3.4c-1,0-1.8-0.8-1.8-1.8v-9.6c0-1,0.8-1.8,1.8-1.8h3.4c1,0,1.8,0.8,1.8,1.8v9.6
				C996.8,391.8,996,392.6,995.1,392.6z"/>
		</g>
		<g>
			<path class="st5" d="M982.6,420.5h-3.4c-1,0-1.8-0.8-1.8-1.8v-9.6c0-1,0.8-1.8,1.8-1.8h3.4c1,0,1.8,0.8,1.8,1.8v9.6
				C984.3,419.7,983.5,420.5,982.6,420.5z"/>
		</g>
		<g>
			<path class="st5" d="M995.1,420.5h-3.4c-1,0-1.8-0.8-1.8-1.8v-9.6c0-1,0.8-1.8,1.8-1.8h3.4c1,0,1.8,0.8,1.8,1.8v9.6
				C996.8,419.7,996,420.5,995.1,420.5z"/>
		</g>
		<g>
			<path class="st5" d="M927.8,338.1h-3.4c-1,0-1.8-0.8-1.8-1.8v-9.6c0-1,0.8-1.8,1.8-1.8h3.4c1,0,1.8,0.8,1.8,1.8v9.6
				C929.6,337.3,928.8,338.1,927.8,338.1z"/>
		</g>
		<g>
			<path class="st5" d="M927.8,365.9h-3.4c-1,0-1.8-0.8-1.8-1.8v-9.6c0-1,0.8-1.8,1.8-1.8h3.4c1,0,1.8,0.8,1.8,1.8v9.6
				C929.6,365.2,928.8,365.9,927.8,365.9z"/>
		</g>
		<g>
			<path class="st5" d="M940.2,338.1h-3.4c-1,0-1.8-0.8-1.8-1.8v-9.6c0-1,0.8-1.8,1.8-1.8h3.4c1,0,1.8,0.8,1.8,1.8v9.6
				C942,337.3,941.2,338.1,940.2,338.1z"/>
		</g>
		<g>
			<path class="st5" d="M952.7,338.1h-3.4c-1,0-1.8-0.8-1.8-1.8v-9.6c0-1,0.8-1.8,1.8-1.8h3.4c1,0,1.8,0.8,1.8,1.8v9.6
				C954.5,337.3,953.7,338.1,952.7,338.1z"/>
		</g>
		<g>
			<path class="st5" d="M940.2,365.9h-3.4c-1,0-1.8-0.8-1.8-1.8v-9.6c0-1,0.8-1.8,1.8-1.8h3.4c1,0,1.8,0.8,1.8,1.8v9.6
				C942,365.1,941.2,365.9,940.2,365.9z"/>
		</g>
		<g>
			<path class="st5" d="M952.7,365.9h-3.4c-1,0-1.8-0.8-1.8-1.8v-9.6c0-1,0.8-1.8,1.8-1.8h3.4c1,0,1.8,0.8,1.8,1.8v9.6
				C954.5,365.2,953.7,365.9,952.7,365.9z"/>
		</g>
		<g>
			<path class="st5" d="M927.8,392.6h-3.4c-1,0-1.8-0.8-1.8-1.8v-9.6c0-1,0.8-1.8,1.8-1.8h3.4c1,0,1.8,0.8,1.8,1.8v9.6
				C929.6,391.8,928.8,392.6,927.8,392.6z"/>
		</g>
		<g>
			<path class="st5" d="M927.8,420.5h-3.4c-1,0-1.8-0.8-1.8-1.8v-9.6c0-1,0.8-1.8,1.8-1.8h3.4c1,0,1.8,0.8,1.8,1.8v9.6
				C929.6,419.7,928.8,420.5,927.8,420.5z"/>
		</g>
		<g>
			<path class="st5" d="M940.2,392.6h-3.4c-1,0-1.8-0.8-1.8-1.8v-9.6c0-1,0.8-1.8,1.8-1.8h3.4c1,0,1.8,0.8,1.8,1.8v9.6
				C942,391.8,941.2,392.6,940.2,392.6z"/>
		</g>
		<g>
			<path class="st5" d="M952.7,392.6h-3.4c-1,0-1.8-0.8-1.8-1.8v-9.6c0-1,0.8-1.8,1.8-1.8h3.4c1,0,1.8,0.8,1.8,1.8v9.6
				C954.5,391.8,953.7,392.6,952.7,392.6z"/>
		</g>
		<g>
			<path class="st5" d="M940.2,420.5h-3.4c-1,0-1.8-0.8-1.8-1.8v-9.6c0-1,0.8-1.8,1.8-1.8h3.4c1,0,1.8,0.8,1.8,1.8v9.6
				C942,419.7,941.2,420.5,940.2,420.5z"/>
		</g>
		<g>
			<path class="st5" d="M952.7,420.5h-3.4c-1,0-1.8-0.8-1.8-1.8v-9.6c0-1,0.8-1.8,1.8-1.8h3.4c1,0,1.8,0.8,1.8,1.8v9.6
				C954.5,419.7,953.7,420.5,952.7,420.5z"/>
		</g>
		<path class="st8" d="M996.1,314.4h-33.9c-1.1,0-2.2-0.4-2.9-1L934.9,292c-2.1-1.9-0.4-4.8,2.9-4.8h33.9c1.1,0,2.2,0.4,2.9,1
			l24.3,21.3C1001.2,311.5,999.4,314.4,996.1,314.4z"/>
		<path class="st2" d="M959.8,435.3h-38.2c-2.3,0-4.2-1.9-4.2-4.2v-6.4h42.4V435.3z"/>
		<path class="st5" d="M959.8,435.3h37.6c2.6,0,4.7-2.1,4.7-4.7v-5.9h-42.4V435.3z"/>
		<path class="st4" d="M971.3,299.8h-12.5c-0.6,0-1-0.5-1-1v-16.4h14.5v16.4C972.3,299.4,971.8,299.8,971.3,299.8z"/>
		<path class="st2" d="M971.2,299.8H965v-17.4h7.2v16.4C972.3,299.4,971.8,299.8,971.2,299.8z"/>
		<path class="st4" d="M974.2,284.6H956c-0.4,0-0.8-0.4-0.8-0.8V281c0-0.4,0.4-0.8,0.8-0.8h18.2c0.4,0,0.8,0.4,0.8,0.8v2.9
			C975,284.3,974.6,284.6,974.2,284.6z"/>
		<path class="st2" d="M974.1,284.6h-9.1v-4.4h9.1c0.5,0,0.8,0.4,0.8,0.8v2.8C975,284.3,974.6,284.6,974.1,284.6z"/>
	</g>
	<g>
		<path class="st2" d="M526,436.2h-29.4v-396H526c1.5,0,2.6,1.2,2.6,2.6v390.7C528.6,435,527.4,436.2,526,436.2z"/>
		<path class="st7" d="M486.9,28.6l-7.9-9.7c-0.8-1-2.3-0.9-3.1,0.1l-7.9,9.6l-9,11c-0.3,0.4-0.5,0.9-0.5,1.4v393
			c0,1.2,1,2.2,2.2,2.2h35.8V41c0-0.5-0.2-1-0.5-1.4L486.9,28.6z"/>
		<g>
			<path class="st5" d="M473.7,71.5h-5.6c-1,0-1.8-0.8-1.8-1.8V55.8c0-1,0.8-1.8,1.8-1.8h5.6c1,0,1.8,0.8,1.8,1.8v13.9
				C475.5,70.7,474.7,71.5,473.7,71.5z"/>
		</g>
		<g>
			<path class="st5" d="M490.4,71.5h-5.6c-1,0-1.8-0.8-1.8-1.8V55.8c0-1,0.8-1.8,1.8-1.8h5.6c1,0,1.8,0.8,1.8,1.8v13.9
				C492.1,70.7,491.3,71.5,490.4,71.5z"/>
		</g>
		<g>
			<path class="st5" d="M473.7,108.4h-5.6c-1,0-1.8-0.8-1.8-1.8V92.8c0-1,0.8-1.8,1.8-1.8h5.6c1,0,1.8,0.8,1.8,1.8v13.9
				C475.5,107.7,474.7,108.4,473.7,108.4z"/>
		</g>
		<g>
			<path class="st5" d="M490.4,108.5h-5.6c-1,0-1.8-0.8-1.8-1.8V92.8c0-1,0.8-1.8,1.8-1.8h5.6c1,0,1.8,0.8,1.8,1.8v13.9
				C492.1,107.7,491.3,108.5,490.4,108.5z"/>
		</g>
		<g>
			<path class="st5" d="M473.7,144.5h-5.6c-1,0-1.8-0.8-1.8-1.8v-13.9c0-1,0.8-1.8,1.8-1.8h5.6c1,0,1.8,0.8,1.8,1.8v13.9
				C475.5,143.7,474.7,144.5,473.7,144.5z"/>
		</g>
		<g>
			<path class="st5" d="M490.4,144.4h-5.6c-1,0-1.8-0.8-1.8-1.8v-13.9c0-1,0.8-1.8,1.8-1.8h5.6c1,0,1.8,0.8,1.8,1.8v13.9
				C492.1,143.6,491.3,144.4,490.4,144.4z"/>
		</g>
		<g>
			<path class="st5" d="M473.7,181.4h-5.6c-1,0-1.8-0.8-1.8-1.8v-13.9c0-1,0.8-1.8,1.8-1.8h5.6c1,0,1.8,0.8,1.8,1.8v13.9
				C475.5,180.6,474.7,181.4,473.7,181.4z"/>
		</g>
		<g>
			<path class="st5" d="M490.4,181.3h-5.6c-1,0-1.8-0.8-1.8-1.8v-13.9c0-1,0.8-1.8,1.8-1.8h5.6c1,0,1.8,0.8,1.8,1.8v13.9
				C492.1,180.5,491.3,181.3,490.4,181.3z"/>
		</g>
		<g>
			<path class="st5" d="M473.7,218.1h-5.5c-1,0-1.8-0.8-1.8-1.8v-13.5c0-1,0.8-1.8,1.8-1.8h5.5c1,0,1.8,0.8,1.8,1.8v13.5
				C475.5,217.3,474.7,218.1,473.7,218.1z"/>
		</g>
		<g>
			<path class="st5" d="M490.4,218.4h-5.6c-1,0-1.8-0.8-1.8-1.8v-13.9c0-1,0.8-1.8,1.8-1.8h5.6c1,0,1.8,0.8,1.8,1.8v13.9
				C492.1,217.6,491.3,218.4,490.4,218.4z"/>
		</g>
		<g>
			<path class="st5" d="M473.7,256h-5.5c-1,0-1.8-0.8-1.8-1.8v-13.5c0-1,0.8-1.8,1.8-1.8h5.5c1,0,1.8,0.8,1.8,1.8v13.5
				C475.5,255.2,474.7,256,473.7,256z"/>
		</g>
		<g>
			<path class="st5" d="M490.4,256.4h-5.6c-1,0-1.8-0.8-1.8-1.8v-13.9c0-1,0.8-1.8,1.8-1.8h5.6c1,0,1.8,0.8,1.8,1.8v13.9
				C492.1,255.6,491.3,256.4,490.4,256.4z"/>
		</g>
		<g>
			<path class="st5" d="M473.7,294.5h-5.6c-1,0-1.8-0.8-1.8-1.8v-13.9c0-1,0.8-1.8,1.8-1.8h5.6c1,0,1.8,0.8,1.8,1.8v13.9
				C475.5,293.7,474.7,294.5,473.7,294.5z"/>
		</g>
		<g>
			<path class="st5" d="M490.4,294h-5.5c-1,0-1.8-0.8-1.8-1.8v-13.5c0-1,0.8-1.8,1.8-1.8h5.5c1,0,1.8,0.8,1.8,1.8v13.5
				C492.1,293.2,491.3,294,490.4,294z"/>
		</g>
		<g>
			<path class="st5" d="M473.7,332.4h-5.6c-1,0-1.8-0.8-1.8-1.8v-13.9c0-1,0.8-1.8,1.8-1.8h5.6c1,0,1.8,0.8,1.8,1.8v13.9
				C475.5,331.7,474.7,332.4,473.7,332.4z"/>
		</g>
		<g>
			<path class="st5" d="M490.4,331.9h-5.5c-1,0-1.8-0.8-1.8-1.8v-13.5c0-1,0.8-1.8,1.8-1.8h5.5c1,0,1.8,0.8,1.8,1.8v13.5
				C492.1,331.1,491.3,331.9,490.4,331.9z"/>
		</g>
		<g>
			<path class="st5" d="M473.7,368.7h-5.6c-1,0-1.8-0.8-1.8-1.8V353c0-1,0.8-1.8,1.8-1.8h5.6c1,0,1.8,0.8,1.8,1.8v13.9
				C475.5,367.9,474.7,368.7,473.7,368.7z"/>
		</g>
		<g>
			<path class="st5" d="M490.4,369.2h-5.5c-1,0-1.8-0.8-1.8-1.8v-14.5c0-1,0.8-1.8,1.8-1.8h5.5c1,0,1.8,0.8,1.8,1.8v14.5
				C492.1,368.4,491.3,369.2,490.4,369.2z"/>
		</g>
		<g>
			<path class="st5" d="M473.7,405.6h-5.6c-1,0-1.8-0.8-1.8-1.8V390c0-1,0.8-1.8,1.8-1.8h5.6c1,0,1.8,0.8,1.8,1.8v13.9
				C475.5,404.9,474.7,405.6,473.7,405.6z"/>
		</g>
		<g>
			<path class="st5" d="M490.4,405.5h-5.6c-1,0-1.8-0.8-1.8-1.8v-13.9c0-1,0.8-1.8,1.8-1.8h5.6c1,0,1.8,0.8,1.8,1.8v13.9
				C492.1,404.8,491.3,405.5,490.4,405.5z"/>
		</g>
		<g>
			<path class="st5" d="M506.8,71.5h-5.6c-1,0-1.8-0.8-1.8-1.8V55.8c0-1,0.8-1.8,1.8-1.8h5.6c1,0,1.8,0.8,1.8,1.8v13.9
				C508.5,70.7,507.7,71.5,506.8,71.5z"/>
		</g>
		<g>
			<path class="st5" d="M523.4,71.5h-5.6c-1,0-1.8-0.8-1.8-1.8V55.8c0-1,0.8-1.8,1.8-1.8h5.6c1,0,1.8,0.8,1.8,1.8v13.9
				C525.1,70.7,524.3,71.5,523.4,71.5z"/>
		</g>
		<g>
			<path class="st5" d="M506.8,108.4h-5.6c-1,0-1.8-0.8-1.8-1.8V92.8c0-1,0.8-1.8,1.8-1.8h5.6c1,0,1.8,0.8,1.8,1.8v13.9
				C508.5,107.7,507.7,108.4,506.8,108.4z"/>
		</g>
		<g>
			<path class="st5" d="M523.4,108.5h-5.6c-1,0-1.8-0.8-1.8-1.8V92.8c0-1,0.8-1.8,1.8-1.8h5.6c1,0,1.8,0.8,1.8,1.8v13.9
				C525.1,107.7,524.3,108.5,523.4,108.5z"/>
		</g>
		<g>
			<path class="st5" d="M506.8,144.5h-5.6c-1,0-1.8-0.8-1.8-1.8v-13.9c0-1,0.8-1.8,1.8-1.8h5.6c1,0,1.8,0.8,1.8,1.8v13.9
				C508.5,143.7,507.7,144.5,506.8,144.5z"/>
		</g>
		<g>
			<path class="st5" d="M523.4,144.4h-5.6c-1,0-1.8-0.8-1.8-1.8v-13.9c0-1,0.8-1.8,1.8-1.8h5.6c1,0,1.8,0.8,1.8,1.8v13.9
				C525.1,143.6,524.3,144.4,523.4,144.4z"/>
		</g>
		<g>
			<path class="st5" d="M506.8,181.4h-5.6c-1,0-1.8-0.8-1.8-1.8v-13.9c0-1,0.8-1.8,1.8-1.8h5.6c1,0,1.8,0.8,1.8,1.8v13.9
				C508.5,180.6,507.7,181.4,506.8,181.4z"/>
		</g>
		<g>
			<path class="st5" d="M523.4,181.3h-5.6c-1,0-1.8-0.8-1.8-1.8v-13.9c0-1,0.8-1.8,1.8-1.8h5.6c1,0,1.8,0.8,1.8,1.8v13.9
				C525.1,180.5,524.3,181.3,523.4,181.3z"/>
		</g>
		<g>
			<path class="st5" d="M506.8,218.1h-5.5c-1,0-1.8-0.8-1.8-1.8v-13.5c0-1,0.8-1.8,1.8-1.8h5.5c1,0,1.8,0.8,1.8,1.8v13.5
				C508.5,217.3,507.7,218.1,506.8,218.1z"/>
		</g>
		<g>
			<path class="st5" d="M523.4,218.4h-5.6c-1,0-1.8-0.8-1.8-1.8v-13.9c0-1,0.8-1.8,1.8-1.8h5.6c1,0,1.8,0.8,1.8,1.8v13.9
				C525.1,217.6,524.3,218.4,523.4,218.4z"/>
		</g>
		<g>
			<path class="st5" d="M506.8,256h-5.5c-1,0-1.8-0.8-1.8-1.8v-13.5c0-1,0.8-1.8,1.8-1.8h5.5c1,0,1.8,0.8,1.8,1.8v13.5
				C508.5,255.2,507.7,256,506.8,256z"/>
		</g>
		<g>
			<path class="st5" d="M523.4,256.4h-5.6c-1,0-1.8-0.8-1.8-1.8v-13.9c0-1,0.8-1.8,1.8-1.8h5.6c1,0,1.8,0.8,1.8,1.8v13.9
				C525.1,255.6,524.3,256.4,523.4,256.4z"/>
		</g>
		<g>
			<path class="st5" d="M506.8,294.5h-5.6c-1,0-1.8-0.8-1.8-1.8v-13.9c0-1,0.8-1.8,1.8-1.8h5.6c1,0,1.8,0.8,1.8,1.8v13.9
				C508.5,293.7,507.7,294.5,506.8,294.5z"/>
		</g>
		<g>
			<path class="st5" d="M523.4,294h-5.5c-1,0-1.8-0.8-1.8-1.8v-13.5c0-1,0.8-1.8,1.8-1.8h5.5c1,0,1.8,0.8,1.8,1.8v13.5
				C525.1,293.2,524.3,294,523.4,294z"/>
		</g>
		<g>
			<path class="st5" d="M506.8,332.4h-5.6c-1,0-1.8-0.8-1.8-1.8v-13.9c0-1,0.8-1.8,1.8-1.8h5.6c1,0,1.8,0.8,1.8,1.8v13.9
				C508.5,331.7,507.7,332.4,506.8,332.4z"/>
		</g>
		<g>
			<path class="st5" d="M523.4,331.9h-5.5c-1,0-1.8-0.8-1.8-1.8v-13.5c0-1,0.8-1.8,1.8-1.8h5.5c1,0,1.8,0.8,1.8,1.8v13.5
				C525.1,331.1,524.3,331.9,523.4,331.9z"/>
		</g>
		<g>
			<path class="st5" d="M506.8,368.7h-5.6c-1,0-1.8-0.8-1.8-1.8V353c0-1,0.8-1.8,1.8-1.8h5.6c1,0,1.8,0.8,1.8,1.8v13.9
				C508.5,367.9,507.7,368.7,506.8,368.7z"/>
		</g>
		<g>
			<path class="st5" d="M523.4,369.2h-5.5c-1,0-1.8-0.8-1.8-1.8v-14.5c0-1,0.8-1.8,1.8-1.8h5.5c1,0,1.8,0.8,1.8,1.8v14.5
				C525.1,368.4,524.3,369.2,523.4,369.2z"/>
		</g>
		<g>
			<path class="st5" d="M506.8,405.6h-5.6c-1,0-1.8-0.8-1.8-1.8V390c0-1,0.8-1.8,1.8-1.8h5.6c1,0,1.8,0.8,1.8,1.8v13.9
				C508.5,404.9,507.7,405.6,506.8,405.6z"/>
		</g>
		<g>
			<path class="st5" d="M523.4,405.5h-5.6c-1,0-1.8-0.8-1.8-1.8v-13.9c0-1,0.8-1.8,1.8-1.8h5.6c1,0,1.8,0.8,1.8,1.8v13.9
				C525.1,404.8,524.3,405.5,523.4,405.5z"/>
		</g>
		<path class="st6" d="M525.2,44h-26.8c-0.9,0-1.7-0.4-2.3-1l-19.2-21c-1.7-1.8-0.3-4.7,2.3-4.7H506c0.9,0,1.7,0.4,2.3,1l19.2,21
			C529.2,41.2,527.8,44,525.2,44z"/>
		<path class="st2" d="M497,436.2h-36.2c-1.2,0-2.2-1-2.2-2.2v-12.6H497V436.2z"/>
		<path class="st5" d="M496.6,436.2h29.9c1.2,0,2.2-1,2.2-2.2v-12.6h-32V436.2z"/>
		<path class="st7" d="M503.7,25.6h-7.8c-0.6,0-1-0.5-1-1V13.7h9.9v10.9C504.8,25.2,504.3,25.6,503.7,25.6z"/>
		<path class="st2" d="M503.7,25.6h-3.9V13.7h4.9v10.8C504.8,25.1,504.3,25.6,503.7,25.6z"/>
		<path class="st7" d="M505.8,13.7h-11.9c-0.4,0-0.8-0.4-0.8-0.8v-1.5c0-0.4,0.4-0.8,0.8-0.8h11.9c0.4,0,0.8,0.4,0.8,0.8V13
			C506.6,13.4,506.2,13.7,505.8,13.7z"/>
		<path class="st2" d="M505.7,13.7h-5.9v-3h5.9c0.5,0,0.8,0.4,0.8,0.8v1.4C506.6,13.4,506.2,13.7,505.7,13.7z"/>
	</g>
	<g>
		<path class="st2" d="M822.4,442H793v-396h29.4c1.5,0,2.6,1.2,2.6,2.6v390.7C825.1,440.9,823.9,442,822.4,442z"/>
		<path class="st7" d="M783.3,34.5l-7.9-9.7c-0.8-1-2.3-0.9-3.1,0.1l-7.9,9.6l-9,11c-0.3,0.4-0.5,0.9-0.5,1.4v393
			c0,1.2,1,2.2,2.2,2.2H793V46.9c0-0.5-0.2-1-0.5-1.4L783.3,34.5z"/>
		<g>
			<path class="st5" d="M770.2,77.4h-5.6c-1,0-1.8-0.8-1.8-1.8V61.7c0-1,0.8-1.8,1.8-1.8h5.6c1,0,1.8,0.8,1.8,1.8v13.9
				C771.9,76.6,771.2,77.4,770.2,77.4z"/>
		</g>
		<g>
			<path class="st5" d="M786.8,77.4h-5.6c-1,0-1.8-0.8-1.8-1.8V61.7c0-1,0.8-1.8,1.8-1.8h5.6c1,0,1.8,0.8,1.8,1.8v13.9
				C788.6,76.6,787.8,77.4,786.8,77.4z"/>
		</g>
		<g>
			<path class="st5" d="M770.2,114.3h-5.6c-1,0-1.8-0.8-1.8-1.8V98.7c0-1,0.8-1.8,1.8-1.8h5.6c1,0,1.8,0.8,1.8,1.8v13.9
				C771.9,113.5,771.2,114.3,770.2,114.3z"/>
		</g>
		<g>
			<path class="st5" d="M786.8,114.3h-5.6c-1,0-1.8-0.8-1.8-1.8V98.7c0-1,0.8-1.8,1.8-1.8h5.6c1,0,1.8,0.8,1.8,1.8v13.9
				C788.6,113.5,787.8,114.3,786.8,114.3z"/>
		</g>
		<g>
			<path class="st5" d="M770.2,150.4h-5.6c-1,0-1.8-0.8-1.8-1.8v-13.9c0-1,0.8-1.8,1.8-1.8h5.6c1,0,1.8,0.8,1.8,1.8v13.9
				C771.9,149.6,771.2,150.4,770.2,150.4z"/>
		</g>
		<g>
			<path class="st5" d="M786.8,150.3h-5.6c-1,0-1.8-0.8-1.8-1.8v-13.9c0-1,0.8-1.8,1.8-1.8h5.6c1,0,1.8,0.8,1.8,1.8v13.9
				C788.6,149.5,787.8,150.3,786.8,150.3z"/>
		</g>
		<g>
			<path class="st5" d="M770.2,187.3h-5.6c-1,0-1.8-0.8-1.8-1.8v-13.9c0-1,0.8-1.8,1.8-1.8h5.6c1,0,1.8,0.8,1.8,1.8v13.9
				C771.9,186.5,771.2,187.3,770.2,187.3z"/>
		</g>
		<g>
			<path class="st5" d="M786.8,187.2h-5.6c-1,0-1.8-0.8-1.8-1.8v-13.9c0-1,0.8-1.8,1.8-1.8h5.6c1,0,1.8,0.8,1.8,1.8v13.9
				C788.6,186.4,787.8,187.2,786.8,187.2z"/>
		</g>
		<g>
			<path class="st5" d="M770.2,224h-5.5c-1,0-1.8-0.8-1.8-1.8v-13.5c0-1,0.8-1.8,1.8-1.8h5.5c1,0,1.8,0.8,1.8,1.8v13.5
				C771.9,223.2,771.2,224,770.2,224z"/>
		</g>
		<g>
			<path class="st5" d="M786.8,224.3h-5.6c-1,0-1.8-0.8-1.8-1.8v-13.9c0-1,0.8-1.8,1.8-1.8h5.6c1,0,1.8,0.8,1.8,1.8v13.9
				C788.6,223.5,787.8,224.3,786.8,224.3z"/>
		</g>
		<g>
			<path class="st5" d="M770.2,261.9h-5.5c-1,0-1.8-0.8-1.8-1.8v-13.5c0-1,0.8-1.8,1.8-1.8h5.5c1,0,1.8,0.8,1.8,1.8v13.5
				C771.9,261.1,771.2,261.9,770.2,261.9z"/>
		</g>
		<g>
			<path class="st5" d="M786.8,262.3h-5.6c-1,0-1.8-0.8-1.8-1.8v-13.9c0-1,0.8-1.8,1.8-1.8h5.6c1,0,1.8,0.8,1.8,1.8v13.9
				C788.6,261.5,787.8,262.3,786.8,262.3z"/>
		</g>
		<g>
			<path class="st5" d="M770.2,300.4h-5.6c-1,0-1.8-0.8-1.8-1.8v-13.9c0-1,0.8-1.8,1.8-1.8h5.6c1,0,1.8,0.8,1.8,1.8v13.9
				C771.9,299.6,771.2,300.4,770.2,300.4z"/>
		</g>
		<g>
			<path class="st5" d="M786.8,299.9h-5.5c-1,0-1.8-0.8-1.8-1.8v-13.5c0-1,0.8-1.8,1.8-1.8h5.5c1,0,1.8,0.8,1.8,1.8v13.5
				C788.6,299.1,787.8,299.9,786.8,299.9z"/>
		</g>
		<g>
			<path class="st5" d="M770.2,338.3h-5.6c-1,0-1.8-0.8-1.8-1.8v-13.9c0-1,0.8-1.8,1.8-1.8h5.6c1,0,1.8,0.8,1.8,1.8v13.9
				C771.9,337.5,771.2,338.3,770.2,338.3z"/>
		</g>
		<g>
			<path class="st5" d="M786.8,337.8h-5.5c-1,0-1.8-0.8-1.8-1.8v-13.5c0-1,0.8-1.8,1.8-1.8h5.5c1,0,1.8,0.8,1.8,1.8V336
				C788.6,337,787.8,337.8,786.8,337.8z"/>
		</g>
		<g>
			<path class="st5" d="M770.2,374.6h-5.6c-1,0-1.8-0.8-1.8-1.8v-13.9c0-1,0.8-1.8,1.8-1.8h5.6c1,0,1.8,0.8,1.8,1.8v13.9
				C771.9,373.8,771.2,374.6,770.2,374.6z"/>
		</g>
		<g>
			<path class="st5" d="M786.8,375.1h-5.5c-1,0-1.8-0.8-1.8-1.8v-14.5c0-1,0.8-1.8,1.8-1.8h5.5c1,0,1.8,0.8,1.8,1.8v14.5
				C788.6,374.3,787.8,375.1,786.8,375.1z"/>
		</g>
		<g>
			<path class="st5" d="M770.2,411.5h-5.6c-1,0-1.8-0.8-1.8-1.8v-13.9c0-1,0.8-1.8,1.8-1.8h5.6c1,0,1.8,0.8,1.8,1.8v13.9
				C771.9,410.7,771.2,411.5,770.2,411.5z"/>
		</g>
		<g>
			<path class="st5" d="M786.8,411.4h-5.6c-1,0-1.8-0.8-1.8-1.8v-13.9c0-1,0.8-1.8,1.8-1.8h5.6c1,0,1.8,0.8,1.8,1.8v13.9
				C788.6,410.6,787.8,411.4,786.8,411.4z"/>
		</g>
		<g>
			<path class="st5" d="M803.2,77.4h-5.6c-1,0-1.8-0.8-1.8-1.8V61.7c0-1,0.8-1.8,1.8-1.8h5.6c1,0,1.8,0.8,1.8,1.8v13.9
				C805,76.6,804.2,77.4,803.2,77.4z"/>
		</g>
		<g>
			<path class="st5" d="M819.8,77.4h-5.6c-1,0-1.8-0.8-1.8-1.8V61.7c0-1,0.8-1.8,1.8-1.8h5.6c1,0,1.8,0.8,1.8,1.8v13.9
				C821.6,76.6,820.8,77.4,819.8,77.4z"/>
		</g>
		<g>
			<path class="st5" d="M803.2,114.3h-5.6c-1,0-1.8-0.8-1.8-1.8V98.7c0-1,0.8-1.8,1.8-1.8h5.6c1,0,1.8,0.8,1.8,1.8v13.9
				C805,113.5,804.2,114.3,803.2,114.3z"/>
		</g>
		<g>
			<path class="st5" d="M819.8,114.3h-5.6c-1,0-1.8-0.8-1.8-1.8V98.7c0-1,0.8-1.8,1.8-1.8h5.6c1,0,1.8,0.8,1.8,1.8v13.9
				C821.6,113.5,820.8,114.3,819.8,114.3z"/>
		</g>
		<g>
			<path class="st5" d="M803.2,150.4h-5.6c-1,0-1.8-0.8-1.8-1.8v-13.9c0-1,0.8-1.8,1.8-1.8h5.6c1,0,1.8,0.8,1.8,1.8v13.9
				C805,149.6,804.2,150.4,803.2,150.4z"/>
		</g>
		<g>
			<path class="st5" d="M819.8,150.3h-5.6c-1,0-1.8-0.8-1.8-1.8v-13.9c0-1,0.8-1.8,1.8-1.8h5.6c1,0,1.8,0.8,1.8,1.8v13.9
				C821.6,149.5,820.8,150.3,819.8,150.3z"/>
		</g>
		<g>
			<path class="st5" d="M803.2,187.3h-5.6c-1,0-1.8-0.8-1.8-1.8v-13.9c0-1,0.8-1.8,1.8-1.8h5.6c1,0,1.8,0.8,1.8,1.8v13.9
				C805,186.5,804.2,187.3,803.2,187.3z"/>
		</g>
		<g>
			<path class="st5" d="M819.8,187.2h-5.6c-1,0-1.8-0.8-1.8-1.8v-13.9c0-1,0.8-1.8,1.8-1.8h5.6c1,0,1.8,0.8,1.8,1.8v13.9
				C821.6,186.4,820.8,187.2,819.8,187.2z"/>
		</g>
		<g>
			<path class="st5" d="M803.2,224h-5.5c-1,0-1.8-0.8-1.8-1.8v-13.5c0-1,0.8-1.8,1.8-1.8h5.5c1,0,1.8,0.8,1.8,1.8v13.5
				C805,223.2,804.2,224,803.2,224z"/>
		</g>
		<g>
			<path class="st5" d="M819.8,224.3h-5.6c-1,0-1.8-0.8-1.8-1.8v-13.9c0-1,0.8-1.8,1.8-1.8h5.6c1,0,1.8,0.8,1.8,1.8v13.9
				C821.6,223.5,820.8,224.3,819.8,224.3z"/>
		</g>
		<g>
			<path class="st5" d="M803.2,261.9h-5.5c-1,0-1.8-0.8-1.8-1.8v-13.5c0-1,0.8-1.8,1.8-1.8h5.5c1,0,1.8,0.8,1.8,1.8v13.5
				C805,261.1,804.2,261.9,803.2,261.9z"/>
		</g>
		<g>
			<path class="st5" d="M819.8,262.3h-5.6c-1,0-1.8-0.8-1.8-1.8v-13.9c0-1,0.8-1.8,1.8-1.8h5.6c1,0,1.8,0.8,1.8,1.8v13.9
				C821.6,261.5,820.8,262.3,819.8,262.3z"/>
		</g>
		<g>
			<path class="st5" d="M803.2,300.4h-5.6c-1,0-1.8-0.8-1.8-1.8v-13.9c0-1,0.8-1.8,1.8-1.8h5.6c1,0,1.8,0.8,1.8,1.8v13.9
				C805,299.6,804.2,300.4,803.2,300.4z"/>
		</g>
		<g>
			<path class="st5" d="M819.8,299.9h-5.5c-1,0-1.8-0.8-1.8-1.8v-13.5c0-1,0.8-1.8,1.8-1.8h5.5c1,0,1.8,0.8,1.8,1.8v13.5
				C821.6,299.1,820.8,299.9,819.8,299.9z"/>
		</g>
		<g>
			<path class="st5" d="M803.2,338.3h-5.6c-1,0-1.8-0.8-1.8-1.8v-13.9c0-1,0.8-1.8,1.8-1.8h5.6c1,0,1.8,0.8,1.8,1.8v13.9
				C805,337.5,804.2,338.3,803.2,338.3z"/>
		</g>
		<g>
			<path class="st5" d="M819.8,337.8h-5.5c-1,0-1.8-0.8-1.8-1.8v-13.5c0-1,0.8-1.8,1.8-1.8h5.5c1,0,1.8,0.8,1.8,1.8V336
				C821.6,337,820.8,337.8,819.8,337.8z"/>
		</g>
		<g>
			<path class="st5" d="M803.2,374.6h-5.6c-1,0-1.8-0.8-1.8-1.8v-13.9c0-1,0.8-1.8,1.8-1.8h5.6c1,0,1.8,0.8,1.8,1.8v13.9
				C805,373.8,804.2,374.6,803.2,374.6z"/>
		</g>
		<g>
			<path class="st5" d="M819.8,375.1h-5.5c-1,0-1.8-0.8-1.8-1.8v-14.5c0-1,0.8-1.8,1.8-1.8h5.5c1,0,1.8,0.8,1.8,1.8v14.5
				C821.6,374.3,820.8,375.1,819.8,375.1z"/>
		</g>
		<g>
			<path class="st5" d="M803.2,411.5h-5.6c-1,0-1.8-0.8-1.8-1.8v-13.9c0-1,0.8-1.8,1.8-1.8h5.6c1,0,1.8,0.8,1.8,1.8v13.9
				C805,410.7,804.2,411.5,803.2,411.5z"/>
		</g>
		<g>
			<path class="st5" d="M819.8,411.4h-5.6c-1,0-1.8-0.8-1.8-1.8v-13.9c0-1,0.8-1.8,1.8-1.8h5.6c1,0,1.8,0.8,1.8,1.8v13.9
				C821.6,410.6,820.8,411.4,819.8,411.4z"/>
		</g>
		<path class="st6" d="M821.6,49.9h-26.8c-0.9,0-1.7-0.4-2.3-1l-19.2-21c-1.7-1.8-0.3-4.7,2.3-4.7h26.8c0.9,0,1.7,0.4,2.3,1l19.2,21
			C825.6,47,824.2,49.9,821.6,49.9z"/>
		<path class="st2" d="M793.5,442h-36.2c-1.2,0-2.2-1-2.2-2.2v-12.6h38.4V442z"/>
		<path class="st5" d="M793,442h29.9c1.2,0,2.2-1,2.2-2.2v-12.6h-32V442z"/>
		<path class="st7" d="M800.2,31.5h-7.8c-0.6,0-1-0.5-1-1V19.6h9.9v10.9C801.2,31.1,800.7,31.5,800.2,31.5z"/>
		<path class="st2" d="M800.1,31.5h-3.9V19.6h4.9v10.8C801.2,31,800.7,31.5,800.1,31.5z"/>
		<path class="st7" d="M802.2,19.6h-11.9c-0.4,0-0.8-0.4-0.8-0.8v-1.5c0-0.4,0.4-0.8,0.8-0.8h11.9c0.4,0,0.8,0.4,0.8,0.8v1.5
			C803,19.3,802.6,19.6,802.2,19.6z"/>
		<path class="st2" d="M802.2,19.6h-5.9v-3h5.9c0.5,0,0.8,0.4,0.8,0.8v1.4C803,19.3,802.6,19.6,802.2,19.6z"/>
	</g>
	<g>
		<path class="st2" d="M89.5,438.7h29.4v-396H89.5c-1.5,0-2.6,1.2-2.6,2.6v390.7C86.8,437.5,88,438.7,89.5,438.7z"/>
		<path class="st7" d="M128.6,31.2l7.9-9.7c0.8-1,2.3-0.9,3.1,0.1l7.9,9.6l9,11c0.3,0.4,0.5,0.9,0.5,1.4v393c0,1.2-1,2.2-2.2,2.2
			h-35.8V43.5c0-0.5,0.2-1,0.5-1.4L128.6,31.2z"/>
		<g>
			<path class="st5" d="M141.7,74.1h5.6c1,0,1.8-0.8,1.8-1.8V58.4c0-1-0.8-1.8-1.8-1.8h-5.6c-1,0-1.8,0.8-1.8,1.8v13.9
				C139.9,73.3,140.7,74.1,141.7,74.1z"/>
		</g>
		<g>
			<path class="st5" d="M125.1,74.1h5.6c1,0,1.8-0.8,1.8-1.8V58.4c0-1-0.8-1.8-1.8-1.8h-5.6c-1,0-1.8,0.8-1.8,1.8v13.9
				C123.3,73.3,124.1,74.1,125.1,74.1z"/>
		</g>
		<g>
			<path class="st5" d="M141.7,111h5.6c1,0,1.8-0.8,1.8-1.8V95.3c0-1-0.8-1.8-1.8-1.8h-5.6c-1,0-1.8,0.8-1.8,1.8v13.9
				C139.9,110.2,140.7,111,141.7,111z"/>
		</g>
		<g>
			<path class="st5" d="M125.1,111h5.6c1,0,1.8-0.8,1.8-1.8V95.3c0-1-0.8-1.8-1.8-1.8h-5.6c-1,0-1.8,0.8-1.8,1.8v13.9
				C123.3,110.2,124.1,111,125.1,111z"/>
		</g>
		<g>
			<path class="st5" d="M141.7,147.1h5.6c1,0,1.8-0.8,1.8-1.8v-13.9c0-1-0.8-1.8-1.8-1.8h-5.6c-1,0-1.8,0.8-1.8,1.8v13.9
				C139.9,146.3,140.7,147.1,141.7,147.1z"/>
		</g>
		<g>
			<path class="st5" d="M125.1,147h5.6c1,0,1.8-0.8,1.8-1.8v-13.9c0-1-0.8-1.8-1.8-1.8h-5.6c-1,0-1.8,0.8-1.8,1.8v13.9
				C123.3,146.2,124.1,147,125.1,147z"/>
		</g>
		<g>
			<path class="st5" d="M141.7,184h5.6c1,0,1.8-0.8,1.8-1.8v-13.9c0-1-0.8-1.8-1.8-1.8h-5.6c-1,0-1.8,0.8-1.8,1.8v13.9
				C139.9,183.2,140.7,184,141.7,184z"/>
		</g>
		<g>
			<path class="st5" d="M125.1,183.9h5.6c1,0,1.8-0.8,1.8-1.8v-13.9c0-1-0.8-1.8-1.8-1.8h-5.6c-1,0-1.8,0.8-1.8,1.8v13.9
				C123.3,183.1,124.1,183.9,125.1,183.9z"/>
		</g>
		<g>
			<path class="st5" d="M141.7,220.7h5.5c1,0,1.8-0.8,1.8-1.8v-13.5c0-1-0.8-1.8-1.8-1.8h-5.5c-1,0-1.8,0.8-1.8,1.8v13.5
				C139.9,219.9,140.7,220.7,141.7,220.7z"/>
		</g>
		<g>
			<path class="st5" d="M125.1,221h5.6c1,0,1.8-0.8,1.8-1.8v-13.9c0-1-0.8-1.8-1.8-1.8h-5.6c-1,0-1.8,0.8-1.8,1.8v13.9
				C123.3,220.2,124.1,221,125.1,221z"/>
		</g>
		<g>
			<path class="st5" d="M141.7,258.6h5.5c1,0,1.8-0.8,1.8-1.8v-13.5c0-1-0.8-1.8-1.8-1.8h-5.5c-1,0-1.8,0.8-1.8,1.8v13.5
				C139.9,257.8,140.7,258.6,141.7,258.6z"/>
		</g>
		<g>
			<path class="st5" d="M125.1,258.9h5.6c1,0,1.8-0.8,1.8-1.8v-13.9c0-1-0.8-1.8-1.8-1.8h-5.6c-1,0-1.8,0.8-1.8,1.8v13.9
				C123.3,258.1,124.1,258.9,125.1,258.9z"/>
		</g>
		<g>
			<path class="st5" d="M141.7,297.1h5.6c1,0,1.8-0.8,1.8-1.8v-13.9c0-1-0.8-1.8-1.8-1.8h-5.6c-1,0-1.8,0.8-1.8,1.8v13.9
				C139.9,296.3,140.7,297.1,141.7,297.1z"/>
		</g>
		<g>
			<path class="st5" d="M125.1,296.5h5.5c1,0,1.8-0.8,1.8-1.8v-13.5c0-1-0.8-1.8-1.8-1.8h-5.5c-1,0-1.8,0.8-1.8,1.8v13.5
				C123.3,295.7,124.1,296.5,125.1,296.5z"/>
		</g>
		<g>
			<path class="st5" d="M141.7,335h5.6c1,0,1.8-0.8,1.8-1.8v-13.9c0-1-0.8-1.8-1.8-1.8h-5.6c-1,0-1.8,0.8-1.8,1.8v13.9
				C139.9,334.2,140.7,335,141.7,335z"/>
		</g>
		<g>
			<path class="st5" d="M125.1,334.4h5.5c1,0,1.8-0.8,1.8-1.8v-13.5c0-1-0.8-1.8-1.8-1.8h-5.5c-1,0-1.8,0.8-1.8,1.8v13.5
				C123.3,333.7,124.1,334.4,125.1,334.4z"/>
		</g>
		<g>
			<path class="st5" d="M141.7,371.3h5.6c1,0,1.8-0.8,1.8-1.8v-13.9c0-1-0.8-1.8-1.8-1.8h-5.6c-1,0-1.8,0.8-1.8,1.8v13.9
				C139.9,370.5,140.7,371.3,141.7,371.3z"/>
		</g>
		<g>
			<path class="st5" d="M125.1,371.7h5.5c1,0,1.8-0.8,1.8-1.8v-14.5c0-1-0.8-1.8-1.8-1.8h-5.5c-1,0-1.8,0.8-1.8,1.8V370
				C123.3,370.9,124.1,371.7,125.1,371.7z"/>
		</g>
		<g>
			<path class="st5" d="M141.7,408.2h5.6c1,0,1.8-0.8,1.8-1.8v-13.9c0-1-0.8-1.8-1.8-1.8h-5.6c-1,0-1.8,0.8-1.8,1.8v13.9
				C139.9,407.4,140.7,408.2,141.7,408.2z"/>
		</g>
		<g>
			<path class="st5" d="M125.1,408.1h5.6c1,0,1.8-0.8,1.8-1.8v-13.9c0-1-0.8-1.8-1.8-1.8h-5.6c-1,0-1.8,0.8-1.8,1.8v13.9
				C123.3,407.3,124.1,408.1,125.1,408.1z"/>
		</g>
		<g>
			<path class="st5" d="M108.7,74.1h5.6c1,0,1.8-0.8,1.8-1.8V58.4c0-1-0.8-1.8-1.8-1.8h-5.6c-1,0-1.8,0.8-1.8,1.8v13.9
				C106.9,73.3,107.7,74.1,108.7,74.1z"/>
		</g>
		<g>
			<path class="st5" d="M92.1,74.1h5.6c1,0,1.8-0.8,1.8-1.8V58.4c0-1-0.8-1.8-1.8-1.8h-5.6c-1,0-1.8,0.8-1.8,1.8v13.9
				C90.3,73.3,91.1,74.1,92.1,74.1z"/>
		</g>
		<g>
			<path class="st5" d="M108.7,111h5.6c1,0,1.8-0.8,1.8-1.8V95.3c0-1-0.8-1.8-1.8-1.8h-5.6c-1,0-1.8,0.8-1.8,1.8v13.9
				C106.9,110.2,107.7,111,108.7,111z"/>
		</g>
		<g>
			<path class="st5" d="M92.1,111h5.6c1,0,1.8-0.8,1.8-1.8V95.3c0-1-0.8-1.8-1.8-1.8h-5.6c-1,0-1.8,0.8-1.8,1.8v13.9
				C90.3,110.2,91.1,111,92.1,111z"/>
		</g>
		<g>
			<path class="st5" d="M108.7,147.1h5.6c1,0,1.8-0.8,1.8-1.8v-13.9c0-1-0.8-1.8-1.8-1.8h-5.6c-1,0-1.8,0.8-1.8,1.8v13.9
				C106.9,146.3,107.7,147.1,108.7,147.1z"/>
		</g>
		<g>
			<path class="st5" d="M92.1,147h5.6c1,0,1.8-0.8,1.8-1.8v-13.9c0-1-0.8-1.8-1.8-1.8h-5.6c-1,0-1.8,0.8-1.8,1.8v13.9
				C90.3,146.2,91.1,147,92.1,147z"/>
		</g>
		<g>
			<path class="st5" d="M108.7,184h5.6c1,0,1.8-0.8,1.8-1.8v-13.9c0-1-0.8-1.8-1.8-1.8h-5.6c-1,0-1.8,0.8-1.8,1.8v13.9
				C106.9,183.2,107.7,184,108.7,184z"/>
		</g>
		<g>
			<path class="st5" d="M92.1,183.9h5.6c1,0,1.8-0.8,1.8-1.8v-13.9c0-1-0.8-1.8-1.8-1.8h-5.6c-1,0-1.8,0.8-1.8,1.8v13.9
				C90.3,183.1,91.1,183.9,92.1,183.9z"/>
		</g>
		<g>
			<path class="st5" d="M108.7,220.7h5.5c1,0,1.8-0.8,1.8-1.8v-13.5c0-1-0.8-1.8-1.8-1.8h-5.5c-1,0-1.8,0.8-1.8,1.8v13.5
				C106.9,219.9,107.7,220.7,108.7,220.7z"/>
		</g>
		<g>
			<path class="st5" d="M92.1,221h5.6c1,0,1.8-0.8,1.8-1.8v-13.9c0-1-0.8-1.8-1.8-1.8h-5.6c-1,0-1.8,0.8-1.8,1.8v13.9
				C90.3,220.2,91.1,221,92.1,221z"/>
		</g>
		<g>
			<path class="st5" d="M108.7,258.6h5.5c1,0,1.8-0.8,1.8-1.8v-13.5c0-1-0.8-1.8-1.8-1.8h-5.5c-1,0-1.8,0.8-1.8,1.8v13.5
				C106.9,257.8,107.7,258.6,108.7,258.6z"/>
		</g>
		<g>
			<path class="st5" d="M92.1,258.9h5.6c1,0,1.8-0.8,1.8-1.8v-13.9c0-1-0.8-1.8-1.8-1.8h-5.6c-1,0-1.8,0.8-1.8,1.8v13.9
				C90.3,258.1,91.1,258.9,92.1,258.9z"/>
		</g>
		<g>
			<path class="st5" d="M108.7,297.1h5.6c1,0,1.8-0.8,1.8-1.8v-13.9c0-1-0.8-1.8-1.8-1.8h-5.6c-1,0-1.8,0.8-1.8,1.8v13.9
				C106.9,296.3,107.7,297.1,108.7,297.1z"/>
		</g>
		<g>
			<path class="st5" d="M92.1,296.5h5.5c1,0,1.8-0.8,1.8-1.8v-13.5c0-1-0.8-1.8-1.8-1.8h-5.5c-1,0-1.8,0.8-1.8,1.8v13.5
				C90.3,295.7,91.1,296.5,92.1,296.5z"/>
		</g>
		<g>
			<path class="st5" d="M108.7,335h5.6c1,0,1.8-0.8,1.8-1.8v-13.9c0-1-0.8-1.8-1.8-1.8h-5.6c-1,0-1.8,0.8-1.8,1.8v13.9
				C106.9,334.2,107.7,335,108.7,335z"/>
		</g>
		<g>
			<path class="st5" d="M92.1,334.4h5.5c1,0,1.8-0.8,1.8-1.8v-13.5c0-1-0.8-1.8-1.8-1.8h-5.5c-1,0-1.8,0.8-1.8,1.8v13.5
				C90.3,333.7,91.1,334.4,92.1,334.4z"/>
		</g>
		<g>
			<path class="st5" d="M108.7,371.3h5.6c1,0,1.8-0.8,1.8-1.8v-13.9c0-1-0.8-1.8-1.8-1.8h-5.6c-1,0-1.8,0.8-1.8,1.8v13.9
				C106.9,370.5,107.7,371.3,108.7,371.3z"/>
		</g>
		<g>
			<path class="st5" d="M92.1,371.7h5.5c1,0,1.8-0.8,1.8-1.8v-14.5c0-1-0.8-1.8-1.8-1.8h-5.5c-1,0-1.8,0.8-1.8,1.8V370
				C90.3,370.9,91.1,371.7,92.1,371.7z"/>
		</g>
		<g>
			<path class="st5" d="M108.7,408.2h5.6c1,0,1.8-0.8,1.8-1.8v-13.9c0-1-0.8-1.8-1.8-1.8h-5.6c-1,0-1.8,0.8-1.8,1.8v13.9
				C106.9,407.4,107.7,408.2,108.7,408.2z"/>
		</g>
		<g>
			<path class="st5" d="M92.1,408.1h5.6c1,0,1.8-0.8,1.8-1.8v-13.9c0-1-0.8-1.8-1.8-1.8h-5.6c-1,0-1.8,0.8-1.8,1.8v13.9
				C90.3,407.3,91.1,408.1,92.1,408.1z"/>
		</g>
		<path class="st8" d="M90.3,46.6h26.8c0.9,0,1.7-0.4,2.3-1l19.2-21c1.7-1.8,0.3-4.7-2.3-4.7h-26.8c-0.9,0-1.7,0.4-2.3,1L88,41.9
			C86.3,43.7,87.7,46.6,90.3,46.6z"/>
		<path class="st2" d="M118.4,438.7h36.2c1.2,0,2.2-1,2.2-2.2V424h-38.4V438.7z"/>
		<path class="st5" d="M118.9,438.7H89c-1.2,0-2.2-1-2.2-2.2V424h32V438.7z"/>
		<path class="st7" d="M111.7,28.2h7.8c0.6,0,1-0.5,1-1V16.3h-9.9v10.9C110.7,27.7,111.2,28.2,111.7,28.2z"/>
		<path class="st2" d="M111.8,28.2h3.9V16.3h-4.9v10.8C110.7,27.7,111.2,28.2,111.8,28.2z"/>
		<path class="st7" d="M109.7,16.3h11.9c0.4,0,0.8-0.4,0.8-0.8v-1.5c0-0.4-0.4-0.8-0.8-0.8h-11.9c-0.4,0-0.8,0.4-0.8,0.8v1.5
			C108.9,16,109.3,16.3,109.7,16.3z"/>
		<path class="st2" d="M109.7,16.3h5.9v-3h-5.9c-0.5,0-0.8,0.4-0.8,0.8v1.4C108.9,15.9,109.3,16.3,109.7,16.3z"/>
	</g>
	<g>
		<g>
			<path class="st7" d="M864.2,444.8h-50.8c-3,0-5.3-3.9-5.3-8.7V285.4c0-2.7,0.8-5.3,2.1-6.9l20.9-26.1c1.8-2.3,4.3-2.4,6.2-0.4
				l27,29.1V444.8z"/>
			<path class="st2" d="M913,444.8h-48.8V281.2H913c4.1,0,7.3,3.3,7.3,7.3v149C920.4,441.5,917.1,444.8,913,444.8z"/>
			<g>
				<path class="st5" d="M878.6,315.8h-5.6c-1,0-1.8-0.8-1.8-1.8v-13.9c0-1,0.8-1.8,1.8-1.8h5.6c1,0,1.8,0.8,1.8,1.8v13.9
					C880.4,315.1,879.6,315.8,878.6,315.8z"/>
			</g>
			<g>
				<path class="st5" d="M878.6,352.8h-5.6c-1,0-1.8-0.8-1.8-1.8v-13.9c0-1,0.8-1.8,1.8-1.8h5.6c1,0,1.8,0.8,1.8,1.8V351
					C880.4,352,879.6,352.8,878.6,352.8z"/>
			</g>
			<g>
				<path class="st5" d="M895,315.8h-5.6c-1,0-1.8-0.8-1.8-1.8v-13.9c0-1,0.8-1.8,1.8-1.8h5.6c1,0,1.8,0.8,1.8,1.8v13.9
					C896.8,315,896,315.8,895,315.8z"/>
			</g>
			<g>
				<path class="st5" d="M911.6,315.8h-5.6c-1,0-1.8-0.8-1.8-1.8v-13.9c0-1,0.8-1.8,1.8-1.8h5.6c1,0,1.8,0.8,1.8,1.8v13.9
					C913.4,315.1,912.6,315.8,911.6,315.8z"/>
			</g>
			<g>
				<path class="st5" d="M895,352.8h-5.6c-1,0-1.8-0.8-1.8-1.8v-13.9c0-1,0.8-1.8,1.8-1.8h5.6c1,0,1.8,0.8,1.8,1.8V351
					C896.8,352,896,352.8,895,352.8z"/>
			</g>
			<g>
				<path class="st5" d="M911.6,352.8h-5.6c-1,0-1.8-0.8-1.8-1.8v-13.9c0-1,0.8-1.8,1.8-1.8h5.6c1,0,1.8,0.8,1.8,1.8V351
					C913.4,352,912.6,352.8,911.6,352.8z"/>
			</g>
			<g>
				<path class="st5" d="M878.6,388.2h-5.6c-1,0-1.8-0.8-1.8-1.8v-13.9c0-1,0.8-1.8,1.8-1.8h5.6c1,0,1.8,0.8,1.8,1.8v13.9
					C880.4,387.4,879.6,388.2,878.6,388.2z"/>
			</g>
			<g>
				<path class="st5" d="M878.6,425.1h-5.6c-1,0-1.8-0.8-1.8-1.8v-13.9c0-1,0.8-1.8,1.8-1.8h5.6c1,0,1.8,0.8,1.8,1.8v13.9
					C880.4,424.3,879.6,425.1,878.6,425.1z"/>
			</g>
			<g>
				<path class="st5" d="M895,388.2h-5.6c-1,0-1.8-0.8-1.8-1.8v-13.9c0-1,0.8-1.8,1.8-1.8h5.6c1,0,1.8,0.8,1.8,1.8v13.9
					C896.8,387.4,896,388.2,895,388.2z"/>
			</g>
			<g>
				<path class="st5" d="M911.6,388.2h-5.6c-1,0-1.8-0.8-1.8-1.8v-13.9c0-1,0.8-1.8,1.8-1.8h5.6c1,0,1.8,0.8,1.8,1.8v13.9
					C913.4,387.4,912.6,388.2,911.6,388.2z"/>
			</g>
			<g>
				<path class="st5" d="M895,425.1h-5.6c-1,0-1.8-0.8-1.8-1.8v-13.9c0-1,0.8-1.8,1.8-1.8h5.6c1,0,1.8,0.8,1.8,1.8v13.9
					C896.8,424.3,896,425.1,895,425.1z"/>
			</g>
			<g>
				<path class="st5" d="M911.6,425.1h-5.6c-1,0-1.8-0.8-1.8-1.8v-13.9c0-1,0.8-1.8,1.8-1.8h5.6c1,0,1.8,0.8,1.8,1.8v13.9
					C913.4,424.3,912.6,425.1,911.6,425.1z"/>
			</g>
			<g>
				<path class="st5" d="M822.4,315.8h-5.6c-1,0-1.8-0.8-1.8-1.8v-13.9c0-1,0.8-1.8,1.8-1.8h5.6c1,0,1.8,0.8,1.8,1.8v13.9
					C824.2,315.1,823.4,315.8,822.4,315.8z"/>
			</g>
			<g>
				<path class="st5" d="M822.4,352.8h-5.6c-1,0-1.8-0.8-1.8-1.8v-13.9c0-1,0.8-1.8,1.8-1.8h5.6c1,0,1.8,0.8,1.8,1.8V351
					C824.2,352,823.4,352.8,822.4,352.8z"/>
			</g>
			<g>
				<path class="st5" d="M838.8,315.8h-5.6c-1,0-1.8-0.8-1.8-1.8v-13.9c0-1,0.8-1.8,1.8-1.8h5.6c1,0,1.8,0.8,1.8,1.8v13.9
					C840.6,315,839.8,315.8,838.8,315.8z"/>
			</g>
			<g>
				<path class="st5" d="M855.4,315.8h-5.6c-1,0-1.8-0.8-1.8-1.8v-13.9c0-1,0.8-1.8,1.8-1.8h5.6c1,0,1.8,0.8,1.8,1.8v13.9
					C857.2,315.1,856.4,315.8,855.4,315.8z"/>
			</g>
			<g>
				<path class="st5" d="M838.8,352.8h-5.6c-1,0-1.8-0.8-1.8-1.8v-13.9c0-1,0.8-1.8,1.8-1.8h5.6c1,0,1.8,0.8,1.8,1.8V351
					C840.6,352,839.8,352.8,838.8,352.8z"/>
			</g>
			<g>
				<path class="st5" d="M855.4,352.8h-5.6c-1,0-1.8-0.8-1.8-1.8v-13.9c0-1,0.8-1.8,1.8-1.8h5.6c1,0,1.8,0.8,1.8,1.8V351
					C857.2,352,856.4,352.8,855.4,352.8z"/>
			</g>
			<g>
				<path class="st5" d="M822.4,388.2h-5.6c-1,0-1.8-0.8-1.8-1.8v-13.9c0-1,0.8-1.8,1.8-1.8h5.6c1,0,1.8,0.8,1.8,1.8v13.9
					C824.2,387.4,823.4,388.2,822.4,388.2z"/>
			</g>
			<g>
				<path class="st5" d="M822.4,425.1h-5.6c-1,0-1.8-0.8-1.8-1.8v-13.9c0-1,0.8-1.8,1.8-1.8h5.6c1,0,1.8,0.8,1.8,1.8v13.9
					C824.2,424.3,823.4,425.1,822.4,425.1z"/>
			</g>
			<g>
				<path class="st5" d="M838.8,388.2h-5.6c-1,0-1.8-0.8-1.8-1.8v-13.9c0-1,0.8-1.8,1.8-1.8h5.6c1,0,1.8,0.8,1.8,1.8v13.9
					C840.6,387.4,839.8,388.2,838.8,388.2z"/>
			</g>
			<g>
				<path class="st5" d="M855.4,388.2h-5.6c-1,0-1.8-0.8-1.8-1.8v-13.9c0-1,0.8-1.8,1.8-1.8h5.6c1,0,1.8,0.8,1.8,1.8v13.9
					C857.2,387.4,856.4,388.2,855.4,388.2z"/>
			</g>
			<g>
				<path class="st5" d="M838.8,425.1h-5.6c-1,0-1.8-0.8-1.8-1.8v-13.9c0-1,0.8-1.8,1.8-1.8h5.6c1,0,1.8,0.8,1.8,1.8v13.9
					C840.6,424.3,839.8,425.1,838.8,425.1z"/>
			</g>
			<g>
				<path class="st5" d="M855.4,425.1h-5.6c-1,0-1.8-0.8-1.8-1.8v-13.9c0-1,0.8-1.8,1.8-1.8h5.6c1,0,1.8,0.8,1.8,1.8v13.9
					C857.2,424.3,856.4,425.1,855.4,425.1z"/>
			</g>
			<path class="st8" d="M912.4,284.4h-45c-1.5,0-2.9-0.5-3.9-1.3l-32.3-28.3c-2.8-2.5-0.5-6.3,3.9-6.3h45c1.5,0,2.9,0.5,3.9,1.3
				l32.3,28.3C919.2,280.6,916.8,284.4,912.4,284.4z"/>
		</g>
		<path class="st2" d="M864.2,444.8h-49.3c-3.8,0-6.9-3.1-6.9-6.9v-7.1h56.2V444.8z"/>
		<path class="st5" d="M864.2,444.8h49.3c3.8,0,6.9-3.1,6.9-6.9v-7.1h-56.2V444.8z"/>
		<path class="st7" d="M879.8,265.1h-17.2c-0.6,0-1-0.5-1-1V242h19.2v22.1C880.8,264.7,880.3,265.1,879.8,265.1z"/>
		<path class="st2" d="M879.7,265.1h-8.6V242h9.6v22C880.8,264.6,880.3,265.1,879.7,265.1z"/>
		<path class="st7" d="M883.6,245h-24.7c-0.4,0-0.8-0.4-0.8-0.8v-4.3c0-0.4,0.4-0.8,0.8-0.8h24.7c0.4,0,0.8,0.4,0.8,0.8v4.3
			C884.3,244.6,884,245,883.6,245z"/>
		<path class="st2" d="M883.5,245h-12.3v-5.9h12.3c0.5,0,0.8,0.4,0.8,0.8v4.2C884.3,244.6,884,245,883.5,245z"/>
	</g>
	<g>
		<path class="st2" d="M585.6,437.6h-29.4v-396h29.4c1.5,0,2.6,1.2,2.6,2.6v390.7C588.3,436.4,587.1,437.6,585.6,437.6z"/>
		<path class="st7" d="M546.5,30l-7.9-9.7c-0.8-1-2.3-0.9-3.1,0.1l-7.9,9.6l-9,11c-0.3,0.4-0.5,0.9-0.5,1.4v393c0,1.2,1,2.2,2.2,2.2
			h35.8V42.4c0-0.5-0.2-1-0.5-1.4L546.5,30z"/>
		<g>
			<path class="st5" d="M533.4,72.9h-5.6c-1,0-1.8-0.8-1.8-1.8V57.3c0-1,0.8-1.8,1.8-1.8h5.6c1,0,1.8,0.8,1.8,1.8v13.9
				C535.2,72.1,534.4,72.9,533.4,72.9z"/>
		</g>
		<g>
			<path class="st5" d="M550,72.9h-5.6c-1,0-1.8-0.8-1.8-1.8V57.3c0-1,0.8-1.8,1.8-1.8h5.6c1,0,1.8,0.8,1.8,1.8v13.9
				C551.8,72.1,551,72.9,550,72.9z"/>
		</g>
		<g>
			<path class="st5" d="M533.4,109.9h-5.6c-1,0-1.8-0.8-1.8-1.8V94.2c0-1,0.8-1.8,1.8-1.8h5.6c1,0,1.8,0.8,1.8,1.8v13.9
				C535.2,109.1,534.4,109.9,533.4,109.9z"/>
		</g>
		<g>
			<path class="st5" d="M550,109.9h-5.6c-1,0-1.8-0.8-1.8-1.8V94.2c0-1,0.8-1.8,1.8-1.8h5.6c1,0,1.8,0.8,1.8,1.8v13.9
				C551.8,109.1,551,109.9,550,109.9z"/>
		</g>
		<g>
			<path class="st5" d="M533.4,145.9h-5.6c-1,0-1.8-0.8-1.8-1.8v-13.9c0-1,0.8-1.8,1.8-1.8h5.6c1,0,1.8,0.8,1.8,1.8v13.9
				C535.2,145.1,534.4,145.9,533.4,145.9z"/>
		</g>
		<g>
			<path class="st5" d="M550,145.8h-5.6c-1,0-1.8-0.8-1.8-1.8v-13.9c0-1,0.8-1.8,1.8-1.8h5.6c1,0,1.8,0.8,1.8,1.8v13.9
				C551.8,145,551,145.8,550,145.8z"/>
		</g>
		<g>
			<path class="st5" d="M533.4,182.9h-5.6c-1,0-1.8-0.8-1.8-1.8v-13.9c0-1,0.8-1.8,1.8-1.8h5.6c1,0,1.8,0.8,1.8,1.8v13.9
				C535.2,182.1,534.4,182.9,533.4,182.9z"/>
		</g>
		<g>
			<path class="st5" d="M550,182.8h-5.6c-1,0-1.8-0.8-1.8-1.8v-13.9c0-1,0.8-1.8,1.8-1.8h5.6c1,0,1.8,0.8,1.8,1.8V181
				C551.8,182,551,182.8,550,182.8z"/>
		</g>
		<g>
			<path class="st5" d="M533.4,219.5h-5.5c-1,0-1.8-0.8-1.8-1.8v-13.5c0-1,0.8-1.8,1.8-1.8h5.5c1,0,1.8,0.8,1.8,1.8v13.5
				C535.2,218.7,534.4,219.5,533.4,219.5z"/>
		</g>
		<g>
			<path class="st5" d="M550,219.9h-5.6c-1,0-1.8-0.8-1.8-1.8v-13.9c0-1,0.8-1.8,1.8-1.8h5.6c1,0,1.8,0.8,1.8,1.8v13.9
				C551.8,219.1,551,219.9,550,219.9z"/>
		</g>
		<g>
			<path class="st5" d="M533.4,257.5h-5.5c-1,0-1.8-0.8-1.8-1.8v-13.5c0-1,0.8-1.8,1.8-1.8h5.5c1,0,1.8,0.8,1.8,1.8v13.5
				C535.2,256.7,534.4,257.5,533.4,257.5z"/>
		</g>
		<g>
			<path class="st5" d="M550,257.8h-5.6c-1,0-1.8-0.8-1.8-1.8v-13.9c0-1,0.8-1.8,1.8-1.8h5.6c1,0,1.8,0.8,1.8,1.8V256
				C551.8,257,551,257.8,550,257.8z"/>
		</g>
		<g>
			<path class="st5" d="M533.4,295.9h-5.6c-1,0-1.8-0.8-1.8-1.8v-13.9c0-1,0.8-1.8,1.8-1.8h5.6c1,0,1.8,0.8,1.8,1.8v13.9
				C535.2,295.1,534.4,295.9,533.4,295.9z"/>
		</g>
		<g>
			<path class="st5" d="M550,295.4h-5.5c-1,0-1.8-0.8-1.8-1.8v-13.5c0-1,0.8-1.8,1.8-1.8h5.5c1,0,1.8,0.8,1.8,1.8v13.5
				C551.8,294.6,551,295.4,550,295.4z"/>
		</g>
		<g>
			<path class="st5" d="M533.4,333.9h-5.6c-1,0-1.8-0.8-1.8-1.8v-13.9c0-1,0.8-1.8,1.8-1.8h5.6c1,0,1.8,0.8,1.8,1.8v13.9
				C535.2,333.1,534.4,333.9,533.4,333.9z"/>
		</g>
		<g>
			<path class="st5" d="M550,333.3h-5.5c-1,0-1.8-0.8-1.8-1.8v-13.5c0-1,0.8-1.8,1.8-1.8h5.5c1,0,1.8,0.8,1.8,1.8v13.5
				C551.8,332.5,551,333.3,550,333.3z"/>
		</g>
		<g>
			<path class="st5" d="M533.4,370.1h-5.6c-1,0-1.8-0.8-1.8-1.8v-13.9c0-1,0.8-1.8,1.8-1.8h5.6c1,0,1.8,0.8,1.8,1.8v13.9
				C535.2,369.4,534.4,370.1,533.4,370.1z"/>
		</g>
		<g>
			<path class="st5" d="M550,370.6h-5.5c-1,0-1.8-0.8-1.8-1.8v-14.5c0-1,0.8-1.8,1.8-1.8h5.5c1,0,1.8,0.8,1.8,1.8v14.5
				C551.8,369.8,551,370.6,550,370.6z"/>
		</g>
		<g>
			<path class="st5" d="M533.4,407.1h-5.6c-1,0-1.8-0.8-1.8-1.8v-13.9c0-1,0.8-1.8,1.8-1.8h5.6c1,0,1.8,0.8,1.8,1.8v13.9
				C535.2,406.3,534.4,407.1,533.4,407.1z"/>
		</g>
		<g>
			<path class="st5" d="M550,407h-5.6c-1,0-1.8-0.8-1.8-1.8v-13.9c0-1,0.8-1.8,1.8-1.8h5.6c1,0,1.8,0.8,1.8,1.8v13.9
				C551.8,406.2,551,407,550,407z"/>
		</g>
		<g>
			<path class="st5" d="M566.4,72.9h-5.6c-1,0-1.8-0.8-1.8-1.8V57.3c0-1,0.8-1.8,1.8-1.8h5.6c1,0,1.8,0.8,1.8,1.8v13.9
				C568.2,72.1,567.4,72.9,566.4,72.9z"/>
		</g>
		<g>
			<path class="st5" d="M583,72.9h-5.6c-1,0-1.8-0.8-1.8-1.8V57.3c0-1,0.8-1.8,1.8-1.8h5.6c1,0,1.8,0.8,1.8,1.8v13.9
				C584.8,72.1,584,72.9,583,72.9z"/>
		</g>
		<g>
			<path class="st5" d="M566.4,109.9h-5.6c-1,0-1.8-0.8-1.8-1.8V94.2c0-1,0.8-1.8,1.8-1.8h5.6c1,0,1.8,0.8,1.8,1.8v13.9
				C568.2,109.1,567.4,109.9,566.4,109.9z"/>
		</g>
		<g>
			<path class="st5" d="M583,109.9h-5.6c-1,0-1.8-0.8-1.8-1.8V94.2c0-1,0.8-1.8,1.8-1.8h5.6c1,0,1.8,0.8,1.8,1.8v13.9
				C584.8,109.1,584,109.9,583,109.9z"/>
		</g>
		<g>
			<path class="st5" d="M566.4,145.9h-5.6c-1,0-1.8-0.8-1.8-1.8v-13.9c0-1,0.8-1.8,1.8-1.8h5.6c1,0,1.8,0.8,1.8,1.8v13.9
				C568.2,145.1,567.4,145.9,566.4,145.9z"/>
		</g>
		<g>
			<path class="st5" d="M583,145.8h-5.6c-1,0-1.8-0.8-1.8-1.8v-13.9c0-1,0.8-1.8,1.8-1.8h5.6c1,0,1.8,0.8,1.8,1.8v13.9
				C584.8,145,584,145.8,583,145.8z"/>
		</g>
		<g>
			<path class="st5" d="M566.4,182.9h-5.6c-1,0-1.8-0.8-1.8-1.8v-13.9c0-1,0.8-1.8,1.8-1.8h5.6c1,0,1.8,0.8,1.8,1.8v13.9
				C568.2,182.1,567.4,182.9,566.4,182.9z"/>
		</g>
		<g>
			<path class="st5" d="M583,182.8h-5.6c-1,0-1.8-0.8-1.8-1.8v-13.9c0-1,0.8-1.8,1.8-1.8h5.6c1,0,1.8,0.8,1.8,1.8V181
				C584.8,182,584,182.8,583,182.8z"/>
		</g>
		<g>
			<path class="st5" d="M566.4,219.5h-5.5c-1,0-1.8-0.8-1.8-1.8v-13.5c0-1,0.8-1.8,1.8-1.8h5.5c1,0,1.8,0.8,1.8,1.8v13.5
				C568.2,218.7,567.4,219.5,566.4,219.5z"/>
		</g>
		<g>
			<path class="st5" d="M583,219.9h-5.6c-1,0-1.8-0.8-1.8-1.8v-13.9c0-1,0.8-1.8,1.8-1.8h5.6c1,0,1.8,0.8,1.8,1.8v13.9
				C584.8,219.1,584,219.9,583,219.9z"/>
		</g>
		<g>
			<path class="st5" d="M566.4,257.5h-5.5c-1,0-1.8-0.8-1.8-1.8v-13.5c0-1,0.8-1.8,1.8-1.8h5.5c1,0,1.8,0.8,1.8,1.8v13.5
				C568.2,256.7,567.4,257.5,566.4,257.5z"/>
		</g>
		<g>
			<path class="st5" d="M583,257.8h-5.6c-1,0-1.8-0.8-1.8-1.8v-13.9c0-1,0.8-1.8,1.8-1.8h5.6c1,0,1.8,0.8,1.8,1.8V256
				C584.8,257,584,257.8,583,257.8z"/>
		</g>
		<g>
			<path class="st5" d="M566.4,295.9h-5.6c-1,0-1.8-0.8-1.8-1.8v-13.9c0-1,0.8-1.8,1.8-1.8h5.6c1,0,1.8,0.8,1.8,1.8v13.9
				C568.2,295.1,567.4,295.9,566.4,295.9z"/>
		</g>
		<g>
			<path class="st5" d="M583,295.4h-5.5c-1,0-1.8-0.8-1.8-1.8v-13.5c0-1,0.8-1.8,1.8-1.8h5.5c1,0,1.8,0.8,1.8,1.8v13.5
				C584.8,294.6,584,295.4,583,295.4z"/>
		</g>
		<g>
			<path class="st5" d="M566.4,333.9h-5.6c-1,0-1.8-0.8-1.8-1.8v-13.9c0-1,0.8-1.8,1.8-1.8h5.6c1,0,1.8,0.8,1.8,1.8v13.9
				C568.2,333.1,567.4,333.9,566.4,333.9z"/>
		</g>
		<g>
			<path class="st5" d="M583,333.3h-5.5c-1,0-1.8-0.8-1.8-1.8v-13.5c0-1,0.8-1.8,1.8-1.8h5.5c1,0,1.8,0.8,1.8,1.8v13.5
				C584.8,332.5,584,333.3,583,333.3z"/>
		</g>
		<g>
			<path class="st5" d="M566.4,370.1h-5.6c-1,0-1.8-0.8-1.8-1.8v-13.9c0-1,0.8-1.8,1.8-1.8h5.6c1,0,1.8,0.8,1.8,1.8v13.9
				C568.2,369.4,567.4,370.1,566.4,370.1z"/>
		</g>
		<g>
			<path class="st5" d="M583,370.6h-5.5c-1,0-1.8-0.8-1.8-1.8v-14.5c0-1,0.8-1.8,1.8-1.8h5.5c1,0,1.8,0.8,1.8,1.8v14.5
				C584.8,369.8,584,370.6,583,370.6z"/>
		</g>
		<g>
			<path class="st5" d="M566.4,407.1h-5.6c-1,0-1.8-0.8-1.8-1.8v-13.9c0-1,0.8-1.8,1.8-1.8h5.6c1,0,1.8,0.8,1.8,1.8v13.9
				C568.2,406.3,567.4,407.1,566.4,407.1z"/>
		</g>
		<g>
			<path class="st5" d="M583,407h-5.6c-1,0-1.8-0.8-1.8-1.8v-13.9c0-1,0.8-1.8,1.8-1.8h5.6c1,0,1.8,0.8,1.8,1.8v13.9
				C584.8,406.2,584,407,583,407z"/>
		</g>
		<path class="st6" d="M584.8,45.4h-26.8c-0.9,0-1.7-0.4-2.3-1l-19.2-21c-1.7-1.8-0.3-4.7,2.3-4.7h26.8c0.9,0,1.7,0.4,2.3,1l19.2,21
			C588.8,42.6,587.4,45.4,584.8,45.4z"/>
		<path class="st2" d="M556.7,437.6h-36.2c-1.2,0-2.2-1-2.2-2.2v-12.6h38.4V437.6z"/>
		<path class="st5" d="M556.2,437.6h29.9c1.2,0,2.2-1,2.2-2.2v-12.6h-32V437.6z"/>
		<path class="st7" d="M563.4,27.1h-7.8c-0.6,0-1-0.5-1-1V15.2h9.9V26C564.4,26.6,564,27.1,563.4,27.1z"/>
		<path class="st2" d="M563.4,27.1h-3.9V15.2h4.9V26C564.4,26.6,563.9,27.1,563.4,27.1z"/>
		<path class="st7" d="M565.4,15.2h-11.9c-0.4,0-0.8-0.4-0.8-0.8v-1.5c0-0.4,0.4-0.8,0.8-0.8h11.9c0.4,0,0.8,0.4,0.8,0.8v1.5
			C566.2,14.8,565.9,15.2,565.4,15.2z"/>
		<path class="st2" d="M565.4,15.2h-5.9v-3h5.9c0.5,0,0.8,0.4,0.8,0.8v1.4C566.2,14.8,565.8,15.2,565.4,15.2z"/>
	</g>
	<g>
		<g>
			<path class="st7" d="M623.9,440.7h-52.7c-3.1,0-5.5-4-5.5-9V275.5c0-2.8,0.8-5.4,2.2-7.2l21.7-27.1c1.9-2.3,4.5-2.5,6.4-0.4
				l28,30.2V440.7z"/>
			<path class="st2" d="M674.8,440.7h-50.9V271h50.9c4.1,0,7.3,3.3,7.3,7.3v155C682.1,437.4,678.8,440.7,674.8,440.7z"/>
			<g>
				<path class="st5" d="M638.9,307h-6c-1,0-1.8-0.8-1.8-1.8v-14.6c0-1,0.8-1.8,1.8-1.8h6c1,0,1.8,0.8,1.8,1.8v14.6
					C640.6,306.2,639.8,307,638.9,307z"/>
			</g>
			<g>
				<path class="st5" d="M638.9,345.3h-6c-1,0-1.8-0.8-1.8-1.8V329c0-1,0.8-1.8,1.8-1.8h6c1,0,1.8,0.8,1.8,1.8v14.6
					C640.6,344.5,639.8,345.3,638.9,345.3z"/>
			</g>
			<g>
				<path class="st5" d="M655.9,307h-6c-1,0-1.8-0.8-1.8-1.8v-14.6c0-1,0.8-1.8,1.8-1.8h6c1,0,1.8,0.8,1.8,1.8v14.6
					C657.6,306.2,656.8,307,655.9,307z"/>
			</g>
			<g>
				<path class="st5" d="M673.1,307h-6c-1,0-1.8-0.8-1.8-1.8v-14.6c0-1,0.8-1.8,1.8-1.8h6c1,0,1.8,0.8,1.8,1.8v14.6
					C674.9,306.2,674.1,307,673.1,307z"/>
			</g>
			<g>
				<path class="st5" d="M655.9,345.3h-6c-1,0-1.8-0.8-1.8-1.8V329c0-1,0.8-1.8,1.8-1.8h6c1,0,1.8,0.8,1.8,1.8v14.6
					C657.6,344.5,656.8,345.3,655.9,345.3z"/>
			</g>
			<g>
				<path class="st5" d="M673.1,345.3h-6c-1,0-1.8-0.8-1.8-1.8V329c0-1,0.8-1.8,1.8-1.8h6c1,0,1.8,0.8,1.8,1.8v14.6
					C674.9,344.5,674.1,345.3,673.1,345.3z"/>
			</g>
			<g>
				<path class="st5" d="M638.9,382h-6c-1,0-1.8-0.8-1.8-1.8v-14.6c0-1,0.8-1.8,1.8-1.8h6c1,0,1.8,0.8,1.8,1.8v14.6
					C640.6,381.2,639.8,382,638.9,382z"/>
			</g>
			<g>
				<path class="st5" d="M638.9,420.3h-6c-1,0-1.8-0.8-1.8-1.8V404c0-1,0.8-1.8,1.8-1.8h6c1,0,1.8,0.8,1.8,1.8v14.6
					C640.6,419.5,639.8,420.3,638.9,420.3z"/>
			</g>
			<g>
				<path class="st5" d="M655.9,382h-6c-1,0-1.8-0.8-1.8-1.8v-14.6c0-1,0.8-1.8,1.8-1.8h6c1,0,1.8,0.8,1.8,1.8v14.6
					C657.6,381.2,656.8,382,655.9,382z"/>
			</g>
			<g>
				<path class="st5" d="M673.1,382h-6c-1,0-1.8-0.8-1.8-1.8v-14.6c0-1,0.8-1.8,1.8-1.8h6c1,0,1.8,0.8,1.8,1.8v14.6
					C674.9,381.2,674.1,382,673.1,382z"/>
			</g>
			<g>
				<path class="st5" d="M655.9,420.3h-6c-1,0-1.8-0.8-1.8-1.8V404c0-1,0.8-1.8,1.8-1.8h6c1,0,1.8,0.8,1.8,1.8v14.6
					C657.6,419.5,656.8,420.3,655.9,420.3z"/>
			</g>
			<g>
				<path class="st5" d="M673.1,420.3h-6c-1,0-1.8-0.8-1.8-1.8V404c0-1,0.8-1.8,1.8-1.8h6c1,0,1.8,0.8,1.8,1.8v14.6
					C674.9,419.5,674.1,420.3,673.1,420.3z"/>
			</g>
			<g>
				<path class="st5" d="M580.6,307h-6c-1,0-1.8-0.8-1.8-1.8v-14.6c0-1,0.8-1.8,1.8-1.8h6c1,0,1.8,0.8,1.8,1.8v14.6
					C582.4,306.2,581.6,307,580.6,307z"/>
			</g>
			<g>
				<path class="st5" d="M580.6,345.3h-6c-1,0-1.8-0.8-1.8-1.8V329c0-1,0.8-1.8,1.8-1.8h6c1,0,1.8,0.8,1.8,1.8v14.6
					C582.4,344.5,581.6,345.3,580.6,345.3z"/>
			</g>
			<g>
				<path class="st5" d="M597.6,307h-6c-1,0-1.8-0.8-1.8-1.8v-14.6c0-1,0.8-1.8,1.8-1.8h6c1,0,1.8,0.8,1.8,1.8v14.6
					C599.4,306.2,598.6,307,597.6,307z"/>
			</g>
			<g>
				<path class="st5" d="M614.8,307h-6c-1,0-1.8-0.8-1.8-1.8v-14.6c0-1,0.8-1.8,1.8-1.8h6c1,0,1.8,0.8,1.8,1.8v14.6
					C616.6,306.2,615.8,307,614.8,307z"/>
			</g>
			<g>
				<path class="st5" d="M597.6,345.3h-6c-1,0-1.8-0.8-1.8-1.8V329c0-1,0.8-1.8,1.8-1.8h6c1,0,1.8,0.8,1.8,1.8v14.6
					C599.4,344.5,598.6,345.3,597.6,345.3z"/>
			</g>
			<g>
				<path class="st5" d="M614.8,345.3h-6c-1,0-1.8-0.8-1.8-1.8V329c0-1,0.8-1.8,1.8-1.8h6c1,0,1.8,0.8,1.8,1.8v14.6
					C616.6,344.5,615.8,345.3,614.8,345.3z"/>
			</g>
			<g>
				<path class="st5" d="M580.6,382h-6c-1,0-1.8-0.8-1.8-1.8v-14.6c0-1,0.8-1.8,1.8-1.8h6c1,0,1.8,0.8,1.8,1.8v14.6
					C582.4,381.2,581.6,382,580.6,382z"/>
			</g>
			<g>
				<path class="st5" d="M580.6,420.3h-6c-1,0-1.8-0.8-1.8-1.8V404c0-1,0.8-1.8,1.8-1.8h6c1,0,1.8,0.8,1.8,1.8v14.6
					C582.4,419.5,581.6,420.3,580.6,420.3z"/>
			</g>
			<g>
				<path class="st5" d="M597.6,382h-6c-1,0-1.8-0.8-1.8-1.8v-14.6c0-1,0.8-1.8,1.8-1.8h6c1,0,1.8,0.8,1.8,1.8v14.6
					C599.4,381.2,598.6,382,597.6,382z"/>
			</g>
			<g>
				<path class="st5" d="M614.8,382h-6c-1,0-1.8-0.8-1.8-1.8v-14.6c0-1,0.8-1.8,1.8-1.8h6c1,0,1.8,0.8,1.8,1.8v14.6
					C616.6,381.2,615.8,382,614.8,382z"/>
			</g>
			<g>
				<path class="st5" d="M597.6,420.3h-6c-1,0-1.8-0.8-1.8-1.8V404c0-1,0.8-1.8,1.8-1.8h6c1,0,1.8,0.8,1.8,1.8v14.6
					C599.4,419.5,598.6,420.3,597.6,420.3z"/>
			</g>
			<g>
				<path class="st5" d="M614.8,420.3h-6c-1,0-1.8-0.8-1.8-1.8V404c0-1,0.8-1.8,1.8-1.8h6c1,0,1.8,0.8,1.8,1.8v14.6
					C616.6,419.5,615.8,420.3,614.8,420.3z"/>
			</g>
			<path class="st8" d="M673.9,274.4h-46.7c-1.6,0-3-0.5-4.1-1.4l-33.5-29.3c-2.9-2.6-0.5-6.5,4.1-6.5h46.7c1.6,0,3,0.5,4.1,1.4
				l33.5,29.3C680.9,270.4,678.4,274.4,673.9,274.4z"/>
		</g>
		<path class="st2" d="M623.9,440.7h-51.3c-3.8,0-6.9-3.1-6.9-6.9v-7.7h58.3V440.7z"/>
		<path class="st5" d="M623.9,440.7h51.3c3.8,0,6.9-3.1,6.9-6.9v-7.7h-58.3V440.7z"/>
		<path class="st7" d="M640.1,254.4h-17.9c-0.6,0-1-0.5-1-1v-22.9h19.9v22.9C641.1,253.9,640.6,254.4,640.1,254.4z"/>
		<path class="st2" d="M640,254.4h-8.9v-24h10v22.9C641.1,253.9,640.6,254.4,640,254.4z"/>
		<path class="st7" d="M644,233.5h-25.6c-0.4,0-0.8-0.4-0.8-0.8v-4.5c0-0.4,0.4-0.8,0.8-0.8H644c0.4,0,0.8,0.4,0.8,0.8v4.5
			C644.8,233.2,644.4,233.5,644,233.5z"/>
		<path class="st2" d="M643.9,233.5h-12.8v-6.1h12.8c0.5,0,0.8,0.4,0.8,0.8v4.5C644.8,233.1,644.4,233.5,643.9,233.5z"/>
	</g>
	<g>
		<path class="st7" d="M258.9,442.4H314c3.2,0,5.8-4.2,5.8-9.4V269.7c0-2.9-0.8-5.7-2.3-7.5l-22.7-28.3c-2-2.5-4.7-2.6-6.7-0.4
			L258.9,265V442.4z"/>
		<path class="st2" d="M205.4,442.4h53.5V265h-53.5c-4.1,0-7.3,3.3-7.3,7.3V435C198,439.1,201.3,442.4,205.4,442.4z"/>
		<g>
			<path class="st5" d="M243.2,302.6h6.4c1,0,1.8-0.8,1.8-1.8v-15.4c0-1-0.8-1.8-1.8-1.8h-6.4c-1,0-1.8,0.8-1.8,1.8v15.4
				C241.4,301.8,242.2,302.6,243.2,302.6z"/>
		</g>
		<g>
			<path class="st5" d="M243.2,342.7h6.4c1,0,1.8-0.8,1.8-1.8v-15.4c0-1-0.8-1.8-1.8-1.8h-6.4c-1,0-1.8,0.8-1.8,1.8v15.4
				C241.4,341.9,242.2,342.7,243.2,342.7z"/>
		</g>
		<g>
			<path class="st5" d="M225.4,302.6h6.4c1,0,1.8-0.8,1.8-1.8v-15.4c0-1-0.8-1.8-1.8-1.8h-6.4c-1,0-1.8,0.8-1.8,1.8v15.4
				C223.6,301.8,224.4,302.6,225.4,302.6z"/>
		</g>
		<g>
			<path class="st5" d="M207.4,302.6h6.4c1,0,1.8-0.8,1.8-1.8v-15.4c0-1-0.8-1.8-1.8-1.8h-6.4c-1,0-1.8,0.8-1.8,1.8v15.4
				C205.6,301.8,206.4,302.6,207.4,302.6z"/>
		</g>
		<g>
			<path class="st5" d="M225.4,342.7h6.4c1,0,1.8-0.8,1.8-1.8v-15.4c0-1-0.8-1.8-1.8-1.8h-6.4c-1,0-1.8,0.8-1.8,1.8v15.4
				C223.6,341.9,224.4,342.7,225.4,342.7z"/>
		</g>
		<g>
			<path class="st5" d="M207.4,342.7h6.4c1,0,1.8-0.8,1.8-1.8v-15.4c0-1-0.8-1.8-1.8-1.8h-6.4c-1,0-1.8,0.8-1.8,1.8v15.4
				C205.6,341.9,206.4,342.7,207.4,342.7z"/>
		</g>
		<g>
			<path class="st5" d="M243.2,381h6.4c1,0,1.8-0.8,1.8-1.8v-15.4c0-1-0.8-1.8-1.8-1.8h-6.4c-1,0-1.8,0.8-1.8,1.8v15.4
				C241.4,380.2,242.2,381,243.2,381z"/>
		</g>
		<g>
			<path class="st5" d="M243.2,421h6.4c1,0,1.8-0.8,1.8-1.8v-15.4c0-1-0.8-1.8-1.8-1.8h-6.4c-1,0-1.8,0.8-1.8,1.8v15.4
				C241.4,420.3,242.2,421,243.2,421z"/>
		</g>
		<g>
			<path class="st5" d="M225.4,381h6.4c1,0,1.8-0.8,1.8-1.8v-15.4c0-1-0.8-1.8-1.8-1.8h-6.4c-1,0-1.8,0.8-1.8,1.8v15.4
				C223.6,380.2,224.4,381,225.4,381z"/>
		</g>
		<g>
			<path class="st5" d="M207.4,381h6.4c1,0,1.8-0.8,1.8-1.8v-15.4c0-1-0.8-1.8-1.8-1.8h-6.4c-1,0-1.8,0.8-1.8,1.8v15.4
				C205.6,380.2,206.4,381,207.4,381z"/>
		</g>
		<g>
			<path class="st5" d="M225.4,421h6.4c1,0,1.8-0.8,1.8-1.8v-15.4c0-1-0.8-1.8-1.8-1.8h-6.4c-1,0-1.8,0.8-1.8,1.8v15.4
				C223.6,420.2,224.4,421,225.4,421z"/>
		</g>
		<g>
			<path class="st5" d="M207.4,421h6.4c1,0,1.8-0.8,1.8-1.8v-15.4c0-1-0.8-1.8-1.8-1.8h-6.4c-1,0-1.8,0.8-1.8,1.8v15.4
				C205.6,420.3,206.4,421,207.4,421z"/>
		</g>
		<g>
			<path class="st5" d="M304,302.6h6.4c1,0,1.8-0.8,1.8-1.8v-15.4c0-1-0.8-1.8-1.8-1.8H304c-1,0-1.8,0.8-1.8,1.8v15.4
				C302.3,301.8,303.1,302.6,304,302.6z"/>
		</g>
		<g>
			<path class="st5" d="M304,342.7h6.4c1,0,1.8-0.8,1.8-1.8v-15.4c0-1-0.8-1.8-1.8-1.8H304c-1,0-1.8,0.8-1.8,1.8v15.4
				C302.3,341.9,303.1,342.7,304,342.7z"/>
		</g>
		<g>
			<path class="st5" d="M286.3,302.6h6.4c1,0,1.8-0.8,1.8-1.8v-15.4c0-1-0.8-1.8-1.8-1.8h-6.4c-1,0-1.8,0.8-1.8,1.8v15.4
				C284.5,301.8,285.3,302.6,286.3,302.6z"/>
		</g>
		<g>
			<path class="st5" d="M268.3,302.6h6.4c1,0,1.8-0.8,1.8-1.8v-15.4c0-1-0.8-1.8-1.8-1.8h-6.4c-1,0-1.8,0.8-1.8,1.8v15.4
				C266.5,301.8,267.3,302.6,268.3,302.6z"/>
		</g>
		<g>
			<path class="st5" d="M286.3,342.7h6.4c1,0,1.8-0.8,1.8-1.8v-15.4c0-1-0.8-1.8-1.8-1.8h-6.4c-1,0-1.8,0.8-1.8,1.8v15.4
				C284.5,341.9,285.3,342.7,286.3,342.7z"/>
		</g>
		<g>
			<path class="st5" d="M268.3,342.7h6.4c1,0,1.8-0.8,1.8-1.8v-15.4c0-1-0.8-1.8-1.8-1.8h-6.4c-1,0-1.8,0.8-1.8,1.8v15.4
				C266.5,341.9,267.3,342.7,268.3,342.7z"/>
		</g>
		<g>
			<path class="st5" d="M304,381h6.4c1,0,1.8-0.8,1.8-1.8v-15.4c0-1-0.8-1.8-1.8-1.8H304c-1,0-1.8,0.8-1.8,1.8v15.4
				C302.3,380.2,303.1,381,304,381z"/>
		</g>
		<g>
			<path class="st5" d="M304,421h6.4c1,0,1.8-0.8,1.8-1.8v-15.4c0-1-0.8-1.8-1.8-1.8H304c-1,0-1.8,0.8-1.8,1.8v15.4
				C302.3,420.3,303.1,421,304,421z"/>
		</g>
		<g>
			<path class="st5" d="M286.3,381h6.4c1,0,1.8-0.8,1.8-1.8v-15.4c0-1-0.8-1.8-1.8-1.8h-6.4c-1,0-1.8,0.8-1.8,1.8v15.4
				C284.5,380.2,285.3,381,286.3,381z"/>
		</g>
		<g>
			<path class="st5" d="M268.3,381h6.4c1,0,1.8-0.8,1.8-1.8v-15.4c0-1-0.8-1.8-1.8-1.8h-6.4c-1,0-1.8,0.8-1.8,1.8v15.4
				C266.5,380.2,267.3,381,268.3,381z"/>
		</g>
		<g>
			<path class="st5" d="M286.3,421h6.4c1,0,1.8-0.8,1.8-1.8v-15.4c0-1-0.8-1.8-1.8-1.8h-6.4c-1,0-1.8,0.8-1.8,1.8v15.4
				C284.5,420.2,285.3,421,286.3,421z"/>
		</g>
		<g>
			<path class="st5" d="M268.3,421h6.4c1,0,1.8-0.8,1.8-1.8v-15.4c0-1-0.8-1.8-1.8-1.8h-6.4c-1,0-1.8,0.8-1.8,1.8v15.4
				C266.5,420.3,267.3,421,268.3,421z"/>
		</g>
		<path class="st5" d="M206.7,268.5h48.8c1.6,0,3.2-0.5,4.2-1.5l35-30.7c3.1-2.7,0.5-6.8-4.2-6.8h-48.8c-1.6,0-3.2,0.5-4.2,1.5
			l-35,30.7C199.3,264.4,201.9,268.5,206.7,268.5z"/>
		<path class="st2" d="M258.9,442.4h54c3.8,0,6.9-3.1,6.9-6.9v-8.3h-60.9V442.4z"/>
		<path class="st5" d="M258.9,442.4h-54c-3.8,0-6.9-3.1-6.9-6.9v-8.3h60.9V442.4z"/>
		<path class="st7" d="M241.9,247.6h18.8c0.6,0,1-0.5,1-1v-24h-20.8v24C240.9,247.2,241.4,247.6,241.9,247.6z"/>
		<path class="st2" d="M242,247.6h9.4v-25h-10.4v24C240.9,247.2,241.4,247.6,242,247.6z"/>
		<path class="st7" d="M237.9,225.8h26.9c0.4,0,0.8-0.4,0.8-0.8v-4.8c0-0.4-0.4-0.8-0.8-0.8h-26.9c-0.4,0-0.8,0.4-0.8,0.8v4.8
			C237.1,225.4,237.4,225.8,237.9,225.8z"/>
		<path class="st2" d="M237.9,225.8h13.4v-6.4h-13.4c-0.5,0-0.8,0.4-0.8,0.8v4.7C237.1,225.4,237.4,225.8,237.9,225.8z"/>
	</g>
	<g>
		<path class="st4" d="M351.9,432h40.2c2.3,0,4.2-3,4.2-6.7V309.5c0-2.1-0.6-4-1.7-5.3l-16.5-20.1c-1.4-1.7-3.4-1.8-4.9-0.3
			l-21.3,22.4V432z"/>
		<path class="st2" d="M312.6,436.4h39.3V306.9h-37.1c-4.1,0-7.3,3.3-7.3,7.3v117C307.5,434.1,309.8,436.4,312.6,436.4z"/>
		<g>
			<path class="st5" d="M340.9,334.4h3.7c1,0,1.8-0.8,1.8-1.8v-10.3c0-1-0.8-1.8-1.8-1.8h-3.7c-1,0-1.8,0.8-1.8,1.8v10.3
				C339.1,333.6,339.9,334.4,340.9,334.4z"/>
		</g>
		<g>
			<path class="st5" d="M340.9,363.6h3.7c1,0,1.8-0.8,1.8-1.8v-10.3c0-1-0.8-1.8-1.8-1.8h-3.7c-1,0-1.8,0.8-1.8,1.8v10.3
				C339.1,362.8,339.9,363.6,340.9,363.6z"/>
		</g>
		<g>
			<path class="st5" d="M327.9,334.4h3.7c1,0,1.8-0.8,1.8-1.8v-10.3c0-1-0.8-1.8-1.8-1.8h-3.7c-1,0-1.8,0.8-1.8,1.8v10.3
				C326.1,333.6,326.9,334.4,327.9,334.4z"/>
		</g>
		<g>
			<path class="st5" d="M314.8,334.4h3.7c1,0,1.8-0.8,1.8-1.8v-10.3c0-1-0.8-1.8-1.8-1.8h-3.7c-1,0-1.8,0.8-1.8,1.8v10.3
				C313,333.6,313.8,334.4,314.8,334.4z"/>
		</g>
		<g>
			<path class="st5" d="M327.9,363.6h3.7c1,0,1.8-0.8,1.8-1.8v-10.3c0-1-0.8-1.8-1.8-1.8h-3.7c-1,0-1.8,0.8-1.8,1.8v10.3
				C326.1,362.8,326.9,363.6,327.9,363.6z"/>
		</g>
		<g>
			<path class="st5" d="M314.8,363.6h3.7c1,0,1.8-0.8,1.8-1.8v-10.3c0-1-0.8-1.8-1.8-1.8h-3.7c-1,0-1.8,0.8-1.8,1.8v10.3
				C313,362.8,313.8,363.6,314.8,363.6z"/>
		</g>
		<g>
			<path class="st5" d="M340.9,391.6h3.7c1,0,1.8-0.8,1.8-1.8v-10.3c0-1-0.8-1.8-1.8-1.8h-3.7c-1,0-1.8,0.8-1.8,1.8v10.3
				C339.1,390.8,339.9,391.6,340.9,391.6z"/>
		</g>
		<g>
			<path class="st5" d="M340.9,420.8h3.7c1,0,1.8-0.8,1.8-1.8v-10.3c0-1-0.8-1.8-1.8-1.8h-3.7c-1,0-1.8,0.8-1.8,1.8v10.3
				C339.1,420.1,339.9,420.8,340.9,420.8z"/>
		</g>
		<g>
			<path class="st5" d="M327.9,391.6h3.7c1,0,1.8-0.8,1.8-1.8v-10.3c0-1-0.8-1.8-1.8-1.8h-3.7c-1,0-1.8,0.8-1.8,1.8v10.3
				C326.1,390.8,326.9,391.6,327.9,391.6z"/>
		</g>
		<g>
			<path class="st5" d="M314.8,391.6h3.7c1,0,1.8-0.8,1.8-1.8v-10.3c0-1-0.8-1.8-1.8-1.8h-3.7c-1,0-1.8,0.8-1.8,1.8v10.3
				C313,390.8,313.8,391.6,314.8,391.6z"/>
		</g>
		<g>
			<path class="st5" d="M327.9,420.8h3.7c1,0,1.8-0.8,1.8-1.8v-10.3c0-1-0.8-1.8-1.8-1.8h-3.7c-1,0-1.8,0.8-1.8,1.8v10.3
				C326.1,420.1,326.9,420.8,327.9,420.8z"/>
		</g>
		<g>
			<path class="st5" d="M314.8,420.8h3.7c1,0,1.8-0.8,1.8-1.8v-10.3c0-1-0.8-1.8-1.8-1.8h-3.7c-1,0-1.8,0.8-1.8,1.8v10.3
				C313,420.1,313.8,420.8,314.8,420.8z"/>
		</g>
		<g>
			<path class="st5" d="M385.3,334.4h3.7c1,0,1.8-0.8,1.8-1.8v-10.3c0-1-0.8-1.8-1.8-1.8h-3.7c-1,0-1.8,0.8-1.8,1.8v10.3
				C383.6,333.6,384.3,334.4,385.3,334.4z"/>
		</g>
		<g>
			<path class="st5" d="M385.3,363.6h3.7c1,0,1.8-0.8,1.8-1.8v-10.3c0-1-0.8-1.8-1.8-1.8h-3.7c-1,0-1.8,0.8-1.8,1.8v10.3
				C383.6,362.8,384.3,363.6,385.3,363.6z"/>
		</g>
		<g>
			<path class="st5" d="M372.3,334.4h3.7c1,0,1.8-0.8,1.8-1.8v-10.3c0-1-0.8-1.8-1.8-1.8h-3.7c-1,0-1.8,0.8-1.8,1.8v10.3
				C370.6,333.6,371.4,334.4,372.3,334.4z"/>
		</g>
		<g>
			<path class="st5" d="M359.2,334.4h3.7c1,0,1.8-0.8,1.8-1.8v-10.3c0-1-0.8-1.8-1.8-1.8h-3.7c-1,0-1.8,0.8-1.8,1.8v10.3
				C357.4,333.6,358.2,334.4,359.2,334.4z"/>
		</g>
		<g>
			<path class="st5" d="M372.3,363.6h3.7c1,0,1.8-0.8,1.8-1.8v-10.3c0-1-0.8-1.8-1.8-1.8h-3.7c-1,0-1.8,0.8-1.8,1.8v10.3
				C370.6,362.8,371.4,363.6,372.3,363.6z"/>
		</g>
		<g>
			<path class="st5" d="M359.2,363.6h3.7c1,0,1.8-0.8,1.8-1.8v-10.3c0-1-0.8-1.8-1.8-1.8h-3.7c-1,0-1.8,0.8-1.8,1.8v10.3
				C357.4,362.8,358.2,363.6,359.2,363.6z"/>
		</g>
		<g>
			<path class="st5" d="M385.3,391.6h3.7c1,0,1.8-0.8,1.8-1.8v-10.3c0-1-0.8-1.8-1.8-1.8h-3.7c-1,0-1.8,0.8-1.8,1.8v10.3
				C383.6,390.8,384.3,391.6,385.3,391.6z"/>
		</g>
		<g>
			<path class="st5" d="M385.3,420.8h3.7c1,0,1.8-0.8,1.8-1.8v-10.3c0-1-0.8-1.8-1.8-1.8h-3.7c-1,0-1.8,0.8-1.8,1.8v10.3
				C383.6,420.1,384.3,420.8,385.3,420.8z"/>
		</g>
		<g>
			<path class="st5" d="M372.3,391.6h3.7c1,0,1.8-0.8,1.8-1.8v-10.3c0-1-0.8-1.8-1.8-1.8h-3.7c-1,0-1.8,0.8-1.8,1.8v10.3
				C370.6,390.8,371.4,391.6,372.3,391.6z"/>
		</g>
		<g>
			<path class="st5" d="M359.2,391.6h3.7c1,0,1.8-0.8,1.8-1.8v-10.3c0-1-0.8-1.8-1.8-1.8h-3.7c-1,0-1.8,0.8-1.8,1.8v10.3
				C357.4,390.8,358.2,391.6,359.2,391.6z"/>
		</g>
		<g>
			<path class="st5" d="M372.3,420.8h3.7c1,0,1.8-0.8,1.8-1.8v-10.3c0-1-0.8-1.8-1.8-1.8h-3.7c-1,0-1.8,0.8-1.8,1.8v10.3
				C370.6,420.1,371.4,420.8,372.3,420.8z"/>
		</g>
		<g>
			<path class="st5" d="M359.2,420.8h3.7c1,0,1.8-0.8,1.8-1.8v-10.3c0-1-0.8-1.8-1.8-1.8h-3.7c-1,0-1.8,0.8-1.8,1.8v10.3
				C357.4,420.1,358.2,420.8,359.2,420.8z"/>
		</g>
		<path class="st8" d="M313.7,309.5h35.6c1.2,0,2.3-0.4,3.1-1.1l25.5-22.4c2.2-2,0.4-5-3.1-5h-35.6c-1.2,0-2.3,0.4-3.1,1.1
			l-25.5,22.4C308.4,306.5,310.3,309.5,313.7,309.5z"/>
		<path class="st2" d="M351.9,436.4h40.3c2.3,0,4.2-1.9,4.2-4.2v-6.9h-44.4V436.4z"/>
		<path class="st5" d="M351.9,436.4h-39.7c-2.6,0-4.7-2.1-4.7-4.7v-6.4h44.4V436.4z"/>
		<path class="st4" d="M339.8,294.3H353c0.6,0,1-0.5,1-1V276h-15.2v17.3C338.8,293.8,339.2,294.3,339.8,294.3z"/>
		<path class="st2" d="M339.8,294.3h6.5V276h-7.6v17.2C338.8,293.8,339.2,294.3,339.8,294.3z"/>
		<path class="st4" d="M336.7,278.3h19.2c0.4,0,0.8-0.4,0.8-0.8v-3.1c0-0.4-0.4-0.8-0.8-0.8h-19.2c-0.4,0-0.8,0.4-0.8,0.8v3.1
			C336,278,336.3,278.3,336.7,278.3z"/>
		<path class="st2" d="M336.8,278.3h9.5v-4.7h-9.5c-0.5,0-0.8,0.4-0.8,0.8v3C336,277.9,336.3,278.3,336.8,278.3z"/>
	</g>
	<g>
		<path class="st2" d="M1018.6,461.2h-29.4v-396h29.4c1.5,0,2.6,1.2,2.6,2.6v390.7C1021.2,460,1020,461.2,1018.6,461.2z"/>
		<path class="st7" d="M979.4,53.6l-7.9-9.7c-0.8-1-2.3-0.9-3.1,0.1l-7.9,9.6l-9,11c-0.3,0.4-0.5,0.9-0.5,1.4v393
			c0,1.2,1,2.2,2.2,2.2h35.8V66c0-0.5-0.2-1-0.5-1.4L979.4,53.6z"/>
		<g>
			<path class="st5" d="M966.3,96.5h-5.6c-1,0-1.8-0.8-1.8-1.8V80.8c0-1,0.8-1.8,1.8-1.8h5.6c1,0,1.8,0.8,1.8,1.8v13.9
				C968.1,95.7,967.3,96.5,966.3,96.5z"/>
		</g>
		<g>
			<path class="st5" d="M982.9,96.5h-5.6c-1,0-1.8-0.8-1.8-1.8V80.8c0-1,0.8-1.8,1.8-1.8h5.6c1,0,1.8,0.8,1.8,1.8v13.9
				C984.7,95.7,983.9,96.5,982.9,96.5z"/>
		</g>
		<g>
			<path class="st5" d="M966.3,133.5h-5.6c-1,0-1.8-0.8-1.8-1.8v-13.9c0-1,0.8-1.8,1.8-1.8h5.6c1,0,1.8,0.8,1.8,1.8v13.9
				C968.1,132.7,967.3,133.5,966.3,133.5z"/>
		</g>
		<g>
			<path class="st5" d="M982.9,133.5h-5.6c-1,0-1.8-0.8-1.8-1.8v-13.9c0-1,0.8-1.8,1.8-1.8h5.6c1,0,1.8,0.8,1.8,1.8v13.9
				C984.7,132.7,983.9,133.5,982.9,133.5z"/>
		</g>
		<g>
			<path class="st5" d="M966.3,169.5h-5.6c-1,0-1.8-0.8-1.8-1.8v-13.9c0-1,0.8-1.8,1.8-1.8h5.6c1,0,1.8,0.8,1.8,1.8v13.9
				C968.1,168.7,967.3,169.5,966.3,169.5z"/>
		</g>
		<g>
			<path class="st5" d="M982.9,169.4h-5.6c-1,0-1.8-0.8-1.8-1.8v-13.9c0-1,0.8-1.8,1.8-1.8h5.6c1,0,1.8,0.8,1.8,1.8v13.9
				C984.7,168.6,983.9,169.4,982.9,169.4z"/>
		</g>
		<g>
			<path class="st5" d="M966.3,206.4h-5.6c-1,0-1.8-0.8-1.8-1.8v-13.9c0-1,0.8-1.8,1.8-1.8h5.6c1,0,1.8,0.8,1.8,1.8v13.9
				C968.1,205.6,967.3,206.4,966.3,206.4z"/>
		</g>
		<g>
			<path class="st5" d="M982.9,206.3h-5.6c-1,0-1.8-0.8-1.8-1.8v-13.9c0-1,0.8-1.8,1.8-1.8h5.6c1,0,1.8,0.8,1.8,1.8v13.9
				C984.7,205.5,983.9,206.3,982.9,206.3z"/>
		</g>
		<g>
			<path class="st5" d="M966.3,243.1h-5.5c-1,0-1.8-0.8-1.8-1.8v-13.5c0-1,0.8-1.8,1.8-1.8h5.5c1,0,1.8,0.8,1.8,1.8v13.5
				C968.1,242.3,967.3,243.1,966.3,243.1z"/>
		</g>
		<g>
			<path class="st5" d="M982.9,243.4h-5.6c-1,0-1.8-0.8-1.8-1.8v-13.9c0-1,0.8-1.8,1.8-1.8h5.6c1,0,1.8,0.8,1.8,1.8v13.9
				C984.7,242.7,983.9,243.4,982.9,243.4z"/>
		</g>
		<g>
			<path class="st5" d="M966.3,281h-5.5c-1,0-1.8-0.8-1.8-1.8v-13.5c0-1,0.8-1.8,1.8-1.8h5.5c1,0,1.8,0.8,1.8,1.8v13.5
				C968.1,280.2,967.3,281,966.3,281z"/>
		</g>
		<g>
			<path class="st5" d="M982.9,281.4h-5.6c-1,0-1.8-0.8-1.8-1.8v-13.9c0-1,0.8-1.8,1.8-1.8h5.6c1,0,1.8,0.8,1.8,1.8v13.9
				C984.7,280.6,983.9,281.4,982.9,281.4z"/>
		</g>
		<g>
			<path class="st5" d="M966.3,319.5h-5.6c-1,0-1.8-0.8-1.8-1.8v-13.9c0-1,0.8-1.8,1.8-1.8h5.6c1,0,1.8,0.8,1.8,1.8v13.9
				C968.1,318.7,967.3,319.5,966.3,319.5z"/>
		</g>
		<g>
			<path class="st5" d="M982.9,319h-5.5c-1,0-1.8-0.8-1.8-1.8v-13.5c0-1,0.8-1.8,1.8-1.8h5.5c1,0,1.8,0.8,1.8,1.8v13.5
				C984.7,318.2,983.9,319,982.9,319z"/>
		</g>
		<g>
			<path class="st5" d="M966.3,357.5h-5.6c-1,0-1.8-0.8-1.8-1.8v-13.9c0-1,0.8-1.8,1.8-1.8h5.6c1,0,1.8,0.8,1.8,1.8v13.9
				C968.1,356.7,967.3,357.5,966.3,357.5z"/>
		</g>
		<g>
			<path class="st5" d="M982.9,356.9h-5.5c-1,0-1.8-0.8-1.8-1.8v-13.5c0-1,0.8-1.8,1.8-1.8h5.5c1,0,1.8,0.8,1.8,1.8v13.5
				C984.7,356.1,983.9,356.9,982.9,356.9z"/>
		</g>
		<g>
			<path class="st5" d="M966.3,393.7h-5.6c-1,0-1.8-0.8-1.8-1.8V378c0-1,0.8-1.8,1.8-1.8h5.6c1,0,1.8,0.8,1.8,1.8V392
				C968.1,392.9,967.3,393.7,966.3,393.7z"/>
		</g>
		<g>
			<path class="st5" d="M982.9,394.2h-5.5c-1,0-1.8-0.8-1.8-1.8v-14.5c0-1,0.8-1.8,1.8-1.8h5.5c1,0,1.8,0.8,1.8,1.8v14.5
				C984.7,393.4,983.9,394.2,982.9,394.2z"/>
		</g>
		<g>
			<path class="st5" d="M966.3,430.7h-5.6c-1,0-1.8-0.8-1.8-1.8V415c0-1,0.8-1.8,1.8-1.8h5.6c1,0,1.8,0.8,1.8,1.8v13.9
				C968.1,429.9,967.3,430.7,966.3,430.7z"/>
		</g>
		<g>
			<path class="st5" d="M982.9,430.6h-5.6c-1,0-1.8-0.8-1.8-1.8v-13.9c0-1,0.8-1.8,1.8-1.8h5.6c1,0,1.8,0.8,1.8,1.8v13.9
				C984.7,429.8,983.9,430.6,982.9,430.6z"/>
		</g>
		<g>
			<path class="st5" d="M999.3,96.5h-5.6c-1,0-1.8-0.8-1.8-1.8V80.8c0-1,0.8-1.8,1.8-1.8h5.6c1,0,1.8,0.8,1.8,1.8v13.9
				C1001.1,95.7,1000.3,96.5,999.3,96.5z"/>
		</g>
		<g>
			<path class="st5" d="M1015.9,96.5h-5.6c-1,0-1.8-0.8-1.8-1.8V80.8c0-1,0.8-1.8,1.8-1.8h5.6c1,0,1.8,0.8,1.8,1.8v13.9
				C1017.7,95.7,1016.9,96.5,1015.9,96.5z"/>
		</g>
		<g>
			<path class="st5" d="M999.3,133.5h-5.6c-1,0-1.8-0.8-1.8-1.8v-13.9c0-1,0.8-1.8,1.8-1.8h5.6c1,0,1.8,0.8,1.8,1.8v13.9
				C1001.1,132.7,1000.3,133.5,999.3,133.5z"/>
		</g>
		<g>
			<path class="st5" d="M1015.9,133.5h-5.6c-1,0-1.8-0.8-1.8-1.8v-13.9c0-1,0.8-1.8,1.8-1.8h5.6c1,0,1.8,0.8,1.8,1.8v13.9
				C1017.7,132.7,1016.9,133.5,1015.9,133.5z"/>
		</g>
		<g>
			<path class="st5" d="M999.3,169.5h-5.6c-1,0-1.8-0.8-1.8-1.8v-13.9c0-1,0.8-1.8,1.8-1.8h5.6c1,0,1.8,0.8,1.8,1.8v13.9
				C1001.1,168.7,1000.3,169.5,999.3,169.5z"/>
		</g>
		<g>
			<path class="st5" d="M1015.9,169.4h-5.6c-1,0-1.8-0.8-1.8-1.8v-13.9c0-1,0.8-1.8,1.8-1.8h5.6c1,0,1.8,0.8,1.8,1.8v13.9
				C1017.7,168.6,1016.9,169.4,1015.9,169.4z"/>
		</g>
		<g>
			<path class="st5" d="M999.3,206.4h-5.6c-1,0-1.8-0.8-1.8-1.8v-13.9c0-1,0.8-1.8,1.8-1.8h5.6c1,0,1.8,0.8,1.8,1.8v13.9
				C1001.1,205.6,1000.3,206.4,999.3,206.4z"/>
		</g>
		<g>
			<path class="st5" d="M1015.9,206.3h-5.6c-1,0-1.8-0.8-1.8-1.8v-13.9c0-1,0.8-1.8,1.8-1.8h5.6c1,0,1.8,0.8,1.8,1.8v13.9
				C1017.7,205.5,1016.9,206.3,1015.9,206.3z"/>
		</g>
		<g>
			<path class="st5" d="M999.3,243.1h-5.5c-1,0-1.8-0.8-1.8-1.8v-13.5c0-1,0.8-1.8,1.8-1.8h5.5c1,0,1.8,0.8,1.8,1.8v13.5
				C1001.1,242.3,1000.3,243.1,999.3,243.1z"/>
		</g>
		<g>
			<path class="st5" d="M1015.9,243.4h-5.6c-1,0-1.8-0.8-1.8-1.8v-13.9c0-1,0.8-1.8,1.8-1.8h5.6c1,0,1.8,0.8,1.8,1.8v13.9
				C1017.7,242.7,1016.9,243.4,1015.9,243.4z"/>
		</g>
		<g>
			<path class="st5" d="M999.3,281h-5.5c-1,0-1.8-0.8-1.8-1.8v-13.5c0-1,0.8-1.8,1.8-1.8h5.5c1,0,1.8,0.8,1.8,1.8v13.5
				C1001.1,280.2,1000.3,281,999.3,281z"/>
		</g>
		<g>
			<path class="st5" d="M1015.9,281.4h-5.6c-1,0-1.8-0.8-1.8-1.8v-13.9c0-1,0.8-1.8,1.8-1.8h5.6c1,0,1.8,0.8,1.8,1.8v13.9
				C1017.7,280.6,1016.9,281.4,1015.9,281.4z"/>
		</g>
		<g>
			<path class="st5" d="M999.3,319.5h-5.6c-1,0-1.8-0.8-1.8-1.8v-13.9c0-1,0.8-1.8,1.8-1.8h5.6c1,0,1.8,0.8,1.8,1.8v13.9
				C1001.1,318.7,1000.3,319.5,999.3,319.5z"/>
		</g>
		<g>
			<path class="st5" d="M1015.9,319h-5.5c-1,0-1.8-0.8-1.8-1.8v-13.5c0-1,0.8-1.8,1.8-1.8h5.5c1,0,1.8,0.8,1.8,1.8v13.5
				C1017.7,318.2,1016.9,319,1015.9,319z"/>
		</g>
		<g>
			<path class="st5" d="M999.3,357.5h-5.6c-1,0-1.8-0.8-1.8-1.8v-13.9c0-1,0.8-1.8,1.8-1.8h5.6c1,0,1.8,0.8,1.8,1.8v13.9
				C1001.1,356.7,1000.3,357.5,999.3,357.5z"/>
		</g>
		<g>
			<path class="st5" d="M1015.9,356.9h-5.5c-1,0-1.8-0.8-1.8-1.8v-13.5c0-1,0.8-1.8,1.8-1.8h5.5c1,0,1.8,0.8,1.8,1.8v13.5
				C1017.7,356.1,1016.9,356.9,1015.9,356.9z"/>
		</g>
		<g>
			<path class="st5" d="M999.3,393.7h-5.6c-1,0-1.8-0.8-1.8-1.8V378c0-1,0.8-1.8,1.8-1.8h5.6c1,0,1.8,0.8,1.8,1.8V392
				C1001.1,392.9,1000.3,393.7,999.3,393.7z"/>
		</g>
		<g>
			<path class="st5" d="M1015.9,394.2h-5.5c-1,0-1.8-0.8-1.8-1.8v-14.5c0-1,0.8-1.8,1.8-1.8h5.5c1,0,1.8,0.8,1.8,1.8v14.5
				C1017.7,393.4,1016.9,394.2,1015.9,394.2z"/>
		</g>
		<g>
			<path class="st5" d="M999.3,430.7h-5.6c-1,0-1.8-0.8-1.8-1.8V415c0-1,0.8-1.8,1.8-1.8h5.6c1,0,1.8,0.8,1.8,1.8v13.9
				C1001.1,429.9,1000.3,430.7,999.3,430.7z"/>
		</g>
		<g>
			<path class="st5" d="M1015.9,430.6h-5.6c-1,0-1.8-0.8-1.8-1.8v-13.9c0-1,0.8-1.8,1.8-1.8h5.6c1,0,1.8,0.8,1.8,1.8v13.9
				C1017.7,429.8,1016.9,430.6,1015.9,430.6z"/>
		</g>
		<path class="st6" d="M1017.7,69H991c-0.9,0-1.7-0.4-2.3-1l-19.2-21c-1.7-1.8-0.3-4.7,2.3-4.7h26.8c0.9,0,1.7,0.4,2.3,1l19.2,21
			C1021.7,66.2,1020.3,69,1017.7,69z"/>
		<path class="st2" d="M989.6,461.2h-36.2c-1.2,0-2.2-1-2.2-2.2v-12.6h38.4V461.2z"/>
		<path class="st5" d="M989.2,461.2h29.9c1.2,0,2.2-1,2.2-2.2v-12.6h-32V461.2z"/>
		<path class="st7" d="M996.3,50.6h-7.8c-0.6,0-1-0.5-1-1V38.8h9.9v10.9C997.3,50.2,996.9,50.6,996.3,50.6z"/>
		<path class="st2" d="M996.3,50.6h-3.9V38.8h4.9v10.8C997.3,50.2,996.9,50.6,996.3,50.6z"/>
		<path class="st7" d="M998.3,38.8h-11.9c-0.4,0-0.8-0.4-0.8-0.8v-1.5c0-0.4,0.4-0.8,0.8-0.8h11.9c0.4,0,0.8,0.4,0.8,0.8V38
			C999.1,38.4,998.8,38.8,998.3,38.8z"/>
		<path class="st2" d="M998.3,38.8h-5.9v-3h5.9c0.5,0,0.8,0.4,0.8,0.8v1.4C999.1,38.4,998.8,38.8,998.3,38.8z"/>
	</g>
</g>
<g id="trees">
	<g>
		<line class="st9" x1="36.4" y1="452.4" x2="35.2" y2="547.4"/>
		<circle class="st10" cx="26.7" cy="444.2" r="19.2"/>
		<circle class="st10" cx="47.8" cy="428.1" r="11.9"/>
		<circle class="st10" cx="23.5" cy="479.7" r="8.8"/>
		<circle class="st10" cx="55.9" cy="450.4" r="14.1"/>
		<line class="st9" x1="35.7" y1="493.7" x2="23.4" y2="481.1"/>
		<line class="st9" x1="38.1" y1="475.9" x2="55.6" y2="459.2"/>
	</g>
	<g>
		<line class="st9" x1="300" y1="444.4" x2="300" y2="539.4"/>
		<circle class="st10" cx="290.2" cy="437.4" r="19.2"/>
		<circle class="st10" cx="311.2" cy="420.9" r="11.9"/>
		<circle class="st10" cx="287.5" cy="471.9" r="8.8"/>
		<circle class="st10" cx="319.5" cy="442.2" r="14.1"/>
		<line class="st9" x1="299.8" y1="485.7" x2="287.4" y2="473.3"/>
		<line class="st9" x1="302" y1="467.9" x2="319.3" y2="451"/>
	</g>
	<g>
		<line class="st9" x1="450" y1="440.4" x2="450" y2="500.4"/>
		<line class="st9" x1="450" y1="452.7" x2="461.1" y2="442.8"/>
		<circle class="st10" cx="443.1" cy="434" r="12.7"/>
		<circle class="st10" cx="462.6" cy="437.2" r="9.4"/>
		<circle class="st10" cx="462.7" cy="456.8" r="5.9"/>
		<line class="st9" x1="450" y1="464.7" x2="460.2" y2="458.3"/>
	</g>
	<g>
		<line class="st9" x1="722" y1="439.4" x2="722" y2="499.4"/>
		<line class="st9" x1="722" y1="451.7" x2="733.1" y2="441.8"/>
		<circle class="st10" cx="715.1" cy="433" r="12.7"/>
		<circle class="st10" cx="734.6" cy="436.2" r="9.4"/>
		<circle class="st10" cx="734.7" cy="455.8" r="5.9"/>
		<line class="st9" x1="722" y1="463.7" x2="732.2" y2="457.3"/>
	</g>
	<g>
		<line class="st9" x1="952" y1="439.4" x2="952" y2="523.4"/>
		<circle class="st10" cx="943" cy="433.1" r="17"/>
		<circle class="st10" cx="961.5" cy="418.6" r="10.5"/>
		<circle class="st10" cx="940.6" cy="463.6" r="7.8"/>
		<circle class="st10" cx="968.9" cy="437.3" r="12.5"/>
		<line class="st9" x1="951.5" y1="475.9" x2="940.5" y2="464.9"/>
		<line class="st9" x1="953.4" y1="460.1" x2="968.7" y2="445.2"/>
	</g>
	<g>
		<line class="st9" x1="194" y1="434.4" x2="194" y2="494.4"/>
		<line class="st9" x1="194" y1="446.7" x2="205.1" y2="436.8"/>
		<circle class="st10" cx="187.1" cy="428" r="12.7"/>
		<circle class="st10" cx="206.6" cy="431.2" r="9.4"/>
		<circle class="st10" cx="206.7" cy="450.8" r="5.9"/>
		<line class="st9" x1="194" y1="458.7" x2="204.2" y2="452.3"/>
	</g>
</g>
</svg>
