<?xml version="1.0" encoding="utf-8"?>
<!-- Generator: Adobe Illustrator 19.1.0, SVG Export Plug-In . SVG Version: 6.00 Build 0)  -->
<svg version="1.1" id="Layer_1" xmlns="http://www.w3.org/2000/svg" xmlns:xlink="http://www.w3.org/1999/xlink" x="0px" y="0px"
	 viewBox="272 37 1024 571" style="enable-background:new 272 37 1024 571;" xml:space="preserve">
<style type="text/css">
	.st0{fill:#1C88A5;}
	.st1{display:none;}
	.st2{fill:#1B7989;}
	.st3{fill:none;stroke:#D89261;stroke-width:20;stroke-linecap:round;stroke-miterlimit:10;}
	.st4{fill:#84D3C9;}
	.st5{fill:#D89261;}
	.st6{fill:#18717A;}
	.st7{fill:#4ACCC2;}
	.st8{fill:#5B463B;}
	.st9{fill:none;stroke:#31AA9B;stroke-width:6;stroke-linecap:round;stroke-miterlimit:10;}
	.st10{fill:#31AA9B;}
</style>
<rect x="1039.5" y="79.6" class="st0" width="40.7" height="390.1"/>
<rect x="747.5" y="76.3" class="st0" width="100.1" height="390.1"/>
<g id="Layer_2" class="st1">
</g>
<g id="Layer_3">
	<rect x="272" y="459" class="st2" width="1024" height="149"/>
</g>
<g id="globen">
</g>
<g id="roads">
	<path class="st3" d="M984.8,468.8c0,31.9-30.2,57.7-67.5,57.7h-18.1c-0.8,0-1.5,0-2.3,0c-44,1.3-42.5,57.8,1.5,58l291.1-0.9
		c9.9,0,18-6.9,18-15.4V462.7"/>
	<path class="st3" d="M292.7,474.2l41.6,41.6c22.1,22.1,57.9,22.1,80,0l43.1-43.1"/>
</g>
<g id="houses_back">
</g>
<g>
	<path class="st0" d="M685.1,463.3h-39.4c-2.3,0-4.1-3-4.1-6.7V339.8c0-2.1,0.6-4.1,1.6-5.3l16.2-20.2c1.4-1.8,3.3-1.9,4.8-0.3
		l20.9,22.5V463.3z"/>
	<path class="st2" d="M721.3,463.3h-36.2V336.5h36.2c4.1,0,7.3,3.3,7.3,7.3v112.1C728.6,460,725.3,463.3,721.3,463.3z"/>
	<g>
		<path class="st4" d="M695.8,363.4h-3.6c-1,0-1.8-0.8-1.8-1.8v-10c0-1,0.8-1.8,1.8-1.8h3.6c1,0,1.8,0.8,1.8,1.8v10
			C697.6,362.6,696.8,363.4,695.8,363.4z"/>
	</g>
	<g>
		<path class="st4" d="M695.8,392h-3.6c-1,0-1.8-0.8-1.8-1.8v-10c0-1,0.8-1.8,1.8-1.8h3.6c1,0,1.8,0.8,1.8,1.8v10
			C697.6,391.2,696.8,392,695.8,392z"/>
	</g>
	<g>
		<path class="st4" d="M708.5,363.4H705c-1,0-1.8-0.8-1.8-1.8v-10c0-1,0.8-1.8,1.8-1.8h3.6c1,0,1.8,0.8,1.8,1.8v10
			C710.3,362.6,709.5,363.4,708.5,363.4z"/>
	</g>
	<g>
		<path class="st4" d="M721.4,363.4h-3.6c-1,0-1.8-0.8-1.8-1.8v-10c0-1,0.8-1.8,1.8-1.8h3.6c1,0,1.8,0.8,1.8,1.8v10
			C723.2,362.6,722.4,363.4,721.4,363.4z"/>
	</g>
	<g>
		<path class="st4" d="M708.5,392H705c-1,0-1.8-0.8-1.8-1.8v-10c0-1,0.8-1.8,1.8-1.8h3.6c1,0,1.8,0.8,1.8,1.8v10
			C710.3,391.2,709.5,392,708.5,392z"/>
	</g>
	<g>
		<path class="st4" d="M721.4,392h-3.6c-1,0-1.8-0.8-1.8-1.8v-10c0-1,0.8-1.8,1.8-1.8h3.6c1,0,1.8,0.8,1.8,1.8v10
			C723.2,391.2,722.4,392,721.4,392z"/>
	</g>
	<g>
		<path class="st4" d="M695.8,419.4h-3.6c-1,0-1.8-0.8-1.8-1.8v-10c0-1,0.8-1.8,1.8-1.8h3.6c1,0,1.8,0.8,1.8,1.8v10
			C697.6,418.6,696.8,419.4,695.8,419.4z"/>
	</g>
	<g>
		<path class="st4" d="M695.8,448.1h-3.6c-1,0-1.8-0.8-1.8-1.8v-10c0-1,0.8-1.8,1.8-1.8h3.6c1,0,1.8,0.8,1.8,1.8v10
			C697.6,447.3,696.8,448.1,695.8,448.1z"/>
	</g>
	<g>
		<path class="st4" d="M708.5,419.4H705c-1,0-1.8-0.8-1.8-1.8v-10c0-1,0.8-1.8,1.8-1.8h3.6c1,0,1.8,0.8,1.8,1.8v10
			C710.3,418.6,709.5,419.4,708.5,419.4z"/>
	</g>
	<g>
		<path class="st4" d="M721.4,419.4h-3.6c-1,0-1.8-0.8-1.8-1.8v-10c0-1,0.8-1.8,1.8-1.8h3.6c1,0,1.8,0.8,1.8,1.8v10
			C723.2,418.6,722.4,419.4,721.4,419.4z"/>
	</g>
	<g>
		<path class="st4" d="M708.5,448.1H705c-1,0-1.8-0.8-1.8-1.8v-10c0-1,0.8-1.8,1.8-1.8h3.6c1,0,1.8,0.8,1.8,1.8v10
			C710.3,447.3,709.5,448.1,708.5,448.1z"/>
	</g>
	<g>
		<path class="st4" d="M721.4,448.1h-3.6c-1,0-1.8-0.8-1.8-1.8v-10c0-1,0.8-1.8,1.8-1.8h3.6c1,0,1.8,0.8,1.8,1.8v10
			C723.2,447.3,722.4,448.1,721.4,448.1z"/>
	</g>
	<g>
		<path class="st4" d="M652.3,363.4h-3.6c-1,0-1.8-0.8-1.8-1.8v-10c0-1,0.8-1.8,1.8-1.8h3.6c1,0,1.8,0.8,1.8,1.8v10
			C654.1,362.6,653.3,363.4,652.3,363.4z"/>
	</g>
	<g>
		<path class="st4" d="M652.3,392h-3.6c-1,0-1.8-0.8-1.8-1.8v-10c0-1,0.8-1.8,1.8-1.8h3.6c1,0,1.8,0.8,1.8,1.8v10
			C654.1,391.2,653.3,392,652.3,392z"/>
	</g>
	<g>
		<path class="st4" d="M665,363.4h-3.6c-1,0-1.8-0.8-1.8-1.8v-10c0-1,0.8-1.8,1.8-1.8h3.6c1,0,1.8,0.8,1.8,1.8v10
			C666.8,362.6,666,363.4,665,363.4z"/>
	</g>
	<g>
		<path class="st4" d="M677.9,363.4h-3.6c-1,0-1.8-0.8-1.8-1.8v-10c0-1,0.8-1.8,1.8-1.8h3.6c1,0,1.8,0.8,1.8,1.8v10
			C679.6,362.6,678.9,363.4,677.9,363.4z"/>
	</g>
	<g>
		<path class="st4" d="M665,392h-3.6c-1,0-1.8-0.8-1.8-1.8v-10c0-1,0.8-1.8,1.8-1.8h3.6c1,0,1.8,0.8,1.8,1.8v10
			C666.8,391.2,666,392,665,392z"/>
	</g>
	<g>
		<path class="st4" d="M677.9,392h-3.6c-1,0-1.8-0.8-1.8-1.8v-10c0-1,0.8-1.8,1.8-1.8h3.6c1,0,1.8,0.8,1.8,1.8v10
			C679.6,391.2,678.9,392,677.9,392z"/>
	</g>
	<g>
		<path class="st4" d="M652.3,419.4h-3.6c-1,0-1.8-0.8-1.8-1.8v-10c0-1,0.8-1.8,1.8-1.8h3.6c1,0,1.8,0.8,1.8,1.8v10
			C654.1,418.6,653.3,419.4,652.3,419.4z"/>
	</g>
	<g>
		<path class="st4" d="M652.3,448.1h-3.6c-1,0-1.8-0.8-1.8-1.8v-10c0-1,0.8-1.8,1.8-1.8h3.6c1,0,1.8,0.8,1.8,1.8v10
			C654.1,447.3,653.3,448.1,652.3,448.1z"/>
	</g>
	<g>
		<path class="st4" d="M665,419.4h-3.6c-1,0-1.8-0.8-1.8-1.8v-10c0-1,0.8-1.8,1.8-1.8h3.6c1,0,1.8,0.8,1.8,1.8v10
			C666.8,418.6,666,419.4,665,419.4z"/>
	</g>
	<g>
		<path class="st4" d="M677.9,419.4h-3.6c-1,0-1.8-0.8-1.8-1.8v-10c0-1,0.8-1.8,1.8-1.8h3.6c1,0,1.8,0.8,1.8,1.8v10
			C679.6,418.6,678.9,419.4,677.9,419.4z"/>
	</g>
	<g>
		<path class="st4" d="M665,448.1h-3.6c-1,0-1.8-0.8-1.8-1.8v-10c0-1,0.8-1.8,1.8-1.8h3.6c1,0,1.8,0.8,1.8,1.8v10
			C666.8,447.3,666,448.1,665,448.1z"/>
	</g>
	<g>
		<path class="st4" d="M677.9,448.1h-3.6c-1,0-1.8-0.8-1.8-1.8v-10c0-1,0.8-1.8,1.8-1.8h3.6c1,0,1.8,0.8,1.8,1.8v10
			C679.6,447.3,678.9,448.1,677.9,448.1z"/>
	</g>
	<path class="st5" d="M722.4,339h-34.9c-1.2,0-2.3-0.4-3-1l-25-21.9c-2.2-1.9-0.4-4.9,3-4.9h34.9c1.2,0,2.3,0.4,3,1l25,21.9
		C727.7,336.1,725.8,339,722.4,339z"/>
	<path class="st2" d="M685.1,463.3h-36.6c-3.8,0-6.9-3.1-6.9-6.9v-4h43.5V463.3z"/>
	<path class="st6" d="M685.1,463.3h36.6c3.8,0,6.9-3.1,6.9-6.9v-4h-43.5V463.3L685.1,463.3z"/>
	<path class="st0" d="M696.9,324.1H684c-0.6,0-1-0.5-1-1v-16.9h14.9v16.9C697.9,323.6,697.5,324.1,696.9,324.1z"/>
	<path class="st2" d="M696.9,324.1h-6.4v-17.9h7.4V323C697.9,323.6,697.5,324.1,696.9,324.1z"/>
	<path class="st0" d="M699.9,308.5h-18.8c-0.4,0-0.8-0.4-0.8-0.8v-3c0-0.4,0.4-0.8,0.8-0.8h18.8c0.4,0,0.8,0.4,0.8,0.8v3
		C700.7,308.1,700.3,308.5,699.9,308.5z"/>
	<path class="st2" d="M699.9,308.5h-9.3v-4.6h9.3c0.5,0,0.8,0.4,0.8,0.8v2.9C700.7,308.1,700.3,308.5,699.9,308.5z"/>
</g>
<g>
	<path class="st7" d="M1204.9,462h-38.3c-2.2,0-4-2.9-4-6.5V343.1c0-2,0.6-3.9,1.6-5.1l15.8-19.5c1.4-1.7,3.2-1.8,4.7-0.3l20.3,21.7
		L1204.9,462L1204.9,462z"/>
	<path class="st2" d="M1242.1,463.5h-37.2V340.1h35c4.1,0,7.3,3.3,7.3,7.3v110.9C1247.2,461.2,1244.9,463.5,1242.1,463.5z"/>
	<g>
		<path class="st4" d="M1215.3,366.3h-3.4c-1,0-1.8-0.8-1.8-1.8v-9.6c0-1,0.8-1.8,1.8-1.8h3.4c1,0,1.8,0.8,1.8,1.8v9.6
			C1217.1,365.5,1216.3,366.3,1215.3,366.3z"/>
	</g>
	<g>
		<path class="st4" d="M1215.3,394.1h-3.4c-1,0-1.8-0.8-1.8-1.8v-9.6c0-1,0.8-1.8,1.8-1.8h3.4c1,0,1.8,0.8,1.8,1.8v9.6
			C1217.1,393.4,1216.3,394.1,1215.3,394.1z"/>
	</g>
	<g>
		<path class="st4" d="M1227.7,366.3h-3.4c-1,0-1.8-0.8-1.8-1.8v-9.6c0-1,0.8-1.8,1.8-1.8h3.4c1,0,1.8,0.8,1.8,1.8v9.6
			C1229.4,365.5,1228.6,366.3,1227.7,366.3z"/>
	</g>
	<g>
		<path class="st4" d="M1240.2,366.3h-3.4c-1,0-1.8-0.8-1.8-1.8v-9.6c0-1,0.8-1.8,1.8-1.8h3.4c1,0,1.8,0.8,1.8,1.8v9.6
			C1241.9,365.5,1241.1,366.3,1240.2,366.3z"/>
	</g>
	<g>
		<path class="st4" d="M1227.7,394.1h-3.4c-1,0-1.8-0.8-1.8-1.8v-9.6c0-1,0.8-1.8,1.8-1.8h3.4c1,0,1.8,0.8,1.8,1.8v9.6
			C1229.4,393.3,1228.6,394.1,1227.7,394.1z"/>
	</g>
	<g>
		<path class="st4" d="M1240.2,394.1h-3.4c-1,0-1.8-0.8-1.8-1.8v-9.6c0-1,0.8-1.8,1.8-1.8h3.4c1,0,1.8,0.8,1.8,1.8v9.6
			C1241.9,393.4,1241.1,394.1,1240.2,394.1z"/>
	</g>
	<g>
		<path class="st4" d="M1215.3,420.8h-3.4c-1,0-1.8-0.8-1.8-1.8v-9.6c0-1,0.8-1.8,1.8-1.8h3.4c1,0,1.8,0.8,1.8,1.8v9.6
			C1217.1,420,1216.3,420.8,1215.3,420.8z"/>
	</g>
	<g>
		<path class="st4" d="M1215.3,448.7h-3.4c-1,0-1.8-0.8-1.8-1.8v-9.6c0-1,0.8-1.8,1.8-1.8h3.4c1,0,1.8,0.8,1.8,1.8v9.6
			C1217.1,447.9,1216.3,448.7,1215.3,448.7z"/>
	</g>
	<g>
		<path class="st4" d="M1227.7,420.8h-3.4c-1,0-1.8-0.8-1.8-1.8v-9.6c0-1,0.8-1.8,1.8-1.8h3.4c1,0,1.8,0.8,1.8,1.8v9.6
			C1229.4,420,1228.6,420.8,1227.7,420.8z"/>
	</g>
	<g>
		<path class="st4" d="M1240.2,420.8h-3.4c-1,0-1.8-0.8-1.8-1.8v-9.6c0-1,0.8-1.8,1.8-1.8h3.4c1,0,1.8,0.8,1.8,1.8v9.6
			C1241.9,420,1241.1,420.8,1240.2,420.8z"/>
	</g>
	<g>
		<path class="st4" d="M1227.7,448.7h-3.4c-1,0-1.8-0.8-1.8-1.8v-9.6c0-1,0.8-1.8,1.8-1.8h3.4c1,0,1.8,0.8,1.8,1.8v9.6
			C1229.4,447.9,1228.6,448.7,1227.7,448.7z"/>
	</g>
	<g>
		<path class="st4" d="M1240.2,448.7h-3.4c-1,0-1.8-0.8-1.8-1.8v-9.6c0-1,0.8-1.8,1.8-1.8h3.4c1,0,1.8,0.8,1.8,1.8v9.6
			C1241.9,447.9,1241.1,448.7,1240.2,448.7z"/>
	</g>
	<g>
		<path class="st4" d="M1172.9,366.3h-3.4c-1,0-1.8-0.8-1.8-1.8v-9.6c0-1,0.8-1.8,1.8-1.8h3.4c1,0,1.8,0.8,1.8,1.8v9.6
			C1174.7,365.5,1173.9,366.3,1172.9,366.3z"/>
	</g>
	<g>
		<path class="st4" d="M1172.9,394.1h-3.4c-1,0-1.8-0.8-1.8-1.8v-9.6c0-1,0.8-1.8,1.8-1.8h3.4c1,0,1.8,0.8,1.8,1.8v9.6
			C1174.7,393.4,1173.9,394.1,1172.9,394.1z"/>
	</g>
	<g>
		<path class="st4" d="M1185.3,366.3h-3.4c-1,0-1.8-0.8-1.8-1.8v-9.6c0-1,0.8-1.8,1.8-1.8h3.4c1,0,1.8,0.8,1.8,1.8v9.6
			C1187.1,365.5,1186.3,366.3,1185.3,366.3z"/>
	</g>
	<g>
		<path class="st4" d="M1197.8,366.3h-3.4c-1,0-1.8-0.8-1.8-1.8v-9.6c0-1,0.8-1.8,1.8-1.8h3.4c1,0,1.8,0.8,1.8,1.8v9.6
			C1199.6,365.5,1198.8,366.3,1197.8,366.3z"/>
	</g>
	<g>
		<path class="st4" d="M1185.3,394.1h-3.4c-1,0-1.8-0.8-1.8-1.8v-9.6c0-1,0.8-1.8,1.8-1.8h3.4c1,0,1.8,0.8,1.8,1.8v9.6
			C1187.1,393.3,1186.3,394.1,1185.3,394.1z"/>
	</g>
	<g>
		<path class="st4" d="M1197.8,394.1h-3.4c-1,0-1.8-0.8-1.8-1.8v-9.6c0-1,0.8-1.8,1.8-1.8h3.4c1,0,1.8,0.8,1.8,1.8v9.6
			C1199.6,393.4,1198.8,394.1,1197.8,394.1z"/>
	</g>
	<g>
		<path class="st4" d="M1172.9,420.8h-3.4c-1,0-1.8-0.8-1.8-1.8v-9.6c0-1,0.8-1.8,1.8-1.8h3.4c1,0,1.8,0.8,1.8,1.8v9.6
			C1174.7,420,1173.9,420.8,1172.9,420.8z"/>
	</g>
	<g>
		<path class="st4" d="M1172.9,448.7h-3.4c-1,0-1.8-0.8-1.8-1.8v-9.6c0-1,0.8-1.8,1.8-1.8h3.4c1,0,1.8,0.8,1.8,1.8v9.6
			C1174.7,447.9,1173.9,448.7,1172.9,448.7z"/>
	</g>
	<g>
		<path class="st4" d="M1185.3,420.8h-3.4c-1,0-1.8-0.8-1.8-1.8v-9.6c0-1,0.8-1.8,1.8-1.8h3.4c1,0,1.8,0.8,1.8,1.8v9.6
			C1187.1,420,1186.3,420.8,1185.3,420.8z"/>
	</g>
	<g>
		<path class="st4" d="M1197.8,420.8h-3.4c-1,0-1.8-0.8-1.8-1.8v-9.6c0-1,0.8-1.8,1.8-1.8h3.4c1,0,1.8,0.8,1.8,1.8v9.6
			C1199.6,420,1198.8,420.8,1197.8,420.8z"/>
	</g>
	<g>
		<path class="st4" d="M1185.3,448.7h-3.4c-1,0-1.8-0.8-1.8-1.8v-9.6c0-1,0.8-1.8,1.8-1.8h3.4c1,0,1.8,0.8,1.8,1.8v9.6
			C1187.1,447.9,1186.3,448.7,1185.3,448.7z"/>
	</g>
	<g>
		<path class="st4" d="M1197.8,448.7h-3.4c-1,0-1.8-0.8-1.8-1.8v-9.6c0-1,0.8-1.8,1.8-1.8h3.4c1,0,1.8,0.8,1.8,1.8v9.6
			C1199.6,447.9,1198.8,448.7,1197.8,448.7z"/>
	</g>
	<path class="st5" d="M1241.2,342.6h-33.9c-1.1,0-2.2-0.4-2.9-1l-24.4-21.4c-2.1-1.9-0.4-4.8,2.9-4.8h33.9c1.1,0,2.2,0.4,2.9,1
		l24.3,21.3C1246.3,339.7,1244.5,342.6,1241.2,342.6z"/>
	<path class="st2" d="M1204.9,463.5h-38.2c-2.3,0-4.2-1.9-4.2-4.2v-6.4h42.4L1204.9,463.5L1204.9,463.5z"/>
	<path class="st6" d="M1204.9,463.5h37.6c2.6,0,4.7-2.1,4.7-4.7v-5.9h-42.4v10.6H1204.9L1204.9,463.5z"/>
	<path class="st7" d="M1216.4,328h-12.5c-0.6,0-1-0.5-1-1v-16.4h14.5V327C1217.4,327.6,1216.9,328,1216.4,328z"/>
	<path class="st2" d="M1216.3,328h-6.2v-17.4h7.2V327C1217.4,327.6,1216.9,328,1216.3,328z"/>
	<path class="st7" d="M1219.3,312.8h-18.2c-0.4,0-0.8-0.4-0.8-0.8v-2.8c0-0.4,0.4-0.8,0.8-0.8h18.2c0.4,0,0.8,0.4,0.8,0.8v2.9
		C1220.1,312.5,1219.7,312.8,1219.3,312.8z"/>
	<path class="st2" d="M1219.2,312.8h-9.1v-4.4h9.1c0.5,0,0.8,0.4,0.8,0.8v2.8C1220.1,312.5,1219.7,312.8,1219.2,312.8z"/>
</g>
<g>
	<path class="st2" d="M810.4,462.5H781v-396h29.4c1.5,0,2.6,1.2,2.6,2.6v390.7C813,461.3,811.8,462.5,810.4,462.5z"/>
	<path class="st0" d="M771.3,54.9l-7.9-9.7c-0.8-1-2.3-0.9-3.1,0.1l-7.9,9.6l-9,11c-0.3,0.4-0.5,0.9-0.5,1.4v393
		c0,1.2,1,2.2,2.2,2.2h35.8V67.3c0-0.5-0.2-1-0.5-1.4L771.3,54.9z"/>
	<g>
		<path class="st4" d="M758.1,97.8h-5.6c-1,0-1.8-0.8-1.8-1.8V82.1c0-1,0.8-1.8,1.8-1.8h5.6c1,0,1.8,0.8,1.8,1.8V96
			C759.9,97,759.1,97.8,758.1,97.8z"/>
	</g>
	<g>
		<path class="st4" d="M774.8,97.8h-5.6c-1,0-1.8-0.8-1.8-1.8V82.1c0-1,0.8-1.8,1.8-1.8h5.6c1,0,1.8,0.8,1.8,1.8V96
			C776.5,97,775.7,97.8,774.8,97.8z"/>
	</g>
	<g>
		<path class="st4" d="M758.1,134.7h-5.6c-1,0-1.8-0.8-1.8-1.8v-13.8c0-1,0.8-1.8,1.8-1.8h5.6c1,0,1.8,0.8,1.8,1.8V133
			C759.9,134,759.1,134.7,758.1,134.7z"/>
	</g>
	<g>
		<path class="st4" d="M774.8,134.8h-5.6c-1,0-1.8-0.8-1.8-1.8v-13.9c0-1,0.8-1.8,1.8-1.8h5.6c1,0,1.8,0.8,1.8,1.8V133
			C776.5,134,775.7,134.8,774.8,134.8z"/>
	</g>
	<g>
		<path class="st4" d="M758.1,170.8h-5.6c-1,0-1.8-0.8-1.8-1.8v-13.9c0-1,0.8-1.8,1.8-1.8h5.6c1,0,1.8,0.8,1.8,1.8V169
			C759.9,170,759.1,170.8,758.1,170.8z"/>
	</g>
	<g>
		<path class="st4" d="M774.8,170.7h-5.6c-1,0-1.8-0.8-1.8-1.8V155c0-1,0.8-1.8,1.8-1.8h5.6c1,0,1.8,0.8,1.8,1.8v13.9
			C776.5,169.9,775.7,170.7,774.8,170.7z"/>
	</g>
	<g>
		<path class="st4" d="M758.1,207.7h-5.6c-1,0-1.8-0.8-1.8-1.8V192c0-1,0.8-1.8,1.8-1.8h5.6c1,0,1.8,0.8,1.8,1.8v13.9
			C759.9,206.9,759.1,207.7,758.1,207.7z"/>
	</g>
	<g>
		<path class="st4" d="M774.8,207.6h-5.6c-1,0-1.8-0.8-1.8-1.8v-13.9c0-1,0.8-1.8,1.8-1.8h5.6c1,0,1.8,0.8,1.8,1.8v13.9
			C776.5,206.8,775.7,207.6,774.8,207.6z"/>
	</g>
	<g>
		<path class="st4" d="M758.1,244.4h-5.5c-1,0-1.8-0.8-1.8-1.8v-13.5c0-1,0.8-1.8,1.8-1.8h5.5c1,0,1.8,0.8,1.8,1.8v13.5
			C759.9,243.6,759.1,244.4,758.1,244.4z"/>
	</g>
	<g>
		<path class="st4" d="M774.8,244.7h-5.6c-1,0-1.8-0.8-1.8-1.8V229c0-1,0.8-1.8,1.8-1.8h5.6c1,0,1.8,0.8,1.8,1.8v13.9
			C776.5,243.9,775.7,244.7,774.8,244.7z"/>
	</g>
	<g>
		<path class="st4" d="M758.1,282.3h-5.5c-1,0-1.8-0.8-1.8-1.8V267c0-1,0.8-1.8,1.8-1.8h5.5c1,0,1.8,0.8,1.8,1.8v13.5
			C759.9,281.5,759.1,282.3,758.1,282.3z"/>
	</g>
	<g>
		<path class="st4" d="M774.8,282.7h-5.6c-1,0-1.8-0.8-1.8-1.8V267c0-1,0.8-1.8,1.8-1.8h5.6c1,0,1.8,0.8,1.8,1.8v13.9
			C776.5,281.9,775.7,282.7,774.8,282.7z"/>
	</g>
	<g>
		<path class="st4" d="M758.1,320.8h-5.6c-1,0-1.8-0.8-1.8-1.8v-13.9c0-1,0.8-1.8,1.8-1.8h5.6c1,0,1.8,0.8,1.8,1.8V319
			C759.9,320,759.1,320.8,758.1,320.8z"/>
	</g>
	<g>
		<path class="st4" d="M774.8,320.3h-5.5c-1,0-1.8-0.8-1.8-1.8V305c0-1,0.8-1.8,1.8-1.8h5.5c1,0,1.8,0.8,1.8,1.8v13.5
			C776.5,319.5,775.7,320.3,774.8,320.3z"/>
	</g>
	<g>
		<path class="st4" d="M758.1,358.7h-5.6c-1,0-1.8-0.8-1.8-1.8V343c0-1,0.8-1.8,1.8-1.8h5.6c1,0,1.8,0.8,1.8,1.8v13.9
			C759.9,358,759.1,358.7,758.1,358.7z"/>
	</g>
	<g>
		<path class="st4" d="M774.8,358.2h-5.5c-1,0-1.8-0.8-1.8-1.8v-13.5c0-1,0.8-1.8,1.8-1.8h5.5c1,0,1.8,0.8,1.8,1.8v13.5
			C776.5,357.4,775.7,358.2,774.8,358.2z"/>
	</g>
	<g>
		<path class="st4" d="M758.1,395h-5.6c-1,0-1.8-0.8-1.8-1.8v-13.9c0-1,0.8-1.8,1.8-1.8h5.6c1,0,1.8,0.8,1.8,1.8v13.9
			C759.9,394.2,759.1,395,758.1,395z"/>
	</g>
	<g>
		<path class="st4" d="M774.8,395.5h-5.5c-1,0-1.8-0.8-1.8-1.8v-14.5c0-1,0.8-1.8,1.8-1.8h5.5c1,0,1.8,0.8,1.8,1.8v14.5
			C776.5,394.7,775.7,395.5,774.8,395.5z"/>
	</g>
	<g>
		<path class="st4" d="M758.1,431.9h-5.6c-1,0-1.8-0.8-1.8-1.8v-13.8c0-1,0.8-1.8,1.8-1.8h5.6c1,0,1.8,0.8,1.8,1.8v13.9
			C759.9,431.2,759.1,431.9,758.1,431.9z"/>
	</g>
	<g>
		<path class="st4" d="M774.8,431.8h-5.6c-1,0-1.8-0.8-1.8-1.8v-13.9c0-1,0.8-1.8,1.8-1.8h5.6c1,0,1.8,0.8,1.8,1.8V430
			C776.5,431.1,775.7,431.8,774.8,431.8z"/>
	</g>
	<g>
		<path class="st4" d="M791.2,97.8h-5.6c-1,0-1.8-0.8-1.8-1.8V82.1c0-1,0.8-1.8,1.8-1.8h5.6c1,0,1.8,0.8,1.8,1.8V96
			C792.9,97,792.1,97.8,791.2,97.8z"/>
	</g>
	<g>
		<path class="st4" d="M807.8,97.8h-5.6c-1,0-1.8-0.8-1.8-1.8V82.1c0-1,0.8-1.8,1.8-1.8h5.6c1,0,1.8,0.8,1.8,1.8V96
			C809.5,97,808.7,97.8,807.8,97.8z"/>
	</g>
	<g>
		<path class="st4" d="M791.2,134.7h-5.6c-1,0-1.8-0.8-1.8-1.8v-13.8c0-1,0.8-1.8,1.8-1.8h5.6c1,0,1.8,0.8,1.8,1.8V133
			C792.9,134,792.1,134.7,791.2,134.7z"/>
	</g>
	<g>
		<path class="st4" d="M807.8,134.8h-5.6c-1,0-1.8-0.8-1.8-1.8v-13.9c0-1,0.8-1.8,1.8-1.8h5.6c1,0,1.8,0.8,1.8,1.8V133
			C809.5,134,808.7,134.8,807.8,134.8z"/>
	</g>
	<g>
		<path class="st4" d="M791.2,170.8h-5.6c-1,0-1.8-0.8-1.8-1.8v-13.9c0-1,0.8-1.8,1.8-1.8h5.6c1,0,1.8,0.8,1.8,1.8V169
			C792.9,170,792.1,170.8,791.2,170.8z"/>
	</g>
	<g>
		<path class="st4" d="M807.8,170.7h-5.6c-1,0-1.8-0.8-1.8-1.8V155c0-1,0.8-1.8,1.8-1.8h5.6c1,0,1.8,0.8,1.8,1.8v13.9
			C809.5,169.9,808.7,170.7,807.8,170.7z"/>
	</g>
	<g>
		<path class="st4" d="M791.2,207.7h-5.6c-1,0-1.8-0.8-1.8-1.8V192c0-1,0.8-1.8,1.8-1.8h5.6c1,0,1.8,0.8,1.8,1.8v13.9
			C792.9,206.9,792.1,207.7,791.2,207.7z"/>
	</g>
	<g>
		<path class="st4" d="M807.8,207.6h-5.6c-1,0-1.8-0.8-1.8-1.8v-13.9c0-1,0.8-1.8,1.8-1.8h5.6c1,0,1.8,0.8,1.8,1.8v13.9
			C809.5,206.8,808.7,207.6,807.8,207.6z"/>
	</g>
	<g>
		<path class="st4" d="M791.2,244.4h-5.5c-1,0-1.8-0.8-1.8-1.8v-13.5c0-1,0.8-1.8,1.8-1.8h5.5c1,0,1.8,0.8,1.8,1.8v13.5
			C792.9,243.6,792.1,244.4,791.2,244.4z"/>
	</g>
	<g>
		<path class="st4" d="M807.8,244.7h-5.6c-1,0-1.8-0.8-1.8-1.8V229c0-1,0.8-1.8,1.8-1.8h5.6c1,0,1.8,0.8,1.8,1.8v13.9
			C809.5,243.9,808.7,244.7,807.8,244.7z"/>
	</g>
	<g>
		<path class="st4" d="M791.2,282.3h-5.5c-1,0-1.8-0.8-1.8-1.8V267c0-1,0.8-1.8,1.8-1.8h5.5c1,0,1.8,0.8,1.8,1.8v13.5
			C792.9,281.5,792.1,282.3,791.2,282.3z"/>
	</g>
	<g>
		<path class="st4" d="M807.8,282.7h-5.6c-1,0-1.8-0.8-1.8-1.8V267c0-1,0.8-1.8,1.8-1.8h5.6c1,0,1.8,0.8,1.8,1.8v13.9
			C809.5,281.9,808.7,282.7,807.8,282.7z"/>
	</g>
	<g>
		<path class="st4" d="M791.2,320.8h-5.6c-1,0-1.8-0.8-1.8-1.8v-13.9c0-1,0.8-1.8,1.8-1.8h5.6c1,0,1.8,0.8,1.8,1.8V319
			C792.9,320,792.1,320.8,791.2,320.8z"/>
	</g>
	<g>
		<path class="st4" d="M807.8,320.3h-5.5c-1,0-1.8-0.8-1.8-1.8V305c0-1,0.8-1.8,1.8-1.8h5.5c1,0,1.8,0.8,1.8,1.8v13.5
			C809.5,319.5,808.7,320.3,807.8,320.3z"/>
	</g>
	<g>
		<path class="st4" d="M791.2,358.7h-5.6c-1,0-1.8-0.8-1.8-1.8V343c0-1,0.8-1.8,1.8-1.8h5.6c1,0,1.8,0.8,1.8,1.8v13.9
			C792.9,358,792.1,358.7,791.2,358.7z"/>
	</g>
	<g>
		<path class="st4" d="M807.8,358.2h-5.5c-1,0-1.8-0.8-1.8-1.8v-13.5c0-1,0.8-1.8,1.8-1.8h5.5c1,0,1.8,0.8,1.8,1.8v13.5
			C809.5,357.4,808.7,358.2,807.8,358.2z"/>
	</g>
	<g>
		<path class="st4" d="M791.2,395h-5.6c-1,0-1.8-0.8-1.8-1.8v-13.9c0-1,0.8-1.8,1.8-1.8h5.6c1,0,1.8,0.8,1.8,1.8v13.9
			C792.9,394.2,792.1,395,791.2,395z"/>
	</g>
	<g>
		<path class="st4" d="M807.8,395.5h-5.5c-1,0-1.8-0.8-1.8-1.8v-14.5c0-1,0.8-1.8,1.8-1.8h5.5c1,0,1.8,0.8,1.8,1.8v14.5
			C809.5,394.7,808.7,395.5,807.8,395.5z"/>
	</g>
	<g>
		<path class="st4" d="M791.2,431.9h-5.6c-1,0-1.8-0.8-1.8-1.8v-13.8c0-1,0.8-1.8,1.8-1.8h5.6c1,0,1.8,0.8,1.8,1.8v13.9
			C792.9,431.2,792.1,431.9,791.2,431.9z"/>
	</g>
	<g>
		<path class="st4" d="M807.8,431.8h-5.6c-1,0-1.8-0.8-1.8-1.8v-13.9c0-1,0.8-1.8,1.8-1.8h5.6c1,0,1.8,0.8,1.8,1.8V430
			C809.5,431.1,808.7,431.8,807.8,431.8z"/>
	</g>
	<path class="st8" d="M809.6,70.3h-26.8c-0.9,0-1.7-0.4-2.3-1l-19.2-21c-1.7-1.8-0.3-4.7,2.3-4.7h26.8c0.9,0,1.7,0.4,2.3,1l19.2,21
		C813.6,67.5,812.2,70.3,809.6,70.3z"/>
	<path class="st2" d="M781.4,462.5h-36.2c-1.2,0-2.2-1-2.2-2.2v-12.6h38.4V462.5z"/>
	<path class="st6" d="M781,462.5h29.9c1.2,0,2.2-1,2.2-2.2v-12.6h-32v14.8L781,462.5L781,462.5z"/>
	<path class="st0" d="M788.1,51.9h-7.8c-0.6,0-1-0.5-1-1V40h9.9v10.9C789.2,51.5,788.7,51.9,788.1,51.9z"/>
	<path class="st2" d="M788.1,51.9h-3.9V40h4.9v10.8C789.2,51.4,788.7,51.9,788.1,51.9z"/>
	<path class="st0" d="M790.2,40h-11.9c-0.4,0-0.8-0.4-0.8-0.8v-1.5c0-0.4,0.4-0.8,0.8-0.8h11.9c0.4,0,0.8,0.4,0.8,0.8v1.6
		C791,39.7,790.6,40,790.2,40z"/>
	<path class="st2" d="M790.1,40h-5.9v-3h5.9c0.5,0,0.8,0.4,0.8,0.8v1.4C791,39.7,790.6,40,790.1,40z"/>
</g>
<g>
	<path class="st2" d="M876.5,462h-29.4V66h29.4c1.5,0,2.6,1.2,2.6,2.6v390.7C879.1,460.8,877.9,462,876.5,462z"/>
	<path class="st0" d="M837.4,54.4l-7.9-9.7c-0.8-1-2.3-0.9-3.1,0.1l-7.9,9.6l-9,11c-0.3,0.4-0.5,0.9-0.5,1.4v393
		c0,1.2,1,2.2,2.2,2.2H847V66.8c0-0.5-0.2-1-0.5-1.4L837.4,54.4z"/>
	<g>
		<path class="st4" d="M824.2,97.3h-5.6c-1,0-1.8-0.8-1.8-1.8V81.6c0-1,0.8-1.8,1.8-1.8h5.6c1,0,1.8,0.8,1.8,1.8v13.9
			C826,96.5,825.2,97.3,824.2,97.3z"/>
	</g>
	<g>
		<path class="st4" d="M840.9,97.3h-5.6c-1,0-1.8-0.8-1.8-1.8V81.6c0-1,0.8-1.8,1.8-1.8h5.6c1,0,1.8,0.8,1.8,1.8v13.9
			C842.6,96.5,841.8,97.3,840.9,97.3z"/>
	</g>
	<g>
		<path class="st4" d="M824.2,134.2h-5.6c-1,0-1.8-0.8-1.8-1.8v-13.8c0-1,0.8-1.8,1.8-1.8h5.6c1,0,1.8,0.8,1.8,1.8v13.9
			C826,133.5,825.2,134.2,824.2,134.2z"/>
	</g>
	<g>
		<path class="st4" d="M840.9,134.3h-5.6c-1,0-1.8-0.8-1.8-1.8v-13.9c0-1,0.8-1.8,1.8-1.8h5.6c1,0,1.8,0.8,1.8,1.8v13.9
			C842.6,133.5,841.8,134.3,840.9,134.3z"/>
	</g>
	<g>
		<path class="st4" d="M824.2,170.3h-5.6c-1,0-1.8-0.8-1.8-1.8v-13.9c0-1,0.8-1.8,1.8-1.8h5.6c1,0,1.8,0.8,1.8,1.8v13.9
			C826,169.5,825.2,170.3,824.2,170.3z"/>
	</g>
	<g>
		<path class="st4" d="M840.9,170.2h-5.6c-1,0-1.8-0.8-1.8-1.8v-13.9c0-1,0.8-1.8,1.8-1.8h5.6c1,0,1.8,0.8,1.8,1.8v13.9
			C842.6,169.4,841.8,170.2,840.9,170.2z"/>
	</g>
	<g>
		<path class="st4" d="M824.2,207.2h-5.6c-1,0-1.8-0.8-1.8-1.8v-13.9c0-1,0.8-1.8,1.8-1.8h5.6c1,0,1.8,0.8,1.8,1.8v13.9
			C826,206.4,825.2,207.2,824.2,207.2z"/>
	</g>
	<g>
		<path class="st4" d="M840.9,207.1h-5.6c-1,0-1.8-0.8-1.8-1.8v-13.9c0-1,0.8-1.8,1.8-1.8h5.6c1,0,1.8,0.8,1.8,1.8v13.9
			C842.6,206.3,841.8,207.1,840.9,207.1z"/>
	</g>
	<g>
		<path class="st4" d="M824.2,243.9h-5.5c-1,0-1.8-0.8-1.8-1.8v-13.5c0-1,0.8-1.8,1.8-1.8h5.5c1,0,1.8,0.8,1.8,1.8v13.5
			C826,243.1,825.2,243.9,824.2,243.9z"/>
	</g>
	<g>
		<path class="st4" d="M840.9,244.2h-5.6c-1,0-1.8-0.8-1.8-1.8v-13.9c0-1,0.8-1.8,1.8-1.8h5.6c1,0,1.8,0.8,1.8,1.8v13.9
			C842.6,243.4,841.8,244.2,840.9,244.2z"/>
	</g>
	<g>
		<path class="st4" d="M824.2,281.8h-5.5c-1,0-1.8-0.8-1.8-1.8v-13.5c0-1,0.8-1.8,1.8-1.8h5.5c1,0,1.8,0.8,1.8,1.8V280
			C826,281,825.2,281.8,824.2,281.8z"/>
	</g>
	<g>
		<path class="st4" d="M840.9,282.2h-5.6c-1,0-1.8-0.8-1.8-1.8v-13.9c0-1,0.8-1.8,1.8-1.8h5.6c1,0,1.8,0.8,1.8,1.8v13.9
			C842.6,281.4,841.8,282.2,840.9,282.2z"/>
	</g>
	<g>
		<path class="st4" d="M824.2,320.3h-5.6c-1,0-1.8-0.8-1.8-1.8v-13.9c0-1,0.8-1.8,1.8-1.8h5.6c1,0,1.8,0.8,1.8,1.8v13.9
			C826,319.5,825.2,320.3,824.2,320.3z"/>
	</g>
	<g>
		<path class="st4" d="M840.9,319.8h-5.5c-1,0-1.8-0.8-1.8-1.8v-13.5c0-1,0.8-1.8,1.8-1.8h5.5c1,0,1.8,0.8,1.8,1.8V318
			C842.6,319,841.8,319.8,840.9,319.8z"/>
	</g>
	<g>
		<path class="st4" d="M824.2,358.2h-5.6c-1,0-1.8-0.8-1.8-1.8v-13.9c0-1,0.8-1.8,1.8-1.8h5.6c1,0,1.8,0.8,1.8,1.8v13.9
			C826,357.5,825.2,358.2,824.2,358.2z"/>
	</g>
	<g>
		<path class="st4" d="M840.9,357.7h-5.5c-1,0-1.8-0.8-1.8-1.8v-13.5c0-1,0.8-1.8,1.8-1.8h5.5c1,0,1.8,0.8,1.8,1.8v13.5
			C842.6,356.9,841.8,357.7,840.9,357.7z"/>
	</g>
	<g>
		<path class="st4" d="M824.2,394.5h-5.6c-1,0-1.8-0.8-1.8-1.8v-13.9c0-1,0.8-1.8,1.8-1.8h5.6c1,0,1.8,0.8,1.8,1.8v13.9
			C826,393.7,825.2,394.5,824.2,394.5z"/>
	</g>
	<g>
		<path class="st4" d="M840.9,395h-5.5c-1,0-1.8-0.8-1.8-1.8v-14.5c0-1,0.8-1.8,1.8-1.8h5.5c1,0,1.8,0.8,1.8,1.8v14.5
			C842.6,394.2,841.8,395,840.9,395z"/>
	</g>
	<g>
		<path class="st4" d="M824.2,431.4h-5.6c-1,0-1.8-0.8-1.8-1.8v-13.8c0-1,0.8-1.8,1.8-1.8h5.6c1,0,1.8,0.8,1.8,1.8v13.9
			C826,430.7,825.2,431.4,824.2,431.4z"/>
	</g>
	<g>
		<path class="st4" d="M840.9,431.3h-5.6c-1,0-1.8-0.8-1.8-1.8v-13.9c0-1,0.8-1.8,1.8-1.8h5.6c1,0,1.8,0.8,1.8,1.8v13.9
			C842.6,430.6,841.8,431.3,840.9,431.3z"/>
	</g>
	<g>
		<path class="st4" d="M857.3,97.3h-5.6c-1,0-1.8-0.8-1.8-1.8V81.6c0-1,0.8-1.8,1.8-1.8h5.6c1,0,1.8,0.8,1.8,1.8v13.9
			C859,96.5,858.2,97.3,857.3,97.3z"/>
	</g>
	<g>
		<path class="st4" d="M873.9,97.3h-5.6c-1,0-1.8-0.8-1.8-1.8V81.6c0-1,0.8-1.8,1.8-1.8h5.6c1,0,1.8,0.8,1.8,1.8v13.9
			C875.6,96.5,874.8,97.3,873.9,97.3z"/>
	</g>
	<g>
		<path class="st4" d="M857.3,134.2h-5.6c-1,0-1.8-0.8-1.8-1.8v-13.8c0-1,0.8-1.8,1.8-1.8h5.6c1,0,1.8,0.8,1.8,1.8v13.9
			C859,133.5,858.2,134.2,857.3,134.2z"/>
	</g>
	<g>
		<path class="st4" d="M873.9,134.3h-5.6c-1,0-1.8-0.8-1.8-1.8v-13.9c0-1,0.8-1.8,1.8-1.8h5.6c1,0,1.8,0.8,1.8,1.8v13.9
			C875.6,133.5,874.8,134.3,873.9,134.3z"/>
	</g>
	<g>
		<path class="st4" d="M857.3,170.3h-5.6c-1,0-1.8-0.8-1.8-1.8v-13.9c0-1,0.8-1.8,1.8-1.8h5.6c1,0,1.8,0.8,1.8,1.8v13.9
			C859,169.5,858.2,170.3,857.3,170.3z"/>
	</g>
	<g>
		<path class="st4" d="M873.9,170.2h-5.6c-1,0-1.8-0.8-1.8-1.8v-13.9c0-1,0.8-1.8,1.8-1.8h5.6c1,0,1.8,0.8,1.8,1.8v13.9
			C875.6,169.4,874.8,170.2,873.9,170.2z"/>
	</g>
	<g>
		<path class="st4" d="M857.3,207.2h-5.6c-1,0-1.8-0.8-1.8-1.8v-13.9c0-1,0.8-1.8,1.8-1.8h5.6c1,0,1.8,0.8,1.8,1.8v13.9
			C859,206.4,858.2,207.2,857.3,207.2z"/>
	</g>
	<g>
		<path class="st4" d="M873.9,207.1h-5.6c-1,0-1.8-0.8-1.8-1.8v-13.9c0-1,0.8-1.8,1.8-1.8h5.6c1,0,1.8,0.8,1.8,1.8v13.9
			C875.6,206.3,874.8,207.1,873.9,207.1z"/>
	</g>
	<g>
		<path class="st4" d="M857.3,243.9h-5.5c-1,0-1.8-0.8-1.8-1.8v-13.5c0-1,0.8-1.8,1.8-1.8h5.5c1,0,1.8,0.8,1.8,1.8v13.5
			C859,243.1,858.2,243.9,857.3,243.9z"/>
	</g>
	<g>
		<path class="st4" d="M873.9,244.2h-5.6c-1,0-1.8-0.8-1.8-1.8v-13.9c0-1,0.8-1.8,1.8-1.8h5.6c1,0,1.8,0.8,1.8,1.8v13.9
			C875.6,243.4,874.8,244.2,873.9,244.2z"/>
	</g>
	<g>
		<path class="st4" d="M857.3,281.8h-5.5c-1,0-1.8-0.8-1.8-1.8v-13.5c0-1,0.8-1.8,1.8-1.8h5.5c1,0,1.8,0.8,1.8,1.8V280
			C859,281,858.2,281.8,857.3,281.8z"/>
	</g>
	<g>
		<path class="st4" d="M873.9,282.2h-5.6c-1,0-1.8-0.8-1.8-1.8v-13.9c0-1,0.8-1.8,1.8-1.8h5.6c1,0,1.8,0.8,1.8,1.8v13.9
			C875.6,281.4,874.8,282.2,873.9,282.2z"/>
	</g>
	<g>
		<path class="st4" d="M857.3,320.3h-5.6c-1,0-1.8-0.8-1.8-1.8v-13.9c0-1,0.8-1.8,1.8-1.8h5.6c1,0,1.8,0.8,1.8,1.8v13.9
			C859,319.5,858.2,320.3,857.3,320.3z"/>
	</g>
	<g>
		<path class="st4" d="M873.9,319.8h-5.5c-1,0-1.8-0.8-1.8-1.8v-13.5c0-1,0.8-1.8,1.8-1.8h5.5c1,0,1.8,0.8,1.8,1.8V318
			C875.6,319,874.8,319.8,873.9,319.8z"/>
	</g>
	<g>
		<path class="st4" d="M857.3,358.2h-5.6c-1,0-1.8-0.8-1.8-1.8v-13.9c0-1,0.8-1.8,1.8-1.8h5.6c1,0,1.8,0.8,1.8,1.8v13.9
			C859,357.5,858.2,358.2,857.3,358.2z"/>
	</g>
	<g>
		<path class="st4" d="M873.9,357.7h-5.5c-1,0-1.8-0.8-1.8-1.8v-13.5c0-1,0.8-1.8,1.8-1.8h5.5c1,0,1.8,0.8,1.8,1.8v13.5
			C875.6,356.9,874.8,357.7,873.9,357.7z"/>
	</g>
	<g>
		<path class="st4" d="M857.3,394.5h-5.6c-1,0-1.8-0.8-1.8-1.8v-13.9c0-1,0.8-1.8,1.8-1.8h5.6c1,0,1.8,0.8,1.8,1.8v13.9
			C859,393.7,858.2,394.5,857.3,394.5z"/>
	</g>
	<g>
		<path class="st4" d="M873.9,395h-5.5c-1,0-1.8-0.8-1.8-1.8v-14.5c0-1,0.8-1.8,1.8-1.8h5.5c1,0,1.8,0.8,1.8,1.8v14.5
			C875.6,394.2,874.8,395,873.9,395z"/>
	</g>
	<g>
		<path class="st4" d="M857.3,431.4h-5.6c-1,0-1.8-0.8-1.8-1.8v-13.8c0-1,0.8-1.8,1.8-1.8h5.6c1,0,1.8,0.8,1.8,1.8v13.9
			C859,430.7,858.2,431.4,857.3,431.4z"/>
	</g>
	<g>
		<path class="st4" d="M873.9,431.3h-5.6c-1,0-1.8-0.8-1.8-1.8v-13.9c0-1,0.8-1.8,1.8-1.8h5.6c1,0,1.8,0.8,1.8,1.8v13.9
			C875.6,430.6,874.8,431.3,873.9,431.3z"/>
	</g>
	<path class="st8" d="M875.7,69.8h-26.8c-0.9,0-1.7-0.4-2.3-1l-19.2-21c-1.7-1.8-0.3-4.7,2.3-4.7h26.8c0.9,0,1.7,0.4,2.3,1l19.2,21
		C879.7,67,878.3,69.8,875.7,69.8z"/>
	<path class="st2" d="M847.5,462h-36.2c-1.2,0-2.2-1-2.2-2.2v-12.6h38.4V462z"/>
	<path class="st6" d="M847.1,462H877c1.2,0,2.2-1,2.2-2.2v-12.6h-32V462L847.1,462L847.1,462z"/>
	<path class="st0" d="M854.2,51.4h-7.8c-0.6,0-1-0.5-1-1V39.5h9.9v10.9C855.3,51,854.8,51.4,854.2,51.4z"/>
	<path class="st2" d="M854.2,51.4h-3.9V39.5h4.9v10.8C855.3,50.9,854.8,51.4,854.2,51.4z"/>
	<path class="st0" d="M856.3,39.5h-11.9c-0.4,0-0.8-0.4-0.8-0.8v-1.5c0-0.4,0.4-0.8,0.8-0.8h11.9c0.4,0,0.8,0.4,0.8,0.8v1.6
		C857.1,39.2,856.7,39.5,856.3,39.5z"/>
	<path class="st2" d="M856.2,39.5h-5.9v-3h5.9c0.5,0,0.8,0.4,0.8,0.8v1.4C857.1,39.2,856.7,39.5,856.2,39.5z"/>
</g>
<g>
	<path class="st2" d="M1085.2,473.3h-29.4v-396h29.4c1.5,0,2.6,1.2,2.6,2.6v390.7C1087.8,472.1,1086.6,473.3,1085.2,473.3z"/>
	<path class="st0" d="M1046.1,65.7l-7.9-9.7c-0.8-1-2.3-0.9-3.1,0.1l-7.9,9.6l-9,11c-0.3,0.4-0.5,0.9-0.5,1.4v393
		c0,1.2,1,2.2,2.2,2.2h35.8V78.1c0-0.5-0.2-1-0.5-1.4L1046.1,65.7z"/>
	<g>
		<path class="st4" d="M1032.9,108.6h-5.6c-1,0-1.8-0.8-1.8-1.8V92.9c0-1,0.8-1.8,1.8-1.8h5.6c1,0,1.8,0.8,1.8,1.8v13.9
			C1034.7,107.8,1033.9,108.6,1032.9,108.6z"/>
	</g>
	<g>
		<path class="st4" d="M1049.6,108.6h-5.6c-1,0-1.8-0.8-1.8-1.8V92.9c0-1,0.8-1.8,1.8-1.8h5.6c1,0,1.8,0.8,1.8,1.8v13.9
			C1051.3,107.8,1050.5,108.6,1049.6,108.6z"/>
	</g>
	<g>
		<path class="st4" d="M1032.9,145.5h-5.6c-1,0-1.8-0.8-1.8-1.8v-13.8c0-1,0.8-1.8,1.8-1.8h5.6c1,0,1.8,0.8,1.8,1.8v13.9
			C1034.7,144.8,1033.9,145.5,1032.9,145.5z"/>
	</g>
	<g>
		<path class="st4" d="M1049.6,145.6h-5.6c-1,0-1.8-0.8-1.8-1.8v-13.9c0-1,0.8-1.8,1.8-1.8h5.6c1,0,1.8,0.8,1.8,1.8v13.9
			C1051.3,144.8,1050.5,145.6,1049.6,145.6z"/>
	</g>
	<g>
		<path class="st4" d="M1032.9,181.6h-5.6c-1,0-1.8-0.8-1.8-1.8v-13.9c0-1,0.8-1.8,1.8-1.8h5.6c1,0,1.8,0.8,1.8,1.8v13.9
			C1034.7,180.8,1033.9,181.6,1032.9,181.6z"/>
	</g>
	<g>
		<path class="st4" d="M1049.6,181.5h-5.6c-1,0-1.8-0.8-1.8-1.8v-13.9c0-1,0.8-1.8,1.8-1.8h5.6c1,0,1.8,0.8,1.8,1.8v13.9
			C1051.3,180.7,1050.5,181.5,1049.6,181.5z"/>
	</g>
	<g>
		<path class="st4" d="M1032.9,218.5h-5.6c-1,0-1.8-0.8-1.8-1.8v-13.9c0-1,0.8-1.8,1.8-1.8h5.6c1,0,1.8,0.8,1.8,1.8v13.9
			C1034.7,217.7,1033.9,218.5,1032.9,218.5z"/>
	</g>
	<g>
		<path class="st4" d="M1049.6,218.4h-5.6c-1,0-1.8-0.8-1.8-1.8v-13.9c0-1,0.8-1.8,1.8-1.8h5.6c1,0,1.8,0.8,1.8,1.8v13.9
			C1051.3,217.6,1050.5,218.4,1049.6,218.4z"/>
	</g>
	<g>
		<path class="st4" d="M1032.9,255.2h-5.5c-1,0-1.8-0.8-1.8-1.8v-13.5c0-1,0.8-1.8,1.8-1.8h5.5c1,0,1.8,0.8,1.8,1.8v13.5
			C1034.7,254.4,1033.9,255.2,1032.9,255.2z"/>
	</g>
	<g>
		<path class="st4" d="M1049.6,255.5h-5.6c-1,0-1.8-0.8-1.8-1.8v-13.9c0-1,0.8-1.8,1.8-1.8h5.6c1,0,1.8,0.8,1.8,1.8v13.9
			C1051.3,254.7,1050.5,255.5,1049.6,255.5z"/>
	</g>
	<g>
		<path class="st4" d="M1032.9,293.1h-5.5c-1,0-1.8-0.8-1.8-1.8v-13.5c0-1,0.8-1.8,1.8-1.8h5.5c1,0,1.8,0.8,1.8,1.8v13.5
			C1034.7,292.3,1033.9,293.1,1032.9,293.1z"/>
	</g>
	<g>
		<path class="st4" d="M1049.6,293.5h-5.6c-1,0-1.8-0.8-1.8-1.8v-13.9c0-1,0.8-1.8,1.8-1.8h5.6c1,0,1.8,0.8,1.8,1.8v13.9
			C1051.3,292.7,1050.5,293.5,1049.6,293.5z"/>
	</g>
	<g>
		<path class="st4" d="M1032.9,331.6h-5.6c-1,0-1.8-0.8-1.8-1.8v-13.9c0-1,0.8-1.8,1.8-1.8h5.6c1,0,1.8,0.8,1.8,1.8v13.9
			C1034.7,330.8,1033.9,331.6,1032.9,331.6z"/>
	</g>
	<g>
		<path class="st4" d="M1049.6,331.1h-5.5c-1,0-1.8-0.8-1.8-1.8v-13.5c0-1,0.8-1.8,1.8-1.8h5.5c1,0,1.8,0.8,1.8,1.8v13.5
			C1051.3,330.3,1050.5,331.1,1049.6,331.1z"/>
	</g>
	<g>
		<path class="st4" d="M1032.9,369.5h-5.6c-1,0-1.8-0.8-1.8-1.8v-13.9c0-1,0.8-1.8,1.8-1.8h5.6c1,0,1.8,0.8,1.8,1.8v13.9
			C1034.7,368.8,1033.9,369.5,1032.9,369.5z"/>
	</g>
	<g>
		<path class="st4" d="M1049.6,369h-5.5c-1,0-1.8-0.8-1.8-1.8v-13.5c0-1,0.8-1.8,1.8-1.8h5.5c1,0,1.8,0.8,1.8,1.8v13.5
			C1051.3,368.2,1050.5,369,1049.6,369z"/>
	</g>
	<g>
		<path class="st4" d="M1032.9,405.8h-5.6c-1,0-1.8-0.8-1.8-1.8v-13.9c0-1,0.8-1.8,1.8-1.8h5.6c1,0,1.8,0.8,1.8,1.8V404
			C1034.7,405,1033.9,405.8,1032.9,405.8z"/>
	</g>
	<g>
		<path class="st4" d="M1049.6,406.3h-5.5c-1,0-1.8-0.8-1.8-1.8V390c0-1,0.8-1.8,1.8-1.8h5.5c1,0,1.8,0.8,1.8,1.8v14.5
			C1051.3,405.5,1050.5,406.3,1049.6,406.3z"/>
	</g>
	<g>
		<path class="st4" d="M1032.9,442.7h-5.6c-1,0-1.8-0.8-1.8-1.8v-13.8c0-1,0.8-1.8,1.8-1.8h5.6c1,0,1.8,0.8,1.8,1.8V441
			C1034.7,442,1033.9,442.7,1032.9,442.7z"/>
	</g>
	<g>
		<path class="st4" d="M1049.6,442.6h-5.6c-1,0-1.8-0.8-1.8-1.8v-13.9c0-1,0.8-1.8,1.8-1.8h5.6c1,0,1.8,0.8,1.8,1.8v13.9
			C1051.3,441.9,1050.5,442.6,1049.6,442.6z"/>
	</g>
	<g>
		<path class="st4" d="M1066,108.6h-5.6c-1,0-1.8-0.8-1.8-1.8V92.9c0-1,0.8-1.8,1.8-1.8h5.6c1,0,1.8,0.8,1.8,1.8v13.9
			C1067.7,107.8,1066.9,108.6,1066,108.6z"/>
	</g>
	<g>
		<path class="st4" d="M1082.6,108.6h-5.6c-1,0-1.8-0.8-1.8-1.8V92.9c0-1,0.8-1.8,1.8-1.8h5.6c1,0,1.8,0.8,1.8,1.8v13.9
			C1084.3,107.8,1083.5,108.6,1082.6,108.6z"/>
	</g>
	<g>
		<path class="st4" d="M1066,145.5h-5.6c-1,0-1.8-0.8-1.8-1.8v-13.8c0-1,0.8-1.8,1.8-1.8h5.6c1,0,1.8,0.8,1.8,1.8v13.9
			C1067.7,144.8,1066.9,145.5,1066,145.5z"/>
	</g>
	<g>
		<path class="st4" d="M1082.6,145.6h-5.6c-1,0-1.8-0.8-1.8-1.8v-13.9c0-1,0.8-1.8,1.8-1.8h5.6c1,0,1.8,0.8,1.8,1.8v13.9
			C1084.3,144.8,1083.5,145.6,1082.6,145.6z"/>
	</g>
	<g>
		<path class="st4" d="M1066,181.6h-5.6c-1,0-1.8-0.8-1.8-1.8v-13.9c0-1,0.8-1.8,1.8-1.8h5.6c1,0,1.8,0.8,1.8,1.8v13.9
			C1067.7,180.8,1066.9,181.6,1066,181.6z"/>
	</g>
	<g>
		<path class="st4" d="M1082.6,181.5h-5.6c-1,0-1.8-0.8-1.8-1.8v-13.9c0-1,0.8-1.8,1.8-1.8h5.6c1,0,1.8,0.8,1.8,1.8v13.9
			C1084.3,180.7,1083.5,181.5,1082.6,181.5z"/>
	</g>
	<g>
		<path class="st4" d="M1066,218.5h-5.6c-1,0-1.8-0.8-1.8-1.8v-13.9c0-1,0.8-1.8,1.8-1.8h5.6c1,0,1.8,0.8,1.8,1.8v13.9
			C1067.7,217.7,1066.9,218.5,1066,218.5z"/>
	</g>
	<g>
		<path class="st4" d="M1082.6,218.4h-5.6c-1,0-1.8-0.8-1.8-1.8v-13.9c0-1,0.8-1.8,1.8-1.8h5.6c1,0,1.8,0.8,1.8,1.8v13.9
			C1084.3,217.6,1083.5,218.4,1082.6,218.4z"/>
	</g>
	<g>
		<path class="st4" d="M1066,255.2h-5.5c-1,0-1.8-0.8-1.8-1.8v-13.5c0-1,0.8-1.8,1.8-1.8h5.5c1,0,1.8,0.8,1.8,1.8v13.5
			C1067.7,254.4,1066.9,255.2,1066,255.2z"/>
	</g>
	<g>
		<path class="st4" d="M1082.6,255.5h-5.6c-1,0-1.8-0.8-1.8-1.8v-13.9c0-1,0.8-1.8,1.8-1.8h5.6c1,0,1.8,0.8,1.8,1.8v13.9
			C1084.3,254.7,1083.5,255.5,1082.6,255.5z"/>
	</g>
	<g>
		<path class="st4" d="M1066,293.1h-5.5c-1,0-1.8-0.8-1.8-1.8v-13.5c0-1,0.8-1.8,1.8-1.8h5.5c1,0,1.8,0.8,1.8,1.8v13.5
			C1067.7,292.3,1066.9,293.1,1066,293.1z"/>
	</g>
	<g>
		<path class="st4" d="M1082.6,293.5h-5.6c-1,0-1.8-0.8-1.8-1.8v-13.9c0-1,0.8-1.8,1.8-1.8h5.6c1,0,1.8,0.8,1.8,1.8v13.9
			C1084.3,292.7,1083.5,293.5,1082.6,293.5z"/>
	</g>
	<g>
		<path class="st4" d="M1066,331.6h-5.6c-1,0-1.8-0.8-1.8-1.8v-13.9c0-1,0.8-1.8,1.8-1.8h5.6c1,0,1.8,0.8,1.8,1.8v13.9
			C1067.7,330.8,1066.9,331.6,1066,331.6z"/>
	</g>
	<g>
		<path class="st4" d="M1082.6,331.1h-5.5c-1,0-1.8-0.8-1.8-1.8v-13.5c0-1,0.8-1.8,1.8-1.8h5.5c1,0,1.8,0.8,1.8,1.8v13.5
			C1084.3,330.3,1083.5,331.1,1082.6,331.1z"/>
	</g>
	<g>
		<path class="st4" d="M1066,369.5h-5.6c-1,0-1.8-0.8-1.8-1.8v-13.9c0-1,0.8-1.8,1.8-1.8h5.6c1,0,1.8,0.8,1.8,1.8v13.9
			C1067.7,368.8,1066.9,369.5,1066,369.5z"/>
	</g>
	<g>
		<path class="st4" d="M1082.6,369h-5.5c-1,0-1.8-0.8-1.8-1.8v-13.5c0-1,0.8-1.8,1.8-1.8h5.5c1,0,1.8,0.8,1.8,1.8v13.5
			C1084.3,368.2,1083.5,369,1082.6,369z"/>
	</g>
	<g>
		<path class="st4" d="M1066,405.8h-5.6c-1,0-1.8-0.8-1.8-1.8v-13.9c0-1,0.8-1.8,1.8-1.8h5.6c1,0,1.8,0.8,1.8,1.8V404
			C1067.7,405,1066.9,405.8,1066,405.8z"/>
	</g>
	<g>
		<path class="st4" d="M1082.6,406.3h-5.5c-1,0-1.8-0.8-1.8-1.8V390c0-1,0.8-1.8,1.8-1.8h5.5c1,0,1.8,0.8,1.8,1.8v14.5
			C1084.3,405.5,1083.5,406.3,1082.6,406.3z"/>
	</g>
	<g>
		<path class="st4" d="M1066,442.7h-5.6c-1,0-1.8-0.8-1.8-1.8v-13.8c0-1,0.8-1.8,1.8-1.8h5.6c1,0,1.8,0.8,1.8,1.8V441
			C1067.7,442,1066.9,442.7,1066,442.7z"/>
	</g>
	<g>
		<path class="st4" d="M1082.6,442.6h-5.6c-1,0-1.8-0.8-1.8-1.8v-13.9c0-1,0.8-1.8,1.8-1.8h5.6c1,0,1.8,0.8,1.8,1.8v13.9
			C1084.3,441.9,1083.5,442.6,1082.6,442.6z"/>
	</g>
	<path class="st8" d="M1084.4,81.1h-26.8c-0.9,0-1.7-0.4-2.3-1l-19.2-21c-1.7-1.8-0.3-4.7,2.3-4.7h26.8c0.9,0,1.7,0.4,2.3,1l19.2,21
		C1088.4,78.3,1087,81.1,1084.4,81.1z"/>
	<path class="st2" d="M1056.2,473.3H1020c-1.2,0-2.2-1-2.2-2.2v-12.6h38.4V473.3z"/>
	<path class="st6" d="M1055.8,473.3h29.9c1.2,0,2.2-1,2.2-2.2v-12.6h-32L1055.8,473.3L1055.8,473.3L1055.8,473.3z"/>
	<path class="st0" d="M1062.9,62.7h-7.8c-0.6,0-1-0.5-1-1V50.8h9.9v10.9C1064,62.3,1063.5,62.7,1062.9,62.7z"/>
	<path class="st2" d="M1062.9,62.7h-3.9V50.8h4.9v10.8C1064,62.2,1063.5,62.7,1062.9,62.7z"/>
	<path class="st0" d="M1065,50.8h-11.9c-0.4,0-0.8-0.4-0.8-0.8v-1.5c0-0.4,0.4-0.8,0.8-0.8h11.9c0.4,0,0.8,0.4,0.8,0.8v1.6
		C1065.8,50.5,1065.4,50.8,1065,50.8z"/>
	<path class="st2" d="M1064.9,50.8h-5.9v-3h5.9c0.5,0,0.8,0.4,0.8,0.8V50C1065.8,50.5,1065.4,50.8,1064.9,50.8z"/>
</g>
<g>
	<path class="st2" d="M1292.8,481.5h-29.4v-396h29.4c1.5,0,2.6,1.2,2.6,2.6v390.7C1295.4,480.3,1294.2,481.5,1292.8,481.5z"/>
	<path class="st0" d="M1253.7,73.9l-7.9-9.7c-0.8-1-2.3-0.9-3.1,0.1l-7.9,9.6l-9,11c-0.3,0.4-0.5,0.9-0.5,1.4v393
		c0,1.2,1,2.2,2.2,2.2h35.8V86.3c0-0.5-0.2-1-0.5-1.4L1253.7,73.9z"/>
	<g>
		<path class="st4" d="M1240.5,116.8h-5.6c-1,0-1.8-0.8-1.8-1.8v-13.9c0-1,0.8-1.8,1.8-1.8h5.6c1,0,1.8,0.8,1.8,1.8V115
			C1242.3,116,1241.5,116.8,1240.5,116.8z"/>
	</g>
	<g>
		<path class="st4" d="M1257.2,116.8h-5.6c-1,0-1.8-0.8-1.8-1.8v-13.9c0-1,0.8-1.8,1.8-1.8h5.6c1,0,1.8,0.8,1.8,1.8V115
			C1258.9,116,1258.1,116.8,1257.2,116.8z"/>
	</g>
	<g>
		<path class="st4" d="M1240.5,153.7h-5.6c-1,0-1.8-0.8-1.8-1.8v-13.8c0-1,0.8-1.8,1.8-1.8h5.6c1,0,1.8,0.8,1.8,1.8V152
			C1242.3,153,1241.5,153.7,1240.5,153.7z"/>
	</g>
	<g>
		<path class="st4" d="M1257.2,153.8h-5.6c-1,0-1.8-0.8-1.8-1.8v-13.9c0-1,0.8-1.8,1.8-1.8h5.6c1,0,1.8,0.8,1.8,1.8V152
			C1258.9,153,1258.1,153.8,1257.2,153.8z"/>
	</g>
	<g>
		<path class="st4" d="M1240.5,189.8h-5.6c-1,0-1.8-0.8-1.8-1.8v-13.9c0-1,0.8-1.8,1.8-1.8h5.6c1,0,1.8,0.8,1.8,1.8V188
			C1242.3,189,1241.5,189.8,1240.5,189.8z"/>
	</g>
	<g>
		<path class="st4" d="M1257.2,189.7h-5.6c-1,0-1.8-0.8-1.8-1.8V174c0-1,0.8-1.8,1.8-1.8h5.6c1,0,1.8,0.8,1.8,1.8v13.9
			C1258.9,188.9,1258.1,189.7,1257.2,189.7z"/>
	</g>
	<g>
		<path class="st4" d="M1240.5,226.7h-5.6c-1,0-1.8-0.8-1.8-1.8V211c0-1,0.8-1.8,1.8-1.8h5.6c1,0,1.8,0.8,1.8,1.8v13.9
			C1242.3,225.9,1241.5,226.7,1240.5,226.7z"/>
	</g>
	<g>
		<path class="st4" d="M1257.2,226.6h-5.6c-1,0-1.8-0.8-1.8-1.8v-13.9c0-1,0.8-1.8,1.8-1.8h5.6c1,0,1.8,0.8,1.8,1.8v13.9
			C1258.9,225.8,1258.1,226.6,1257.2,226.6z"/>
	</g>
	<g>
		<path class="st4" d="M1240.5,263.4h-5.5c-1,0-1.8-0.8-1.8-1.8v-13.5c0-1,0.8-1.8,1.8-1.8h5.5c1,0,1.8,0.8,1.8,1.8v13.5
			C1242.3,262.6,1241.5,263.4,1240.5,263.4z"/>
	</g>
	<g>
		<path class="st4" d="M1257.2,263.7h-5.6c-1,0-1.8-0.8-1.8-1.8V248c0-1,0.8-1.8,1.8-1.8h5.6c1,0,1.8,0.8,1.8,1.8v13.9
			C1258.9,262.9,1258.1,263.7,1257.2,263.7z"/>
	</g>
	<g>
		<path class="st4" d="M1240.5,301.3h-5.5c-1,0-1.8-0.8-1.8-1.8V286c0-1,0.8-1.8,1.8-1.8h5.5c1,0,1.8,0.8,1.8,1.8v13.5
			C1242.3,300.5,1241.5,301.3,1240.5,301.3z"/>
	</g>
	<g>
		<path class="st4" d="M1257.2,301.7h-5.6c-1,0-1.8-0.8-1.8-1.8V286c0-1,0.8-1.8,1.8-1.8h5.6c1,0,1.8,0.8,1.8,1.8v13.9
			C1258.9,300.9,1258.1,301.7,1257.2,301.7z"/>
	</g>
	<g>
		<path class="st4" d="M1240.5,339.8h-5.6c-1,0-1.8-0.8-1.8-1.8v-13.9c0-1,0.8-1.8,1.8-1.8h5.6c1,0,1.8,0.8,1.8,1.8V338
			C1242.3,339,1241.5,339.8,1240.5,339.8z"/>
	</g>
	<g>
		<path class="st4" d="M1257.2,339.3h-5.5c-1,0-1.8-0.8-1.8-1.8V324c0-1,0.8-1.8,1.8-1.8h5.5c1,0,1.8,0.8,1.8,1.8v13.5
			C1258.9,338.5,1258.1,339.3,1257.2,339.3z"/>
	</g>
	<g>
		<path class="st4" d="M1240.5,377.7h-5.6c-1,0-1.8-0.8-1.8-1.8V362c0-1,0.8-1.8,1.8-1.8h5.6c1,0,1.8,0.8,1.8,1.8v13.9
			C1242.3,377,1241.5,377.7,1240.5,377.7z"/>
	</g>
	<g>
		<path class="st4" d="M1257.2,377.2h-5.5c-1,0-1.8-0.8-1.8-1.8v-13.5c0-1,0.8-1.8,1.8-1.8h5.5c1,0,1.8,0.8,1.8,1.8v13.5
			C1258.9,376.4,1258.1,377.2,1257.2,377.2z"/>
	</g>
	<g>
		<path class="st4" d="M1240.5,414h-5.6c-1,0-1.8-0.8-1.8-1.8v-13.9c0-1,0.8-1.8,1.8-1.8h5.6c1,0,1.8,0.8,1.8,1.8v13.9
			C1242.3,413.2,1241.5,414,1240.5,414z"/>
	</g>
	<g>
		<path class="st4" d="M1257.2,414.5h-5.5c-1,0-1.8-0.8-1.8-1.8v-14.5c0-1,0.8-1.8,1.8-1.8h5.5c1,0,1.8,0.8,1.8,1.8v14.5
			C1258.9,413.7,1258.1,414.5,1257.2,414.5z"/>
	</g>
	<g>
		<path class="st4" d="M1240.5,450.9h-5.6c-1,0-1.8-0.8-1.8-1.8v-13.8c0-1,0.8-1.8,1.8-1.8h5.6c1,0,1.8,0.8,1.8,1.8v13.9
			C1242.3,450.2,1241.5,450.9,1240.5,450.9z"/>
	</g>
	<g>
		<path class="st4" d="M1257.2,450.8h-5.6c-1,0-1.8-0.8-1.8-1.8v-13.9c0-1,0.8-1.8,1.8-1.8h5.6c1,0,1.8,0.8,1.8,1.8V449
			C1258.9,450.1,1258.1,450.8,1257.2,450.8z"/>
	</g>
	<g>
		<path class="st4" d="M1273.6,116.8h-5.6c-1,0-1.8-0.8-1.8-1.8v-13.9c0-1,0.8-1.8,1.8-1.8h5.6c1,0,1.8,0.8,1.8,1.8V115
			C1275.3,116,1274.5,116.8,1273.6,116.8z"/>
	</g>
	<g>
		<path class="st4" d="M1290.2,116.8h-5.6c-1,0-1.8-0.8-1.8-1.8v-13.9c0-1,0.8-1.8,1.8-1.8h5.6c1,0,1.8,0.8,1.8,1.8V115
			C1291.9,116,1291.1,116.8,1290.2,116.8z"/>
	</g>
	<g>
		<path class="st4" d="M1273.6,153.7h-5.6c-1,0-1.8-0.8-1.8-1.8v-13.8c0-1,0.8-1.8,1.8-1.8h5.6c1,0,1.8,0.8,1.8,1.8V152
			C1275.3,153,1274.5,153.7,1273.6,153.7z"/>
	</g>
	<g>
		<path class="st4" d="M1290.2,153.8h-5.6c-1,0-1.8-0.8-1.8-1.8v-13.9c0-1,0.8-1.8,1.8-1.8h5.6c1,0,1.8,0.8,1.8,1.8V152
			C1291.9,153,1291.1,153.8,1290.2,153.8z"/>
	</g>
	<g>
		<path class="st4" d="M1273.6,189.8h-5.6c-1,0-1.8-0.8-1.8-1.8v-13.9c0-1,0.8-1.8,1.8-1.8h5.6c1,0,1.8,0.8,1.8,1.8V188
			C1275.3,189,1274.5,189.8,1273.6,189.8z"/>
	</g>
	<g>
		<path class="st4" d="M1290.2,189.7h-5.6c-1,0-1.8-0.8-1.8-1.8V174c0-1,0.8-1.8,1.8-1.8h5.6c1,0,1.8,0.8,1.8,1.8v13.9
			C1291.9,188.9,1291.1,189.7,1290.2,189.7z"/>
	</g>
	<g>
		<path class="st4" d="M1273.6,226.7h-5.6c-1,0-1.8-0.8-1.8-1.8V211c0-1,0.8-1.8,1.8-1.8h5.6c1,0,1.8,0.8,1.8,1.8v13.9
			C1275.3,225.9,1274.5,226.7,1273.6,226.7z"/>
	</g>
	<g>
		<path class="st4" d="M1290.2,226.6h-5.6c-1,0-1.8-0.8-1.8-1.8v-13.9c0-1,0.8-1.8,1.8-1.8h5.6c1,0,1.8,0.8,1.8,1.8v13.9
			C1291.9,225.8,1291.1,226.6,1290.2,226.6z"/>
	</g>
	<g>
		<path class="st4" d="M1273.6,263.4h-5.5c-1,0-1.8-0.8-1.8-1.8v-13.5c0-1,0.8-1.8,1.8-1.8h5.5c1,0,1.8,0.8,1.8,1.8v13.5
			C1275.3,262.6,1274.5,263.4,1273.6,263.4z"/>
	</g>
	<g>
		<path class="st4" d="M1290.2,263.7h-5.6c-1,0-1.8-0.8-1.8-1.8V248c0-1,0.8-1.8,1.8-1.8h5.6c1,0,1.8,0.8,1.8,1.8v13.9
			C1291.9,262.9,1291.1,263.7,1290.2,263.7z"/>
	</g>
	<g>
		<path class="st4" d="M1273.6,301.3h-5.5c-1,0-1.8-0.8-1.8-1.8V286c0-1,0.8-1.8,1.8-1.8h5.5c1,0,1.8,0.8,1.8,1.8v13.5
			C1275.3,300.5,1274.5,301.3,1273.6,301.3z"/>
	</g>
	<g>
		<path class="st4" d="M1290.2,301.7h-5.6c-1,0-1.8-0.8-1.8-1.8V286c0-1,0.8-1.8,1.8-1.8h5.6c1,0,1.8,0.8,1.8,1.8v13.9
			C1291.9,300.9,1291.1,301.7,1290.2,301.7z"/>
	</g>
	<g>
		<path class="st4" d="M1273.6,339.8h-5.6c-1,0-1.8-0.8-1.8-1.8v-13.9c0-1,0.8-1.8,1.8-1.8h5.6c1,0,1.8,0.8,1.8,1.8V338
			C1275.3,339,1274.5,339.8,1273.6,339.8z"/>
	</g>
	<g>
		<path class="st4" d="M1290.2,339.3h-5.5c-1,0-1.8-0.8-1.8-1.8V324c0-1,0.8-1.8,1.8-1.8h5.5c1,0,1.8,0.8,1.8,1.8v13.5
			C1291.9,338.5,1291.1,339.3,1290.2,339.3z"/>
	</g>
	<g>
		<path class="st4" d="M1273.6,377.7h-5.6c-1,0-1.8-0.8-1.8-1.8V362c0-1,0.8-1.8,1.8-1.8h5.6c1,0,1.8,0.8,1.8,1.8v13.9
			C1275.3,377,1274.5,377.7,1273.6,377.7z"/>
	</g>
	<g>
		<path class="st4" d="M1290.2,377.2h-5.5c-1,0-1.8-0.8-1.8-1.8v-13.5c0-1,0.8-1.8,1.8-1.8h5.5c1,0,1.8,0.8,1.8,1.8v13.5
			C1291.9,376.4,1291.1,377.2,1290.2,377.2z"/>
	</g>
	<g>
		<path class="st4" d="M1273.6,414h-5.6c-1,0-1.8-0.8-1.8-1.8v-13.9c0-1,0.8-1.8,1.8-1.8h5.6c1,0,1.8,0.8,1.8,1.8v13.9
			C1275.3,413.2,1274.5,414,1273.6,414z"/>
	</g>
	<g>
		<path class="st4" d="M1290.2,414.5h-5.5c-1,0-1.8-0.8-1.8-1.8v-14.5c0-1,0.8-1.8,1.8-1.8h5.5c1,0,1.8,0.8,1.8,1.8v14.5
			C1291.9,413.7,1291.1,414.5,1290.2,414.5z"/>
	</g>
	<g>
		<path class="st4" d="M1273.6,450.9h-5.6c-1,0-1.8-0.8-1.8-1.8v-13.8c0-1,0.8-1.8,1.8-1.8h5.6c1,0,1.8,0.8,1.8,1.8v13.9
			C1275.3,450.2,1274.5,450.9,1273.6,450.9z"/>
	</g>
	<g>
		<path class="st4" d="M1290.2,450.8h-5.6c-1,0-1.8-0.8-1.8-1.8v-13.9c0-1,0.8-1.8,1.8-1.8h5.6c1,0,1.8,0.8,1.8,1.8V449
			C1291.9,450.1,1291.1,450.8,1290.2,450.8z"/>
	</g>
	<path class="st8" d="M1292,89.3h-26.8c-0.9,0-1.7-0.4-2.3-1l-19.2-21c-1.7-1.8-0.3-4.7,2.3-4.7h26.8c0.9,0,1.7,0.4,2.3,1l19.2,21
		C1296,86.5,1294.6,89.3,1292,89.3z"/>
	<path class="st2" d="M1263.8,481.5h-36.2c-1.2,0-2.2-1-2.2-2.2v-12.6h38.4L1263.8,481.5L1263.8,481.5z"/>
	<path class="st6" d="M1263.4,481.5h29.9c1.2,0,2.2-1,2.2-2.2v-12.6h-32L1263.4,481.5L1263.4,481.5z"/>
	<path class="st0" d="M1270.5,70.9h-7.8c-0.6,0-1-0.5-1-1V59h9.9v10.9C1271.6,70.5,1271.1,70.9,1270.5,70.9z"/>
	<path class="st2" d="M1270.5,70.9h-3.9V59h4.9v10.8C1271.6,70.4,1271.1,70.9,1270.5,70.9z"/>
	<path class="st0" d="M1272.6,59h-11.9c-0.4,0-0.8-0.4-0.8-0.8v-1.5c0-0.4,0.4-0.8,0.8-0.8h11.9c0.4,0,0.8,0.4,0.8,0.8v1.6
		C1273.4,58.7,1273,59,1272.6,59z"/>
	<path class="st2" d="M1272.5,59h-5.9v-3h5.9c0.5,0,0.8,0.4,0.8,0.8v1.4C1273.4,58.7,1273,59,1272.5,59z"/>
</g>
<path class="st2" d="M390.4,472.3h36.2c1.2,0,2.2-1,2.2-2.2v-12.5h-38.4L390.4,472.3L390.4,472.3z"/>
<path class="st6" d="M390.9,472.3H361c-1.2,0-2.2-1-2.2-2.2v-12.5h32L390.9,472.3L390.9,472.3z"/>
<g>
	<path class="st2" d="M361.5,472.3h29.4v-396h-29.4c-1.5,0-2.6,1.2-2.6,2.6v390.7C358.8,471.1,360,472.3,361.5,472.3z"/>
	<path class="st0" d="M400.6,64.8l7.9-9.7c0.8-1,2.3-0.9,3.1,0.1l7.9,9.6l9,11c0.3,0.4,0.5,0.9,0.5,1.4v393c0,1.2-1,2.2-2.2,2.2H391
		V77.1c0-0.5,0.2-1,0.5-1.4L400.6,64.8z"/>
	<g>
		<path class="st4" d="M413.7,107.7h5.6c1,0,1.8-0.8,1.8-1.8V92c0-1-0.8-1.8-1.8-1.8h-5.6c-1,0-1.8,0.8-1.8,1.8v13.9
			C411.9,106.9,412.7,107.7,413.7,107.7z"/>
	</g>
	<g>
		<path class="st4" d="M397.1,107.7h5.6c1,0,1.8-0.8,1.8-1.8V92c0-1-0.8-1.8-1.8-1.8h-5.6c-1,0-1.8,0.8-1.8,1.8v13.9
			C395.3,106.9,396.1,107.7,397.1,107.7z"/>
	</g>
	<g>
		<path class="st4" d="M413.7,144.6h5.6c1,0,1.8-0.8,1.8-1.8v-13.9c0-1-0.8-1.8-1.8-1.8h-5.6c-1,0-1.8,0.8-1.8,1.8v13.9
			C411.9,143.8,412.7,144.6,413.7,144.6z"/>
	</g>
	<g>
		<path class="st4" d="M397.1,144.6h5.6c1,0,1.8-0.8,1.8-1.8v-13.9c0-1-0.8-1.8-1.8-1.8h-5.6c-1,0-1.8,0.8-1.8,1.8v13.9
			C395.3,143.8,396.1,144.6,397.1,144.6z"/>
	</g>
	<g>
		<path class="st4" d="M413.7,180.7h5.6c1,0,1.8-0.8,1.8-1.8V165c0-1-0.8-1.8-1.8-1.8h-5.6c-1,0-1.8,0.8-1.8,1.8v13.9
			C411.9,179.9,412.7,180.7,413.7,180.7z"/>
	</g>
	<g>
		<path class="st4" d="M397.1,180.6h5.6c1,0,1.8-0.8,1.8-1.8v-13.9c0-1-0.8-1.8-1.8-1.8h-5.6c-1,0-1.8,0.8-1.8,1.8v13.9
			C395.3,179.8,396.1,180.6,397.1,180.6z"/>
	</g>
	<g>
		<path class="st4" d="M413.7,217.6h5.6c1,0,1.8-0.8,1.8-1.8v-13.9c0-1-0.8-1.8-1.8-1.8h-5.6c-1,0-1.8,0.8-1.8,1.8v13.9
			C411.9,216.8,412.7,217.6,413.7,217.6z"/>
	</g>
	<g>
		<path class="st4" d="M397.1,217.5h5.6c1,0,1.8-0.8,1.8-1.8v-13.9c0-1-0.8-1.8-1.8-1.8h-5.6c-1,0-1.8,0.8-1.8,1.8v13.9
			C395.3,216.7,396.1,217.5,397.1,217.5z"/>
	</g>
	<g>
		<path class="st4" d="M413.7,254.3h5.5c1,0,1.8-0.8,1.8-1.8V239c0-1-0.8-1.8-1.8-1.8h-5.5c-1,0-1.8,0.8-1.8,1.8v13.5
			C411.9,253.5,412.7,254.3,413.7,254.3z"/>
	</g>
	<g>
		<path class="st4" d="M397.1,254.6h5.6c1,0,1.8-0.8,1.8-1.8v-13.9c0-1-0.8-1.8-1.8-1.8h-5.6c-1,0-1.8,0.8-1.8,1.8v13.9
			C395.3,253.8,396.1,254.6,397.1,254.6z"/>
	</g>
	<g>
		<path class="st4" d="M413.7,292.2h5.5c1,0,1.8-0.8,1.8-1.8v-13.5c0-1-0.8-1.8-1.8-1.8h-5.5c-1,0-1.8,0.8-1.8,1.8v13.5
			C411.9,291.4,412.7,292.2,413.7,292.2z"/>
	</g>
	<g>
		<path class="st4" d="M397.1,292.5h5.6c1,0,1.8-0.8,1.8-1.8v-13.9c0-1-0.8-1.8-1.8-1.8h-5.6c-1,0-1.8,0.8-1.8,1.8v13.9
			C395.3,291.7,396.1,292.5,397.1,292.5z"/>
	</g>
	<g>
		<path class="st4" d="M413.7,330.7h5.6c1,0,1.8-0.8,1.8-1.8V315c0-1-0.8-1.8-1.8-1.8h-5.6c-1,0-1.8,0.8-1.8,1.8v13.9
			C411.9,329.9,412.7,330.7,413.7,330.7z"/>
	</g>
	<g>
		<path class="st4" d="M397.1,330.1h5.5c1,0,1.8-0.8,1.8-1.8v-13.5c0-1-0.8-1.8-1.8-1.8h-5.5c-1,0-1.8,0.8-1.8,1.8v13.5
			C395.3,329.3,396.1,330.1,397.1,330.1z"/>
	</g>
	<g>
		<path class="st4" d="M413.7,368.6h5.6c1,0,1.8-0.8,1.8-1.8v-13.9c0-1-0.8-1.8-1.8-1.8h-5.6c-1,0-1.8,0.8-1.8,1.8v13.9
			C411.9,367.8,412.7,368.6,413.7,368.6z"/>
	</g>
	<g>
		<path class="st4" d="M397.1,368h5.5c1,0,1.8-0.8,1.8-1.8v-13.5c0-1-0.8-1.8-1.8-1.8h-5.5c-1,0-1.8,0.8-1.8,1.8v13.5
			C395.3,367.3,396.1,368,397.1,368z"/>
	</g>
	<g>
		<path class="st4" d="M413.7,404.9h5.6c1,0,1.8-0.8,1.8-1.8v-13.9c0-1-0.8-1.8-1.8-1.8h-5.6c-1,0-1.8,0.8-1.8,1.8v13.9
			C411.9,404.1,412.7,404.9,413.7,404.9z"/>
	</g>
	<g>
		<path class="st4" d="M397.1,405.3h5.5c1,0,1.8-0.8,1.8-1.8V389c0-1-0.8-1.8-1.8-1.8h-5.5c-1,0-1.8,0.8-1.8,1.8v14.6
			C395.3,404.5,396.1,405.3,397.1,405.3z"/>
	</g>
	<g>
		<path class="st4" d="M413.7,441.8h5.6c1,0,1.8-0.8,1.8-1.8v-13.9c0-1-0.8-1.8-1.8-1.8h-5.6c-1,0-1.8,0.8-1.8,1.8V440
			C411.9,441,412.7,441.8,413.7,441.8z"/>
	</g>
	<g>
		<path class="st4" d="M397.1,441.7h5.6c1,0,1.8-0.8,1.8-1.8V426c0-1-0.8-1.8-1.8-1.8h-5.6c-1,0-1.8,0.8-1.8,1.8v13.9
			C395.3,440.9,396.1,441.7,397.1,441.7z"/>
	</g>
	<g>
		<path class="st4" d="M380.7,107.7h5.6c1,0,1.8-0.8,1.8-1.8V92c0-1-0.8-1.8-1.8-1.8h-5.6c-1,0-1.8,0.8-1.8,1.8v13.9
			C378.9,106.9,379.7,107.7,380.7,107.7z"/>
	</g>
	<g>
		<path class="st4" d="M364.1,107.7h5.6c1,0,1.8-0.8,1.8-1.8V92c0-1-0.8-1.8-1.8-1.8h-5.6c-1,0-1.8,0.8-1.8,1.8v13.9
			C362.3,106.9,363.1,107.7,364.1,107.7z"/>
	</g>
	<g>
		<path class="st4" d="M380.7,144.6h5.6c1,0,1.8-0.8,1.8-1.8v-13.9c0-1-0.8-1.8-1.8-1.8h-5.6c-1,0-1.8,0.8-1.8,1.8v13.9
			C378.9,143.8,379.7,144.6,380.7,144.6z"/>
	</g>
	<g>
		<path class="st4" d="M364.1,144.6h5.6c1,0,1.8-0.8,1.8-1.8v-13.9c0-1-0.8-1.8-1.8-1.8h-5.6c-1,0-1.8,0.8-1.8,1.8v13.9
			C362.3,143.8,363.1,144.6,364.1,144.6z"/>
	</g>
	<g>
		<path class="st4" d="M380.7,180.7h5.6c1,0,1.8-0.8,1.8-1.8V165c0-1-0.8-1.8-1.8-1.8h-5.6c-1,0-1.8,0.8-1.8,1.8v13.9
			C378.9,179.9,379.7,180.7,380.7,180.7z"/>
	</g>
	<g>
		<path class="st4" d="M364.1,180.6h5.6c1,0,1.8-0.8,1.8-1.8v-13.9c0-1-0.8-1.8-1.8-1.8h-5.6c-1,0-1.8,0.8-1.8,1.8v13.9
			C362.3,179.8,363.1,180.6,364.1,180.6z"/>
	</g>
	<g>
		<path class="st4" d="M380.7,217.6h5.6c1,0,1.8-0.8,1.8-1.8v-13.9c0-1-0.8-1.8-1.8-1.8h-5.6c-1,0-1.8,0.8-1.8,1.8v13.9
			C378.9,216.8,379.7,217.6,380.7,217.6z"/>
	</g>
	<g>
		<path class="st4" d="M364.1,217.5h5.6c1,0,1.8-0.8,1.8-1.8v-13.9c0-1-0.8-1.8-1.8-1.8h-5.6c-1,0-1.8,0.8-1.8,1.8v13.9
			C362.3,216.7,363.1,217.5,364.1,217.5z"/>
	</g>
	<g>
		<path class="st4" d="M380.7,254.3h5.5c1,0,1.8-0.8,1.8-1.8V239c0-1-0.8-1.8-1.8-1.8h-5.5c-1,0-1.8,0.8-1.8,1.8v13.5
			C378.9,253.5,379.7,254.3,380.7,254.3z"/>
	</g>
	<g>
		<path class="st4" d="M364.1,254.6h5.6c1,0,1.8-0.8,1.8-1.8v-13.9c0-1-0.8-1.8-1.8-1.8h-5.6c-1,0-1.8,0.8-1.8,1.8v13.9
			C362.3,253.8,363.1,254.6,364.1,254.6z"/>
	</g>
	<g>
		<path class="st4" d="M380.7,292.2h5.5c1,0,1.8-0.8,1.8-1.8v-13.5c0-1-0.8-1.8-1.8-1.8h-5.5c-1,0-1.8,0.8-1.8,1.8v13.5
			C378.9,291.4,379.7,292.2,380.7,292.2z"/>
	</g>
	<g>
		<path class="st4" d="M364.1,292.5h5.6c1,0,1.8-0.8,1.8-1.8v-13.9c0-1-0.8-1.8-1.8-1.8h-5.6c-1,0-1.8,0.8-1.8,1.8v13.9
			C362.3,291.7,363.1,292.5,364.1,292.5z"/>
	</g>
	<g>
		<path class="st4" d="M380.7,330.7h5.6c1,0,1.8-0.8,1.8-1.8V315c0-1-0.8-1.8-1.8-1.8h-5.6c-1,0-1.8,0.8-1.8,1.8v13.9
			C378.9,329.9,379.7,330.7,380.7,330.7z"/>
	</g>
	<g>
		<path class="st4" d="M364.1,330.1h5.5c1,0,1.8-0.8,1.8-1.8v-13.5c0-1-0.8-1.8-1.8-1.8h-5.5c-1,0-1.8,0.8-1.8,1.8v13.5
			C362.3,329.3,363.1,330.1,364.1,330.1z"/>
	</g>
	<g>
		<path class="st4" d="M380.7,368.6h5.6c1,0,1.8-0.8,1.8-1.8v-13.9c0-1-0.8-1.8-1.8-1.8h-5.6c-1,0-1.8,0.8-1.8,1.8v13.9
			C378.9,367.8,379.7,368.6,380.7,368.6z"/>
	</g>
	<g>
		<path class="st4" d="M364.1,368h5.5c1,0,1.8-0.8,1.8-1.8v-13.5c0-1-0.8-1.8-1.8-1.8h-5.5c-1,0-1.8,0.8-1.8,1.8v13.5
			C362.3,367.3,363.1,368,364.1,368z"/>
	</g>
	<g>
		<path class="st4" d="M380.7,404.9h5.6c1,0,1.8-0.8,1.8-1.8v-13.9c0-1-0.8-1.8-1.8-1.8h-5.6c-1,0-1.8,0.8-1.8,1.8v13.9
			C378.9,404.1,379.7,404.9,380.7,404.9z"/>
	</g>
	<g>
		<path class="st4" d="M364.1,405.3h5.5c1,0,1.8-0.8,1.8-1.8V389c0-1-0.8-1.8-1.8-1.8h-5.5c-1,0-1.8,0.8-1.8,1.8v14.6
			C362.3,404.5,363.1,405.3,364.1,405.3z"/>
	</g>
	<g>
		<path class="st4" d="M380.7,441.8h5.6c1,0,1.8-0.8,1.8-1.8v-13.9c0-1-0.8-1.8-1.8-1.8h-5.6c-1,0-1.8,0.8-1.8,1.8V440
			C378.9,441,379.7,441.8,380.7,441.8z"/>
	</g>
	<g>
		<path class="st4" d="M364.1,441.7h5.6c1,0,1.8-0.8,1.8-1.8V426c0-1-0.8-1.8-1.8-1.8h-5.6c-1,0-1.8,0.8-1.8,1.8v13.9
			C362.3,440.9,363.1,441.7,364.1,441.7z"/>
	</g>
	<path class="st5" d="M362.3,80.2h26.8c0.9,0,1.7-0.4,2.3-1l19.2-21c1.7-1.8,0.3-4.7-2.3-4.7h-26.8c-0.9,0-1.7,0.4-2.3,1l-19.2,21
		C358.3,77.3,359.7,80.2,362.3,80.2z"/>
	<path class="st0" d="M383.7,61.8h7.8c0.6,0,1-0.5,1-1V49.9h-9.9v10.9C382.7,61.3,383.2,61.8,383.7,61.8z"/>
	<path class="st2" d="M383.8,61.8h3.9V49.9h-4.9v10.8C382.7,61.3,383.2,61.8,383.8,61.8z"/>
	<path class="st0" d="M381.7,49.9h11.9c0.4,0,0.8-0.4,0.8-0.8v-1.5c0-0.4-0.4-0.8-0.8-0.8h-11.9c-0.4,0-0.8,0.4-0.8,0.8v1.5
		C380.9,49.6,381.3,49.9,381.7,49.9z"/>
	<path class="st2" d="M381.7,49.9h5.9v-3h-5.9c-0.5,0-0.8,0.4-0.8,0.8v1.4C380.9,49.5,381.3,49.9,381.7,49.9z"/>
</g>
<g>
	<path class="st0" d="M1135.5,473.7h-50.8c-3,0-5.3-3.9-5.3-8.7V314.3c0-2.7,0.8-5.3,2.1-6.9l20.9-26.1c1.8-2.3,4.3-2.4,6.2-0.4
		l27,29.1L1135.5,473.7L1135.5,473.7L1135.5,473.7z"/>
	<path class="st2" d="M1184.3,473.7h-48.8V310.1h48.8c4.1,0,7.3,3.3,7.3,7.3v149C1191.7,470.4,1188.4,473.7,1184.3,473.7z"/>
	<g>
		<path class="st4" d="M1149.9,344.7h-5.6c-1,0-1.8-0.8-1.8-1.8V329c0-1,0.8-1.8,1.8-1.8h5.6c1,0,1.8,0.8,1.8,1.8v13.9
			C1151.7,344,1150.9,344.7,1149.9,344.7z"/>
	</g>
	<g>
		<path class="st4" d="M1149.9,381.7h-5.6c-1,0-1.8-0.8-1.8-1.8V366c0-1,0.8-1.8,1.8-1.8h5.6c1,0,1.8,0.8,1.8,1.8v13.9
			C1151.7,380.9,1150.9,381.7,1149.9,381.7z"/>
	</g>
	<g>
		<path class="st4" d="M1166.3,344.7h-5.6c-1,0-1.8-0.8-1.8-1.8V329c0-1,0.8-1.8,1.8-1.8h5.6c1,0,1.8,0.8,1.8,1.8v13.9
			C1168.1,343.9,1167.3,344.7,1166.3,344.7z"/>
	</g>
	<g>
		<path class="st4" d="M1182.9,344.7h-5.6c-1,0-1.8-0.8-1.8-1.8V329c0-1,0.8-1.8,1.8-1.8h5.6c1,0,1.8,0.8,1.8,1.8v13.9
			C1184.7,344,1183.9,344.7,1182.9,344.7z"/>
	</g>
	<g>
		<path class="st4" d="M1166.3,381.7h-5.6c-1,0-1.8-0.8-1.8-1.8V366c0-1,0.8-1.8,1.8-1.8h5.6c1,0,1.8,0.8,1.8,1.8v13.9
			C1168.1,380.9,1167.3,381.7,1166.3,381.7z"/>
	</g>
	<g>
		<path class="st4" d="M1182.9,381.7h-5.6c-1,0-1.8-0.8-1.8-1.8V366c0-1,0.8-1.8,1.8-1.8h5.6c1,0,1.8,0.8,1.8,1.8v13.9
			C1184.7,380.9,1183.9,381.7,1182.9,381.7z"/>
	</g>
	<g>
		<path class="st4" d="M1149.9,417.1h-5.6c-1,0-1.8-0.8-1.8-1.8v-13.9c0-1,0.8-1.8,1.8-1.8h5.6c1,0,1.8,0.8,1.8,1.8v13.9
			C1151.7,416.3,1150.9,417.1,1149.9,417.1z"/>
	</g>
	<g>
		<path class="st4" d="M1149.9,454h-5.6c-1,0-1.8-0.8-1.8-1.8v-13.9c0-1,0.8-1.8,1.8-1.8h5.6c1,0,1.8,0.8,1.8,1.8v13.9
			C1151.7,453.2,1150.9,454,1149.9,454z"/>
	</g>
	<g>
		<path class="st4" d="M1166.3,417.1h-5.6c-1,0-1.8-0.8-1.8-1.8v-13.9c0-1,0.8-1.8,1.8-1.8h5.6c1,0,1.8,0.8,1.8,1.8v13.9
			C1168.1,416.3,1167.3,417.1,1166.3,417.1z"/>
	</g>
	<g>
		<path class="st4" d="M1182.9,417.1h-5.6c-1,0-1.8-0.8-1.8-1.8v-13.9c0-1,0.8-1.8,1.8-1.8h5.6c1,0,1.8,0.8,1.8,1.8v13.9
			C1184.7,416.3,1183.9,417.1,1182.9,417.1z"/>
	</g>
	<g>
		<path class="st4" d="M1166.3,454h-5.6c-1,0-1.8-0.8-1.8-1.8v-13.9c0-1,0.8-1.8,1.8-1.8h5.6c1,0,1.8,0.8,1.8,1.8v13.9
			C1168.1,453.2,1167.3,454,1166.3,454z"/>
	</g>
	<g>
		<path class="st4" d="M1182.9,454h-5.6c-1,0-1.8-0.8-1.8-1.8v-13.9c0-1,0.8-1.8,1.8-1.8h5.6c1,0,1.8,0.8,1.8,1.8v13.9
			C1184.7,453.2,1183.9,454,1182.9,454z"/>
	</g>
	<g>
		<path class="st4" d="M1093.7,344.7h-5.6c-1,0-1.8-0.8-1.8-1.8V329c0-1,0.8-1.8,1.8-1.8h5.6c1,0,1.8,0.8,1.8,1.8v13.9
			C1095.5,344,1094.7,344.7,1093.7,344.7z"/>
	</g>
	<g>
		<path class="st4" d="M1093.7,381.7h-5.6c-1,0-1.8-0.8-1.8-1.8V366c0-1,0.8-1.8,1.8-1.8h5.6c1,0,1.8,0.8,1.8,1.8v13.9
			C1095.5,380.9,1094.7,381.7,1093.7,381.7z"/>
	</g>
	<g>
		<path class="st4" d="M1110.1,344.7h-5.6c-1,0-1.8-0.8-1.8-1.8V329c0-1,0.8-1.8,1.8-1.8h5.6c1,0,1.8,0.8,1.8,1.8v13.9
			C1111.9,343.9,1111.1,344.7,1110.1,344.7z"/>
	</g>
	<g>
		<path class="st4" d="M1126.7,344.7h-5.6c-1,0-1.8-0.8-1.8-1.8V329c0-1,0.8-1.8,1.8-1.8h5.6c1,0,1.8,0.8,1.8,1.8v13.9
			C1128.5,344,1127.7,344.7,1126.7,344.7z"/>
	</g>
	<g>
		<path class="st4" d="M1110.1,381.7h-5.6c-1,0-1.8-0.8-1.8-1.8V366c0-1,0.8-1.8,1.8-1.8h5.6c1,0,1.8,0.8,1.8,1.8v13.9
			C1111.9,380.9,1111.1,381.7,1110.1,381.7z"/>
	</g>
	<g>
		<path class="st4" d="M1126.7,381.7h-5.6c-1,0-1.8-0.8-1.8-1.8V366c0-1,0.8-1.8,1.8-1.8h5.6c1,0,1.8,0.8,1.8,1.8v13.9
			C1128.5,380.9,1127.7,381.7,1126.7,381.7z"/>
	</g>
	<g>
		<path class="st4" d="M1093.7,417.1h-5.6c-1,0-1.8-0.8-1.8-1.8v-13.9c0-1,0.8-1.8,1.8-1.8h5.6c1,0,1.8,0.8,1.8,1.8v13.9
			C1095.5,416.3,1094.7,417.1,1093.7,417.1z"/>
	</g>
	<g>
		<path class="st4" d="M1093.7,454h-5.6c-1,0-1.8-0.8-1.8-1.8v-13.9c0-1,0.8-1.8,1.8-1.8h5.6c1,0,1.8,0.8,1.8,1.8v13.9
			C1095.5,453.2,1094.7,454,1093.7,454z"/>
	</g>
	<g>
		<path class="st4" d="M1110.1,417.1h-5.6c-1,0-1.8-0.8-1.8-1.8v-13.9c0-1,0.8-1.8,1.8-1.8h5.6c1,0,1.8,0.8,1.8,1.8v13.9
			C1111.9,416.3,1111.1,417.1,1110.1,417.1z"/>
	</g>
	<g>
		<path class="st4" d="M1126.7,417.1h-5.6c-1,0-1.8-0.8-1.8-1.8v-13.9c0-1,0.8-1.8,1.8-1.8h5.6c1,0,1.8,0.8,1.8,1.8v13.9
			C1128.5,416.3,1127.7,417.1,1126.7,417.1z"/>
	</g>
	<g>
		<path class="st4" d="M1110.1,454h-5.6c-1,0-1.8-0.8-1.8-1.8v-13.9c0-1,0.8-1.8,1.8-1.8h5.6c1,0,1.8,0.8,1.8,1.8v13.9
			C1111.9,453.2,1111.1,454,1110.1,454z"/>
	</g>
	<g>
		<path class="st4" d="M1126.7,454h-5.6c-1,0-1.8-0.8-1.8-1.8v-13.9c0-1,0.8-1.8,1.8-1.8h5.6c1,0,1.8,0.8,1.8,1.8v13.9
			C1128.5,453.2,1127.7,454,1126.7,454z"/>
	</g>
	<path class="st5" d="M1183.7,313.3h-45c-1.5,0-2.9-0.5-3.9-1.3l-32.3-28.3c-2.8-2.5-0.5-6.3,3.9-6.3h45c1.5,0,2.9,0.5,3.9,1.3
		l32.3,28.3C1190.5,309.5,1188.1,313.3,1183.7,313.3z"/>
	<path class="st2" d="M1135.5,473.7h-49.3c-3.8,0-6.9-3.1-6.9-6.9v-7.1h56.2V473.7z"/>
	<path class="st6" d="M1135.5,473.7h49.3c3.8,0,6.9-3.1,6.9-6.9v-7.1h-56.2V473.7z"/>
	<path class="st0" d="M1151.1,294h-17.2c-0.6,0-1-0.5-1-1v-22.1h19.2V293C1152.1,293.6,1151.6,294,1151.1,294z"/>
	<path class="st2" d="M1151,294h-8.6v-23.1h9.6v22C1152.1,293.5,1151.6,294,1151,294z"/>
	<path class="st0" d="M1154.9,273.9h-24.7c-0.4,0-0.8-0.4-0.8-0.8v-4.3c0-0.4,0.4-0.8,0.8-0.8h24.7c0.4,0,0.8,0.4,0.8,0.8v4.3
		C1155.6,273.5,1155.3,273.9,1154.9,273.9z"/>
	<path class="st2" d="M1154.8,273.9h-12.3V268h12.3c0.5,0,0.8,0.4,0.8,0.8v4.2C1155.6,273.5,1155.3,273.9,1154.8,273.9z"/>
</g>
<g>
	<path class="st0" d="M950.7,469.6H898c-3.1,0-5.5-4-5.5-9V304.4c0-2.8,0.8-5.4,2.2-7.2l21.7-27.1c1.9-2.3,4.5-2.5,6.4-0.4l28,30.2
		v169.7H950.7z"/>
	<path class="st2" d="M1001.6,469.6h-50.9V299.9h50.9c4.1,0,7.3,3.3,7.3,7.3v155C1008.9,466.3,1005.6,469.6,1001.6,469.6z"/>
	<g>
		<path class="st4" d="M965.7,335.9h-6c-1,0-1.8-0.8-1.8-1.8v-14.6c0-1,0.8-1.8,1.8-1.8h6c1,0,1.8,0.8,1.8,1.8v14.6
			C967.4,335.1,966.6,335.9,965.7,335.9z"/>
	</g>
	<g>
		<path class="st4" d="M965.7,374.2h-6c-1,0-1.8-0.8-1.8-1.8v-14.5c0-1,0.8-1.8,1.8-1.8h6c1,0,1.8,0.8,1.8,1.8v14.6
			C967.4,373.4,966.6,374.2,965.7,374.2z"/>
	</g>
	<g>
		<path class="st4" d="M982.7,335.9h-6c-1,0-1.8-0.8-1.8-1.8v-14.6c0-1,0.8-1.8,1.8-1.8h6c1,0,1.8,0.8,1.8,1.8v14.6
			C984.4,335.1,983.6,335.9,982.7,335.9z"/>
	</g>
	<g>
		<path class="st4" d="M999.9,335.9h-6c-1,0-1.8-0.8-1.8-1.8v-14.6c0-1,0.8-1.8,1.8-1.8h6c1,0,1.8,0.8,1.8,1.8v14.6
			C1001.7,335.1,1000.9,335.9,999.9,335.9z"/>
	</g>
	<g>
		<path class="st4" d="M982.7,374.2h-6c-1,0-1.8-0.8-1.8-1.8v-14.5c0-1,0.8-1.8,1.8-1.8h6c1,0,1.8,0.8,1.8,1.8v14.6
			C984.4,373.4,983.6,374.2,982.7,374.2z"/>
	</g>
	<g>
		<path class="st4" d="M999.9,374.2h-6c-1,0-1.8-0.8-1.8-1.8v-14.5c0-1,0.8-1.8,1.8-1.8h6c1,0,1.8,0.8,1.8,1.8v14.6
			C1001.7,373.4,1000.9,374.2,999.9,374.2z"/>
	</g>
	<g>
		<path class="st4" d="M965.7,410.9h-6c-1,0-1.8-0.8-1.8-1.8v-14.6c0-1,0.8-1.8,1.8-1.8h6c1,0,1.8,0.8,1.8,1.8v14.6
			C967.4,410.1,966.6,410.9,965.7,410.9z"/>
	</g>
	<g>
		<path class="st4" d="M965.7,449.2h-6c-1,0-1.8-0.8-1.8-1.8v-14.5c0-1,0.8-1.8,1.8-1.8h6c1,0,1.8,0.8,1.8,1.8v14.6
			C967.4,448.4,966.6,449.2,965.7,449.2z"/>
	</g>
	<g>
		<path class="st4" d="M982.7,410.9h-6c-1,0-1.8-0.8-1.8-1.8v-14.6c0-1,0.8-1.8,1.8-1.8h6c1,0,1.8,0.8,1.8,1.8v14.6
			C984.4,410.1,983.6,410.9,982.7,410.9z"/>
	</g>
	<g>
		<path class="st4" d="M999.9,410.9h-6c-1,0-1.8-0.8-1.8-1.8v-14.6c0-1,0.8-1.8,1.8-1.8h6c1,0,1.8,0.8,1.8,1.8v14.6
			C1001.7,410.1,1000.9,410.9,999.9,410.9z"/>
	</g>
	<g>
		<path class="st4" d="M982.7,449.2h-6c-1,0-1.8-0.8-1.8-1.8v-14.5c0-1,0.8-1.8,1.8-1.8h6c1,0,1.8,0.8,1.8,1.8v14.6
			C984.4,448.4,983.6,449.2,982.7,449.2z"/>
	</g>
	<g>
		<path class="st4" d="M999.9,449.2h-6c-1,0-1.8-0.8-1.8-1.8v-14.5c0-1,0.8-1.8,1.8-1.8h6c1,0,1.8,0.8,1.8,1.8v14.6
			C1001.7,448.4,1000.9,449.2,999.9,449.2z"/>
	</g>
	<g>
		<path class="st4" d="M907.4,335.9h-6c-1,0-1.8-0.8-1.8-1.8v-14.6c0-1,0.8-1.8,1.8-1.8h6c1,0,1.8,0.8,1.8,1.8v14.6
			C909.2,335.1,908.4,335.9,907.4,335.9z"/>
	</g>
	<g>
		<path class="st4" d="M907.4,374.2h-6c-1,0-1.8-0.8-1.8-1.8v-14.5c0-1,0.8-1.8,1.8-1.8h6c1,0,1.8,0.8,1.8,1.8v14.6
			C909.2,373.4,908.4,374.2,907.4,374.2z"/>
	</g>
	<g>
		<path class="st4" d="M924.4,335.9h-6c-1,0-1.8-0.8-1.8-1.8v-14.6c0-1,0.8-1.8,1.8-1.8h6c1,0,1.8,0.8,1.8,1.8v14.6
			C926.2,335.1,925.4,335.9,924.4,335.9z"/>
	</g>
	<g>
		<path class="st4" d="M941.6,335.9h-6c-1,0-1.8-0.8-1.8-1.8v-14.6c0-1,0.8-1.8,1.8-1.8h6c1,0,1.8,0.8,1.8,1.8v14.6
			C943.4,335.1,942.6,335.9,941.6,335.9z"/>
	</g>
	<g>
		<path class="st4" d="M924.4,374.2h-6c-1,0-1.8-0.8-1.8-1.8v-14.5c0-1,0.8-1.8,1.8-1.8h6c1,0,1.8,0.8,1.8,1.8v14.6
			C926.2,373.4,925.4,374.2,924.4,374.2z"/>
	</g>
	<g>
		<path class="st4" d="M941.6,374.2h-6c-1,0-1.8-0.8-1.8-1.8v-14.5c0-1,0.8-1.8,1.8-1.8h6c1,0,1.8,0.8,1.8,1.8v14.6
			C943.4,373.4,942.6,374.2,941.6,374.2z"/>
	</g>
	<g>
		<path class="st4" d="M907.4,410.9h-6c-1,0-1.8-0.8-1.8-1.8v-14.6c0-1,0.8-1.8,1.8-1.8h6c1,0,1.8,0.8,1.8,1.8v14.6
			C909.2,410.1,908.4,410.9,907.4,410.9z"/>
	</g>
	<g>
		<path class="st4" d="M907.4,449.2h-6c-1,0-1.8-0.8-1.8-1.8v-14.5c0-1,0.8-1.8,1.8-1.8h6c1,0,1.8,0.8,1.8,1.8v14.6
			C909.2,448.4,908.4,449.2,907.4,449.2z"/>
	</g>
	<g>
		<path class="st4" d="M924.4,410.9h-6c-1,0-1.8-0.8-1.8-1.8v-14.6c0-1,0.8-1.8,1.8-1.8h6c1,0,1.8,0.8,1.8,1.8v14.6
			C926.2,410.1,925.4,410.9,924.4,410.9z"/>
	</g>
	<g>
		<path class="st4" d="M941.6,410.9h-6c-1,0-1.8-0.8-1.8-1.8v-14.6c0-1,0.8-1.8,1.8-1.8h6c1,0,1.8,0.8,1.8,1.8v14.6
			C943.4,410.1,942.6,410.9,941.6,410.9z"/>
	</g>
	<g>
		<path class="st4" d="M924.4,449.2h-6c-1,0-1.8-0.8-1.8-1.8v-14.5c0-1,0.8-1.8,1.8-1.8h6c1,0,1.8,0.8,1.8,1.8v14.6
			C926.2,448.4,925.4,449.2,924.4,449.2z"/>
	</g>
	<g>
		<path class="st4" d="M941.6,449.2h-6c-1,0-1.8-0.8-1.8-1.8v-14.5c0-1,0.8-1.8,1.8-1.8h6c1,0,1.8,0.8,1.8,1.8v14.6
			C943.4,448.4,942.6,449.2,941.6,449.2z"/>
	</g>
	<path class="st5" d="M1000.7,303.3H954c-1.6,0-3-0.5-4.1-1.4l-33.5-29.3c-2.9-2.6-0.5-6.5,4.1-6.5h46.7c1.6,0,3,0.5,4.1,1.4
		l33.5,29.3C1007.7,299.3,1005.2,303.3,1000.7,303.3z"/>
	<path class="st2" d="M950.7,469.6h-51.3c-3.8,0-6.9-3.1-6.9-6.9V455h58.3L950.7,469.6L950.7,469.6z"/>
	<path class="st6" d="M950.7,469.6h51.3c3.8,0,6.9-3.1,6.9-6.9V455h-58.3L950.7,469.6L950.7,469.6z"/>
	<path class="st0" d="M966.9,283.3H949c-0.6,0-1-0.5-1-1v-22.9h19.9v22.9C967.9,282.8,967.4,283.3,966.9,283.3z"/>
	<path class="st2" d="M966.8,283.3h-8.9v-24h10v22.9C967.9,282.8,967.4,283.3,966.8,283.3z"/>
	<path class="st0" d="M970.8,262.4h-25.6c-0.4,0-0.8-0.4-0.8-0.8v-4.5c0-0.4,0.4-0.8,0.8-0.8h25.6c0.4,0,0.8,0.4,0.8,0.8v4.5
		C971.6,262.1,971.2,262.4,970.8,262.4z"/>
	<path class="st2" d="M970.7,262.4h-12.8v-6.1h12.8c0.5,0,0.8,0.4,0.8,0.8v4.5C971.6,262,971.2,262.4,970.7,262.4z"/>
</g>
<path class="st0" d="M530.9,476H586c3.2,0,5.8-4.2,5.8-9.4V303.3c0-2.9-0.8-5.7-2.3-7.5l-22.7-28.3c-2-2.5-4.7-2.6-6.7-0.4
	l-29.2,31.5L530.9,476L530.9,476z"/>
<path class="st2" d="M477.4,476h53.5V298.6h-53.5c-4.1,0-7.3,3.3-7.3,7.3v162.7C470,472.7,473.3,476,477.4,476z"/>
<g>
	<path class="st4" d="M515.2,336.2h6.4c1,0,1.8-0.8,1.8-1.8V319c0-1-0.8-1.8-1.8-1.8h-6.4c-1,0-1.8,0.8-1.8,1.8v15.4
		C513.4,335.4,514.2,336.2,515.2,336.2z"/>
</g>
<g>
	<path class="st4" d="M515.2,376.3h6.4c1,0,1.8-0.8,1.8-1.8v-15.4c0-1-0.8-1.8-1.8-1.8h-6.4c-1,0-1.8,0.8-1.8,1.8v15.4
		C513.4,375.5,514.2,376.3,515.2,376.3z"/>
</g>
<g>
	<path class="st4" d="M497.4,336.2h6.4c1,0,1.8-0.8,1.8-1.8V319c0-1-0.8-1.8-1.8-1.8h-6.4c-1,0-1.8,0.8-1.8,1.8v15.4
		C495.6,335.4,496.4,336.2,497.4,336.2z"/>
</g>
<g>
	<path class="st4" d="M479.4,336.2h6.4c1,0,1.8-0.8,1.8-1.8V319c0-1-0.8-1.8-1.8-1.8h-6.4c-1,0-1.8,0.8-1.8,1.8v15.4
		C477.6,335.4,478.4,336.2,479.4,336.2z"/>
</g>
<g>
	<path class="st4" d="M497.4,376.3h6.4c1,0,1.8-0.8,1.8-1.8v-15.4c0-1-0.8-1.8-1.8-1.8h-6.4c-1,0-1.8,0.8-1.8,1.8v15.4
		C495.6,375.5,496.4,376.3,497.4,376.3z"/>
</g>
<g>
	<path class="st4" d="M479.4,376.3h6.4c1,0,1.8-0.8,1.8-1.8v-15.4c0-1-0.8-1.8-1.8-1.8h-6.4c-1,0-1.8,0.8-1.8,1.8v15.4
		C477.6,375.5,478.4,376.3,479.4,376.3z"/>
</g>
<g>
	<path class="st4" d="M515.2,414.6h6.4c1,0,1.8-0.8,1.8-1.8v-15.4c0-1-0.8-1.8-1.8-1.8h-6.4c-1,0-1.8,0.8-1.8,1.8v15.4
		C513.4,413.8,514.2,414.6,515.2,414.6z"/>
</g>
<g>
	<path class="st4" d="M515.2,454.6h6.4c1,0,1.8-0.8,1.8-1.8v-15.4c0-1-0.8-1.8-1.8-1.8h-6.4c-1,0-1.8,0.8-1.8,1.8v15.4
		C513.4,453.9,514.2,454.6,515.2,454.6z"/>
</g>
<g>
	<path class="st4" d="M497.4,414.6h6.4c1,0,1.8-0.8,1.8-1.8v-15.4c0-1-0.8-1.8-1.8-1.8h-6.4c-1,0-1.8,0.8-1.8,1.8v15.4
		C495.6,413.8,496.4,414.6,497.4,414.6z"/>
</g>
<g>
	<path class="st4" d="M479.4,414.6h6.4c1,0,1.8-0.8,1.8-1.8v-15.4c0-1-0.8-1.8-1.8-1.8h-6.4c-1,0-1.8,0.8-1.8,1.8v15.4
		C477.6,413.8,478.4,414.6,479.4,414.6z"/>
</g>
<g>
	<path class="st4" d="M497.4,454.6h6.4c1,0,1.8-0.8,1.8-1.8v-15.4c0-1-0.8-1.8-1.8-1.8h-6.4c-1,0-1.8,0.8-1.8,1.8v15.4
		C495.6,453.8,496.4,454.6,497.4,454.6z"/>
</g>
<g>
	<path class="st4" d="M479.4,454.6h6.4c1,0,1.8-0.8,1.8-1.8v-15.4c0-1-0.8-1.8-1.8-1.8h-6.4c-1,0-1.8,0.8-1.8,1.8v15.4
		C477.6,453.9,478.4,454.6,479.4,454.6z"/>
</g>
<g>
	<path class="st4" d="M576,336.2h6.4c1,0,1.8-0.8,1.8-1.8V319c0-1-0.8-1.8-1.8-1.8H576c-1,0-1.8,0.8-1.8,1.8v15.4
		C574.3,335.4,575.1,336.2,576,336.2z"/>
</g>
<g>
	<path class="st4" d="M576,376.3h6.4c1,0,1.8-0.8,1.8-1.8v-15.4c0-1-0.8-1.8-1.8-1.8H576c-1,0-1.8,0.8-1.8,1.8v15.4
		C574.3,375.5,575.1,376.3,576,376.3z"/>
</g>
<g>
	<path class="st4" d="M558.3,336.2h6.4c1,0,1.8-0.8,1.8-1.8V319c0-1-0.8-1.8-1.8-1.8h-6.4c-1,0-1.8,0.8-1.8,1.8v15.4
		C556.5,335.4,557.3,336.2,558.3,336.2z"/>
</g>
<g>
	<path class="st4" d="M540.3,336.2h6.4c1,0,1.8-0.8,1.8-1.8V319c0-1-0.8-1.8-1.8-1.8h-6.4c-1,0-1.8,0.8-1.8,1.8v15.4
		C538.5,335.4,539.3,336.2,540.3,336.2z"/>
</g>
<g>
	<path class="st4" d="M558.3,376.3h6.4c1,0,1.8-0.8,1.8-1.8v-15.4c0-1-0.8-1.8-1.8-1.8h-6.4c-1,0-1.8,0.8-1.8,1.8v15.4
		C556.5,375.5,557.3,376.3,558.3,376.3z"/>
</g>
<g>
	<path class="st4" d="M540.3,376.3h6.4c1,0,1.8-0.8,1.8-1.8v-15.4c0-1-0.8-1.8-1.8-1.8h-6.4c-1,0-1.8,0.8-1.8,1.8v15.4
		C538.5,375.5,539.3,376.3,540.3,376.3z"/>
</g>
<g>
	<path class="st4" d="M576,414.6h6.4c1,0,1.8-0.8,1.8-1.8v-15.4c0-1-0.8-1.8-1.8-1.8H576c-1,0-1.8,0.8-1.8,1.8v15.4
		C574.3,413.8,575.1,414.6,576,414.6z"/>
</g>
<g>
	<path class="st4" d="M576,454.6h6.4c1,0,1.8-0.8,1.8-1.8v-15.4c0-1-0.8-1.8-1.8-1.8H576c-1,0-1.8,0.8-1.8,1.8v15.4
		C574.3,453.9,575.1,454.6,576,454.6z"/>
</g>
<g>
	<path class="st4" d="M558.3,414.6h6.4c1,0,1.8-0.8,1.8-1.8v-15.4c0-1-0.8-1.8-1.8-1.8h-6.4c-1,0-1.8,0.8-1.8,1.8v15.4
		C556.5,413.8,557.3,414.6,558.3,414.6z"/>
</g>
<g>
	<path class="st4" d="M540.3,414.6h6.4c1,0,1.8-0.8,1.8-1.8v-15.4c0-1-0.8-1.8-1.8-1.8h-6.4c-1,0-1.8,0.8-1.8,1.8v15.4
		C538.5,413.8,539.3,414.6,540.3,414.6z"/>
</g>
<g>
	<path class="st4" d="M558.3,454.6h6.4c1,0,1.8-0.8,1.8-1.8v-15.4c0-1-0.8-1.8-1.8-1.8h-6.4c-1,0-1.8,0.8-1.8,1.8v15.4
		C556.5,453.8,557.3,454.6,558.3,454.6z"/>
</g>
<g>
	<path class="st4" d="M540.3,454.6h6.4c1,0,1.8-0.8,1.8-1.8v-15.4c0-1-0.8-1.8-1.8-1.8h-6.4c-1,0-1.8,0.8-1.8,1.8v15.4
		C538.5,453.9,539.3,454.6,540.3,454.6z"/>
</g>
<path class="st6" d="M670.2,253.3H719c1.6,0,3.2-0.5,4.2-1.5l35-30.7c3.1-2.7,0.5-6.8-4.2-6.8h-48.8c-1.6,0-3.2,0.5-4.2,1.5
	l-35,30.7C662.8,249.2,665.4,253.3,670.2,253.3z"/>
<path class="st2" d="M530.9,476h54c3.8,0,6.9-3.1,6.9-6.9v-8.3h-60.9V476z"/>
<path class="st6" d="M530.9,476h-54c-3.8,0-6.9-3.1-6.9-6.9v-8.3h60.9V476z"/>
<path class="st0" d="M705.4,232.4h18.8c0.6,0,1-0.5,1-1v-24h-20.8v24C704.4,232,704.9,232.4,705.4,232.4z"/>
<path class="st2" d="M705.5,232.4h9.4v-25h-10.4v24C704.4,232,704.9,232.4,705.5,232.4z"/>
<path class="st0" d="M701.4,210.6h26.9c0.4,0,0.8-0.4,0.8-0.8V205c0-0.4-0.4-0.8-0.8-0.8h-26.9c-0.4,0-0.8,0.4-0.8,0.8v4.8
	C700.6,210.2,700.9,210.6,701.4,210.6z"/>
<path class="st2" d="M701.4,210.6h13.4v-6.4h-13.4c-0.5,0-0.8,0.4-0.8,0.8v4.7C700.6,210.2,700.9,210.6,701.4,210.6z"/>
<g>
	<path class="st7" d="M610,461.8h40.2c2.3,0,4.2-3,4.2-6.7V339.3c0-2.1-0.6-4-1.7-5.3l-16.5-20.1c-1.4-1.7-3.4-1.8-4.9-0.3L610,336
		V461.8L610,461.8z"/>
	<path class="st2" d="M570.7,466.2H610V336.7h-37.1c-4.1,0-7.3,3.3-7.3,7.3v117C565.6,463.9,567.9,466.2,570.7,466.2z"/>
	<g>
		<path class="st4" d="M599,364.2h3.7c1,0,1.8-0.8,1.8-1.8v-10.3c0-1-0.8-1.8-1.8-1.8H599c-1,0-1.8,0.8-1.8,1.8v10.3
			C597.2,363.4,598,364.2,599,364.2z"/>
	</g>
	<g>
		<path class="st4" d="M599,393.4h3.7c1,0,1.8-0.8,1.8-1.8v-10.3c0-1-0.8-1.8-1.8-1.8H599c-1,0-1.8,0.8-1.8,1.8v10.3
			C597.2,392.6,598,393.4,599,393.4z"/>
	</g>
	<g>
		<path class="st4" d="M586,364.2h3.7c1,0,1.8-0.8,1.8-1.8v-10.3c0-1-0.8-1.8-1.8-1.8H586c-1,0-1.8,0.8-1.8,1.8v10.3
			C584.2,363.4,585,364.2,586,364.2z"/>
	</g>
	<g>
		<path class="st4" d="M572.9,364.2h3.7c1,0,1.8-0.8,1.8-1.8v-10.3c0-1-0.8-1.8-1.8-1.8h-3.7c-1,0-1.8,0.8-1.8,1.8v10.3
			C571.1,363.4,571.9,364.2,572.9,364.2z"/>
	</g>
	<g>
		<path class="st4" d="M586,393.4h3.7c1,0,1.8-0.8,1.8-1.8v-10.3c0-1-0.8-1.8-1.8-1.8H586c-1,0-1.8,0.8-1.8,1.8v10.3
			C584.2,392.6,585,393.4,586,393.4z"/>
	</g>
	<g>
		<path class="st4" d="M572.9,393.4h3.7c1,0,1.8-0.8,1.8-1.8v-10.3c0-1-0.8-1.8-1.8-1.8h-3.7c-1,0-1.8,0.8-1.8,1.8v10.3
			C571.1,392.6,571.9,393.4,572.9,393.4z"/>
	</g>
	<g>
		<path class="st4" d="M599,421.4h3.7c1,0,1.8-0.8,1.8-1.8v-10.3c0-1-0.8-1.8-1.8-1.8H599c-1,0-1.8,0.8-1.8,1.8v10.3
			C597.2,420.6,598,421.4,599,421.4z"/>
	</g>
	<g>
		<path class="st4" d="M599,450.6h3.7c1,0,1.8-0.8,1.8-1.8v-10.3c0-1-0.8-1.8-1.8-1.8H599c-1,0-1.8,0.8-1.8,1.8v10.3
			C597.2,449.9,598,450.6,599,450.6z"/>
	</g>
	<g>
		<path class="st4" d="M586,421.4h3.7c1,0,1.8-0.8,1.8-1.8v-10.3c0-1-0.8-1.8-1.8-1.8H586c-1,0-1.8,0.8-1.8,1.8v10.3
			C584.2,420.6,585,421.4,586,421.4z"/>
	</g>
	<g>
		<path class="st4" d="M572.9,421.4h3.7c1,0,1.8-0.8,1.8-1.8v-10.3c0-1-0.8-1.8-1.8-1.8h-3.7c-1,0-1.8,0.8-1.8,1.8v10.3
			C571.1,420.6,571.9,421.4,572.9,421.4z"/>
	</g>
	<g>
		<path class="st4" d="M586,450.6h3.7c1,0,1.8-0.8,1.8-1.8v-10.3c0-1-0.8-1.8-1.8-1.8H586c-1,0-1.8,0.8-1.8,1.8v10.3
			C584.2,449.9,585,450.6,586,450.6z"/>
	</g>
	<g>
		<path class="st4" d="M572.9,450.6h3.7c1,0,1.8-0.8,1.8-1.8v-10.3c0-1-0.8-1.8-1.8-1.8h-3.7c-1,0-1.8,0.8-1.8,1.8v10.3
			C571.1,449.9,571.9,450.6,572.9,450.6z"/>
	</g>
	<g>
		<path class="st4" d="M643.4,364.2h3.7c1,0,1.8-0.8,1.8-1.8v-10.3c0-1-0.8-1.8-1.8-1.8h-3.7c-1,0-1.8,0.8-1.8,1.8v10.3
			C641.7,363.4,642.4,364.2,643.4,364.2z"/>
	</g>
	<g>
		<path class="st4" d="M643.4,393.4h3.7c1,0,1.8-0.8,1.8-1.8v-10.3c0-1-0.8-1.8-1.8-1.8h-3.7c-1,0-1.8,0.8-1.8,1.8v10.3
			C641.7,392.6,642.4,393.4,643.4,393.4z"/>
	</g>
	<g>
		<path class="st4" d="M630.4,364.2h3.7c1,0,1.8-0.8,1.8-1.8v-10.3c0-1-0.8-1.8-1.8-1.8h-3.7c-1,0-1.8,0.8-1.8,1.8v10.3
			C628.7,363.4,629.5,364.2,630.4,364.2z"/>
	</g>
	<g>
		<path class="st4" d="M617.3,364.2h3.7c1,0,1.8-0.8,1.8-1.8v-10.3c0-1-0.8-1.8-1.8-1.8h-3.7c-1,0-1.8,0.8-1.8,1.8v10.3
			C615.5,363.4,616.3,364.2,617.3,364.2z"/>
	</g>
	<g>
		<path class="st4" d="M630.4,393.4h3.7c1,0,1.8-0.8,1.8-1.8v-10.3c0-1-0.8-1.8-1.8-1.8h-3.7c-1,0-1.8,0.8-1.8,1.8v10.3
			C628.7,392.6,629.5,393.4,630.4,393.4z"/>
	</g>
	<g>
		<path class="st4" d="M617.3,393.4h3.7c1,0,1.8-0.8,1.8-1.8v-10.3c0-1-0.8-1.8-1.8-1.8h-3.7c-1,0-1.8,0.8-1.8,1.8v10.3
			C615.5,392.6,616.3,393.4,617.3,393.4z"/>
	</g>
	<g>
		<path class="st4" d="M643.4,421.4h3.7c1,0,1.8-0.8,1.8-1.8v-10.3c0-1-0.8-1.8-1.8-1.8h-3.7c-1,0-1.8,0.8-1.8,1.8v10.3
			C641.7,420.6,642.4,421.4,643.4,421.4z"/>
	</g>
	<g>
		<path class="st4" d="M643.4,450.6h3.7c1,0,1.8-0.8,1.8-1.8v-10.3c0-1-0.8-1.8-1.8-1.8h-3.7c-1,0-1.8,0.8-1.8,1.8v10.3
			C641.7,449.9,642.4,450.6,643.4,450.6z"/>
	</g>
	<g>
		<path class="st4" d="M630.4,421.4h3.7c1,0,1.8-0.8,1.8-1.8v-10.3c0-1-0.8-1.8-1.8-1.8h-3.7c-1,0-1.8,0.8-1.8,1.8v10.3
			C628.7,420.6,629.5,421.4,630.4,421.4z"/>
	</g>
	<g>
		<path class="st4" d="M617.3,421.4h3.7c1,0,1.8-0.8,1.8-1.8v-10.3c0-1-0.8-1.8-1.8-1.8h-3.7c-1,0-1.8,0.8-1.8,1.8v10.3
			C615.5,420.6,616.3,421.4,617.3,421.4z"/>
	</g>
	<g>
		<path class="st4" d="M630.4,450.6h3.7c1,0,1.8-0.8,1.8-1.8v-10.3c0-1-0.8-1.8-1.8-1.8h-3.7c-1,0-1.8,0.8-1.8,1.8v10.3
			C628.7,449.9,629.5,450.6,630.4,450.6z"/>
	</g>
	<g>
		<path class="st4" d="M617.3,450.6h3.7c1,0,1.8-0.8,1.8-1.8v-10.3c0-1-0.8-1.8-1.8-1.8h-3.7c-1,0-1.8,0.8-1.8,1.8v10.3
			C615.5,449.9,616.3,450.6,617.3,450.6z"/>
	</g>
	<path class="st5" d="M571.8,339.3h35.6c1.2,0,2.3-0.4,3.1-1.1l25.5-22.4c2.2-2,0.4-5-3.1-5h-35.6c-1.2,0-2.3,0.4-3.1,1.1
		l-25.5,22.4C566.5,336.3,568.4,339.3,571.8,339.3z"/>
	<path class="st2" d="M610,466.2h40.3c2.3,0,4.2-1.9,4.2-4.2v-6.9h-44.4L610,466.2L610,466.2L610,466.2z"/>
	<path class="st6" d="M610,466.2h-39.7c-2.6,0-4.7-2.1-4.7-4.7v-6.4H610V466.2L610,466.2z"/>
	<path class="st7" d="M597.9,324.1h13.2c0.6,0,1-0.5,1-1v-17.3h-15.2v17.3C596.9,323.6,597.3,324.1,597.9,324.1z"/>
	<path class="st2" d="M597.9,324.1h6.5v-18.3h-7.6V323C596.9,323.6,597.3,324.1,597.9,324.1z"/>
	<path class="st7" d="M594.8,308.1H614c0.4,0,0.8-0.4,0.8-0.8v-3.1c0-0.4-0.4-0.8-0.8-0.8h-19.2c-0.4,0-0.8,0.4-0.8,0.8v3.1
		C594.1,307.8,594.4,308.1,594.8,308.1z"/>
	<path class="st2" d="M594.9,308.1h9.5v-4.7h-9.5c-0.5,0-0.8,0.4-0.8,0.8v3C594.1,307.7,594.4,308.1,594.9,308.1z"/>
</g>
<g id="trees">
	<g>
		<line class="st9" x1="308.4" y1="486" x2="307.2" y2="581"/>
		<circle class="st10" cx="298.7" cy="477.8" r="19.2"/>
		<circle class="st10" cx="319.8" cy="461.7" r="11.9"/>
		<circle class="st10" cx="295.5" cy="513.3" r="8.8"/>
		<circle class="st10" cx="327.9" cy="484" r="14.1"/>
		<line class="st9" x1="307.7" y1="527.3" x2="295.4" y2="514.7"/>
		<line class="st9" x1="310.1" y1="509.5" x2="327.6" y2="492.8"/>
	</g>
	<g>
		<line class="st9" x1="572" y1="478" x2="572" y2="573"/>
		<circle class="st10" cx="562.2" cy="471" r="19.2"/>
		<circle class="st10" cx="583.2" cy="454.5" r="11.9"/>
		<circle class="st10" cx="559.5" cy="505.5" r="8.8"/>
		<circle class="st10" cx="591.5" cy="475.8" r="14.1"/>
		<line class="st9" x1="571.8" y1="519.3" x2="559.4" y2="506.9"/>
		<line class="st9" x1="574" y1="501.5" x2="591.3" y2="484.6"/>
	</g>
	<g>
		<line class="st9" x1="722" y1="474" x2="722" y2="534"/>
		<line class="st9" x1="722" y1="486.3" x2="733.1" y2="476.4"/>
		<circle class="st10" cx="715.1" cy="467.6" r="12.7"/>
		<circle class="st10" cx="734.6" cy="470.8" r="9.4"/>
		<circle class="st10" cx="734.7" cy="490.4" r="5.9"/>
		<line class="st9" x1="722" y1="498.3" x2="732.2" y2="491.9"/>
	</g>
	<g>
		<line class="st9" x1="994" y1="473" x2="994" y2="533"/>
		<line class="st9" x1="994" y1="485.3" x2="1005.1" y2="475.4"/>
		<circle class="st10" cx="987.1" cy="466.6" r="12.7"/>
		<circle class="st10" cx="1006.6" cy="469.8" r="9.4"/>
		<circle class="st10" cx="1006.7" cy="489.4" r="5.9"/>
		<line class="st9" x1="994" y1="497.3" x2="1004.2" y2="490.9"/>
	</g>
	<g>
		<line class="st9" x1="1224" y1="473" x2="1224" y2="557"/>
		<circle class="st10" cx="1215" cy="466.7" r="17"/>
		<circle class="st10" cx="1233.5" cy="452.2" r="10.5"/>
		<circle class="st10" cx="1212.6" cy="497.2" r="7.8"/>
		<circle class="st10" cx="1240.9" cy="470.9" r="12.5"/>
		<line class="st9" x1="1223.5" y1="509.5" x2="1212.5" y2="498.5"/>
		<line class="st9" x1="1225.4" y1="493.7" x2="1240.7" y2="478.8"/>
	</g>
	<g>
		<line class="st9" x1="466" y1="468" x2="466" y2="528"/>
		<line class="st9" x1="466" y1="480.3" x2="477.1" y2="470.4"/>
		<circle class="st10" cx="459.1" cy="461.6" r="12.7"/>
		<circle class="st10" cx="478.6" cy="464.8" r="9.4"/>
		<circle class="st10" cx="478.7" cy="484.4" r="5.9"/>
		<line class="st9" x1="466" y1="492.3" x2="476.2" y2="485.9"/>
	</g>
</g>
</svg>
