<?xml version="1.0" encoding="utf-8"?>
<!-- Generator: Adobe Illustrator 19.1.0, SVG Export Plug-In . SVG Version: 6.00 Build 0)  -->
<svg version="1.1" xmlns="http://www.w3.org/2000/svg" xmlns:xlink="http://www.w3.org/1999/xlink" x="0px" y="0px"
	 viewBox="0 0 820.8 363.2" style="enable-background:new 0 0 820.8 363.2;" xml:space="preserve">
<style type="text/css">
	.st0{display:none;}
	.st1{display:inline;fill:#31AA9B;}
	.st2{fill:#1B7989;}
	.st3{fill:none;stroke:#D89261;stroke-width:20;stroke-linecap:round;stroke-miterlimit:10;}
	.st4{fill:#4ACCC2;}
	.st5{fill:#18717A;}
	.st6{fill:#5B463B;}
	.st7{fill:#1C88A5;}
	.st8{fill:#D89261;}
	.st9{fill:none;stroke:#31AA9B;stroke-width:6;stroke-linecap:round;stroke-miterlimit:10;}
	.st10{fill:#31AA9B;}
</style>
<g id="Layer_2" class="st0">
	<rect x="0" y="-281.4" class="st1" width="1024" height="768"/>
</g>
<g id="Layer_3">
</g>
<g id="globen">
	<path class="st2" d="M541.3,351c5.4,0,9.7-4.5,9.4-9.8C545,234.8,457.7,152,350.9,152S156.7,234.8,151,341.2
		c-0.3,5.4,4,9.8,9.4,9.8H541.3z"/>
</g>
<g id="roads">
</g>
<g id="houses_back">
	<g>
		<g>
			<path class="st2" d="M614.1,320.1h12.6V114.2h-12.6c-1.5,0-2.6,1.2-2.6,2.6v200.6C611.5,318.9,612.6,320.1,614.1,320.1z"/>
			<path class="st4" d="M631.2,108.1l3.7-5c0.4-0.5,1.1-0.5,1.5,0l3.7,5l4.2,5.7c0.2,0.2,0.2,0.5,0.2,0.7v203.6
				c0,0.6-0.5,1.2-1.1,1.2h-16.9V114.5c0-0.3,0.1-0.5,0.2-0.7L631.2,108.1z"/>
			<g>
				<path class="st5" d="M638.4,130.5h0.8c1,0,1.8-0.8,1.8-1.8v-5.5c0-1-0.8-1.8-1.8-1.8h-0.8c-1,0-1.8,0.8-1.8,1.8v5.5
					C636.6,129.7,637.4,130.5,638.4,130.5z"/>
			</g>
			<g>
				<path class="st5" d="M630.5,130.5h0.8c1,0,1.8-0.8,1.8-1.8v-5.5c0-1-0.8-1.8-1.8-1.8h-0.8c-1,0-1.8,0.8-1.8,1.8v5.5
					C628.7,129.7,629.5,130.5,630.5,130.5z"/>
			</g>
			<g>
				<path class="st5" d="M638.4,149.7h0.8c1,0,1.8-0.8,1.8-1.8v-5.5c0-1-0.8-1.8-1.8-1.8h-0.8c-1,0-1.8,0.8-1.8,1.8v5.5
					C636.6,148.9,637.4,149.7,638.4,149.7z"/>
			</g>
			<g>
				<path class="st5" d="M630.5,149.7h0.8c1,0,1.8-0.8,1.8-1.8v-5.5c0-1-0.8-1.8-1.8-1.8h-0.8c-1,0-1.8,0.8-1.8,1.8v5.5
					C628.7,148.9,629.5,149.7,630.5,149.7z"/>
			</g>
			<g>
				<path class="st5" d="M638.4,168.4h0.8c1,0,1.8-0.8,1.8-1.8v-5.5c0-1-0.8-1.8-1.8-1.8h-0.8c-1,0-1.8,0.8-1.8,1.8v5.5
					C636.6,167.6,637.4,168.4,638.4,168.4z"/>
			</g>
			<g>
				<path class="st5" d="M630.5,168.4h0.8c1,0,1.8-0.8,1.8-1.8v-5.5c0-1-0.8-1.8-1.8-1.8h-0.8c-1,0-1.8,0.8-1.8,1.8v5.5
					C628.7,167.6,629.5,168.4,630.5,168.4z"/>
			</g>
			<g>
				<path class="st5" d="M638.4,187.6h0.8c1,0,1.8-0.8,1.8-1.8v-5.5c0-1-0.8-1.8-1.8-1.8h-0.8c-1,0-1.8,0.8-1.8,1.8v5.5
					C636.6,186.8,637.4,187.6,638.4,187.6z"/>
			</g>
			<g>
				<path class="st5" d="M630.5,187.6h0.8c1,0,1.8-0.8,1.8-1.8v-5.5c0-1-0.8-1.8-1.8-1.8h-0.8c-1,0-1.8,0.8-1.8,1.8v5.5
					C628.7,186.8,629.5,187.6,630.5,187.6z"/>
			</g>
			<g>
				<path class="st5" d="M638.4,206.7h0.7c1,0,1.8-0.8,1.8-1.8v-5.3c0-1-0.8-1.8-1.8-1.8h-0.7c-1,0-1.8,0.8-1.8,1.8v5.3
					C636.6,205.9,637.4,206.7,638.4,206.7z"/>
			</g>
			<g>
				<path class="st5" d="M630.5,206.9h0.8c1,0,1.8-0.8,1.8-1.8v-5.5c0-1-0.8-1.8-1.8-1.8h-0.8c-1,0-1.8,0.8-1.8,1.8v5.5
					C628.7,206.1,629.5,206.9,630.5,206.9z"/>
			</g>
			<g>
				<path class="st5" d="M638.4,226.4h0.7c1,0,1.8-0.8,1.8-1.8v-5.3c0-1-0.8-1.8-1.8-1.8h-0.7c-1,0-1.8,0.8-1.8,1.8v5.3
					C636.6,225.6,637.4,226.4,638.4,226.4z"/>
			</g>
			<g>
				<path class="st5" d="M630.5,226.6h0.8c1,0,1.8-0.8,1.8-1.8v-5.5c0-1-0.8-1.8-1.8-1.8h-0.8c-1,0-1.8,0.8-1.8,1.8v5.5
					C628.7,225.8,629.5,226.6,630.5,226.6z"/>
			</g>
			<g>
				<path class="st5" d="M638.4,246.4h0.8c1,0,1.8-0.8,1.8-1.8v-5.5c0-1-0.8-1.8-1.8-1.8h-0.8c-1,0-1.8,0.8-1.8,1.8v5.5
					C636.6,245.6,637.4,246.4,638.4,246.4z"/>
			</g>
			<g>
				<path class="st5" d="M630.5,246.1h0.7c1,0,1.8-0.8,1.8-1.8v-5.3c0-1-0.8-1.8-1.8-1.8h-0.7c-1,0-1.8,0.8-1.8,1.8v5.3
					C628.7,245.3,629.5,246.1,630.5,246.1z"/>
			</g>
			<g>
				<path class="st5" d="M638.4,266.1h0.8c1,0,1.8-0.8,1.8-1.8v-5.5c0-1-0.8-1.8-1.8-1.8h-0.8c-1,0-1.8,0.8-1.8,1.8v5.5
					C636.6,265.4,637.4,266.1,638.4,266.1z"/>
			</g>
			<g>
				<path class="st5" d="M630.5,265.8h0.7c1,0,1.8-0.8,1.8-1.8v-5.3c0-1-0.8-1.8-1.8-1.8h-0.7c-1,0-1.8,0.8-1.8,1.8v5.3
					C628.7,265.1,629.5,265.8,630.5,265.8z"/>
			</g>
			<g>
				<path class="st5" d="M638.4,285h0.8c1,0,1.8-0.8,1.8-1.8v-5.5c0-1-0.8-1.8-1.8-1.8h-0.8c-1,0-1.8,0.8-1.8,1.8v5.5
					C636.6,284.2,637.4,285,638.4,285z"/>
			</g>
			<g>
				<path class="st5" d="M630.5,285.2h0.7c1,0,1.8-0.8,1.8-1.8v-5.8c0-1-0.8-1.8-1.8-1.8h-0.7c-1,0-1.8,0.8-1.8,1.8v5.8
					C628.7,284.4,629.5,285.2,630.5,285.2z"/>
			</g>
			<g>
				<path class="st5" d="M638.4,304.2h0.8c1,0,1.8-0.8,1.8-1.8v-5.5c0-1-0.8-1.8-1.8-1.8h-0.8c-1,0-1.8,0.8-1.8,1.8v5.5
					C636.6,303.4,637.4,304.2,638.4,304.2z"/>
			</g>
			<g>
				<path class="st5" d="M630.5,304.2h0.8c1,0,1.8-0.8,1.8-1.8v-5.5c0-1-0.8-1.8-1.8-1.8h-0.8c-1,0-1.8,0.8-1.8,1.8v5.5
					C628.7,303.4,629.5,304.2,630.5,304.2z"/>
			</g>
			<g>
				<path class="st5" d="M622.7,130.5h0.8c1,0,1.8-0.8,1.8-1.8v-5.5c0-1-0.8-1.8-1.8-1.8h-0.8c-1,0-1.8,0.8-1.8,1.8v5.5
					C621,129.7,621.8,130.5,622.7,130.5z"/>
			</g>
			<g>
				<path class="st5" d="M614.9,130.5h0.8c1,0,1.8-0.8,1.8-1.8v-5.5c0-1-0.8-1.8-1.8-1.8h-0.8c-1,0-1.8,0.8-1.8,1.8v5.5
					C613.1,129.7,613.9,130.5,614.9,130.5z"/>
			</g>
			<g>
				<path class="st5" d="M622.7,149.7h0.8c1,0,1.8-0.8,1.8-1.8v-5.5c0-1-0.8-1.8-1.8-1.8h-0.8c-1,0-1.8,0.8-1.8,1.8v5.5
					C621,148.9,621.8,149.7,622.7,149.7z"/>
			</g>
			<g>
				<path class="st5" d="M614.9,149.7h0.8c1,0,1.8-0.8,1.8-1.8v-5.5c0-1-0.8-1.8-1.8-1.8h-0.8c-1,0-1.8,0.8-1.8,1.8v5.5
					C613.1,148.9,613.9,149.7,614.9,149.7z"/>
			</g>
			<g>
				<path class="st5" d="M622.7,168.4h0.8c1,0,1.8-0.8,1.8-1.8v-5.5c0-1-0.8-1.8-1.8-1.8h-0.8c-1,0-1.8,0.8-1.8,1.8v5.5
					C621,167.6,621.8,168.4,622.7,168.4z"/>
			</g>
			<g>
				<path class="st5" d="M614.9,168.4h0.8c1,0,1.8-0.8,1.8-1.8v-5.5c0-1-0.8-1.8-1.8-1.8h-0.8c-1,0-1.8,0.8-1.8,1.8v5.5
					C613.1,167.6,613.9,168.4,614.9,168.4z"/>
			</g>
			<g>
				<path class="st5" d="M622.7,187.6h0.8c1,0,1.8-0.8,1.8-1.8v-5.5c0-1-0.8-1.8-1.8-1.8h-0.8c-1,0-1.8,0.8-1.8,1.8v5.5
					C621,186.8,621.8,187.6,622.7,187.6z"/>
			</g>
			<g>
				<path class="st5" d="M614.9,187.6h0.8c1,0,1.8-0.8,1.8-1.8v-5.5c0-1-0.8-1.8-1.8-1.8h-0.8c-1,0-1.8,0.8-1.8,1.8v5.5
					C613.1,186.8,613.9,187.6,614.9,187.6z"/>
			</g>
			<g>
				<path class="st5" d="M622.7,206.7h0.7c1,0,1.8-0.8,1.8-1.8v-5.3c0-1-0.8-1.8-1.8-1.8h-0.7c-1,0-1.8,0.8-1.8,1.8v5.3
					C621,205.9,621.8,206.7,622.7,206.7z"/>
			</g>
			<g>
				<path class="st5" d="M614.9,206.9h0.8c1,0,1.8-0.8,1.8-1.8v-5.5c0-1-0.8-1.8-1.8-1.8h-0.8c-1,0-1.8,0.8-1.8,1.8v5.5
					C613.1,206.1,613.9,206.9,614.9,206.9z"/>
			</g>
			<g>
				<path class="st5" d="M622.7,226.4h0.7c1,0,1.8-0.8,1.8-1.8v-5.3c0-1-0.8-1.8-1.8-1.8h-0.7c-1,0-1.8,0.8-1.8,1.8v5.3
					C621,225.6,621.8,226.4,622.7,226.4z"/>
			</g>
			<g>
				<path class="st5" d="M614.9,226.6h0.8c1,0,1.8-0.8,1.8-1.8v-5.5c0-1-0.8-1.8-1.8-1.8h-0.8c-1,0-1.8,0.8-1.8,1.8v5.5
					C613.1,225.8,613.9,226.6,614.9,226.6z"/>
			</g>
			<g>
				<path class="st5" d="M622.7,246.4h0.8c1,0,1.8-0.8,1.8-1.8v-5.5c0-1-0.8-1.8-1.8-1.8h-0.8c-1,0-1.8,0.8-1.8,1.8v5.5
					C621,245.6,621.8,246.4,622.7,246.4z"/>
			</g>
			<g>
				<path class="st5" d="M614.9,246.1h0.7c1,0,1.8-0.8,1.8-1.8v-5.3c0-1-0.8-1.8-1.8-1.8h-0.7c-1,0-1.8,0.8-1.8,1.8v5.3
					C613.1,245.3,613.9,246.1,614.9,246.1z"/>
			</g>
			<g>
				<path class="st5" d="M622.7,266.1h0.8c1,0,1.8-0.8,1.8-1.8v-5.5c0-1-0.8-1.8-1.8-1.8h-0.8c-1,0-1.8,0.8-1.8,1.8v5.5
					C621,265.4,621.8,266.1,622.7,266.1z"/>
			</g>
			<g>
				<path class="st5" d="M614.9,265.8h0.7c1,0,1.8-0.8,1.8-1.8v-5.3c0-1-0.8-1.8-1.8-1.8h-0.7c-1,0-1.8,0.8-1.8,1.8v5.3
					C613.1,265.1,613.9,265.8,614.9,265.8z"/>
			</g>
			<g>
				<path class="st5" d="M622.7,285h0.8c1,0,1.8-0.8,1.8-1.8v-5.5c0-1-0.8-1.8-1.8-1.8h-0.8c-1,0-1.8,0.8-1.8,1.8v5.5
					C621,284.2,621.8,285,622.7,285z"/>
			</g>
			<g>
				<path class="st5" d="M614.9,285.2h0.7c1,0,1.8-0.8,1.8-1.8v-5.8c0-1-0.8-1.8-1.8-1.8h-0.7c-1,0-1.8,0.8-1.8,1.8v5.8
					C613.1,284.4,613.9,285.2,614.9,285.2z"/>
			</g>
			<g>
				<path class="st5" d="M622.7,304.2h0.8c1,0,1.8-0.8,1.8-1.8v-5.5c0-1-0.8-1.8-1.8-1.8h-0.8c-1,0-1.8,0.8-1.8,1.8v5.5
					C621,303.4,621.8,304.2,622.7,304.2z"/>
			</g>
			<g>
				<path class="st5" d="M614.9,304.2h0.8c1,0,1.8-0.8,1.8-1.8v-5.5c0-1-0.8-1.8-1.8-1.8h-0.8c-1,0-1.8,0.8-1.8,1.8v5.5
					C613.1,303.4,613.9,304.2,614.9,304.2z"/>
			</g>
			<path class="st6" d="M613.1,116.2h12.7c0.4,0,0.8-0.2,1.1-0.5l9.1-10.9c0.8-1,0.1-2.4-1.1-2.4h-12.7c-0.4,0-0.8,0.2-1.1,0.5
				l-9.1,10.9C611.2,114.7,611.9,116.2,613.1,116.2z"/>
			<path class="st2" d="M626.4,320.1h16.7c0.8,0,1.5-0.7,1.5-1.5v-6.1h-18.2V320.1z"/>
			<path class="st5" d="M626.6,320.1h-13c-1.2,0-2.2-1-2.2-2.2v-5.5h15.2V320.1z"/>
			<path class="st7" d="M623.8,106.6h2.6c0.6,0,1-0.5,1-1v-5.2h-4.7v5.2C622.8,106.1,623.2,106.6,623.8,106.6z"/>
			<path class="st2" d="M623.8,106.6h1.3v-6.2h-2.3v5.1C622.8,106.1,623.2,106.6,623.8,106.6z"/>
			<path class="st7" d="M622.7,100.4h4.8c0.4,0,0.8-0.4,0.8-0.8v0c0-0.4-0.4-0.8-0.8-0.8h-4.8c-0.4,0-0.8,0.4-0.8,0.8v0
				C621.9,100.1,622.3,100.4,622.7,100.4z"/>
			<path class="st2" d="M622.7,100.4h2.4v-1.6h-2.4c-0.4,0-0.8,0.4-0.8,0.8l0,0C621.9,100.1,622.3,100.4,622.7,100.4z"/>
		</g>
		<g>
			<path class="st2" d="M648.7,321.1h13.4V103.6h-13.4c-1.5,0-2.6,1.2-2.6,2.6v212.3C646,319.9,647.2,321.1,648.7,321.1z"/>
			<path class="st4" d="M666.9,97.2l3.9-5.3c0.4-0.5,1.1-0.5,1.5,0l3.9,5.3l4.5,6c0.2,0.2,0.3,0.5,0.3,0.8v215.1
				c0,0.7-0.5,1.2-1.1,1.2h-17.9V103.9c0-0.3,0.1-0.6,0.3-0.8L666.9,97.2z"/>
			<g>
				<path class="st5" d="M674.4,120.8h1.1c1,0,1.8-0.8,1.8-1.8V113c0-1-0.8-1.8-1.8-1.8h-1.1c-1,0-1.8,0.8-1.8,1.8v6.1
					C672.6,120,673.4,120.8,674.4,120.8z"/>
			</g>
			<g>
				<path class="st5" d="M666,120.8h1.1c1,0,1.8-0.8,1.8-1.8V113c0-1-0.8-1.8-1.8-1.8H666c-1,0-1.8,0.8-1.8,1.8v6.1
					C664.3,120,665.1,120.8,666,120.8z"/>
			</g>
			<g>
				<path class="st5" d="M674.4,141.1h1.1c1,0,1.8-0.8,1.8-1.8v-6.1c0-1-0.8-1.8-1.8-1.8h-1.1c-1,0-1.8,0.8-1.8,1.8v6.1
					C672.6,140.3,673.4,141.1,674.4,141.1z"/>
			</g>
			<g>
				<path class="st5" d="M666,141.1h1.1c1,0,1.8-0.8,1.8-1.8v-6.1c0-1-0.8-1.8-1.8-1.8H666c-1,0-1.8,0.8-1.8,1.8v6.1
					C664.3,140.3,665.1,141.1,666,141.1z"/>
			</g>
			<g>
				<path class="st5" d="M674.4,160.9h1.1c1,0,1.8-0.8,1.8-1.8V153c0-1-0.8-1.8-1.8-1.8h-1.1c-1,0-1.8,0.8-1.8,1.8v6.1
					C672.6,160.1,673.4,160.9,674.4,160.9z"/>
			</g>
			<g>
				<path class="st5" d="M666,160.8h1.1c1,0,1.8-0.8,1.8-1.8V153c0-1-0.8-1.8-1.8-1.8H666c-1,0-1.8,0.8-1.8,1.8v6.1
					C664.3,160,665.1,160.8,666,160.8z"/>
			</g>
			<g>
				<path class="st5" d="M674.4,181.2h1.1c1,0,1.8-0.8,1.8-1.8v-6.1c0-1-0.8-1.8-1.8-1.8h-1.1c-1,0-1.8,0.8-1.8,1.8v6.1
					C672.6,180.4,673.4,181.2,674.4,181.2z"/>
			</g>
			<g>
				<path class="st5" d="M666,181.1h1.1c1,0,1.8-0.8,1.8-1.8v-6.1c0-1-0.8-1.8-1.8-1.8H666c-1,0-1.8,0.8-1.8,1.8v6.1
					C664.3,180.3,665.1,181.1,666,181.1z"/>
			</g>
			<g>
				<path class="st5" d="M674.4,201.3h1c1,0,1.8-0.8,1.8-1.8v-5.8c0-1-0.8-1.8-1.8-1.8h-1c-1,0-1.8,0.8-1.8,1.8v5.8
					C672.6,200.5,673.4,201.3,674.4,201.3z"/>
			</g>
			<g>
				<path class="st5" d="M666,201.5h1.1c1,0,1.8-0.8,1.8-1.8v-6.1c0-1-0.8-1.8-1.8-1.8H666c-1,0-1.8,0.8-1.8,1.8v6.1
					C664.3,200.7,665.1,201.5,666,201.5z"/>
			</g>
			<g>
				<path class="st5" d="M674.4,222.1h1c1,0,1.8-0.8,1.8-1.8v-5.8c0-1-0.8-1.8-1.8-1.8h-1c-1,0-1.8,0.8-1.8,1.8v5.8
					C672.6,221.4,673.4,222.1,674.4,222.1z"/>
			</g>
			<g>
				<path class="st5" d="M666,222.3h1.1c1,0,1.8-0.8,1.8-1.8v-6.1c0-1-0.8-1.8-1.8-1.8H666c-1,0-1.8,0.8-1.8,1.8v6.1
					C664.3,221.5,665.1,222.3,666,222.3z"/>
			</g>
			<g>
				<path class="st5" d="M674.4,243.3h1.1c1,0,1.8-0.8,1.8-1.8v-6.1c0-1-0.8-1.8-1.8-1.8h-1.1c-1,0-1.8,0.8-1.8,1.8v6.1
					C672.6,242.5,673.4,243.3,674.4,243.3z"/>
			</g>
			<g>
				<path class="st5" d="M666,243h1c1,0,1.8-0.8,1.8-1.8v-5.8c0-1-0.8-1.8-1.8-1.8h-1c-1,0-1.8,0.8-1.8,1.8v5.8
					C664.3,242.2,665.1,243,666,243z"/>
			</g>
			<g>
				<path class="st5" d="M674.4,264.1h1.1c1,0,1.8-0.8,1.8-1.8v-6.1c0-1-0.8-1.8-1.8-1.8h-1.1c-1,0-1.8,0.8-1.8,1.8v6.1
					C672.6,263.3,673.4,264.1,674.4,264.1z"/>
			</g>
			<g>
				<path class="st5" d="M666,263.8h1c1,0,1.8-0.8,1.8-1.8v-5.8c0-1-0.8-1.8-1.8-1.8h-1c-1,0-1.8,0.8-1.8,1.8v5.8
					C664.3,263,665.1,263.8,666,263.8z"/>
			</g>
			<g>
				<path class="st5" d="M674.4,284.1h1.1c1,0,1.8-0.8,1.8-1.8v-6.1c0-1-0.8-1.8-1.8-1.8h-1.1c-1,0-1.8,0.8-1.8,1.8v6.1
					C672.6,283.3,673.4,284.1,674.4,284.1z"/>
			</g>
			<g>
				<path class="st5" d="M666,284.3h1c1,0,1.8-0.8,1.8-1.8v-6.4c0-1-0.8-1.8-1.8-1.8h-1c-1,0-1.8,0.8-1.8,1.8v6.4
					C664.3,283.5,665.1,284.3,666,284.3z"/>
			</g>
			<g>
				<path class="st5" d="M674.4,304.4h1.1c1,0,1.8-0.8,1.8-1.8v-6.1c0-1-0.8-1.8-1.8-1.8h-1.1c-1,0-1.8,0.8-1.8,1.8v6.1
					C672.6,303.6,673.4,304.4,674.4,304.4z"/>
			</g>
			<g>
				<path class="st5" d="M666,304.3h1.1c1,0,1.8-0.8,1.8-1.8v-6.1c0-1-0.8-1.8-1.8-1.8H666c-1,0-1.8,0.8-1.8,1.8v6.1
					C664.3,303.5,665.1,304.3,666,304.3z"/>
			</g>
			<g>
				<path class="st5" d="M657.8,120.8h1.1c1,0,1.8-0.8,1.8-1.8V113c0-1-0.8-1.8-1.8-1.8h-1.1c-1,0-1.8,0.8-1.8,1.8v6.1
					C656.1,120,656.9,120.8,657.8,120.8z"/>
			</g>
			<g>
				<path class="st5" d="M649.5,120.8h1.1c1,0,1.8-0.8,1.8-1.8V113c0-1-0.8-1.8-1.8-1.8h-1.1c-1,0-1.8,0.8-1.8,1.8v6.1
					C647.8,120,648.6,120.8,649.5,120.8z"/>
			</g>
			<g>
				<path class="st5" d="M657.8,141.1h1.1c1,0,1.8-0.8,1.8-1.8v-6.1c0-1-0.8-1.8-1.8-1.8h-1.1c-1,0-1.8,0.8-1.8,1.8v6.1
					C656.1,140.3,656.9,141.1,657.8,141.1z"/>
			</g>
			<g>
				<path class="st5" d="M649.5,141.1h1.1c1,0,1.8-0.8,1.8-1.8v-6.1c0-1-0.8-1.8-1.8-1.8h-1.1c-1,0-1.8,0.8-1.8,1.8v6.1
					C647.8,140.3,648.6,141.1,649.5,141.1z"/>
			</g>
			<g>
				<path class="st5" d="M657.8,160.9h1.1c1,0,1.8-0.8,1.8-1.8V153c0-1-0.8-1.8-1.8-1.8h-1.1c-1,0-1.8,0.8-1.8,1.8v6.1
					C656.1,160.1,656.9,160.9,657.8,160.9z"/>
			</g>
			<g>
				<path class="st5" d="M649.5,160.8h1.1c1,0,1.8-0.8,1.8-1.8V153c0-1-0.8-1.8-1.8-1.8h-1.1c-1,0-1.8,0.8-1.8,1.8v6.1
					C647.8,160,648.6,160.8,649.5,160.8z"/>
			</g>
			<g>
				<path class="st5" d="M657.8,181.2h1.1c1,0,1.8-0.8,1.8-1.8v-6.1c0-1-0.8-1.8-1.8-1.8h-1.1c-1,0-1.8,0.8-1.8,1.8v6.1
					C656.1,180.4,656.9,181.2,657.8,181.2z"/>
			</g>
			<g>
				<path class="st5" d="M649.5,181.1h1.1c1,0,1.8-0.8,1.8-1.8v-6.1c0-1-0.8-1.8-1.8-1.8h-1.1c-1,0-1.8,0.8-1.8,1.8v6.1
					C647.8,180.3,648.6,181.1,649.5,181.1z"/>
			</g>
			<g>
				<path class="st5" d="M657.8,201.3h1c1,0,1.8-0.8,1.8-1.8v-5.8c0-1-0.8-1.8-1.8-1.8h-1c-1,0-1.8,0.8-1.8,1.8v5.8
					C656.1,200.5,656.9,201.3,657.8,201.3z"/>
			</g>
			<g>
				<path class="st5" d="M649.5,201.5h1.1c1,0,1.8-0.8,1.8-1.8v-6.1c0-1-0.8-1.8-1.8-1.8h-1.1c-1,0-1.8,0.8-1.8,1.8v6.1
					C647.8,200.7,648.6,201.5,649.5,201.5z"/>
			</g>
			<g>
				<path class="st5" d="M657.8,222.1h1c1,0,1.8-0.8,1.8-1.8v-5.8c0-1-0.8-1.8-1.8-1.8h-1c-1,0-1.8,0.8-1.8,1.8v5.8
					C656.1,221.4,656.9,222.1,657.8,222.1z"/>
			</g>
			<g>
				<path class="st5" d="M649.5,222.3h1.1c1,0,1.8-0.8,1.8-1.8v-6.1c0-1-0.8-1.8-1.8-1.8h-1.1c-1,0-1.8,0.8-1.8,1.8v6.1
					C647.8,221.5,648.6,222.3,649.5,222.3z"/>
			</g>
			<g>
				<path class="st5" d="M657.8,243.3h1.1c1,0,1.8-0.8,1.8-1.8v-6.1c0-1-0.8-1.8-1.8-1.8h-1.1c-1,0-1.8,0.8-1.8,1.8v6.1
					C656.1,242.5,656.9,243.3,657.8,243.3z"/>
			</g>
			<g>
				<path class="st5" d="M649.5,243h1c1,0,1.8-0.8,1.8-1.8v-5.8c0-1-0.8-1.8-1.8-1.8h-1c-1,0-1.8,0.8-1.8,1.8v5.8
					C647.8,242.2,648.6,243,649.5,243z"/>
			</g>
			<g>
				<path class="st5" d="M657.8,264.1h1.1c1,0,1.8-0.8,1.8-1.8v-6.1c0-1-0.8-1.8-1.8-1.8h-1.1c-1,0-1.8,0.8-1.8,1.8v6.1
					C656.1,263.3,656.9,264.1,657.8,264.1z"/>
			</g>
			<g>
				<path class="st5" d="M649.5,263.8h1c1,0,1.8-0.8,1.8-1.8v-5.8c0-1-0.8-1.8-1.8-1.8h-1c-1,0-1.8,0.8-1.8,1.8v5.8
					C647.8,263,648.6,263.8,649.5,263.8z"/>
			</g>
			<g>
				<path class="st5" d="M657.8,284.1h1.1c1,0,1.8-0.8,1.8-1.8v-6.1c0-1-0.8-1.8-1.8-1.8h-1.1c-1,0-1.8,0.8-1.8,1.8v6.1
					C656.1,283.3,656.9,284.1,657.8,284.1z"/>
			</g>
			<g>
				<path class="st5" d="M649.5,284.3h1c1,0,1.8-0.8,1.8-1.8v-6.4c0-1-0.8-1.8-1.8-1.8h-1c-1,0-1.8,0.8-1.8,1.8v6.4
					C647.8,283.5,648.6,284.3,649.5,284.3z"/>
			</g>
			<g>
				<path class="st5" d="M657.8,304.4h1.1c1,0,1.8-0.8,1.8-1.8v-6.1c0-1-0.8-1.8-1.8-1.8h-1.1c-1,0-1.8,0.8-1.8,1.8v6.1
					C656.1,303.6,656.9,304.4,657.8,304.4z"/>
			</g>
			<g>
				<path class="st5" d="M649.5,304.3h1.1c1,0,1.8-0.8,1.8-1.8v-6.1c0-1-0.8-1.8-1.8-1.8h-1.1c-1,0-1.8,0.8-1.8,1.8v6.1
					C647.8,303.5,648.6,304.3,649.5,304.3z"/>
			</g>
			<path class="st6" d="M647.7,105.7h13.4c0.4,0,0.9-0.2,1.2-0.6l9.6-11.6c0.8-1,0.1-2.6-1.2-2.6h-13.4c-0.4,0-0.9,0.2-1.2,0.6
				l-9.6,11.6C645.7,104.1,646.4,105.7,647.7,105.7z"/>
			<path class="st2" d="M661.8,321.1h17.7c0.8,0,1.5-0.7,1.5-1.5V313h-19.3V321.1z"/>
			<path class="st5" d="M662,321.1h-13.9c-1.2,0-2.2-1-2.2-2.2V313h16V321.1z"/>
			<path class="st7" d="M659,95.6h2.9c0.6,0,1-0.5,1-1V89H658v5.5C658,95.1,658.4,95.6,659,95.6z"/>
			<path class="st2" d="M659,95.6h1.4V89H658v5.5C658,95.1,658.4,95.6,659,95.6z"/>
			<path class="st7" d="M657.8,89h5.2c0.4,0,0.8-0.4,0.8-0.8v-0.1c0-0.4-0.4-0.8-0.8-0.8h-5.2c-0.4,0-0.8,0.4-0.8,0.8v0.1
				C657.1,88.7,657.4,89,657.8,89z"/>
			<path class="st2" d="M657.9,89h2.5v-1.7h-2.5c-0.5,0-0.8,0.4-0.8,0.8v0C657.1,88.7,657.4,89,657.9,89z"/>
		</g>
	</g>
	<g>
		<g>
			<path class="st2" d="M8,349h16.5V89.9H8c-1.5,0-2.6,1.2-2.6,2.6v253.8C5.4,347.8,6.5,349,8,349z"/>
			<path class="st4" d="M30.3,82.3L35,76c0.5-0.6,1.4-0.6,1.8,0l4.7,6.3l5.3,7.1c0.2,0.3,0.3,0.6,0.3,0.9v256.2
				c0,0.8-0.6,1.5-1.3,1.5H24.5V90.4c0-0.3,0.1-0.7,0.3-0.9L30.3,82.3z"/>
			<g>
				<path class="st5" d="M38.8,110.4h1.9c1,0,1.8-0.8,1.8-1.8v-7.9c0-1-0.8-1.8-1.8-1.8h-1.9c-1,0-1.8,0.8-1.8,1.8v7.9
					C37,109.6,37.8,110.4,38.8,110.4z"/>
			</g>
			<g>
				<path class="st5" d="M28.9,110.4h1.9c1,0,1.8-0.8,1.8-1.8v-7.9c0-1-0.8-1.8-1.8-1.8h-1.9c-1,0-1.8,0.8-1.8,1.8v7.9
					C27.1,109.6,27.9,110.4,28.9,110.4z"/>
			</g>
			<g>
				<path class="st5" d="M38.8,134.6h1.9c1,0,1.8-0.8,1.8-1.8v-7.9c0-1-0.8-1.8-1.8-1.8h-1.9c-1,0-1.8,0.8-1.8,1.8v7.9
					C37,133.8,37.8,134.6,38.8,134.6z"/>
			</g>
			<g>
				<path class="st5" d="M28.9,134.6h1.9c1,0,1.8-0.8,1.8-1.8v-7.9c0-1-0.8-1.8-1.8-1.8h-1.9c-1,0-1.8,0.8-1.8,1.8v7.9
					C27.1,133.8,27.9,134.6,28.9,134.6z"/>
			</g>
			<g>
				<path class="st5" d="M38.8,158.2h1.9c1,0,1.8-0.8,1.8-1.8v-7.9c0-1-0.8-1.8-1.8-1.8h-1.9c-1,0-1.8,0.8-1.8,1.8v7.9
					C37,157.4,37.8,158.2,38.8,158.2z"/>
			</g>
			<g>
				<path class="st5" d="M28.9,158.1h1.9c1,0,1.8-0.8,1.8-1.8v-7.9c0-1-0.8-1.8-1.8-1.8h-1.9c-1,0-1.8,0.8-1.8,1.8v7.9
					C27.1,157.3,27.9,158.1,28.9,158.1z"/>
			</g>
			<g>
				<path class="st5" d="M38.8,182.3h1.9c1,0,1.8-0.8,1.8-1.8v-7.9c0-1-0.8-1.8-1.8-1.8h-1.9c-1,0-1.8,0.8-1.8,1.8v7.9
					C37,181.5,37.8,182.3,38.8,182.3z"/>
			</g>
			<g>
				<path class="st5" d="M28.9,182.3h1.9c1,0,1.8-0.8,1.8-1.8v-7.9c0-1-0.8-1.8-1.8-1.8h-1.9c-1,0-1.8,0.8-1.8,1.8v7.9
					C27.1,181.5,27.9,182.3,28.9,182.3z"/>
			</g>
			<g>
				<path class="st5" d="M38.8,206.3h1.8c1,0,1.8-0.8,1.8-1.8V197c0-1-0.8-1.8-1.8-1.8h-1.8c-1,0-1.8,0.8-1.8,1.8v7.6
					C37,205.5,37.8,206.3,38.8,206.3z"/>
			</g>
			<g>
				<path class="st5" d="M28.9,206.5h1.9c1,0,1.8-0.8,1.8-1.8v-7.9c0-1-0.8-1.8-1.8-1.8h-1.9c-1,0-1.8,0.8-1.8,1.8v7.9
					C27.1,205.8,27.9,206.5,28.9,206.5z"/>
			</g>
			<g>
				<path class="st5" d="M38.8,231.1h1.8c1,0,1.8-0.8,1.8-1.8v-7.6c0-1-0.8-1.8-1.8-1.8h-1.8c-1,0-1.8,0.8-1.8,1.8v7.6
					C37,230.4,37.8,231.1,38.8,231.1z"/>
			</g>
			<g>
				<path class="st5" d="M28.9,231.4h1.9c1,0,1.8-0.8,1.8-1.8v-7.9c0-1-0.8-1.8-1.8-1.8h-1.9c-1,0-1.8,0.8-1.8,1.8v7.9
					C27.1,230.6,27.9,231.4,28.9,231.4z"/>
			</g>
			<g>
				<path class="st5" d="M38.8,256.3h1.9c1,0,1.8-0.8,1.8-1.8v-7.9c0-1-0.8-1.8-1.8-1.8h-1.9c-1,0-1.8,0.8-1.8,1.8v7.9
					C37,255.5,37.8,256.3,38.8,256.3z"/>
			</g>
			<g>
				<path class="st5" d="M28.9,256h1.8c1,0,1.8-0.8,1.8-1.8v-7.6c0-1-0.8-1.8-1.8-1.8h-1.8c-1,0-1.8,0.8-1.8,1.8v7.6
					C27.1,255.2,27.9,256,28.9,256z"/>
			</g>
			<g>
				<path class="st5" d="M38.8,281.2h1.9c1,0,1.8-0.8,1.8-1.8v-7.9c0-1-0.8-1.8-1.8-1.8h-1.9c-1,0-1.8,0.8-1.8,1.8v7.9
					C37,280.4,37.8,281.2,38.8,281.2z"/>
			</g>
			<g>
				<path class="st5" d="M28.9,280.8h1.8c1,0,1.8-0.8,1.8-1.8v-7.6c0-1-0.8-1.8-1.8-1.8h-1.8c-1,0-1.8,0.8-1.8,1.8v7.6
					C27.1,280,27.9,280.8,28.9,280.8z"/>
			</g>
			<g>
				<path class="st5" d="M38.8,304.9h1.9c1,0,1.8-0.8,1.8-1.8v-7.9c0-1-0.8-1.8-1.8-1.8h-1.9c-1,0-1.8,0.8-1.8,1.8v7.9
					C37,304.1,37.8,304.9,38.8,304.9z"/>
			</g>
			<g>
				<path class="st5" d="M28.9,305.2h1.8c1,0,1.8-0.8,1.8-1.8v-8.2c0-1-0.8-1.8-1.8-1.8h-1.8c-1,0-1.8,0.8-1.8,1.8v8.2
					C27.1,304.4,27.9,305.2,28.9,305.2z"/>
			</g>
			<g>
				<path class="st5" d="M38.8,329.1h1.9c1,0,1.8-0.8,1.8-1.8v-7.9c0-1-0.8-1.8-1.8-1.8h-1.9c-1,0-1.8,0.8-1.8,1.8v7.9
					C37,328.3,37.8,329.1,38.8,329.1z"/>
			</g>
			<g>
				<path class="st5" d="M28.9,329h1.9c1,0,1.8-0.8,1.8-1.8v-7.9c0-1-0.8-1.8-1.8-1.8h-1.9c-1,0-1.8,0.8-1.8,1.8v7.9
					C27.1,328.2,27.9,329,28.9,329z"/>
			</g>
			<g>
				<path class="st5" d="M19.1,110.4h1.9c1,0,1.8-0.8,1.8-1.8v-7.9c0-1-0.8-1.8-1.8-1.8h-1.9c-1,0-1.8,0.8-1.8,1.8v7.9
					C17.4,109.6,18.1,110.4,19.1,110.4z"/>
			</g>
			<g>
				<path class="st5" d="M9.2,110.4h1.9c1,0,1.8-0.8,1.8-1.8v-7.9c0-1-0.8-1.8-1.8-1.8H9.2c-1,0-1.8,0.8-1.8,1.8v7.9
					C7.5,109.6,8.2,110.4,9.2,110.4z"/>
			</g>
			<g>
				<path class="st5" d="M19.1,134.6h1.9c1,0,1.8-0.8,1.8-1.8v-7.9c0-1-0.8-1.8-1.8-1.8h-1.9c-1,0-1.8,0.8-1.8,1.8v7.9
					C17.4,133.8,18.1,134.6,19.1,134.6z"/>
			</g>
			<g>
				<path class="st5" d="M9.2,134.6h1.9c1,0,1.8-0.8,1.8-1.8v-7.9c0-1-0.8-1.8-1.8-1.8H9.2c-1,0-1.8,0.8-1.8,1.8v7.9
					C7.5,133.8,8.2,134.6,9.2,134.6z"/>
			</g>
			<g>
				<path class="st5" d="M19.1,158.2h1.9c1,0,1.8-0.8,1.8-1.8v-7.9c0-1-0.8-1.8-1.8-1.8h-1.9c-1,0-1.8,0.8-1.8,1.8v7.9
					C17.4,157.4,18.1,158.2,19.1,158.2z"/>
			</g>
			<g>
				<path class="st5" d="M9.2,158.1h1.9c1,0,1.8-0.8,1.8-1.8v-7.9c0-1-0.8-1.8-1.8-1.8H9.2c-1,0-1.8,0.8-1.8,1.8v7.9
					C7.5,157.3,8.2,158.1,9.2,158.1z"/>
			</g>
			<g>
				<path class="st5" d="M19.1,182.3h1.9c1,0,1.8-0.8,1.8-1.8v-7.9c0-1-0.8-1.8-1.8-1.8h-1.9c-1,0-1.8,0.8-1.8,1.8v7.9
					C17.4,181.5,18.1,182.3,19.1,182.3z"/>
			</g>
			<g>
				<path class="st5" d="M9.2,182.3h1.9c1,0,1.8-0.8,1.8-1.8v-7.9c0-1-0.8-1.8-1.8-1.8H9.2c-1,0-1.8,0.8-1.8,1.8v7.9
					C7.5,181.5,8.2,182.3,9.2,182.3z"/>
			</g>
			<g>
				<path class="st5" d="M19.1,206.3H21c1,0,1.8-0.8,1.8-1.8V197c0-1-0.8-1.8-1.8-1.8h-1.8c-1,0-1.8,0.8-1.8,1.8v7.6
					C17.4,205.5,18.1,206.3,19.1,206.3z"/>
			</g>
			<g>
				<path class="st5" d="M9.2,206.5h1.9c1,0,1.8-0.8,1.8-1.8v-7.9c0-1-0.8-1.8-1.8-1.8H9.2c-1,0-1.8,0.8-1.8,1.8v7.9
					C7.5,205.8,8.2,206.5,9.2,206.5z"/>
			</g>
			<g>
				<path class="st5" d="M19.1,231.1H21c1,0,1.8-0.8,1.8-1.8v-7.6c0-1-0.8-1.8-1.8-1.8h-1.8c-1,0-1.8,0.8-1.8,1.8v7.6
					C17.4,230.4,18.1,231.1,19.1,231.1z"/>
			</g>
			<g>
				<path class="st5" d="M9.2,231.4h1.9c1,0,1.8-0.8,1.8-1.8v-7.9c0-1-0.8-1.8-1.8-1.8H9.2c-1,0-1.8,0.8-1.8,1.8v7.9
					C7.5,230.6,8.2,231.4,9.2,231.4z"/>
			</g>
			<g>
				<path class="st5" d="M19.1,256.3h1.9c1,0,1.8-0.8,1.8-1.8v-7.9c0-1-0.8-1.8-1.8-1.8h-1.9c-1,0-1.8,0.8-1.8,1.8v7.9
					C17.4,255.5,18.1,256.3,19.1,256.3z"/>
			</g>
			<g>
				<path class="st5" d="M9.2,256h1.8c1,0,1.8-0.8,1.8-1.8v-7.6c0-1-0.8-1.8-1.8-1.8H9.2c-1,0-1.8,0.8-1.8,1.8v7.6
					C7.5,255.2,8.2,256,9.2,256z"/>
			</g>
			<g>
				<path class="st5" d="M19.1,281.2h1.9c1,0,1.8-0.8,1.8-1.8v-7.9c0-1-0.8-1.8-1.8-1.8h-1.9c-1,0-1.8,0.8-1.8,1.8v7.9
					C17.4,280.4,18.1,281.2,19.1,281.2z"/>
			</g>
			<g>
				<path class="st5" d="M9.2,280.8h1.8c1,0,1.8-0.8,1.8-1.8v-7.6c0-1-0.8-1.8-1.8-1.8H9.2c-1,0-1.8,0.8-1.8,1.8v7.6
					C7.5,280,8.2,280.8,9.2,280.8z"/>
			</g>
			<g>
				<path class="st5" d="M19.1,304.9h1.9c1,0,1.8-0.8,1.8-1.8v-7.9c0-1-0.8-1.8-1.8-1.8h-1.9c-1,0-1.8,0.8-1.8,1.8v7.9
					C17.4,304.1,18.1,304.9,19.1,304.9z"/>
			</g>
			<g>
				<path class="st5" d="M9.2,305.2h1.8c1,0,1.8-0.8,1.8-1.8v-8.2c0-1-0.8-1.8-1.8-1.8H9.2c-1,0-1.8,0.8-1.8,1.8v8.2
					C7.5,304.4,8.2,305.2,9.2,305.2z"/>
			</g>
			<g>
				<path class="st5" d="M19.1,329.1h1.9c1,0,1.8-0.8,1.8-1.8v-7.9c0-1-0.8-1.8-1.8-1.8h-1.9c-1,0-1.8,0.8-1.8,1.8v7.9
					C17.4,328.3,18.1,329.1,19.1,329.1z"/>
			</g>
			<g>
				<path class="st5" d="M9.2,329h1.9c1,0,1.8-0.8,1.8-1.8v-7.9c0-1-0.8-1.8-1.8-1.8H9.2c-1,0-1.8,0.8-1.8,1.8v7.9
					C7.5,328.2,8.2,329,9.2,329z"/>
			</g>
			<path class="st6" d="M7.4,92.4h16c0.5,0,1-0.2,1.4-0.7L36.2,78c1-1.2,0.2-3.1-1.4-3.1h-16c-0.5,0-1,0.2-1.4,0.7L6,89.3
				C5,90.5,5.9,92.4,7.4,92.4z"/>
			<path class="st2" d="M24.2,349h21.4c0.8,0,1.5-0.7,1.5-1.5v-8.1H24.2V349z"/>
			<path class="st5" d="M24.5,349h-17c-1.2,0-2.2-1-2.2-2.2v-7.5h19.1V349z"/>
			<path class="st7" d="M20.6,80.4h3.9c0.6,0,1-0.5,1-1v-6.8h-5.9v6.8C19.6,79.9,20.1,80.4,20.6,80.4z"/>
			<path class="st2" d="M20.7,80.4h1.9v-7.8h-2.9v6.7C19.6,79.9,20.1,80.4,20.7,80.4z"/>
			<path class="st7" d="M19.3,72.6h6.5c0.4,0,0.8-0.4,0.8-0.8v-0.4c0-0.4-0.4-0.8-0.8-0.8h-6.5c-0.4,0-0.8,0.4-0.8,0.8v0.4
				C18.5,72.3,18.9,72.6,19.3,72.6z"/>
			<path class="st2" d="M19.4,72.6h3.2v-2h-3.2c-0.5,0-0.8,0.4-0.8,0.8v0.3C18.5,72.2,18.9,72.6,19.4,72.6z"/>
		</g>
		<g>
			<path class="st2" d="M681.7,346.7h17.6V72.9h-17.6c-1.5,0-2.6,1.2-2.6,2.6V344C679,345.5,680.2,346.7,681.7,346.7z"/>
			<path class="st4" d="M705.3,64.8l5-6.7c0.5-0.7,1.4-0.6,1.9,0l5,6.6l5.6,7.5c0.2,0.3,0.3,0.6,0.3,1V343c0,0.8-0.6,1.5-1.4,1.5
				h-22.5V73.3c0-0.4,0.1-0.7,0.3-1L705.3,64.8z"/>
			<g>
				<path class="st5" d="M714.3,94.5h2.3c1,0,1.8-0.8,1.8-1.8v-8.5c0-1-0.8-1.8-1.8-1.8h-2.3c-1,0-1.8,0.8-1.8,1.8v8.5
					C712.5,93.8,713.3,94.5,714.3,94.5z"/>
			</g>
			<g>
				<path class="st5" d="M703.8,94.5h2.3c1,0,1.8-0.8,1.8-1.8v-8.5c0-1-0.8-1.8-1.8-1.8h-2.3c-1,0-1.8,0.8-1.8,1.8v8.5
					C702,93.8,702.8,94.5,703.8,94.5z"/>
			</g>
			<g>
				<path class="st5" d="M714.3,120.1h2.3c1,0,1.8-0.8,1.8-1.8v-8.5c0-1-0.8-1.8-1.8-1.8h-2.3c-1,0-1.8,0.8-1.8,1.8v8.5
					C712.5,119.3,713.3,120.1,714.3,120.1z"/>
			</g>
			<g>
				<path class="st5" d="M703.8,120.1h2.3c1,0,1.8-0.8,1.8-1.8v-8.5c0-1-0.8-1.8-1.8-1.8h-2.3c-1,0-1.8,0.8-1.8,1.8v8.5
					C702,119.3,702.8,120.1,703.8,120.1z"/>
			</g>
			<g>
				<path class="st5" d="M714.3,145h2.3c1,0,1.8-0.8,1.8-1.8v-8.5c0-1-0.8-1.8-1.8-1.8h-2.3c-1,0-1.8,0.8-1.8,1.8v8.5
					C712.5,144.2,713.3,145,714.3,145z"/>
			</g>
			<g>
				<path class="st5" d="M703.8,144.9h2.3c1,0,1.8-0.8,1.8-1.8v-8.5c0-1-0.8-1.8-1.8-1.8h-2.3c-1,0-1.8,0.8-1.8,1.8v8.5
					C702,144.2,702.8,144.9,703.8,144.9z"/>
			</g>
			<g>
				<path class="st5" d="M714.3,170.5h2.3c1,0,1.8-0.8,1.8-1.8v-8.5c0-1-0.8-1.8-1.8-1.8h-2.3c-1,0-1.8,0.8-1.8,1.8v8.5
					C712.5,169.8,713.3,170.5,714.3,170.5z"/>
			</g>
			<g>
				<path class="st5" d="M703.8,170.5h2.3c1,0,1.8-0.8,1.8-1.8v-8.5c0-1-0.8-1.8-1.8-1.8h-2.3c-1,0-1.8,0.8-1.8,1.8v8.5
					C702,169.7,702.8,170.5,703.8,170.5z"/>
			</g>
			<g>
				<path class="st5" d="M714.3,195.9h2.1c1,0,1.8-0.8,1.8-1.8v-8.2c0-1-0.8-1.8-1.8-1.8h-2.1c-1,0-1.8,0.8-1.8,1.8v8.2
					C712.5,195.1,713.3,195.9,714.3,195.9z"/>
			</g>
			<g>
				<path class="st5" d="M703.8,196.1h2.3c1,0,1.8-0.8,1.8-1.8v-8.5c0-1-0.8-1.8-1.8-1.8h-2.3c-1,0-1.8,0.8-1.8,1.8v8.5
					C702,195.3,702.8,196.1,703.8,196.1z"/>
			</g>
			<g>
				<path class="st5" d="M714.3,222.1h2.1c1,0,1.8-0.8,1.8-1.8v-8.2c0-1-0.8-1.8-1.8-1.8h-2.1c-1,0-1.8,0.8-1.8,1.8v8.2
					C712.5,221.3,713.3,222.1,714.3,222.1z"/>
			</g>
			<g>
				<path class="st5" d="M703.8,222.4h2.3c1,0,1.8-0.8,1.8-1.8v-8.5c0-1-0.8-1.8-1.8-1.8h-2.3c-1,0-1.8,0.8-1.8,1.8v8.5
					C702,221.6,702.8,222.4,703.8,222.4z"/>
			</g>
			<g>
				<path class="st5" d="M714.3,248.7h2.3c1,0,1.8-0.8,1.8-1.8v-8.5c0-1-0.8-1.8-1.8-1.8h-2.3c-1,0-1.8,0.8-1.8,1.8v8.5
					C712.5,247.9,713.3,248.7,714.3,248.7z"/>
			</g>
			<g>
				<path class="st5" d="M703.8,248.4h2.1c1,0,1.8-0.8,1.8-1.8v-8.2c0-1-0.8-1.8-1.8-1.8h-2.1c-1,0-1.8,0.8-1.8,1.8v8.2
					C702,247.6,702.8,248.4,703.8,248.4z"/>
			</g>
			<g>
				<path class="st5" d="M714.3,275h2.3c1,0,1.8-0.8,1.8-1.8v-8.5c0-1-0.8-1.8-1.8-1.8h-2.3c-1,0-1.8,0.8-1.8,1.8v8.5
					C712.5,274.2,713.3,275,714.3,275z"/>
			</g>
			<g>
				<path class="st5" d="M703.8,274.6h2.1c1,0,1.8-0.8,1.8-1.8v-8.2c0-1-0.8-1.8-1.8-1.8h-2.1c-1,0-1.8,0.8-1.8,1.8v8.2
					C702,273.8,702.8,274.6,703.8,274.6z"/>
			</g>
			<g>
				<path class="st5" d="M714.3,300h2.3c1,0,1.8-0.8,1.8-1.8v-8.5c0-1-0.8-1.8-1.8-1.8h-2.3c-1,0-1.8,0.8-1.8,1.8v8.5
					C712.5,299.3,713.3,300,714.3,300z"/>
			</g>
			<g>
				<path class="st5" d="M703.8,300.4h2.1c1,0,1.8-0.8,1.8-1.8v-8.9c0-1-0.8-1.8-1.8-1.8h-2.1c-1,0-1.8,0.8-1.8,1.8v8.9
					C702,299.6,702.8,300.4,703.8,300.4z"/>
			</g>
			<g>
				<path class="st5" d="M714.3,325.6h2.3c1,0,1.8-0.8,1.8-1.8v-8.5c0-1-0.8-1.8-1.8-1.8h-2.3c-1,0-1.8,0.8-1.8,1.8v8.5
					C712.5,324.8,713.3,325.6,714.3,325.6z"/>
			</g>
			<g>
				<path class="st5" d="M703.8,325.5h2.3c1,0,1.8-0.8,1.8-1.8v-8.5c0-1-0.8-1.8-1.8-1.8h-2.3c-1,0-1.8,0.8-1.8,1.8v8.5
					C702,324.7,702.8,325.5,703.8,325.5z"/>
			</g>
			<g>
				<path class="st5" d="M693.5,94.5h2.3c1,0,1.8-0.8,1.8-1.8v-8.5c0-1-0.8-1.8-1.8-1.8h-2.3c-1,0-1.8,0.8-1.8,1.8v8.5
					C691.7,93.8,692.5,94.5,693.5,94.5z"/>
			</g>
			<g>
				<path class="st5" d="M683,94.5h2.3c1,0,1.8-0.8,1.8-1.8v-8.5c0-1-0.8-1.8-1.8-1.8H683c-1,0-1.8,0.8-1.8,1.8v8.5
					C681.2,93.8,682,94.5,683,94.5z"/>
			</g>
			<g>
				<path class="st5" d="M693.5,120.1h2.3c1,0,1.8-0.8,1.8-1.8v-8.5c0-1-0.8-1.8-1.8-1.8h-2.3c-1,0-1.8,0.8-1.8,1.8v8.5
					C691.7,119.3,692.5,120.1,693.5,120.1z"/>
			</g>
			<g>
				<path class="st5" d="M683,120.1h2.3c1,0,1.8-0.8,1.8-1.8v-8.5c0-1-0.8-1.8-1.8-1.8H683c-1,0-1.8,0.8-1.8,1.8v8.5
					C681.2,119.3,682,120.1,683,120.1z"/>
			</g>
			<g>
				<path class="st5" d="M693.5,145h2.3c1,0,1.8-0.8,1.8-1.8v-8.5c0-1-0.8-1.8-1.8-1.8h-2.3c-1,0-1.8,0.8-1.8,1.8v8.5
					C691.7,144.2,692.5,145,693.5,145z"/>
			</g>
			<g>
				<path class="st5" d="M683,144.9h2.3c1,0,1.8-0.8,1.8-1.8v-8.5c0-1-0.8-1.8-1.8-1.8H683c-1,0-1.8,0.8-1.8,1.8v8.5
					C681.2,144.2,682,144.9,683,144.9z"/>
			</g>
			<g>
				<path class="st5" d="M693.5,170.5h2.3c1,0,1.8-0.8,1.8-1.8v-8.5c0-1-0.8-1.8-1.8-1.8h-2.3c-1,0-1.8,0.8-1.8,1.8v8.5
					C691.7,169.8,692.5,170.5,693.5,170.5z"/>
			</g>
			<g>
				<path class="st5" d="M683,170.5h2.3c1,0,1.8-0.8,1.8-1.8v-8.5c0-1-0.8-1.8-1.8-1.8H683c-1,0-1.8,0.8-1.8,1.8v8.5
					C681.2,169.7,682,170.5,683,170.5z"/>
			</g>
			<g>
				<path class="st5" d="M693.5,195.9h2.1c1,0,1.8-0.8,1.8-1.8v-8.2c0-1-0.8-1.8-1.8-1.8h-2.1c-1,0-1.8,0.8-1.8,1.8v8.2
					C691.7,195.1,692.5,195.9,693.5,195.9z"/>
			</g>
			<g>
				<path class="st5" d="M683,196.1h2.3c1,0,1.8-0.8,1.8-1.8v-8.5c0-1-0.8-1.8-1.8-1.8H683c-1,0-1.8,0.8-1.8,1.8v8.5
					C681.2,195.3,682,196.1,683,196.1z"/>
			</g>
			<g>
				<path class="st5" d="M693.5,222.1h2.1c1,0,1.8-0.8,1.8-1.8v-8.2c0-1-0.8-1.8-1.8-1.8h-2.1c-1,0-1.8,0.8-1.8,1.8v8.2
					C691.7,221.3,692.5,222.1,693.5,222.1z"/>
			</g>
			<g>
				<path class="st5" d="M683,222.4h2.3c1,0,1.8-0.8,1.8-1.8v-8.5c0-1-0.8-1.8-1.8-1.8H683c-1,0-1.8,0.8-1.8,1.8v8.5
					C681.2,221.6,682,222.4,683,222.4z"/>
			</g>
			<g>
				<path class="st5" d="M693.5,248.7h2.3c1,0,1.8-0.8,1.8-1.8v-8.5c0-1-0.8-1.8-1.8-1.8h-2.3c-1,0-1.8,0.8-1.8,1.8v8.5
					C691.7,247.9,692.5,248.7,693.5,248.7z"/>
			</g>
			<g>
				<path class="st5" d="M683,248.4h2.1c1,0,1.8-0.8,1.8-1.8v-8.2c0-1-0.8-1.8-1.8-1.8H683c-1,0-1.8,0.8-1.8,1.8v8.2
					C681.2,247.6,682,248.4,683,248.4z"/>
			</g>
			<g>
				<path class="st5" d="M693.5,275h2.3c1,0,1.8-0.8,1.8-1.8v-8.5c0-1-0.8-1.8-1.8-1.8h-2.3c-1,0-1.8,0.8-1.8,1.8v8.5
					C691.7,274.2,692.5,275,693.5,275z"/>
			</g>
			<g>
				<path class="st5" d="M683,274.6h2.1c1,0,1.8-0.8,1.8-1.8v-8.2c0-1-0.8-1.8-1.8-1.8H683c-1,0-1.8,0.8-1.8,1.8v8.2
					C681.2,273.8,682,274.6,683,274.6z"/>
			</g>
			<g>
				<path class="st5" d="M693.5,300h2.3c1,0,1.8-0.8,1.8-1.8v-8.5c0-1-0.8-1.8-1.8-1.8h-2.3c-1,0-1.8,0.8-1.8,1.8v8.5
					C691.7,299.3,692.5,300,693.5,300z"/>
			</g>
			<g>
				<path class="st5" d="M683,300.4h2.1c1,0,1.8-0.8,1.8-1.8v-8.9c0-1-0.8-1.8-1.8-1.8H683c-1,0-1.8,0.8-1.8,1.8v8.9
					C681.2,299.6,682,300.4,683,300.4z"/>
			</g>
			<g>
				<path class="st5" d="M693.5,325.6h2.3c1,0,1.8-0.8,1.8-1.8v-8.5c0-1-0.8-1.8-1.8-1.8h-2.3c-1,0-1.8,0.8-1.8,1.8v8.5
					C691.7,324.8,692.5,325.6,693.5,325.6z"/>
			</g>
			<g>
				<path class="st5" d="M683,325.5h2.3c1,0,1.8-0.8,1.8-1.8v-8.5c0-1-0.8-1.8-1.8-1.8H683c-1,0-1.8,0.8-1.8,1.8v8.5
					C681.2,324.7,682,325.5,683,325.5z"/>
			</g>
			<path class="st8" d="M681.2,75.5h16.9c0.6,0,1.1-0.3,1.5-0.7l12.1-14.6c1.1-1.3,0.2-3.2-1.5-3.2h-16.9c-0.6,0-1.1,0.3-1.5,0.7
				l-12.1,14.6C678.7,73.6,679.6,75.5,681.2,75.5z"/>
			<path class="st2" d="M698.9,346.7h22.8c0.8,0,1.4-0.6,1.4-1.4v-8.8h-24.2V346.7z"/>
			<path class="st5" d="M699.2,346.7h-18c-1.2,0-2.2-1-2.2-2.2v-8h20.2V346.7z"/>
			<path class="st7" d="M695.1,62.8h4.2c0.6,0,1-0.5,1-1v-7.2h-6.2v7.2C694.1,62.4,694.5,62.8,695.1,62.8z"/>
			<path class="st2" d="M695.1,62.8h2.1v-8.2h-3.1v7.2C694.1,62.3,694.5,62.8,695.1,62.8z"/>
			<path class="st7" d="M693.7,54.6h6.9c0.4,0,0.8-0.4,0.8-0.8v-0.5c0-0.4-0.4-0.8-0.8-0.8h-6.9c-0.4,0-0.8,0.4-0.8,0.8v0.5
				C692.9,54.3,693.3,54.6,693.7,54.6z"/>
			<path class="st2" d="M693.8,54.6h3.4v-2.1h-3.4c-0.5,0-0.8,0.4-0.8,0.8v0.4C692.9,54.2,693.3,54.6,693.8,54.6z"/>
		</g>
		<g>
			<path class="st2" d="M725.6,350.2h20.6V62.6h-20.6c-1.5,0-2.6,1.2-2.6,2.6v282.3C722.9,349,724.1,350.2,725.6,350.2z"/>
			<path class="st4" d="M753.2,54.2l5.7-7.1c0.6-0.7,1.7-0.7,2.2,0l5.7,7l6.5,8c0.2,0.3,0.4,0.7,0.4,1v285.4c0,0.9-0.7,1.6-1.6,1.6
				h-26v-287c0-0.4,0.1-0.8,0.4-1L753.2,54.2z"/>
			<g>
				<path class="st5" d="M763.3,85.3h3.1c1,0,1.8-0.8,1.8-1.8v-9.1c0-1-0.8-1.8-1.8-1.8h-3.1c-1,0-1.8,0.8-1.8,1.8v9.1
					C761.5,84.5,762.3,85.3,763.3,85.3z"/>
			</g>
			<g>
				<path class="st5" d="M751.2,85.3h3.1c1,0,1.8-0.8,1.8-1.8v-9.1c0-1-0.8-1.8-1.8-1.8h-3.1c-1,0-1.8,0.8-1.8,1.8v9.1
					C749.4,84.5,750.2,85.3,751.2,85.3z"/>
			</g>
			<g>
				<path class="st5" d="M763.3,112.2h3.1c1,0,1.8-0.8,1.8-1.8v-9.1c0-1-0.8-1.8-1.8-1.8h-3.1c-1,0-1.8,0.8-1.8,1.8v9.1
					C761.5,111.4,762.3,112.2,763.3,112.2z"/>
			</g>
			<g>
				<path class="st5" d="M751.2,112.2h3.1c1,0,1.8-0.8,1.8-1.8v-9.1c0-1-0.8-1.8-1.8-1.8h-3.1c-1,0-1.8,0.8-1.8,1.8v9.1
					C749.4,111.4,750.2,112.2,751.2,112.2z"/>
			</g>
			<g>
				<path class="st5" d="M763.3,138.3h3.1c1,0,1.8-0.8,1.8-1.8v-9.1c0-1-0.8-1.8-1.8-1.8h-3.1c-1,0-1.8,0.8-1.8,1.8v9.1
					C761.5,137.6,762.3,138.3,763.3,138.3z"/>
			</g>
			<g>
				<path class="st5" d="M751.2,138.3h3.1c1,0,1.8-0.8,1.8-1.8v-9.1c0-1-0.8-1.8-1.8-1.8h-3.1c-1,0-1.8,0.8-1.8,1.8v9.1
					C749.4,137.5,750.2,138.3,751.2,138.3z"/>
			</g>
			<g>
				<path class="st5" d="M763.3,165.2h3.1c1,0,1.8-0.8,1.8-1.8v-9.1c0-1-0.8-1.8-1.8-1.8h-3.1c-1,0-1.8,0.8-1.8,1.8v9.1
					C761.5,164.4,762.3,165.2,763.3,165.2z"/>
			</g>
			<g>
				<path class="st5" d="M751.2,165.1h3.1c1,0,1.8-0.8,1.8-1.8v-9.1c0-1-0.8-1.8-1.8-1.8h-3.1c-1,0-1.8,0.8-1.8,1.8v9.1
					C749.4,164.3,750.2,165.1,751.2,165.1z"/>
			</g>
			<g>
				<path class="st5" d="M763.3,191.8h3c1,0,1.8-0.8,1.8-1.8v-8.8c0-1-0.8-1.8-1.8-1.8h-3c-1,0-1.8,0.8-1.8,1.8v8.8
					C761.5,191,762.3,191.8,763.3,191.8z"/>
			</g>
			<g>
				<path class="st5" d="M751.2,192.1h3.1c1,0,1.8-0.8,1.8-1.8v-9.1c0-1-0.8-1.8-1.8-1.8h-3.1c-1,0-1.8,0.8-1.8,1.8v9.1
					C749.4,191.3,750.2,192.1,751.2,192.1z"/>
			</g>
			<g>
				<path class="st5" d="M763.3,219.4h3c1,0,1.8-0.8,1.8-1.8v-8.8c0-1-0.8-1.8-1.8-1.8h-3c-1,0-1.8,0.8-1.8,1.8v8.8
					C761.5,218.6,762.3,219.4,763.3,219.4z"/>
			</g>
			<g>
				<path class="st5" d="M751.2,219.6h3.1c1,0,1.8-0.8,1.8-1.8v-9.1c0-1-0.8-1.8-1.8-1.8h-3.1c-1,0-1.8,0.8-1.8,1.8v9.1
					C749.4,218.8,750.2,219.6,751.2,219.6z"/>
			</g>
			<g>
				<path class="st5" d="M763.3,247.3h3.1c1,0,1.8-0.8,1.8-1.8v-9.1c0-1-0.8-1.8-1.8-1.8h-3.1c-1,0-1.8,0.8-1.8,1.8v9.1
					C761.5,246.5,762.3,247.3,763.3,247.3z"/>
			</g>
			<g>
				<path class="st5" d="M751.2,246.9h3c1,0,1.8-0.8,1.8-1.8v-8.8c0-1-0.8-1.8-1.8-1.8h-3c-1,0-1.8,0.8-1.8,1.8v8.8
					C749.4,246.1,750.2,246.9,751.2,246.9z"/>
			</g>
			<g>
				<path class="st5" d="M763.3,274.9h3.1c1,0,1.8-0.8,1.8-1.8V264c0-1-0.8-1.8-1.8-1.8h-3.1c-1,0-1.8,0.8-1.8,1.8v9.1
					C761.5,274.1,762.3,274.9,763.3,274.9z"/>
			</g>
			<g>
				<path class="st5" d="M751.2,274.5h3c1,0,1.8-0.8,1.8-1.8v-8.8c0-1-0.8-1.8-1.8-1.8h-3c-1,0-1.8,0.8-1.8,1.8v8.8
					C749.4,273.7,750.2,274.5,751.2,274.5z"/>
			</g>
			<g>
				<path class="st5" d="M763.3,301.2h3.1c1,0,1.8-0.8,1.8-1.8v-9.1c0-1-0.8-1.8-1.8-1.8h-3.1c-1,0-1.8,0.8-1.8,1.8v9.1
					C761.5,300.4,762.3,301.2,763.3,301.2z"/>
			</g>
			<g>
				<path class="st5" d="M751.2,301.5h3c1,0,1.8-0.8,1.8-1.8v-9.5c0-1-0.8-1.8-1.8-1.8h-3c-1,0-1.8,0.8-1.8,1.8v9.5
					C749.4,300.7,750.2,301.5,751.2,301.5z"/>
			</g>
			<g>
				<path class="st5" d="M763.3,328h3.1c1,0,1.8-0.8,1.8-1.8v-9.1c0-1-0.8-1.8-1.8-1.8h-3.1c-1,0-1.8,0.8-1.8,1.8v9.1
					C761.5,327.2,762.3,328,763.3,328z"/>
			</g>
			<g>
				<path class="st5" d="M751.2,328h3.1c1,0,1.8-0.8,1.8-1.8v-9.1c0-1-0.8-1.8-1.8-1.8h-3.1c-1,0-1.8,0.8-1.8,1.8v9.1
					C749.4,327.2,750.2,328,751.2,328z"/>
			</g>
			<g>
				<path class="st5" d="M739.3,85.3h3.1c1,0,1.8-0.8,1.8-1.8v-9.1c0-1-0.8-1.8-1.8-1.8h-3.1c-1,0-1.8,0.8-1.8,1.8v9.1
					C737.5,84.5,738.3,85.3,739.3,85.3z"/>
			</g>
			<g>
				<path class="st5" d="M727.2,85.3h3.1c1,0,1.8-0.8,1.8-1.8v-9.1c0-1-0.8-1.8-1.8-1.8h-3.1c-1,0-1.8,0.8-1.8,1.8v9.1
					C725.5,84.5,726.3,85.3,727.2,85.3z"/>
			</g>
			<g>
				<path class="st5" d="M739.3,112.2h3.1c1,0,1.8-0.8,1.8-1.8v-9.1c0-1-0.8-1.8-1.8-1.8h-3.1c-1,0-1.8,0.8-1.8,1.8v9.1
					C737.5,111.4,738.3,112.2,739.3,112.2z"/>
			</g>
			<g>
				<path class="st5" d="M727.2,112.2h3.1c1,0,1.8-0.8,1.8-1.8v-9.1c0-1-0.8-1.8-1.8-1.8h-3.1c-1,0-1.8,0.8-1.8,1.8v9.1
					C725.5,111.4,726.3,112.2,727.2,112.2z"/>
			</g>
			<g>
				<path class="st5" d="M739.3,138.3h3.1c1,0,1.8-0.8,1.8-1.8v-9.1c0-1-0.8-1.8-1.8-1.8h-3.1c-1,0-1.8,0.8-1.8,1.8v9.1
					C737.5,137.6,738.3,138.3,739.3,138.3z"/>
			</g>
			<g>
				<path class="st5" d="M727.2,138.3h3.1c1,0,1.8-0.8,1.8-1.8v-9.1c0-1-0.8-1.8-1.8-1.8h-3.1c-1,0-1.8,0.8-1.8,1.8v9.1
					C725.5,137.5,726.3,138.3,727.2,138.3z"/>
			</g>
			<g>
				<path class="st5" d="M739.3,165.2h3.1c1,0,1.8-0.8,1.8-1.8v-9.1c0-1-0.8-1.8-1.8-1.8h-3.1c-1,0-1.8,0.8-1.8,1.8v9.1
					C737.5,164.4,738.3,165.2,739.3,165.2z"/>
			</g>
			<g>
				<path class="st5" d="M727.2,165.1h3.1c1,0,1.8-0.8,1.8-1.8v-9.1c0-1-0.8-1.8-1.8-1.8h-3.1c-1,0-1.8,0.8-1.8,1.8v9.1
					C725.5,164.3,726.3,165.1,727.2,165.1z"/>
			</g>
			<g>
				<path class="st5" d="M739.3,191.8h3c1,0,1.8-0.8,1.8-1.8v-8.8c0-1-0.8-1.8-1.8-1.8h-3c-1,0-1.8,0.8-1.8,1.8v8.8
					C737.5,191,738.3,191.8,739.3,191.8z"/>
			</g>
			<g>
				<path class="st5" d="M727.2,192.1h3.1c1,0,1.8-0.8,1.8-1.8v-9.1c0-1-0.8-1.8-1.8-1.8h-3.1c-1,0-1.8,0.8-1.8,1.8v9.1
					C725.5,191.3,726.3,192.1,727.2,192.1z"/>
			</g>
			<g>
				<path class="st5" d="M739.3,219.4h3c1,0,1.8-0.8,1.8-1.8v-8.8c0-1-0.8-1.8-1.8-1.8h-3c-1,0-1.8,0.8-1.8,1.8v8.8
					C737.5,218.6,738.3,219.4,739.3,219.4z"/>
			</g>
			<g>
				<path class="st5" d="M727.2,219.6h3.1c1,0,1.8-0.8,1.8-1.8v-9.1c0-1-0.8-1.8-1.8-1.8h-3.1c-1,0-1.8,0.8-1.8,1.8v9.1
					C725.5,218.8,726.3,219.6,727.2,219.6z"/>
			</g>
			<g>
				<path class="st5" d="M739.3,247.3h3.1c1,0,1.8-0.8,1.8-1.8v-9.1c0-1-0.8-1.8-1.8-1.8h-3.1c-1,0-1.8,0.8-1.8,1.8v9.1
					C737.5,246.5,738.3,247.3,739.3,247.3z"/>
			</g>
			<g>
				<path class="st5" d="M727.2,246.9h3c1,0,1.8-0.8,1.8-1.8v-8.8c0-1-0.8-1.8-1.8-1.8h-3c-1,0-1.8,0.8-1.8,1.8v8.8
					C725.5,246.1,726.3,246.9,727.2,246.9z"/>
			</g>
			<g>
				<path class="st5" d="M739.3,274.9h3.1c1,0,1.8-0.8,1.8-1.8V264c0-1-0.8-1.8-1.8-1.8h-3.1c-1,0-1.8,0.8-1.8,1.8v9.1
					C737.5,274.1,738.3,274.9,739.3,274.9z"/>
			</g>
			<g>
				<path class="st5" d="M727.2,274.5h3c1,0,1.8-0.8,1.8-1.8v-8.8c0-1-0.8-1.8-1.8-1.8h-3c-1,0-1.8,0.8-1.8,1.8v8.8
					C725.5,273.7,726.3,274.5,727.2,274.5z"/>
			</g>
			<g>
				<path class="st5" d="M739.3,301.2h3.1c1,0,1.8-0.8,1.8-1.8v-9.1c0-1-0.8-1.8-1.8-1.8h-3.1c-1,0-1.8,0.8-1.8,1.8v9.1
					C737.5,300.4,738.3,301.2,739.3,301.2z"/>
			</g>
			<g>
				<path class="st5" d="M727.2,301.5h3c1,0,1.8-0.8,1.8-1.8v-9.5c0-1-0.8-1.8-1.8-1.8h-3c-1,0-1.8,0.8-1.8,1.8v9.5
					C725.5,300.7,726.3,301.5,727.2,301.5z"/>
			</g>
			<g>
				<path class="st5" d="M739.3,328h3.1c1,0,1.8-0.8,1.8-1.8v-9.1c0-1-0.8-1.8-1.8-1.8h-3.1c-1,0-1.8,0.8-1.8,1.8v9.1
					C737.5,327.2,738.3,328,739.3,328z"/>
			</g>
			<g>
				<path class="st5" d="M727.2,328h3.1c1,0,1.8-0.8,1.8-1.8v-9.1c0-1-0.8-1.8-1.8-1.8h-3.1c-1,0-1.8,0.8-1.8,1.8v9.1
					C725.5,327.2,726.3,328,727.2,328z"/>
			</g>
			<path class="st6" d="M725.4,65.4h19.4c0.6,0,1.3-0.3,1.7-0.7l13.9-15.3c1.2-1.3,0.2-3.4-1.7-3.4h-19.4c-0.6,0-1.3,0.3-1.7,0.7
				L723.7,62C722.5,63.3,723.5,65.4,725.4,65.4z"/>
			<path class="st2" d="M745.9,350.2h26.3c0.9,0,1.6-0.7,1.6-1.6v-9.1h-27.9V350.2z"/>
			<path class="st5" d="M746.2,350.2h-21.1c-1.2,0-2.2-1-2.2-2.2v-8.6h23.3V350.2z"/>
			<path class="st7" d="M741.3,52h5.1c0.6,0,1-0.5,1-1v-7.6h-7.2V51C740.3,51.6,740.7,52,741.3,52z"/>
			<path class="st2" d="M741.3,52h2.5v-8.6h-3.6V51C740.3,51.5,740.7,52,741.3,52z"/>
			<path class="st7" d="M739.7,43.4h8.2c0.4,0,0.8-0.4,0.8-0.8V42c0-0.4-0.4-0.8-0.8-0.8h-8.2c-0.4,0-0.8,0.4-0.8,0.8v0.6
				C738.9,43,739.3,43.4,739.7,43.4z"/>
			<path class="st2" d="M739.8,43.4h4.1v-2.2h-4.1c-0.5,0-0.8,0.4-0.8,0.8v0.5C738.9,43,739.3,43.4,739.8,43.4z"/>
		</g>
		<g>
			<path class="st2" d="M51.5,350.3h17.6V76.5H51.5c-1.5,0-2.6,1.2-2.6,2.6v268.5C48.9,349.2,50,350.3,51.5,350.3z"/>
			<path class="st4" d="M75.2,68.5l5-6.7c0.5-0.7,1.4-0.6,1.9,0l5,6.6l5.6,7.5c0.2,0.3,0.3,0.6,0.3,1v270.7c0,0.9-0.6,1.5-1.4,1.5
				H69.1V77c0-0.4,0.1-0.7,0.3-1L75.2,68.5z"/>
			<g>
				<path class="st5" d="M84.1,98.2h2.3c1,0,1.8-0.8,1.8-1.8v-8.5c0-1-0.8-1.8-1.8-1.8h-2.3c-1,0-1.8,0.8-1.8,1.8v8.5
					C82.3,97.4,83.1,98.2,84.1,98.2z"/>
			</g>
			<g>
				<path class="st5" d="M73.6,98.2h2.3c1,0,1.8-0.8,1.8-1.8v-8.5c0-1-0.8-1.8-1.8-1.8h-2.3c-1,0-1.8,0.8-1.8,1.8v8.5
					C71.9,97.4,72.6,98.2,73.6,98.2z"/>
			</g>
			<g>
				<path class="st5" d="M84.1,123.7h2.3c1,0,1.8-0.8,1.8-1.8v-8.5c0-1-0.8-1.8-1.8-1.8h-2.3c-1,0-1.8,0.8-1.8,1.8v8.5
					C82.3,123,83.1,123.7,84.1,123.7z"/>
			</g>
			<g>
				<path class="st5" d="M73.6,123.7h2.3c1,0,1.8-0.8,1.8-1.8v-8.5c0-1-0.8-1.8-1.8-1.8h-2.3c-1,0-1.8,0.8-1.8,1.8v8.5
					C71.9,123,72.6,123.7,73.6,123.7z"/>
			</g>
			<g>
				<path class="st5" d="M84.1,148.7h2.3c1,0,1.8-0.8,1.8-1.8v-8.5c0-1-0.8-1.8-1.8-1.8h-2.3c-1,0-1.8,0.8-1.8,1.8v8.5
					C82.3,147.9,83.1,148.7,84.1,148.7z"/>
			</g>
			<g>
				<path class="st5" d="M73.6,148.6h2.3c1,0,1.8-0.8,1.8-1.8v-8.5c0-1-0.8-1.8-1.8-1.8h-2.3c-1,0-1.8,0.8-1.8,1.8v8.5
					C71.9,147.8,72.6,148.6,73.6,148.6z"/>
			</g>
			<g>
				<path class="st5" d="M84.1,174.2h2.3c1,0,1.8-0.8,1.8-1.8v-8.5c0-1-0.8-1.8-1.8-1.8h-2.3c-1,0-1.8,0.8-1.8,1.8v8.5
					C82.3,173.4,83.1,174.2,84.1,174.2z"/>
			</g>
			<g>
				<path class="st5" d="M73.6,174.1h2.3c1,0,1.8-0.8,1.8-1.8v-8.5c0-1-0.8-1.8-1.8-1.8h-2.3c-1,0-1.8,0.8-1.8,1.8v8.5
					C71.9,173.3,72.6,174.1,73.6,174.1z"/>
			</g>
			<g>
				<path class="st5" d="M84.1,199.6h2.1c1,0,1.8-0.8,1.8-1.8v-8.2c0-1-0.8-1.8-1.8-1.8h-2.1c-1,0-1.8,0.8-1.8,1.8v8.2
					C82.3,198.8,83.1,199.6,84.1,199.6z"/>
			</g>
			<g>
				<path class="st5" d="M73.6,199.8h2.3c1,0,1.8-0.8,1.8-1.8v-8.5c0-1-0.8-1.8-1.8-1.8h-2.3c-1,0-1.8,0.8-1.8,1.8v8.5
					C71.9,199,72.6,199.8,73.6,199.8z"/>
			</g>
			<g>
				<path class="st5" d="M84.1,225.8h2.1c1,0,1.8-0.8,1.8-1.8v-8.2c0-1-0.8-1.8-1.8-1.8h-2.1c-1,0-1.8,0.8-1.8,1.8v8.2
					C82.3,225,83.1,225.8,84.1,225.8z"/>
			</g>
			<g>
				<path class="st5" d="M73.6,226h2.3c1,0,1.8-0.8,1.8-1.8v-8.5c0-1-0.8-1.8-1.8-1.8h-2.3c-1,0-1.8,0.8-1.8,1.8v8.5
					C71.9,225.2,72.6,226,73.6,226z"/>
			</g>
			<g>
				<path class="st5" d="M84.1,252.4h2.3c1,0,1.8-0.8,1.8-1.8v-8.5c0-1-0.8-1.8-1.8-1.8h-2.3c-1,0-1.8,0.8-1.8,1.8v8.5
					C82.3,251.6,83.1,252.4,84.1,252.4z"/>
			</g>
			<g>
				<path class="st5" d="M73.6,252h2.1c1,0,1.8-0.8,1.8-1.8V242c0-1-0.8-1.8-1.8-1.8h-2.1c-1,0-1.8,0.8-1.8,1.8v8.2
					C71.9,251.2,72.6,252,73.6,252z"/>
			</g>
			<g>
				<path class="st5" d="M84.1,278.6h2.3c1,0,1.8-0.8,1.8-1.8v-8.5c0-1-0.8-1.8-1.8-1.8h-2.3c-1,0-1.8,0.8-1.8,1.8v8.5
					C82.3,277.8,83.1,278.6,84.1,278.6z"/>
			</g>
			<g>
				<path class="st5" d="M73.6,278.2h2.1c1,0,1.8-0.8,1.8-1.8v-8.2c0-1-0.8-1.8-1.8-1.8h-2.1c-1,0-1.8,0.8-1.8,1.8v8.2
					C71.9,277.4,72.6,278.2,73.6,278.2z"/>
			</g>
			<g>
				<path class="st5" d="M84.1,303.7h2.3c1,0,1.8-0.8,1.8-1.8v-8.5c0-1-0.8-1.8-1.8-1.8h-2.3c-1,0-1.8,0.8-1.8,1.8v8.5
					C82.3,302.9,83.1,303.7,84.1,303.7z"/>
			</g>
			<g>
				<path class="st5" d="M73.6,304h2.1c1,0,1.8-0.8,1.8-1.8v-8.9c0-1-0.8-1.8-1.8-1.8h-2.1c-1,0-1.8,0.8-1.8,1.8v8.9
					C71.9,303.2,72.6,304,73.6,304z"/>
			</g>
			<g>
				<path class="st5" d="M84.1,329.2h2.3c1,0,1.8-0.8,1.8-1.8v-8.5c0-1-0.8-1.8-1.8-1.8h-2.3c-1,0-1.8,0.8-1.8,1.8v8.5
					C82.3,328.5,83.1,329.2,84.1,329.2z"/>
			</g>
			<g>
				<path class="st5" d="M73.6,329.2h2.3c1,0,1.8-0.8,1.8-1.8v-8.5c0-1-0.8-1.8-1.8-1.8h-2.3c-1,0-1.8,0.8-1.8,1.8v8.5
					C71.9,328.4,72.6,329.2,73.6,329.2z"/>
			</g>
			<g>
				<path class="st5" d="M63.3,98.2h2.3c1,0,1.8-0.8,1.8-1.8v-8.5c0-1-0.8-1.8-1.8-1.8h-2.3c-1,0-1.8,0.8-1.8,1.8v8.5
					C61.5,97.4,62.3,98.2,63.3,98.2z"/>
			</g>
			<g>
				<path class="st5" d="M52.8,98.2h2.3c1,0,1.8-0.8,1.8-1.8v-8.5c0-1-0.8-1.8-1.8-1.8h-2.3c-1,0-1.8,0.8-1.8,1.8v8.5
					C51.1,97.4,51.9,98.2,52.8,98.2z"/>
			</g>
			<g>
				<path class="st5" d="M63.3,123.7h2.3c1,0,1.8-0.8,1.8-1.8v-8.5c0-1-0.8-1.8-1.8-1.8h-2.3c-1,0-1.8,0.8-1.8,1.8v8.5
					C61.5,123,62.3,123.7,63.3,123.7z"/>
			</g>
			<g>
				<path class="st5" d="M52.8,123.7h2.3c1,0,1.8-0.8,1.8-1.8v-8.5c0-1-0.8-1.8-1.8-1.8h-2.3c-1,0-1.8,0.8-1.8,1.8v8.5
					C51.1,123,51.9,123.7,52.8,123.7z"/>
			</g>
			<g>
				<path class="st5" d="M63.3,148.7h2.3c1,0,1.8-0.8,1.8-1.8v-8.5c0-1-0.8-1.8-1.8-1.8h-2.3c-1,0-1.8,0.8-1.8,1.8v8.5
					C61.5,147.9,62.3,148.7,63.3,148.7z"/>
			</g>
			<g>
				<path class="st5" d="M52.8,148.6h2.3c1,0,1.8-0.8,1.8-1.8v-8.5c0-1-0.8-1.8-1.8-1.8h-2.3c-1,0-1.8,0.8-1.8,1.8v8.5
					C51.1,147.8,51.9,148.6,52.8,148.6z"/>
			</g>
			<g>
				<path class="st5" d="M63.3,174.2h2.3c1,0,1.8-0.8,1.8-1.8v-8.5c0-1-0.8-1.8-1.8-1.8h-2.3c-1,0-1.8,0.8-1.8,1.8v8.5
					C61.5,173.4,62.3,174.2,63.3,174.2z"/>
			</g>
			<g>
				<path class="st5" d="M52.8,174.1h2.3c1,0,1.8-0.8,1.8-1.8v-8.5c0-1-0.8-1.8-1.8-1.8h-2.3c-1,0-1.8,0.8-1.8,1.8v8.5
					C51.1,173.3,51.9,174.1,52.8,174.1z"/>
			</g>
			<g>
				<path class="st5" d="M63.3,199.6h2.1c1,0,1.8-0.8,1.8-1.8v-8.2c0-1-0.8-1.8-1.8-1.8h-2.1c-1,0-1.8,0.8-1.8,1.8v8.2
					C61.5,198.8,62.3,199.6,63.3,199.6z"/>
			</g>
			<g>
				<path class="st5" d="M52.8,199.8h2.3c1,0,1.8-0.8,1.8-1.8v-8.5c0-1-0.8-1.8-1.8-1.8h-2.3c-1,0-1.8,0.8-1.8,1.8v8.5
					C51.1,199,51.9,199.8,52.8,199.8z"/>
			</g>
			<g>
				<path class="st5" d="M63.3,225.8h2.1c1,0,1.8-0.8,1.8-1.8v-8.2c0-1-0.8-1.8-1.8-1.8h-2.1c-1,0-1.8,0.8-1.8,1.8v8.2
					C61.5,225,62.3,225.8,63.3,225.8z"/>
			</g>
			<g>
				<path class="st5" d="M52.8,226h2.3c1,0,1.8-0.8,1.8-1.8v-8.5c0-1-0.8-1.8-1.8-1.8h-2.3c-1,0-1.8,0.8-1.8,1.8v8.5
					C51.1,225.2,51.9,226,52.8,226z"/>
			</g>
			<g>
				<path class="st5" d="M63.3,252.4h2.3c1,0,1.8-0.8,1.8-1.8v-8.5c0-1-0.8-1.8-1.8-1.8h-2.3c-1,0-1.8,0.8-1.8,1.8v8.5
					C61.5,251.6,62.3,252.4,63.3,252.4z"/>
			</g>
			<g>
				<path class="st5" d="M52.8,252H55c1,0,1.8-0.8,1.8-1.8V242c0-1-0.8-1.8-1.8-1.8h-2.1c-1,0-1.8,0.8-1.8,1.8v8.2
					C51.1,251.2,51.9,252,52.8,252z"/>
			</g>
			<g>
				<path class="st5" d="M63.3,278.6h2.3c1,0,1.8-0.8,1.8-1.8v-8.5c0-1-0.8-1.8-1.8-1.8h-2.3c-1,0-1.8,0.8-1.8,1.8v8.5
					C61.5,277.8,62.3,278.6,63.3,278.6z"/>
			</g>
			<g>
				<path class="st5" d="M52.8,278.2H55c1,0,1.8-0.8,1.8-1.8v-8.2c0-1-0.8-1.8-1.8-1.8h-2.1c-1,0-1.8,0.8-1.8,1.8v8.2
					C51.1,277.4,51.9,278.2,52.8,278.2z"/>
			</g>
			<g>
				<path class="st5" d="M63.3,303.7h2.3c1,0,1.8-0.8,1.8-1.8v-8.5c0-1-0.8-1.8-1.8-1.8h-2.3c-1,0-1.8,0.8-1.8,1.8v8.5
					C61.5,302.9,62.3,303.7,63.3,303.7z"/>
			</g>
			<g>
				<path class="st5" d="M52.8,304H55c1,0,1.8-0.8,1.8-1.8v-8.9c0-1-0.8-1.8-1.8-1.8h-2.1c-1,0-1.8,0.8-1.8,1.8v8.9
					C51.1,303.2,51.9,304,52.8,304z"/>
			</g>
			<g>
				<path class="st5" d="M63.3,329.2h2.3c1,0,1.8-0.8,1.8-1.8v-8.5c0-1-0.8-1.8-1.8-1.8h-2.3c-1,0-1.8,0.8-1.8,1.8v8.5
					C61.5,328.5,62.3,329.2,63.3,329.2z"/>
			</g>
			<g>
				<path class="st5" d="M52.8,329.2h2.3c1,0,1.8-0.8,1.8-1.8v-8.5c0-1-0.8-1.8-1.8-1.8h-2.3c-1,0-1.8,0.8-1.8,1.8v8.5
					C51.1,328.4,51.9,329.2,52.8,329.2z"/>
			</g>
			<path class="st6" d="M51,79.2h16.9c0.6,0,1.1-0.3,1.5-0.7l12.1-14.6c1.1-1.3,0.2-3.2-1.5-3.2H63.1c-0.6,0-1.1,0.3-1.5,0.7
				L49.6,75.9C48.5,77.2,49.4,79.2,51,79.2z"/>
			<path class="st2" d="M68.8,350.3h22.7c0.8,0,1.5-0.7,1.5-1.5v-8.7H68.8V350.3z"/>
			<path class="st5" d="M69,350.3H51c-1.2,0-2.2-1-2.2-2.2v-8H69V350.3z"/>
			<path class="st7" d="M64.9,66.5h4.2c0.6,0,1-0.5,1-1v-7.2h-6.2v7.2C63.9,66,64.3,66.5,64.9,66.5z"/>
			<path class="st2" d="M64.9,66.5H67v-8.2h-3.1v7.2C63.9,66,64.4,66.5,64.9,66.5z"/>
			<path class="st7" d="M63.5,58.3h6.9c0.4,0,0.8-0.4,0.8-0.8V57c0-0.4-0.4-0.8-0.8-0.8h-6.9c-0.4,0-0.8,0.4-0.8,0.8v0.5
				C62.8,57.9,63.1,58.3,63.5,58.3z"/>
			<path class="st2" d="M63.6,58.3H67v-2.1h-3.4c-0.5,0-0.8,0.4-0.8,0.8v0.4C62.8,57.9,63.1,58.3,63.6,58.3z"/>
		</g>
	</g>
</g>
<g id="houses_front">
</g>
<g id="trees">
</g>
</svg>
