<?xml version="1.0" encoding="utf-8"?>
<!-- Generator: Adobe Illustrator 19.1.0, SVG Export Plug-In . SVG Version: 6.00 Build 0)  -->
<svg version="1.1" id="Layer_1" xmlns="http://www.w3.org/2000/svg" xmlns:xlink="http://www.w3.org/1999/xlink" x="0px" y="0px"
	 viewBox="192 -47.4 1024 574.4" style="enable-background:new 192 -47.4 1024 574.4;" xml:space="preserve">
<style type="text/css">
	.st0{fill:#1C88A5;}
	.st1{display:none;}
	.st2{fill:#1B7989;}
	.st3{fill:none;stroke:#D89261;stroke-width:20;stroke-linecap:round;stroke-miterlimit:10;}
	.st4{fill:#84D3C9;}
	.st5{fill:#D89261;}
	.st6{fill:#18717A;}
	.st7{fill:#4ACCC2;}
	.st8{fill:#5B463B;}
	.st9{fill:none;stroke:#31AA9B;stroke-width:6;stroke-linecap:round;stroke-miterlimit:10;}
	.st10{fill:#31AA9B;}
</style>
<rect x="959" y="-2.8" class="st0" width="40.7" height="390.1"/>
<rect x="667" y="-6.1" class="st0" width="100.1" height="390.1"/>
<g id="Layer_2" class="st1">
</g>
<g id="Layer_3">
	<rect x="191.5" y="376.6" class="st2" width="1024" height="149"/>
</g>
<g id="globen">
</g>
<g id="roads">
	<path class="st3" d="M904.3,386.4c0,31.9-30.2,57.7-67.5,57.7h-18.1c-0.8,0-1.5,0-2.3,0c-44,1.3-42.5,57.8,1.5,58l291.1-0.9
		c9.9,0,18-6.9,18-15.4V380.3"/>
	<path class="st3" d="M212.2,391.8l41.6,41.6c22.1,22.1,57.9,22.1,80,0l43.1-43.1"/>
</g>
<g id="houses_back">
</g>
<g>
	<path class="st0" d="M604.6,380.9h-39.4c-2.3,0-4.1-3-4.1-6.7V257.4c0-2.1,0.6-4.1,1.6-5.3l16.2-20.2c1.4-1.8,3.3-1.9,4.8-0.3
		l20.9,22.5V380.9z"/>
	<path class="st2" d="M640.8,380.9h-36.2V254.1h36.2c4.1,0,7.3,3.3,7.3,7.3v112.1C648.1,377.6,644.8,380.9,640.8,380.9z"/>
	<g>
		<path class="st4" d="M615.3,281h-3.6c-1,0-1.8-0.8-1.8-1.8v-10c0-1,0.8-1.8,1.8-1.8h3.6c1,0,1.8,0.8,1.8,1.8v10
			C617.1,280.2,616.3,281,615.3,281z"/>
	</g>
	<g>
		<path class="st4" d="M615.3,309.6h-3.6c-1,0-1.8-0.8-1.8-1.8v-10c0-1,0.8-1.8,1.8-1.8h3.6c1,0,1.8,0.8,1.8,1.8v10
			C617.1,308.8,616.3,309.6,615.3,309.6z"/>
	</g>
	<g>
		<path class="st4" d="M628,281h-3.5c-1,0-1.8-0.8-1.8-1.8v-10c0-1,0.8-1.8,1.8-1.8h3.6c1,0,1.8,0.8,1.8,1.8v10
			C629.8,280.2,629,281,628,281z"/>
	</g>
	<g>
		<path class="st4" d="M640.9,281h-3.6c-1,0-1.8-0.8-1.8-1.8v-10c0-1,0.8-1.8,1.8-1.8h3.6c1,0,1.8,0.8,1.8,1.8v10
			C642.7,280.2,641.9,281,640.9,281z"/>
	</g>
	<g>
		<path class="st4" d="M628,309.6h-3.5c-1,0-1.8-0.8-1.8-1.8v-10c0-1,0.8-1.8,1.8-1.8h3.6c1,0,1.8,0.8,1.8,1.8v10
			C629.8,308.8,629,309.6,628,309.6z"/>
	</g>
	<g>
		<path class="st4" d="M640.9,309.6h-3.6c-1,0-1.8-0.8-1.8-1.8v-10c0-1,0.8-1.8,1.8-1.8h3.6c1,0,1.8,0.8,1.8,1.8v10
			C642.7,308.8,641.9,309.6,640.9,309.6z"/>
	</g>
	<g>
		<path class="st4" d="M615.3,337h-3.6c-1,0-1.8-0.8-1.8-1.8v-10c0-1,0.8-1.8,1.8-1.8h3.6c1,0,1.8,0.8,1.8,1.8v10
			C617.1,336.2,616.3,337,615.3,337z"/>
	</g>
	<g>
		<path class="st4" d="M615.3,365.7h-3.6c-1,0-1.8-0.8-1.8-1.8v-10c0-1,0.8-1.8,1.8-1.8h3.6c1,0,1.8,0.8,1.8,1.8v10
			C617.1,364.9,616.3,365.7,615.3,365.7z"/>
	</g>
	<g>
		<path class="st4" d="M628,337h-3.5c-1,0-1.8-0.8-1.8-1.8v-10c0-1,0.8-1.8,1.8-1.8h3.6c1,0,1.8,0.8,1.8,1.8v10
			C629.8,336.2,629,337,628,337z"/>
	</g>
	<g>
		<path class="st4" d="M640.9,337h-3.6c-1,0-1.8-0.8-1.8-1.8v-10c0-1,0.8-1.8,1.8-1.8h3.6c1,0,1.8,0.8,1.8,1.8v10
			C642.7,336.2,641.9,337,640.9,337z"/>
	</g>
	<g>
		<path class="st4" d="M628,365.7h-3.5c-1,0-1.8-0.8-1.8-1.8v-10c0-1,0.8-1.8,1.8-1.8h3.6c1,0,1.8,0.8,1.8,1.8v10
			C629.8,364.9,629,365.7,628,365.7z"/>
	</g>
	<g>
		<path class="st4" d="M640.9,365.7h-3.6c-1,0-1.8-0.8-1.8-1.8v-10c0-1,0.8-1.8,1.8-1.8h3.6c1,0,1.8,0.8,1.8,1.8v10
			C642.7,364.9,641.9,365.7,640.9,365.7z"/>
	</g>
	<g>
		<path class="st4" d="M571.8,281h-3.6c-1,0-1.8-0.8-1.8-1.8v-10c0-1,0.8-1.8,1.8-1.8h3.6c1,0,1.8,0.8,1.8,1.8v10
			C573.6,280.2,572.8,281,571.8,281z"/>
	</g>
	<g>
		<path class="st4" d="M571.8,309.6h-3.6c-1,0-1.8-0.8-1.8-1.8v-10c0-1,0.8-1.8,1.8-1.8h3.6c1,0,1.8,0.8,1.8,1.8v10
			C573.6,308.8,572.8,309.6,571.8,309.6z"/>
	</g>
	<g>
		<path class="st4" d="M584.5,281h-3.6c-1,0-1.8-0.8-1.8-1.8v-10c0-1,0.8-1.8,1.8-1.8h3.6c1,0,1.8,0.8,1.8,1.8v10
			C586.3,280.2,585.5,281,584.5,281z"/>
	</g>
	<g>
		<path class="st4" d="M597.4,281h-3.6c-1,0-1.8-0.8-1.8-1.8v-10c0-1,0.8-1.8,1.8-1.8h3.6c1,0,1.8,0.8,1.8,1.8v10
			C599.1,280.2,598.4,281,597.4,281z"/>
	</g>
	<g>
		<path class="st4" d="M584.5,309.6h-3.6c-1,0-1.8-0.8-1.8-1.8v-10c0-1,0.8-1.8,1.8-1.8h3.6c1,0,1.8,0.8,1.8,1.8v10
			C586.3,308.8,585.5,309.6,584.5,309.6z"/>
	</g>
	<g>
		<path class="st4" d="M597.4,309.6h-3.6c-1,0-1.8-0.8-1.8-1.8v-10c0-1,0.8-1.8,1.8-1.8h3.6c1,0,1.8,0.8,1.8,1.8v10
			C599.1,308.8,598.4,309.6,597.4,309.6z"/>
	</g>
	<g>
		<path class="st4" d="M571.8,337h-3.6c-1,0-1.8-0.8-1.8-1.8v-10c0-1,0.8-1.8,1.8-1.8h3.6c1,0,1.8,0.8,1.8,1.8v10
			C573.6,336.2,572.8,337,571.8,337z"/>
	</g>
	<g>
		<path class="st4" d="M571.8,365.7h-3.6c-1,0-1.8-0.8-1.8-1.8v-10c0-1,0.8-1.8,1.8-1.8h3.6c1,0,1.8,0.8,1.8,1.8v10
			C573.6,364.9,572.8,365.7,571.8,365.7z"/>
	</g>
	<g>
		<path class="st4" d="M584.5,337h-3.6c-1,0-1.8-0.8-1.8-1.8v-10c0-1,0.8-1.8,1.8-1.8h3.6c1,0,1.8,0.8,1.8,1.8v10
			C586.3,336.2,585.5,337,584.5,337z"/>
	</g>
	<g>
		<path class="st4" d="M597.4,337h-3.6c-1,0-1.8-0.8-1.8-1.8v-10c0-1,0.8-1.8,1.8-1.8h3.6c1,0,1.8,0.8,1.8,1.8v10
			C599.1,336.2,598.4,337,597.4,337z"/>
	</g>
	<g>
		<path class="st4" d="M584.5,365.7h-3.6c-1,0-1.8-0.8-1.8-1.8v-10c0-1,0.8-1.8,1.8-1.8h3.6c1,0,1.8,0.8,1.8,1.8v10
			C586.3,364.9,585.5,365.7,584.5,365.7z"/>
	</g>
	<g>
		<path class="st4" d="M597.4,365.7h-3.6c-1,0-1.8-0.8-1.8-1.8v-10c0-1,0.8-1.8,1.8-1.8h3.6c1,0,1.8,0.8,1.8,1.8v10
			C599.1,364.9,598.4,365.7,597.4,365.7z"/>
	</g>
	<path class="st5" d="M641.9,256.6H607c-1.2,0-2.3-0.4-3-1l-25-21.9c-2.2-1.9-0.4-4.9,3-4.9h34.9c1.2,0,2.3,0.4,3,1l25,21.9
		C647.2,253.7,645.3,256.6,641.9,256.6z"/>
	<path class="st2" d="M604.6,380.9H568c-3.8,0-6.9-3.1-6.9-6.9v-4h43.5V380.9z"/>
	<path class="st6" d="M604.6,380.9h36.6c3.8,0,6.9-3.1,6.9-6.9v-4h-43.5L604.6,380.9L604.6,380.9z"/>
	<path class="st0" d="M616.4,241.7h-12.9c-0.6,0-1-0.5-1-1v-16.9h14.9v16.9C617.4,241.2,617,241.7,616.4,241.7z"/>
	<path class="st2" d="M616.4,241.7H610v-17.9h7.4v16.8C617.4,241.2,617,241.7,616.4,241.7z"/>
	<path class="st0" d="M619.4,226.1h-18.8c-0.4,0-0.8-0.4-0.8-0.8v-3c0-0.4,0.4-0.8,0.8-0.8h18.8c0.4,0,0.8,0.4,0.8,0.8v3
		C620.2,225.7,619.8,226.1,619.4,226.1z"/>
	<path class="st2" d="M619.4,226.1h-9.3v-4.6h9.3c0.5,0,0.8,0.4,0.8,0.8v2.9C620.2,225.7,619.8,226.1,619.4,226.1z"/>
</g>
<g>
	<path class="st7" d="M1124.4,379.6h-38.3c-2.2,0-4-2.9-4-6.5V260.7c0-2,0.6-3.9,1.6-5.1l15.8-19.5c1.4-1.7,3.2-1.8,4.7-0.3
		l20.3,21.7L1124.4,379.6L1124.4,379.6z"/>
	<path class="st2" d="M1161.6,381.1h-37.2V257.7h35c4.1,0,7.3,3.3,7.3,7.3v110.9C1166.7,378.8,1164.4,381.1,1161.6,381.1z"/>
	<g>
		<path class="st4" d="M1134.8,283.9h-3.4c-1,0-1.8-0.8-1.8-1.8v-9.6c0-1,0.8-1.8,1.8-1.8h3.4c1,0,1.8,0.8,1.8,1.8v9.6
			C1136.6,283.1,1135.8,283.9,1134.8,283.9z"/>
	</g>
	<g>
		<path class="st4" d="M1134.8,311.7h-3.4c-1,0-1.8-0.8-1.8-1.8v-9.6c0-1,0.8-1.8,1.8-1.8h3.4c1,0,1.8,0.8,1.8,1.8v9.6
			C1136.6,311,1135.8,311.7,1134.8,311.7z"/>
	</g>
	<g>
		<path class="st4" d="M1147.2,283.9h-3.4c-1,0-1.8-0.8-1.8-1.8v-9.6c0-1,0.8-1.8,1.8-1.8h3.4c1,0,1.8,0.8,1.8,1.8v9.6
			C1148.9,283.1,1148.1,283.9,1147.2,283.9z"/>
	</g>
	<g>
		<path class="st4" d="M1159.7,283.9h-3.4c-1,0-1.8-0.8-1.8-1.8v-9.6c0-1,0.8-1.8,1.8-1.8h3.4c1,0,1.8,0.8,1.8,1.8v9.6
			C1161.4,283.1,1160.6,283.9,1159.7,283.9z"/>
	</g>
	<g>
		<path class="st4" d="M1147.2,311.7h-3.4c-1,0-1.8-0.8-1.8-1.8v-9.6c0-1,0.8-1.8,1.8-1.8h3.4c1,0,1.8,0.8,1.8,1.8v9.6
			C1148.9,310.9,1148.1,311.7,1147.2,311.7z"/>
	</g>
	<g>
		<path class="st4" d="M1159.7,311.7h-3.4c-1,0-1.8-0.8-1.8-1.8v-9.6c0-1,0.8-1.8,1.8-1.8h3.4c1,0,1.8,0.8,1.8,1.8v9.6
			C1161.4,311,1160.6,311.7,1159.7,311.7z"/>
	</g>
	<g>
		<path class="st4" d="M1134.8,338.4h-3.4c-1,0-1.8-0.8-1.8-1.8V327c0-1,0.8-1.8,1.8-1.8h3.4c1,0,1.8,0.8,1.8,1.8v9.6
			C1136.6,337.6,1135.8,338.4,1134.8,338.4z"/>
	</g>
	<g>
		<path class="st4" d="M1134.8,366.3h-3.4c-1,0-1.8-0.8-1.8-1.8v-9.6c0-1,0.8-1.8,1.8-1.8h3.4c1,0,1.8,0.8,1.8,1.8v9.6
			C1136.6,365.5,1135.8,366.3,1134.8,366.3z"/>
	</g>
	<g>
		<path class="st4" d="M1147.2,338.4h-3.4c-1,0-1.8-0.8-1.8-1.8V327c0-1,0.8-1.8,1.8-1.8h3.4c1,0,1.8,0.8,1.8,1.8v9.6
			C1148.9,337.6,1148.1,338.4,1147.2,338.4z"/>
	</g>
	<g>
		<path class="st4" d="M1159.7,338.4h-3.4c-1,0-1.8-0.8-1.8-1.8V327c0-1,0.8-1.8,1.8-1.8h3.4c1,0,1.8,0.8,1.8,1.8v9.6
			C1161.4,337.6,1160.6,338.4,1159.7,338.4z"/>
	</g>
	<g>
		<path class="st4" d="M1147.2,366.3h-3.4c-1,0-1.8-0.8-1.8-1.8v-9.6c0-1,0.8-1.8,1.8-1.8h3.4c1,0,1.8,0.8,1.8,1.8v9.6
			C1148.9,365.5,1148.1,366.3,1147.2,366.3z"/>
	</g>
	<g>
		<path class="st4" d="M1159.7,366.3h-3.4c-1,0-1.8-0.8-1.8-1.8v-9.6c0-1,0.8-1.8,1.8-1.8h3.4c1,0,1.8,0.8,1.8,1.8v9.6
			C1161.4,365.5,1160.6,366.3,1159.7,366.3z"/>
	</g>
	<g>
		<path class="st4" d="M1092.4,283.9h-3.4c-1,0-1.8-0.8-1.8-1.8v-9.6c0-1,0.8-1.8,1.8-1.8h3.4c1,0,1.8,0.8,1.8,1.8v9.6
			C1094.2,283.1,1093.4,283.9,1092.4,283.9z"/>
	</g>
	<g>
		<path class="st4" d="M1092.4,311.7h-3.4c-1,0-1.8-0.8-1.8-1.8v-9.6c0-1,0.8-1.8,1.8-1.8h3.4c1,0,1.8,0.8,1.8,1.8v9.6
			C1094.2,311,1093.4,311.7,1092.4,311.7z"/>
	</g>
	<g>
		<path class="st4" d="M1104.8,283.9h-3.4c-1,0-1.8-0.8-1.8-1.8v-9.6c0-1,0.8-1.8,1.8-1.8h3.4c1,0,1.8,0.8,1.8,1.8v9.6
			C1106.6,283.1,1105.8,283.9,1104.8,283.9z"/>
	</g>
	<g>
		<path class="st4" d="M1117.3,283.9h-3.4c-1,0-1.8-0.8-1.8-1.8v-9.6c0-1,0.8-1.8,1.8-1.8h3.4c1,0,1.8,0.8,1.8,1.8v9.6
			C1119.1,283.1,1118.3,283.9,1117.3,283.9z"/>
	</g>
	<g>
		<path class="st4" d="M1104.8,311.7h-3.4c-1,0-1.8-0.8-1.8-1.8v-9.6c0-1,0.8-1.8,1.8-1.8h3.4c1,0,1.8,0.8,1.8,1.8v9.6
			C1106.6,310.9,1105.8,311.7,1104.8,311.7z"/>
	</g>
	<g>
		<path class="st4" d="M1117.3,311.7h-3.4c-1,0-1.8-0.8-1.8-1.8v-9.6c0-1,0.8-1.8,1.8-1.8h3.4c1,0,1.8,0.8,1.8,1.8v9.6
			C1119.1,311,1118.3,311.7,1117.3,311.7z"/>
	</g>
	<g>
		<path class="st4" d="M1092.4,338.4h-3.4c-1,0-1.8-0.8-1.8-1.8V327c0-1,0.8-1.8,1.8-1.8h3.4c1,0,1.8,0.8,1.8,1.8v9.6
			C1094.2,337.6,1093.4,338.4,1092.4,338.4z"/>
	</g>
	<g>
		<path class="st4" d="M1092.4,366.3h-3.4c-1,0-1.8-0.8-1.8-1.8v-9.6c0-1,0.8-1.8,1.8-1.8h3.4c1,0,1.8,0.8,1.8,1.8v9.6
			C1094.2,365.5,1093.4,366.3,1092.4,366.3z"/>
	</g>
	<g>
		<path class="st4" d="M1104.8,338.4h-3.4c-1,0-1.8-0.8-1.8-1.8V327c0-1,0.8-1.8,1.8-1.8h3.4c1,0,1.8,0.8,1.8,1.8v9.6
			C1106.6,337.6,1105.8,338.4,1104.8,338.4z"/>
	</g>
	<g>
		<path class="st4" d="M1117.3,338.4h-3.4c-1,0-1.8-0.8-1.8-1.8V327c0-1,0.8-1.8,1.8-1.8h3.4c1,0,1.8,0.8,1.8,1.8v9.6
			C1119.1,337.6,1118.3,338.4,1117.3,338.4z"/>
	</g>
	<g>
		<path class="st4" d="M1104.8,366.3h-3.4c-1,0-1.8-0.8-1.8-1.8v-9.6c0-1,0.8-1.8,1.8-1.8h3.4c1,0,1.8,0.8,1.8,1.8v9.6
			C1106.6,365.5,1105.8,366.3,1104.8,366.3z"/>
	</g>
	<g>
		<path class="st4" d="M1117.3,366.3h-3.4c-1,0-1.8-0.8-1.8-1.8v-9.6c0-1,0.8-1.8,1.8-1.8h3.4c1,0,1.8,0.8,1.8,1.8v9.6
			C1119.1,365.5,1118.3,366.3,1117.3,366.3z"/>
	</g>
	<path class="st5" d="M1160.7,260.2h-33.9c-1.1,0-2.2-0.4-2.9-1l-24.4-21.4c-2.1-1.9-0.4-4.8,2.9-4.8h33.9c1.1,0,2.2,0.4,2.9,1
		l24.3,21.3C1165.8,257.3,1164,260.2,1160.7,260.2z"/>
	<path class="st2" d="M1124.4,381.1h-38.2c-2.3,0-4.2-1.9-4.2-4.2v-6.4h42.4V381.1z"/>
	<path class="st6" d="M1124.4,381.1h37.6c2.6,0,4.7-2.1,4.7-4.7v-5.9h-42.4v10.6L1124.4,381.1L1124.4,381.1z"/>
	<path class="st7" d="M1135.9,245.6h-12.5c-0.6,0-1-0.5-1-1v-16.4h14.5v16.4C1136.9,245.2,1136.4,245.6,1135.9,245.6z"/>
	<path class="st2" d="M1135.8,245.6h-6.2v-17.4h7.2v16.4C1136.9,245.2,1136.4,245.6,1135.8,245.6z"/>
	<path class="st7" d="M1138.8,230.4h-18.2c-0.4,0-0.8-0.4-0.8-0.8v-2.8c0-0.4,0.4-0.8,0.8-0.8h18.2c0.4,0,0.8,0.4,0.8,0.8v2.9
		C1139.6,230.1,1139.2,230.4,1138.8,230.4z"/>
	<path class="st2" d="M1138.7,230.4h-9.1V226h9.1c0.5,0,0.8,0.4,0.8,0.8v2.8C1139.6,230.1,1139.2,230.4,1138.7,230.4z"/>
</g>
<g>
	<path class="st2" d="M729.9,380.1h-29.4v-396h29.4c1.5,0,2.6,1.2,2.6,2.6v390.7C732.5,378.9,731.3,380.1,729.9,380.1z"/>
	<path class="st0" d="M690.8-27.5l-7.9-9.7c-0.8-1-2.3-0.9-3.1,0.1l-7.9,9.6l-9,11c-0.3,0.4-0.5,0.9-0.5,1.4v393
		c0,1.2,1,2.2,2.2,2.2h35.8V-15.1c0-0.5-0.2-1-0.5-1.4L690.8-27.5z"/>
	<g>
		<path class="st4" d="M677.6,15.4H672c-1,0-1.8-0.8-1.8-1.8V-0.3c0-1,0.8-1.8,1.8-1.8h5.6c1,0,1.8,0.8,1.8,1.8v13.9
			C679.4,14.6,678.6,15.4,677.6,15.4z"/>
	</g>
	<g>
		<path class="st4" d="M694.3,15.4h-5.6c-1,0-1.8-0.8-1.8-1.8V-0.3c0-1,0.8-1.8,1.8-1.8h5.6c1,0,1.8,0.8,1.8,1.8v13.9
			C696,14.6,695.2,15.4,694.3,15.4z"/>
	</g>
	<g>
		<path class="st4" d="M677.6,52.3H672c-1,0-1.8-0.8-1.8-1.8V36.7c0-1,0.8-1.8,1.8-1.8h5.6c1,0,1.8,0.8,1.8,1.8v13.9
			C679.4,51.6,678.6,52.3,677.6,52.3z"/>
	</g>
	<g>
		<path class="st4" d="M694.3,52.4h-5.6c-1,0-1.8-0.8-1.8-1.8V36.7c0-1,0.8-1.8,1.8-1.8h5.6c1,0,1.8,0.8,1.8,1.8v13.9
			C696,51.6,695.2,52.4,694.3,52.4z"/>
	</g>
	<g>
		<path class="st4" d="M677.6,88.4H672c-1,0-1.8-0.8-1.8-1.8V72.7c0-1,0.8-1.8,1.8-1.8h5.6c1,0,1.8,0.8,1.8,1.8v13.9
			C679.4,87.6,678.6,88.4,677.6,88.4z"/>
	</g>
	<g>
		<path class="st4" d="M694.3,88.3h-5.6c-1,0-1.8-0.8-1.8-1.8V72.6c0-1,0.8-1.8,1.8-1.8h5.6c1,0,1.8,0.8,1.8,1.8v13.9
			C696,87.5,695.2,88.3,694.3,88.3z"/>
	</g>
	<g>
		<path class="st4" d="M677.6,125.3H672c-1,0-1.8-0.8-1.8-1.8v-13.9c0-1,0.8-1.8,1.8-1.8h5.6c1,0,1.8,0.8,1.8,1.8v13.9
			C679.4,124.5,678.6,125.3,677.6,125.3z"/>
	</g>
	<g>
		<path class="st4" d="M694.3,125.2h-5.6c-1,0-1.8-0.8-1.8-1.8v-13.9c0-1,0.8-1.8,1.8-1.8h5.6c1,0,1.8,0.8,1.8,1.8v13.9
			C696,124.4,695.2,125.2,694.3,125.2z"/>
	</g>
	<g>
		<path class="st4" d="M677.6,162h-5.5c-1,0-1.8-0.8-1.8-1.8v-13.5c0-1,0.8-1.8,1.8-1.8h5.5c1,0,1.8,0.8,1.8,1.8v13.5
			C679.4,161.2,678.6,162,677.6,162z"/>
	</g>
	<g>
		<path class="st4" d="M694.3,162.3h-5.6c-1,0-1.8-0.8-1.8-1.8v-13.9c0-1,0.8-1.8,1.8-1.8h5.6c1,0,1.8,0.8,1.8,1.8v13.9
			C696,161.5,695.2,162.3,694.3,162.3z"/>
	</g>
	<g>
		<path class="st4" d="M677.6,199.9h-5.5c-1,0-1.8-0.8-1.8-1.8v-13.5c0-1,0.8-1.8,1.8-1.8h5.5c1,0,1.8,0.8,1.8,1.8v13.5
			C679.4,199.1,678.6,199.9,677.6,199.9z"/>
	</g>
	<g>
		<path class="st4" d="M694.3,200.3h-5.6c-1,0-1.8-0.8-1.8-1.8v-13.9c0-1,0.8-1.8,1.8-1.8h5.6c1,0,1.8,0.8,1.8,1.8v13.9
			C696,199.5,695.2,200.3,694.3,200.3z"/>
	</g>
	<g>
		<path class="st4" d="M677.6,238.4H672c-1,0-1.8-0.8-1.8-1.8v-13.9c0-1,0.8-1.8,1.8-1.8h5.6c1,0,1.8,0.8,1.8,1.8v13.9
			C679.4,237.6,678.6,238.4,677.6,238.4z"/>
	</g>
	<g>
		<path class="st4" d="M694.3,237.9h-5.5c-1,0-1.8-0.8-1.8-1.8v-13.5c0-1,0.8-1.8,1.8-1.8h5.5c1,0,1.8,0.8,1.8,1.8v13.5
			C696,237.1,695.2,237.9,694.3,237.9z"/>
	</g>
	<g>
		<path class="st4" d="M677.6,276.3H672c-1,0-1.8-0.8-1.8-1.8v-13.9c0-1,0.8-1.8,1.8-1.8h5.6c1,0,1.8,0.8,1.8,1.8v13.9
			C679.4,275.6,678.6,276.3,677.6,276.3z"/>
	</g>
	<g>
		<path class="st4" d="M694.3,275.8h-5.5c-1,0-1.8-0.8-1.8-1.8v-13.5c0-1,0.8-1.8,1.8-1.8h5.5c1,0,1.8,0.8,1.8,1.8V274
			C696,275,695.2,275.8,694.3,275.8z"/>
	</g>
	<g>
		<path class="st4" d="M677.6,312.6H672c-1,0-1.8-0.8-1.8-1.8v-13.9c0-1,0.8-1.8,1.8-1.8h5.6c1,0,1.8,0.8,1.8,1.8v13.9
			C679.4,311.8,678.6,312.6,677.6,312.6z"/>
	</g>
	<g>
		<path class="st4" d="M694.3,313.1h-5.5c-1,0-1.8-0.8-1.8-1.8v-14.5c0-1,0.8-1.8,1.8-1.8h5.5c1,0,1.8,0.8,1.8,1.8v14.5
			C696,312.3,695.2,313.1,694.3,313.1z"/>
	</g>
	<g>
		<path class="st4" d="M677.6,349.5H672c-1,0-1.8-0.8-1.8-1.8v-13.8c0-1,0.8-1.8,1.8-1.8h5.6c1,0,1.8,0.8,1.8,1.8v13.9
			C679.4,348.8,678.6,349.5,677.6,349.5z"/>
	</g>
	<g>
		<path class="st4" d="M694.3,349.4h-5.6c-1,0-1.8-0.8-1.8-1.8v-13.9c0-1,0.8-1.8,1.8-1.8h5.6c1,0,1.8,0.8,1.8,1.8v13.9
			C696,348.7,695.2,349.4,694.3,349.4z"/>
	</g>
	<g>
		<path class="st4" d="M710.7,15.4h-5.6c-1,0-1.8-0.8-1.8-1.8V-0.3c0-1,0.8-1.8,1.8-1.8h5.6c1,0,1.8,0.8,1.8,1.8v13.9
			C712.4,14.6,711.6,15.4,710.7,15.4z"/>
	</g>
	<g>
		<path class="st4" d="M727.3,15.4h-5.6c-1,0-1.8-0.8-1.8-1.8V-0.3c0-1,0.8-1.8,1.8-1.8h5.6c1,0,1.8,0.8,1.8,1.8v13.9
			C729,14.6,728.2,15.4,727.3,15.4z"/>
	</g>
	<g>
		<path class="st4" d="M710.7,52.3h-5.6c-1,0-1.8-0.8-1.8-1.8V36.7c0-1,0.8-1.8,1.8-1.8h5.6c1,0,1.8,0.8,1.8,1.8v13.9
			C712.4,51.6,711.6,52.3,710.7,52.3z"/>
	</g>
	<g>
		<path class="st4" d="M727.3,52.4h-5.6c-1,0-1.8-0.8-1.8-1.8V36.7c0-1,0.8-1.8,1.8-1.8h5.6c1,0,1.8,0.8,1.8,1.8v13.9
			C729,51.6,728.2,52.4,727.3,52.4z"/>
	</g>
	<g>
		<path class="st4" d="M710.7,88.4h-5.6c-1,0-1.8-0.8-1.8-1.8V72.7c0-1,0.8-1.8,1.8-1.8h5.6c1,0,1.8,0.8,1.8,1.8v13.9
			C712.4,87.6,711.6,88.4,710.7,88.4z"/>
	</g>
	<g>
		<path class="st4" d="M727.3,88.3h-5.6c-1,0-1.8-0.8-1.8-1.8V72.6c0-1,0.8-1.8,1.8-1.8h5.6c1,0,1.8,0.8,1.8,1.8v13.9
			C729,87.5,728.2,88.3,727.3,88.3z"/>
	</g>
	<g>
		<path class="st4" d="M710.7,125.3h-5.6c-1,0-1.8-0.8-1.8-1.8v-13.9c0-1,0.8-1.8,1.8-1.8h5.6c1,0,1.8,0.8,1.8,1.8v13.9
			C712.4,124.5,711.6,125.3,710.7,125.3z"/>
	</g>
	<g>
		<path class="st4" d="M727.3,125.2h-5.6c-1,0-1.8-0.8-1.8-1.8v-13.9c0-1,0.8-1.8,1.8-1.8h5.6c1,0,1.8,0.8,1.8,1.8v13.9
			C729,124.4,728.2,125.2,727.3,125.2z"/>
	</g>
	<g>
		<path class="st4" d="M710.7,162h-5.5c-1,0-1.8-0.8-1.8-1.8v-13.5c0-1,0.8-1.8,1.8-1.8h5.5c1,0,1.8,0.8,1.8,1.8v13.5
			C712.4,161.2,711.6,162,710.7,162z"/>
	</g>
	<g>
		<path class="st4" d="M727.3,162.3h-5.6c-1,0-1.8-0.8-1.8-1.8v-13.9c0-1,0.8-1.8,1.8-1.8h5.6c1,0,1.8,0.8,1.8,1.8v13.9
			C729,161.5,728.2,162.3,727.3,162.3z"/>
	</g>
	<g>
		<path class="st4" d="M710.7,199.9h-5.5c-1,0-1.8-0.8-1.8-1.8v-13.5c0-1,0.8-1.8,1.8-1.8h5.5c1,0,1.8,0.8,1.8,1.8v13.5
			C712.4,199.1,711.6,199.9,710.7,199.9z"/>
	</g>
	<g>
		<path class="st4" d="M727.3,200.3h-5.6c-1,0-1.8-0.8-1.8-1.8v-13.9c0-1,0.8-1.8,1.8-1.8h5.6c1,0,1.8,0.8,1.8,1.8v13.9
			C729,199.5,728.2,200.3,727.3,200.3z"/>
	</g>
	<g>
		<path class="st4" d="M710.7,238.4h-5.6c-1,0-1.8-0.8-1.8-1.8v-13.9c0-1,0.8-1.8,1.8-1.8h5.6c1,0,1.8,0.8,1.8,1.8v13.9
			C712.4,237.6,711.6,238.4,710.7,238.4z"/>
	</g>
	<g>
		<path class="st4" d="M727.3,237.9h-5.5c-1,0-1.8-0.8-1.8-1.8v-13.5c0-1,0.8-1.8,1.8-1.8h5.5c1,0,1.8,0.8,1.8,1.8v13.5
			C729,237.1,728.2,237.9,727.3,237.9z"/>
	</g>
	<g>
		<path class="st4" d="M710.7,276.3h-5.6c-1,0-1.8-0.8-1.8-1.8v-13.9c0-1,0.8-1.8,1.8-1.8h5.6c1,0,1.8,0.8,1.8,1.8v13.9
			C712.4,275.6,711.6,276.3,710.7,276.3z"/>
	</g>
	<g>
		<path class="st4" d="M727.3,275.8h-5.5c-1,0-1.8-0.8-1.8-1.8v-13.5c0-1,0.8-1.8,1.8-1.8h5.5c1,0,1.8,0.8,1.8,1.8V274
			C729,275,728.2,275.8,727.3,275.8z"/>
	</g>
	<g>
		<path class="st4" d="M710.7,312.6h-5.6c-1,0-1.8-0.8-1.8-1.8v-13.9c0-1,0.8-1.8,1.8-1.8h5.6c1,0,1.8,0.8,1.8,1.8v13.9
			C712.4,311.8,711.6,312.6,710.7,312.6z"/>
	</g>
	<g>
		<path class="st4" d="M727.3,313.1h-5.5c-1,0-1.8-0.8-1.8-1.8v-14.5c0-1,0.8-1.8,1.8-1.8h5.5c1,0,1.8,0.8,1.8,1.8v14.5
			C729,312.3,728.2,313.1,727.3,313.1z"/>
	</g>
	<g>
		<path class="st4" d="M710.7,349.5h-5.6c-1,0-1.8-0.8-1.8-1.8v-13.8c0-1,0.8-1.8,1.8-1.8h5.6c1,0,1.8,0.8,1.8,1.8v13.9
			C712.4,348.8,711.6,349.5,710.7,349.5z"/>
	</g>
	<g>
		<path class="st4" d="M727.3,349.4h-5.6c-1,0-1.8-0.8-1.8-1.8v-13.9c0-1,0.8-1.8,1.8-1.8h5.6c1,0,1.8,0.8,1.8,1.8v13.9
			C729,348.7,728.2,349.4,727.3,349.4z"/>
	</g>
	<path class="st8" d="M729.1-12.1h-26.8c-0.9,0-1.7-0.4-2.3-1l-19.2-21c-1.7-1.8-0.3-4.7,2.3-4.7h26.8c0.9,0,1.7,0.4,2.3,1l19.2,21
		C733.1-14.9,731.7-12.1,729.1-12.1z"/>
	<path class="st2" d="M700.9,380.1h-36.2c-1.2,0-2.2-1-2.2-2.2v-12.6h38.4V380.1z"/>
	<path class="st6" d="M700.5,380.1h29.9c1.2,0,2.2-1,2.2-2.2v-12.6h-32v14.8H700.5z"/>
	<path class="st0" d="M707.6-30.5h-7.8c-0.6,0-1-0.5-1-1v-10.9h9.9v10.9C708.7-30.9,708.2-30.5,707.6-30.5z"/>
	<path class="st2" d="M707.6-30.5h-3.9v-11.9h4.9v10.8C708.7-31,708.2-30.5,707.6-30.5z"/>
	<path class="st0" d="M709.7-42.4h-11.9c-0.4,0-0.8-0.4-0.8-0.8v-1.5c0-0.4,0.4-0.8,0.8-0.8h11.9c0.4,0,0.8,0.4,0.8,0.8v1.6
		C710.5-42.7,710.1-42.4,709.7-42.4z"/>
	<path class="st2" d="M709.6-42.4h-5.9v-3h5.9c0.5,0,0.8,0.4,0.8,0.8v1.4C710.5-42.7,710.1-42.4,709.6-42.4z"/>
</g>
<g>
	<path class="st2" d="M796,379.6h-29.4v-396H796c1.5,0,2.6,1.2,2.6,2.6v390.7C798.6,378.4,797.4,379.6,796,379.6z"/>
	<path class="st0" d="M756.9-28l-7.9-9.7c-0.8-1-2.3-0.9-3.1,0.1L738-28l-9,11c-0.3,0.4-0.5,0.9-0.5,1.4v393c0,1.2,1,2.2,2.2,2.2
		h35.8V-15.6c0-0.5-0.2-1-0.5-1.4L756.9-28z"/>
	<g>
		<path class="st4" d="M743.7,14.9h-5.6c-1,0-1.8-0.8-1.8-1.8V-0.8c0-1,0.8-1.8,1.8-1.8h5.6c1,0,1.8,0.8,1.8,1.8v13.9
			C745.5,14.1,744.7,14.9,743.7,14.9z"/>
	</g>
	<g>
		<path class="st4" d="M760.4,14.9h-5.6c-1,0-1.8-0.8-1.8-1.8V-0.8c0-1,0.8-1.8,1.8-1.8h5.6c1,0,1.8,0.8,1.8,1.8v13.9
			C762.1,14.1,761.3,14.9,760.4,14.9z"/>
	</g>
	<g>
		<path class="st4" d="M743.7,51.8h-5.6c-1,0-1.8-0.8-1.8-1.8V36.2c0-1,0.8-1.8,1.8-1.8h5.6c1,0,1.8,0.8,1.8,1.8v13.9
			C745.5,51.1,744.7,51.8,743.7,51.8z"/>
	</g>
	<g>
		<path class="st4" d="M760.4,51.9h-5.6c-1,0-1.8-0.8-1.8-1.8V36.2c0-1,0.8-1.8,1.8-1.8h5.6c1,0,1.8,0.8,1.8,1.8v13.9
			C762.1,51.1,761.3,51.9,760.4,51.9z"/>
	</g>
	<g>
		<path class="st4" d="M743.7,87.9h-5.6c-1,0-1.8-0.8-1.8-1.8V72.2c0-1,0.8-1.8,1.8-1.8h5.6c1,0,1.8,0.8,1.8,1.8v13.9
			C745.5,87.1,744.7,87.9,743.7,87.9z"/>
	</g>
	<g>
		<path class="st4" d="M760.4,87.8h-5.6c-1,0-1.8-0.8-1.8-1.8V72.1c0-1,0.8-1.8,1.8-1.8h5.6c1,0,1.8,0.8,1.8,1.8V86
			C762.1,87,761.3,87.8,760.4,87.8z"/>
	</g>
	<g>
		<path class="st4" d="M743.7,124.8h-5.6c-1,0-1.8-0.8-1.8-1.8v-13.9c0-1,0.8-1.8,1.8-1.8h5.6c1,0,1.8,0.8,1.8,1.8V123
			C745.5,124,744.7,124.8,743.7,124.8z"/>
	</g>
	<g>
		<path class="st4" d="M760.4,124.7h-5.6c-1,0-1.8-0.8-1.8-1.8V109c0-1,0.8-1.8,1.8-1.8h5.6c1,0,1.8,0.8,1.8,1.8v13.9
			C762.1,123.9,761.3,124.7,760.4,124.7z"/>
	</g>
	<g>
		<path class="st4" d="M743.7,161.5h-5.5c-1,0-1.8-0.8-1.8-1.8v-13.5c0-1,0.8-1.8,1.8-1.8h5.5c1,0,1.8,0.8,1.8,1.8v13.5
			C745.5,160.7,744.7,161.5,743.7,161.5z"/>
	</g>
	<g>
		<path class="st4" d="M760.4,161.8h-5.6c-1,0-1.8-0.8-1.8-1.8v-13.9c0-1,0.8-1.8,1.8-1.8h5.6c1,0,1.8,0.8,1.8,1.8V160
			C762.1,161,761.3,161.8,760.4,161.8z"/>
	</g>
	<g>
		<path class="st4" d="M743.7,199.4h-5.5c-1,0-1.8-0.8-1.8-1.8v-13.5c0-1,0.8-1.8,1.8-1.8h5.5c1,0,1.8,0.8,1.8,1.8v13.5
			C745.5,198.6,744.7,199.4,743.7,199.4z"/>
	</g>
	<g>
		<path class="st4" d="M760.4,199.8h-5.6c-1,0-1.8-0.8-1.8-1.8v-13.9c0-1,0.8-1.8,1.8-1.8h5.6c1,0,1.8,0.8,1.8,1.8V198
			C762.1,199,761.3,199.8,760.4,199.8z"/>
	</g>
	<g>
		<path class="st4" d="M743.7,237.9h-5.6c-1,0-1.8-0.8-1.8-1.8v-13.9c0-1,0.8-1.8,1.8-1.8h5.6c1,0,1.8,0.8,1.8,1.8v13.9
			C745.5,237.1,744.7,237.9,743.7,237.9z"/>
	</g>
	<g>
		<path class="st4" d="M760.4,237.4h-5.5c-1,0-1.8-0.8-1.8-1.8v-13.5c0-1,0.8-1.8,1.8-1.8h5.5c1,0,1.8,0.8,1.8,1.8v13.5
			C762.1,236.6,761.3,237.4,760.4,237.4z"/>
	</g>
	<g>
		<path class="st4" d="M743.7,275.8h-5.6c-1,0-1.8-0.8-1.8-1.8v-13.9c0-1,0.8-1.8,1.8-1.8h5.6c1,0,1.8,0.8,1.8,1.8V274
			C745.5,275.1,744.7,275.8,743.7,275.8z"/>
	</g>
	<g>
		<path class="st4" d="M760.4,275.3h-5.5c-1,0-1.8-0.8-1.8-1.8V260c0-1,0.8-1.8,1.8-1.8h5.5c1,0,1.8,0.8,1.8,1.8v13.5
			C762.1,274.5,761.3,275.3,760.4,275.3z"/>
	</g>
	<g>
		<path class="st4" d="M743.7,312.1h-5.6c-1,0-1.8-0.8-1.8-1.8v-13.9c0-1,0.8-1.8,1.8-1.8h5.6c1,0,1.8,0.8,1.8,1.8v13.9
			C745.5,311.3,744.7,312.1,743.7,312.1z"/>
	</g>
	<g>
		<path class="st4" d="M760.4,312.6h-5.5c-1,0-1.8-0.8-1.8-1.8v-14.5c0-1,0.8-1.8,1.8-1.8h5.5c1,0,1.8,0.8,1.8,1.8v14.5
			C762.1,311.8,761.3,312.6,760.4,312.6z"/>
	</g>
	<g>
		<path class="st4" d="M743.7,349h-5.6c-1,0-1.8-0.8-1.8-1.8v-13.8c0-1,0.8-1.8,1.8-1.8h5.6c1,0,1.8,0.8,1.8,1.8v13.9
			C745.5,348.3,744.7,349,743.7,349z"/>
	</g>
	<g>
		<path class="st4" d="M760.4,348.9h-5.6c-1,0-1.8-0.8-1.8-1.8v-13.9c0-1,0.8-1.8,1.8-1.8h5.6c1,0,1.8,0.8,1.8,1.8v13.9
			C762.1,348.2,761.3,348.9,760.4,348.9z"/>
	</g>
	<g>
		<path class="st4" d="M776.8,14.9h-5.6c-1,0-1.8-0.8-1.8-1.8V-0.8c0-1,0.8-1.8,1.8-1.8h5.6c1,0,1.8,0.8,1.8,1.8v13.9
			C778.5,14.1,777.7,14.9,776.8,14.9z"/>
	</g>
	<g>
		<path class="st4" d="M793.4,14.9h-5.6c-1,0-1.8-0.8-1.8-1.8V-0.8c0-1,0.8-1.8,1.8-1.8h5.6c1,0,1.8,0.8,1.8,1.8v13.9
			C795.1,14.1,794.3,14.9,793.4,14.9z"/>
	</g>
	<g>
		<path class="st4" d="M776.8,51.8h-5.6c-1,0-1.8-0.8-1.8-1.8V36.2c0-1,0.8-1.8,1.8-1.8h5.6c1,0,1.8,0.8,1.8,1.8v13.9
			C778.5,51.1,777.7,51.8,776.8,51.8z"/>
	</g>
	<g>
		<path class="st4" d="M793.4,51.9h-5.6c-1,0-1.8-0.8-1.8-1.8V36.2c0-1,0.8-1.8,1.8-1.8h5.6c1,0,1.8,0.8,1.8,1.8v13.9
			C795.1,51.1,794.3,51.9,793.4,51.9z"/>
	</g>
	<g>
		<path class="st4" d="M776.8,87.9h-5.6c-1,0-1.8-0.8-1.8-1.8V72.2c0-1,0.8-1.8,1.8-1.8h5.6c1,0,1.8,0.8,1.8,1.8v13.9
			C778.5,87.1,777.7,87.9,776.8,87.9z"/>
	</g>
	<g>
		<path class="st4" d="M793.4,87.8h-5.6c-1,0-1.8-0.8-1.8-1.8V72.1c0-1,0.8-1.8,1.8-1.8h5.6c1,0,1.8,0.8,1.8,1.8V86
			C795.1,87,794.3,87.8,793.4,87.8z"/>
	</g>
	<g>
		<path class="st4" d="M776.8,124.8h-5.6c-1,0-1.8-0.8-1.8-1.8v-13.9c0-1,0.8-1.8,1.8-1.8h5.6c1,0,1.8,0.8,1.8,1.8V123
			C778.5,124,777.7,124.8,776.8,124.8z"/>
	</g>
	<g>
		<path class="st4" d="M793.4,124.7h-5.6c-1,0-1.8-0.8-1.8-1.8V109c0-1,0.8-1.8,1.8-1.8h5.6c1,0,1.8,0.8,1.8,1.8v13.9
			C795.1,123.9,794.3,124.7,793.4,124.7z"/>
	</g>
	<g>
		<path class="st4" d="M776.8,161.5h-5.5c-1,0-1.8-0.8-1.8-1.8v-13.5c0-1,0.8-1.8,1.8-1.8h5.5c1,0,1.8,0.8,1.8,1.8v13.5
			C778.5,160.7,777.7,161.5,776.8,161.5z"/>
	</g>
	<g>
		<path class="st4" d="M793.4,161.8h-5.6c-1,0-1.8-0.8-1.8-1.8v-13.9c0-1,0.8-1.8,1.8-1.8h5.6c1,0,1.8,0.8,1.8,1.8V160
			C795.1,161,794.3,161.8,793.4,161.8z"/>
	</g>
	<g>
		<path class="st4" d="M776.8,199.4h-5.5c-1,0-1.8-0.8-1.8-1.8v-13.5c0-1,0.8-1.8,1.8-1.8h5.5c1,0,1.8,0.8,1.8,1.8v13.5
			C778.5,198.6,777.7,199.4,776.8,199.4z"/>
	</g>
	<g>
		<path class="st4" d="M793.4,199.8h-5.6c-1,0-1.8-0.8-1.8-1.8v-13.9c0-1,0.8-1.8,1.8-1.8h5.6c1,0,1.8,0.8,1.8,1.8V198
			C795.1,199,794.3,199.8,793.4,199.8z"/>
	</g>
	<g>
		<path class="st4" d="M776.8,237.9h-5.6c-1,0-1.8-0.8-1.8-1.8v-13.9c0-1,0.8-1.8,1.8-1.8h5.6c1,0,1.8,0.8,1.8,1.8v13.9
			C778.5,237.1,777.7,237.9,776.8,237.9z"/>
	</g>
	<g>
		<path class="st4" d="M793.4,237.4h-5.5c-1,0-1.8-0.8-1.8-1.8v-13.5c0-1,0.8-1.8,1.8-1.8h5.5c1,0,1.8,0.8,1.8,1.8v13.5
			C795.1,236.6,794.3,237.4,793.4,237.4z"/>
	</g>
	<g>
		<path class="st4" d="M776.8,275.8h-5.6c-1,0-1.8-0.8-1.8-1.8v-13.9c0-1,0.8-1.8,1.8-1.8h5.6c1,0,1.8,0.8,1.8,1.8V274
			C778.5,275.1,777.7,275.8,776.8,275.8z"/>
	</g>
	<g>
		<path class="st4" d="M793.4,275.3h-5.5c-1,0-1.8-0.8-1.8-1.8V260c0-1,0.8-1.8,1.8-1.8h5.5c1,0,1.8,0.8,1.8,1.8v13.5
			C795.1,274.5,794.3,275.3,793.4,275.3z"/>
	</g>
	<g>
		<path class="st4" d="M776.8,312.1h-5.6c-1,0-1.8-0.8-1.8-1.8v-13.9c0-1,0.8-1.8,1.8-1.8h5.6c1,0,1.8,0.8,1.8,1.8v13.9
			C778.5,311.3,777.7,312.1,776.8,312.1z"/>
	</g>
	<g>
		<path class="st4" d="M793.4,312.6h-5.5c-1,0-1.8-0.8-1.8-1.8v-14.5c0-1,0.8-1.8,1.8-1.8h5.5c1,0,1.8,0.8,1.8,1.8v14.5
			C795.1,311.8,794.3,312.6,793.4,312.6z"/>
	</g>
	<g>
		<path class="st4" d="M776.8,349h-5.6c-1,0-1.8-0.8-1.8-1.8v-13.8c0-1,0.8-1.8,1.8-1.8h5.6c1,0,1.8,0.8,1.8,1.8v13.9
			C778.5,348.3,777.7,349,776.8,349z"/>
	</g>
	<g>
		<path class="st4" d="M793.4,348.9h-5.6c-1,0-1.8-0.8-1.8-1.8v-13.9c0-1,0.8-1.8,1.8-1.8h5.6c1,0,1.8,0.8,1.8,1.8v13.9
			C795.1,348.2,794.3,348.9,793.4,348.9z"/>
	</g>
	<path class="st8" d="M795.2-12.6h-26.8c-0.9,0-1.7-0.4-2.3-1l-19.2-21c-1.7-1.8-0.3-4.7,2.3-4.7H776c0.9,0,1.7,0.4,2.3,1l19.2,21
		C799.2-15.4,797.8-12.6,795.2-12.6z"/>
	<path class="st2" d="M767,379.6h-36.2c-1.2,0-2.2-1-2.2-2.2v-12.6H767V379.6z"/>
	<path class="st6" d="M766.6,379.6h29.9c1.2,0,2.2-1,2.2-2.2v-12.6h-32v14.8H766.6z"/>
	<path class="st0" d="M773.7-31h-7.8c-0.6,0-1-0.5-1-1v-10.9h9.9V-32C774.8-31.4,774.3-31,773.7-31z"/>
	<path class="st2" d="M773.7-31h-3.9v-11.9h4.9v10.8C774.8-31.5,774.3-31,773.7-31z"/>
	<path class="st0" d="M775.8-42.9h-11.9c-0.4,0-0.8-0.4-0.8-0.8v-1.5c0-0.4,0.4-0.8,0.8-0.8h11.9c0.4,0,0.8,0.4,0.8,0.8v1.6
		C776.6-43.2,776.2-42.9,775.8-42.9z"/>
	<path class="st2" d="M775.7-42.9h-5.9v-3h5.9c0.5,0,0.8,0.4,0.8,0.8v1.4C776.6-43.2,776.2-42.9,775.7-42.9z"/>
</g>
<g>
	<path class="st2" d="M1004.7,390.9h-29.4v-396h29.4c1.5,0,2.6,1.2,2.6,2.6v390.7C1007.3,389.7,1006.1,390.9,1004.7,390.9z"/>
	<path class="st0" d="M965.6-16.7l-7.9-9.7c-0.8-1-2.3-0.9-3.1,0.1l-7.9,9.6l-9,11c-0.3,0.4-0.5,0.9-0.5,1.4v393
		c0,1.2,1,2.2,2.2,2.2h35.8V-4.3c0-0.5-0.2-1-0.5-1.4L965.6-16.7z"/>
	<g>
		<path class="st4" d="M952.4,26.2h-5.6c-1,0-1.8-0.8-1.8-1.8V10.5c0-1,0.8-1.8,1.8-1.8h5.6c1,0,1.8,0.8,1.8,1.8v13.9
			C954.2,25.4,953.4,26.2,952.4,26.2z"/>
	</g>
	<g>
		<path class="st4" d="M969.1,26.2h-5.6c-1,0-1.8-0.8-1.8-1.8V10.5c0-1,0.8-1.8,1.8-1.8h5.6c1,0,1.8,0.8,1.8,1.8v13.9
			C970.8,25.4,970,26.2,969.1,26.2z"/>
	</g>
	<g>
		<path class="st4" d="M952.4,63.1h-5.6c-1,0-1.8-0.8-1.8-1.8V47.5c0-1,0.8-1.8,1.8-1.8h5.6c1,0,1.8,0.8,1.8,1.8v13.9
			C954.2,62.4,953.4,63.1,952.4,63.1z"/>
	</g>
	<g>
		<path class="st4" d="M969.1,63.2h-5.6c-1,0-1.8-0.8-1.8-1.8V47.5c0-1,0.8-1.8,1.8-1.8h5.6c1,0,1.8,0.8,1.8,1.8v13.9
			C970.8,62.4,970,63.2,969.1,63.2z"/>
	</g>
	<g>
		<path class="st4" d="M952.4,99.2h-5.6c-1,0-1.8-0.8-1.8-1.8V83.5c0-1,0.8-1.8,1.8-1.8h5.6c1,0,1.8,0.8,1.8,1.8v13.9
			C954.2,98.4,953.4,99.2,952.4,99.2z"/>
	</g>
	<g>
		<path class="st4" d="M969.1,99.1h-5.6c-1,0-1.8-0.8-1.8-1.8V83.4c0-1,0.8-1.8,1.8-1.8h5.6c1,0,1.8,0.8,1.8,1.8v13.9
			C970.8,98.3,970,99.1,969.1,99.1z"/>
	</g>
	<g>
		<path class="st4" d="M952.4,136.1h-5.6c-1,0-1.8-0.8-1.8-1.8v-13.9c0-1,0.8-1.8,1.8-1.8h5.6c1,0,1.8,0.8,1.8,1.8v13.9
			C954.2,135.3,953.4,136.1,952.4,136.1z"/>
	</g>
	<g>
		<path class="st4" d="M969.1,136h-5.6c-1,0-1.8-0.8-1.8-1.8v-13.9c0-1,0.8-1.8,1.8-1.8h5.6c1,0,1.8,0.8,1.8,1.8v13.9
			C970.8,135.2,970,136,969.1,136z"/>
	</g>
	<g>
		<path class="st4" d="M952.4,172.8h-5.5c-1,0-1.8-0.8-1.8-1.8v-13.5c0-1,0.8-1.8,1.8-1.8h5.5c1,0,1.8,0.8,1.8,1.8V171
			C954.2,172,953.4,172.8,952.4,172.8z"/>
	</g>
	<g>
		<path class="st4" d="M969.1,173.1h-5.6c-1,0-1.8-0.8-1.8-1.8v-13.9c0-1,0.8-1.8,1.8-1.8h5.6c1,0,1.8,0.8,1.8,1.8v13.9
			C970.8,172.3,970,173.1,969.1,173.1z"/>
	</g>
	<g>
		<path class="st4" d="M952.4,210.7h-5.5c-1,0-1.8-0.8-1.8-1.8v-13.5c0-1,0.8-1.8,1.8-1.8h5.5c1,0,1.8,0.8,1.8,1.8v13.5
			C954.2,209.9,953.4,210.7,952.4,210.7z"/>
	</g>
	<g>
		<path class="st4" d="M969.1,211.1h-5.6c-1,0-1.8-0.8-1.8-1.8v-13.9c0-1,0.8-1.8,1.8-1.8h5.6c1,0,1.8,0.8,1.8,1.8v13.9
			C970.8,210.3,970,211.1,969.1,211.1z"/>
	</g>
	<g>
		<path class="st4" d="M952.4,249.2h-5.6c-1,0-1.8-0.8-1.8-1.8v-13.9c0-1,0.8-1.8,1.8-1.8h5.6c1,0,1.8,0.8,1.8,1.8v13.9
			C954.2,248.4,953.4,249.2,952.4,249.2z"/>
	</g>
	<g>
		<path class="st4" d="M969.1,248.7h-5.5c-1,0-1.8-0.8-1.8-1.8v-13.5c0-1,0.8-1.8,1.8-1.8h5.5c1,0,1.8,0.8,1.8,1.8v13.5
			C970.8,247.9,970,248.7,969.1,248.7z"/>
	</g>
	<g>
		<path class="st4" d="M952.4,287.1h-5.6c-1,0-1.8-0.8-1.8-1.8v-13.9c0-1,0.8-1.8,1.8-1.8h5.6c1,0,1.8,0.8,1.8,1.8v13.9
			C954.2,286.4,953.4,287.1,952.4,287.1z"/>
	</g>
	<g>
		<path class="st4" d="M969.1,286.6h-5.5c-1,0-1.8-0.8-1.8-1.8v-13.5c0-1,0.8-1.8,1.8-1.8h5.5c1,0,1.8,0.8,1.8,1.8v13.5
			C970.8,285.8,970,286.6,969.1,286.6z"/>
	</g>
	<g>
		<path class="st4" d="M952.4,323.4h-5.6c-1,0-1.8-0.8-1.8-1.8v-13.9c0-1,0.8-1.8,1.8-1.8h5.6c1,0,1.8,0.8,1.8,1.8v13.9
			C954.2,322.6,953.4,323.4,952.4,323.4z"/>
	</g>
	<g>
		<path class="st4" d="M969.1,323.9h-5.5c-1,0-1.8-0.8-1.8-1.8v-14.5c0-1,0.8-1.8,1.8-1.8h5.5c1,0,1.8,0.8,1.8,1.8v14.5
			C970.8,323.1,970,323.9,969.1,323.9z"/>
	</g>
	<g>
		<path class="st4" d="M952.4,360.3h-5.6c-1,0-1.8-0.8-1.8-1.8v-13.8c0-1,0.8-1.8,1.8-1.8h5.6c1,0,1.8,0.8,1.8,1.8v13.9
			C954.2,359.6,953.4,360.3,952.4,360.3z"/>
	</g>
	<g>
		<path class="st4" d="M969.1,360.2h-5.6c-1,0-1.8-0.8-1.8-1.8v-13.9c0-1,0.8-1.8,1.8-1.8h5.6c1,0,1.8,0.8,1.8,1.8v13.9
			C970.8,359.5,970,360.2,969.1,360.2z"/>
	</g>
	<g>
		<path class="st4" d="M985.5,26.2h-5.6c-1,0-1.8-0.8-1.8-1.8V10.5c0-1,0.8-1.8,1.8-1.8h5.6c1,0,1.8,0.8,1.8,1.8v13.9
			C987.2,25.4,986.4,26.2,985.5,26.2z"/>
	</g>
	<g>
		<path class="st4" d="M1002.1,26.2h-5.6c-1,0-1.8-0.8-1.8-1.8V10.5c0-1,0.8-1.8,1.8-1.8h5.6c1,0,1.8,0.8,1.8,1.8v13.9
			C1003.8,25.4,1003,26.2,1002.1,26.2z"/>
	</g>
	<g>
		<path class="st4" d="M985.5,63.1h-5.6c-1,0-1.8-0.8-1.8-1.8V47.5c0-1,0.8-1.8,1.8-1.8h5.6c1,0,1.8,0.8,1.8,1.8v13.9
			C987.2,62.4,986.4,63.1,985.5,63.1z"/>
	</g>
	<g>
		<path class="st4" d="M1002.1,63.2h-5.6c-1,0-1.8-0.8-1.8-1.8V47.5c0-1,0.8-1.8,1.8-1.8h5.6c1,0,1.8,0.8,1.8,1.8v13.9
			C1003.8,62.4,1003,63.2,1002.1,63.2z"/>
	</g>
	<g>
		<path class="st4" d="M985.5,99.2h-5.6c-1,0-1.8-0.8-1.8-1.8V83.5c0-1,0.8-1.8,1.8-1.8h5.6c1,0,1.8,0.8,1.8,1.8v13.9
			C987.2,98.4,986.4,99.2,985.5,99.2z"/>
	</g>
	<g>
		<path class="st4" d="M1002.1,99.1h-5.6c-1,0-1.8-0.8-1.8-1.8V83.4c0-1,0.8-1.8,1.8-1.8h5.6c1,0,1.8,0.8,1.8,1.8v13.9
			C1003.8,98.3,1003,99.1,1002.1,99.1z"/>
	</g>
	<g>
		<path class="st4" d="M985.5,136.1h-5.6c-1,0-1.8-0.8-1.8-1.8v-13.9c0-1,0.8-1.8,1.8-1.8h5.6c1,0,1.8,0.8,1.8,1.8v13.9
			C987.2,135.3,986.4,136.1,985.5,136.1z"/>
	</g>
	<g>
		<path class="st4" d="M1002.1,136h-5.6c-1,0-1.8-0.8-1.8-1.8v-13.9c0-1,0.8-1.8,1.8-1.8h5.6c1,0,1.8,0.8,1.8,1.8v13.9
			C1003.8,135.2,1003,136,1002.1,136z"/>
	</g>
	<g>
		<path class="st4" d="M985.5,172.8H980c-1,0-1.8-0.8-1.8-1.8v-13.5c0-1,0.8-1.8,1.8-1.8h5.5c1,0,1.8,0.8,1.8,1.8V171
			C987.2,172,986.4,172.8,985.5,172.8z"/>
	</g>
	<g>
		<path class="st4" d="M1002.1,173.1h-5.6c-1,0-1.8-0.8-1.8-1.8v-13.9c0-1,0.8-1.8,1.8-1.8h5.6c1,0,1.8,0.8,1.8,1.8v13.9
			C1003.8,172.3,1003,173.1,1002.1,173.1z"/>
	</g>
	<g>
		<path class="st4" d="M985.5,210.7H980c-1,0-1.8-0.8-1.8-1.8v-13.5c0-1,0.8-1.8,1.8-1.8h5.5c1,0,1.8,0.8,1.8,1.8v13.5
			C987.2,209.9,986.4,210.7,985.5,210.7z"/>
	</g>
	<g>
		<path class="st4" d="M1002.1,211.1h-5.6c-1,0-1.8-0.8-1.8-1.8v-13.9c0-1,0.8-1.8,1.8-1.8h5.6c1,0,1.8,0.8,1.8,1.8v13.9
			C1003.8,210.3,1003,211.1,1002.1,211.1z"/>
	</g>
	<g>
		<path class="st4" d="M985.5,249.2h-5.6c-1,0-1.8-0.8-1.8-1.8v-13.9c0-1,0.8-1.8,1.8-1.8h5.6c1,0,1.8,0.8,1.8,1.8v13.9
			C987.2,248.4,986.4,249.2,985.5,249.2z"/>
	</g>
	<g>
		<path class="st4" d="M1002.1,248.7h-5.5c-1,0-1.8-0.8-1.8-1.8v-13.5c0-1,0.8-1.8,1.8-1.8h5.5c1,0,1.8,0.8,1.8,1.8v13.5
			C1003.8,247.9,1003,248.7,1002.1,248.7z"/>
	</g>
	<g>
		<path class="st4" d="M985.5,287.1h-5.6c-1,0-1.8-0.8-1.8-1.8v-13.9c0-1,0.8-1.8,1.8-1.8h5.6c1,0,1.8,0.8,1.8,1.8v13.9
			C987.2,286.4,986.4,287.1,985.5,287.1z"/>
	</g>
	<g>
		<path class="st4" d="M1002.1,286.6h-5.5c-1,0-1.8-0.8-1.8-1.8v-13.5c0-1,0.8-1.8,1.8-1.8h5.5c1,0,1.8,0.8,1.8,1.8v13.5
			C1003.8,285.8,1003,286.6,1002.1,286.6z"/>
	</g>
	<g>
		<path class="st4" d="M985.5,323.4h-5.6c-1,0-1.8-0.8-1.8-1.8v-13.9c0-1,0.8-1.8,1.8-1.8h5.6c1,0,1.8,0.8,1.8,1.8v13.9
			C987.2,322.6,986.4,323.4,985.5,323.4z"/>
	</g>
	<g>
		<path class="st4" d="M1002.1,323.9h-5.5c-1,0-1.8-0.8-1.8-1.8v-14.5c0-1,0.8-1.8,1.8-1.8h5.5c1,0,1.8,0.8,1.8,1.8v14.5
			C1003.8,323.1,1003,323.9,1002.1,323.9z"/>
	</g>
	<g>
		<path class="st4" d="M985.5,360.3h-5.6c-1,0-1.8-0.8-1.8-1.8v-13.8c0-1,0.8-1.8,1.8-1.8h5.6c1,0,1.8,0.8,1.8,1.8v13.9
			C987.2,359.6,986.4,360.3,985.5,360.3z"/>
	</g>
	<g>
		<path class="st4" d="M1002.1,360.2h-5.6c-1,0-1.8-0.8-1.8-1.8v-13.9c0-1,0.8-1.8,1.8-1.8h5.6c1,0,1.8,0.8,1.8,1.8v13.9
			C1003.8,359.5,1003,360.2,1002.1,360.2z"/>
	</g>
	<path class="st8" d="M1003.9-1.3h-26.8c-0.9,0-1.7-0.4-2.3-1l-19.2-21c-1.7-1.8-0.3-4.7,2.3-4.7h26.8c0.9,0,1.7,0.4,2.3,1l19.2,21
		C1007.9-4.1,1006.5-1.3,1003.9-1.3z"/>
	<path class="st2" d="M975.7,390.9h-36.2c-1.2,0-2.2-1-2.2-2.2v-12.6h38.4V390.9z"/>
	<path class="st6" d="M975.3,390.9h29.9c1.2,0,2.2-1,2.2-2.2v-12.6h-32v14.8H975.3z"/>
	<path class="st0" d="M982.4-19.7h-7.8c-0.6,0-1-0.5-1-1v-10.9h9.9v10.9C983.5-20.1,983-19.7,982.4-19.7z"/>
	<path class="st2" d="M982.4-19.7h-3.9v-11.9h4.9v10.8C983.5-20.2,983-19.7,982.4-19.7z"/>
	<path class="st0" d="M984.5-31.6h-11.9c-0.4,0-0.8-0.4-0.8-0.8v-1.5c0-0.4,0.4-0.8,0.8-0.8h11.9c0.4,0,0.8,0.4,0.8,0.8v1.6
		C985.3-31.9,984.9-31.6,984.5-31.6z"/>
	<path class="st2" d="M984.4-31.6h-5.9v-3h5.9c0.5,0,0.8,0.4,0.8,0.8v1.4C985.3-31.9,984.9-31.6,984.4-31.6z"/>
</g>
<g>
	<path class="st2" d="M1212.3,399.1h-29.4V3.1h29.4c1.5,0,2.6,1.2,2.6,2.6v390.7C1214.9,397.9,1213.7,399.1,1212.3,399.1z"/>
	<path class="st0" d="M1173.2-8.5l-7.9-9.7c-0.8-1-2.3-0.9-3.1,0.1l-7.9,9.6l-9,11c-0.3,0.4-0.5,0.9-0.5,1.4v393
		c0,1.2,1,2.2,2.2,2.2h35.8V3.9c0-0.5-0.2-1-0.5-1.4L1173.2-8.5z"/>
	<g>
		<path class="st4" d="M1160,34.4h-5.6c-1,0-1.8-0.8-1.8-1.8V18.7c0-1,0.8-1.8,1.8-1.8h5.6c1,0,1.8,0.8,1.8,1.8v13.9
			C1161.8,33.6,1161,34.4,1160,34.4z"/>
	</g>
	<g>
		<path class="st4" d="M1176.7,34.4h-5.6c-1,0-1.8-0.8-1.8-1.8V18.7c0-1,0.8-1.8,1.8-1.8h5.6c1,0,1.8,0.8,1.8,1.8v13.9
			C1178.4,33.6,1177.6,34.4,1176.7,34.4z"/>
	</g>
	<g>
		<path class="st4" d="M1160,71.3h-5.6c-1,0-1.8-0.8-1.8-1.8V55.7c0-1,0.8-1.8,1.8-1.8h5.6c1,0,1.8,0.8,1.8,1.8v13.9
			C1161.8,70.6,1161,71.3,1160,71.3z"/>
	</g>
	<g>
		<path class="st4" d="M1176.7,71.4h-5.6c-1,0-1.8-0.8-1.8-1.8V55.7c0-1,0.8-1.8,1.8-1.8h5.6c1,0,1.8,0.8,1.8,1.8v13.9
			C1178.4,70.6,1177.6,71.4,1176.7,71.4z"/>
	</g>
	<g>
		<path class="st4" d="M1160,107.4h-5.6c-1,0-1.8-0.8-1.8-1.8V91.7c0-1,0.8-1.8,1.8-1.8h5.6c1,0,1.8,0.8,1.8,1.8v13.9
			C1161.8,106.6,1161,107.4,1160,107.4z"/>
	</g>
	<g>
		<path class="st4" d="M1176.7,107.3h-5.6c-1,0-1.8-0.8-1.8-1.8V91.6c0-1,0.8-1.8,1.8-1.8h5.6c1,0,1.8,0.8,1.8,1.8v13.9
			C1178.4,106.5,1177.6,107.3,1176.7,107.3z"/>
	</g>
	<g>
		<path class="st4" d="M1160,144.3h-5.6c-1,0-1.8-0.8-1.8-1.8v-13.9c0-1,0.8-1.8,1.8-1.8h5.6c1,0,1.8,0.8,1.8,1.8v13.9
			C1161.8,143.5,1161,144.3,1160,144.3z"/>
	</g>
	<g>
		<path class="st4" d="M1176.7,144.2h-5.6c-1,0-1.8-0.8-1.8-1.8v-13.9c0-1,0.8-1.8,1.8-1.8h5.6c1,0,1.8,0.8,1.8,1.8v13.9
			C1178.4,143.4,1177.6,144.2,1176.7,144.2z"/>
	</g>
	<g>
		<path class="st4" d="M1160,181h-5.5c-1,0-1.8-0.8-1.8-1.8v-13.5c0-1,0.8-1.8,1.8-1.8h5.5c1,0,1.8,0.8,1.8,1.8v13.5
			C1161.8,180.2,1161,181,1160,181z"/>
	</g>
	<g>
		<path class="st4" d="M1176.7,181.3h-5.6c-1,0-1.8-0.8-1.8-1.8v-13.9c0-1,0.8-1.8,1.8-1.8h5.6c1,0,1.8,0.8,1.8,1.8v13.9
			C1178.4,180.5,1177.6,181.3,1176.7,181.3z"/>
	</g>
	<g>
		<path class="st4" d="M1160,218.9h-5.5c-1,0-1.8-0.8-1.8-1.8v-13.5c0-1,0.8-1.8,1.8-1.8h5.5c1,0,1.8,0.8,1.8,1.8v13.5
			C1161.8,218.1,1161,218.9,1160,218.9z"/>
	</g>
	<g>
		<path class="st4" d="M1176.7,219.3h-5.6c-1,0-1.8-0.8-1.8-1.8v-13.9c0-1,0.8-1.8,1.8-1.8h5.6c1,0,1.8,0.8,1.8,1.8v13.9
			C1178.4,218.5,1177.6,219.3,1176.7,219.3z"/>
	</g>
	<g>
		<path class="st4" d="M1160,257.4h-5.6c-1,0-1.8-0.8-1.8-1.8v-13.9c0-1,0.8-1.8,1.8-1.8h5.6c1,0,1.8,0.8,1.8,1.8v13.9
			C1161.8,256.6,1161,257.4,1160,257.4z"/>
	</g>
	<g>
		<path class="st4" d="M1176.7,256.9h-5.5c-1,0-1.8-0.8-1.8-1.8v-13.5c0-1,0.8-1.8,1.8-1.8h5.5c1,0,1.8,0.8,1.8,1.8v13.5
			C1178.4,256.1,1177.6,256.9,1176.7,256.9z"/>
	</g>
	<g>
		<path class="st4" d="M1160,295.3h-5.6c-1,0-1.8-0.8-1.8-1.8v-13.9c0-1,0.8-1.8,1.8-1.8h5.6c1,0,1.8,0.8,1.8,1.8v13.9
			C1161.8,294.6,1161,295.3,1160,295.3z"/>
	</g>
	<g>
		<path class="st4" d="M1176.7,294.8h-5.5c-1,0-1.8-0.8-1.8-1.8v-13.5c0-1,0.8-1.8,1.8-1.8h5.5c1,0,1.8,0.8,1.8,1.8V293
			C1178.4,294,1177.6,294.8,1176.7,294.8z"/>
	</g>
	<g>
		<path class="st4" d="M1160,331.6h-5.6c-1,0-1.8-0.8-1.8-1.8v-13.9c0-1,0.8-1.8,1.8-1.8h5.6c1,0,1.8,0.8,1.8,1.8v13.9
			C1161.8,330.8,1161,331.6,1160,331.6z"/>
	</g>
	<g>
		<path class="st4" d="M1176.7,332.1h-5.5c-1,0-1.8-0.8-1.8-1.8v-14.5c0-1,0.8-1.8,1.8-1.8h5.5c1,0,1.8,0.8,1.8,1.8v14.5
			C1178.4,331.3,1177.6,332.1,1176.7,332.1z"/>
	</g>
	<g>
		<path class="st4" d="M1160,368.5h-5.6c-1,0-1.8-0.8-1.8-1.8v-13.8c0-1,0.8-1.8,1.8-1.8h5.6c1,0,1.8,0.8,1.8,1.8v13.9
			C1161.8,367.8,1161,368.5,1160,368.5z"/>
	</g>
	<g>
		<path class="st4" d="M1176.7,368.4h-5.6c-1,0-1.8-0.8-1.8-1.8v-13.9c0-1,0.8-1.8,1.8-1.8h5.6c1,0,1.8,0.8,1.8,1.8v13.9
			C1178.4,367.7,1177.6,368.4,1176.7,368.4z"/>
	</g>
	<g>
		<path class="st4" d="M1193.1,34.4h-5.6c-1,0-1.8-0.8-1.8-1.8V18.7c0-1,0.8-1.8,1.8-1.8h5.6c1,0,1.8,0.8,1.8,1.8v13.9
			C1194.8,33.6,1194,34.4,1193.1,34.4z"/>
	</g>
	<g>
		<path class="st4" d="M1209.7,34.4h-5.6c-1,0-1.8-0.8-1.8-1.8V18.7c0-1,0.8-1.8,1.8-1.8h5.6c1,0,1.8,0.8,1.8,1.8v13.9
			C1211.4,33.6,1210.6,34.4,1209.7,34.4z"/>
	</g>
	<g>
		<path class="st4" d="M1193.1,71.3h-5.6c-1,0-1.8-0.8-1.8-1.8V55.7c0-1,0.8-1.8,1.8-1.8h5.6c1,0,1.8,0.8,1.8,1.8v13.9
			C1194.8,70.6,1194,71.3,1193.1,71.3z"/>
	</g>
	<g>
		<path class="st4" d="M1209.7,71.4h-5.6c-1,0-1.8-0.8-1.8-1.8V55.7c0-1,0.8-1.8,1.8-1.8h5.6c1,0,1.8,0.8,1.8,1.8v13.9
			C1211.4,70.6,1210.6,71.4,1209.7,71.4z"/>
	</g>
	<g>
		<path class="st4" d="M1193.1,107.4h-5.6c-1,0-1.8-0.8-1.8-1.8V91.7c0-1,0.8-1.8,1.8-1.8h5.6c1,0,1.8,0.8,1.8,1.8v13.9
			C1194.8,106.6,1194,107.4,1193.1,107.4z"/>
	</g>
	<g>
		<path class="st4" d="M1209.7,107.3h-5.6c-1,0-1.8-0.8-1.8-1.8V91.6c0-1,0.8-1.8,1.8-1.8h5.6c1,0,1.8,0.8,1.8,1.8v13.9
			C1211.4,106.5,1210.6,107.3,1209.7,107.3z"/>
	</g>
	<g>
		<path class="st4" d="M1193.1,144.3h-5.6c-1,0-1.8-0.8-1.8-1.8v-13.9c0-1,0.8-1.8,1.8-1.8h5.6c1,0,1.8,0.8,1.8,1.8v13.9
			C1194.8,143.5,1194,144.3,1193.1,144.3z"/>
	</g>
	<g>
		<path class="st4" d="M1209.7,144.2h-5.6c-1,0-1.8-0.8-1.8-1.8v-13.9c0-1,0.8-1.8,1.8-1.8h5.6c1,0,1.8,0.8,1.8,1.8v13.9
			C1211.4,143.4,1210.6,144.2,1209.7,144.2z"/>
	</g>
	<g>
		<path class="st4" d="M1193.1,181h-5.5c-1,0-1.8-0.8-1.8-1.8v-13.5c0-1,0.8-1.8,1.8-1.8h5.5c1,0,1.8,0.8,1.8,1.8v13.5
			C1194.8,180.2,1194,181,1193.1,181z"/>
	</g>
	<g>
		<path class="st4" d="M1209.7,181.3h-5.6c-1,0-1.8-0.8-1.8-1.8v-13.9c0-1,0.8-1.8,1.8-1.8h5.6c1,0,1.8,0.8,1.8,1.8v13.9
			C1211.4,180.5,1210.6,181.3,1209.7,181.3z"/>
	</g>
	<g>
		<path class="st4" d="M1193.1,218.9h-5.5c-1,0-1.8-0.8-1.8-1.8v-13.5c0-1,0.8-1.8,1.8-1.8h5.5c1,0,1.8,0.8,1.8,1.8v13.5
			C1194.8,218.1,1194,218.9,1193.1,218.9z"/>
	</g>
	<g>
		<path class="st4" d="M1209.7,219.3h-5.6c-1,0-1.8-0.8-1.8-1.8v-13.9c0-1,0.8-1.8,1.8-1.8h5.6c1,0,1.8,0.8,1.8,1.8v13.9
			C1211.4,218.5,1210.6,219.3,1209.7,219.3z"/>
	</g>
	<g>
		<path class="st4" d="M1193.1,257.4h-5.6c-1,0-1.8-0.8-1.8-1.8v-13.9c0-1,0.8-1.8,1.8-1.8h5.6c1,0,1.8,0.8,1.8,1.8v13.9
			C1194.8,256.6,1194,257.4,1193.1,257.4z"/>
	</g>
	<g>
		<path class="st4" d="M1209.7,256.9h-5.5c-1,0-1.8-0.8-1.8-1.8v-13.5c0-1,0.8-1.8,1.8-1.8h5.5c1,0,1.8,0.8,1.8,1.8v13.5
			C1211.4,256.1,1210.6,256.9,1209.7,256.9z"/>
	</g>
	<g>
		<path class="st4" d="M1193.1,295.3h-5.6c-1,0-1.8-0.8-1.8-1.8v-13.9c0-1,0.8-1.8,1.8-1.8h5.6c1,0,1.8,0.8,1.8,1.8v13.9
			C1194.8,294.6,1194,295.3,1193.1,295.3z"/>
	</g>
	<g>
		<path class="st4" d="M1209.7,294.8h-5.5c-1,0-1.8-0.8-1.8-1.8v-13.5c0-1,0.8-1.8,1.8-1.8h5.5c1,0,1.8,0.8,1.8,1.8V293
			C1211.4,294,1210.6,294.8,1209.7,294.8z"/>
	</g>
	<g>
		<path class="st4" d="M1193.1,331.6h-5.6c-1,0-1.8-0.8-1.8-1.8v-13.9c0-1,0.8-1.8,1.8-1.8h5.6c1,0,1.8,0.8,1.8,1.8v13.9
			C1194.8,330.8,1194,331.6,1193.1,331.6z"/>
	</g>
	<g>
		<path class="st4" d="M1209.7,332.1h-5.5c-1,0-1.8-0.8-1.8-1.8v-14.5c0-1,0.8-1.8,1.8-1.8h5.5c1,0,1.8,0.8,1.8,1.8v14.5
			C1211.4,331.3,1210.6,332.1,1209.7,332.1z"/>
	</g>
	<g>
		<path class="st4" d="M1193.1,368.5h-5.6c-1,0-1.8-0.8-1.8-1.8v-13.8c0-1,0.8-1.8,1.8-1.8h5.6c1,0,1.8,0.8,1.8,1.8v13.9
			C1194.8,367.8,1194,368.5,1193.1,368.5z"/>
	</g>
	<g>
		<path class="st4" d="M1209.7,368.4h-5.6c-1,0-1.8-0.8-1.8-1.8v-13.9c0-1,0.8-1.8,1.8-1.8h5.6c1,0,1.8,0.8,1.8,1.8v13.9
			C1211.4,367.7,1210.6,368.4,1209.7,368.4z"/>
	</g>
	<path class="st8" d="M1211.5,6.9h-26.8c-0.9,0-1.7-0.4-2.3-1l-19.2-21c-1.7-1.8-0.3-4.7,2.3-4.7h26.8c0.9,0,1.7,0.4,2.3,1l19.2,21
		C1215.5,4.1,1214.1,6.9,1211.5,6.9z"/>
	<path class="st2" d="M1183.3,399.1h-36.2c-1.2,0-2.2-1-2.2-2.2v-12.6h38.4V399.1z"/>
	<path class="st6" d="M1182.9,399.1h29.9c1.2,0,2.2-1,2.2-2.2v-12.6h-32L1182.9,399.1L1182.9,399.1z"/>
	<path class="st0" d="M1190-11.5h-7.8c-0.6,0-1-0.5-1-1v-10.9h9.9v10.9C1191.1-11.9,1190.6-11.5,1190-11.5z"/>
	<path class="st2" d="M1190-11.5h-3.9v-11.9h4.9v10.8C1191.1-12,1190.6-11.5,1190-11.5z"/>
	<path class="st0" d="M1192.1-23.4h-11.9c-0.4,0-0.8-0.4-0.8-0.8v-1.5c0-0.4,0.4-0.8,0.8-0.8h11.9c0.4,0,0.8,0.4,0.8,0.8v1.6
		C1192.9-23.7,1192.5-23.4,1192.1-23.4z"/>
	<path class="st2" d="M1192-23.4h-5.9v-3h5.9c0.5,0,0.8,0.4,0.8,0.8v1.4C1192.9-23.7,1192.5-23.4,1192-23.4z"/>
</g>
<path class="st2" d="M309.9,389.9h36.2c1.2,0,2.2-1,2.2-2.2v-12.5h-38.4V389.9z"/>
<path class="st6" d="M310.4,389.9h-29.9c-1.2,0-2.2-1-2.2-2.2v-12.5h32L310.4,389.9L310.4,389.9z"/>
<g>
	<path class="st2" d="M281,389.9h29.4v-396H281c-1.5,0-2.6,1.2-2.6,2.6v390.7C278.3,388.7,279.5,389.9,281,389.9z"/>
	<path class="st0" d="M320.1-17.6l7.9-9.7c0.8-1,2.3-0.9,3.1,0.1l7.9,9.6l9,11c0.3,0.4,0.5,0.9,0.5,1.4v393c0,1.2-1,2.2-2.2,2.2
		h-35.8V-5.3c0-0.5,0.2-1,0.5-1.4L320.1-17.6z"/>
	<g>
		<path class="st4" d="M333.2,25.3h5.6c1,0,1.8-0.8,1.8-1.8V9.6c0-1-0.8-1.8-1.8-1.8h-5.6c-1,0-1.8,0.8-1.8,1.8v13.9
			C331.4,24.5,332.2,25.3,333.2,25.3z"/>
	</g>
	<g>
		<path class="st4" d="M316.6,25.3h5.6c1,0,1.8-0.8,1.8-1.8V9.6c0-1-0.8-1.8-1.8-1.8h-5.6c-1,0-1.8,0.8-1.8,1.8v13.9
			C314.8,24.5,315.6,25.3,316.6,25.3z"/>
	</g>
	<g>
		<path class="st4" d="M333.2,62.2h5.6c1,0,1.8-0.8,1.8-1.8V46.5c0-1-0.8-1.8-1.8-1.8h-5.6c-1,0-1.8,0.8-1.8,1.8v13.9
			C331.4,61.4,332.2,62.2,333.2,62.2z"/>
	</g>
	<g>
		<path class="st4" d="M316.6,62.2h5.6c1,0,1.8-0.8,1.8-1.8V46.5c0-1-0.8-1.8-1.8-1.8h-5.6c-1,0-1.8,0.8-1.8,1.8v13.9
			C314.8,61.4,315.6,62.2,316.6,62.2z"/>
	</g>
	<g>
		<path class="st4" d="M333.2,98.3h5.6c1,0,1.8-0.8,1.8-1.8V82.6c0-1-0.8-1.8-1.8-1.8h-5.6c-1,0-1.8,0.8-1.8,1.8v13.9
			C331.4,97.5,332.2,98.3,333.2,98.3z"/>
	</g>
	<g>
		<path class="st4" d="M316.6,98.2h5.6c1,0,1.8-0.8,1.8-1.8V82.5c0-1-0.8-1.8-1.8-1.8h-5.6c-1,0-1.8,0.8-1.8,1.8v13.9
			C314.8,97.4,315.6,98.2,316.6,98.2z"/>
	</g>
	<g>
		<path class="st4" d="M333.2,135.2h5.6c1,0,1.8-0.8,1.8-1.8v-13.9c0-1-0.8-1.8-1.8-1.8h-5.6c-1,0-1.8,0.8-1.8,1.8v13.9
			C331.4,134.4,332.2,135.2,333.2,135.2z"/>
	</g>
	<g>
		<path class="st4" d="M316.6,135.1h5.6c1,0,1.8-0.8,1.8-1.8v-13.9c0-1-0.8-1.8-1.8-1.8h-5.6c-1,0-1.8,0.8-1.8,1.8v13.9
			C314.8,134.3,315.6,135.1,316.6,135.1z"/>
	</g>
	<g>
		<path class="st4" d="M333.2,171.9h5.5c1,0,1.8-0.8,1.8-1.8v-13.5c0-1-0.8-1.8-1.8-1.8h-5.5c-1,0-1.8,0.8-1.8,1.8v13.5
			C331.4,171.1,332.2,171.9,333.2,171.9z"/>
	</g>
	<g>
		<path class="st4" d="M316.6,172.2h5.6c1,0,1.8-0.8,1.8-1.8v-13.9c0-1-0.8-1.8-1.8-1.8h-5.6c-1,0-1.8,0.8-1.8,1.8v13.9
			C314.8,171.4,315.6,172.2,316.6,172.2z"/>
	</g>
	<g>
		<path class="st4" d="M333.2,209.8h5.5c1,0,1.8-0.8,1.8-1.8v-13.5c0-1-0.8-1.8-1.8-1.8h-5.5c-1,0-1.8,0.8-1.8,1.8V208
			C331.4,209,332.2,209.8,333.2,209.8z"/>
	</g>
	<g>
		<path class="st4" d="M316.6,210.1h5.6c1,0,1.8-0.8,1.8-1.8v-13.9c0-1-0.8-1.8-1.8-1.8h-5.6c-1,0-1.8,0.8-1.8,1.8v13.9
			C314.8,209.3,315.6,210.1,316.6,210.1z"/>
	</g>
	<g>
		<path class="st4" d="M333.2,248.3h5.6c1,0,1.8-0.8,1.8-1.8v-13.9c0-1-0.8-1.8-1.8-1.8h-5.6c-1,0-1.8,0.8-1.8,1.8v13.9
			C331.4,247.5,332.2,248.3,333.2,248.3z"/>
	</g>
	<g>
		<path class="st4" d="M316.6,247.7h5.5c1,0,1.8-0.8,1.8-1.8v-13.5c0-1-0.8-1.8-1.8-1.8h-5.5c-1,0-1.8,0.8-1.8,1.8v13.5
			C314.8,246.9,315.6,247.7,316.6,247.7z"/>
	</g>
	<g>
		<path class="st4" d="M333.2,286.2h5.6c1,0,1.8-0.8,1.8-1.8v-13.9c0-1-0.8-1.8-1.8-1.8h-5.6c-1,0-1.8,0.8-1.8,1.8v13.9
			C331.4,285.4,332.2,286.2,333.2,286.2z"/>
	</g>
	<g>
		<path class="st4" d="M316.6,285.6h5.5c1,0,1.8-0.8,1.8-1.8v-13.5c0-1-0.8-1.8-1.8-1.8h-5.5c-1,0-1.8,0.8-1.8,1.8v13.5
			C314.8,284.9,315.6,285.6,316.6,285.6z"/>
	</g>
	<g>
		<path class="st4" d="M333.2,322.5h5.6c1,0,1.8-0.8,1.8-1.8v-13.9c0-1-0.8-1.8-1.8-1.8h-5.6c-1,0-1.8,0.8-1.8,1.8v13.9
			C331.4,321.7,332.2,322.5,333.2,322.5z"/>
	</g>
	<g>
		<path class="st4" d="M316.6,322.9h5.5c1,0,1.8-0.8,1.8-1.8v-14.5c0-1-0.8-1.8-1.8-1.8h-5.5c-1,0-1.8,0.8-1.8,1.8v14.6
			C314.8,322.1,315.6,322.9,316.6,322.9z"/>
	</g>
	<g>
		<path class="st4" d="M333.2,359.4h5.6c1,0,1.8-0.8,1.8-1.8v-13.9c0-1-0.8-1.8-1.8-1.8h-5.6c-1,0-1.8,0.8-1.8,1.8v13.9
			C331.4,358.6,332.2,359.4,333.2,359.4z"/>
	</g>
	<g>
		<path class="st4" d="M316.6,359.3h5.6c1,0,1.8-0.8,1.8-1.8v-13.9c0-1-0.8-1.8-1.8-1.8h-5.6c-1,0-1.8,0.8-1.8,1.8v13.9
			C314.8,358.5,315.6,359.3,316.6,359.3z"/>
	</g>
	<g>
		<path class="st4" d="M300.2,25.3h5.6c1,0,1.8-0.8,1.8-1.8V9.6c0-1-0.8-1.8-1.8-1.8h-5.6c-1,0-1.8,0.8-1.8,1.8v13.9
			C298.4,24.5,299.2,25.3,300.2,25.3z"/>
	</g>
	<g>
		<path class="st4" d="M283.6,25.3h5.6c1,0,1.8-0.8,1.8-1.8V9.6c0-1-0.8-1.8-1.8-1.8h-5.6c-1,0-1.8,0.8-1.8,1.8v13.9
			C281.8,24.5,282.6,25.3,283.6,25.3z"/>
	</g>
	<g>
		<path class="st4" d="M300.2,62.2h5.6c1,0,1.8-0.8,1.8-1.8V46.5c0-1-0.8-1.8-1.8-1.8h-5.6c-1,0-1.8,0.8-1.8,1.8v13.9
			C298.4,61.4,299.2,62.2,300.2,62.2z"/>
	</g>
	<g>
		<path class="st4" d="M283.6,62.2h5.6c1,0,1.8-0.8,1.8-1.8V46.5c0-1-0.8-1.8-1.8-1.8h-5.6c-1,0-1.8,0.8-1.8,1.8v13.9
			C281.8,61.4,282.6,62.2,283.6,62.2z"/>
	</g>
	<g>
		<path class="st4" d="M300.2,98.3h5.6c1,0,1.8-0.8,1.8-1.8V82.6c0-1-0.8-1.8-1.8-1.8h-5.6c-1,0-1.8,0.8-1.8,1.8v13.9
			C298.4,97.5,299.2,98.3,300.2,98.3z"/>
	</g>
	<g>
		<path class="st4" d="M283.6,98.2h5.6c1,0,1.8-0.8,1.8-1.8V82.5c0-1-0.8-1.8-1.8-1.8h-5.6c-1,0-1.8,0.8-1.8,1.8v13.9
			C281.8,97.4,282.6,98.2,283.6,98.2z"/>
	</g>
	<g>
		<path class="st4" d="M300.2,135.2h5.6c1,0,1.8-0.8,1.8-1.8v-13.9c0-1-0.8-1.8-1.8-1.8h-5.6c-1,0-1.8,0.8-1.8,1.8v13.9
			C298.4,134.4,299.2,135.2,300.2,135.2z"/>
	</g>
	<g>
		<path class="st4" d="M283.6,135.1h5.6c1,0,1.8-0.8,1.8-1.8v-13.9c0-1-0.8-1.8-1.8-1.8h-5.6c-1,0-1.8,0.8-1.8,1.8v13.9
			C281.8,134.3,282.6,135.1,283.6,135.1z"/>
	</g>
	<g>
		<path class="st4" d="M300.2,171.9h5.5c1,0,1.8-0.8,1.8-1.8v-13.5c0-1-0.8-1.8-1.8-1.8h-5.5c-1,0-1.8,0.8-1.8,1.8v13.5
			C298.4,171.1,299.2,171.9,300.2,171.9z"/>
	</g>
	<g>
		<path class="st4" d="M283.6,172.2h5.6c1,0,1.8-0.8,1.8-1.8v-13.9c0-1-0.8-1.8-1.8-1.8h-5.6c-1,0-1.8,0.8-1.8,1.8v13.9
			C281.8,171.4,282.6,172.2,283.6,172.2z"/>
	</g>
	<g>
		<path class="st4" d="M300.2,209.8h5.5c1,0,1.8-0.8,1.8-1.8v-13.5c0-1-0.8-1.8-1.8-1.8h-5.5c-1,0-1.8,0.8-1.8,1.8V208
			C298.4,209,299.2,209.8,300.2,209.8z"/>
	</g>
	<g>
		<path class="st4" d="M283.6,210.1h5.6c1,0,1.8-0.8,1.8-1.8v-13.9c0-1-0.8-1.8-1.8-1.8h-5.6c-1,0-1.8,0.8-1.8,1.8v13.9
			C281.8,209.3,282.6,210.1,283.6,210.1z"/>
	</g>
	<g>
		<path class="st4" d="M300.2,248.3h5.6c1,0,1.8-0.8,1.8-1.8v-13.9c0-1-0.8-1.8-1.8-1.8h-5.6c-1,0-1.8,0.8-1.8,1.8v13.9
			C298.4,247.5,299.2,248.3,300.2,248.3z"/>
	</g>
	<g>
		<path class="st4" d="M283.6,247.7h5.5c1,0,1.8-0.8,1.8-1.8v-13.5c0-1-0.8-1.8-1.8-1.8h-5.5c-1,0-1.8,0.8-1.8,1.8v13.5
			C281.8,246.9,282.6,247.7,283.6,247.7z"/>
	</g>
	<g>
		<path class="st4" d="M300.2,286.2h5.6c1,0,1.8-0.8,1.8-1.8v-13.9c0-1-0.8-1.8-1.8-1.8h-5.6c-1,0-1.8,0.8-1.8,1.8v13.9
			C298.4,285.4,299.2,286.2,300.2,286.2z"/>
	</g>
	<g>
		<path class="st4" d="M283.6,285.6h5.5c1,0,1.8-0.8,1.8-1.8v-13.5c0-1-0.8-1.8-1.8-1.8h-5.5c-1,0-1.8,0.8-1.8,1.8v13.5
			C281.8,284.9,282.6,285.6,283.6,285.6z"/>
	</g>
	<g>
		<path class="st4" d="M300.2,322.5h5.6c1,0,1.8-0.8,1.8-1.8v-13.9c0-1-0.8-1.8-1.8-1.8h-5.6c-1,0-1.8,0.8-1.8,1.8v13.9
			C298.4,321.7,299.2,322.5,300.2,322.5z"/>
	</g>
	<g>
		<path class="st4" d="M283.6,322.9h5.5c1,0,1.8-0.8,1.8-1.8v-14.5c0-1-0.8-1.8-1.8-1.8h-5.5c-1,0-1.8,0.8-1.8,1.8v14.6
			C281.8,322.1,282.6,322.9,283.6,322.9z"/>
	</g>
	<g>
		<path class="st4" d="M300.2,359.4h5.6c1,0,1.8-0.8,1.8-1.8v-13.9c0-1-0.8-1.8-1.8-1.8h-5.6c-1,0-1.8,0.8-1.8,1.8v13.9
			C298.4,358.6,299.2,359.4,300.2,359.4z"/>
	</g>
	<g>
		<path class="st4" d="M283.6,359.3h5.6c1,0,1.8-0.8,1.8-1.8v-13.9c0-1-0.8-1.8-1.8-1.8h-5.6c-1,0-1.8,0.8-1.8,1.8v13.9
			C281.8,358.5,282.6,359.3,283.6,359.3z"/>
	</g>
	<path class="st5" d="M281.8-2.2h26.8c0.9,0,1.7-0.4,2.3-1l19.2-21c1.7-1.8,0.3-4.7-2.3-4.7H301c-0.9,0-1.7,0.4-2.3,1l-19.2,21
		C277.8-5.1,279.2-2.2,281.8-2.2z"/>
	<path class="st0" d="M303.2-20.6h7.8c0.6,0,1-0.5,1-1v-10.9h-9.9v10.9C302.2-21.1,302.7-20.6,303.2-20.6z"/>
	<path class="st2" d="M303.3-20.6h3.9v-11.9h-4.9v10.8C302.2-21.1,302.7-20.6,303.3-20.6z"/>
	<path class="st0" d="M301.2-32.5h11.9c0.4,0,0.8-0.4,0.8-0.8v-1.5c0-0.4-0.4-0.8-0.8-0.8h-11.9c-0.4,0-0.8,0.4-0.8,0.8v1.5
		C300.4-32.8,300.8-32.5,301.2-32.5z"/>
	<path class="st2" d="M301.2-32.5h5.9v-3h-5.9c-0.5,0-0.8,0.4-0.8,0.8v1.4C300.4-32.9,300.8-32.5,301.2-32.5z"/>
</g>
<g>
	<path class="st0" d="M1055,391.3h-50.8c-3,0-5.3-3.9-5.3-8.7V231.9c0-2.7,0.8-5.3,2.1-6.9l20.9-26.1c1.8-2.3,4.3-2.4,6.2-0.4
		l27,29.1L1055,391.3L1055,391.3L1055,391.3z"/>
	<path class="st2" d="M1103.8,391.3H1055V227.7h48.8c4.1,0,7.3,3.3,7.3,7.3v149C1111.2,388,1107.9,391.3,1103.8,391.3z"/>
	<g>
		<path class="st4" d="M1069.4,262.3h-5.6c-1,0-1.8-0.8-1.8-1.8v-13.9c0-1,0.8-1.8,1.8-1.8h5.6c1,0,1.8,0.8,1.8,1.8v13.9
			C1071.2,261.6,1070.4,262.3,1069.4,262.3z"/>
	</g>
	<g>
		<path class="st4" d="M1069.4,299.3h-5.6c-1,0-1.8-0.8-1.8-1.8v-13.9c0-1,0.8-1.8,1.8-1.8h5.6c1,0,1.8,0.8,1.8,1.8v13.9
			C1071.2,298.5,1070.4,299.3,1069.4,299.3z"/>
	</g>
	<g>
		<path class="st4" d="M1085.8,262.3h-5.6c-1,0-1.8-0.8-1.8-1.8v-13.9c0-1,0.8-1.8,1.8-1.8h5.6c1,0,1.8,0.8,1.8,1.8v13.9
			C1087.6,261.5,1086.8,262.3,1085.8,262.3z"/>
	</g>
	<g>
		<path class="st4" d="M1102.4,262.3h-5.6c-1,0-1.8-0.8-1.8-1.8v-13.9c0-1,0.8-1.8,1.8-1.8h5.6c1,0,1.8,0.8,1.8,1.8v13.9
			C1104.2,261.6,1103.4,262.3,1102.4,262.3z"/>
	</g>
	<g>
		<path class="st4" d="M1085.8,299.3h-5.6c-1,0-1.8-0.8-1.8-1.8v-13.9c0-1,0.8-1.8,1.8-1.8h5.6c1,0,1.8,0.8,1.8,1.8v13.9
			C1087.6,298.5,1086.8,299.3,1085.8,299.3z"/>
	</g>
	<g>
		<path class="st4" d="M1102.4,299.3h-5.6c-1,0-1.8-0.8-1.8-1.8v-13.9c0-1,0.8-1.8,1.8-1.8h5.6c1,0,1.8,0.8,1.8,1.8v13.9
			C1104.2,298.5,1103.4,299.3,1102.4,299.3z"/>
	</g>
	<g>
		<path class="st4" d="M1069.4,334.7h-5.6c-1,0-1.8-0.8-1.8-1.8V319c0-1,0.8-1.8,1.8-1.8h5.6c1,0,1.8,0.8,1.8,1.8v13.9
			C1071.2,333.9,1070.4,334.7,1069.4,334.7z"/>
	</g>
	<g>
		<path class="st4" d="M1069.4,371.6h-5.6c-1,0-1.8-0.8-1.8-1.8v-13.9c0-1,0.8-1.8,1.8-1.8h5.6c1,0,1.8,0.8,1.8,1.8v13.9
			C1071.2,370.8,1070.4,371.6,1069.4,371.6z"/>
	</g>
	<g>
		<path class="st4" d="M1085.8,334.7h-5.6c-1,0-1.8-0.8-1.8-1.8V319c0-1,0.8-1.8,1.8-1.8h5.6c1,0,1.8,0.8,1.8,1.8v13.9
			C1087.6,333.9,1086.8,334.7,1085.8,334.7z"/>
	</g>
	<g>
		<path class="st4" d="M1102.4,334.7h-5.6c-1,0-1.8-0.8-1.8-1.8V319c0-1,0.8-1.8,1.8-1.8h5.6c1,0,1.8,0.8,1.8,1.8v13.9
			C1104.2,333.9,1103.4,334.7,1102.4,334.7z"/>
	</g>
	<g>
		<path class="st4" d="M1085.8,371.6h-5.6c-1,0-1.8-0.8-1.8-1.8v-13.9c0-1,0.8-1.8,1.8-1.8h5.6c1,0,1.8,0.8,1.8,1.8v13.9
			C1087.6,370.8,1086.8,371.6,1085.8,371.6z"/>
	</g>
	<g>
		<path class="st4" d="M1102.4,371.6h-5.6c-1,0-1.8-0.8-1.8-1.8v-13.9c0-1,0.8-1.8,1.8-1.8h5.6c1,0,1.8,0.8,1.8,1.8v13.9
			C1104.2,370.8,1103.4,371.6,1102.4,371.6z"/>
	</g>
	<g>
		<path class="st4" d="M1013.2,262.3h-5.6c-1,0-1.8-0.8-1.8-1.8v-13.9c0-1,0.8-1.8,1.8-1.8h5.6c1,0,1.8,0.8,1.8,1.8v13.9
			C1015,261.6,1014.2,262.3,1013.2,262.3z"/>
	</g>
	<g>
		<path class="st4" d="M1013.2,299.3h-5.6c-1,0-1.8-0.8-1.8-1.8v-13.9c0-1,0.8-1.8,1.8-1.8h5.6c1,0,1.8,0.8,1.8,1.8v13.9
			C1015,298.5,1014.2,299.3,1013.2,299.3z"/>
	</g>
	<g>
		<path class="st4" d="M1029.6,262.3h-5.6c-1,0-1.8-0.8-1.8-1.8v-13.9c0-1,0.8-1.8,1.8-1.8h5.6c1,0,1.8,0.8,1.8,1.8v13.9
			C1031.4,261.5,1030.6,262.3,1029.6,262.3z"/>
	</g>
	<g>
		<path class="st4" d="M1046.2,262.3h-5.6c-1,0-1.8-0.8-1.8-1.8v-13.9c0-1,0.8-1.8,1.8-1.8h5.6c1,0,1.8,0.8,1.8,1.8v13.9
			C1048,261.6,1047.2,262.3,1046.2,262.3z"/>
	</g>
	<g>
		<path class="st4" d="M1029.6,299.3h-5.6c-1,0-1.8-0.8-1.8-1.8v-13.9c0-1,0.8-1.8,1.8-1.8h5.6c1,0,1.8,0.8,1.8,1.8v13.9
			C1031.4,298.5,1030.6,299.3,1029.6,299.3z"/>
	</g>
	<g>
		<path class="st4" d="M1046.2,299.3h-5.6c-1,0-1.8-0.8-1.8-1.8v-13.9c0-1,0.8-1.8,1.8-1.8h5.6c1,0,1.8,0.8,1.8,1.8v13.9
			C1048,298.5,1047.2,299.3,1046.2,299.3z"/>
	</g>
	<g>
		<path class="st4" d="M1013.2,334.7h-5.6c-1,0-1.8-0.8-1.8-1.8V319c0-1,0.8-1.8,1.8-1.8h5.6c1,0,1.8,0.8,1.8,1.8v13.9
			C1015,333.9,1014.2,334.7,1013.2,334.7z"/>
	</g>
	<g>
		<path class="st4" d="M1013.2,371.6h-5.6c-1,0-1.8-0.8-1.8-1.8v-13.9c0-1,0.8-1.8,1.8-1.8h5.6c1,0,1.8,0.8,1.8,1.8v13.9
			C1015,370.8,1014.2,371.6,1013.2,371.6z"/>
	</g>
	<g>
		<path class="st4" d="M1029.6,334.7h-5.6c-1,0-1.8-0.8-1.8-1.8V319c0-1,0.8-1.8,1.8-1.8h5.6c1,0,1.8,0.8,1.8,1.8v13.9
			C1031.4,333.9,1030.6,334.7,1029.6,334.7z"/>
	</g>
	<g>
		<path class="st4" d="M1046.2,334.7h-5.6c-1,0-1.8-0.8-1.8-1.8V319c0-1,0.8-1.8,1.8-1.8h5.6c1,0,1.8,0.8,1.8,1.8v13.9
			C1048,333.9,1047.2,334.7,1046.2,334.7z"/>
	</g>
	<g>
		<path class="st4" d="M1029.6,371.6h-5.6c-1,0-1.8-0.8-1.8-1.8v-13.9c0-1,0.8-1.8,1.8-1.8h5.6c1,0,1.8,0.8,1.8,1.8v13.9
			C1031.4,370.8,1030.6,371.6,1029.6,371.6z"/>
	</g>
	<g>
		<path class="st4" d="M1046.2,371.6h-5.6c-1,0-1.8-0.8-1.8-1.8v-13.9c0-1,0.8-1.8,1.8-1.8h5.6c1,0,1.8,0.8,1.8,1.8v13.9
			C1048,370.8,1047.2,371.6,1046.2,371.6z"/>
	</g>
	<path class="st5" d="M1103.2,230.9h-45c-1.5,0-2.9-0.5-3.9-1.3l-32.3-28.3c-2.8-2.5-0.5-6.3,3.9-6.3h45c1.5,0,2.9,0.5,3.9,1.3
		l32.3,28.3C1110,227.1,1107.6,230.9,1103.2,230.9z"/>
	<path class="st2" d="M1055,391.3h-49.3c-3.8,0-6.9-3.1-6.9-6.9v-7.1h56.2V391.3z"/>
	<path class="st6" d="M1055,391.3h49.3c3.8,0,6.9-3.1,6.9-6.9v-7.1H1055V391.3z"/>
	<path class="st0" d="M1070.6,211.6h-17.2c-0.6,0-1-0.5-1-1v-22.1h19.2v22.1C1071.6,211.2,1071.1,211.6,1070.6,211.6z"/>
	<path class="st2" d="M1070.5,211.6h-8.6v-23.1h9.6v22C1071.6,211.1,1071.1,211.6,1070.5,211.6z"/>
	<path class="st0" d="M1074.4,191.5h-24.7c-0.4,0-0.8-0.4-0.8-0.8v-4.3c0-0.4,0.4-0.8,0.8-0.8h24.7c0.4,0,0.8,0.4,0.8,0.8v4.3
		C1075.1,191.1,1074.8,191.5,1074.4,191.5z"/>
	<path class="st2" d="M1074.3,191.5H1062v-5.9h12.3c0.5,0,0.8,0.4,0.8,0.8v4.2C1075.1,191.1,1074.8,191.5,1074.3,191.5z"/>
</g>
<g>
	<path class="st0" d="M870.2,387.2h-52.7c-3.1,0-5.5-4-5.5-9V222c0-2.8,0.8-5.4,2.2-7.2l21.7-27.1c1.9-2.3,4.5-2.5,6.4-0.4l28,30.2
		v169.7H870.2z"/>
	<path class="st2" d="M921.1,387.2h-50.9V217.5h50.9c4.1,0,7.3,3.3,7.3,7.3v155C928.4,383.9,925.1,387.2,921.1,387.2z"/>
	<g>
		<path class="st4" d="M885.2,253.5h-6c-1,0-1.8-0.8-1.8-1.8v-14.6c0-1,0.8-1.8,1.8-1.8h6c1,0,1.8,0.8,1.8,1.8v14.6
			C886.9,252.7,886.1,253.5,885.2,253.5z"/>
	</g>
	<g>
		<path class="st4" d="M885.2,291.8h-6c-1,0-1.8-0.8-1.8-1.8v-14.5c0-1,0.8-1.8,1.8-1.8h6c1,0,1.8,0.8,1.8,1.8v14.6
			C886.9,291,886.1,291.8,885.2,291.8z"/>
	</g>
	<g>
		<path class="st4" d="M902.2,253.5h-6c-1,0-1.8-0.8-1.8-1.8v-14.6c0-1,0.8-1.8,1.8-1.8h6c1,0,1.8,0.8,1.8,1.8v14.6
			C903.9,252.7,903.1,253.5,902.2,253.5z"/>
	</g>
	<g>
		<path class="st4" d="M919.4,253.5h-6c-1,0-1.8-0.8-1.8-1.8v-14.6c0-1,0.8-1.8,1.8-1.8h6c1,0,1.8,0.8,1.8,1.8v14.6
			C921.2,252.7,920.4,253.5,919.4,253.5z"/>
	</g>
	<g>
		<path class="st4" d="M902.2,291.8h-6c-1,0-1.8-0.8-1.8-1.8v-14.5c0-1,0.8-1.8,1.8-1.8h6c1,0,1.8,0.8,1.8,1.8v14.6
			C903.9,291,903.1,291.8,902.2,291.8z"/>
	</g>
	<g>
		<path class="st4" d="M919.4,291.8h-6c-1,0-1.8-0.8-1.8-1.8v-14.5c0-1,0.8-1.8,1.8-1.8h6c1,0,1.8,0.8,1.8,1.8v14.6
			C921.2,291,920.4,291.8,919.4,291.8z"/>
	</g>
	<g>
		<path class="st4" d="M885.2,328.5h-6c-1,0-1.8-0.8-1.8-1.8v-14.6c0-1,0.8-1.8,1.8-1.8h6c1,0,1.8,0.8,1.8,1.8v14.6
			C886.9,327.7,886.1,328.5,885.2,328.5z"/>
	</g>
	<g>
		<path class="st4" d="M885.2,366.8h-6c-1,0-1.8-0.8-1.8-1.8v-14.5c0-1,0.8-1.8,1.8-1.8h6c1,0,1.8,0.8,1.8,1.8v14.6
			C886.9,366,886.1,366.8,885.2,366.8z"/>
	</g>
	<g>
		<path class="st4" d="M902.2,328.5h-6c-1,0-1.8-0.8-1.8-1.8v-14.6c0-1,0.8-1.8,1.8-1.8h6c1,0,1.8,0.8,1.8,1.8v14.6
			C903.9,327.7,903.1,328.5,902.2,328.5z"/>
	</g>
	<g>
		<path class="st4" d="M919.4,328.5h-6c-1,0-1.8-0.8-1.8-1.8v-14.6c0-1,0.8-1.8,1.8-1.8h6c1,0,1.8,0.8,1.8,1.8v14.6
			C921.2,327.7,920.4,328.5,919.4,328.5z"/>
	</g>
	<g>
		<path class="st4" d="M902.2,366.8h-6c-1,0-1.8-0.8-1.8-1.8v-14.5c0-1,0.8-1.8,1.8-1.8h6c1,0,1.8,0.8,1.8,1.8v14.6
			C903.9,366,903.1,366.8,902.2,366.8z"/>
	</g>
	<g>
		<path class="st4" d="M919.4,366.8h-6c-1,0-1.8-0.8-1.8-1.8v-14.5c0-1,0.8-1.8,1.8-1.8h6c1,0,1.8,0.8,1.8,1.8v14.6
			C921.2,366,920.4,366.8,919.4,366.8z"/>
	</g>
	<g>
		<path class="st4" d="M826.9,253.5h-6c-1,0-1.8-0.8-1.8-1.8v-14.6c0-1,0.8-1.8,1.8-1.8h6c1,0,1.8,0.8,1.8,1.8v14.6
			C828.7,252.7,827.9,253.5,826.9,253.5z"/>
	</g>
	<g>
		<path class="st4" d="M826.9,291.8h-6c-1,0-1.8-0.8-1.8-1.8v-14.5c0-1,0.8-1.8,1.8-1.8h6c1,0,1.8,0.8,1.8,1.8v14.6
			C828.7,291,827.9,291.8,826.9,291.8z"/>
	</g>
	<g>
		<path class="st4" d="M843.9,253.5h-6c-1,0-1.8-0.8-1.8-1.8v-14.6c0-1,0.8-1.8,1.8-1.8h6c1,0,1.8,0.8,1.8,1.8v14.6
			C845.7,252.7,844.9,253.5,843.9,253.5z"/>
	</g>
	<g>
		<path class="st4" d="M861.1,253.5h-6c-1,0-1.8-0.8-1.8-1.8v-14.6c0-1,0.8-1.8,1.8-1.8h6c1,0,1.8,0.8,1.8,1.8v14.6
			C862.9,252.7,862.1,253.5,861.1,253.5z"/>
	</g>
	<g>
		<path class="st4" d="M843.9,291.8h-6c-1,0-1.8-0.8-1.8-1.8v-14.5c0-1,0.8-1.8,1.8-1.8h6c1,0,1.8,0.8,1.8,1.8v14.6
			C845.7,291,844.9,291.8,843.9,291.8z"/>
	</g>
	<g>
		<path class="st4" d="M861.1,291.8h-6c-1,0-1.8-0.8-1.8-1.8v-14.5c0-1,0.8-1.8,1.8-1.8h6c1,0,1.8,0.8,1.8,1.8v14.6
			C862.9,291,862.1,291.8,861.1,291.8z"/>
	</g>
	<g>
		<path class="st4" d="M826.9,328.5h-6c-1,0-1.8-0.8-1.8-1.8v-14.6c0-1,0.8-1.8,1.8-1.8h6c1,0,1.8,0.8,1.8,1.8v14.6
			C828.7,327.7,827.9,328.5,826.9,328.5z"/>
	</g>
	<g>
		<path class="st4" d="M826.9,366.8h-6c-1,0-1.8-0.8-1.8-1.8v-14.5c0-1,0.8-1.8,1.8-1.8h6c1,0,1.8,0.8,1.8,1.8v14.6
			C828.7,366,827.9,366.8,826.9,366.8z"/>
	</g>
	<g>
		<path class="st4" d="M843.9,328.5h-6c-1,0-1.8-0.8-1.8-1.8v-14.6c0-1,0.8-1.8,1.8-1.8h6c1,0,1.8,0.8,1.8,1.8v14.6
			C845.7,327.7,844.9,328.5,843.9,328.5z"/>
	</g>
	<g>
		<path class="st4" d="M861.1,328.5h-6c-1,0-1.8-0.8-1.8-1.8v-14.6c0-1,0.8-1.8,1.8-1.8h6c1,0,1.8,0.8,1.8,1.8v14.6
			C862.9,327.7,862.1,328.5,861.1,328.5z"/>
	</g>
	<g>
		<path class="st4" d="M843.9,366.8h-6c-1,0-1.8-0.8-1.8-1.8v-14.5c0-1,0.8-1.8,1.8-1.8h6c1,0,1.8,0.8,1.8,1.8v14.6
			C845.7,366,844.9,366.8,843.9,366.8z"/>
	</g>
	<g>
		<path class="st4" d="M861.1,366.8h-6c-1,0-1.8-0.8-1.8-1.8v-14.5c0-1,0.8-1.8,1.8-1.8h6c1,0,1.8,0.8,1.8,1.8v14.6
			C862.9,366,862.1,366.8,861.1,366.8z"/>
	</g>
	<path class="st5" d="M920.2,220.9h-46.7c-1.6,0-3-0.5-4.1-1.4l-33.5-29.3c-2.9-2.6-0.5-6.5,4.1-6.5h46.7c1.6,0,3,0.5,4.1,1.4
		l33.5,29.3C927.2,216.9,924.7,220.9,920.2,220.9z"/>
	<path class="st2" d="M870.2,387.2h-51.3c-3.8,0-6.9-3.1-6.9-6.9v-7.7h58.3L870.2,387.2L870.2,387.2z"/>
	<path class="st6" d="M870.2,387.2h51.3c3.8,0,6.9-3.1,6.9-6.9v-7.7h-58.3L870.2,387.2L870.2,387.2z"/>
	<path class="st0" d="M886.4,200.9h-17.9c-0.6,0-1-0.5-1-1V177h19.9v22.9C887.4,200.4,886.9,200.9,886.4,200.9z"/>
	<path class="st2" d="M886.3,200.9h-8.9v-24h10v22.9C887.4,200.4,886.9,200.9,886.3,200.9z"/>
	<path class="st0" d="M890.3,180h-25.6c-0.4,0-0.8-0.4-0.8-0.8v-4.5c0-0.4,0.4-0.8,0.8-0.8h25.6c0.4,0,0.8,0.4,0.8,0.8v4.5
		C891.1,179.7,890.7,180,890.3,180z"/>
	<path class="st2" d="M890.2,180h-12.8v-6.1h12.8c0.5,0,0.8,0.4,0.8,0.8v4.5C891.1,179.6,890.7,180,890.2,180z"/>
</g>
<path class="st0" d="M450.4,393.6h55.1c3.2,0,5.8-4.2,5.8-9.4V220.9c0-2.9-0.8-5.7-2.3-7.5l-22.7-28.3c-2-2.5-4.7-2.6-6.7-0.4
	l-29.2,31.5L450.4,393.6L450.4,393.6z"/>
<path class="st2" d="M396.9,393.6h53.5V216.2h-53.5c-4.1,0-7.3,3.3-7.3,7.3v162.7C389.5,390.3,392.8,393.6,396.9,393.6z"/>
<g>
	<path class="st4" d="M434.7,253.8h6.4c1,0,1.8-0.8,1.8-1.8v-15.4c0-1-0.8-1.8-1.8-1.8h-6.4c-1,0-1.8,0.8-1.8,1.8V252
		C432.9,253,433.7,253.8,434.7,253.8z"/>
</g>
<g>
	<path class="st4" d="M434.7,293.9h6.4c1,0,1.8-0.8,1.8-1.8v-15.4c0-1-0.8-1.8-1.8-1.8h-6.4c-1,0-1.8,0.8-1.8,1.8v15.4
		C432.9,293.1,433.7,293.9,434.7,293.9z"/>
</g>
<g>
	<path class="st4" d="M416.9,253.8h6.4c1,0,1.8-0.8,1.8-1.8v-15.4c0-1-0.8-1.8-1.8-1.8h-6.4c-1,0-1.8,0.8-1.8,1.8V252
		C415.1,253,415.9,253.8,416.9,253.8z"/>
</g>
<g>
	<path class="st4" d="M398.9,253.8h6.4c1,0,1.8-0.8,1.8-1.8v-15.4c0-1-0.8-1.8-1.8-1.8h-6.4c-1,0-1.8,0.8-1.8,1.8V252
		C397.1,253,397.9,253.8,398.9,253.8z"/>
</g>
<g>
	<path class="st4" d="M416.9,293.9h6.4c1,0,1.8-0.8,1.8-1.8v-15.4c0-1-0.8-1.8-1.8-1.8h-6.4c-1,0-1.8,0.8-1.8,1.8v15.4
		C415.1,293.1,415.9,293.9,416.9,293.9z"/>
</g>
<g>
	<path class="st4" d="M398.9,293.9h6.4c1,0,1.8-0.8,1.8-1.8v-15.4c0-1-0.8-1.8-1.8-1.8h-6.4c-1,0-1.8,0.8-1.8,1.8v15.4
		C397.1,293.1,397.9,293.9,398.9,293.9z"/>
</g>
<g>
	<path class="st4" d="M434.7,332.2h6.4c1,0,1.8-0.8,1.8-1.8V315c0-1-0.8-1.8-1.8-1.8h-6.4c-1,0-1.8,0.8-1.8,1.8v15.4
		C432.9,331.4,433.7,332.2,434.7,332.2z"/>
</g>
<g>
	<path class="st4" d="M434.7,372.2h6.4c1,0,1.8-0.8,1.8-1.8V355c0-1-0.8-1.8-1.8-1.8h-6.4c-1,0-1.8,0.8-1.8,1.8v15.4
		C432.9,371.5,433.7,372.2,434.7,372.2z"/>
</g>
<g>
	<path class="st4" d="M416.9,332.2h6.4c1,0,1.8-0.8,1.8-1.8V315c0-1-0.8-1.8-1.8-1.8h-6.4c-1,0-1.8,0.8-1.8,1.8v15.4
		C415.1,331.4,415.9,332.2,416.9,332.2z"/>
</g>
<g>
	<path class="st4" d="M398.9,332.2h6.4c1,0,1.8-0.8,1.8-1.8V315c0-1-0.8-1.8-1.8-1.8h-6.4c-1,0-1.8,0.8-1.8,1.8v15.4
		C397.1,331.4,397.9,332.2,398.9,332.2z"/>
</g>
<g>
	<path class="st4" d="M416.9,372.2h6.4c1,0,1.8-0.8,1.8-1.8V355c0-1-0.8-1.8-1.8-1.8h-6.4c-1,0-1.8,0.8-1.8,1.8v15.4
		C415.1,371.4,415.9,372.2,416.9,372.2z"/>
</g>
<g>
	<path class="st4" d="M398.9,372.2h6.4c1,0,1.8-0.8,1.8-1.8V355c0-1-0.8-1.8-1.8-1.8h-6.4c-1,0-1.8,0.8-1.8,1.8v15.4
		C397.1,371.5,397.9,372.2,398.9,372.2z"/>
</g>
<g>
	<path class="st4" d="M495.5,253.8h6.4c1,0,1.8-0.8,1.8-1.8v-15.4c0-1-0.8-1.8-1.8-1.8h-6.4c-1,0-1.8,0.8-1.8,1.8V252
		C493.8,253,494.6,253.8,495.5,253.8z"/>
</g>
<g>
	<path class="st4" d="M495.5,293.9h6.4c1,0,1.8-0.8,1.8-1.8v-15.4c0-1-0.8-1.8-1.8-1.8h-6.4c-1,0-1.8,0.8-1.8,1.8v15.4
		C493.8,293.1,494.6,293.9,495.5,293.9z"/>
</g>
<g>
	<path class="st4" d="M477.8,253.8h6.4c1,0,1.8-0.8,1.8-1.8v-15.4c0-1-0.8-1.8-1.8-1.8h-6.4c-1,0-1.8,0.8-1.8,1.8V252
		C476,253,476.8,253.8,477.8,253.8z"/>
</g>
<g>
	<path class="st4" d="M459.8,253.8h6.4c1,0,1.8-0.8,1.8-1.8v-15.4c0-1-0.8-1.8-1.8-1.8h-6.4c-1,0-1.8,0.8-1.8,1.8V252
		C458,253,458.8,253.8,459.8,253.8z"/>
</g>
<g>
	<path class="st4" d="M477.8,293.9h6.4c1,0,1.8-0.8,1.8-1.8v-15.4c0-1-0.8-1.8-1.8-1.8h-6.4c-1,0-1.8,0.8-1.8,1.8v15.4
		C476,293.1,476.8,293.9,477.8,293.9z"/>
</g>
<g>
	<path class="st4" d="M459.8,293.9h6.4c1,0,1.8-0.8,1.8-1.8v-15.4c0-1-0.8-1.8-1.8-1.8h-6.4c-1,0-1.8,0.8-1.8,1.8v15.4
		C458,293.1,458.8,293.9,459.8,293.9z"/>
</g>
<g>
	<path class="st4" d="M495.5,332.2h6.4c1,0,1.8-0.8,1.8-1.8V315c0-1-0.8-1.8-1.8-1.8h-6.4c-1,0-1.8,0.8-1.8,1.8v15.4
		C493.8,331.4,494.6,332.2,495.5,332.2z"/>
</g>
<g>
	<path class="st4" d="M495.5,372.2h6.4c1,0,1.8-0.8,1.8-1.8V355c0-1-0.8-1.8-1.8-1.8h-6.4c-1,0-1.8,0.8-1.8,1.8v15.4
		C493.8,371.5,494.6,372.2,495.5,372.2z"/>
</g>
<g>
	<path class="st4" d="M477.8,332.2h6.4c1,0,1.8-0.8,1.8-1.8V315c0-1-0.8-1.8-1.8-1.8h-6.4c-1,0-1.8,0.8-1.8,1.8v15.4
		C476,331.4,476.8,332.2,477.8,332.2z"/>
</g>
<g>
	<path class="st4" d="M459.8,332.2h6.4c1,0,1.8-0.8,1.8-1.8V315c0-1-0.8-1.8-1.8-1.8h-6.4c-1,0-1.8,0.8-1.8,1.8v15.4
		C458,331.4,458.8,332.2,459.8,332.2z"/>
</g>
<g>
	<path class="st4" d="M477.8,372.2h6.4c1,0,1.8-0.8,1.8-1.8V355c0-1-0.8-1.8-1.8-1.8h-6.4c-1,0-1.8,0.8-1.8,1.8v15.4
		C476,371.4,476.8,372.2,477.8,372.2z"/>
</g>
<g>
	<path class="st4" d="M459.8,372.2h6.4c1,0,1.8-0.8,1.8-1.8V355c0-1-0.8-1.8-1.8-1.8h-6.4c-1,0-1.8,0.8-1.8,1.8v15.4
		C458,371.5,458.8,372.2,459.8,372.2z"/>
</g>
<path class="st6" d="M398.2,219.7H447c1.6,0,3.2-0.5,4.2-1.5l35-30.7c3.1-2.7,0.5-6.8-4.2-6.8h-48.8c-1.6,0-3.2,0.5-4.2,1.5
	l-35,30.7C390.8,215.6,393.4,219.7,398.2,219.7z"/>
<path class="st2" d="M450.4,393.6h54c3.8,0,6.9-3.1,6.9-6.9v-8.3h-60.9V393.6z"/>
<path class="st6" d="M450.4,393.6h-54c-3.8,0-6.9-3.1-6.9-6.9v-8.3h60.9V393.6z"/>
<path class="st0" d="M433.4,198.8h18.8c0.6,0,1-0.5,1-1v-24h-20.8v24C432.4,198.4,432.9,198.8,433.4,198.8z"/>
<path class="st2" d="M433.5,198.8h9.4v-25h-10.4v24C432.4,198.4,432.9,198.8,433.5,198.8z"/>
<path class="st0" d="M429.4,177h26.9c0.4,0,0.8-0.4,0.8-0.8v-4.8c0-0.4-0.4-0.8-0.8-0.8h-26.9c-0.4,0-0.8,0.4-0.8,0.8v4.8
	C428.6,176.6,428.9,177,429.4,177z"/>
<path class="st2" d="M429.4,177h13.4v-6.4h-13.4c-0.5,0-0.8,0.4-0.8,0.8v4.7C428.6,176.6,428.9,177,429.4,177z"/>
<g>
	<path class="st7" d="M529.5,379.4h40.2c2.3,0,4.2-3,4.2-6.7V256.9c0-2.1-0.6-4-1.7-5.3l-16.5-20.1c-1.4-1.7-3.4-1.8-4.9-0.3
		l-21.3,22.4V379.4L529.5,379.4z"/>
	<path class="st2" d="M490.2,383.8h39.3V254.3h-37.1c-4.1,0-7.3,3.3-7.3,7.3v117C485.1,381.5,487.4,383.8,490.2,383.8z"/>
	<g>
		<path class="st4" d="M518.5,281.8h3.7c1,0,1.8-0.8,1.8-1.8v-10.3c0-1-0.8-1.8-1.8-1.8h-3.7c-1,0-1.8,0.8-1.8,1.8V280
			C516.7,281,517.5,281.8,518.5,281.8z"/>
	</g>
	<g>
		<path class="st4" d="M518.5,311h3.7c1,0,1.8-0.8,1.8-1.8v-10.3c0-1-0.8-1.8-1.8-1.8h-3.7c-1,0-1.8,0.8-1.8,1.8v10.3
			C516.7,310.2,517.5,311,518.5,311z"/>
	</g>
	<g>
		<path class="st4" d="M505.5,281.8h3.7c1,0,1.8-0.8,1.8-1.8v-10.3c0-1-0.8-1.8-1.8-1.8h-3.7c-1,0-1.8,0.8-1.8,1.8V280
			C503.7,281,504.5,281.8,505.5,281.8z"/>
	</g>
	<g>
		<path class="st4" d="M492.4,281.8h3.7c1,0,1.8-0.8,1.8-1.8v-10.3c0-1-0.8-1.8-1.8-1.8h-3.7c-1,0-1.8,0.8-1.8,1.8V280
			C490.6,281,491.4,281.8,492.4,281.8z"/>
	</g>
	<g>
		<path class="st4" d="M505.5,311h3.7c1,0,1.8-0.8,1.8-1.8v-10.3c0-1-0.8-1.8-1.8-1.8h-3.7c-1,0-1.8,0.8-1.8,1.8v10.3
			C503.7,310.2,504.5,311,505.5,311z"/>
	</g>
	<g>
		<path class="st4" d="M492.4,311h3.7c1,0,1.8-0.8,1.8-1.8v-10.3c0-1-0.8-1.8-1.8-1.8h-3.7c-1,0-1.8,0.8-1.8,1.8v10.3
			C490.6,310.2,491.4,311,492.4,311z"/>
	</g>
	<g>
		<path class="st4" d="M518.5,339h3.7c1,0,1.8-0.8,1.8-1.8v-10.3c0-1-0.8-1.8-1.8-1.8h-3.7c-1,0-1.8,0.8-1.8,1.8v10.3
			C516.7,338.2,517.5,339,518.5,339z"/>
	</g>
	<g>
		<path class="st4" d="M518.5,368.2h3.7c1,0,1.8-0.8,1.8-1.8v-10.3c0-1-0.8-1.8-1.8-1.8h-3.7c-1,0-1.8,0.8-1.8,1.8v10.3
			C516.7,367.5,517.5,368.2,518.5,368.2z"/>
	</g>
	<g>
		<path class="st4" d="M505.5,339h3.7c1,0,1.8-0.8,1.8-1.8v-10.3c0-1-0.8-1.8-1.8-1.8h-3.7c-1,0-1.8,0.8-1.8,1.8v10.3
			C503.7,338.2,504.5,339,505.5,339z"/>
	</g>
	<g>
		<path class="st4" d="M492.4,339h3.7c1,0,1.8-0.8,1.8-1.8v-10.3c0-1-0.8-1.8-1.8-1.8h-3.7c-1,0-1.8,0.8-1.8,1.8v10.3
			C490.6,338.2,491.4,339,492.4,339z"/>
	</g>
	<g>
		<path class="st4" d="M505.5,368.2h3.7c1,0,1.8-0.8,1.8-1.8v-10.3c0-1-0.8-1.8-1.8-1.8h-3.7c-1,0-1.8,0.8-1.8,1.8v10.3
			C503.7,367.5,504.5,368.2,505.5,368.2z"/>
	</g>
	<g>
		<path class="st4" d="M492.4,368.2h3.7c1,0,1.8-0.8,1.8-1.8v-10.3c0-1-0.8-1.8-1.8-1.8h-3.7c-1,0-1.8,0.8-1.8,1.8v10.3
			C490.6,367.5,491.4,368.2,492.4,368.2z"/>
	</g>
	<g>
		<path class="st4" d="M562.9,281.8h3.7c1,0,1.8-0.8,1.8-1.8v-10.3c0-1-0.8-1.8-1.8-1.8h-3.7c-1,0-1.8,0.8-1.8,1.8V280
			C561.2,281,561.9,281.8,562.9,281.8z"/>
	</g>
	<g>
		<path class="st4" d="M562.9,311h3.7c1,0,1.8-0.8,1.8-1.8v-10.3c0-1-0.8-1.8-1.8-1.8h-3.7c-1,0-1.8,0.8-1.8,1.8v10.3
			C561.2,310.2,561.9,311,562.9,311z"/>
	</g>
	<g>
		<path class="st4" d="M549.9,281.8h3.7c1,0,1.8-0.8,1.8-1.8v-10.3c0-1-0.8-1.8-1.8-1.8h-3.7c-1,0-1.8,0.8-1.8,1.8V280
			C548.2,281,549,281.8,549.9,281.8z"/>
	</g>
	<g>
		<path class="st4" d="M536.8,281.8h3.7c1,0,1.8-0.8,1.8-1.8v-10.3c0-1-0.8-1.8-1.8-1.8h-3.7c-1,0-1.8,0.8-1.8,1.8V280
			C535,281,535.8,281.8,536.8,281.8z"/>
	</g>
	<g>
		<path class="st4" d="M549.9,311h3.7c1,0,1.8-0.8,1.8-1.8v-10.3c0-1-0.8-1.8-1.8-1.8h-3.7c-1,0-1.8,0.8-1.8,1.8v10.3
			C548.2,310.2,549,311,549.9,311z"/>
	</g>
	<g>
		<path class="st4" d="M536.8,311h3.7c1,0,1.8-0.8,1.8-1.8v-10.3c0-1-0.8-1.8-1.8-1.8h-3.7c-1,0-1.8,0.8-1.8,1.8v10.3
			C535,310.2,535.8,311,536.8,311z"/>
	</g>
	<g>
		<path class="st4" d="M562.9,339h3.7c1,0,1.8-0.8,1.8-1.8v-10.3c0-1-0.8-1.8-1.8-1.8h-3.7c-1,0-1.8,0.8-1.8,1.8v10.3
			C561.2,338.2,561.9,339,562.9,339z"/>
	</g>
	<g>
		<path class="st4" d="M562.9,368.2h3.7c1,0,1.8-0.8,1.8-1.8v-10.3c0-1-0.8-1.8-1.8-1.8h-3.7c-1,0-1.8,0.8-1.8,1.8v10.3
			C561.2,367.5,561.9,368.2,562.9,368.2z"/>
	</g>
	<g>
		<path class="st4" d="M549.9,339h3.7c1,0,1.8-0.8,1.8-1.8v-10.3c0-1-0.8-1.8-1.8-1.8h-3.7c-1,0-1.8,0.8-1.8,1.8v10.3
			C548.2,338.2,549,339,549.9,339z"/>
	</g>
	<g>
		<path class="st4" d="M536.8,339h3.7c1,0,1.8-0.8,1.8-1.8v-10.3c0-1-0.8-1.8-1.8-1.8h-3.7c-1,0-1.8,0.8-1.8,1.8v10.3
			C535,338.2,535.8,339,536.8,339z"/>
	</g>
	<g>
		<path class="st4" d="M549.9,368.2h3.7c1,0,1.8-0.8,1.8-1.8v-10.3c0-1-0.8-1.8-1.8-1.8h-3.7c-1,0-1.8,0.8-1.8,1.8v10.3
			C548.2,367.5,549,368.2,549.9,368.2z"/>
	</g>
	<g>
		<path class="st4" d="M536.8,368.2h3.7c1,0,1.8-0.8,1.8-1.8v-10.3c0-1-0.8-1.8-1.8-1.8h-3.7c-1,0-1.8,0.8-1.8,1.8v10.3
			C535,367.5,535.8,368.2,536.8,368.2z"/>
	</g>
	<path class="st5" d="M491.3,256.9h35.6c1.2,0,2.3-0.4,3.1-1.1l25.5-22.4c2.2-2,0.4-5-3.1-5h-35.6c-1.2,0-2.3,0.4-3.1,1.1
		l-25.5,22.4C486,253.9,487.9,256.9,491.3,256.9z"/>
	<path class="st2" d="M529.5,383.8h40.3c2.3,0,4.2-1.9,4.2-4.2v-6.9h-44.4L529.5,383.8L529.5,383.8L529.5,383.8z"/>
	<path class="st6" d="M529.5,383.8h-39.7c-2.6,0-4.7-2.1-4.7-4.7v-6.4h44.4L529.5,383.8L529.5,383.8z"/>
	<path class="st7" d="M517.4,241.7h13.2c0.6,0,1-0.5,1-1v-17.3h-15.2v17.3C516.4,241.2,516.8,241.7,517.4,241.7z"/>
	<path class="st2" d="M517.4,241.7h6.5v-18.3h-7.6v17.2C516.4,241.2,516.8,241.7,517.4,241.7z"/>
	<path class="st7" d="M514.3,225.7h19.2c0.4,0,0.8-0.4,0.8-0.8v-3.1c0-0.4-0.4-0.8-0.8-0.8h-19.2c-0.4,0-0.8,0.4-0.8,0.8v3.1
		C513.6,225.4,513.9,225.7,514.3,225.7z"/>
	<path class="st2" d="M514.4,225.7h9.5V221h-9.5c-0.5,0-0.8,0.4-0.8,0.8v3C513.6,225.3,513.9,225.7,514.4,225.7z"/>
</g>
<g id="trees">
	<g>
		<line class="st9" x1="227.9" y1="403.6" x2="226.7" y2="498.6"/>
		<circle class="st10" cx="218.2" cy="395.4" r="19.2"/>
		<circle class="st10" cx="239.3" cy="379.3" r="11.9"/>
		<circle class="st10" cx="215" cy="430.9" r="8.8"/>
		<circle class="st10" cx="247.4" cy="401.6" r="14.1"/>
		<line class="st9" x1="227.2" y1="444.9" x2="214.9" y2="432.3"/>
		<line class="st9" x1="229.6" y1="427.1" x2="247.1" y2="410.4"/>
	</g>
	<g>
		<line class="st9" x1="491.5" y1="395.6" x2="491.5" y2="490.6"/>
		<circle class="st10" cx="481.7" cy="388.6" r="19.2"/>
		<circle class="st10" cx="502.7" cy="372.1" r="11.9"/>
		<circle class="st10" cx="479" cy="423.1" r="8.8"/>
		<circle class="st10" cx="511" cy="393.4" r="14.1"/>
		<line class="st9" x1="491.3" y1="436.9" x2="478.9" y2="424.5"/>
		<line class="st9" x1="493.5" y1="419.1" x2="510.8" y2="402.2"/>
	</g>
	<g>
		<line class="st9" x1="641.5" y1="391.6" x2="641.5" y2="451.6"/>
		<line class="st9" x1="641.5" y1="403.9" x2="652.6" y2="394"/>
		<circle class="st10" cx="634.6" cy="385.2" r="12.7"/>
		<circle class="st10" cx="654.1" cy="388.4" r="9.4"/>
		<circle class="st10" cx="654.2" cy="408" r="5.9"/>
		<line class="st9" x1="641.5" y1="415.9" x2="651.7" y2="409.5"/>
	</g>
	<g>
		<line class="st9" x1="913.5" y1="390.6" x2="913.5" y2="450.6"/>
		<line class="st9" x1="913.5" y1="402.9" x2="924.6" y2="393"/>
		<circle class="st10" cx="906.6" cy="384.2" r="12.7"/>
		<circle class="st10" cx="926.1" cy="387.4" r="9.4"/>
		<circle class="st10" cx="926.2" cy="407" r="5.9"/>
		<line class="st9" x1="913.5" y1="414.9" x2="923.7" y2="408.5"/>
	</g>
	<g>
		<line class="st9" x1="1143.5" y1="390.6" x2="1143.5" y2="474.6"/>
		<circle class="st10" cx="1134.5" cy="384.3" r="17"/>
		<circle class="st10" cx="1153" cy="369.8" r="10.5"/>
		<circle class="st10" cx="1132.1" cy="414.8" r="7.8"/>
		<circle class="st10" cx="1160.4" cy="388.5" r="12.5"/>
		<line class="st9" x1="1143" y1="427.1" x2="1132" y2="416.1"/>
		<line class="st9" x1="1144.9" y1="411.3" x2="1160.2" y2="396.4"/>
	</g>
	<g>
		<line class="st9" x1="385.5" y1="385.6" x2="385.5" y2="445.6"/>
		<line class="st9" x1="385.5" y1="397.9" x2="396.6" y2="388"/>
		<circle class="st10" cx="378.6" cy="379.2" r="12.7"/>
		<circle class="st10" cx="398.1" cy="382.4" r="9.4"/>
		<circle class="st10" cx="398.2" cy="402" r="5.9"/>
		<line class="st9" x1="385.5" y1="409.9" x2="395.7" y2="403.5"/>
	</g>
</g>
</svg>
