<?xml version="1.0" encoding="utf-8"?>
<!-- Generator: Adobe Illustrator 19.1.0, SVG Export Plug-In . SVG Version: 6.00 Build 0)  -->
<svg version="1.1" id="Layer_1" xmlns="http://www.w3.org/2000/svg" xmlns:xlink="http://www.w3.org/1999/xlink" x="0px" y="0px"
	 viewBox="90 59.8 820.8 363.2" style="enable-background:new 90 59.8 820.8 363.2;" xml:space="preserve">
<style type="text/css">
	.st0{display:none;}
	.st1{display:inline;fill:#31AA9B;}
	.st2{fill:#1B7989;}
	.st3{fill:#1C88A5;}
	.st4{fill:#18717A;}
	.st5{fill:#5B463B;}
	.st6{fill:#D89261;}
</style>
<g id="Layer_2" class="st0">
	<rect x="90" y="-221.6" class="st1" width="1024" height="768"/>
</g>
<g id="Layer_3">
</g>
<g id="globen">
	<path class="st2" d="M631.3,410.8c5.4,0,9.7-4.5,9.4-9.8c-5.7-106.4-93-189.2-199.8-189.2S246.7,294.6,241,401
		c-0.3,5.4,4,9.8,9.4,9.8H631.3z"/>
</g>
<g id="roads">
</g>
<g>
	<path class="st2" d="M679.4,382.2h14.3V165.4h-14.3c-1.6,0-2.8,1.2-2.8,2.6v211.5C676.5,381,677.8,382.2,679.4,382.2z"/>
	<path class="st3" d="M697.4,159l3.9-5.3c0.4-0.5,1.1-0.5,1.5,0l3.9,5.3l4.5,6c0.2,0.2,0.3,0.5,0.3,0.8V381c0,0.7-0.5,1.2-1.1,1.2
		h-17.9V165.8c0-0.3,0.1-0.6,0.3-0.8L697.4,159z"/>
	<g>
		<path class="st4" d="M704.9,182.6h1.1c1,0,1.8-0.8,1.8-1.8v-6c0-1-0.8-1.8-1.8-1.8h-1.1c-1,0-1.8,0.8-1.8,1.8v6.1
			C703.1,181.8,703.9,182.6,704.9,182.6z"/>
	</g>
	<g>
		<path class="st4" d="M696.5,182.6h1.1c1,0,1.8-0.8,1.8-1.8v-6c0-1-0.8-1.8-1.8-1.8h-1.1c-1,0-1.8,0.8-1.8,1.8v6.1
			C694.8,181.8,695.6,182.6,696.5,182.6z"/>
	</g>
	<g>
		<path class="st4" d="M704.9,202.9h1.1c1,0,1.8-0.8,1.8-1.8V195c0-1-0.8-1.8-1.8-1.8h-1.1c-1,0-1.8,0.8-1.8,1.8v6.1
			C703.1,202.1,703.9,202.9,704.9,202.9z"/>
	</g>
	<g>
		<path class="st4" d="M696.5,202.9h1.1c1,0,1.8-0.8,1.8-1.8V195c0-1-0.8-1.8-1.8-1.8h-1.1c-1,0-1.8,0.8-1.8,1.8v6.1
			C694.8,202.1,695.6,202.9,696.5,202.9z"/>
	</g>
	<g>
		<path class="st4" d="M704.9,222.7h1.1c1,0,1.8-0.8,1.8-1.8v-6.1c0-1-0.8-1.8-1.8-1.8h-1.1c-1,0-1.8,0.8-1.8,1.8v6.1
			C703.1,221.9,703.9,222.7,704.9,222.7z"/>
	</g>
	<g>
		<path class="st4" d="M696.5,222.6h1.1c1,0,1.8-0.8,1.8-1.8v-6c0-1-0.8-1.8-1.8-1.8h-1.1c-1,0-1.8,0.8-1.8,1.8v6.1
			C694.8,221.8,695.6,222.6,696.5,222.6z"/>
	</g>
	<g>
		<path class="st4" d="M704.9,243h1.1c1,0,1.8-0.8,1.8-1.8v-6.1c0-1-0.8-1.8-1.8-1.8h-1.1c-1,0-1.8,0.8-1.8,1.8v6.1
			C703.1,242.2,703.9,243,704.9,243z"/>
	</g>
	<g>
		<path class="st4" d="M696.5,242.9h1.1c1,0,1.8-0.8,1.8-1.8V235c0-1-0.8-1.8-1.8-1.8h-1.1c-1,0-1.8,0.8-1.8,1.8v6.1
			C694.8,242.1,695.6,242.9,696.5,242.9z"/>
	</g>
	<g>
		<path class="st4" d="M704.9,263.1h1c1,0,1.8-0.8,1.8-1.8v-5.8c0-1-0.8-1.8-1.8-1.8h-1c-1,0-1.8,0.8-1.8,1.8v5.8
			C703.1,262.4,703.9,263.1,704.9,263.1z"/>
	</g>
	<g>
		<path class="st4" d="M696.5,263.4h1.1c1,0,1.8-0.8,1.8-1.8v-6.1c0-1-0.8-1.8-1.8-1.8h-1.1c-1,0-1.8,0.8-1.8,1.8v6.1
			C694.8,262.5,695.6,263.4,696.5,263.4z"/>
	</g>
	<g>
		<path class="st4" d="M704.9,284h1c1,0,1.8-0.8,1.8-1.8v-5.8c0-1-0.8-1.8-1.8-1.8h-1c-1,0-1.8,0.8-1.8,1.8v5.8
			C703.1,283.2,703.9,284,704.9,284z"/>
	</g>
	<g>
		<path class="st4" d="M696.5,284.1h1.1c1,0,1.8-0.8,1.8-1.8v-6.1c0-1-0.8-1.8-1.8-1.8h-1.1c-1,0-1.8,0.8-1.8,1.8v6.1
			C694.8,283.4,695.6,284.1,696.5,284.1z"/>
	</g>
	<g>
		<path class="st4" d="M704.9,305.1h1.1c1,0,1.8-0.8,1.8-1.8v-6.1c0-1-0.8-1.8-1.8-1.8h-1.1c-1,0-1.8,0.8-1.8,1.8v6.1
			C703.1,304.4,703.9,305.1,704.9,305.1z"/>
	</g>
	<g>
		<path class="st4" d="M696.5,304.9h1c1,0,1.8-0.8,1.8-1.8v-5.8c0-1-0.8-1.8-1.8-1.8h-1c-1,0-1.8,0.8-1.8,1.8v5.8
			C694.8,304,695.6,304.9,696.5,304.9z"/>
	</g>
	<g>
		<path class="st4" d="M704.9,326h1.1c1,0,1.8-0.8,1.8-1.8v-6.1c0-1-0.8-1.8-1.8-1.8h-1.1c-1,0-1.8,0.8-1.8,1.8v6.1
			C703.1,325.1,703.9,326,704.9,326z"/>
	</g>
	<g>
		<path class="st4" d="M696.5,325.6h1c1,0,1.8-0.8,1.8-1.8v-5.8c0-1-0.8-1.8-1.8-1.8h-1c-1,0-1.8,0.8-1.8,1.8v5.8
			C694.8,324.9,695.6,325.6,696.5,325.6z"/>
	</g>
	<g>
		<path class="st4" d="M704.9,346h1.1c1,0,1.8-0.8,1.8-1.8v-6.1c0-1-0.8-1.8-1.8-1.8h-1.1c-1,0-1.8,0.8-1.8,1.8v6.1
			C703.1,345.1,703.9,346,704.9,346z"/>
	</g>
	<g>
		<path class="st4" d="M696.5,346.1h1c1,0,1.8-0.8,1.8-1.8V338c0-1-0.8-1.8-1.8-1.8h-1c-1,0-1.8,0.8-1.8,1.8v6.4
			C694.8,345.4,695.6,346.1,696.5,346.1z"/>
	</g>
	<g>
		<path class="st4" d="M704.9,366.2h1.1c1,0,1.8-0.8,1.8-1.8v-6.1c0-1-0.8-1.8-1.8-1.8h-1.1c-1,0-1.8,0.8-1.8,1.8v6.1
			C703.1,365.5,703.9,366.2,704.9,366.2z"/>
	</g>
	<g>
		<path class="st4" d="M696.5,366.1h1.1c1,0,1.8-0.8,1.8-1.8v-6.1c0-1-0.8-1.8-1.8-1.8h-1.1c-1,0-1.8,0.8-1.8,1.8v6.1
			C694.8,365.4,695.6,366.1,696.5,366.1z"/>
	</g>
	<g>
		<path class="st4" d="M688.3,182.6h1.1c1,0,1.8-0.8,1.8-1.8v-6c0-1-0.8-1.8-1.8-1.8h-1.1c-1,0-1.8,0.8-1.8,1.8v6.1
			C686.6,181.8,687.4,182.6,688.3,182.6z"/>
	</g>
	<g>
		<path class="st4" d="M680,182.6h1.1c1,0,1.8-0.8,1.8-1.8v-6c0-1-0.8-1.8-1.8-1.8H680c-1,0-1.8,0.8-1.8,1.8v6.1
			C678.3,181.8,679.1,182.6,680,182.6z"/>
	</g>
	<g>
		<path class="st4" d="M688.3,202.9h1.1c1,0,1.8-0.8,1.8-1.8V195c0-1-0.8-1.8-1.8-1.8h-1.1c-1,0-1.8,0.8-1.8,1.8v6.1
			C686.6,202.1,687.4,202.9,688.3,202.9z"/>
	</g>
	<g>
		<path class="st4" d="M680,202.9h1.1c1,0,1.8-0.8,1.8-1.8V195c0-1-0.8-1.8-1.8-1.8H680c-1,0-1.8,0.8-1.8,1.8v6.1
			C678.3,202.1,679.1,202.9,680,202.9z"/>
	</g>
	<g>
		<path class="st4" d="M688.3,222.7h1.1c1,0,1.8-0.8,1.8-1.8v-6.1c0-1-0.8-1.8-1.8-1.8h-1.1c-1,0-1.8,0.8-1.8,1.8v6.1
			C686.6,221.9,687.4,222.7,688.3,222.7z"/>
	</g>
	<g>
		<path class="st4" d="M680,222.6h1.1c1,0,1.8-0.8,1.8-1.8v-6c0-1-0.8-1.8-1.8-1.8H680c-1,0-1.8,0.8-1.8,1.8v6.1
			C678.3,221.8,679.1,222.6,680,222.6z"/>
	</g>
	<g>
		<path class="st4" d="M688.3,243h1.1c1,0,1.8-0.8,1.8-1.8v-6.1c0-1-0.8-1.8-1.8-1.8h-1.1c-1,0-1.8,0.8-1.8,1.8v6.1
			C686.6,242.2,687.4,243,688.3,243z"/>
	</g>
	<g>
		<path class="st4" d="M680,242.9h1.1c1,0,1.8-0.8,1.8-1.8V235c0-1-0.8-1.8-1.8-1.8H680c-1,0-1.8,0.8-1.8,1.8v6.1
			C678.3,242.1,679.1,242.9,680,242.9z"/>
	</g>
	<g>
		<path class="st4" d="M688.3,263.1h1c1,0,1.8-0.8,1.8-1.8v-5.8c0-1-0.8-1.8-1.8-1.8h-1c-1,0-1.8,0.8-1.8,1.8v5.8
			C686.6,262.4,687.4,263.1,688.3,263.1z"/>
	</g>
	<g>
		<path class="st4" d="M680,263.4h1.1c1,0,1.8-0.8,1.8-1.8v-6.1c0-1-0.8-1.8-1.8-1.8H680c-1,0-1.8,0.8-1.8,1.8v6.1
			C678.3,262.5,679.1,263.4,680,263.4z"/>
	</g>
	<g>
		<path class="st4" d="M688.3,284h1c1,0,1.8-0.8,1.8-1.8v-5.8c0-1-0.8-1.8-1.8-1.8h-1c-1,0-1.8,0.8-1.8,1.8v5.8
			C686.6,283.2,687.4,284,688.3,284z"/>
	</g>
	<g>
		<path class="st4" d="M680,284.1h1.1c1,0,1.8-0.8,1.8-1.8v-6.1c0-1-0.8-1.8-1.8-1.8H680c-1,0-1.8,0.8-1.8,1.8v6.1
			C678.3,283.4,679.1,284.1,680,284.1z"/>
	</g>
	<g>
		<path class="st4" d="M688.3,305.1h1.1c1,0,1.8-0.8,1.8-1.8v-6.1c0-1-0.8-1.8-1.8-1.8h-1.1c-1,0-1.8,0.8-1.8,1.8v6.1
			C686.6,304.4,687.4,305.1,688.3,305.1z"/>
	</g>
	<g>
		<path class="st4" d="M680,304.9h1c1,0,1.8-0.8,1.8-1.8v-5.8c0-1-0.8-1.8-1.8-1.8h-1c-1,0-1.8,0.8-1.8,1.8v5.8
			C678.3,304,679.1,304.9,680,304.9z"/>
	</g>
	<g>
		<path class="st4" d="M688.3,326h1.1c1,0,1.8-0.8,1.8-1.8v-6.1c0-1-0.8-1.8-1.8-1.8h-1.1c-1,0-1.8,0.8-1.8,1.8v6.1
			C686.6,325.1,687.4,326,688.3,326z"/>
	</g>
	<g>
		<path class="st4" d="M680,325.6h1c1,0,1.8-0.8,1.8-1.8v-5.8c0-1-0.8-1.8-1.8-1.8h-1c-1,0-1.8,0.8-1.8,1.8v5.8
			C678.3,324.9,679.1,325.6,680,325.6z"/>
	</g>
	<g>
		<path class="st4" d="M688.3,346h1.1c1,0,1.8-0.8,1.8-1.8v-6.1c0-1-0.8-1.8-1.8-1.8h-1.1c-1,0-1.8,0.8-1.8,1.8v6.1
			C686.6,345.1,687.4,346,688.3,346z"/>
	</g>
	<g>
		<path class="st4" d="M680,346.1h1c1,0,1.8-0.8,1.8-1.8V338c0-1-0.8-1.8-1.8-1.8h-1c-1,0-1.8,0.8-1.8,1.8v6.4
			C678.3,345.4,679.1,346.1,680,346.1z"/>
	</g>
	<g>
		<path class="st4" d="M688.3,366.2h1.1c1,0,1.8-0.8,1.8-1.8v-6.1c0-1-0.8-1.8-1.8-1.8h-1.1c-1,0-1.8,0.8-1.8,1.8v6.1
			C686.6,365.5,687.4,366.2,688.3,366.2z"/>
	</g>
	<g>
		<path class="st4" d="M680,366.1h1.1c1,0,1.8-0.8,1.8-1.8v-6.1c0-1-0.8-1.8-1.8-1.8H680c-1,0-1.8,0.8-1.8,1.8v6.1
			C678.3,365.4,679.1,366.1,680,366.1z"/>
	</g>
	<path class="st5" d="M678.2,167.5h13.4c0.4,0,0.9-0.2,1.2-0.6l9.6-11.6c0.8-1,0.1-2.6-1.2-2.6h-13.4c-0.4,0-0.9,0.2-1.2,0.6
		l-9.6,11.6C676.2,165.9,676.9,167.5,678.2,167.5z"/>
	<path class="st3" d="M689.5,157.4h2.9c0.6,0,1-0.5,1-1v-5.6h-4.9v5.5C688.5,156.9,688.9,157.4,689.5,157.4z"/>
	<path class="st2" d="M689.5,157.4h1.4v-6.6h-2.4v5.5C688.5,156.9,688.9,157.4,689.5,157.4z"/>
	<path class="st3" d="M688.3,150.8h5.2c0.4,0,0.8-0.4,0.8-0.8v-0.1c0-0.4-0.4-0.8-0.8-0.8h-5.2c-0.4,0-0.8,0.4-0.8,0.8v0.1
		C687.6,150.5,687.9,150.8,688.3,150.8z"/>
	<path class="st2" d="M688.4,150.8h2.5v-1.7h-2.5c-0.5,0-0.8,0.4-0.8,0.8l0,0C687.6,150.5,687.9,150.8,688.4,150.8z"/>
</g>
<g>
	<path class="st2" d="M709.1,381.5h14.3V164.8h-14.3c-1.6,0-2.8,1.2-2.8,2.6v211.5C706.2,380.3,707.5,381.5,709.1,381.5z"/>
	<path class="st3" d="M727.1,158.3l3.9-5.3c0.4-0.5,1.1-0.5,1.5,0l3.9,5.3l4.5,6c0.2,0.2,0.3,0.5,0.3,0.8v215.1
		c0,0.7-0.5,1.2-1.1,1.2h-17.9V165.1c0-0.3,0.1-0.6,0.3-0.8L727.1,158.3z"/>
	<g>
		<path class="st4" d="M734.6,181.9h1.1c1,0,1.8-0.8,1.8-1.8v-6c0-1-0.8-1.8-1.8-1.8h-1.1c-1,0-1.8,0.8-1.8,1.8v6.1
			C732.8,181.1,733.6,181.9,734.6,181.9z"/>
	</g>
	<g>
		<path class="st4" d="M726.2,181.9h1.1c1,0,1.8-0.8,1.8-1.8v-6c0-1-0.8-1.8-1.8-1.8h-1.1c-1,0-1.8,0.8-1.8,1.8v6.1
			C724.5,181.1,725.3,181.9,726.2,181.9z"/>
	</g>
	<g>
		<path class="st4" d="M734.6,202.2h1.1c1,0,1.8-0.8,1.8-1.8v-6.1c0-1-0.8-1.8-1.8-1.8h-1.1c-1,0-1.8,0.8-1.8,1.8v6.1
			C732.8,201.4,733.6,202.2,734.6,202.2z"/>
	</g>
	<g>
		<path class="st4" d="M726.2,202.2h1.1c1,0,1.8-0.8,1.8-1.8v-6.1c0-1-0.8-1.8-1.8-1.8h-1.1c-1,0-1.8,0.8-1.8,1.8v6.1
			C724.5,201.4,725.3,202.2,726.2,202.2z"/>
	</g>
	<g>
		<path class="st4" d="M734.6,222h1.1c1,0,1.8-0.8,1.8-1.8v-6.1c0-1-0.8-1.8-1.8-1.8h-1.1c-1,0-1.8,0.8-1.8,1.8v6.1
			C732.8,221.2,733.6,222,734.6,222z"/>
	</g>
	<g>
		<path class="st4" d="M726.2,221.9h1.1c1,0,1.8-0.8,1.8-1.8v-6c0-1-0.8-1.8-1.8-1.8h-1.1c-1,0-1.8,0.8-1.8,1.8v6.1
			C724.5,221.1,725.3,221.9,726.2,221.9z"/>
	</g>
	<g>
		<path class="st4" d="M734.6,242.3h1.1c1,0,1.8-0.8,1.8-1.8v-6.1c0-1-0.8-1.8-1.8-1.8h-1.1c-1,0-1.8,0.8-1.8,1.8v6.1
			C732.8,241.5,733.6,242.3,734.6,242.3z"/>
	</g>
	<g>
		<path class="st4" d="M726.2,242.2h1.1c1,0,1.8-0.8,1.8-1.8v-6.1c0-1-0.8-1.8-1.8-1.8h-1.1c-1,0-1.8,0.8-1.8,1.8v6.1
			C724.5,241.4,725.3,242.2,726.2,242.2z"/>
	</g>
	<g>
		<path class="st4" d="M734.6,262.5h1c1,0,1.8-0.8,1.8-1.8v-5.8c0-1-0.8-1.8-1.8-1.8h-1c-1,0-1.8,0.8-1.8,1.8v5.8
			C732.8,261.6,733.6,262.5,734.6,262.5z"/>
	</g>
	<g>
		<path class="st4" d="M726.2,262.6h1.1c1,0,1.8-0.8,1.8-1.8v-6.1c0-1-0.8-1.8-1.8-1.8h-1.1c-1,0-1.8,0.8-1.8,1.8v6.1
			C724.5,261.9,725.3,262.6,726.2,262.6z"/>
	</g>
	<g>
		<path class="st4" d="M734.6,283.2h1c1,0,1.8-0.8,1.8-1.8v-5.8c0-1-0.8-1.8-1.8-1.8h-1c-1,0-1.8,0.8-1.8,1.8v5.8
			C732.8,282.5,733.6,283.2,734.6,283.2z"/>
	</g>
	<g>
		<path class="st4" d="M726.2,283.5h1.1c1,0,1.8-0.8,1.8-1.8v-6.1c0-1-0.8-1.8-1.8-1.8h-1.1c-1,0-1.8,0.8-1.8,1.8v6.1
			C724.5,282.6,725.3,283.5,726.2,283.5z"/>
	</g>
	<g>
		<path class="st4" d="M734.6,304.5h1.1c1,0,1.8-0.8,1.8-1.8v-6.1c0-1-0.8-1.8-1.8-1.8h-1.1c-1,0-1.8,0.8-1.8,1.8v6.1
			C732.8,303.6,733.6,304.5,734.6,304.5z"/>
	</g>
	<g>
		<path class="st4" d="M726.2,304.1h1c1,0,1.8-0.8,1.8-1.8v-5.8c0-1-0.8-1.8-1.8-1.8h-1c-1,0-1.8,0.8-1.8,1.8v5.8
			C724.5,303.4,725.3,304.1,726.2,304.1z"/>
	</g>
	<g>
		<path class="st4" d="M734.6,325.2h1.1c1,0,1.8-0.8,1.8-1.8v-6.1c0-1-0.8-1.8-1.8-1.8h-1.1c-1,0-1.8,0.8-1.8,1.8v6.1
			C732.8,324.4,733.6,325.2,734.6,325.2z"/>
	</g>
	<g>
		<path class="st4" d="M726.2,324.9h1c1,0,1.8-0.8,1.8-1.8v-5.8c0-1-0.8-1.8-1.8-1.8h-1c-1,0-1.8,0.8-1.8,1.8v5.8
			C724.5,324.1,725.3,324.9,726.2,324.9z"/>
	</g>
	<g>
		<path class="st4" d="M734.6,345.2h1.1c1,0,1.8-0.8,1.8-1.8v-6.1c0-1-0.8-1.8-1.8-1.8h-1.1c-1,0-1.8,0.8-1.8,1.8v6.1
			C732.8,344.4,733.6,345.2,734.6,345.2z"/>
	</g>
	<g>
		<path class="st4" d="M726.2,345.4h1c1,0,1.8-0.8,1.8-1.8v-6.4c0-1-0.8-1.8-1.8-1.8h-1c-1,0-1.8,0.8-1.8,1.8v6.4
			C724.5,344.6,725.3,345.4,726.2,345.4z"/>
	</g>
	<g>
		<path class="st4" d="M734.6,365.5h1.1c1,0,1.8-0.8,1.8-1.8v-6.1c0-1-0.8-1.8-1.8-1.8h-1.1c-1,0-1.8,0.8-1.8,1.8v6.1
			C732.8,364.8,733.6,365.5,734.6,365.5z"/>
	</g>
	<g>
		<path class="st4" d="M726.2,365.4h1.1c1,0,1.8-0.8,1.8-1.8v-6.1c0-1-0.8-1.8-1.8-1.8h-1.1c-1,0-1.8,0.8-1.8,1.8v6.1
			C724.5,364.6,725.3,365.4,726.2,365.4z"/>
	</g>
	<g>
		<path class="st4" d="M718,181.9h1.1c1,0,1.8-0.8,1.8-1.8v-6c0-1-0.8-1.8-1.8-1.8H718c-1,0-1.8,0.8-1.8,1.8v6.1
			C716.3,181.1,717.1,181.9,718,181.9z"/>
	</g>
	<g>
		<path class="st4" d="M709.7,181.9h1.1c1,0,1.8-0.8,1.8-1.8v-6c0-1-0.8-1.8-1.8-1.8h-1.1c-1,0-1.8,0.8-1.8,1.8v6.1
			C708,181.1,708.8,181.9,709.7,181.9z"/>
	</g>
	<g>
		<path class="st4" d="M718,202.2h1.1c1,0,1.8-0.8,1.8-1.8v-6.1c0-1-0.8-1.8-1.8-1.8H718c-1,0-1.8,0.8-1.8,1.8v6.1
			C716.3,201.4,717.1,202.2,718,202.2z"/>
	</g>
	<g>
		<path class="st4" d="M709.7,202.2h1.1c1,0,1.8-0.8,1.8-1.8v-6.1c0-1-0.8-1.8-1.8-1.8h-1.1c-1,0-1.8,0.8-1.8,1.8v6.1
			C708,201.4,708.8,202.2,709.7,202.2z"/>
	</g>
	<g>
		<path class="st4" d="M718,222h1.1c1,0,1.8-0.8,1.8-1.8v-6.1c0-1-0.8-1.8-1.8-1.8H718c-1,0-1.8,0.8-1.8,1.8v6.1
			C716.3,221.2,717.1,222,718,222z"/>
	</g>
	<g>
		<path class="st4" d="M709.7,221.9h1.1c1,0,1.8-0.8,1.8-1.8v-6c0-1-0.8-1.8-1.8-1.8h-1.1c-1,0-1.8,0.8-1.8,1.8v6.1
			C708,221.1,708.8,221.9,709.7,221.9z"/>
	</g>
	<g>
		<path class="st4" d="M718,242.3h1.1c1,0,1.8-0.8,1.8-1.8v-6.1c0-1-0.8-1.8-1.8-1.8H718c-1,0-1.8,0.8-1.8,1.8v6.1
			C716.3,241.5,717.1,242.3,718,242.3z"/>
	</g>
	<g>
		<path class="st4" d="M709.7,242.2h1.1c1,0,1.8-0.8,1.8-1.8v-6.1c0-1-0.8-1.8-1.8-1.8h-1.1c-1,0-1.8,0.8-1.8,1.8v6.1
			C708,241.4,708.8,242.2,709.7,242.2z"/>
	</g>
	<g>
		<path class="st4" d="M718,262.5h1c1,0,1.8-0.8,1.8-1.8v-5.8c0-1-0.8-1.8-1.8-1.8h-1c-1,0-1.8,0.8-1.8,1.8v5.8
			C716.3,261.6,717.1,262.5,718,262.5z"/>
	</g>
	<g>
		<path class="st4" d="M709.7,262.6h1.1c1,0,1.8-0.8,1.8-1.8v-6.1c0-1-0.8-1.8-1.8-1.8h-1.1c-1,0-1.8,0.8-1.8,1.8v6.1
			C708,261.9,708.8,262.6,709.7,262.6z"/>
	</g>
	<g>
		<path class="st4" d="M718,283.2h1c1,0,1.8-0.8,1.8-1.8v-5.8c0-1-0.8-1.8-1.8-1.8h-1c-1,0-1.8,0.8-1.8,1.8v5.8
			C716.3,282.5,717.1,283.2,718,283.2z"/>
	</g>
	<g>
		<path class="st4" d="M709.7,283.5h1.1c1,0,1.8-0.8,1.8-1.8v-6.1c0-1-0.8-1.8-1.8-1.8h-1.1c-1,0-1.8,0.8-1.8,1.8v6.1
			C708,282.6,708.8,283.5,709.7,283.5z"/>
	</g>
	<g>
		<path class="st4" d="M718,304.5h1.1c1,0,1.8-0.8,1.8-1.8v-6.1c0-1-0.8-1.8-1.8-1.8H718c-1,0-1.8,0.8-1.8,1.8v6.1
			C716.3,303.6,717.1,304.5,718,304.5z"/>
	</g>
	<g>
		<path class="st4" d="M709.7,304.1h1c1,0,1.8-0.8,1.8-1.8v-5.8c0-1-0.8-1.8-1.8-1.8h-1c-1,0-1.8,0.8-1.8,1.8v5.8
			C708,303.4,708.8,304.1,709.7,304.1z"/>
	</g>
	<g>
		<path class="st4" d="M718,325.2h1.1c1,0,1.8-0.8,1.8-1.8v-6.1c0-1-0.8-1.8-1.8-1.8H718c-1,0-1.8,0.8-1.8,1.8v6.1
			C716.3,324.4,717.1,325.2,718,325.2z"/>
	</g>
	<g>
		<path class="st4" d="M709.7,324.9h1c1,0,1.8-0.8,1.8-1.8v-5.8c0-1-0.8-1.8-1.8-1.8h-1c-1,0-1.8,0.8-1.8,1.8v5.8
			C708,324.1,708.8,324.9,709.7,324.9z"/>
	</g>
	<g>
		<path class="st4" d="M718,345.2h1.1c1,0,1.8-0.8,1.8-1.8v-6.1c0-1-0.8-1.8-1.8-1.8H718c-1,0-1.8,0.8-1.8,1.8v6.1
			C716.3,344.4,717.1,345.2,718,345.2z"/>
	</g>
	<g>
		<path class="st4" d="M709.7,345.4h1c1,0,1.8-0.8,1.8-1.8v-6.4c0-1-0.8-1.8-1.8-1.8h-1c-1,0-1.8,0.8-1.8,1.8v6.4
			C708,344.6,708.8,345.4,709.7,345.4z"/>
	</g>
	<g>
		<path class="st4" d="M718,365.5h1.1c1,0,1.8-0.8,1.8-1.8v-6.1c0-1-0.8-1.8-1.8-1.8H718c-1,0-1.8,0.8-1.8,1.8v6.1
			C716.3,364.8,717.1,365.5,718,365.5z"/>
	</g>
	<g>
		<path class="st4" d="M709.7,365.4h1.1c1,0,1.8-0.8,1.8-1.8v-6.1c0-1-0.8-1.8-1.8-1.8h-1.1c-1,0-1.8,0.8-1.8,1.8v6.1
			C708,364.6,708.8,365.4,709.7,365.4z"/>
	</g>
	<path class="st5" d="M707.9,166.8h13.4c0.4,0,0.9-0.2,1.2-0.6l9.6-11.6c0.8-1,0.1-2.6-1.2-2.6h-13.4c-0.4,0-0.9,0.2-1.2,0.6
		l-9.6,11.6C705.9,165.2,706.6,166.8,707.9,166.8z"/>
	<path class="st3" d="M719.2,156.8h2.9c0.6,0,1-0.5,1-1v-5.6h-4.9v5.5C718.2,156.2,718.6,156.8,719.2,156.8z"/>
	<path class="st2" d="M719.2,156.8h1.4v-6.6h-2.4v5.5C718.2,156.2,718.6,156.8,719.2,156.8z"/>
	<path class="st3" d="M718,150.1h5.2c0.4,0,0.8-0.4,0.8-0.8v-0.1c0-0.4-0.4-0.8-0.8-0.8H718c-0.4,0-0.8,0.4-0.8,0.8v0.1
		C717.3,149.8,717.6,150.1,718,150.1z"/>
	<path class="st2" d="M718.1,150.1h2.5v-1.7h-2.5c-0.5,0-0.8,0.4-0.8,0.8l0,0C717.3,149.8,717.6,150.1,718.1,150.1z"/>
</g>
<g id="houses_front">
</g>
<g id="trees">
</g>
<path class="st2" d="M808.5,400.8h18.9V113.6h-18.9c-2.1,0-3.7,1.6-3.7,3.4v280.3C804.7,399.2,806.4,400.8,808.5,400.8z"/>
<path class="st3" d="M832.4,105.1l5.2-7c0.5-0.7,1.5-0.7,2,0l5.2,7l6,8c0.3,0.3,0.4,0.7,0.4,1.1v285.1c0,0.9-0.7,1.6-1.5,1.6h-23.7
	V114c0-0.4,0.1-0.8,0.4-1.1L832.4,105.1z"/>
<g>
	<path class="st4" d="M842.3,136.4h1.5c1.3,0,2.4-1.1,2.4-2.4v-8c0-1.3-1.1-2.4-2.4-2.4h-1.5c-1.3,0-2.4,1.1-2.4,2.4v8.1
		C839.9,135.3,841,136.4,842.3,136.4z"/>
</g>
<g>
	<path class="st4" d="M831.2,136.4h1.5c1.3,0,2.4-1.1,2.4-2.4v-8c0-1.3-1.1-2.4-2.4-2.4h-1.5c-1.3,0-2.4,1.1-2.4,2.4v8.1
		C828.9,135.3,830,136.4,831.2,136.4z"/>
</g>
<g>
	<path class="st4" d="M842.3,163.3h1.5c1.3,0,2.4-1.1,2.4-2.4v-8.1c0-1.3-1.1-2.4-2.4-2.4h-1.5c-1.3,0-2.4,1.1-2.4,2.4v8.1
		C839.9,162.2,841,163.3,842.3,163.3z"/>
</g>
<g>
	<path class="st4" d="M831.2,163.3h1.5c1.3,0,2.4-1.1,2.4-2.4v-8.1c0-1.3-1.1-2.4-2.4-2.4h-1.5c-1.3,0-2.4,1.1-2.4,2.4v8.1
		C828.9,162.2,830,163.3,831.2,163.3z"/>
</g>
<g>
	<path class="st4" d="M842.3,189.5h1.5c1.3,0,2.4-1.1,2.4-2.4V179c0-1.3-1.1-2.4-2.4-2.4h-1.5c-1.3,0-2.4,1.1-2.4,2.4v8.1
		C839.9,188.5,841,189.5,842.3,189.5z"/>
</g>
<g>
	<path class="st4" d="M831.2,189.4h1.5c1.3,0,2.4-1.1,2.4-2.4v-8c0-1.3-1.1-2.4-2.4-2.4h-1.5c-1.3,0-2.4,1.1-2.4,2.4v8.1
		C828.9,188.3,830,189.4,831.2,189.4z"/>
</g>
<g>
	<path class="st4" d="M842.3,216.4h1.5c1.3,0,2.4-1.1,2.4-2.4v-8.1c0-1.3-1.1-2.4-2.4-2.4h-1.5c-1.3,0-2.4,1.1-2.4,2.4v8.1
		C839.9,215.4,841,216.4,842.3,216.4z"/>
</g>
<g>
	<path class="st4" d="M831.2,216.3h1.5c1.3,0,2.4-1.1,2.4-2.4v-8.1c0-1.3-1.1-2.4-2.4-2.4h-1.5c-1.3,0-2.4,1.1-2.4,2.4v8.1
		C828.9,215.2,830,216.3,831.2,216.3z"/>
</g>
<g>
	<path class="st4" d="M842.3,243.1h1.3c1.3,0,2.4-1.1,2.4-2.4V233c0-1.3-1.1-2.4-2.4-2.4h-1.3c-1.3,0-2.4,1.1-2.4,2.4v7.7
		C839.9,242,841,243.1,842.3,243.1z"/>
</g>
<g>
	<path class="st4" d="M831.2,243.3h1.5c1.3,0,2.4-1.1,2.4-2.4v-8.1c0-1.3-1.1-2.4-2.4-2.4h-1.5c-1.3,0-2.4,1.1-2.4,2.4v8.1
		C828.9,242.3,830,243.3,831.2,243.3z"/>
</g>
<g>
	<path class="st4" d="M842.3,270.6h1.3c1.3,0,2.4-1.1,2.4-2.4v-7.7c0-1.3-1.1-2.4-2.4-2.4h-1.3c-1.3,0-2.4,1.1-2.4,2.4v7.7
		C839.9,269.7,841,270.6,842.3,270.6z"/>
</g>
<g>
	<path class="st4" d="M831.2,270.9h1.5c1.3,0,2.4-1.1,2.4-2.4v-8.1c0-1.3-1.1-2.4-2.4-2.4h-1.5c-1.3,0-2.4,1.1-2.4,2.4v8.1
		C828.9,269.8,830,270.9,831.2,270.9z"/>
</g>
<g>
	<path class="st4" d="M842.3,298.7h1.5c1.3,0,2.4-1.1,2.4-2.4v-8.1c0-1.3-1.1-2.4-2.4-2.4h-1.5c-1.3,0-2.4,1.1-2.4,2.4v8.1
		C839.9,297.6,841,298.7,842.3,298.7z"/>
</g>
<g>
	<path class="st4" d="M831.2,298.3h1.3c1.3,0,2.4-1.1,2.4-2.4v-7.7c0-1.3-1.1-2.4-2.4-2.4h-1.3c-1.3,0-2.4,1.1-2.4,2.4v7.7
		C828.9,297.3,830,298.3,831.2,298.3z"/>
</g>
<g>
	<path class="st4" d="M842.3,326.3h1.5c1.3,0,2.4-1.1,2.4-2.4v-8.1c0-1.3-1.1-2.4-2.4-2.4h-1.5c-1.3,0-2.4,1.1-2.4,2.4v8.1
		C839.9,325.2,841,326.3,842.3,326.3z"/>
</g>
<g>
	<path class="st4" d="M831.2,325.9h1.3c1.3,0,2.4-1.1,2.4-2.4v-7.7c0-1.3-1.1-2.4-2.4-2.4h-1.3c-1.3,0-2.4,1.1-2.4,2.4v7.7
		C828.9,324.8,830,325.9,831.2,325.9z"/>
</g>
<g>
	<path class="st4" d="M842.3,352.8h1.5c1.3,0,2.4-1.1,2.4-2.4v-8.1c0-1.3-1.1-2.4-2.4-2.4h-1.5c-1.3,0-2.4,1.1-2.4,2.4v8.1
		C839.9,351.7,841,352.8,842.3,352.8z"/>
</g>
<g>
	<path class="st4" d="M831.2,353h1.3c1.3,0,2.4-1.1,2.4-2.4v-8.5c0-1.3-1.1-2.4-2.4-2.4h-1.3c-1.3,0-2.4,1.1-2.4,2.4v8.5
		C828.9,352,830,353,831.2,353z"/>
</g>
<g>
	<path class="st4" d="M842.3,379.7h1.5c1.3,0,2.4-1.1,2.4-2.4v-8.1c0-1.3-1.1-2.4-2.4-2.4h-1.5c-1.3,0-2.4,1.1-2.4,2.4v8.1
		C839.9,378.6,841,379.7,842.3,379.7z"/>
</g>
<g>
	<path class="st4" d="M831.2,379.5h1.5c1.3,0,2.4-1.1,2.4-2.4v-8.1c0-1.3-1.1-2.4-2.4-2.4h-1.5c-1.3,0-2.4,1.1-2.4,2.4v8.1
		C828.9,378.5,830,379.5,831.2,379.5z"/>
</g>
<g>
	<path class="st4" d="M820.3,136.4h1.5c1.3,0,2.4-1.1,2.4-2.4v-8c0-1.3-1.1-2.4-2.4-2.4h-1.5c-1.3,0-2.4,1.1-2.4,2.4v8.1
		C818.1,135.3,819.1,136.4,820.3,136.4z"/>
</g>
<g>
	<path class="st4" d="M809.3,136.4h1.5c1.3,0,2.4-1.1,2.4-2.4v-8c0-1.3-1.1-2.4-2.4-2.4h-1.5c-1.3,0-2.4,1.1-2.4,2.4v8.1
		C807.1,135.3,808.1,136.4,809.3,136.4z"/>
</g>
<g>
	<path class="st4" d="M820.3,163.3h1.5c1.3,0,2.4-1.1,2.4-2.4v-8.1c0-1.3-1.1-2.4-2.4-2.4h-1.5c-1.3,0-2.4,1.1-2.4,2.4v8.1
		C818.1,162.2,819.1,163.3,820.3,163.3z"/>
</g>
<g>
	<path class="st4" d="M809.3,163.3h1.5c1.3,0,2.4-1.1,2.4-2.4v-8.1c0-1.3-1.1-2.4-2.4-2.4h-1.5c-1.3,0-2.4,1.1-2.4,2.4v8.1
		C807.1,162.2,808.1,163.3,809.3,163.3z"/>
</g>
<g>
	<path class="st4" d="M820.3,189.5h1.5c1.3,0,2.4-1.1,2.4-2.4V179c0-1.3-1.1-2.4-2.4-2.4h-1.5c-1.3,0-2.4,1.1-2.4,2.4v8.1
		C818.1,188.5,819.1,189.5,820.3,189.5z"/>
</g>
<g>
	<path class="st4" d="M809.3,189.4h1.5c1.3,0,2.4-1.1,2.4-2.4v-8c0-1.3-1.1-2.4-2.4-2.4h-1.5c-1.3,0-2.4,1.1-2.4,2.4v8.1
		C807.1,188.3,808.1,189.4,809.3,189.4z"/>
</g>
<g>
	<path class="st4" d="M820.3,216.4h1.5c1.3,0,2.4-1.1,2.4-2.4v-8.1c0-1.3-1.1-2.4-2.4-2.4h-1.5c-1.3,0-2.4,1.1-2.4,2.4v8.1
		C818.1,215.4,819.1,216.4,820.3,216.4z"/>
</g>
<g>
	<path class="st4" d="M809.3,216.3h1.5c1.3,0,2.4-1.1,2.4-2.4v-8.1c0-1.3-1.1-2.4-2.4-2.4h-1.5c-1.3,0-2.4,1.1-2.4,2.4v8.1
		C807.1,215.2,808.1,216.3,809.3,216.3z"/>
</g>
<g>
	<path class="st4" d="M820.3,243.1h1.3c1.3,0,2.4-1.1,2.4-2.4V233c0-1.3-1.1-2.4-2.4-2.4h-1.3c-1.3,0-2.4,1.1-2.4,2.4v7.7
		C818.1,242,819.1,243.1,820.3,243.1z"/>
</g>
<g>
	<path class="st4" d="M809.3,243.3h1.5c1.3,0,2.4-1.1,2.4-2.4v-8.1c0-1.3-1.1-2.4-2.4-2.4h-1.5c-1.3,0-2.4,1.1-2.4,2.4v8.1
		C807.1,242.3,808.1,243.3,809.3,243.3z"/>
</g>
<g>
	<path class="st4" d="M820.3,270.6h1.3c1.3,0,2.4-1.1,2.4-2.4v-7.7c0-1.3-1.1-2.4-2.4-2.4h-1.3c-1.3,0-2.4,1.1-2.4,2.4v7.7
		C818.1,269.7,819.1,270.6,820.3,270.6z"/>
</g>
<g>
	<path class="st4" d="M809.3,270.9h1.5c1.3,0,2.4-1.1,2.4-2.4v-8.1c0-1.3-1.1-2.4-2.4-2.4h-1.5c-1.3,0-2.4,1.1-2.4,2.4v8.1
		C807.1,269.8,808.1,270.9,809.3,270.9z"/>
</g>
<g>
	<path class="st4" d="M820.3,298.7h1.5c1.3,0,2.4-1.1,2.4-2.4v-8.1c0-1.3-1.1-2.4-2.4-2.4h-1.5c-1.3,0-2.4,1.1-2.4,2.4v8.1
		C818.1,297.6,819.1,298.7,820.3,298.7z"/>
</g>
<g>
	<path class="st4" d="M809.3,298.3h1.3c1.3,0,2.4-1.1,2.4-2.4v-7.7c0-1.3-1.1-2.4-2.4-2.4h-1.3c-1.3,0-2.4,1.1-2.4,2.4v7.7
		C807.1,297.3,808.1,298.3,809.3,298.3z"/>
</g>
<g>
	<path class="st4" d="M820.3,326.3h1.5c1.3,0,2.4-1.1,2.4-2.4v-8.1c0-1.3-1.1-2.4-2.4-2.4h-1.5c-1.3,0-2.4,1.1-2.4,2.4v8.1
		C818.1,325.2,819.1,326.3,820.3,326.3z"/>
</g>
<g>
	<path class="st4" d="M809.3,325.9h1.3c1.3,0,2.4-1.1,2.4-2.4v-7.7c0-1.3-1.1-2.4-2.4-2.4h-1.3c-1.3,0-2.4,1.1-2.4,2.4v7.7
		C807.1,324.8,808.1,325.9,809.3,325.9z"/>
</g>
<g>
	<path class="st4" d="M820.3,352.8h1.5c1.3,0,2.4-1.1,2.4-2.4v-8.1c0-1.3-1.1-2.4-2.4-2.4h-1.5c-1.3,0-2.4,1.1-2.4,2.4v8.1
		C818.1,351.7,819.1,352.8,820.3,352.8z"/>
</g>
<g>
	<path class="st4" d="M809.3,353h1.3c1.3,0,2.4-1.1,2.4-2.4v-8.5c0-1.3-1.1-2.4-2.4-2.4h-1.3c-1.3,0-2.4,1.1-2.4,2.4v8.5
		C807.1,352,808.1,353,809.3,353z"/>
</g>
<g>
	<path class="st4" d="M820.3,379.7h1.5c1.3,0,2.4-1.1,2.4-2.4v-8.1c0-1.3-1.1-2.4-2.4-2.4h-1.5c-1.3,0-2.4,1.1-2.4,2.4v8.1
		C818.1,378.6,819.1,379.7,820.3,379.7z"/>
</g>
<g>
	<path class="st4" d="M809.3,379.5h1.5c1.3,0,2.4-1.1,2.4-2.4v-8.1c0-1.3-1.1-2.4-2.4-2.4h-1.5c-1.3,0-2.4,1.1-2.4,2.4v8.1
		C807.1,378.5,808.1,379.5,809.3,379.5z"/>
</g>
<path class="st6" d="M806.9,116.4h17.8c0.5,0,1.2-0.3,1.6-0.8l12.7-15.4c1.1-1.3,0.1-3.4-1.6-3.4h-17.8c-0.5,0-1.2,0.3-1.6,0.8
	l-12.7,15.4C804.3,114.2,805.2,116.4,806.9,116.4z"/>
<path class="st3" d="M821.9,103h3.8c0.8,0,1.3-0.7,1.3-1.3v-7.4h-6.5v7.3C820.6,102.3,821.1,103,821.9,103z"/>
<path class="st2" d="M821.9,103h1.9v-8.7h-3.2v7.3C820.6,102.3,821.1,103,821.9,103z"/>
<path class="st3" d="M820.3,94.2h6.9c0.5,0,1.1-0.5,1.1-1.1V93c0-0.5-0.5-1.1-1.1-1.1h-6.9c-0.5,0-1.1,0.5-1.1,1.1v0.1
	C819.4,93.8,819.8,94.2,820.3,94.2z"/>
<path class="st2" d="M820.4,94.2h3.3V92h-3.3c-0.7,0-1.1,0.5-1.1,1.1l0,0C819.4,93.8,819.8,94.2,820.4,94.2z"/>
<g>
	<path class="st2" d="M847.5,398.8h18.9V111.7h-18.9c-2.1,0-3.7,1.6-3.7,3.4v280.3C843.7,397.2,845.4,398.8,847.5,398.8z"/>
	<path class="st3" d="M871.4,103.2l5.2-7c0.5-0.7,1.5-0.7,2,0l5.2,7l6,8c0.3,0.3,0.4,0.7,0.4,1.1v285.1c0,0.9-0.7,1.6-1.5,1.6h-23.7
		V112.1c0-0.4,0.1-0.8,0.4-1.1L871.4,103.2z"/>
	<g>
		<path class="st4" d="M881.3,134.4h1.5c1.3,0,2.4-1.1,2.4-2.4v-8c0-1.3-1.1-2.4-2.4-2.4h-1.5c-1.3,0-2.4,1.1-2.4,2.4v8.1
			C879,133.4,880,134.4,881.3,134.4z"/>
	</g>
	<g>
		<path class="st4" d="M870.2,134.4h1.5c1.3,0,2.4-1.1,2.4-2.4v-8c0-1.3-1.1-2.4-2.4-2.4h-1.5c-1.3,0-2.4,1.1-2.4,2.4v8.1
			C868,133.4,869,134.4,870.2,134.4z"/>
	</g>
	<g>
		<path class="st4" d="M881.3,161.3h1.5c1.3,0,2.4-1.1,2.4-2.4v-8.1c0-1.3-1.1-2.4-2.4-2.4h-1.5c-1.3,0-2.4,1.1-2.4,2.4v8.1
			C879,160.3,880,161.3,881.3,161.3z"/>
	</g>
	<g>
		<path class="st4" d="M870.2,161.3h1.5c1.3,0,2.4-1.1,2.4-2.4v-8.1c0-1.3-1.1-2.4-2.4-2.4h-1.5c-1.3,0-2.4,1.1-2.4,2.4v8.1
			C868,160.3,869,161.3,870.2,161.3z"/>
	</g>
	<g>
		<path class="st4" d="M881.3,187.6h1.5c1.3,0,2.4-1.1,2.4-2.4v-8.1c0-1.3-1.1-2.4-2.4-2.4h-1.5c-1.3,0-2.4,1.1-2.4,2.4v8.1
			C879,186.5,880,187.6,881.3,187.6z"/>
	</g>
	<g>
		<path class="st4" d="M870.2,187.5h1.5c1.3,0,2.4-1.1,2.4-2.4v-8c0-1.3-1.1-2.4-2.4-2.4h-1.5c-1.3,0-2.4,1.1-2.4,2.4v8.1
			C868,186.4,869,187.5,870.2,187.5z"/>
	</g>
	<g>
		<path class="st4" d="M881.3,214.5h1.5c1.3,0,2.4-1.1,2.4-2.4V204c0-1.3-1.1-2.4-2.4-2.4h-1.5c-1.3,0-2.4,1.1-2.4,2.4v8.1
			C879,213.4,880,214.5,881.3,214.5z"/>
	</g>
	<g>
		<path class="st4" d="M870.2,214.4h1.5c1.3,0,2.4-1.1,2.4-2.4v-8.1c0-1.3-1.1-2.4-2.4-2.4h-1.5c-1.3,0-2.4,1.1-2.4,2.4v8.1
			C868,213.3,869,214.4,870.2,214.4z"/>
	</g>
	<g>
		<path class="st4" d="M881.3,241.1h1.3c1.3,0,2.4-1.1,2.4-2.4v-7.7c0-1.3-1.1-2.4-2.4-2.4h-1.3c-1.3,0-2.4,1.1-2.4,2.4v7.7
			C879,240.1,880,241.1,881.3,241.1z"/>
	</g>
	<g>
		<path class="st4" d="M870.2,241.4h1.5c1.3,0,2.4-1.1,2.4-2.4v-8.1c0-1.3-1.1-2.4-2.4-2.4h-1.5c-1.3,0-2.4,1.1-2.4,2.4v8.1
			C868,240.3,869,241.4,870.2,241.4z"/>
	</g>
	<g>
		<path class="st4" d="M881.3,268.7h1.3c1.3,0,2.4-1.1,2.4-2.4v-7.7c0-1.3-1.1-2.4-2.4-2.4h-1.3c-1.3,0-2.4,1.1-2.4,2.4v7.7
			C879,267.8,880,268.7,881.3,268.7z"/>
	</g>
	<g>
		<path class="st4" d="M870.2,269h1.5c1.3,0,2.4-1.1,2.4-2.4v-8.1c0-1.3-1.1-2.4-2.4-2.4h-1.5c-1.3,0-2.4,1.1-2.4,2.4v8.1
			C868,267.9,869,269,870.2,269z"/>
	</g>
	<g>
		<path class="st4" d="M881.3,296.8h1.5c1.3,0,2.4-1.1,2.4-2.4v-8.1c0-1.3-1.1-2.4-2.4-2.4h-1.5c-1.3,0-2.4,1.1-2.4,2.4v8.1
			C879,295.7,880,296.8,881.3,296.8z"/>
	</g>
	<g>
		<path class="st4" d="M870.2,296.4h1.3c1.3,0,2.4-1.1,2.4-2.4v-7.7c0-1.3-1.1-2.4-2.4-2.4h-1.3c-1.3,0-2.4,1.1-2.4,2.4v7.7
			C868,295.3,869,296.4,870.2,296.4z"/>
	</g>
	<g>
		<path class="st4" d="M881.3,324.3h1.5c1.3,0,2.4-1.1,2.4-2.4v-8.1c0-1.3-1.1-2.4-2.4-2.4h-1.5c-1.3,0-2.4,1.1-2.4,2.4v8.1
			C879,323.3,880,324.3,881.3,324.3z"/>
	</g>
	<g>
		<path class="st4" d="M870.2,324h1.3c1.3,0,2.4-1.1,2.4-2.4v-7.7c0-1.3-1.1-2.4-2.4-2.4h-1.3c-1.3,0-2.4,1.1-2.4,2.4v7.7
			C868,322.9,869,324,870.2,324z"/>
	</g>
	<g>
		<path class="st4" d="M881.3,350.9h1.5c1.3,0,2.4-1.1,2.4-2.4v-8.1c0-1.3-1.1-2.4-2.4-2.4h-1.5c-1.3,0-2.4,1.1-2.4,2.4v8.1
			C879,349.8,880,350.9,881.3,350.9z"/>
	</g>
	<g>
		<path class="st4" d="M870.2,351.1h1.3c1.3,0,2.4-1.1,2.4-2.4v-8.5c0-1.3-1.1-2.4-2.4-2.4h-1.3c-1.3,0-2.4,1.1-2.4,2.4v8.5
			C868,350.1,869,351.1,870.2,351.1z"/>
	</g>
	<g>
		<path class="st4" d="M881.3,377.8h1.5c1.3,0,2.4-1.1,2.4-2.4v-8.1c0-1.3-1.1-2.4-2.4-2.4h-1.5c-1.3,0-2.4,1.1-2.4,2.4v8.1
			C879,376.7,880,377.8,881.3,377.8z"/>
	</g>
	<g>
		<path class="st4" d="M870.2,377.6h1.5c1.3,0,2.4-1.1,2.4-2.4v-8.1c0-1.3-1.1-2.4-2.4-2.4h-1.5c-1.3,0-2.4,1.1-2.4,2.4v8.1
			C868,376.6,869,377.6,870.2,377.6z"/>
	</g>
	<g>
		<path class="st4" d="M859.3,134.4h1.5c1.3,0,2.4-1.1,2.4-2.4v-8c0-1.3-1.1-2.4-2.4-2.4h-1.5c-1.3,0-2.4,1.1-2.4,2.4v8.1
			C857.1,133.4,858.2,134.4,859.3,134.4z"/>
	</g>
	<g>
		<path class="st4" d="M848.3,134.4h1.5c1.3,0,2.4-1.1,2.4-2.4v-8c0-1.3-1.1-2.4-2.4-2.4h-1.5c-1.3,0-2.4,1.1-2.4,2.4v8.1
			C846.1,133.4,847.2,134.4,848.3,134.4z"/>
	</g>
	<g>
		<path class="st4" d="M859.3,161.3h1.5c1.3,0,2.4-1.1,2.4-2.4v-8.1c0-1.3-1.1-2.4-2.4-2.4h-1.5c-1.3,0-2.4,1.1-2.4,2.4v8.1
			C857.1,160.3,858.2,161.3,859.3,161.3z"/>
	</g>
	<g>
		<path class="st4" d="M848.3,161.3h1.5c1.3,0,2.4-1.1,2.4-2.4v-8.1c0-1.3-1.1-2.4-2.4-2.4h-1.5c-1.3,0-2.4,1.1-2.4,2.4v8.1
			C846.1,160.3,847.2,161.3,848.3,161.3z"/>
	</g>
	<g>
		<path class="st4" d="M859.3,187.6h1.5c1.3,0,2.4-1.1,2.4-2.4v-8.1c0-1.3-1.1-2.4-2.4-2.4h-1.5c-1.3,0-2.4,1.1-2.4,2.4v8.1
			C857.1,186.5,858.2,187.6,859.3,187.6z"/>
	</g>
	<g>
		<path class="st4" d="M848.3,187.5h1.5c1.3,0,2.4-1.1,2.4-2.4v-8c0-1.3-1.1-2.4-2.4-2.4h-1.5c-1.3,0-2.4,1.1-2.4,2.4v8.1
			C846.1,186.4,847.2,187.5,848.3,187.5z"/>
	</g>
	<g>
		<path class="st4" d="M859.3,214.5h1.5c1.3,0,2.4-1.1,2.4-2.4V204c0-1.3-1.1-2.4-2.4-2.4h-1.5c-1.3,0-2.4,1.1-2.4,2.4v8.1
			C857.1,213.4,858.2,214.5,859.3,214.5z"/>
	</g>
	<g>
		<path class="st4" d="M848.3,214.4h1.5c1.3,0,2.4-1.1,2.4-2.4v-8.1c0-1.3-1.1-2.4-2.4-2.4h-1.5c-1.3,0-2.4,1.1-2.4,2.4v8.1
			C846.1,213.3,847.2,214.4,848.3,214.4z"/>
	</g>
	<g>
		<path class="st4" d="M859.3,241.1h1.3c1.3,0,2.4-1.1,2.4-2.4v-7.7c0-1.3-1.1-2.4-2.4-2.4h-1.3c-1.3,0-2.4,1.1-2.4,2.4v7.7
			C857.1,240.1,858.2,241.1,859.3,241.1z"/>
	</g>
	<g>
		<path class="st4" d="M848.3,241.4h1.5c1.3,0,2.4-1.1,2.4-2.4v-8.1c0-1.3-1.1-2.4-2.4-2.4h-1.5c-1.3,0-2.4,1.1-2.4,2.4v8.1
			C846.1,240.3,847.2,241.4,848.3,241.4z"/>
	</g>
	<g>
		<path class="st4" d="M859.3,268.7h1.3c1.3,0,2.4-1.1,2.4-2.4v-7.7c0-1.3-1.1-2.4-2.4-2.4h-1.3c-1.3,0-2.4,1.1-2.4,2.4v7.7
			C857.1,267.8,858.2,268.7,859.3,268.7z"/>
	</g>
	<g>
		<path class="st4" d="M848.3,269h1.5c1.3,0,2.4-1.1,2.4-2.4v-8.1c0-1.3-1.1-2.4-2.4-2.4h-1.5c-1.3,0-2.4,1.1-2.4,2.4v8.1
			C846.1,267.9,847.2,269,848.3,269z"/>
	</g>
	<g>
		<path class="st4" d="M859.3,296.8h1.5c1.3,0,2.4-1.1,2.4-2.4v-8.1c0-1.3-1.1-2.4-2.4-2.4h-1.5c-1.3,0-2.4,1.1-2.4,2.4v8.1
			C857.1,295.7,858.2,296.8,859.3,296.8z"/>
	</g>
	<g>
		<path class="st4" d="M848.3,296.4h1.3c1.3,0,2.4-1.1,2.4-2.4v-7.7c0-1.3-1.1-2.4-2.4-2.4h-1.3c-1.3,0-2.4,1.1-2.4,2.4v7.7
			C846.1,295.3,847.2,296.4,848.3,296.4z"/>
	</g>
	<g>
		<path class="st4" d="M859.3,324.3h1.5c1.3,0,2.4-1.1,2.4-2.4v-8.1c0-1.3-1.1-2.4-2.4-2.4h-1.5c-1.3,0-2.4,1.1-2.4,2.4v8.1
			C857.1,323.3,858.2,324.3,859.3,324.3z"/>
	</g>
	<g>
		<path class="st4" d="M848.3,324h1.3c1.3,0,2.4-1.1,2.4-2.4v-7.7c0-1.3-1.1-2.4-2.4-2.4h-1.3c-1.3,0-2.4,1.1-2.4,2.4v7.7
			C846.1,322.9,847.2,324,848.3,324z"/>
	</g>
	<g>
		<path class="st4" d="M859.3,350.9h1.5c1.3,0,2.4-1.1,2.4-2.4v-8.1c0-1.3-1.1-2.4-2.4-2.4h-1.5c-1.3,0-2.4,1.1-2.4,2.4v8.1
			C857.1,349.8,858.2,350.9,859.3,350.9z"/>
	</g>
	<g>
		<path class="st4" d="M848.3,351.1h1.3c1.3,0,2.4-1.1,2.4-2.4v-8.5c0-1.3-1.1-2.4-2.4-2.4h-1.3c-1.3,0-2.4,1.1-2.4,2.4v8.5
			C846.1,350.1,847.2,351.1,848.3,351.1z"/>
	</g>
	<g>
		<path class="st4" d="M859.3,377.8h1.5c1.3,0,2.4-1.1,2.4-2.4v-8.1c0-1.3-1.1-2.4-2.4-2.4h-1.5c-1.3,0-2.4,1.1-2.4,2.4v8.1
			C857.1,376.7,858.2,377.8,859.3,377.8z"/>
	</g>
	<g>
		<path class="st4" d="M848.3,377.6h1.5c1.3,0,2.4-1.1,2.4-2.4v-8.1c0-1.3-1.1-2.4-2.4-2.4h-1.5c-1.3,0-2.4,1.1-2.4,2.4v8.1
			C846.1,376.6,847.2,377.6,848.3,377.6z"/>
	</g>
	<path class="st5" d="M846,114.4h17.8c0.5,0,1.2-0.3,1.6-0.8L878,98.3c1.1-1.3,0.1-3.4-1.6-3.4h-17.8c-0.5,0-1.2,0.3-1.6,0.8
		L844.4,111C843.3,112.3,844.2,114.4,846,114.4z"/>
	<path class="st3" d="M860.9,101.1h3.8c0.8,0,1.3-0.7,1.3-1.3v-7.4h-6.5v7.3C859.6,100.4,860.1,101.1,860.9,101.1z"/>
	<path class="st2" d="M860.9,101.1h1.9v-8.7h-3.2v7.3C859.6,100.4,860.1,101.1,860.9,101.1z"/>
	<path class="st3" d="M859.3,92.3h6.9c0.5,0,1.1-0.5,1.1-1.1v-0.1c0-0.5-0.5-1.1-1.1-1.1h-6.9c-0.5,0-1.1,0.5-1.1,1.1v0.1
		C858.4,91.9,858.8,92.3,859.3,92.3z"/>
	<path class="st2" d="M859.5,92.3h3.3v-2.3h-3.3c-0.7,0-1.1,0.5-1.1,1.1l0,0C858.4,91.9,858.8,92.3,859.5,92.3z"/>
</g>
<g>
	<path class="st2" d="M94,410.8h15.2V181.1H94c-1.7,0-2.9,1.3-2.9,2.7v224.3C90.9,409.6,92.3,410.8,94,410.8z"/>
	<path class="st3" d="M113.1,174.3l4.1-5.6c0.4-0.5,1.2-0.5,1.6,0l4.1,5.6l4.8,6.4c0.2,0.2,0.3,0.5,0.3,0.8v228.1
		c0,0.7-0.5,1.3-1.2,1.3h-19V181.4c0-0.3,0.1-0.6,0.3-0.8L113.1,174.3z"/>
	<g>
		<path class="st4" d="M121,199.3h1.2c1.1,0,1.9-0.8,1.9-1.9V191c0-1.1-0.8-1.9-1.9-1.9H121c-1.1,0-1.9,0.8-1.9,1.9v6.5
			C119.1,198.5,120,199.3,121,199.3z"/>
	</g>
	<g>
		<path class="st4" d="M112.1,199.3h1.2c1.1,0,1.9-0.8,1.9-1.9V191c0-1.1-0.8-1.9-1.9-1.9h-1.2c-1.1,0-1.9,0.8-1.9,1.9v6.5
			C110.3,198.5,111.2,199.3,112.1,199.3z"/>
	</g>
	<g>
		<path class="st4" d="M121,220.8h1.2c1.1,0,1.9-0.8,1.9-1.9v-6.5c0-1.1-0.8-1.9-1.9-1.9H121c-1.1,0-1.9,0.8-1.9,1.9v6.5
			C119.1,220,120,220.8,121,220.8z"/>
	</g>
	<g>
		<path class="st4" d="M112.1,220.8h1.2c1.1,0,1.9-0.8,1.9-1.9v-6.5c0-1.1-0.8-1.9-1.9-1.9h-1.2c-1.1,0-1.9,0.8-1.9,1.9v6.5
			C110.3,220,111.2,220.8,112.1,220.8z"/>
	</g>
	<g>
		<path class="st4" d="M121,241.8h1.2c1.1,0,1.9-0.8,1.9-1.9v-6.5c0-1.1-0.8-1.9-1.9-1.9H121c-1.1,0-1.9,0.8-1.9,1.9v6.5
			C119.1,241,120,241.8,121,241.8z"/>
	</g>
	<g>
		<path class="st4" d="M112.1,241.7h1.2c1.1,0,1.9-0.8,1.9-1.9v-6.4c0-1.1-0.8-1.9-1.9-1.9h-1.2c-1.1,0-1.9,0.8-1.9,1.9v6.5
			C110.3,240.9,111.2,241.7,112.1,241.7z"/>
	</g>
	<g>
		<path class="st4" d="M121,263.3h1.2c1.1,0,1.9-0.8,1.9-1.9V255c0-1.1-0.8-1.9-1.9-1.9H121c-1.1,0-1.9,0.8-1.9,1.9v6.5
			C119.1,262.5,120,263.3,121,263.3z"/>
	</g>
	<g>
		<path class="st4" d="M112.1,263.2h1.2c1.1,0,1.9-0.8,1.9-1.9v-6.5c0-1.1-0.8-1.9-1.9-1.9h-1.2c-1.1,0-1.9,0.8-1.9,1.9v6.5
			C110.3,262.4,111.2,263.2,112.1,263.2z"/>
	</g>
	<g>
		<path class="st4" d="M121,284.7h1.1c1.1,0,1.9-0.8,1.9-1.9v-6.1c0-1.1-0.8-1.9-1.9-1.9H121c-1.1,0-1.9,0.8-1.9,1.9v6.1
			C119.1,283.8,120,284.7,121,284.7z"/>
	</g>
	<g>
		<path class="st4" d="M112.1,284.9h1.2c1.1,0,1.9-0.8,1.9-1.9v-6.5c0-1.1-0.8-1.9-1.9-1.9h-1.2c-1.1,0-1.9,0.8-1.9,1.9v6.5
			C110.3,284,111.2,284.9,112.1,284.9z"/>
	</g>
	<g>
		<path class="st4" d="M121,306.7h1.1c1.1,0,1.9-0.8,1.9-1.9v-6.1c0-1.1-0.8-1.9-1.9-1.9H121c-1.1,0-1.9,0.8-1.9,1.9v6.1
			C119.1,306,120,306.7,121,306.7z"/>
	</g>
	<g>
		<path class="st4" d="M112.1,306.9h1.2c1.1,0,1.9-0.8,1.9-1.9v-6.5c0-1.1-0.8-1.9-1.9-1.9h-1.2c-1.1,0-1.9,0.8-1.9,1.9v6.5
			C110.3,306.1,111.2,306.9,112.1,306.9z"/>
	</g>
	<g>
		<path class="st4" d="M121,329.2h1.2c1.1,0,1.9-0.8,1.9-1.9v-6.5c0-1.1-0.8-1.9-1.9-1.9H121c-1.1,0-1.9,0.8-1.9,1.9v6.5
			C119.1,328.3,120,329.2,121,329.2z"/>
	</g>
	<g>
		<path class="st4" d="M112.1,328.9h1.1c1.1,0,1.9-0.8,1.9-1.9v-6.1c0-1.1-0.8-1.9-1.9-1.9h-1.1c-1.1,0-1.9,0.8-1.9,1.9v6.1
			C110.3,328,111.2,328.9,112.1,328.9z"/>
	</g>
	<g>
		<path class="st4" d="M121,351.2h1.2c1.1,0,1.9-0.8,1.9-1.9v-6.5c0-1.1-0.8-1.9-1.9-1.9H121c-1.1,0-1.9,0.8-1.9,1.9v6.5
			C119.1,350.4,120,351.2,121,351.2z"/>
	</g>
	<g>
		<path class="st4" d="M112.1,350.9h1.1c1.1,0,1.9-0.8,1.9-1.9v-6.1c0-1.1-0.8-1.9-1.9-1.9h-1.1c-1.1,0-1.9,0.8-1.9,1.9v6.1
			C110.3,350.1,111.2,350.9,112.1,350.9z"/>
	</g>
	<g>
		<path class="st4" d="M121,372.4h1.2c1.1,0,1.9-0.8,1.9-1.9v-6.5c0-1.1-0.8-1.9-1.9-1.9H121c-1.1,0-1.9,0.8-1.9,1.9v6.5
			C119.1,371.6,120,372.4,121,372.4z"/>
	</g>
	<g>
		<path class="st4" d="M112.1,372.7h1.1c1.1,0,1.9-0.8,1.9-1.9V364c0-1.1-0.8-1.9-1.9-1.9h-1.1c-1.1,0-1.9,0.8-1.9,1.9v6.8
			C110.3,371.8,111.2,372.7,112.1,372.7z"/>
	</g>
	<g>
		<path class="st4" d="M121,394h1.2c1.1,0,1.9-0.8,1.9-1.9v-6.5c0-1.1-0.8-1.9-1.9-1.9H121c-1.1,0-1.9,0.8-1.9,1.9v6.5
			C119.1,393.1,120,394,121,394z"/>
	</g>
	<g>
		<path class="st4" d="M112.1,393.9h1.2c1.1,0,1.9-0.8,1.9-1.9v-6.5c0-1.1-0.8-1.9-1.9-1.9h-1.2c-1.1,0-1.9,0.8-1.9,1.9v6.5
			C110.3,393,111.2,393.9,112.1,393.9z"/>
	</g>
	<g>
		<path class="st4" d="M103.4,199.3h1.2c1.1,0,1.9-0.8,1.9-1.9V191c0-1.1-0.8-1.9-1.9-1.9h-1.2c-1.1,0-1.9,0.8-1.9,1.9v6.5
			C101.6,198.5,102.5,199.3,103.4,199.3z"/>
	</g>
	<g>
		<path class="st4" d="M94.6,199.3h1.2c1.1,0,1.9-0.8,1.9-1.9V191c0-1.1-0.8-1.9-1.9-1.9h-1.2c-1.1,0-1.9,0.8-1.9,1.9v6.5
			C92.8,198.5,93.7,199.3,94.6,199.3z"/>
	</g>
	<g>
		<path class="st4" d="M103.4,220.8h1.2c1.1,0,1.9-0.8,1.9-1.9v-6.5c0-1.1-0.8-1.9-1.9-1.9h-1.2c-1.1,0-1.9,0.8-1.9,1.9v6.5
			C101.6,220,102.5,220.8,103.4,220.8z"/>
	</g>
	<g>
		<path class="st4" d="M94.6,220.8h1.2c1.1,0,1.9-0.8,1.9-1.9v-6.5c0-1.1-0.8-1.9-1.9-1.9h-1.2c-1.1,0-1.9,0.8-1.9,1.9v6.5
			C92.8,220,93.7,220.8,94.6,220.8z"/>
	</g>
	<g>
		<path class="st4" d="M103.4,241.8h1.2c1.1,0,1.9-0.8,1.9-1.9v-6.5c0-1.1-0.8-1.9-1.9-1.9h-1.2c-1.1,0-1.9,0.8-1.9,1.9v6.5
			C101.6,241,102.5,241.8,103.4,241.8z"/>
	</g>
	<g>
		<path class="st4" d="M94.6,241.7h1.2c1.1,0,1.9-0.8,1.9-1.9v-6.4c0-1.1-0.8-1.9-1.9-1.9h-1.2c-1.1,0-1.9,0.8-1.9,1.9v6.5
			C92.8,240.9,93.7,241.7,94.6,241.7z"/>
	</g>
	<g>
		<path class="st4" d="M103.4,263.3h1.2c1.1,0,1.9-0.8,1.9-1.9V255c0-1.1-0.8-1.9-1.9-1.9h-1.2c-1.1,0-1.9,0.8-1.9,1.9v6.5
			C101.6,262.5,102.5,263.3,103.4,263.3z"/>
	</g>
	<g>
		<path class="st4" d="M94.6,263.2h1.2c1.1,0,1.9-0.8,1.9-1.9v-6.5c0-1.1-0.8-1.9-1.9-1.9h-1.2c-1.1,0-1.9,0.8-1.9,1.9v6.5
			C92.8,262.4,93.7,263.2,94.6,263.2z"/>
	</g>
	<g>
		<path class="st4" d="M103.4,284.7h1.1c1.1,0,1.9-0.8,1.9-1.9v-6.1c0-1.1-0.8-1.9-1.9-1.9h-1.1c-1.1,0-1.9,0.8-1.9,1.9v6.1
			C101.6,283.8,102.5,284.7,103.4,284.7z"/>
	</g>
	<g>
		<path class="st4" d="M94.6,284.9h1.2c1.1,0,1.9-0.8,1.9-1.9v-6.5c0-1.1-0.8-1.9-1.9-1.9h-1.2c-1.1,0-1.9,0.8-1.9,1.9v6.5
			C92.8,284,93.7,284.9,94.6,284.9z"/>
	</g>
	<g>
		<path class="st4" d="M103.4,306.7h1.1c1.1,0,1.9-0.8,1.9-1.9v-6.1c0-1.1-0.8-1.9-1.9-1.9h-1.1c-1.1,0-1.9,0.8-1.9,1.9v6.1
			C101.6,306,102.5,306.7,103.4,306.7z"/>
	</g>
	<g>
		<path class="st4" d="M94.6,306.9h1.2c1.1,0,1.9-0.8,1.9-1.9v-6.5c0-1.1-0.8-1.9-1.9-1.9h-1.2c-1.1,0-1.9,0.8-1.9,1.9v6.5
			C92.8,306.1,93.7,306.9,94.6,306.9z"/>
	</g>
	<g>
		<path class="st4" d="M103.4,329.2h1.2c1.1,0,1.9-0.8,1.9-1.9v-6.5c0-1.1-0.8-1.9-1.9-1.9h-1.2c-1.1,0-1.9,0.8-1.9,1.9v6.5
			C101.6,328.3,102.5,329.2,103.4,329.2z"/>
	</g>
	<g>
		<path class="st4" d="M94.6,328.9h1.1c1.1,0,1.9-0.8,1.9-1.9v-6.1c0-1.1-0.8-1.9-1.9-1.9h-1.1c-1.1,0-1.9,0.8-1.9,1.9v6.1
			C92.8,328,93.7,328.9,94.6,328.9z"/>
	</g>
	<g>
		<path class="st4" d="M103.4,351.2h1.2c1.1,0,1.9-0.8,1.9-1.9v-6.5c0-1.1-0.8-1.9-1.9-1.9h-1.2c-1.1,0-1.9,0.8-1.9,1.9v6.5
			C101.6,350.4,102.5,351.2,103.4,351.2z"/>
	</g>
	<g>
		<path class="st4" d="M94.6,350.9h1.1c1.1,0,1.9-0.8,1.9-1.9v-6.1c0-1.1-0.8-1.9-1.9-1.9h-1.1c-1.1,0-1.9,0.8-1.9,1.9v6.1
			C92.8,350.1,93.7,350.9,94.6,350.9z"/>
	</g>
	<g>
		<path class="st4" d="M103.4,372.4h1.2c1.1,0,1.9-0.8,1.9-1.9v-6.5c0-1.1-0.8-1.9-1.9-1.9h-1.2c-1.1,0-1.9,0.8-1.9,1.9v6.5
			C101.6,371.6,102.5,372.4,103.4,372.4z"/>
	</g>
	<g>
		<path class="st4" d="M94.6,372.7h1.1c1.1,0,1.9-0.8,1.9-1.9V364c0-1.1-0.8-1.9-1.9-1.9h-1.1c-1.1,0-1.9,0.8-1.9,1.9v6.8
			C92.8,371.8,93.7,372.7,94.6,372.7z"/>
	</g>
	<g>
		<path class="st4" d="M103.4,394h1.2c1.1,0,1.9-0.8,1.9-1.9v-6.5c0-1.1-0.8-1.9-1.9-1.9h-1.2c-1.1,0-1.9,0.8-1.9,1.9v6.5
			C101.6,393.1,102.5,394,103.4,394z"/>
	</g>
	<g>
		<path class="st4" d="M94.6,393.9h1.2c1.1,0,1.9-0.8,1.9-1.9v-6.5c0-1.1-0.8-1.9-1.9-1.9h-1.2c-1.1,0-1.9,0.8-1.9,1.9v6.5
			C92.8,393,93.7,393.9,94.6,393.9z"/>
	</g>
	<path class="st5" d="M92.7,183.3h14.2c0.4,0,1-0.2,1.3-0.6l10.2-12.3c0.8-1.1,0.1-2.8-1.3-2.8h-14.2c-0.4,0-1,0.2-1.3,0.6
		l-10.2,12.3C90.6,181.6,91.4,183.3,92.7,183.3z"/>
	<path class="st3" d="M104.7,172.6h3.1c0.6,0,1.1-0.5,1.1-1.1v-5.9h-5.2v5.8C103.7,172.1,104.1,172.6,104.7,172.6z"/>
	<path class="st2" d="M104.7,172.6h1.5v-7h-2.5v5.8C103.7,172.1,104.1,172.6,104.7,172.6z"/>
	<path class="st3" d="M103.4,165.6h5.5c0.4,0,0.8-0.4,0.8-0.8v-0.1c0-0.4-0.4-0.8-0.8-0.8h-5.5c-0.4,0-0.8,0.4-0.8,0.8v0.1
		C102.7,165.3,103,165.6,103.4,165.6z"/>
	<path class="st2" d="M103.5,165.6h2.7v-1.8h-2.7c-0.5,0-0.8,0.4-0.8,0.8l0,0C102.7,165.3,103,165.6,103.5,165.6z"/>
</g>
<g>
	<path class="st2" d="M125.4,410.8h16.7V158h-16.7c-1.9,0-3.2,1.4-3.2,3v246.7C122,409.4,123.5,410.8,125.4,410.8z"/>
	<path class="st3" d="M146.4,150.5l4.5-6.2c0.5-0.6,1.3-0.6,1.7,0l4.5,6.2l5.2,7c0.2,0.2,0.3,0.6,0.3,0.9v250.9
		c0,0.8-0.6,1.4-1.3,1.4h-20.9V158.3c0-0.3,0.1-0.7,0.3-0.9L146.4,150.5z"/>
	<g>
		<path class="st4" d="M155.2,178.1h1.3c1.2,0,2.1-0.9,2.1-2.1v-7c0-1.2-0.9-2.1-2.1-2.1h-1.3c-1.2,0-2.1,0.9-2.1,2.1v7.1
			C153.1,177.1,154,178.1,155.2,178.1z"/>
	</g>
	<g>
		<path class="st4" d="M145.4,178.1h1.3c1.2,0,2.1-0.9,2.1-2.1v-7c0-1.2-0.9-2.1-2.1-2.1h-1.3c-1.2,0-2.1,0.9-2.1,2.1v7.1
			C143.4,177.1,144.3,178.1,145.4,178.1z"/>
	</g>
	<g>
		<path class="st4" d="M155.2,201.7h1.3c1.2,0,2.1-0.9,2.1-2.1v-7.1c0-1.2-0.9-2.1-2.1-2.1h-1.3c-1.2,0-2.1,0.9-2.1,2.1v7.1
			C153.1,200.8,154,201.7,155.2,201.7z"/>
	</g>
	<g>
		<path class="st4" d="M145.4,201.7h1.3c1.2,0,2.1-0.9,2.1-2.1v-7.1c0-1.2-0.9-2.1-2.1-2.1h-1.3c-1.2,0-2.1,0.9-2.1,2.1v7.1
			C143.4,200.8,144.3,201.7,145.4,201.7z"/>
	</g>
	<g>
		<path class="st4" d="M155.2,224.8h1.3c1.2,0,2.1-0.9,2.1-2.1v-7.1c0-1.2-0.9-2.1-2.1-2.1h-1.3c-1.2,0-2.1,0.9-2.1,2.1v7.1
			C153.1,223.9,154,224.8,155.2,224.8z"/>
	</g>
	<g>
		<path class="st4" d="M145.4,224.7h1.3c1.2,0,2.1-0.9,2.1-2.1v-7c0-1.2-0.9-2.1-2.1-2.1h-1.3c-1.2,0-2.1,0.9-2.1,2.1v7.1
			C143.4,223.8,144.3,224.7,145.4,224.7z"/>
	</g>
	<g>
		<path class="st4" d="M155.2,248.5h1.3c1.2,0,2.1-0.9,2.1-2.1v-7.1c0-1.2-0.9-2.1-2.1-2.1h-1.3c-1.2,0-2.1,0.9-2.1,2.1v7.1
			C153.1,247.6,154,248.5,155.2,248.5z"/>
	</g>
	<g>
		<path class="st4" d="M145.4,248.4h1.3c1.2,0,2.1-0.9,2.1-2.1v-7.1c0-1.2-0.9-2.1-2.1-2.1h-1.3c-1.2,0-2.1,0.9-2.1,2.1v7.1
			C143.4,247.5,144.3,248.4,145.4,248.4z"/>
	</g>
	<g>
		<path class="st4" d="M155.2,272h1.2c1.2,0,2.1-0.9,2.1-2.1v-6.8c0-1.2-0.9-2.1-2.1-2.1h-1.2c-1.2,0-2.1,0.9-2.1,2.1v6.8
			C153.1,271,154,272,155.2,272z"/>
	</g>
	<g>
		<path class="st4" d="M145.4,272.2h1.3c1.2,0,2.1-0.9,2.1-2.1V263c0-1.2-0.9-2.1-2.1-2.1h-1.3c-1.2,0-2.1,0.9-2.1,2.1v7.1
			C143.4,271.3,144.3,272.2,145.4,272.2z"/>
	</g>
	<g>
		<path class="st4" d="M155.2,296.2h1.2c1.2,0,2.1-0.9,2.1-2.1v-6.8c0-1.2-0.9-2.1-2.1-2.1h-1.2c-1.2,0-2.1,0.9-2.1,2.1v6.8
			C153.1,295.4,154,296.2,155.2,296.2z"/>
	</g>
	<g>
		<path class="st4" d="M145.4,296.5h1.3c1.2,0,2.1-0.9,2.1-2.1v-7.1c0-1.2-0.9-2.1-2.1-2.1h-1.3c-1.2,0-2.1,0.9-2.1,2.1v7.1
			C143.4,295.5,144.3,296.5,145.4,296.5z"/>
	</g>
	<g>
		<path class="st4" d="M155.2,321h1.3c1.2,0,2.1-0.9,2.1-2.1v-7.1c0-1.2-0.9-2.1-2.1-2.1h-1.3c-1.2,0-2.1,0.9-2.1,2.1v7.1
			C153.1,320,154,321,155.2,321z"/>
	</g>
	<g>
		<path class="st4" d="M145.4,320.6h1.2c1.2,0,2.1-0.9,2.1-2.1v-6.8c0-1.2-0.9-2.1-2.1-2.1h-1.2c-1.2,0-2.1,0.9-2.1,2.1v6.8
			C143.4,319.7,144.3,320.6,145.4,320.6z"/>
	</g>
	<g>
		<path class="st4" d="M155.2,345.2h1.3c1.2,0,2.1-0.9,2.1-2.1V336c0-1.2-0.9-2.1-2.1-2.1h-1.3c-1.2,0-2.1,0.9-2.1,2.1v7.1
			C153.1,344.3,154,345.2,155.2,345.2z"/>
	</g>
	<g>
		<path class="st4" d="M145.4,344.9h1.2c1.2,0,2.1-0.9,2.1-2.1V336c0-1.2-0.9-2.1-2.1-2.1h-1.2c-1.2,0-2.1,0.9-2.1,2.1v6.8
			C143.4,343.9,144.3,344.9,145.4,344.9z"/>
	</g>
	<g>
		<path class="st4" d="M155.2,368.6h1.3c1.2,0,2.1-0.9,2.1-2.1v-7.1c0-1.2-0.9-2.1-2.1-2.1h-1.3c-1.2,0-2.1,0.9-2.1,2.1v7.1
			C153.1,367.6,154,368.6,155.2,368.6z"/>
	</g>
	<g>
		<path class="st4" d="M145.4,368.8h1.2c1.2,0,2.1-0.9,2.1-2.1v-7.5c0-1.2-0.9-2.1-2.1-2.1h-1.2c-1.2,0-2.1,0.9-2.1,2.1v7.5
			C143.4,367.9,144.3,368.8,145.4,368.8z"/>
	</g>
	<g>
		<path class="st4" d="M155.2,392.2h1.3c1.2,0,2.1-0.9,2.1-2.1V383c0-1.2-0.9-2.1-2.1-2.1h-1.3c-1.2,0-2.1,0.9-2.1,2.1v7.1
			C153.1,391.3,154,392.2,155.2,392.2z"/>
	</g>
	<g>
		<path class="st4" d="M145.4,392.1h1.3c1.2,0,2.1-0.9,2.1-2.1v-7.1c0-1.2-0.9-2.1-2.1-2.1h-1.3c-1.2,0-2.1,0.9-2.1,2.1v7.1
			C143.4,391.2,144.3,392.1,145.4,392.1z"/>
	</g>
	<g>
		<path class="st4" d="M135.8,178.1h1.3c1.2,0,2.1-0.9,2.1-2.1v-7c0-1.2-0.9-2.1-2.1-2.1h-1.3c-1.2,0-2.1,0.9-2.1,2.1v7.1
			C133.8,177.1,134.8,178.1,135.8,178.1z"/>
	</g>
	<g>
		<path class="st4" d="M126.1,178.1h1.3c1.2,0,2.1-0.9,2.1-2.1v-7c0-1.2-0.9-2.1-2.1-2.1h-1.3c-1.2,0-2.1,0.9-2.1,2.1v7.1
			C124.1,177.1,125.1,178.1,126.1,178.1z"/>
	</g>
	<g>
		<path class="st4" d="M135.8,201.7h1.3c1.2,0,2.1-0.9,2.1-2.1v-7.1c0-1.2-0.9-2.1-2.1-2.1h-1.3c-1.2,0-2.1,0.9-2.1,2.1v7.1
			C133.8,200.8,134.8,201.7,135.8,201.7z"/>
	</g>
	<g>
		<path class="st4" d="M126.1,201.7h1.3c1.2,0,2.1-0.9,2.1-2.1v-7.1c0-1.2-0.9-2.1-2.1-2.1h-1.3c-1.2,0-2.1,0.9-2.1,2.1v7.1
			C124.1,200.8,125.1,201.7,126.1,201.7z"/>
	</g>
	<g>
		<path class="st4" d="M135.8,224.8h1.3c1.2,0,2.1-0.9,2.1-2.1v-7.1c0-1.2-0.9-2.1-2.1-2.1h-1.3c-1.2,0-2.1,0.9-2.1,2.1v7.1
			C133.8,223.9,134.8,224.8,135.8,224.8z"/>
	</g>
	<g>
		<path class="st4" d="M126.1,224.7h1.3c1.2,0,2.1-0.9,2.1-2.1v-7c0-1.2-0.9-2.1-2.1-2.1h-1.3c-1.2,0-2.1,0.9-2.1,2.1v7.1
			C124.1,223.8,125.1,224.7,126.1,224.7z"/>
	</g>
	<g>
		<path class="st4" d="M135.8,248.5h1.3c1.2,0,2.1-0.9,2.1-2.1v-7.1c0-1.2-0.9-2.1-2.1-2.1h-1.3c-1.2,0-2.1,0.9-2.1,2.1v7.1
			C133.8,247.6,134.8,248.5,135.8,248.5z"/>
	</g>
	<g>
		<path class="st4" d="M126.1,248.4h1.3c1.2,0,2.1-0.9,2.1-2.1v-7.1c0-1.2-0.9-2.1-2.1-2.1h-1.3c-1.2,0-2.1,0.9-2.1,2.1v7.1
			C124.1,247.5,125.1,248.4,126.1,248.4z"/>
	</g>
	<g>
		<path class="st4" d="M135.8,272h1.2c1.2,0,2.1-0.9,2.1-2.1v-6.8c0-1.2-0.9-2.1-2.1-2.1h-1.2c-1.2,0-2.1,0.9-2.1,2.1v6.8
			C133.8,271,134.8,272,135.8,272z"/>
	</g>
	<g>
		<path class="st4" d="M126.1,272.2h1.3c1.2,0,2.1-0.9,2.1-2.1V263c0-1.2-0.9-2.1-2.1-2.1h-1.3c-1.2,0-2.1,0.9-2.1,2.1v7.1
			C124.1,271.3,125.1,272.2,126.1,272.2z"/>
	</g>
	<g>
		<path class="st4" d="M135.8,296.2h1.2c1.2,0,2.1-0.9,2.1-2.1v-6.8c0-1.2-0.9-2.1-2.1-2.1h-1.2c-1.2,0-2.1,0.9-2.1,2.1v6.8
			C133.8,295.4,134.8,296.2,135.8,296.2z"/>
	</g>
	<g>
		<path class="st4" d="M126.1,296.5h1.3c1.2,0,2.1-0.9,2.1-2.1v-7.1c0-1.2-0.9-2.1-2.1-2.1h-1.3c-1.2,0-2.1,0.9-2.1,2.1v7.1
			C124.1,295.5,125.1,296.5,126.1,296.5z"/>
	</g>
	<g>
		<path class="st4" d="M135.8,321h1.3c1.2,0,2.1-0.9,2.1-2.1v-7.1c0-1.2-0.9-2.1-2.1-2.1h-1.3c-1.2,0-2.1,0.9-2.1,2.1v7.1
			C133.8,320,134.8,321,135.8,321z"/>
	</g>
	<g>
		<path class="st4" d="M126.1,320.6h1.2c1.2,0,2.1-0.9,2.1-2.1v-6.8c0-1.2-0.9-2.1-2.1-2.1h-1.2c-1.2,0-2.1,0.9-2.1,2.1v6.8
			C124.1,319.7,125.1,320.6,126.1,320.6z"/>
	</g>
	<g>
		<path class="st4" d="M135.8,345.2h1.3c1.2,0,2.1-0.9,2.1-2.1V336c0-1.2-0.9-2.1-2.1-2.1h-1.3c-1.2,0-2.1,0.9-2.1,2.1v7.1
			C133.8,344.3,134.8,345.2,135.8,345.2z"/>
	</g>
	<g>
		<path class="st4" d="M126.1,344.9h1.2c1.2,0,2.1-0.9,2.1-2.1V336c0-1.2-0.9-2.1-2.1-2.1h-1.2c-1.2,0-2.1,0.9-2.1,2.1v6.8
			C124.1,343.9,125.1,344.9,126.1,344.9z"/>
	</g>
	<g>
		<path class="st4" d="M135.8,368.6h1.3c1.2,0,2.1-0.9,2.1-2.1v-7.1c0-1.2-0.9-2.1-2.1-2.1h-1.3c-1.2,0-2.1,0.9-2.1,2.1v7.1
			C133.8,367.6,134.8,368.6,135.8,368.6z"/>
	</g>
	<g>
		<path class="st4" d="M126.1,368.8h1.2c1.2,0,2.1-0.9,2.1-2.1v-7.5c0-1.2-0.9-2.1-2.1-2.1h-1.2c-1.2,0-2.1,0.9-2.1,2.1v7.5
			C124.1,367.9,125.1,368.8,126.1,368.8z"/>
	</g>
	<g>
		<path class="st4" d="M135.8,392.2h1.3c1.2,0,2.1-0.9,2.1-2.1V383c0-1.2-0.9-2.1-2.1-2.1h-1.3c-1.2,0-2.1,0.9-2.1,2.1v7.1
			C133.8,391.3,134.8,392.2,135.8,392.2z"/>
	</g>
	<g>
		<path class="st4" d="M126.1,392.1h1.3c1.2,0,2.1-0.9,2.1-2.1v-7.1c0-1.2-0.9-2.1-2.1-2.1h-1.3c-1.2,0-2.1,0.9-2.1,2.1v7.1
			C124.1,391.2,125.1,392.1,126.1,392.1z"/>
	</g>
	<path class="st5" d="M124,160.4h15.6c0.5,0,1-0.2,1.4-0.7l11.2-13.5c0.9-1.2,0.1-3-1.4-3h-15.6c-0.5,0-1,0.2-1.4,0.7l-11.2,13.5
		C121.7,158.6,122.5,160.4,124,160.4z"/>
	<path class="st3" d="M137.2,148.7h3.4c0.7,0,1.2-0.6,1.2-1.2V141H136v6.4C136,148.1,136.5,148.7,137.2,148.7z"/>
	<path class="st2" d="M137.2,148.7h1.6V141H136v6.4C136,148.1,136.5,148.7,137.2,148.7z"/>
	<path class="st3" d="M135.8,141h6.1c0.5,0,0.9-0.5,0.9-0.9v-0.1c0-0.5-0.5-0.9-0.9-0.9h-6.1c-0.5,0-0.9,0.5-0.9,0.9v0.1
		C135,140.6,135.3,141,135.8,141z"/>
	<path class="st2" d="M135.9,141h2.9v-2h-2.9c-0.6,0-0.9,0.5-0.9,0.9l0,0C135,140.6,135.3,141,135.9,141z"/>
</g>
<g>
	<path class="st2" d="M223.3,410.6H240V157.8h-16.7c-1.9,0-3.2,1.4-3.2,3v246.7C220,409.2,221.5,410.6,223.3,410.6z"/>
	<path class="st3" d="M244.4,150.3l4.5-6.2c0.5-0.6,1.3-0.6,1.7,0l4.5,6.2l5.2,7c0.2,0.2,0.3,0.6,0.3,0.9v250.9
		c0,0.8-0.6,1.4-1.3,1.4h-20.9V158.2c0-0.3,0.1-0.7,0.3-0.9L244.4,150.3z"/>
	<g>
		<path class="st4" d="M253.1,177.9h1.3c1.2,0,2.1-0.9,2.1-2.1v-7c0-1.2-0.9-2.1-2.1-2.1h-1.3c-1.2,0-2.1,0.9-2.1,2.1v7.1
			C251,176.9,251.9,177.9,253.1,177.9z"/>
	</g>
	<g>
		<path class="st4" d="M243.3,177.9h1.3c1.2,0,2.1-0.9,2.1-2.1v-7c0-1.2-0.9-2.1-2.1-2.1h-1.3c-1.2,0-2.1,0.9-2.1,2.1v7.1
			C241.3,176.9,242.3,177.9,243.3,177.9z"/>
	</g>
	<g>
		<path class="st4" d="M253.1,201.6h1.3c1.2,0,2.1-0.9,2.1-2.1v-7.1c0-1.2-0.9-2.1-2.1-2.1h-1.3c-1.2,0-2.1,0.9-2.1,2.1v7.1
			C251,200.6,251.9,201.6,253.1,201.6z"/>
	</g>
	<g>
		<path class="st4" d="M243.3,201.6h1.3c1.2,0,2.1-0.9,2.1-2.1v-7.1c0-1.2-0.9-2.1-2.1-2.1h-1.3c-1.2,0-2.1,0.9-2.1,2.1v7.1
			C241.3,200.6,242.3,201.6,243.3,201.6z"/>
	</g>
	<g>
		<path class="st4" d="M253.1,224.6h1.3c1.2,0,2.1-0.9,2.1-2.1v-7.1c0-1.2-0.9-2.1-2.1-2.1h-1.3c-1.2,0-2.1,0.9-2.1,2.1v7.1
			C251,223.7,251.9,224.6,253.1,224.6z"/>
	</g>
	<g>
		<path class="st4" d="M243.3,224.5h1.3c1.2,0,2.1-0.9,2.1-2.1v-7c0-1.2-0.9-2.1-2.1-2.1h-1.3c-1.2,0-2.1,0.9-2.1,2.1v7.1
			C241.3,223.6,242.3,224.5,243.3,224.5z"/>
	</g>
	<g>
		<path class="st4" d="M253.1,248.3h1.3c1.2,0,2.1-0.9,2.1-2.1v-7.1c0-1.2-0.9-2.1-2.1-2.1h-1.3c-1.2,0-2.1,0.9-2.1,2.1v7.1
			C251,247.4,251.9,248.3,253.1,248.3z"/>
	</g>
	<g>
		<path class="st4" d="M243.3,248.2h1.3c1.2,0,2.1-0.9,2.1-2.1V239c0-1.2-0.9-2.1-2.1-2.1h-1.3c-1.2,0-2.1,0.9-2.1,2.1v7.1
			C241.3,247.3,242.3,248.2,243.3,248.2z"/>
	</g>
	<g>
		<path class="st4" d="M253.1,271.8h1.2c1.2,0,2.1-0.9,2.1-2.1v-6.8c0-1.2-0.9-2.1-2.1-2.1h-1.2c-1.2,0-2.1,0.9-2.1,2.1v6.8
			C251,270.8,251.9,271.8,253.1,271.8z"/>
	</g>
	<g>
		<path class="st4" d="M243.3,272h1.3c1.2,0,2.1-0.9,2.1-2.1v-7.1c0-1.2-0.9-2.1-2.1-2.1h-1.3c-1.2,0-2.1,0.9-2.1,2.1v7.1
			C241.3,271.1,242.3,272,243.3,272z"/>
	</g>
	<g>
		<path class="st4" d="M253.1,296h1.2c1.2,0,2.1-0.9,2.1-2.1v-6.8c0-1.2-0.9-2.1-2.1-2.1h-1.2c-1.2,0-2.1,0.9-2.1,2.1v6.8
			C251,295.2,251.9,296,253.1,296z"/>
	</g>
	<g>
		<path class="st4" d="M243.3,296.3h1.3c1.2,0,2.1-0.9,2.1-2.1v-7.1c0-1.2-0.9-2.1-2.1-2.1h-1.3c-1.2,0-2.1,0.9-2.1,2.1v7.1
			C241.3,295.3,242.3,296.3,243.3,296.3z"/>
	</g>
	<g>
		<path class="st4" d="M253.1,320.8h1.3c1.2,0,2.1-0.9,2.1-2.1v-7.1c0-1.2-0.9-2.1-2.1-2.1h-1.3c-1.2,0-2.1,0.9-2.1,2.1v7.1
			C251,319.8,251.9,320.8,253.1,320.8z"/>
	</g>
	<g>
		<path class="st4" d="M243.3,320.4h1.2c1.2,0,2.1-0.9,2.1-2.1v-6.8c0-1.2-0.9-2.1-2.1-2.1h-1.2c-1.2,0-2.1,0.9-2.1,2.1v6.8
			C241.3,319.5,242.3,320.4,243.3,320.4z"/>
	</g>
	<g>
		<path class="st4" d="M253.1,345h1.3c1.2,0,2.1-0.9,2.1-2.1v-7.1c0-1.2-0.9-2.1-2.1-2.1h-1.3c-1.2,0-2.1,0.9-2.1,2.1v7.1
			C251,344.1,251.9,345,253.1,345z"/>
	</g>
	<g>
		<path class="st4" d="M243.3,344.7h1.2c1.2,0,2.1-0.9,2.1-2.1v-6.8c0-1.2-0.9-2.1-2.1-2.1h-1.2c-1.2,0-2.1,0.9-2.1,2.1v6.8
			C241.3,343.8,242.3,344.7,243.3,344.7z"/>
	</g>
	<g>
		<path class="st4" d="M253.1,368.4h1.3c1.2,0,2.1-0.9,2.1-2.1v-7.1c0-1.2-0.9-2.1-2.1-2.1h-1.3c-1.2,0-2.1,0.9-2.1,2.1v7.1
			C251,367.4,251.9,368.4,253.1,368.4z"/>
	</g>
	<g>
		<path class="st4" d="M243.3,368.6h1.2c1.2,0,2.1-0.9,2.1-2.1V359c0-1.2-0.9-2.1-2.1-2.1h-1.2c-1.2,0-2.1,0.9-2.1,2.1v7.5
			C241.3,367.7,242.3,368.6,243.3,368.6z"/>
	</g>
	<g>
		<path class="st4" d="M253.1,392h1.3c1.2,0,2.1-0.9,2.1-2.1v-7.1c0-1.2-0.9-2.1-2.1-2.1h-1.3c-1.2,0-2.1,0.9-2.1,2.1v7.1
			C251,391.1,251.9,392,253.1,392z"/>
	</g>
	<g>
		<path class="st4" d="M243.3,391.9h1.3c1.2,0,2.1-0.9,2.1-2.1v-7.1c0-1.2-0.9-2.1-2.1-2.1h-1.3c-1.2,0-2.1,0.9-2.1,2.1v7.1
			C241.3,391,242.3,391.9,243.3,391.9z"/>
	</g>
	<g>
		<path class="st4" d="M233.7,177.9h1.3c1.2,0,2.1-0.9,2.1-2.1v-7c0-1.2-0.9-2.1-2.1-2.1h-1.3c-1.2,0-2.1,0.9-2.1,2.1v7.1
			C231.8,176.9,232.7,177.9,233.7,177.9z"/>
	</g>
	<g>
		<path class="st4" d="M224.1,177.9h1.3c1.2,0,2.1-0.9,2.1-2.1v-7c0-1.2-0.9-2.1-2.1-2.1h-1.3c-1.2,0-2.1,0.9-2.1,2.1v7.1
			C222.1,176.9,223,177.9,224.1,177.9z"/>
	</g>
	<g>
		<path class="st4" d="M233.7,201.6h1.3c1.2,0,2.1-0.9,2.1-2.1v-7.1c0-1.2-0.9-2.1-2.1-2.1h-1.3c-1.2,0-2.1,0.9-2.1,2.1v7.1
			C231.8,200.6,232.7,201.6,233.7,201.6z"/>
	</g>
	<g>
		<path class="st4" d="M224.1,201.6h1.3c1.2,0,2.1-0.9,2.1-2.1v-7.1c0-1.2-0.9-2.1-2.1-2.1h-1.3c-1.2,0-2.1,0.9-2.1,2.1v7.1
			C222.1,200.6,223,201.6,224.1,201.6z"/>
	</g>
	<g>
		<path class="st4" d="M233.7,224.6h1.3c1.2,0,2.1-0.9,2.1-2.1v-7.1c0-1.2-0.9-2.1-2.1-2.1h-1.3c-1.2,0-2.1,0.9-2.1,2.1v7.1
			C231.8,223.7,232.7,224.6,233.7,224.6z"/>
	</g>
	<g>
		<path class="st4" d="M224.1,224.5h1.3c1.2,0,2.1-0.9,2.1-2.1v-7c0-1.2-0.9-2.1-2.1-2.1h-1.3c-1.2,0-2.1,0.9-2.1,2.1v7.1
			C222.1,223.6,223,224.5,224.1,224.5z"/>
	</g>
	<g>
		<path class="st4" d="M233.7,248.3h1.3c1.2,0,2.1-0.9,2.1-2.1v-7.1c0-1.2-0.9-2.1-2.1-2.1h-1.3c-1.2,0-2.1,0.9-2.1,2.1v7.1
			C231.8,247.4,232.7,248.3,233.7,248.3z"/>
	</g>
	<g>
		<path class="st4" d="M224.1,248.2h1.3c1.2,0,2.1-0.9,2.1-2.1V239c0-1.2-0.9-2.1-2.1-2.1h-1.3c-1.2,0-2.1,0.9-2.1,2.1v7.1
			C222.1,247.3,223,248.2,224.1,248.2z"/>
	</g>
	<g>
		<path class="st4" d="M233.7,271.8h1.2c1.2,0,2.1-0.9,2.1-2.1v-6.8c0-1.2-0.9-2.1-2.1-2.1h-1.2c-1.2,0-2.1,0.9-2.1,2.1v6.8
			C231.8,270.8,232.7,271.8,233.7,271.8z"/>
	</g>
	<g>
		<path class="st4" d="M224.1,272h1.3c1.2,0,2.1-0.9,2.1-2.1v-7.1c0-1.2-0.9-2.1-2.1-2.1h-1.3c-1.2,0-2.1,0.9-2.1,2.1v7.1
			C222.1,271.1,223,272,224.1,272z"/>
	</g>
	<g>
		<path class="st4" d="M233.7,296h1.2c1.2,0,2.1-0.9,2.1-2.1v-6.8c0-1.2-0.9-2.1-2.1-2.1h-1.2c-1.2,0-2.1,0.9-2.1,2.1v6.8
			C231.8,295.2,232.7,296,233.7,296z"/>
	</g>
	<g>
		<path class="st4" d="M224.1,296.3h1.3c1.2,0,2.1-0.9,2.1-2.1v-7.1c0-1.2-0.9-2.1-2.1-2.1h-1.3c-1.2,0-2.1,0.9-2.1,2.1v7.1
			C222.1,295.3,223,296.3,224.1,296.3z"/>
	</g>
	<g>
		<path class="st4" d="M233.7,320.8h1.3c1.2,0,2.1-0.9,2.1-2.1v-7.1c0-1.2-0.9-2.1-2.1-2.1h-1.3c-1.2,0-2.1,0.9-2.1,2.1v7.1
			C231.8,319.8,232.7,320.8,233.7,320.8z"/>
	</g>
	<g>
		<path class="st4" d="M224.1,320.4h1.2c1.2,0,2.1-0.9,2.1-2.1v-6.8c0-1.2-0.9-2.1-2.1-2.1h-1.2c-1.2,0-2.1,0.9-2.1,2.1v6.8
			C222.1,319.5,223,320.4,224.1,320.4z"/>
	</g>
	<g>
		<path class="st4" d="M233.7,345h1.3c1.2,0,2.1-0.9,2.1-2.1v-7.1c0-1.2-0.9-2.1-2.1-2.1h-1.3c-1.2,0-2.1,0.9-2.1,2.1v7.1
			C231.8,344.1,232.7,345,233.7,345z"/>
	</g>
	<g>
		<path class="st4" d="M224.1,344.7h1.2c1.2,0,2.1-0.9,2.1-2.1v-6.8c0-1.2-0.9-2.1-2.1-2.1h-1.2c-1.2,0-2.1,0.9-2.1,2.1v6.8
			C222.1,343.8,223,344.7,224.1,344.7z"/>
	</g>
	<g>
		<path class="st4" d="M233.7,368.4h1.3c1.2,0,2.1-0.9,2.1-2.1v-7.1c0-1.2-0.9-2.1-2.1-2.1h-1.3c-1.2,0-2.1,0.9-2.1,2.1v7.1
			C231.8,367.4,232.7,368.4,233.7,368.4z"/>
	</g>
	<g>
		<path class="st4" d="M224.1,368.6h1.2c1.2,0,2.1-0.9,2.1-2.1V359c0-1.2-0.9-2.1-2.1-2.1h-1.2c-1.2,0-2.1,0.9-2.1,2.1v7.5
			C222.1,367.7,223,368.6,224.1,368.6z"/>
	</g>
	<g>
		<path class="st4" d="M233.7,392h1.3c1.2,0,2.1-0.9,2.1-2.1v-7.1c0-1.2-0.9-2.1-2.1-2.1h-1.3c-1.2,0-2.1,0.9-2.1,2.1v7.1
			C231.8,391.1,232.7,392,233.7,392z"/>
	</g>
	<g>
		<path class="st4" d="M224.1,391.9h1.3c1.2,0,2.1-0.9,2.1-2.1v-7.1c0-1.2-0.9-2.1-2.1-2.1h-1.3c-1.2,0-2.1,0.9-2.1,2.1v7.1
			C222.1,391,223,391.9,224.1,391.9z"/>
	</g>
	<path class="st5" d="M222,160.3h15.6c0.5,0,1-0.2,1.4-0.7l11.2-13.5c0.9-1.2,0.1-3-1.4-3h-15.6c-0.5,0-1,0.2-1.4,0.7l-11.2,13.5
		C219.6,158.4,220.4,160.3,222,160.3z"/>
	<path class="st3" d="M235.1,148.5h3.4c0.7,0,1.2-0.6,1.2-1.2v-6.5H234v6.4C234,147.9,234.4,148.5,235.1,148.5z"/>
	<path class="st2" d="M235.1,148.5h1.6v-7.7H234v6.4C234,147.9,234.4,148.5,235.1,148.5z"/>
	<path class="st3" d="M233.7,140.8h6.1c0.5,0,0.9-0.5,0.9-0.9v-0.1c0-0.5-0.5-0.9-0.9-0.9h-6.1c-0.5,0-0.9,0.5-0.9,0.9v0.1
		C232.9,140.4,233.3,140.8,233.7,140.8z"/>
	<path class="st2" d="M233.9,140.8h2.9v-2h-2.9c-0.6,0-0.9,0.5-0.9,0.9l0,0C232.9,140.4,233.3,140.8,233.9,140.8z"/>
</g>
</svg>
