<?xml version="1.0" encoding="utf-8"?>
<!-- Generator: Adobe Illustrator 19.1.0, SVG Export Plug-In . SVG Version: 6.00 Build 0)  -->
<svg version="1.1" id="Layer_1" xmlns="http://www.w3.org/2000/svg" xmlns:xlink="http://www.w3.org/1999/xlink" x="0px" y="0px"
	 viewBox="90 59.8 820.8 363.2" style="enable-background:new 90 59.8 820.8 363.2;" xml:space="preserve">
<style type="text/css">
	.st0{display:none;}
	.st1{display:inline;fill:#31AA9B;}
	.st2{fill:#1B7989;}
	.st3{fill:#17717A;}
	.st4{fill:#1B7F84;}
	.st5{fill:#74B7AD;}
	.st6{fill:#84D3C9;}
	.st7{fill:#5B463B;}
	.st8{fill:#D89261;}
</style>
<g id="Layer_2" class="st0">
	<rect x="180" y="-161.8" class="st1" width="1024" height="768"/>
</g>
<g id="Layer_3">
</g>
<g id="roads">
</g>
<g id="houses_front">
</g>
<g id="trees">
</g>
<g id="globen">
	<path class="st2" d="M641.5,404.5c5.4,0,9.7-4.5,9.4-9.8c-5.7-106.4-93-189.2-199.8-189.2s-194.2,82.8-199.9,189.2
		c-0.3,5.4,4,9.8,9.4,9.8H641.5z"/>
</g>
<g>
	<rect x="157.4" y="122.4" class="st3" width="20.8" height="265"/>
	<path class="st4" d="M148.6,389.8V121.6c0-1,0.8-1.8,1.8-1.8H171v271.8h-20.6C149.5,391.5,148.6,390.8,148.6,389.8z"/>
	<path class="st3" d="M171.6,119.4c-0.2,0.3-0.4,0.6-0.4,1v271.3h25.1c0.8,0,1.5-0.7,1.5-1.5V120.2c0-0.3-0.1-0.7-0.4-1l-6.2-7.5
		l-5.5-6.6c-0.6-0.7-1.6-0.8-2.2-0.1l-5.5,6.7L171.6,119.4z"/>
	<g>
		<path class="st5" d="M185.8,139.9v-9.5c0-0.7,0.6-1.2,1.3-1.2h3.9c0.7,0,1.3,0.5,1.3,1.2v9.5c0,0.7-0.6,1.2-1.3,1.2h-3.9
			C186.4,141.2,185.8,140.6,185.8,139.9z"/>
	</g>
	<g>
		<path class="st5" d="M174.2,139.9v-9.5c0-0.7,0.6-1.2,1.3-1.2h3.9c0.7,0,1.3,0.5,1.3,1.2v9.5c0,0.7-0.6,1.2-1.3,1.2h-3.9
			C174.8,141.2,174.2,140.6,174.2,139.9z"/>
	</g>
	<g>
		<path class="st5" d="M185.8,165.4v-9.5c0-0.7,0.6-1.2,1.3-1.2h3.9c0.7,0,1.3,0.5,1.3,1.2v9.5c0,0.7-0.6,1.2-1.3,1.2h-3.9
			C186.4,166.6,185.8,166.1,185.8,165.4z"/>
	</g>
	<g>
		<path class="st5" d="M174.2,165.4v-9.5c0-0.7,0.6-1.2,1.3-1.2h3.9c0.7,0,1.3,0.5,1.3,1.2v9.5c0,0.7-0.6,1.2-1.3,1.2h-3.9
			C174.8,166.6,174.2,166.1,174.2,165.4z"/>
	</g>
	<g>
		<path class="st5" d="M185.8,190.1v-9.5c0-0.7,0.6-1.2,1.3-1.2h3.9c0.7,0,1.3,0.5,1.3,1.2v9.5c0,0.7-0.6,1.2-1.3,1.2h-3.9
			C186.4,191.4,185.8,190.8,185.8,190.1z"/>
	</g>
	<g>
		<path class="st5" d="M174.2,190.1v-9.5c0-0.7,0.6-1.2,1.3-1.2h3.9c0.7,0,1.3,0.5,1.3,1.2v9.5c0,0.7-0.6,1.2-1.3,1.2h-3.9
			C174.8,191.2,174.2,190.8,174.2,190.1z"/>
	</g>
	<g>
		<path class="st5" d="M185.8,215.4v-9.5c0-0.7,0.6-1.2,1.3-1.2h3.9c0.7,0,1.3,0.5,1.3,1.2v9.5c0,0.7-0.6,1.2-1.3,1.2h-3.9
			C186.4,216.6,185.8,216.1,185.8,215.4z"/>
	</g>
	<g>
		<path class="st5" d="M174.2,215.4v-9.5c0-0.7,0.6-1.2,1.3-1.2h3.9c0.7,0,1.3,0.5,1.3,1.2v9.5c0,0.7-0.6,1.2-1.3,1.2h-3.9
			C174.8,216.6,174.2,216.1,174.2,215.4z"/>
	</g>
	<g>
		<path class="st5" d="M185.8,240.6v-9.3c0-0.7,0.6-1.2,1.3-1.2h3.9c0.7,0,1.3,0.5,1.3,1.2v9.3c0,0.7-0.6,1.2-1.3,1.2h-3.9
			C186.4,241.9,185.8,241.4,185.8,240.6z"/>
	</g>
	<g>
		<path class="st5" d="M174.2,240.9v-9.5c0-0.7,0.6-1.2,1.3-1.2h3.9c0.7,0,1.3,0.5,1.3,1.2v9.5c0,0.7-0.6,1.2-1.3,1.2h-3.9
			C174.8,242,174.2,241.5,174.2,240.9z"/>
	</g>
	<g>
		<path class="st5" d="M185.8,266.6v-9.3c0-0.7,0.6-1.2,1.3-1.2h3.9c0.7,0,1.3,0.5,1.3,1.2v9.3c0,0.7-0.6,1.2-1.3,1.2h-3.9
			C186.4,267.9,185.8,267.4,185.8,266.6z"/>
	</g>
	<g>
		<path class="st5" d="M174.2,267v-9.5c0-0.7,0.6-1.2,1.3-1.2h3.9c0.7,0,1.3,0.5,1.3,1.2v9.5c0,0.7-0.6,1.2-1.3,1.2h-3.9
			C174.8,268.1,174.2,267.5,174.2,267z"/>
	</g>
	<g>
		<path class="st5" d="M185.8,293v-9.5c0-0.7,0.6-1.2,1.3-1.2h3.9c0.7,0,1.3,0.5,1.3,1.2v9.5c0,0.7-0.6,1.2-1.3,1.2h-3.9
			C186.4,294.2,185.8,293.8,185.8,293z"/>
	</g>
	<g>
		<path class="st5" d="M174.2,292.8v-9.3c0-0.7,0.6-1.2,1.3-1.2h3.9c0.7,0,1.3,0.5,1.3,1.2v9.3c0,0.7-0.6,1.2-1.3,1.2h-3.9
			C174.8,294,174.2,293.5,174.2,292.8z"/>
	</g>
	<g>
		<path class="st5" d="M185.8,319.1v-9.5c0-0.7,0.6-1.2,1.3-1.2h3.9c0.7,0,1.3,0.5,1.3,1.2v9.5c0,0.7-0.6,1.2-1.3,1.2h-3.9
			C186.4,320.4,185.8,319.9,185.8,319.1z"/>
	</g>
	<g>
		<path class="st5" d="M174.2,318.8v-9.3c0-0.7,0.6-1.2,1.3-1.2h3.9c0.7,0,1.3,0.5,1.3,1.2v9.3c0,0.7-0.6,1.2-1.3,1.2h-3.9
			C174.8,320,174.2,319.5,174.2,318.8z"/>
	</g>
	<g>
		<path class="st5" d="M185.8,344v-9.6c0-0.7,0.6-1.2,1.3-1.2h3.9c0.7,0,1.3,0.5,1.3,1.2v9.5c0,0.7-0.6,1.2-1.3,1.2h-3.9
			C186.4,345.2,185.8,344.6,185.8,344z"/>
	</g>
	<g>
		<path class="st5" d="M174.2,344.4v-10c0-0.7,0.6-1.2,1.3-1.2h3.9c0.7,0,1.3,0.5,1.3,1.2v10c0,0.7-0.6,1.2-1.3,1.2h-3.9
			C174.8,345.5,174.2,345,174.2,344.4z"/>
	</g>
	<g>
		<path class="st5" d="M185.8,369.4v-9.5c0-0.7,0.6-1.2,1.3-1.2h3.9c0.7,0,1.3,0.5,1.3,1.2v9.5c0,0.7-0.6,1.2-1.3,1.2h-3.9
			C186.4,370.6,185.8,370,185.8,369.4z"/>
	</g>
	<g>
		<path class="st5" d="M174.2,369.4v-9.6c0-0.7,0.6-1.2,1.3-1.2h3.9c0.7,0,1.3,0.5,1.3,1.2v9.5c0,0.7-0.6,1.2-1.3,1.2h-3.9
			C174.8,370.5,174.2,370,174.2,369.4z"/>
	</g>
	<g>
		<path class="st6" d="M162.7,139.9v-9.5c0-0.7,0.6-1.2,1.3-1.2h3.9c0.7,0,1.3,0.5,1.3,1.2v9.5c0,0.7-0.6,1.2-1.3,1.2H164
			C163.3,141.2,162.7,140.6,162.7,139.9z"/>
	</g>
	<g>
		<path class="st6" d="M151.1,139.9v-9.5c0-0.7,0.6-1.2,1.3-1.2h3.9c0.7,0,1.3,0.5,1.3,1.2v9.5c0,0.7-0.6,1.2-1.3,1.2h-3.9
			C151.7,141.2,151.1,140.6,151.1,139.9z"/>
	</g>
	<g>
		<path class="st6" d="M162.7,165.4v-9.5c0-0.7,0.6-1.2,1.3-1.2h3.9c0.7,0,1.3,0.5,1.3,1.2v9.5c0,0.7-0.6,1.2-1.3,1.2H164
			C163.3,166.6,162.7,166.1,162.7,165.4z"/>
	</g>
	<g>
		<path class="st6" d="M151.1,165.4v-9.5c0-0.7,0.6-1.2,1.3-1.2h3.9c0.7,0,1.3,0.5,1.3,1.2v9.5c0,0.7-0.6,1.2-1.3,1.2h-3.9
			C151.7,166.6,151.1,166.1,151.1,165.4z"/>
	</g>
	<g>
		<path class="st6" d="M162.7,190.1v-9.5c0-0.7,0.6-1.2,1.3-1.2h3.9c0.7,0,1.3,0.5,1.3,1.2v9.5c0,0.7-0.6,1.2-1.3,1.2H164
			C163.3,191.4,162.7,190.8,162.7,190.1z"/>
	</g>
	<g>
		<path class="st6" d="M151.1,190.1v-9.5c0-0.7,0.6-1.2,1.3-1.2h3.9c0.7,0,1.3,0.5,1.3,1.2v9.5c0,0.7-0.6,1.2-1.3,1.2h-3.9
			C151.7,191.2,151.1,190.8,151.1,190.1z"/>
	</g>
	<g>
		<path class="st6" d="M162.7,215.4v-9.5c0-0.7,0.6-1.2,1.3-1.2h3.9c0.7,0,1.3,0.5,1.3,1.2v9.5c0,0.7-0.6,1.2-1.3,1.2H164
			C163.3,216.6,162.7,216.1,162.7,215.4z"/>
	</g>
	<g>
		<path class="st6" d="M151.1,215.4v-9.5c0-0.7,0.6-1.2,1.3-1.2h3.9c0.7,0,1.3,0.5,1.3,1.2v9.5c0,0.7-0.6,1.2-1.3,1.2h-3.9
			C151.7,216.6,151.1,216.1,151.1,215.4z"/>
	</g>
	<g>
		<path class="st6" d="M162.7,240.6v-9.3c0-0.7,0.6-1.2,1.3-1.2h3.9c0.7,0,1.3,0.5,1.3,1.2v9.3c0,0.7-0.6,1.2-1.3,1.2H164
			C163.3,241.9,162.7,241.4,162.7,240.6z"/>
	</g>
	<g>
		<path class="st6" d="M151.1,240.9v-9.5c0-0.7,0.6-1.2,1.3-1.2h3.9c0.7,0,1.3,0.5,1.3,1.2v9.5c0,0.7-0.6,1.2-1.3,1.2h-3.9
			C151.7,242,151.1,241.5,151.1,240.9z"/>
	</g>
	<g>
		<path class="st6" d="M162.7,266.6v-9.3c0-0.7,0.6-1.2,1.3-1.2h3.9c0.7,0,1.3,0.5,1.3,1.2v9.3c0,0.7-0.6,1.2-1.3,1.2H164
			C163.3,267.9,162.7,267.4,162.7,266.6z"/>
	</g>
	<g>
		<path class="st6" d="M151.1,267v-9.5c0-0.7,0.6-1.2,1.3-1.2h3.9c0.7,0,1.3,0.5,1.3,1.2v9.5c0,0.7-0.6,1.2-1.3,1.2h-3.9
			C151.7,268.1,151.1,267.5,151.1,267z"/>
	</g>
	<g>
		<path class="st6" d="M162.7,293v-9.5c0-0.7,0.6-1.2,1.3-1.2h3.9c0.7,0,1.3,0.5,1.3,1.2v9.5c0,0.7-0.6,1.2-1.3,1.2H164
			C163.3,294.2,162.7,293.8,162.7,293z"/>
	</g>
	<g>
		<path class="st6" d="M151.1,292.8v-9.3c0-0.7,0.6-1.2,1.3-1.2h3.9c0.7,0,1.3,0.5,1.3,1.2v9.3c0,0.7-0.6,1.2-1.3,1.2h-3.9
			C151.7,294,151.1,293.5,151.1,292.8z"/>
	</g>
	<g>
		<path class="st6" d="M162.7,319.1v-9.5c0-0.7,0.6-1.2,1.3-1.2h3.9c0.7,0,1.3,0.5,1.3,1.2v9.5c0,0.7-0.6,1.2-1.3,1.2H164
			C163.3,320.4,162.7,319.9,162.7,319.1z"/>
	</g>
	<g>
		<path class="st6" d="M151.1,318.8v-9.3c0-0.7,0.6-1.2,1.3-1.2h3.9c0.7,0,1.3,0.5,1.3,1.2v9.3c0,0.7-0.6,1.2-1.3,1.2h-3.9
			C151.7,320,151.1,319.5,151.1,318.8z"/>
	</g>
	<g>
		<path class="st6" d="M162.7,344v-9.6c0-0.7,0.6-1.2,1.3-1.2h3.9c0.7,0,1.3,0.5,1.3,1.2v9.5c0,0.7-0.6,1.2-1.3,1.2H164
			C163.3,345.2,162.7,344.6,162.7,344z"/>
	</g>
	<g>
		<path class="st6" d="M151.1,344.4v-10c0-0.7,0.6-1.2,1.3-1.2h3.9c0.7,0,1.3,0.5,1.3,1.2v10c0,0.7-0.6,1.2-1.3,1.2h-3.9
			C151.7,345.5,151.1,345,151.1,344.4z"/>
	</g>
	<g>
		<path class="st6" d="M162.7,369.4v-9.5c0-0.7,0.6-1.2,1.3-1.2h3.9c0.7,0,1.3,0.5,1.3,1.2v9.5c0,0.7-0.6,1.2-1.3,1.2H164
			C163.3,370.6,162.7,370,162.7,369.4z"/>
	</g>
	<g>
		<path class="st6" d="M151.1,369.4v-9.6c0-0.7,0.6-1.2,1.3-1.2h3.9c0.7,0,1.3,0.5,1.3,1.2v9.5c0,0.7-0.6,1.2-1.3,1.2h-3.9
			C151.7,370.5,151.1,370,151.1,369.4z"/>
	</g>
	<path class="st7" d="M149.4,119.1l13.5-14.4c0.4-0.4,1-0.7,1.6-0.7h18.8c1.8,0,2.8,2,1.6,3.2l-13.5,14.4c-0.4,0.4-1,0.7-1.6,0.7
		h-18.7C149.3,122.4,148.3,120.4,149.4,119.1z"/>
	<g>
		<path class="st4" d="M172,108.8h-5.5c-0.4,0-0.7-0.3-0.7-0.7v-7.4h6.9v7.5C172.7,108.4,172.5,108.8,172,108.8z"/>
		<path class="st3" d="M172,108.8h-2.7v-8.1h3.4v7.4C172.7,108.4,172.5,108.8,172,108.8z"/>
		<path class="st4" d="M173.4,100.6h-8.3c-0.3,0-0.6-0.3-0.6-0.5v-1c0-0.3,0.3-0.5,0.6-0.5h8.3c0.3,0,0.6,0.3,0.6,0.5v1
			C174,100.3,173.8,100.6,173.4,100.6z"/>
		<path class="st3" d="M173.4,100.6h-4.1v-2.1h4.1c0.4,0,0.6,0.3,0.6,0.5v1C174,100.3,173.8,100.6,173.4,100.6z"/>
	</g>
	<rect x="108.8" y="124.4" class="st3" width="20.8" height="265.7"/>
	<path class="st4" d="M97.2,388.8V132.4c0-0.9,0.7-1.7,1.7-1.7h19.7v259.9H98.9C98,390.5,97.2,389.8,97.2,388.8z"/>
	<path class="st3" d="M119.1,130.2c-0.2,0.3-0.3,0.6-0.3,0.9v259.4h24c0.8,0,1.5-0.7,1.5-1.4v-258c0-0.3-0.1-0.7-0.3-0.9l-6-7.2
		l-5.3-6.3c-0.5-0.7-1.5-0.7-2.1-0.1l-5.3,6.4L119.1,130.2z"/>
	<g>
		<path class="st5" d="M132.8,150.1v-9.1c0-0.7,0.5-1.2,1.2-1.2h3.8c0.7,0,1.2,0.5,1.2,1.2v9.1c0,0.7-0.5,1.2-1.2,1.2H134
			C133.3,151.2,132.8,150.6,132.8,150.1z"/>
	</g>
	<g>
		<path class="st5" d="M121.7,150.1v-9.1c0-0.7,0.5-1.2,1.2-1.2h3.8c0.7,0,1.2,0.5,1.2,1.2v9.1c0,0.7-0.5,1.2-1.2,1.2h-3.8
			C122.2,151.2,121.7,150.6,121.7,150.1z"/>
	</g>
	<g>
		<path class="st5" d="M132.8,174.4v-9.1c0-0.7,0.5-1.2,1.2-1.2h3.8c0.7,0,1.2,0.5,1.2,1.2v9.1c0,0.7-0.5,1.2-1.2,1.2H134
			C133.3,175.4,132.8,174.9,132.8,174.4z"/>
	</g>
	<g>
		<path class="st5" d="M121.7,174.4v-9.1c0-0.7,0.5-1.2,1.2-1.2h3.8c0.7,0,1.2,0.5,1.2,1.2v9.1c0,0.7-0.5,1.2-1.2,1.2h-3.8
			C122.2,175.4,121.7,174.9,121.7,174.4z"/>
	</g>
	<g>
		<path class="st5" d="M132.8,197.9v-9.1c0-0.7,0.5-1.2,1.2-1.2h3.8c0.7,0,1.2,0.5,1.2,1.2v9.1c0,0.7-0.5,1.2-1.2,1.2H134
			C133.3,199.1,132.8,198.6,132.8,197.9z"/>
	</g>
	<g>
		<path class="st5" d="M121.7,197.9v-9.1c0-0.7,0.5-1.2,1.2-1.2h3.8c0.7,0,1.2,0.5,1.2,1.2v9.1c0,0.7-0.5,1.2-1.2,1.2h-3.8
			C122.2,199.1,121.7,198.6,121.7,197.9z"/>
	</g>
	<g>
		<path class="st5" d="M132.8,222.1V213c0-0.7,0.5-1.2,1.2-1.2h3.8c0.7,0,1.2,0.5,1.2,1.2v9.1c0,0.7-0.5,1.2-1.2,1.2H134
			C133.3,223.4,132.8,222.9,132.8,222.1z"/>
	</g>
	<g>
		<path class="st5" d="M121.7,222.1v-9.1c0-0.7,0.5-1.2,1.2-1.2h3.8c0.7,0,1.2,0.5,1.2,1.2v9.1c0,0.7-0.5,1.2-1.2,1.2h-3.8
			C122.2,223.2,121.7,222.8,121.7,222.1z"/>
	</g>
	<g>
		<path class="st5" d="M132.8,246.2v-8.9c0-0.7,0.5-1.2,1.2-1.2h3.7c0.7,0,1.2,0.5,1.2,1.2v8.9c0,0.7-0.5,1.2-1.2,1.2H134
			C133.3,247.5,132.8,246.9,132.8,246.2z"/>
	</g>
	<g>
		<path class="st5" d="M121.7,246.5v-9.1c0-0.7,0.5-1.2,1.2-1.2h3.8c0.7,0,1.2,0.5,1.2,1.2v9.1c0,0.7-0.5,1.2-1.2,1.2h-3.8
			C122.2,247.6,121.7,247.1,121.7,246.5z"/>
	</g>
	<g>
		<path class="st5" d="M132.8,271.1v-8.9c0-0.7,0.5-1.2,1.2-1.2h3.7c0.7,0,1.2,0.5,1.2,1.2v8.9c0,0.7-0.5,1.2-1.2,1.2H134
			C133.3,272.2,132.8,271.8,132.8,271.1z"/>
	</g>
	<g>
		<path class="st5" d="M121.7,271.4v-9.1c0-0.7,0.5-1.2,1.2-1.2h3.8c0.7,0,1.2,0.5,1.2,1.2v9.1c0,0.7-0.5,1.2-1.2,1.2h-3.8
			C122.2,272.5,121.7,272,121.7,271.4z"/>
	</g>
	<g>
		<path class="st5" d="M132.8,296.4v-9.1c0-0.7,0.5-1.2,1.2-1.2h3.8c0.7,0,1.2,0.5,1.2,1.2v9.1c0,0.7-0.5,1.2-1.2,1.2H134
			C133.3,297.5,132.8,297,132.8,296.4z"/>
	</g>
	<g>
		<path class="st5" d="M121.7,296v-8.9c0-0.7,0.5-1.2,1.2-1.2h3.7c0.7,0,1.2,0.5,1.2,1.2v8.9c0,0.7-0.5,1.2-1.2,1.2h-3.7
			C122.2,297.2,121.7,296.8,121.7,296z"/>
	</g>
	<g>
		<path class="st5" d="M132.8,321.4v-9.1c0-0.7,0.5-1.2,1.2-1.2h3.8c0.7,0,1.2,0.5,1.2,1.2v9.1c0,0.7-0.5,1.2-1.2,1.2H134
			C133.3,322.5,132.8,322,132.8,321.4z"/>
	</g>
	<g>
		<path class="st5" d="M121.7,321v-8.9c0-0.7,0.5-1.2,1.2-1.2h3.7c0.7,0,1.2,0.5,1.2,1.2v8.9c0,0.7-0.5,1.2-1.2,1.2h-3.7
			C122.2,322.1,121.7,321.5,121.7,321z"/>
	</g>
	<g>
		<path class="st5" d="M132.8,345.1v-9.2c0-0.7,0.5-1.2,1.2-1.2h3.8c0.7,0,1.2,0.5,1.2,1.2v9.1c0,0.7-0.5,1.2-1.2,1.2H134
			C133.3,346.2,132.8,345.8,132.8,345.1z"/>
	</g>
	<g>
		<path class="st5" d="M121.7,345.5V336c0-0.7,0.5-1.2,1.2-1.2h3.7c0.7,0,1.2,0.5,1.2,1.2v9.5c0,0.7-0.5,1.2-1.2,1.2h-3.7
			C122.2,346.5,121.7,346,121.7,345.5z"/>
	</g>
	<g>
		<path class="st5" d="M132.8,369.4v-9.1c0-0.7,0.5-1.2,1.2-1.2h3.8c0.7,0,1.2,0.5,1.2,1.2v9.1c0,0.7-0.5,1.2-1.2,1.2H134
			C133.3,370.5,132.8,370,132.8,369.4z"/>
	</g>
	<g>
		<path class="st5" d="M121.7,369.2v-9.1c0-0.7,0.5-1.2,1.2-1.2h3.8c0.7,0,1.2,0.5,1.2,1.2v9.1c0,0.7-0.5,1.2-1.2,1.2h-3.8
			C122.2,370.5,121.7,370,121.7,369.2z"/>
	</g>
	<g>
		<path class="st6" d="M110.7,150.1v-9.1c0-0.7,0.5-1.2,1.2-1.2h3.8c0.7,0,1.2,0.5,1.2,1.2v9.1c0,0.7-0.5,1.2-1.2,1.2h-3.8
			C111.2,151.2,110.7,150.6,110.7,150.1z"/>
	</g>
	<g>
		<path class="st6" d="M99.5,150.1v-9.1c0-0.7,0.5-1.2,1.2-1.2h3.8c0.7,0,1.2,0.5,1.2,1.2v9.1c0,0.7-0.5,1.2-1.2,1.2h-3.8
			C100.1,151.2,99.5,150.6,99.5,150.1z"/>
	</g>
	<g>
		<path class="st6" d="M110.7,174.4v-9.1c0-0.7,0.5-1.2,1.2-1.2h3.8c0.7,0,1.2,0.5,1.2,1.2v9.1c0,0.7-0.5,1.2-1.2,1.2h-3.8
			C111.2,175.4,110.7,174.9,110.7,174.4z"/>
	</g>
	<g>
		<path class="st6" d="M99.5,174.4v-9.1c0-0.7,0.5-1.2,1.2-1.2h3.8c0.7,0,1.2,0.5,1.2,1.2v9.1c0,0.7-0.5,1.2-1.2,1.2h-3.8
			C100.1,175.4,99.5,174.9,99.5,174.4z"/>
	</g>
	<g>
		<path class="st6" d="M110.7,197.9v-9.1c0-0.7,0.5-1.2,1.2-1.2h3.8c0.7,0,1.2,0.5,1.2,1.2v9.1c0,0.7-0.5,1.2-1.2,1.2h-3.8
			C111.2,199.1,110.7,198.6,110.7,197.9z"/>
	</g>
	<g>
		<path class="st6" d="M99.5,197.9v-9.1c0-0.7,0.5-1.2,1.2-1.2h3.8c0.7,0,1.2,0.5,1.2,1.2v9.1c0,0.7-0.5,1.2-1.2,1.2h-3.8
			C100.1,199.1,99.5,198.6,99.5,197.9z"/>
	</g>
	<g>
		<path class="st6" d="M110.7,222.1V213c0-0.7,0.5-1.2,1.2-1.2h3.8c0.7,0,1.2,0.5,1.2,1.2v9.1c0,0.7-0.5,1.2-1.2,1.2h-3.8
			C111.2,223.4,110.7,222.9,110.7,222.1z"/>
	</g>
	<g>
		<path class="st6" d="M99.5,222.1v-9.1c0-0.7,0.5-1.2,1.2-1.2h3.8c0.7,0,1.2,0.5,1.2,1.2v9.1c0,0.7-0.5,1.2-1.2,1.2h-3.8
			C100.1,223.2,99.5,222.8,99.5,222.1z"/>
	</g>
	<g>
		<path class="st6" d="M110.7,246.2v-8.9c0-0.7,0.5-1.2,1.2-1.2h3.7c0.7,0,1.2,0.5,1.2,1.2v8.9c0,0.7-0.5,1.2-1.2,1.2h-3.7
			C111.2,247.5,110.7,246.9,110.7,246.2z"/>
	</g>
	<g>
		<path class="st6" d="M99.5,246.5v-9.1c0-0.7,0.5-1.2,1.2-1.2h3.8c0.7,0,1.2,0.5,1.2,1.2v9.1c0,0.7-0.5,1.2-1.2,1.2h-3.8
			C100.1,247.6,99.5,247.1,99.5,246.5z"/>
	</g>
	<g>
		<path class="st6" d="M110.7,271.1v-8.9c0-0.7,0.5-1.2,1.2-1.2h3.7c0.7,0,1.2,0.5,1.2,1.2v8.9c0,0.7-0.5,1.2-1.2,1.2h-3.7
			C111.2,272.2,110.7,271.8,110.7,271.1z"/>
	</g>
	<g>
		<path class="st6" d="M99.5,271.4v-9.1c0-0.7,0.5-1.2,1.2-1.2h3.8c0.7,0,1.2,0.5,1.2,1.2v9.1c0,0.7-0.5,1.2-1.2,1.2h-3.8
			C100.1,272.5,99.5,272,99.5,271.4z"/>
	</g>
	<g>
		<path class="st6" d="M110.7,296.4v-9.1c0-0.7,0.5-1.2,1.2-1.2h3.8c0.7,0,1.2,0.5,1.2,1.2v9.1c0,0.7-0.5,1.2-1.2,1.2h-3.8
			C111.2,297.5,110.7,297,110.7,296.4z"/>
	</g>
	<g>
		<path class="st6" d="M99.5,296v-8.9c0-0.7,0.5-1.2,1.2-1.2h3.7c0.7,0,1.2,0.5,1.2,1.2v8.9c0,0.7-0.5,1.2-1.2,1.2h-3.7
			C100.1,297.2,99.5,296.8,99.5,296z"/>
	</g>
	<g>
		<path class="st6" d="M110.7,321.4v-9.1c0-0.7,0.5-1.2,1.2-1.2h3.8c0.7,0,1.2,0.5,1.2,1.2v9.1c0,0.7-0.5,1.2-1.2,1.2h-3.8
			C111.2,322.5,110.7,322,110.7,321.4z"/>
	</g>
	<g>
		<path class="st6" d="M99.5,321v-8.9c0-0.7,0.5-1.2,1.2-1.2h3.7c0.7,0,1.2,0.5,1.2,1.2v8.9c0,0.7-0.5,1.2-1.2,1.2h-3.7
			C100.1,322.1,99.5,321.5,99.5,321z"/>
	</g>
	<g>
		<path class="st6" d="M110.7,345.1v-9.2c0-0.7,0.5-1.2,1.2-1.2h3.8c0.7,0,1.2,0.5,1.2,1.2v9.1c0,0.7-0.5,1.2-1.2,1.2h-3.8
			C111.2,346.2,110.7,345.8,110.7,345.1z"/>
	</g>
	<g>
		<path class="st6" d="M99.5,345.5V336c0-0.7,0.5-1.2,1.2-1.2h3.7c0.7,0,1.2,0.5,1.2,1.2v9.5c0,0.7-0.5,1.2-1.2,1.2h-3.7
			C100.1,346.5,99.5,346,99.5,345.5z"/>
	</g>
	<g>
		<path class="st6" d="M110.7,369.4v-9.1c0-0.7,0.5-1.2,1.2-1.2h3.8c0.7,0,1.2,0.5,1.2,1.2v9.1c0,0.7-0.5,1.2-1.2,1.2h-3.8
			C111.2,370.5,110.7,370,110.7,369.4z"/>
	</g>
	<g>
		<path class="st6" d="M99.5,369.2v-9.1c0-0.7,0.5-1.2,1.2-1.2h3.8c0.7,0,1.2,0.5,1.2,1.2v9.1c0,0.7-0.5,1.2-1.2,1.2h-3.8
			C100.1,370.5,99.5,370,99.5,369.2z"/>
	</g>
	<path class="st7" d="M97.9,130.1l12.9-13.8c0.4-0.4,0.9-0.7,1.5-0.7h18c1.7,0,2.7,1.9,1.5,3.1l-12.9,13.8c-0.4,0.4-0.9,0.7-1.5,0.7
		H99.5C97.8,133.1,96.9,131.4,97.9,130.1z"/>
	<g>
		<path class="st4" d="M119.6,120.1h-5.2c-0.4,0-0.7-0.3-0.7-0.7v-7.1h6.6v7.2C120.2,119.9,120,120.1,119.6,120.1z"/>
		<path class="st3" d="M119.6,120.1H117v-7.7h3.3v7.1C120.2,119.9,120,120.1,119.6,120.1z"/>
		<path class="st4" d="M120.9,112.4h-8c-0.3,0-0.5-0.3-0.5-0.5v-1c0-0.3,0.3-0.5,0.5-0.5h8c0.3,0,0.5,0.3,0.5,0.5v1
			C121.5,112.1,121.3,112.4,120.9,112.4z"/>
		<path class="st3" d="M120.9,112.4h-4v-2h4c0.3,0,0.5,0.3,0.5,0.5v0.9C121.5,112.1,121.3,112.4,120.9,112.4z"/>
	</g>
</g>
<g>
	<rect x="787.4" y="191.1" class="st3" width="16.5" height="210.2"/>
	<g>
		<path class="st4" d="M780.4,403.2V190.6c0-0.8,0.6-1.4,1.4-1.4h16.4v215.6h-16.3C781.1,404.8,780.4,404,780.4,403.2z"/>
		<path class="st3" d="M798.6,188.8c-0.2,0.2-0.3,0.5-0.3,0.8v215.2h19.9c0.7,0,1.2-0.5,1.2-1.2v-214c0-0.3-0.1-0.5-0.3-0.8l-5-6
			l-4.4-5.2c-0.4-0.5-1.3-0.6-1.7-0.1l-4.4,5.3L798.6,188.8z"/>
		<g>
			<path class="st5" d="M810,205.1v-7.6c0-0.5,0.4-1,1-1h3.1c0.6,0,1,0.4,1,1v7.6c0,0.5-0.4,1-1,1H811
				C810.4,206.1,810,205.8,810,205.1z"/>
		</g>
		<g>
			<path class="st5" d="M800.7,205.1v-7.6c0-0.5,0.4-1,1-1h3.1c0.6,0,1,0.4,1,1v7.6c0,0.5-0.4,1-1,1h-3.1
				C801.2,206.1,800.7,205.8,800.7,205.1z"/>
		</g>
		<g>
			<path class="st5" d="M810,225.4v-7.6c0-0.5,0.4-1,1-1h3.1c0.6,0,1,0.4,1,1v7.6c0,0.5-0.4,1-1,1H811
				C810.4,226.2,810,225.9,810,225.4z"/>
		</g>
		<g>
			<path class="st5" d="M800.7,225.4v-7.6c0-0.5,0.4-1,1-1h3.1c0.6,0,1,0.4,1,1v7.6c0,0.5-0.4,1-1,1h-3.1
				C801.2,226.2,800.7,225.9,800.7,225.4z"/>
		</g>
		<g>
			<path class="st5" d="M810,244.9v-7.6c0-0.5,0.4-1,1-1h3.1c0.6,0,1,0.4,1,1v7.6c0,0.5-0.4,1-1,1H811
				C810.4,245.9,810,245.4,810,244.9z"/>
		</g>
		<g>
			<path class="st5" d="M800.7,244.9v-7.6c0-0.5,0.4-1,1-1h3.1c0.6,0,1,0.4,1,1v7.6c0,0.5-0.4,1-1,1h-3.1
				C801.2,245.9,800.7,245.4,800.7,244.9z"/>
		</g>
		<g>
			<path class="st5" d="M810,265v-7.6c0-0.5,0.4-1,1-1h3.1c0.6,0,1,0.4,1,1v7.6c0,0.5-0.4,1-1,1H811C810.4,265.9,810,265.5,810,265z
				"/>
		</g>
		<g>
			<path class="st5" d="M800.7,264.9v-7.6c0-0.5,0.4-1,1-1h3.1c0.6,0,1,0.4,1,1v7.6c0,0.5-0.4,1-1,1h-3.1
				C801.2,265.9,800.7,265.4,800.7,264.9z"/>
		</g>
		<g>
			<path class="st5" d="M810,285v-7.4c0-0.5,0.4-1,1-1h3.1c0.6,0,1,0.4,1,1v7.4c0,0.5-0.4,1-1,1H811C810.4,286,810,285.5,810,285z"
				/>
		</g>
		<g>
			<path class="st5" d="M800.7,285.1v-7.6c0-0.5,0.4-1,1-1h3.1c0.6,0,1,0.4,1,1v7.6c0,0.5-0.4,1-1,1h-3.1
				C801.2,286.1,800.7,285.8,800.7,285.1z"/>
		</g>
		<g>
			<path class="st5" d="M810,305.6v-7.4c0-0.5,0.4-1,1-1h3.1c0.6,0,1,0.4,1,1v7.4c0,0.5-0.4,1-1,1H811
				C810.4,306.5,810,306.1,810,305.6z"/>
		</g>
		<g>
			<path class="st5" d="M800.7,305.9v-7.6c0-0.5,0.4-1,1-1h3.1c0.6,0,1,0.4,1,1v7.6c0,0.5-0.4,1-1,1h-3.1
				C801.2,306.9,800.7,306.4,800.7,305.9z"/>
		</g>
		<g>
			<path class="st5" d="M810,326.5v-7.6c0-0.5,0.4-1,1-1h3.1c0.6,0,1,0.4,1,1v7.6c0,0.5-0.4,1-1,1H811
				C810.4,327.5,810,327.1,810,326.5z"/>
		</g>
		<g>
			<path class="st5" d="M800.7,326.4V319c0-0.5,0.4-1,1-1h3.1c0.6,0,1,0.4,1,1v7.4c0,0.5-0.4,1-1,1h-3.1
				C801.2,327.2,800.7,326.9,800.7,326.4z"/>
		</g>
		<g>
			<path class="st5" d="M810,347.2v-7.5c0-0.5,0.4-1,1-1h3.1c0.6,0,1,0.4,1,1v7.6c0,0.5-0.4,1-1,1H811
				C810.4,348.2,810,347.9,810,347.2z"/>
		</g>
		<g>
			<path class="st5" d="M800.7,347v-7.4c0-0.5,0.4-1,1-1h3.1c0.6,0,1,0.4,1,1v7.4c0,0.5-0.4,1-1,1h-3.1
				C801.2,348,800.7,347.5,800.7,347z"/>
		</g>
		<g>
			<path class="st5" d="M810,367v-7.6c0-0.5,0.4-1,1-1h3.1c0.6,0,1,0.4,1,1v7.6c0,0.5-0.4,1-1,1H811C810.4,368,810,367.5,810,367z"
				/>
		</g>
		<g>
			<path class="st5" d="M800.7,367.2v-7.9c0-0.5,0.4-1,1-1h3.1c0.6,0,1,0.4,1,1v7.9c0,0.5-0.4,1-1,1h-3.1
				C801.2,368.2,800.7,367.8,800.7,367.2z"/>
		</g>
		<g>
			<path class="st5" d="M810,387.1v-7.6c0-0.5,0.4-1,1-1h3.1c0.6,0,1,0.4,1,1v7.6c0,0.5-0.4,1-1,1H811
				C810.4,388.1,810,387.6,810,387.1z"/>
		</g>
		<g>
			<path class="st5" d="M800.7,387v-7.6c0-0.5,0.4-1,1-1h3.1c0.6,0,1,0.4,1,1v7.6c0,0.5-0.4,1-1,1h-3.1
				C801.2,388,800.7,387.6,800.7,387z"/>
		</g>
		<g>
			<path class="st6" d="M791.6,205.1v-7.6c0-0.5,0.4-1,1-1h3.1c0.6,0,1,0.4,1,1v7.6c0,0.5-0.4,1-1,1h-3.1
				C792.1,206.1,791.6,205.8,791.6,205.1z"/>
		</g>
		<g>
			<path class="st6" d="M782.4,205.1v-7.6c0-0.5,0.4-1,1-1h3.1c0.6,0,1,0.4,1,1v7.6c0,0.5-0.4,1-1,1h-3.1
				C782.8,206.1,782.4,205.8,782.4,205.1z"/>
		</g>
		<g>
			<path class="st6" d="M791.6,225.4v-7.6c0-0.5,0.4-1,1-1h3.1c0.6,0,1,0.4,1,1v7.6c0,0.5-0.4,1-1,1h-3.1
				C792.1,226.2,791.6,225.9,791.6,225.4z"/>
		</g>
		<g>
			<path class="st6" d="M782.4,225.4v-7.6c0-0.5,0.4-1,1-1h3.1c0.6,0,1,0.4,1,1v7.6c0,0.5-0.4,1-1,1h-3.1
				C782.8,226.2,782.4,225.9,782.4,225.4z"/>
		</g>
		<g>
			<path class="st6" d="M791.6,244.9v-7.6c0-0.5,0.4-1,1-1h3.1c0.6,0,1,0.4,1,1v7.6c0,0.5-0.4,1-1,1h-3.1
				C792.1,245.9,791.6,245.4,791.6,244.9z"/>
		</g>
		<g>
			<path class="st6" d="M782.4,244.9v-7.6c0-0.5,0.4-1,1-1h3.1c0.6,0,1,0.4,1,1v7.6c0,0.5-0.4,1-1,1h-3.1
				C782.8,245.9,782.4,245.4,782.4,244.9z"/>
		</g>
		<g>
			<path class="st6" d="M791.6,265v-7.6c0-0.5,0.4-1,1-1h3.1c0.6,0,1,0.4,1,1v7.6c0,0.5-0.4,1-1,1h-3.1
				C792.1,265.9,791.6,265.5,791.6,265z"/>
		</g>
		<g>
			<path class="st6" d="M782.4,264.9v-7.6c0-0.5,0.4-1,1-1h3.1c0.6,0,1,0.4,1,1v7.6c0,0.5-0.4,1-1,1h-3.1
				C782.8,265.9,782.4,265.4,782.4,264.9z"/>
		</g>
		<g>
			<path class="st6" d="M791.6,285v-7.4c0-0.5,0.4-1,1-1h3.1c0.6,0,1,0.4,1,1v7.4c0,0.5-0.4,1-1,1h-3.1
				C792.1,286,791.6,285.5,791.6,285z"/>
		</g>
		<g>
			<path class="st6" d="M782.4,285.1v-7.6c0-0.5,0.4-1,1-1h3.1c0.6,0,1,0.4,1,1v7.6c0,0.5-0.4,1-1,1h-3.1
				C782.8,286.1,782.4,285.8,782.4,285.1z"/>
		</g>
		<g>
			<path class="st6" d="M791.6,305.6v-7.4c0-0.5,0.4-1,1-1h3.1c0.6,0,1,0.4,1,1v7.4c0,0.5-0.4,1-1,1h-3.1
				C792.1,306.5,791.6,306.1,791.6,305.6z"/>
		</g>
		<g>
			<path class="st6" d="M782.4,305.9v-7.6c0-0.5,0.4-1,1-1h3.1c0.6,0,1,0.4,1,1v7.6c0,0.5-0.4,1-1,1h-3.1
				C782.8,306.9,782.4,306.4,782.4,305.9z"/>
		</g>
		<g>
			<path class="st6" d="M791.6,326.5v-7.6c0-0.5,0.4-1,1-1h3.1c0.6,0,1,0.4,1,1v7.6c0,0.5-0.4,1-1,1h-3.1
				C792.1,327.5,791.6,327.1,791.6,326.5z"/>
		</g>
		<g>
			<path class="st6" d="M782.4,326.4V319c0-0.5,0.4-1,1-1h3.1c0.6,0,1,0.4,1,1v7.4c0,0.5-0.4,1-1,1h-3.1
				C782.8,327.2,782.4,326.9,782.4,326.4z"/>
		</g>
		<g>
			<path class="st6" d="M791.6,347.2v-7.5c0-0.5,0.4-1,1-1h3.1c0.6,0,1,0.4,1,1v7.6c0,0.5-0.4,1-1,1h-3.1
				C792.1,348.2,791.6,347.9,791.6,347.2z"/>
		</g>
		<g>
			<path class="st6" d="M782.4,347v-7.4c0-0.5,0.4-1,1-1h3.1c0.6,0,1,0.4,1,1v7.4c0,0.5-0.4,1-1,1h-3.1
				C782.8,348,782.4,347.5,782.4,347z"/>
		</g>
		<g>
			<path class="st6" d="M791.6,367v-7.6c0-0.5,0.4-1,1-1h3.1c0.6,0,1,0.4,1,1v7.6c0,0.5-0.4,1-1,1h-3.1
				C792.1,368,791.6,367.5,791.6,367z"/>
		</g>
		<g>
			<path class="st6" d="M782.4,367.2v-7.9c0-0.5,0.4-1,1-1h3.1c0.6,0,1,0.4,1,1v7.9c0,0.5-0.4,1-1,1h-3.1
				C782.8,368.2,782.4,367.8,782.4,367.2z"/>
		</g>
		<g>
			<path class="st6" d="M791.6,387.1v-7.6c0-0.5,0.4-1,1-1h3.1c0.6,0,1,0.4,1,1v7.6c0,0.5-0.4,1-1,1h-3.1
				C792.1,388.1,791.6,387.6,791.6,387.1z"/>
		</g>
		<g>
			<path class="st6" d="M782.4,387v-7.6c0-0.5,0.4-1,1-1h3.1c0.6,0,1,0.4,1,1v7.6c0,0.5-0.4,1-1,1h-3.1
				C782.8,388,782.4,387.6,782.4,387z"/>
		</g>
		<path class="st8" d="M781.1,188.6l10.7-11.4c0.3-0.3,0.8-0.5,1.3-0.5H808c1.4,0,2.2,1.6,1.3,2.6l-10.7,11.4
			c-0.3,0.3-0.8,0.5-1.3,0.5h-14.8C780.9,191.1,780.2,189.6,781.1,188.6z"/>
		<g>
			<path class="st4" d="M799,180.4h-4.3c-0.3,0-0.6-0.3-0.6-0.5v-5.9h5.5v5.9C799.6,180.1,799.3,180.4,799,180.4z"/>
			<path class="st3" d="M799,180.4h-2.2v-6.4h2.7v5.9C799.6,180.1,799.3,180.4,799,180.4z"/>
			<path class="st4" d="M800.1,173.9h-6.6c-0.2,0-0.4-0.2-0.4-0.4v-0.8c0-0.2,0.2-0.4,0.4-0.4h6.6c0.2,0,0.4,0.2,0.4,0.4v0.8
				C800.6,173.8,800.4,173.9,800.1,173.9z"/>
			<path class="st3" d="M800.1,173.9h-3.3v-1.6h3.3c0.3,0,0.4,0.2,0.4,0.4v0.8C800.6,173.8,800.4,173.9,800.1,173.9z"/>
		</g>
	</g>
</g>
<rect x="748.8" y="192.8" class="st3" width="16.5" height="210.8"/>
<path class="st4" d="M739.6,402.5V199.1c0-0.7,0.6-1.4,1.4-1.4h15.6V404H741C740.3,404,739.6,403.2,739.6,402.5z"/>
<path class="st3" d="M757,197.4c-0.2,0.2-0.3,0.5-0.3,0.7v205.7h19c0.6,0,1.2-0.5,1.2-1.1V198.1c0-0.3-0.1-0.5-0.3-0.7l-4.8-5.7
	l-4.2-5c-0.4-0.5-1.2-0.6-1.6-0.1l-4.2,5L757,197.4z"/>
<g>
	<path class="st5" d="M767.9,213.1v-7.2c0-0.5,0.4-0.9,1-0.9h3c0.5,0,1,0.4,1,0.9v7.2c0,0.5-0.4,0.9-1,0.9h-3
		C768.3,214.1,767.9,213.6,767.9,213.1z"/>
</g>
<g>
	<path class="st5" d="M759,213.1v-7.2c0-0.5,0.4-0.9,1-0.9h3c0.5,0,1,0.4,1,0.9v7.2c0,0.5-0.4,0.9-1,0.9h-3
		C759.5,214.1,759,213.6,759,213.1z"/>
</g>
<g>
	<path class="st5" d="M767.9,232.4v-7.2c0-0.5,0.4-0.9,1-0.9h3c0.5,0,1,0.4,1,0.9v7.2c0,0.5-0.4,0.9-1,0.9h-3
		C768.3,233.4,767.9,232.9,767.9,232.4z"/>
</g>
<g>
	<path class="st5" d="M759,232.4v-7.2c0-0.5,0.4-0.9,1-0.9h3c0.5,0,1,0.4,1,0.9v7.2c0,0.5-0.4,0.9-1,0.9h-3
		C759.5,233.4,759,232.9,759,232.4z"/>
</g>
<g>
	<path class="st5" d="M767.9,251.1v-7.2c0-0.5,0.4-0.9,1-0.9h3c0.5,0,1,0.4,1,0.9v7.2c0,0.5-0.4,0.9-1,0.9h-3
		C768.3,252.1,767.9,251.6,767.9,251.1z"/>
</g>
<g>
	<path class="st5" d="M759,251.1v-7.2c0-0.5,0.4-0.9,1-0.9h3c0.5,0,1,0.4,1,0.9v7.2c0,0.5-0.4,0.9-1,0.9h-3
		C759.5,252.1,759,251.6,759,251.1z"/>
</g>
<g>
	<path class="st5" d="M767.9,270.4v-7.2c0-0.5,0.4-0.9,1-0.9h3c0.5,0,1,0.4,1,0.9v7.2c0,0.5-0.4,0.9-1,0.9h-3
		C768.3,271.2,767.9,270.9,767.9,270.4z"/>
</g>
<g>
	<path class="st5" d="M759,270.2V263c0-0.5,0.4-0.9,1-0.9h3c0.5,0,1,0.4,1,0.9v7.2c0,0.5-0.4,0.9-1,0.9h-3
		C759.5,271.2,759,270.9,759,270.2z"/>
</g>
<g>
	<path class="st5" d="M767.9,289.5v-7c0-0.5,0.4-0.9,1-0.9h2.9c0.5,0,1,0.4,1,0.9v7c0,0.5-0.4,0.9-1,0.9h-2.9
		C768.3,290.4,767.9,290,767.9,289.5z"/>
</g>
<g>
	<path class="st5" d="M759,289.5v-7.2c0-0.5,0.4-0.9,1-0.9h3c0.5,0,1,0.4,1,0.9v7.2c0,0.5-0.4,0.9-1,0.9h-3
		C759.5,290.5,759,290.1,759,289.5z"/>
</g>
<g>
	<path class="st5" d="M767.9,309.1v-7c0-0.5,0.4-0.9,1-0.9h2.9c0.5,0,1,0.4,1,0.9v7c0,0.5-0.4,0.9-1,0.9h-2.9
		C768.3,310.1,767.9,309.6,767.9,309.1z"/>
</g>
<g>
	<path class="st5" d="M759,309.4v-7.2c0-0.5,0.4-0.9,1-0.9h3c0.5,0,1,0.4,1,0.9v7.2c0,0.5-0.4,0.9-1,0.9h-3
		C759.5,310.4,759,310,759,309.4z"/>
</g>
<g>
	<path class="st5" d="M767.9,329.2V322c0-0.5,0.4-0.9,1-0.9h3c0.5,0,1,0.4,1,0.9v7.2c0,0.5-0.4,0.9-1,0.9h-3
		C768.3,330.1,767.9,329.8,767.9,329.2z"/>
</g>
<g>
	<path class="st5" d="M759,329v-7c0-0.5,0.4-0.9,1-0.9h2.9c0.5,0,1,0.4,1,0.9v7c0,0.5-0.4,0.9-1,0.9H760
		C759.5,329.9,759,329.5,759,329z"/>
</g>
<g>
	<path class="st5" d="M767.9,349v-7.2c0-0.5,0.4-0.9,1-0.9h3c0.5,0,1,0.4,1,0.9v7.2c0,0.5-0.4,0.9-1,0.9h-3
		C768.3,350,767.9,349.5,767.9,349z"/>
</g>
<g>
	<path class="st5" d="M759,348.6v-7c0-0.5,0.4-0.9,1-0.9h2.9c0.5,0,1,0.4,1,0.9v7c0,0.5-0.4,0.9-1,0.9H760
		C759.5,349.6,759,349.2,759,348.6z"/>
</g>
<g>
	<path class="st5" d="M767.9,367.9v-7.3c0-0.5,0.4-0.9,1-0.9h3c0.5,0,1,0.4,1,0.9v7.2c0,0.5-0.4,0.9-1,0.9h-3
		C768.3,368.8,767.9,368.4,767.9,367.9z"/>
</g>
<g>
	<path class="st5" d="M759,368.1v-7.5c0-0.5,0.4-0.9,1-0.9h2.9c0.5,0,1,0.4,1,0.9v7.5c0,0.5-0.4,0.9-1,0.9H760
		C759.5,369,759,368.6,759,368.1z"/>
</g>
<g>
	<path class="st5" d="M767.9,387.1v-7.2c0-0.5,0.4-0.9,1-0.9h3c0.5,0,1,0.4,1,0.9v7.2c0,0.5-0.4,0.9-1,0.9h-3
		C768.3,388,767.9,387.6,767.9,387.1z"/>
</g>
<g>
	<path class="st5" d="M759,387v-7.2c0-0.5,0.4-0.9,1-0.9h3c0.5,0,1,0.4,1,0.9v7.2c0,0.5-0.4,0.9-1,0.9h-3
		C759.5,388,759,387.5,759,387z"/>
</g>
<g>
	<path class="st6" d="M750.3,213.1v-7.2c0-0.5,0.4-0.9,1-0.9h3c0.5,0,1,0.4,1,0.9v7.2c0,0.5-0.4,0.9-1,0.9h-3
		C750.7,214.1,750.3,213.6,750.3,213.1z"/>
</g>
<g>
	<path class="st6" d="M741.5,213.1v-7.2c0-0.5,0.4-0.9,1-0.9h3c0.5,0,1,0.4,1,0.9v7.2c0,0.5-0.4,0.9-1,0.9h-3
		C741.9,214.1,741.5,213.6,741.5,213.1z"/>
</g>
<g>
	<path class="st6" d="M750.3,232.4v-7.2c0-0.5,0.4-0.9,1-0.9h3c0.5,0,1,0.4,1,0.9v7.2c0,0.5-0.4,0.9-1,0.9h-3
		C750.7,233.4,750.3,232.9,750.3,232.4z"/>
</g>
<g>
	<path class="st6" d="M741.5,232.4v-7.2c0-0.5,0.4-0.9,1-0.9h3c0.5,0,1,0.4,1,0.9v7.2c0,0.5-0.4,0.9-1,0.9h-3
		C741.9,233.4,741.5,232.9,741.5,232.4z"/>
</g>
<g>
	<path class="st6" d="M750.3,251.1v-7.2c0-0.5,0.4-0.9,1-0.9h3c0.5,0,1,0.4,1,0.9v7.2c0,0.5-0.4,0.9-1,0.9h-3
		C750.7,252.1,750.3,251.6,750.3,251.1z"/>
</g>
<g>
	<path class="st6" d="M741.5,251.1v-7.2c0-0.5,0.4-0.9,1-0.9h3c0.5,0,1,0.4,1,0.9v7.2c0,0.5-0.4,0.9-1,0.9h-3
		C741.9,252.1,741.5,251.6,741.5,251.1z"/>
</g>
<g>
	<path class="st6" d="M750.3,270.4v-7.2c0-0.5,0.4-0.9,1-0.9h3c0.5,0,1,0.4,1,0.9v7.2c0,0.5-0.4,0.9-1,0.9h-3
		C750.7,271.2,750.3,270.9,750.3,270.4z"/>
</g>
<g>
	<path class="st6" d="M741.5,270.2V263c0-0.5,0.4-0.9,1-0.9h3c0.5,0,1,0.4,1,0.9v7.2c0,0.5-0.4,0.9-1,0.9h-3
		C741.9,271.2,741.5,270.9,741.5,270.2z"/>
</g>
<g>
	<path class="st6" d="M750.3,289.5v-7c0-0.5,0.4-0.9,1-0.9h2.9c0.5,0,1,0.4,1,0.9v7c0,0.5-0.4,0.9-1,0.9h-2.9
		C750.7,290.4,750.3,290,750.3,289.5z"/>
</g>
<g>
	<path class="st6" d="M741.5,289.5v-7.2c0-0.5,0.4-0.9,1-0.9h3c0.5,0,1,0.4,1,0.9v7.2c0,0.5-0.4,0.9-1,0.9h-3
		C741.9,290.5,741.5,290.1,741.5,289.5z"/>
</g>
<g>
	<path class="st6" d="M750.3,309.1v-7c0-0.5,0.4-0.9,1-0.9h2.9c0.5,0,1,0.4,1,0.9v7c0,0.5-0.4,0.9-1,0.9h-2.9
		C750.7,310.1,750.3,309.6,750.3,309.1z"/>
</g>
<g>
	<path class="st6" d="M741.5,309.4v-7.2c0-0.5,0.4-0.9,1-0.9h3c0.5,0,1,0.4,1,0.9v7.2c0,0.5-0.4,0.9-1,0.9h-3
		C741.9,310.4,741.5,310,741.5,309.4z"/>
</g>
<g>
	<path class="st6" d="M750.3,329.2V322c0-0.5,0.4-0.9,1-0.9h3c0.5,0,1,0.4,1,0.9v7.2c0,0.5-0.4,0.9-1,0.9h-3
		C750.7,330.1,750.3,329.8,750.3,329.2z"/>
</g>
<g>
	<path class="st6" d="M741.5,329v-7c0-0.5,0.4-0.9,1-0.9h2.9c0.5,0,1,0.4,1,0.9v7c0,0.5-0.4,0.9-1,0.9h-2.9
		C741.9,329.9,741.5,329.5,741.5,329z"/>
</g>
<g>
	<path class="st6" d="M750.3,349v-7.2c0-0.5,0.4-0.9,1-0.9h3c0.5,0,1,0.4,1,0.9v7.2c0,0.5-0.4,0.9-1,0.9h-3
		C750.7,350,750.3,349.5,750.3,349z"/>
</g>
<g>
	<path class="st6" d="M741.5,348.6v-7c0-0.5,0.4-0.9,1-0.9h2.9c0.5,0,1,0.4,1,0.9v7c0,0.5-0.4,0.9-1,0.9h-2.9
		C741.9,349.6,741.5,349.2,741.5,348.6z"/>
</g>
<g>
	<path class="st6" d="M750.3,367.9v-7.3c0-0.5,0.4-0.9,1-0.9h3c0.5,0,1,0.4,1,0.9v7.2c0,0.5-0.4,0.9-1,0.9h-3
		C750.7,368.8,750.3,368.4,750.3,367.9z"/>
</g>
<g>
	<path class="st6" d="M741.5,368.1v-7.5c0-0.5,0.4-0.9,1-0.9h2.9c0.5,0,1,0.4,1,0.9v7.5c0,0.5-0.4,0.9-1,0.9h-2.9
		C741.9,369,741.5,368.6,741.5,368.1z"/>
</g>
<g>
	<path class="st6" d="M750.3,387.1v-7.2c0-0.5,0.4-0.9,1-0.9h3c0.5,0,1,0.4,1,0.9v7.2c0,0.5-0.4,0.9-1,0.9h-3
		C750.7,388,750.3,387.6,750.3,387.1z"/>
</g>
<g>
	<path class="st6" d="M741.5,387v-7.2c0-0.5,0.4-0.9,1-0.9h3c0.5,0,1,0.4,1,0.9v7.2c0,0.5-0.4,0.9-1,0.9h-3
		C741.9,388,741.5,387.5,741.5,387z"/>
</g>
<path class="st7" d="M740.2,197.2l10.2-10.9c0.3-0.3,0.7-0.5,1.2-0.5h14.2c1.4,0,2.1,1.5,1.2,2.4l-10.2,10.9
	c-0.3,0.3-0.7,0.5-1.2,0.5h-14.2C740.1,199.8,739.4,198.2,740.2,197.2z"/>
<g>
	<path class="st4" d="M757.4,189.4h-4.2c-0.3,0-0.5-0.3-0.5-0.5v-5.6h5.3v5.7C757.9,189.2,757.7,189.4,757.4,189.4z"/>
	<path class="st3" d="M757.4,189.4h-2.1v-6.1h2.6v5.6C757.9,189.2,757.7,189.4,757.4,189.4z"/>
	<path class="st4" d="M758.5,183.4h-6.3c-0.2,0-0.4-0.2-0.4-0.4v-0.8c0-0.2,0.2-0.4,0.4-0.4h6.3c0.2,0,0.4,0.2,0.4,0.4v0.8
		C758.9,183.1,758.7,183.4,758.5,183.4z"/>
	<path class="st3" d="M758.5,183.4h-3.1v-1.6h3.1c0.3,0,0.4,0.2,0.4,0.4v0.7C758.9,183.1,758.7,183.4,758.5,183.4z"/>
</g>
<g>
	<rect x="827.1" y="131.1" class="st3" width="21.6" height="276.1"/>
	<g>
		<path class="st4" d="M815.1,405.8V139.3c0-1,0.8-1.8,1.8-1.8h20.5v270h-20.5C815.9,407.6,815.1,406.9,815.1,405.8z"/>
		<path class="st3" d="M837.8,137.1c-0.2,0.3-0.3,0.6-0.3,1v269.5h24.9c0.8,0,1.5-0.7,1.5-1.5v-268c0-0.3-0.1-0.7-0.3-1l-6.3-7.5
			l-5.5-6.5c-0.6-0.7-1.6-0.8-2.2-0.1l-5.5,6.6L837.8,137.1z"/>
		<g>
			<path class="st5" d="M852,157.8v-9.5c0-0.7,0.6-1.2,1.3-1.2h3.9c0.7,0,1.3,0.5,1.3,1.2v9.5c0,0.7-0.6,1.2-1.3,1.2h-3.9
				C852.6,158.9,852,158.4,852,157.8z"/>
		</g>
		<g>
			<path class="st5" d="M840.5,157.8v-9.5c0-0.7,0.6-1.2,1.3-1.2h3.9c0.7,0,1.3,0.5,1.3,1.2v9.5c0,0.7-0.6,1.2-1.3,1.2h-3.9
				C841,158.9,840.5,158.4,840.5,157.8z"/>
		</g>
		<g>
			<path class="st5" d="M852,182.9v-9.5c0-0.7,0.6-1.2,1.3-1.2h3.9c0.7,0,1.3,0.5,1.3,1.2v9.5c0,0.7-0.6,1.2-1.3,1.2h-3.9
				C852.6,184.1,852,183.6,852,182.9z"/>
		</g>
		<g>
			<path class="st5" d="M840.5,182.9v-9.5c0-0.7,0.6-1.2,1.3-1.2h3.9c0.7,0,1.3,0.5,1.3,1.2v9.5c0,0.7-0.6,1.2-1.3,1.2h-3.9
				C841,184.1,840.5,183.6,840.5,182.9z"/>
		</g>
		<g>
			<path class="st5" d="M852,207.4v-9.5c0-0.7,0.6-1.2,1.3-1.2h3.9c0.7,0,1.3,0.5,1.3,1.2v9.5c0,0.7-0.6,1.2-1.3,1.2h-3.9
				C852.6,208.8,852,208.1,852,207.4z"/>
		</g>
		<g>
			<path class="st5" d="M840.5,207.4v-9.5c0-0.7,0.6-1.2,1.3-1.2h3.9c0.7,0,1.3,0.5,1.3,1.2v9.5c0,0.7-0.6,1.2-1.3,1.2h-3.9
				C841,208.6,840.5,208.1,840.5,207.4z"/>
		</g>
		<g>
			<path class="st5" d="M852,232.6v-9.5c0-0.7,0.6-1.2,1.3-1.2h3.9c0.7,0,1.3,0.5,1.3,1.2v9.5c0,0.7-0.6,1.2-1.3,1.2h-3.9
				C852.6,233.9,852,233.4,852,232.6z"/>
		</g>
		<g>
			<path class="st5" d="M840.5,232.6v-9.5c0-0.7,0.6-1.2,1.3-1.2h3.9c0.7,0,1.3,0.5,1.3,1.2v9.5c0,0.7-0.6,1.2-1.3,1.2h-3.9
				C841,233.9,840.5,233.2,840.5,232.6z"/>
		</g>
		<g>
			<path class="st5" d="M852,257.6v-9.2c0-0.7,0.6-1.2,1.3-1.2h3.8c0.7,0,1.3,0.5,1.3,1.2v9.2c0,0.7-0.6,1.2-1.3,1.2h-3.8
				C852.6,258.9,852,258.4,852,257.6z"/>
		</g>
		<g>
			<path class="st5" d="M840.5,257.9v-9.5c0-0.7,0.6-1.2,1.3-1.2h3.9c0.7,0,1.3,0.5,1.3,1.2v9.5c0,0.7-0.6,1.2-1.3,1.2h-3.9
				C841,259.1,840.5,258.6,840.5,257.9z"/>
		</g>
		<g>
			<path class="st5" d="M852,283.5v-9.2c0-0.7,0.6-1.2,1.3-1.2h3.8c0.7,0,1.3,0.5,1.3,1.2v9.2c0,0.7-0.6,1.2-1.3,1.2h-3.8
				C852.6,284.8,852,284.2,852,283.5z"/>
		</g>
		<g>
			<path class="st5" d="M840.5,283.9v-9.5c0-0.7,0.6-1.2,1.3-1.2h3.9c0.7,0,1.3,0.5,1.3,1.2v9.5c0,0.7-0.6,1.2-1.3,1.2h-3.9
				C841,285,840.5,284.5,840.5,283.9z"/>
		</g>
		<g>
			<path class="st5" d="M852,309.8v-9.5c0-0.7,0.6-1.2,1.3-1.2h3.9c0.7,0,1.3,0.5,1.3,1.2v9.5c0,0.7-0.6,1.2-1.3,1.2h-3.9
				C852.6,311,852,310.5,852,309.8z"/>
		</g>
		<g>
			<path class="st5" d="M840.5,309.5v-9.2c0-0.7,0.6-1.2,1.3-1.2h3.8c0.7,0,1.3,0.5,1.3,1.2v9.2c0,0.7-0.6,1.2-1.3,1.2h-3.8
				C841,310.6,840.5,310.1,840.5,309.5z"/>
		</g>
		<g>
			<path class="st5" d="M852,335.6v-9.5c0-0.7,0.6-1.2,1.3-1.2h3.9c0.7,0,1.3,0.5,1.3,1.2v9.5c0,0.7-0.6,1.2-1.3,1.2h-3.9
				C852.6,337,852,336.4,852,335.6z"/>
		</g>
		<g>
			<path class="st5" d="M840.5,335.2V326c0-0.7,0.6-1.2,1.3-1.2h3.8c0.7,0,1.3,0.5,1.3,1.2v9.2c0,0.7-0.6,1.2-1.3,1.2h-3.8
				C841,336.5,840.5,336,840.5,335.2z"/>
		</g>
		<g>
			<path class="st5" d="M852,360.5V351c0-0.7,0.6-1.2,1.3-1.2h3.9c0.7,0,1.3,0.5,1.3,1.2v9.5c0,0.7-0.6,1.2-1.3,1.2h-3.9
				C852.6,361.6,852,361,852,360.5z"/>
		</g>
		<g>
			<path class="st5" d="M840.5,360.8v-9.9c0-0.7,0.6-1.2,1.3-1.2h3.8c0.7,0,1.3,0.5,1.3,1.2v9.9c0,0.7-0.6,1.2-1.3,1.2h-3.8
				C841,362,840.5,361.5,840.5,360.8z"/>
		</g>
		<g>
			<path class="st5" d="M852,385.6v-9.5c0-0.7,0.6-1.2,1.3-1.2h3.9c0.7,0,1.3,0.5,1.3,1.2v9.5c0,0.7-0.6,1.2-1.3,1.2h-3.9
				C852.6,386.9,852,386.2,852,385.6z"/>
		</g>
		<g>
			<path class="st5" d="M840.5,385.5V376c0-0.7,0.6-1.2,1.3-1.2h3.9c0.7,0,1.3,0.5,1.3,1.2v9.5c0,0.7-0.6,1.2-1.3,1.2h-3.9
				C841,386.8,840.5,386.2,840.5,385.5z"/>
		</g>
		<g>
			<path class="st6" d="M829.1,157.8v-9.5c0-0.7,0.6-1.2,1.3-1.2h3.9c0.7,0,1.3,0.5,1.3,1.2v9.5c0,0.7-0.6,1.2-1.3,1.2h-3.9
				C829.6,158.9,829.1,158.4,829.1,157.8z"/>
		</g>
		<g>
			<path class="st6" d="M817.5,157.8v-9.5c0-0.7,0.6-1.2,1.3-1.2h3.9c0.7,0,1.3,0.5,1.3,1.2v9.5c0,0.7-0.6,1.2-1.3,1.2h-3.9
				C818.1,158.9,817.5,158.4,817.5,157.8z"/>
		</g>
		<g>
			<path class="st6" d="M829.1,182.9v-9.5c0-0.7,0.6-1.2,1.3-1.2h3.9c0.7,0,1.3,0.5,1.3,1.2v9.5c0,0.7-0.6,1.2-1.3,1.2h-3.9
				C829.6,184.1,829.1,183.6,829.1,182.9z"/>
		</g>
		<g>
			<path class="st6" d="M817.5,182.9v-9.5c0-0.7,0.6-1.2,1.3-1.2h3.9c0.7,0,1.3,0.5,1.3,1.2v9.5c0,0.7-0.6,1.2-1.3,1.2h-3.9
				C818.1,184.1,817.5,183.6,817.5,182.9z"/>
		</g>
		<g>
			<path class="st6" d="M829.1,207.4v-9.5c0-0.7,0.6-1.2,1.3-1.2h3.9c0.7,0,1.3,0.5,1.3,1.2v9.5c0,0.7-0.6,1.2-1.3,1.2h-3.9
				C829.6,208.8,829.1,208.1,829.1,207.4z"/>
		</g>
		<g>
			<path class="st6" d="M817.5,207.4v-9.5c0-0.7,0.6-1.2,1.3-1.2h3.9c0.7,0,1.3,0.5,1.3,1.2v9.5c0,0.7-0.6,1.2-1.3,1.2h-3.9
				C818.1,208.6,817.5,208.1,817.5,207.4z"/>
		</g>
		<g>
			<path class="st6" d="M829.1,232.6v-9.5c0-0.7,0.6-1.2,1.3-1.2h3.9c0.7,0,1.3,0.5,1.3,1.2v9.5c0,0.7-0.6,1.2-1.3,1.2h-3.9
				C829.6,233.9,829.1,233.4,829.1,232.6z"/>
		</g>
		<g>
			<path class="st6" d="M817.5,232.6v-9.5c0-0.7,0.6-1.2,1.3-1.2h3.9c0.7,0,1.3,0.5,1.3,1.2v9.5c0,0.7-0.6,1.2-1.3,1.2h-3.9
				C818.1,233.9,817.5,233.2,817.5,232.6z"/>
		</g>
		<g>
			<path class="st6" d="M829.1,257.6v-9.2c0-0.7,0.6-1.2,1.3-1.2h3.8c0.7,0,1.3,0.5,1.3,1.2v9.2c0,0.7-0.6,1.2-1.3,1.2h-3.8
				C829.6,258.9,829.1,258.4,829.1,257.6z"/>
		</g>
		<g>
			<path class="st6" d="M817.5,257.9v-9.5c0-0.7,0.6-1.2,1.3-1.2h3.9c0.7,0,1.3,0.5,1.3,1.2v9.5c0,0.7-0.6,1.2-1.3,1.2h-3.9
				C818.1,259.1,817.5,258.6,817.5,257.9z"/>
		</g>
		<g>
			<path class="st6" d="M829.1,283.5v-9.2c0-0.7,0.6-1.2,1.3-1.2h3.8c0.7,0,1.3,0.5,1.3,1.2v9.2c0,0.7-0.6,1.2-1.3,1.2h-3.8
				C829.6,284.8,829.1,284.2,829.1,283.5z"/>
		</g>
		<g>
			<path class="st6" d="M817.5,283.9v-9.5c0-0.7,0.6-1.2,1.3-1.2h3.9c0.7,0,1.3,0.5,1.3,1.2v9.5c0,0.7-0.6,1.2-1.3,1.2h-3.9
				C818.1,285,817.5,284.5,817.5,283.9z"/>
		</g>
		<g>
			<path class="st6" d="M829.1,309.8v-9.5c0-0.7,0.6-1.2,1.3-1.2h3.9c0.7,0,1.3,0.5,1.3,1.2v9.5c0,0.7-0.6,1.2-1.3,1.2h-3.9
				C829.6,311,829.1,310.5,829.1,309.8z"/>
		</g>
		<g>
			<path class="st6" d="M817.5,309.5v-9.2c0-0.7,0.6-1.2,1.3-1.2h3.8c0.7,0,1.3,0.5,1.3,1.2v9.2c0,0.7-0.6,1.2-1.3,1.2h-3.8
				C818.1,310.6,817.5,310.1,817.5,309.5z"/>
		</g>
		<g>
			<path class="st6" d="M829.1,335.6v-9.5c0-0.7,0.6-1.2,1.3-1.2h3.9c0.7,0,1.3,0.5,1.3,1.2v9.5c0,0.7-0.6,1.2-1.3,1.2h-3.9
				C829.6,337,829.1,336.4,829.1,335.6z"/>
		</g>
		<g>
			<path class="st6" d="M817.5,335.2V326c0-0.7,0.6-1.2,1.3-1.2h3.8c0.7,0,1.3,0.5,1.3,1.2v9.2c0,0.7-0.6,1.2-1.3,1.2h-3.8
				C818.1,336.5,817.5,336,817.5,335.2z"/>
		</g>
		<g>
			<path class="st6" d="M829.1,360.5V351c0-0.7,0.6-1.2,1.3-1.2h3.9c0.7,0,1.3,0.5,1.3,1.2v9.5c0,0.7-0.6,1.2-1.3,1.2h-3.9
				C829.6,361.6,829.1,361,829.1,360.5z"/>
		</g>
		<g>
			<path class="st6" d="M817.5,360.8v-9.9c0-0.7,0.6-1.2,1.3-1.2h3.8c0.7,0,1.3,0.5,1.3,1.2v9.9c0,0.7-0.6,1.2-1.3,1.2h-3.8
				C818.1,362,817.5,361.5,817.5,360.8z"/>
		</g>
		<g>
			<path class="st6" d="M829.1,385.6v-9.5c0-0.7,0.6-1.2,1.3-1.2h3.9c0.7,0,1.3,0.5,1.3,1.2v9.5c0,0.7-0.6,1.2-1.3,1.2h-3.9
				C829.6,386.9,829.1,386.2,829.1,385.6z"/>
		</g>
		<g>
			<path class="st6" d="M817.5,385.5V376c0-0.7,0.6-1.2,1.3-1.2h3.9c0.7,0,1.3,0.5,1.3,1.2v9.5c0,0.7-0.6,1.2-1.3,1.2h-3.9
				C818.1,386.8,817.5,386.2,817.5,385.5z"/>
		</g>
		<path class="st8" d="M815.8,136.9l13.4-14.3c0.4-0.4,1-0.7,1.6-0.7h18.7c1.8,0,2.8,2,1.6,3.2l-13.4,14.3c-0.4,0.4-1,0.7-1.6,0.7
			h-18.6C815.7,140.1,814.7,138.2,815.8,136.9z"/>
		<g>
			<path class="st4" d="M838.3,126.8h-5.4c-0.4,0-0.7-0.3-0.7-0.7v-7.4h6.9v7.4C839,126.4,838.7,126.8,838.3,126.8z"/>
			<path class="st3" d="M838.3,126.8h-2.7v-8h3.4v7.4C839,126.4,838.7,126.8,838.3,126.8z"/>
			<path class="st4" d="M839.7,118.6h-8.3c-0.3,0-0.6-0.3-0.6-0.5v-1c0-0.3,0.3-0.5,0.6-0.5h8.3c0.3,0,0.6,0.3,0.6,0.5v1
				C840.3,118.3,840.1,118.6,839.7,118.6z"/>
			<path class="st3" d="M839.7,118.6h-4.1v-2h4.1c0.3,0,0.6,0.3,0.6,0.5v1C840.3,118.3,840.1,118.6,839.7,118.6z"/>
		</g>
	</g>
</g>
<rect x="866.6" y="128.9" class="st3" width="21.6" height="275.3"/>
<path class="st4" d="M857.5,406.8V128.1c0-1,0.8-1.9,1.9-1.9h21.4v282.4h-21.4C858.4,408.6,857.5,407.9,857.5,406.8z"/>
<path class="st3" d="M881.3,125.8c-0.2,0.3-0.4,0.6-0.4,1v281.8H907c0.9,0,1.6-0.7,1.6-1.6V126.8c0-0.4-0.1-0.7-0.4-1l-6.6-7.8
	l-5.8-6.8c-0.6-0.7-1.7-0.8-2.3-0.1l-5.8,6.9L881.3,125.8z"/>
<g>
	<path class="st5" d="M896.2,147.2v-9.9c0-0.7,0.6-1.3,1.3-1.3h4.1c0.7,0,1.3,0.6,1.3,1.3v9.9c0,0.7-0.6,1.3-1.3,1.3h-4.1
		C896.7,148.6,896.2,148.1,896.2,147.2z"/>
</g>
<g>
	<path class="st5" d="M884.1,147.2v-9.9c0-0.7,0.6-1.3,1.3-1.3h4.1c0.7,0,1.3,0.6,1.3,1.3v9.9c0,0.7-0.6,1.3-1.3,1.3h-4.1
		C884.7,148.6,884.1,148.1,884.1,147.2z"/>
</g>
<g>
	<path class="st5" d="M896.2,173.6v-9.9c0-0.7,0.6-1.3,1.3-1.3h4.1c0.7,0,1.3,0.6,1.3,1.3v9.9c0,0.7-0.6,1.3-1.3,1.3h-4.1
		C896.7,174.9,896.2,174.4,896.2,173.6z"/>
</g>
<g>
	<path class="st5" d="M884.1,173.6v-9.9c0-0.7,0.6-1.3,1.3-1.3h4.1c0.7,0,1.3,0.6,1.3,1.3v9.9c0,0.7-0.6,1.3-1.3,1.3h-4.1
		C884.7,174.9,884.1,174.4,884.1,173.6z"/>
</g>
<g>
	<path class="st5" d="M896.2,199.4v-9.9c0-0.7,0.6-1.3,1.3-1.3h4.1c0.7,0,1.3,0.6,1.3,1.3v9.9c0,0.7-0.6,1.3-1.3,1.3h-4.1
		C896.7,200.6,896.2,200.1,896.2,199.4z"/>
</g>
<g>
	<path class="st5" d="M884.1,199.2v-9.9c0-0.7,0.6-1.3,1.3-1.3h4.1c0.7,0,1.3,0.6,1.3,1.3v9.9c0,0.7-0.6,1.3-1.3,1.3h-4.1
		C884.7,200.6,884.1,199.9,884.1,199.2z"/>
</g>
<g>
	<path class="st5" d="M896.2,225.6v-9.9c0-0.7,0.6-1.3,1.3-1.3h4.1c0.7,0,1.3,0.6,1.3,1.3v9.9c0,0.7-0.6,1.3-1.3,1.3h-4.1
		C896.7,226.9,896.2,226.4,896.2,225.6z"/>
</g>
<g>
	<path class="st5" d="M884.1,225.6v-9.9c0-0.7,0.6-1.3,1.3-1.3h4.1c0.7,0,1.3,0.6,1.3,1.3v9.9c0,0.7-0.6,1.3-1.3,1.3h-4.1
		C884.7,226.9,884.1,226.4,884.1,225.6z"/>
</g>
<g>
	<path class="st5" d="M896.2,251.9v-9.6c0-0.7,0.6-1.3,1.3-1.3h4c0.7,0,1.3,0.6,1.3,1.3v9.6c0,0.7-0.6,1.3-1.3,1.3h-4
		C896.7,253.1,896.2,252.6,896.2,251.9z"/>
</g>
<g>
	<path class="st5" d="M884.1,252.1v-9.9c0-0.7,0.6-1.3,1.3-1.3h4.1c0.7,0,1.3,0.6,1.3,1.3v9.9c0,0.7-0.6,1.3-1.3,1.3h-4.1
		C884.7,253.4,884.1,252.9,884.1,252.1z"/>
</g>
<g>
	<path class="st5" d="M896.2,278.9v-9.6c0-0.7,0.6-1.3,1.3-1.3h4c0.7,0,1.3,0.6,1.3,1.3v9.6c0,0.7-0.6,1.3-1.3,1.3h-4
		C896.7,280.1,896.2,279.5,896.2,278.9z"/>
</g>
<g>
	<path class="st5" d="M884.1,279.1v-9.9c0-0.7,0.6-1.3,1.3-1.3h4.1c0.7,0,1.3,0.6,1.3,1.3v9.9c0,0.7-0.6,1.3-1.3,1.3h-4.1
		C884.7,280.5,884.1,279.9,884.1,279.1z"/>
</g>
<g>
	<path class="st5" d="M896.2,306.4v-9.9c0-0.7,0.6-1.3,1.3-1.3h4.1c0.7,0,1.3,0.6,1.3,1.3v9.9c0,0.7-0.6,1.3-1.3,1.3h-4.1
		C896.7,307.6,896.2,307,896.2,306.4z"/>
</g>
<g>
	<path class="st5" d="M884.1,306v-9.6c0-0.7,0.6-1.3,1.3-1.3h4c0.7,0,1.3,0.6,1.3,1.3v9.6c0,0.7-0.6,1.3-1.3,1.3h-4
		C884.7,307.2,884.1,306.6,884.1,306z"/>
</g>
<g>
	<path class="st5" d="M896.2,333.5v-9.9c0-0.7,0.6-1.3,1.3-1.3h4.1c0.7,0,1.3,0.6,1.3,1.3v9.9c0,0.7-0.6,1.3-1.3,1.3h-4.1
		C896.7,334.8,896.2,334.1,896.2,333.5z"/>
</g>
<g>
	<path class="st5" d="M884.1,333v-9.6c0-0.7,0.6-1.3,1.3-1.3h4c0.7,0,1.3,0.6,1.3,1.3v9.6c0,0.7-0.6,1.3-1.3,1.3h-4
		C884.7,334.2,884.1,333.8,884.1,333z"/>
</g>
<g>
	<path class="st5" d="M896.2,359.4v-10c0-0.7,0.6-1.3,1.3-1.3h4.1c0.7,0,1.3,0.6,1.3,1.3v9.9c0,0.7-0.6,1.3-1.3,1.3h-4.1
		C896.7,360.5,896.2,360,896.2,359.4z"/>
</g>
<g>
	<path class="st5" d="M884.1,359.6v-10.3c0-0.7,0.6-1.3,1.3-1.3h4c0.7,0,1.3,0.6,1.3,1.3v10.3c0,0.7-0.6,1.3-1.3,1.3h-4
		C884.7,360.9,884.1,360.4,884.1,359.6z"/>
</g>
<g>
	<path class="st5" d="M896.2,385.6v-9.9c0-0.7,0.6-1.3,1.3-1.3h4.1c0.7,0,1.3,0.6,1.3,1.3v9.9c0,0.7-0.6,1.3-1.3,1.3h-4.1
		C896.7,387,896.2,386.4,896.2,385.6z"/>
</g>
<g>
	<path class="st5" d="M884.1,385.5v-9.9c0-0.7,0.6-1.3,1.3-1.3h4.1c0.7,0,1.3,0.6,1.3,1.3v9.9c0,0.7-0.6,1.3-1.3,1.3h-4.1
		C884.7,386.9,884.1,386.2,884.1,385.5z"/>
</g>
<g>
	<path class="st6" d="M872.1,147.2v-9.9c0-0.7,0.6-1.3,1.3-1.3h4.1c0.7,0,1.3,0.6,1.3,1.3v9.9c0,0.7-0.6,1.3-1.3,1.3h-4.1
		C872.7,148.6,872.1,148.1,872.1,147.2z"/>
</g>
<g>
	<path class="st6" d="M860.1,147.2v-9.9c0-0.7,0.6-1.3,1.3-1.3h4.1c0.7,0,1.3,0.6,1.3,1.3v9.9c0,0.7-0.6,1.3-1.3,1.3h-4.1
		C860.6,148.6,860.1,148.1,860.1,147.2z"/>
</g>
<g>
	<path class="st6" d="M872.1,173.6v-9.9c0-0.7,0.6-1.3,1.3-1.3h4.1c0.7,0,1.3,0.6,1.3,1.3v9.9c0,0.7-0.6,1.3-1.3,1.3h-4.1
		C872.7,174.9,872.1,174.4,872.1,173.6z"/>
</g>
<g>
	<path class="st6" d="M860.1,173.6v-9.9c0-0.7,0.6-1.3,1.3-1.3h4.1c0.7,0,1.3,0.6,1.3,1.3v9.9c0,0.7-0.6,1.3-1.3,1.3h-4.1
		C860.6,174.9,860.1,174.4,860.1,173.6z"/>
</g>
<g>
	<path class="st6" d="M872.1,199.4v-9.9c0-0.7,0.6-1.3,1.3-1.3h4.1c0.7,0,1.3,0.6,1.3,1.3v9.9c0,0.7-0.6,1.3-1.3,1.3h-4.1
		C872.7,200.6,872.1,200.1,872.1,199.4z"/>
</g>
<g>
	<path class="st6" d="M860.1,199.2v-9.9c0-0.7,0.6-1.3,1.3-1.3h4.1c0.7,0,1.3,0.6,1.3,1.3v9.9c0,0.7-0.6,1.3-1.3,1.3h-4.1
		C860.6,200.6,860.1,199.9,860.1,199.2z"/>
</g>
<g>
	<path class="st6" d="M872.1,225.6v-9.9c0-0.7,0.6-1.3,1.3-1.3h4.1c0.7,0,1.3,0.6,1.3,1.3v9.9c0,0.7-0.6,1.3-1.3,1.3h-4.1
		C872.7,226.9,872.1,226.4,872.1,225.6z"/>
</g>
<g>
	<path class="st6" d="M860.1,225.6v-9.9c0-0.7,0.6-1.3,1.3-1.3h4.1c0.7,0,1.3,0.6,1.3,1.3v9.9c0,0.7-0.6,1.3-1.3,1.3h-4.1
		C860.6,226.9,860.1,226.4,860.1,225.6z"/>
</g>
<g>
	<path class="st6" d="M872.1,251.9v-9.6c0-0.7,0.6-1.3,1.3-1.3h4c0.7,0,1.3,0.6,1.3,1.3v9.6c0,0.7-0.6,1.3-1.3,1.3h-4
		C872.7,253.1,872.1,252.6,872.1,251.9z"/>
</g>
<g>
	<path class="st6" d="M860.1,252.1v-9.9c0-0.7,0.6-1.3,1.3-1.3h4.1c0.7,0,1.3,0.6,1.3,1.3v9.9c0,0.7-0.6,1.3-1.3,1.3h-4.1
		C860.6,253.4,860.1,252.9,860.1,252.1z"/>
</g>
<g>
	<path class="st6" d="M872.1,278.9v-9.6c0-0.7,0.6-1.3,1.3-1.3h4c0.7,0,1.3,0.6,1.3,1.3v9.6c0,0.7-0.6,1.3-1.3,1.3h-4
		C872.7,280.1,872.1,279.5,872.1,278.9z"/>
</g>
<g>
	<path class="st6" d="M860.1,279.1v-9.9c0-0.7,0.6-1.3,1.3-1.3h4.1c0.7,0,1.3,0.6,1.3,1.3v9.9c0,0.7-0.6,1.3-1.3,1.3h-4.1
		C860.6,280.5,860.1,279.9,860.1,279.1z"/>
</g>
<g>
	<path class="st6" d="M872.1,306.4v-9.9c0-0.7,0.6-1.3,1.3-1.3h4.1c0.7,0,1.3,0.6,1.3,1.3v9.9c0,0.7-0.6,1.3-1.3,1.3h-4.1
		C872.7,307.6,872.1,307,872.1,306.4z"/>
</g>
<g>
	<path class="st6" d="M860.1,306v-9.6c0-0.7,0.6-1.3,1.3-1.3h4c0.7,0,1.3,0.6,1.3,1.3v9.6c0,0.7-0.6,1.3-1.3,1.3h-4
		C860.6,307.2,860.1,306.6,860.1,306z"/>
</g>
<g>
	<path class="st6" d="M872.1,333.5v-9.9c0-0.7,0.6-1.3,1.3-1.3h4.1c0.7,0,1.3,0.6,1.3,1.3v9.9c0,0.7-0.6,1.3-1.3,1.3h-4.1
		C872.7,334.8,872.1,334.1,872.1,333.5z"/>
</g>
<g>
	<path class="st6" d="M860.1,333v-9.6c0-0.7,0.6-1.3,1.3-1.3h4c0.7,0,1.3,0.6,1.3,1.3v9.6c0,0.7-0.6,1.3-1.3,1.3h-4
		C860.6,334.2,860.1,333.8,860.1,333z"/>
</g>
<g>
	<path class="st6" d="M872.1,359.4v-10c0-0.7,0.6-1.3,1.3-1.3h4.1c0.7,0,1.3,0.6,1.3,1.3v9.9c0,0.7-0.6,1.3-1.3,1.3h-4.1
		C872.7,360.5,872.1,360,872.1,359.4z"/>
</g>
<g>
	<path class="st6" d="M860.1,359.6v-10.3c0-0.7,0.6-1.3,1.3-1.3h4c0.7,0,1.3,0.6,1.3,1.3v10.3c0,0.7-0.6,1.3-1.3,1.3h-4
		C860.6,360.9,860.1,360.4,860.1,359.6z"/>
</g>
<g>
	<path class="st6" d="M872.1,385.6v-9.9c0-0.7,0.6-1.3,1.3-1.3h4.1c0.7,0,1.3,0.6,1.3,1.3v9.9c0,0.7-0.6,1.3-1.3,1.3h-4.1
		C872.7,387,872.1,386.4,872.1,385.6z"/>
</g>
<g>
	<path class="st6" d="M860.1,385.5v-9.9c0-0.7,0.6-1.3,1.3-1.3h4.1c0.7,0,1.3,0.6,1.3,1.3v9.9c0,0.7-0.6,1.3-1.3,1.3h-4.1
		C860.6,386.9,860.1,386.2,860.1,385.5z"/>
</g>
<path class="st7" d="M858.3,125.6l14-15c0.4-0.4,1-0.7,1.7-0.7h19.5c1.9,0,2.9,2.1,1.7,3.4l-14,15c-0.4,0.4-1,0.7-1.7,0.7h-19.4
	C858.2,128.9,857.1,126.9,858.3,125.6z"/>
<g>
	<path class="st4" d="M881.8,114.8h-5.7c-0.4,0-0.7-0.4-0.7-0.7v-7.7h7.2v7.8C882.6,114.6,882.3,114.8,881.8,114.8z"/>
	<path class="st3" d="M881.8,114.8H879v-8.4h3.6v7.7C882.6,114.6,882.3,114.8,881.8,114.8z"/>
	<path class="st4" d="M883.3,106.4h-8.7c-0.3,0-0.6-0.3-0.6-0.6v-1.1c0-0.3,0.3-0.6,0.6-0.6h8.7c0.3,0,0.6,0.3,0.6,0.6v1.1
		C883.9,106.1,883.6,106.4,883.3,106.4z"/>
	<path class="st3" d="M883.3,106.4H879v-2.1h4.3c0.4,0,0.6,0.3,0.6,0.6v1C883.9,106.1,883.6,106.4,883.3,106.4z"/>
</g>
</svg>
