<?xml version="1.0" encoding="utf-8"?>
<!-- Generator: Adobe Illustrator 19.1.0, SVG Export Plug-In . SVG Version: 6.00 Build 0)  -->
<svg version="1.1" id="Lager_1" xmlns="http://www.w3.org/2000/svg" xmlns:xlink="http://www.w3.org/1999/xlink" x="0px" y="0px"
	 viewBox="309.4 244.4 735 148.1" style="enable-background:new 309.4 244.4 735 148.1;" xml:space="preserve">
<style type="text/css">
	.st0{display:none;}
	.st1{fill:#18717A;}
	.st2{fill:#EA9C68;}
</style>
<g id="BG_dark" class="st0">
</g>
<g id="trees_3">
</g>
<g id="green">
</g>
<g id="light_green">
</g>
<g id="orange">
</g>
<g id="tree_row_back">
	<g>
		<path class="st1" d="M383.8,392.5h-69.7c-3.1,0-5.3-2.9-4.6-5.9l34-138.5c1.2-4.9,8.2-4.9,9.4,0l35.5,138.5
			C389.2,389.6,386.9,392.5,383.8,392.5z"/>
	</g>
	<g>
		<path class="st1" d="M477.6,392.5h-69.7c-3.1,0-5.3-2.9-4.6-5.9l34-138.5c1.2-4.9,8.2-4.9,9.4,0l35.5,138.5
			C482.9,389.6,480.7,392.5,477.6,392.5z"/>
	</g>
	<g>
		<path class="st1" d="M571.3,392.5h-69.7c-3.1,0-5.3-2.9-4.6-5.9l34-138.5c1.2-4.9,8.2-4.9,9.4,0l35.5,138.5
			C576.6,389.6,574.4,392.5,571.3,392.5z"/>
	</g>
	<g>
		<path class="st1" d="M665,392.5h-69.7c-3.1,0-5.3-2.9-4.6-5.9l34-138.5c1.2-4.9,8.2-4.9,9.4,0l35.5,138.5
			C670.4,389.6,668.1,392.5,665,392.5z"/>
	</g>
	<g>
		<path class="st1" d="M758.4,392.5h-69.7c-3.1,0-5.3-2.9-4.6-5.9l34-138.5c1.2-4.9,8.2-4.9,9.4,0L763,386.6
			C763.8,389.6,761.5,392.5,758.4,392.5z"/>
	</g>
	<g>
		<path class="st1" d="M852.1,392.5h-69.7c-3.1,0-5.3-2.9-4.6-5.9l34-138.5c1.2-4.9,8.2-4.9,9.4,0l35.5,138.5
			C857.5,389.6,855.2,392.5,852.1,392.5z"/>
	</g>
	<g>
		<path class="st2" d="M945.9,392.5h-69.7c-3.1,0-5.3-2.9-4.6-5.9l34-138.5c1.2-4.9,8.2-4.9,9.4,0l35.5,138.5
			C951.2,389.6,949,392.5,945.9,392.5z"/>
	</g>
	<g>
		<path class="st1" d="M1039.6,392.5h-69.7c-3.1,0-5.3-2.9-4.6-5.9l34-138.5c1.2-4.9,8.2-4.9,9.4,0l35.5,138.5
			C1045,389.6,1042.7,392.5,1039.6,392.5z"/>
	</g>
</g>
<g id="tree_row_front">
</g>
</svg>
