<?xml version="1.0" encoding="utf-8"?>
<!-- Generator: Adobe Illustrator 19.1.0, SVG Export Plug-In . SVG Version: 6.00 Build 0)  -->
<svg version="1.1" xmlns="http://www.w3.org/2000/svg" xmlns:xlink="http://www.w3.org/1999/xlink" x="0px" y="0px"
	 viewBox="0 0 920 228" style="enable-background:new 0 0 920 228;" xml:space="preserve">
<style type="text/css">
	.st0{display:none;}
	.st1{display:inline;fill:#18717A;}
	.st2{fill:#31AA9B;}
	.st3{fill:#EA9C68;}
	.st4{fill:#4ACCC2;}
</style>
<g id="BG_dark" class="st0">
</g>
<g id="trees_3">
</g>
<g id="green">
</g>
<g id="light_green">
</g>
<g id="orange">
</g>
<g id="tree_row_back">
</g>
<g id="tree_row_front">
	<g>
		<path class="st4" d="M120.3,194.9H44.2c-3.4,0-6-3.2-5.2-6.6L76.2,37.2c1.4-5.5,9.2-5.6,10.6-0.1l38.7,151.1
			C126.3,191.7,123.8,194.9,120.3,194.9z"/>
	</g>
	<g>
		<path class="st3" d="M213.7,194.9h-76.1c-3.4,0-6-3.2-5.2-6.6l37.1-151.1c1.4-5.5,9.2-5.6,10.6-0.1l38.7,151.1
			C219.7,191.7,217.2,194.9,213.7,194.9z"/>
	</g>
	<g>
		<path class="st4" d="M307.8,194.9h-76.1c-3.4,0-6-3.2-5.2-6.6l37.1-151.1c1.4-5.5,9.2-5.6,10.6-0.1l38.7,151.1
			C313.8,191.7,311.3,194.9,307.8,194.9z"/>
	</g>
	<g>
		<path class="st4" d="M401.2,194.9h-76.1c-3.4,0-6-3.2-5.2-6.6L357,37.2c1.4-5.5,9.2-5.6,10.6-0.1l38.7,151.1
			C407.2,191.7,404.6,194.9,401.2,194.9z"/>
	</g>
	<g>
		<path class="st4" d="M494.9,194.9h-76.1c-3.4,0-6-3.2-5.2-6.6l37.1-151.1c1.4-5.5,9.2-5.6,10.6-0.1L500,188.3
			C500.9,191.7,498.4,194.9,494.9,194.9z"/>
	</g>
	<g>
		<path class="st4" d="M588.3,194.9h-76.1c-3.4,0-6-3.2-5.2-6.6l37.1-151.1c1.4-5.5,9.2-5.6,10.6-0.1l38.7,151.1
			C594.3,191.7,591.7,194.9,588.3,194.9z"/>
	</g>
	<g>
		<path class="st4" d="M682.4,194.9h-76.1c-3.4,0-6-3.2-5.2-6.6l37.1-151.1c1.4-5.5,9.2-5.6,10.6-0.1l38.7,151.1
			C688.4,191.7,685.8,194.9,682.4,194.9z"/>
	</g>
	<g>
		<path class="st4" d="M775.7,194.9h-76.1c-3.4,0-6-3.2-5.2-6.6l37.1-151.1c1.4-5.5,9.2-5.6,10.6-0.1l38.7,151.1
			C781.7,191.7,779.2,194.9,775.7,194.9z"/>
	</g>
	<g>
		<path class="st4" d="M869.8,194.9h-76.1c-3.4,0-6-3.2-5.2-6.6l37.1-151.1c1.4-5.5,9.2-5.6,10.6-0.1l38.7,151.1
			C875.8,191.7,873.2,194.9,869.8,194.9z"/>
	</g>
</g>
</svg>
