<?xml version="1.0" encoding="utf-8"?>
<!-- Generator: Adobe Illustrator 19.1.0, SVG Export Plug-In . SVG Version: 6.00 Build 0)  -->
<svg version="1.1" xmlns="http://www.w3.org/2000/svg" xmlns:xlink="http://www.w3.org/1999/xlink" x="0px" y="0px"
	 viewBox="0 0 920 228" style="enable-background:new 0 0 920 228;" xml:space="preserve">
<style type="text/css">
	.st0{display:none;}
	.st1{display:inline;fill:#18717A;}
	.st2{fill:#31AA9B;}
	.st3{fill:#EA9C68;}
	.st4{fill:#4ACCC2;}
</style>
<g id="BG_dark" class="st0">
</g>
<g id="trees_3">
</g>
<g id="green">
</g>
<g id="light_green">
</g>
<g id="orange">
</g>
<g id="tree_row_back">
	<g>
		<path class="st2" d="M163.8,185.5H94.1c-3.1,0-5.3-2.9-4.6-5.9l34-138.5c1.2-4.9,8.2-4.9,9.4,0l35.5,138.5
			C169.2,182.6,166.9,185.5,163.8,185.5z"/>
	</g>
	<g>
		<path class="st2" d="M257.6,185.5h-69.7c-3.1,0-5.3-2.9-4.6-5.9l34-138.5c1.2-4.9,8.2-4.9,9.4,0l35.5,138.5
			C262.9,182.6,260.7,185.5,257.6,185.5z"/>
	</g>
	<g>
		<path class="st2" d="M351.3,185.5h-69.7c-3.1,0-5.3-2.9-4.6-5.9l34-138.5c1.2-4.9,8.2-4.9,9.4,0l35.5,138.5
			C356.6,182.6,354.4,185.5,351.3,185.5z"/>
	</g>
	<g>
		<path class="st2" d="M445,185.5h-69.7c-3.1,0-5.3-2.9-4.6-5.9l34-138.5c1.2-4.9,8.2-4.9,9.4,0l35.5,138.5
			C450.4,182.6,448.1,185.5,445,185.5z"/>
	</g>
	<g>
		<path class="st2" d="M538.4,185.5h-69.7c-3.1,0-5.3-2.9-4.6-5.9l34-138.5c1.2-4.9,8.2-4.9,9.4,0L543,179.6
			C543.8,182.6,541.5,185.5,538.4,185.5z"/>
	</g>
	<g>
		<path class="st2" d="M632.1,185.5h-69.7c-3.1,0-5.3-2.9-4.6-5.9l34-138.5c1.2-4.9,8.2-4.9,9.4,0l35.5,138.5
			C637.5,182.6,635.2,185.5,632.1,185.5z"/>
	</g>
	<g>
		<path class="st3" d="M725.9,185.5h-69.7c-3.1,0-5.3-2.9-4.6-5.9l34-138.5c1.2-4.9,8.2-4.9,9.4,0l35.5,138.5
			C731.2,182.6,729,185.5,725.9,185.5z"/>
	</g>
	<g>
		<path class="st2" d="M819.6,185.5h-69.7c-3.1,0-5.3-2.9-4.6-5.9l34-138.5c1.2-4.9,8.2-4.9,9.4,0l35.5,138.5
			C825,182.6,822.7,185.5,819.6,185.5z"/>
	</g>
</g>
<g id="tree_row_front">
</g>
</svg>
