<?xml version="1.0" encoding="utf-8"?>
<!-- Generator: Adobe Illustrator 19.1.0, SVG Export Plug-In . SVG Version: 6.00 Build 0)  -->
<svg version="1.1" xmlns="http://www.w3.org/2000/svg" xmlns:xlink="http://www.w3.org/1999/xlink" x="0px" y="0px"
	 viewBox="0 0 203 169" style="enable-background:new 0 0 203 169;" xml:space="preserve">
<style type="text/css">
	.st0{display:none;}
	.st1{display:inline;fill:#18717A;}
	.st2{fill:#31AA9B;}
	.st3{fill:#EA9C68;}
	.st4{fill:#4ACCC2;}
</style>
<g id="BG_dark" class="st0">
</g>
<g id="trees_3">
	<g>
		<path class="st2" d="M179,151.8h-49.4c-2.2,0-3.9-2.1-3.3-4.3l24.1-98c0.9-3.6,5.9-3.6,6.8,0l25.1,98
			C182.9,149.7,181.2,151.8,179,151.8z"/>
	</g>
	<g>
		<path class="st3" d="M124.7,121.9H75.3c-2.2,0-3.9-2.1-3.3-4.3l24.1-98c0.9-3.6,5.9-3.6,6.8,0l25.1,98
			C128.5,119.7,126.9,121.9,124.7,121.9z"/>
	</g>
	<g>
		<path class="st2" d="M78.4,143.6H29c-2.2,0-3.9-2.1-3.3-4.3l24.1-98c0.9-3.6,5.9-3.6,6.8,0l25.1,98
			C82.3,141.5,80.6,143.6,78.4,143.6z"/>
	</g>
</g>
<g id="green">
</g>
<g id="light_green">
</g>
<g id="orange">
</g>
<g id="tree_row_back">
</g>
<g id="tree_row_front">
</g>
</svg>
