<?xml version="1.0" encoding="utf-8"?>
<!-- Generator: Adobe Illustrator 19.1.0, SVG Export Plug-In . SVG Version: 6.00 Build 0)  -->
<svg version="1.1" id="Lager_1" xmlns="http://www.w3.org/2000/svg" xmlns:xlink="http://www.w3.org/1999/xlink" x="0px" y="0px"
	 viewBox="88.4 246.9 814.2 148.1" style="enable-background:new 88.4 246.9 814.2 148.1;" xml:space="preserve">
<style type="text/css">
	.st0{display:none;}
	.st1{fill:#18717A;}
	.st2{fill:#EA9C68;}
</style>
<g id="BG_dark" class="st0">
</g>
<g id="trees_3">
</g>
<g id="green">
</g>
<g id="light_green">
</g>
<g id="orange">
</g>
<g id="tree_row_back">
	<g>
		<path class="st1" d="M202.4,395h-69.7c-3.1,0-5.3-2.9-4.6-5.9l34-138.5c1.2-4.9,8.2-4.9,9.4,0L207,389.1
			C207.8,392.1,205.5,395,202.4,395z"/>
	</g>
	<g>
		<path class="st1" d="M296.2,395h-69.7c-3.1,0-5.3-2.9-4.6-5.9l34-138.5c1.2-4.9,8.2-4.9,9.4,0l35.5,138.5
			C301.5,392.1,299.3,395,296.2,395z"/>
	</g>
	<g>
		<path class="st1" d="M389.9,395h-69.7c-3.1,0-5.3-2.9-4.6-5.9l34-138.5c1.2-4.9,8.2-4.9,9.4,0l35.5,138.5
			C395.2,392.1,393,395,389.9,395z"/>
	</g>
	<g>
		<path class="st1" d="M483.6,395h-69.7c-3.1,0-5.3-2.9-4.6-5.9l34-138.5c1.2-4.9,8.2-4.9,9.4,0l35.5,138.5
			C489,392.1,486.7,395,483.6,395z"/>
	</g>
	<g>
		<path class="st1" d="M577,395h-69.7c-3.1,0-5.3-2.9-4.6-5.9l34-138.5c1.2-4.9,8.2-4.9,9.4,0l35.5,138.5
			C582.4,392.1,580.1,395,577,395z"/>
	</g>
	<g>
		<path class="st1" d="M670.7,395H601c-3.1,0-5.3-2.9-4.6-5.9l34-138.5c1.2-4.9,8.2-4.9,9.4,0l35.5,138.5
			C676.1,392.1,673.8,395,670.7,395z"/>
	</g>
	<g>
		<path class="st2" d="M764.5,395h-69.7c-3.1,0-5.3-2.9-4.6-5.9l34-138.5c1.2-4.9,8.2-4.9,9.4,0l35.5,138.5
			C769.8,392.1,767.6,395,764.5,395z"/>
	</g>
	<g>
		<path class="st1" d="M858.2,395h-69.7c-3.1,0-5.3-2.9-4.6-5.9l34-138.5c1.2-4.9,8.2-4.9,9.4,0l35.5,138.5
			C863.6,392.1,861.3,395,858.2,395z"/>
	</g>
</g>
<g id="tree_row_front">
</g>
</svg>
