<?xml version="1.0" encoding="utf-8"?>
<!-- Generator: Adobe Illustrator 19.1.0, SVG Export Plug-In . SVG Version: 6.00 Build 0)  -->
<svg version="1.1" id="Lager_1" xmlns="http://www.w3.org/2000/svg" xmlns:xlink="http://www.w3.org/1999/xlink" x="0px" y="0px"
	 viewBox="258.9 240 836.2 161.9" style="enable-background:new 258.9 240 836.2 161.9;" xml:space="preserve">
<style type="text/css">
	.st0{display:none;}
	.st1{fill:#4ACCC2;}
	.st2{fill:#EA9C68;}
</style>
<g id="BG_dark" class="st0">
</g>
<g id="trees_3">
</g>
<g id="green">
</g>
<g id="light_green">
</g>
<g id="orange">
</g>
<g id="tree_row_back">
</g>
<g id="tree_row_front">
	<g>
		<path class="st1" d="M340.3,401.9h-76.1c-3.4,0-6-3.2-5.2-6.6l37.2-151.1c1.4-5.5,9.2-5.6,10.6-0.1l38.7,151.1
			C346.3,398.7,343.8,401.9,340.3,401.9z"/>
	</g>
	<g>
		<path class="st2" d="M433.7,401.9h-76.1c-3.4,0-6-3.2-5.2-6.6l37.1-151.1c1.4-5.5,9.2-5.6,10.6-0.1l38.7,151.1
			C439.7,398.7,437.2,401.9,433.7,401.9z"/>
	</g>
	<g>
		<path class="st1" d="M527.8,401.9h-76.1c-3.4,0-6-3.2-5.2-6.6l37.1-151.1c1.4-5.5,9.2-5.6,10.6-0.1l38.7,151.1
			C533.8,398.7,531.3,401.9,527.8,401.9z"/>
	</g>
	<g>
		<path class="st1" d="M621.2,401.9h-76.1c-3.4,0-6-3.2-5.2-6.6L577,244.2c1.4-5.5,9.2-5.6,10.6-0.1l38.7,151.1
			C627.2,398.7,624.6,401.9,621.2,401.9z"/>
	</g>
	<g>
		<path class="st1" d="M714.9,401.9h-76.1c-3.4,0-6-3.2-5.2-6.6l37.1-151.1c1.4-5.5,9.2-5.6,10.6-0.1L720,395.3
			C720.9,398.7,718.4,401.9,714.9,401.9z"/>
	</g>
	<g>
		<path class="st1" d="M808.3,401.9h-76.1c-3.4,0-6-3.2-5.2-6.6l37.1-151.1c1.4-5.5,9.2-5.6,10.6-0.1l38.7,151.1
			C814.3,398.7,811.7,401.9,808.3,401.9z"/>
	</g>
	<g>
		<path class="st1" d="M902.4,401.9h-76.1c-3.4,0-6-3.2-5.2-6.6l37.1-151.1c1.4-5.5,9.2-5.6,10.6-0.1l38.7,151.1
			C908.4,398.7,905.8,401.9,902.4,401.9z"/>
	</g>
	<g>
		<path class="st1" d="M995.7,401.9h-76.1c-3.4,0-6-3.2-5.2-6.6l37.1-151.1c1.4-5.5,9.2-5.6,10.6-0.1l38.7,151.1
			C1001.7,398.7,999.2,401.9,995.7,401.9z"/>
	</g>
	<g>
		<path class="st1" d="M1089.8,401.9h-76.1c-3.4,0-6-3.2-5.2-6.6l37.1-151.1c1.4-5.5,9.2-5.6,10.6-0.1l38.7,151.1
			C1095.8,398.7,1093.2,401.9,1089.8,401.9z"/>
	</g>
</g>
</svg>
