<?xml version="1.0" encoding="utf-8"?>
<!-- Generator: Adobe Illustrator 19.1.0, SVG Export Plug-In . SVG Version: 6.00 Build 0)  -->
<svg version="1.1" id="Lager_1" xmlns="http://www.w3.org/2000/svg" xmlns:xlink="http://www.w3.org/1999/xlink" x="0px" y="0px"
	 viewBox="0 0 960 162" style="enable-background:new 0 0 960 162;" xml:space="preserve">
<style type="text/css">
	.st0{fill:#EBF2F2;}
	.st1{fill:#EBEDED;}
	.st2{fill:#EDF2F1;}
	.st3{fill:#F2F9F8;}
	.st4{fill:#EDEDED;}
	.st5{fill:#F0F2F1;}
	.st6{fill:#EAEAEA;}
	.st7{fill:#E3E5E5;}
	.st8{fill:#EAEFEF;}
	.st9{fill:#E5EAE9;}
	.st10{fill:#F2F4F4;}
</style>
<g>
	<g>
		<path class="st0" d="M739.4,111.6c0-38.1-30.5-73.6-69-69c-29.3,3.5-54.8,18.6-64.6,44.7c-4.4,11.7,4.4,24.2,17,24.2l260.5-0.8
			c11.1,0,19-10.9,15.5-21.5c-9-27.1-34.6-44.4-64.6-46.6c-37.5-2.8-68,30.5-68,68"/>
		<path class="st0" d="M716.5,111.8c-15.5-10.5-25.7-28.3-25.7-48.4c0-32.2,26.1-58.4,58.4-58.4c32.2,0,58.4,26.1,58.4,58.4
			c0,19.4-9.5,36.7-24.1,47.3"/>
	</g>
	<path class="st0" d="M699.8,111.6c8.1-22.5,29.6-38.5,54.9-38.5c24.9,0,46.2,15.6,54.6,37.6"/>
</g>
<path class="st1" d="M166.1,24.5c-20.9-1.5-38.7,13-42.6,32.4l0,0c-3.2-2.3-7.3-3.5-11.7-2.9c-7.3,0.9-13.1,6.8-14.1,14.1
	c0,0.1,0,0.1,0,0.2c-0.5,3.9,2.7,7.3,6.6,7.3l19.9,0h5.3h66.7c3.8,0,6.9-2.9,7.3-6.7c0.3-3.1,0.3-6.4-0.2-9.7
	C200.7,40.4,185,25.8,166.1,24.5z"/>
<g>
	<path class="st0" d="M584.4,123.6c0-31-30.5-59.8-69-56.1c-29.3,2.9-54.8,15.1-64.6,36.3c-4.4,9.5,4.4,19.7,17,19.7l260.5-0.7
		c11.1,0,19-8.9,15.5-17.5c-9-22-34.6-36.1-64.6-37.9c-37.5-2.3-68,24.8-68,55.3"/>
	<path class="st0" d="M559.5,123.8c-15.5-7.6-25.7-20.6-25.7-35.3c0-23.5,26.1-42.5,58.4-42.5c32.2,0,58.4,19,58.4,42.5
		c0,14.2-9.5,26.7-24.1,34.5"/>
</g>
<g>
	<path class="st2" d="M277.4,98.6c0-31-30.5-59.8-69-56.1c-29.3,2.9-54.8,15.1-64.6,36.3c-4.4,9.5,4.4,19.7,17,19.7l260.5-0.7
		c11.1,0,19-8.9,15.5-17.5c-9-22-34.6-36.1-64.6-37.9c-37.5-2.3-68,24.8-68,55.3"/>
	<path class="st2" d="M252.5,98.8c-15.5-7.6-25.7-20.6-25.7-35.3c0-23.5,26.1-42.5,58.4-42.5s58.4,19,58.4,42.5
		c0,14.2-9.5,26.7-24.1,34.5"/>
</g>
<g>
	<path class="st3" d="M527.4,86.6c0-31-30.5-59.8-69-56.1c-29.3,2.9-54.8,15.1-64.6,36.3c-4.4,9.5,4.4,19.7,17,19.7l260.5-0.7
		c11.1,0,19-8.9,15.5-17.5c-9-22-34.6-36.1-64.6-37.9c-37.5-2.3-68,24.8-68,55.3"/>
	<path class="st3" d="M502.5,86.8c-15.5-7.6-25.7-20.6-25.7-35.3C476.8,28,502.9,9,535.1,9s58.4,19,58.4,42.5
		c0,14.2-9.5,26.7-24.1,34.5"/>
</g>
<path class="st4" d="M648.8,122.6c8.1-18.3,29.6-31.3,54.9-31.3c24.9,0,46.2,12.7,54.6,30.6"/>
<g>
	<g>
		<path class="st3" d="M232.4,144.6c0-38.1-30.5-73.6-69-69c-29.3,3.5-54.8,18.6-64.6,44.7c-4.4,11.7,4.4,24.2,17,24.2l260.5-0.8
			c11.1,0,19-10.9,15.5-21.5c-9-27.1-34.6-44.4-64.6-46.6c-37.5-2.8-68,30.5-68,68"/>
		<path class="st3" d="M209.5,144.8c-15.5-10.5-25.7-28.3-25.7-48.4c0-32.2,26.1-58.4,58.4-58.4s58.4,26.1,58.4,58.4
			c0,19.4-9.5,36.7-24.1,47.3"/>
	</g>
	<path class="st3" d="M192.8,144.6c8.1-22.5,29.6-38.5,54.9-38.5c24.9,0,46.2,15.6,54.6,37.6"/>
</g>
<path class="st4" d="M260.1,80.7c-9.6-1-18.7,1.3-26.3,5.7c-10.3-14.2-27-23.4-45.9-23.4c-23,0-42.8,13.7-51.7,33.4
	c-1.6-0.3-3.3-0.4-5.1-0.4c-13.2,0-24.4,8.3-28.8,20c-2.5-1-5.3-1.4-8.2-0.9c-6.7,1-12.1,6.4-13.1,13.2c0,0.1,0,0.1,0,0.2
	c-0.5,3.4,2.2,6.4,5.7,6.4l14.9,0h10.2h21.4h27.5h53.5h28.5H283c9.3,0,16.5-8.2,15.2-17.4c0-0.1,0-0.3-0.1-0.4
	C295.3,97.7,279.5,82.7,260.1,80.7z"/>
<path class="st0" d="M372.7,142.6c-0.5-25.6-21.4-46.2-47.1-46.2c-21.4,0-39.5,14.3-45.2,33.9c-1.4-0.3-3-0.4-4.5-0.4
	c-8.8,0-16.6,4.8-21,11.8c-3.4,5.5,0.8,12.5,7.2,12.5l102.4-0.2c4.5,0,8.2-3.7,8.2-8.2L372.7,142.6z"/>
<path class="st3" d="M927.9,38.3c-8-0.3-15.3,2.8-20.7,7.9c-0.4,0.4-1,0.5-1.5,0.3c-1.4-0.6-2.9-0.9-4.5-1c-2.4-0.1-4.8,0.5-6.8,1.6
	c-2.3,1.3-1.4,4.8,1.3,4.9l6.6,0.2l10,0.3l34.8,1.2c2.3,0.1,3.7-2.6,2.3-4.4C944.4,42.8,936.7,38.6,927.9,38.3z"/>
<path class="st5" d="M134.1,2.8c-8.1,0-15.5,2.8-21.6,7.2c-2.8-1.6-5.9-2.7-9.2-3.1c-5-2.6-10.6-4.1-16.5-4.1
	c-8.1,0-15.5,2.8-21.6,7.2c-3.7-2.1-7.9-3.3-12.5-3.3c-5.8,0-11.2,2-15.5,5.4c-1.3,1-0.6,3.2,1.1,3.2l118.5,0c1.7,0,2.5-2.1,1.2-3.3
	C151.7,6.4,143.3,2.8,134.1,2.8z"/>
<g>
	<g>
		<path class="st1" d="M486.4,154.6c0-39.4-30.5-76.2-69-71.4c-29.3,3.7-54.8,19.2-64.6,46.3c-4.4,12.1,4.4,25.1,17,25.1l260.5-0.8
			c11.1,0,19-11.3,15.5-22.3c-9-28-34.6-46-64.6-48.3c-37.5-2.9-68,31.5-68,70.5"/>
		<path class="st1" d="M463.5,154.8c-15.5-10.9-25.7-29.3-25.7-50.1c0-33.4,26.1-60.5,58.4-60.5s58.4,27.1,58.4,60.5
			c0,20.1-9.5,38-24.1,49"/>
	</g>
	<path class="st1" d="M446.8,154.6c8.1-23.3,29.6-39.9,54.9-39.9c24.9,0,46.2,16.2,54.6,38.9"/>
</g>
<path class="st3" d="M617.2,81.9c9.6-1.3,18.7,1.7,26.3,7.6c10.3-18.8,27-31.1,45.9-31.1c23,0,42.8,18.2,51.7,44.4
	c1.6-0.4,3.3-0.6,5.1-0.6c13.2,0,24.4,11.1,28.8,26.6c2.5-1.3,5.3-1.8,8.2-1.2c6.7,1.4,12.1,8.6,13.1,17.5c0,0.1,0,0.1,0,0.2
	c0.5,4.5-2.2,8.4-5.7,8.4l-14.9,0h-10.2h-21.4h-27.5h-53.5h-28.5h-40.3c-9.3,0-16.5-10.9-15.2-23.1c0-0.2,0-0.4,0.1-0.6
	C582.1,104.6,597.9,84.5,617.2,81.9z"/>
<path class="st6" d="M392.6,7.8c-8.1,0-15.5,2.8-21.6,7.2c-2.8-1.6-5.9-2.7-9.2-3.1c-5-2.6-10.6-4.1-16.5-4.1
	c-8.1,0-15.5,2.8-21.6,7.2c-3.7-2.1-7.9-3.3-12.5-3.3c-5.8,0-11.2,2-15.5,5.4c-1.3,1-0.6,3.2,1.1,3.2l118.5,0c1.7,0,2.5-2.1,1.2-3.3
	C410.2,11.5,401.8,7.8,392.6,7.8z"/>
<path class="st3" d="M451.9,6.6c8,0,15.2,3.3,20.4,8.6c0.4,0.4,0.9,0.5,1.4,0.3c1.4-0.5,2.9-0.8,4.5-0.8c2.5,0,4.7,0.7,6.7,1.9
	c2.2,1.4,1.2,4.8-1.4,4.8l-6.6,0h-10l-34.8,0c-2.3,0-3.6-2.7-2.1-4.5C435.2,10.6,443.1,6.6,451.9,6.6z"/>
<path class="st7" d="M55.1,21.4c10.4,0,19.8,4.3,26.5,11.2c0.5,0.5,1.2,0.6,1.9,0.4c1.8-0.7,3.8-1.1,5.9-1.1c3.2,0,6.2,0.9,8.7,2.4
	c2.9,1.8,1.5,6.3-1.9,6.3l-8.6,0h-13l-45.3,0c-3,0-4.7-3.6-2.7-5.9C33.4,26.6,43.7,21.4,55.1,21.4z"/>
<path class="st3" d="M919.8,58.3c-9.6-1.1-18.7,1.4-26.3,6.2c-10.3-15.3-27-25.3-45.9-25.3c-23,0-42.8,14.8-51.7,36.2
	c-1.6-0.3-3.3-0.5-5.1-0.5c-13.2,0-24.4,9-28.8,21.7c-2.5-1.1-5.3-1.5-8.2-1c-6.7,1.1-12.1,7-13.1,14.3c0,0.1,0,0.1,0,0.2
	c-0.5,3.7,2.2,6.9,5.7,6.9l14.9,0h10.2h21.4h27.5h53.5h28.5h40.3c9.3,0,16.5-8.8,15.2-18.8c0-0.2,0-0.3-0.1-0.5
	C954.9,76.7,939.1,60.4,919.8,58.3z"/>
<path class="st8" d="M778.9,65.9c9.6-1,18.7,1.3,26.3,5.7c10.3-14.2,27-23.4,45.9-23.4c23,0,42.8,13.7,51.7,33.4
	c1.6-0.3,3.3-0.4,5.1-0.4c13.2,0,24.4,8.3,28.8,20c2.5-1,5.3-1.4,8.2-0.9c6.7,1,12.1,6.4,13.1,13.2c0,0.1,0,0.1,0,0.2
	c0.5,3.4-2.2,6.4-5.7,6.4l-14.9,0h-10.2h-21.4h-27.5h-53.5h-28.5H756c-9.3,0-16.5-8.2-15.2-17.4c0-0.1,0-0.3,0.1-0.4
	C743.7,82.9,759.5,67.8,778.9,65.9z"/>
<g>
	<path class="st9" d="M798.4,154.6c0-31-30.5-59.8-69-56.1c-29.3,2.9-54.8,15.1-64.6,36.3c-4.4,9.5,4.4,19.7,17,19.7l260.5-0.7
		c11.1,0,19-8.9,15.5-17.5c-9-22-34.6-36.1-64.6-37.9c-37.5-2.3-68,24.8-68,55.3"/>
	<path class="st9" d="M773.5,154.8c-15.5-7.6-25.7-20.6-25.7-35.3c0-23.5,26.1-42.5,58.4-42.5c32.2,0,58.4,19,58.4,42.5
		c0,14.2-9.5,26.7-24.1,34.5"/>
</g>
<path class="st2" d="M683.1,7.8c-8.1,0-15.5,2.8-21.6,7.2c-2.8-1.6-5.9-2.7-9.2-3.1c-5-2.6-10.6-4.1-16.5-4.1
	c-8.1,0-15.5,2.8-21.6,7.2c-3.7-2.1-7.9-3.3-12.5-3.3c-5.8,0-11.2,2-15.5,5.4c-1.3,1-0.6,3.2,1.1,3.2l118.5,0c1.7,0,2.5-2.1,1.2-3.3
	C700.7,11.5,692.3,7.8,683.1,7.8z"/>
<path class="st0" d="M203.4,3.9c8,0,15.2,4.5,20.4,11.8c0.4,0.5,0.9,0.7,1.4,0.4c1.4-0.7,2.9-1.1,4.5-1.1c2.5,0,4.7,0.9,6.7,2.6
	c2.2,1.9,1.2,6.7-1.4,6.7l-6.6,0h-10l-34.8,0c-2.3,0-3.6-3.8-2.1-6.2C186.7,9.3,194.6,3.9,203.4,3.9z"/>
<path class="st10" d="M74.5,61.3c-20.9-1.5-38.7,13-42.6,32.4l0,0c-3.2-2.3-7.3-3.5-11.7-2.9C12.9,91.8,7,97.7,6.1,105
	c0,0.1,0,0.1,0,0.2c-0.5,3.9,2.7,7.3,6.6,7.3l19.9,0h5.3h66.7c3.8,0,6.9-2.9,7.3-6.7c0.3-3.1,0.3-6.4-0.2-9.7
	C109,77.2,93.4,62.6,74.5,61.3z"/>
<g>
	<g>
		<path class="st3" d="M139.4,154.6c0-38.1-30.5-73.6-69-69c-29.3,3.5-54.8,18.6-64.6,44.7c-4.4,11.7,4.4,24.2,17,24.2l260.5-0.8
			c11.1,0,19-10.9,15.5-21.5c-9-27.1-34.6-44.4-64.6-46.6c-37.5-2.8-68,30.5-68,68"/>
		<path class="st3" d="M116.5,154.8c-15.5-10.5-25.7-28.3-25.7-48.4c0-32.2,26.1-58.4,58.4-58.4s58.4,26.1,58.4,58.4
			c0,19.4-9.5,36.7-24.1,47.3"/>
	</g>
	<path class="st3" d="M99.8,154.6c8.1-22.5,29.6-38.5,54.9-38.5c24.9,0,46.2,15.6,54.6,37.6"/>
</g>
<path class="st2" d="M915.8,15.2c-8.1,0-15.5,2.8-21.6,7.2c-2.8-1.6-5.9-2.7-9.2-3.1c-5-2.6-10.6-4.1-16.5-4.1
	c-8.1,0-15.5,2.8-21.6,7.2c-3.7-2.1-7.9-3.3-12.5-3.3c-5.8,0-11.2,2-15.5,5.4c-1.3,1-0.6,3.2,1.1,3.2l118.5,0c1.7,0,2.5-2.1,1.2-3.3
	C933.4,18.8,925,15.2,915.8,15.2z"/>
</svg>
