<?xml version="1.0" encoding="utf-8"?>
<!-- Generator: Adobe Illustrator 19.1.0, SVG Export Plug-In . SVG Version: 6.00 Build 0)  -->
<svg version="1.1" id="Layer_1" xmlns="http://www.w3.org/2000/svg" xmlns:xlink="http://www.w3.org/1999/xlink" x="0px" y="0px"
	 viewBox="-894 -42.3 445.1 257.3" style="enable-background:new -894 -42.3 445.1 257.3;" xml:space="preserve">
<style type="text/css">
	.st0{fill:#5B463B;}
</style>
<path class="st0" d="M-597.6-21.3c60.6,0,110.4,48.9,110.4,109.5s0,110.2,0,110.2h-220.1c0,0,0-64.8,0-110
	C-707.3,27.8-658.2-21.3-597.6-21.3z"/>
<path class="st0" d="M-775.6,26.5c47.4,0,86.4,38.3,86.4,85.7s0,86.3,0,86.3h-172.2c0,0,0-50.7,0-86.1
	C-861.4,64.9-823,26.5-775.6,26.5z"/>
<path class="st0" d="M-868.7,189.2c2.5,0,4.6,2,4.6,4.6s0,4.6,0,4.6h-9.2c0,0,0-2.7,0-4.6C-873.3,191.3-871.2,189.2-868.7,189.2z"/>
<path class="st0" d="M-877.1,193.5c1.3,0,2.5,1.1,2.5,2.4s0,2.5,0,2.5h-4.9c0,0,0-1.4,0-2.5C-879.6,194.6-878.5,193.5-877.1,193.5z"
	/>
</svg>
