<?xml version="1.0" encoding="utf-8"?>
<!-- Generator: Adobe Illustrator 19.1.0, SVG Export Plug-In . SVG Version: 6.00 Build 0)  -->
<svg version="1.1" id="Layer_1" xmlns="http://www.w3.org/2000/svg" xmlns:xlink="http://www.w3.org/1999/xlink" x="0px" y="0px"
	 viewBox="-247 232 528.7 306" style="enable-background:new -247 232 528.7 306;" xml:space="preserve">
<style type="text/css">
	.st0{fill:#5B463B;}
	.st1{fill:none;stroke:#EDA574;stroke-width:8;stroke-linecap:round;stroke-miterlimit:10;}
	.st2{fill:none;stroke:#EDA574;stroke-width:5;stroke-linecap:round;stroke-miterlimit:10;}
</style>
<g id="Layer_1_1_">
	<path class="st0" d="M121.8,448.2c0.6,5.7-3.8,10.6-9.5,10.6l-165.4,0.5c-5.7,0-10.2-4.9-9.6-10.6C-57.5,397.8-17.8,328,29.9,328
		C77.5,328,116.8,397.3,121.8,448.2z"/>
	<path class="st0" d="M-89.9,370.8c0.2,2.8-2,5.3-4.8,5.3l-82.7,0.3c-2.9,0-5.1-2.5-4.8-5.3c2.6-25.4,22.5-60.3,46.3-60.3
		S-92.4,345.5-89.9,370.8z"/>
	<path class="st0" d="M216.9,450.8c0.4,4-2.7,7.5-6.7,7.5l-117,0.4c-4.1,0-7.2-3.5-6.8-7.5c3.6-36,31.8-85.3,65.5-85.3
		S213.4,414.8,216.9,450.8z"/>
</g>
<g>
	<line class="st1" x1="-56.9" y1="455.3" x2="-52.4" y2="412.2"/>
	<line class="st1" x1="-57.7" y1="455.3" x2="-69.3" y2="426.9"/>
	<line class="st1" x1="-57" y1="456.3" x2="-32.9" y2="420.6"/>
</g>
<g>
	<line class="st2" x1="-181.5" y1="373.7" x2="-179.2" y2="351"/>
	<line class="st2" x1="-181.9" y1="373.7" x2="-188.1" y2="358.7"/>
	<line class="st2" x1="-181.5" y1="374.2" x2="-168.8" y2="355.4"/>
</g>
</svg>
