<?xml version="1.0" encoding="utf-8"?>
<!-- Generator: Adobe Illustrator 19.1.0, SVG Export Plug-In . SVG Version: 6.00 Build 0)  -->
<svg version="1.1" id="Layer_1" xmlns="http://www.w3.org/2000/svg" xmlns:xlink="http://www.w3.org/1999/xlink" x="0px" y="0px"
	 viewBox="-247 232 528.7 306" style="enable-background:new -247 232 528.7 306;" xml:space="preserve">
<style type="text/css">
	.st0{fill:#EDA574;}
	.st1{fill:#1C88A5;stroke:#000000;stroke-miterlimit:10;}
	.st2{fill:#5B463B;}
	.st3{fill:none;stroke:#18717A;stroke-linecap:round;stroke-miterlimit:10;}
	.st4{fill:#18717A;}
</style>
<g id="Layer_2">
	<rect x="-1743.6" y="698.8" class="st0" width="960" height="560"/>
</g>
<g id="Layer_1_1_">
	<rect x="-1699.2" y="790.4" class="st1" width="195.8" height="146.2"/>
	<rect x="-1738.9" y="698.6" class="st1" width="961.2" height="560.3"/>
	<circle class="st2" cx="-1600" cy="878.3" r="3.5"/>
	<circle class="st2" cx="-1612.5" cy="877.1" r="9.8"/>
	<line class="st3" x1="-1603.2" y1="869.4" x2="-1602.4" y2="865.8"/>
	<line class="st3" x1="-1602.2" y1="876.7" x2="-1604.2" y2="864.9"/>
	<line class="st3" x1="-1602.5" y1="876.8" x2="-1607" y2="868.4"/>
	<circle class="st4" cx="-1477.3" cy="820" r="29.4"/>
	<circle class="st4" cx="-1705.3" cy="817" r="27"/>
	<circle class="st4" cx="-1675.8" cy="793.9" r="16.7"/>
	<circle class="st4" cx="-1664" cy="823.7" r="19.9"/>
	<circle class="st4" cx="-1715.1" cy="938.8" r="16.2"/>
	<circle class="st4" cx="-1686" cy="933.8" r="18.4"/>
	<circle class="st4" cx="-1704.3" cy="918.3" r="12.9"/>
	<circle class="st4" cx="-1550.6" cy="929.6" r="22.6"/>
	<circle class="st4" cx="-1516" cy="935.3" r="16.7"/>
	<circle class="st4" cx="-1532.3" cy="948.3" r="12.9"/>
	<circle class="st4" cx="-1213.9" cy="1120.1" r="16.2"/>
	<circle class="st4" cx="-1215.2" cy="1139.5" r="16.2"/>
	<circle class="st2" cx="-1551.5" cy="957.1" r="9.8"/>
	<circle class="st2" cx="-1564.5" cy="963.1" r="3.8"/>
	<circle class="st2" cx="-1681" cy="838.6" r="16.3"/>
	<circle class="st2" cx="-1659.2" cy="843.7" r="10"/>
	<circle class="st2" cx="-1651.5" cy="856.1" r="3.8"/>
	<g id="pSz2uM.tif">
	</g>
	<ellipse class="st2" cx="-1702" cy="1008.6" rx="1.8" ry="1.9"/>
	<circle class="st2" cx="-1712.7" cy="1002.8" r="1.1"/>
	<circle class="st2" cx="-1704" cy="998.5" r="6.4"/>
	<ellipse class="st2" cx="-1707.8" cy="1009.4" rx="2" ry="2.1"/>
	<circle class="st2" cx="-1694.2" cy="998.3" r="7.2"/>
	<circle class="st2" cx="-1596.5" cy="830.1" r="9.8"/>
	<circle class="st2" cx="-1585" cy="822.6" r="7.3"/>
	<circle class="st2" cx="-1580" cy="838.6" r="7.3"/>
	<circle class="st2" cx="-1454.8" cy="887.3" r="16.6"/>
	<circle class="st2" cx="-1429.9" cy="893.1" r="8.7"/>
	<circle class="st2" cx="-1435.3" cy="901.8" r="4.1"/>
	<ellipse class="st2" cx="-1459" cy="907.6" rx="1.8" ry="1.9"/>
	<circle class="st2" cx="-1469.7" cy="901.8" r="1.1"/>
	<ellipse class="st2" cx="-1464.8" cy="908.4" rx="2" ry="2.1"/>
	<circle class="st2" cx="-1536.7" cy="963.8" r="1.1"/>
	<ellipse class="st2" cx="-1540" cy="962.6" rx="1.8" ry="1.9"/>
	<circle class="st2" cx="-1538.3" cy="966.2" r="0.8"/>
	<circle class="st4" cx="-1449.2" cy="808.1" r="24.5"/>
	<circle class="st4" cx="-1449.2" cy="829.1" r="18.6"/>
	<path class="st2" d="M121.8,432.7c0.6,5.7-3.8,10.6-9.5,10.6l-165.4,0.5c-5.7,0-10.2-4.9-9.6-10.6c5.2-50.9,44.9-120.6,92.6-120.6
		C77.5,312.6,116.8,381.9,121.8,432.7z"/>
	<path class="st2" d="M-89.9,355.3c0.2,2.8-2,5.3-4.8,5.3l-82.7,0.3c-2.9,0-5.1-2.5-4.8-5.3c2.6-25.4,22.5-60.3,46.3-60.3
		S-92.4,330-89.9,355.3z"/>
	<path class="st2" d="M-330.8,785.5c1.7,0,3.1,2.5,3.3,4.3c0,0.2-0.1,0.4-0.3,0.4h-5.9c-0.2,0-0.4-0.2-0.3-0.4
		C-333.9,787.9-332.5,785.5-330.8,785.5z"/>
	<path class="st2" d="M216.9,435.3c0.4,4-2.7,7.5-6.7,7.5l-117,0.4c-4.1,0-7.2-3.5-6.8-7.5c3.6-36,31.8-85.3,65.5-85.3
		S213.4,399.4,216.9,435.3z"/>
	<path class="st2" d="M-357.1,801.3c2.2,0,4,3.2,4.3,5.6c0,0.3-0.2,0.5-0.4,0.5h-7.6c-0.3,0-0.5-0.2-0.4-0.5
		C-361.1,804.5-359.3,801.3-357.1,801.3z"/>
	<circle class="st4" cx="-1239.2" cy="1136.3" r="16.2"/>
	<circle class="st4" cx="-1235.2" cy="1113" r="16.2"/>
	<circle class="st4" cx="-1263.6" cy="1136.3" r="16.2"/>
	<circle class="st4" cx="-1255.4" cy="1113" r="16.2"/>
</g>
</svg>
