<?xml version="1.0" encoding="utf-8"?>
<!-- Generator: Adobe Illustrator 19.1.0, SVG Export Plug-In . SVG Version: 6.00 Build 0)  -->
<svg version="1.1" id="Layer_1" xmlns="http://www.w3.org/2000/svg" xmlns:xlink="http://www.w3.org/1999/xlink" x="0px" y="0px"
	 viewBox="0 0 1024 768" style="enable-background:new 0 0 1024 768;" xml:space="preserve">
<style type="text/css">
	.st0{fill:#5B463B;}
</style>
<path class="st0" d="M679.5,447.9c0.6,5.7-3.8,10.6-9.5,10.6L504.7,459c-5.7,0-10.2-4.9-9.6-10.6c5.2-50.9,44.9-120.6,92.6-120.6
	C635.3,327.8,674.5,397,679.5,447.9z"/>
<path class="st0" d="M506.1,390.6c0.2,2.8-2,5.3-4.8,5.3l-82.7,0.3c-2.9,0-5.1-2.5-4.8-5.3c2.6-25.4,22.5-60.3,46.3-60.3
	C483.9,330.6,503.6,365.2,506.1,390.6z"/>
<path class="st0" d="M691.8,457.9c0.1,0.3-0.1,0.5-0.4,0.5h-7.6c-0.2,0-0.4-0.2-0.4-0.5c0.3-2.4,2.1-5.6,4.3-5.6
	S691.7,455.5,691.8,457.9z"/>
<path class="st0" d="M697.7,450.2c0,0.2-0.1,0.3-0.3,0.3h-5.1c-0.2,0-0.3-0.1-0.3-0.3c0.2-1.5,1.4-3.6,2.9-3.6
	C696.3,446.6,697.5,448.7,697.7,450.2z"/>
</svg>
