<?xml version="1.0" encoding="utf-8"?>
<!-- Generator: Adobe Illustrator 19.1.0, SVG Export Plug-In . SVG Version: 6.00 Build 0)  -->
<svg version="1.1" xmlns="http://www.w3.org/2000/svg" xmlns:xlink="http://www.w3.org/1999/xlink" x="0px" y="0px"
	 viewBox="0 0 125 122.6" style="enable-background:new 0 0 125 122.6;" xml:space="preserve">
<style type="text/css">
	.st0{display:none;}
	.st1{display:inline;fill:#18717A;}
	.st2{fill:#13585B;}
	.st3{fill:#F2F9F8;}
	.st4{fill:none;stroke:#31AA9B;stroke-width:8;stroke-linecap:round;stroke-miterlimit:10;}
	.st5{fill:#124C4F;}
	.st6{fill:none;stroke:#1C88A5;stroke-width:8;stroke-linecap:round;stroke-miterlimit:10;}
	.st7{fill:none;stroke:#31AA9B;stroke-width:6;stroke-linecap:round;stroke-miterlimit:10;}
	.st8{fill:#196B6B;}
	.st9{fill:#0E3838;}
	.st10{fill:none;stroke:#EA9C68;stroke-width:6;stroke-linecap:round;stroke-miterlimit:10;}
	.st11{fill:#144948;}
	.st12{fill:#EFEFEF;}
	.st13{fill:#4ACCC2;}
	.st14{fill:#18717A;}
	.st15{fill:#1C88A5;}
	.st16{fill:#1B7989;}
	.st17{fill:#31AA9B;}
	.st18{fill:#EA9C68;}
	.st19{fill:#EDA574;}
	.st20{fill:#5B463B;}
	.st21{fill:none;stroke:#000000;stroke-width:8;stroke-miterlimit:10;}
</style>
<g id="Layer_3" class="st0">
	<rect x="-202.3" y="-468.1" class="st1" width="1024" height="768"/>
</g>
<g id="Layer_1">
	<path class="st9" d="M75.8,6.2c-21.3,0-39.1,15.2-43.1,35.4c-3.4-2.5-7.8-3.7-12.4-3.2c-8,0.9-14.5,7.3-15.6,15.3
		c-0.3,1.8-0.2,3.6,0.1,5.4c0.3,1.6,1.7,2.8,3.3,2.8h25.4h5.8h76.4c1.6,0,2.9-1.1,3.3-2.6c0.6-2.9,0.9-5.9,0.9-9
		C119.8,25.9,100.1,6.2,75.8,6.2z"/>
	<path class="st10" d="M76.7,70.5L70.8,88c-0.7,2,0.8,4.1,2.9,4.1h12.4c2.3,0,3.8,2.4,2.8,4.5l-9,19"/>
	<path class="st10" d="M47.2,70.5l-4.9,14.5c-0.6,1.7,0.7,3.4,2.4,3.4H55c1.9,0,3.1,2,2.3,3.7l-7.4,15.7"/>
</g>
<g id="Layer_2">
</g>
</svg>
