<?xml version="1.0" encoding="utf-8"?>
<!-- Generator: Adobe Illustrator 19.1.0, SVG Export Plug-In . SVG Version: 6.00 Build 0)  -->
<svg version="1.1" id="Layer_1" xmlns="http://www.w3.org/2000/svg" xmlns:xlink="http://www.w3.org/1999/xlink" x="0px" y="0px"
	 viewBox="-247 232 528.7 306" style="enable-background:new -247 232 528.7 306;" xml:space="preserve">
<style type="text/css">
	.st0{fill:#EDA574;}
	.st1{fill:#1C88A5;stroke:#000000;stroke-miterlimit:10;}
	.st2{fill:#5B463B;}
	.st3{fill:none;stroke:#18717A;stroke-linecap:round;stroke-miterlimit:10;}
	.st4{fill:#18717A;}
</style>
<g id="Layer_2">
	<rect x="-1496.6" y="466.8" class="st0" width="960" height="560"/>
</g>
<g id="Layer_1_1_">
	<rect x="-1452.2" y="558.4" class="st1" width="195.8" height="146.2"/>
	<rect x="-1491.9" y="466.6" class="st1" width="961.2" height="560.3"/>
	<circle class="st2" cx="-1353" cy="646.3" r="3.5"/>
	<circle class="st2" cx="-1365.5" cy="645.1" r="9.8"/>
	<line class="st3" x1="-1356.2" y1="637.4" x2="-1355.4" y2="633.8"/>
	<line class="st3" x1="-1355.2" y1="644.7" x2="-1357.2" y2="632.9"/>
	<line class="st3" x1="-1355.5" y1="644.8" x2="-1360" y2="636.4"/>
	<circle class="st4" cx="-1230.3" cy="588" r="29.4"/>
	<circle class="st4" cx="-1458.3" cy="585" r="27"/>
	<circle class="st4" cx="-1428.8" cy="561.9" r="16.7"/>
	<circle class="st4" cx="-1417" cy="591.7" r="19.9"/>
	<circle class="st4" cx="-1468.1" cy="706.8" r="16.2"/>
	<circle class="st4" cx="-1439" cy="701.8" r="18.4"/>
	<circle class="st4" cx="-1457.3" cy="686.3" r="12.9"/>
	<circle class="st4" cx="-1303.6" cy="697.6" r="22.6"/>
	<circle class="st4" cx="-1269" cy="703.3" r="16.7"/>
	<circle class="st4" cx="-1285.3" cy="716.3" r="12.9"/>
	<circle class="st4" cx="-966.9" cy="888.1" r="16.2"/>
	<circle class="st4" cx="-968.2" cy="907.5" r="16.2"/>
	<circle class="st2" cx="-1304.5" cy="725.1" r="9.8"/>
	<circle class="st2" cx="-1317.5" cy="731.1" r="3.8"/>
	<circle class="st2" cx="-1434" cy="606.6" r="16.3"/>
	<circle class="st2" cx="-1412.2" cy="611.7" r="10"/>
	<circle class="st2" cx="-1404.5" cy="624.1" r="3.8"/>
	<g id="pSz2uM.tif">
		
			<image style="overflow:visible;enable-background:new    ;" width="407" height="219" id="Layer_0_1_" xlink:href="184C76091B3766D0.png"  transform="matrix(0.3236 0 0 0.3217 -1075.7732 582.3414)">
		</image>
	</g>
	<ellipse class="st2" cx="-1455" cy="776.6" rx="1.8" ry="1.9"/>
	<circle class="st2" cx="-1465.7" cy="770.8" r="1.1"/>
	<circle class="st2" cx="-1457" cy="766.5" r="6.4"/>
	<ellipse class="st2" cx="-1460.8" cy="777.4" rx="2" ry="2.1"/>
	<circle class="st2" cx="-1447.2" cy="766.3" r="7.2"/>
	<circle class="st2" cx="-1349.5" cy="598.1" r="9.8"/>
	<circle class="st2" cx="-1338" cy="590.6" r="7.3"/>
	<circle class="st2" cx="-1333" cy="606.6" r="7.3"/>
	<circle class="st2" cx="-1207.8" cy="655.3" r="16.6"/>
	<circle class="st2" cx="-1182.9" cy="661.1" r="8.7"/>
	<circle class="st2" cx="-1188.3" cy="669.8" r="4.1"/>
	<ellipse class="st2" cx="-1212" cy="675.6" rx="1.8" ry="1.9"/>
	<circle class="st2" cx="-1222.7" cy="669.8" r="1.1"/>
	<ellipse class="st2" cx="-1217.8" cy="676.4" rx="2" ry="2.1"/>
	<circle class="st2" cx="-1289.7" cy="731.8" r="1.1"/>
	<ellipse class="st2" cx="-1293" cy="730.6" rx="1.8" ry="1.9"/>
	<circle class="st2" cx="-1291.3" cy="734.2" r="0.8"/>
	<circle class="st4" cx="-1202.2" cy="576.1" r="24.5"/>
	<circle class="st4" cx="-1202.2" cy="597.1" r="18.6"/>
	<path class="st2" d="M32,322.3c47.7,0,87.4,69.7,92.6,120.6c0.6,5.7-3.9,10.6-9.6,10.6L-50.4,453c-5.7,0-10.1-4.9-9.5-10.6
		C-54.9,391.6-15.6,322.3,32,322.3z"/>
	<path class="st2" d="M197.8,305c23.8,0,43.7,34.9,46.3,60.3c0.3,2.8-1.9,5.3-4.8,5.3l-82.7-0.3c-2.8,0-5-2.5-4.8-5.3
		C154.3,339.7,174,305,197.8,305z"/>
	<path class="st2" d="M-83.8,553.5c1.7,0,3.1,2.5,3.3,4.3c0,0.2-0.1,0.4-0.3,0.4h-5.9c-0.2,0-0.4-0.2-0.3-0.4
		C-86.9,555.9-85.5,553.5-83.8,553.5z"/>
	<path class="st2" d="M-90,360.1c33.7,0,61.9,49.3,65.5,85.3c0.4,4-2.7,7.5-6.8,7.5l-117-0.4c-4,0-7.1-3.5-6.7-7.5
		C-151.5,409.1-123.7,360.1-90,360.1z"/>
	<path class="st2" d="M-110.1,569.3c2.2,0,4,3.2,4.3,5.6c0,0.3-0.2,0.5-0.4,0.5h-7.6c-0.3,0-0.5-0.2-0.4-0.5
		C-114.1,572.5-112.3,569.3-110.1,569.3z"/>
	<circle class="st4" cx="-992.2" cy="904.3" r="16.2"/>
	<circle class="st4" cx="-988.2" cy="881" r="16.2"/>
	<circle class="st4" cx="-1016.6" cy="904.3" r="16.2"/>
	<circle class="st4" cx="-1008.4" cy="881" r="16.2"/>
</g>
</svg>
