<?xml version="1.0" encoding="utf-8"?>
<!-- Generator: Adobe Illustrator 19.1.0, SVG Export Plug-In . SVG Version: 6.00 Build 0)  -->
<svg version="1.1" xmlns="http://www.w3.org/2000/svg" xmlns:xlink="http://www.w3.org/1999/xlink" x="0px" y="0px"
	 viewBox="0 0 109 79.6" style="enable-background:new 0 0 109 79.6;" xml:space="preserve">
<style type="text/css">
	.st0{display:none;}
	.st1{display:inline;fill:#18717A;}
	.st2{fill:#13585B;}
	.st3{fill:#F2F9F8;}
	.st4{fill:none;stroke:#31AA9B;stroke-width:8;stroke-linecap:round;stroke-miterlimit:10;}
	.st5{fill:#124C4F;}
	.st6{fill:none;stroke:#1C88A5;stroke-width:8;stroke-linecap:round;stroke-miterlimit:10;}
	.st7{fill:none;stroke:#31AA9B;stroke-width:6;stroke-linecap:round;stroke-miterlimit:10;}
	.st8{fill:#196B6B;}
	.st9{fill:#0E3838;}
	.st10{fill:none;stroke:#EA9C68;stroke-width:6;stroke-linecap:round;stroke-miterlimit:10;}
	.st11{fill:#144948;}
	.st12{fill:#EFEFEF;}
	.st13{fill:#4ACCC2;}
	.st14{fill:#18717A;}
	.st15{fill:#1C88A5;}
	.st16{fill:#1B7989;}
	.st17{fill:#31AA9B;}
	.st18{fill:#EA9C68;}
	.st19{fill:#EDA574;}
	.st20{fill:#5B463B;}
	.st21{fill:none;stroke:#000000;stroke-width:8;stroke-miterlimit:10;}
</style>
<g id="Layer_3" class="st0">
	<rect x="-403.3" y="-460.2" class="st1" width="1024" height="768"/>
</g>
<g id="Layer_1">
	<path class="st10" d="M37.4,38.7l-4.3,12.7c-0.5,1.5,0.6,3,2.1,3h9c1.7,0,2.7,1.7,2,3.2l-6.5,13.7"/>
	<path class="st11" d="M6.2,30.3c-1.5,0-2.4-1.6-1.8-2.9C9,18.8,18.3,12.2,29,12.2c4.9,0,9.5,1.3,13.5,3.6c0.7,0.4,1.7,0.3,2.3-0.3
		C51.3,9.2,60.3,5.2,70.1,5.2c15.1,0,28,9.7,33.5,22.4c0.6,1.3-0.4,2.7-1.8,2.7L6.2,30.3z"/>
</g>
<g id="Layer_2">
</g>
</svg>
