<?xml version="1.0" encoding="utf-8"?>
<!-- Generator: Adobe Illustrator 19.1.0, SVG Export Plug-In . SVG Version: 6.00 Build 0)  -->
<svg version="1.1" id="Layer_1" xmlns="http://www.w3.org/2000/svg" xmlns:xlink="http://www.w3.org/1999/xlink" x="0px" y="0px"
	 viewBox="192 8.5 1024 464.5" style="enable-background:new 192 8.5 1024 464.5;" xml:space="preserve">
<style type="text/css">
	.st0{display:none;}
	.st1{display:inline;fill:#31AA9B;}
	.st2{display:inline;fill:#18717A;}
	.st3{fill:#EDA574;}
	.st4{fill:#F2F9F8;}
</style>
<g id="Layer_3" class="st0">
	<rect x="191" y="302.9" class="st1" width="1025" height="500.1"/>
</g>
<g id="ocean" class="st0">
	<path class="st2" d="M1211.6,305.6H195.8c-2.6,0-4.8-1.5-4.8-3.4v-455.3c0-1.9,2.1-3.4,4.8-3.4h1015.8c2.6,0,4.8,1.5,4.8,3.4v455.3
		C1216.3,304,1214.2,305.6,1211.6,305.6z"/>
</g>
<g id="Layer_4">
</g>
<g id="montain_back">
</g>
<g id="montain_front">
</g>
<g id="Layer_7">
</g>
<path class="st3" d="M549.3,470.5c2.1,0,3.7-1.7,3.7-3.7l0,0c2-81.8,69.2-147.5,151.5-147.5c82.6,0,149.5,66.2,151.5,148.5l0,0
	c0,1.5,1.1,2.7,2.6,2.7l349.3,0.2c3.6,0,5.7-4,3.7-7L976.4,118c-6.4-10.3-21.3-10.6-28.1-0.6L895,195.5c-3.1,4.6-9.9,4.5-13,0
	L775.9,38.1c-6.1-9-19.3-8.7-25.1,0.5l-118.1,190c-2.3,3.7-7.6,3.7-10,0.1L536.4,96.5c-4.9-8-16.5-8.2-21.7-0.4l-89.6,132.2
	c-3.5,5.2-11.2,5.3-14.8,0.1l-44.8-63.7c-5.9-8.7-18.7-8.4-24.3,0.5l0,0L196.1,463.6c-1.6,3.4,0.8,7.3,4.5,7.3L549.3,470.5z"/>
<path class="st4" d="M765.7,111c14.1,0,39-9.5,49.3-17.7l-38-56.8c-6.2-9.1-19.7-8.9-25.5,0.5l-37.6,60.2
	C724.2,105.8,751.1,111,765.7,111z"/>
<path class="st4" d="M962.7,157.2c12.3,0,24.3-4.9,33.2-12l-19.2-29.1c-6.4-10.3-21.3-10.6-28-0.6l-20,29.2
	C937.9,152.5,949.8,157.2,962.7,157.2z"/>
<path class="st4" d="M356,202.3c11.6,0,20.7-5.3,29.1-12l-17.4-27c-6.1-9.7-20.1-10-26.5-0.6l-14.3,28.9
	C335.6,199.2,343.9,202.3,356,202.3z"/>
</svg>
