<?xml version="1.0" encoding="utf-8"?>
<!-- Generator: Adobe Illustrator 19.1.0, SVG Export Plug-In . SVG Version: 6.00 Build 0)  -->
<svg version="1.1" id="Layer_1" xmlns="http://www.w3.org/2000/svg" xmlns:xlink="http://www.w3.org/1999/xlink" x="0px" y="0px"
	 viewBox="91 298 1024 596.5" style="enable-background:new 91 298 1024 596.5;" xml:space="preserve">
<style type="text/css">
	.st0{display:none;}
	.st1{display:inline;fill:#31AA9B;}
	.st2{fill:#31AA9B;}
	.st3{fill:#F2F9F8;}
	.st4{fill:#EDA574;}
</style>
<g id="Layer_3" class="st0">
	<rect x="144" y="-2.7" class="st1" width="1025" height="500.1"/>
</g>
<g id="ocean" class="st0">
</g>
<g id="Layer_4">
</g>
<g id="montain_back">
</g>
<g id="montain_front">
</g>
<g id="Layer_7">
	<g>
		<path class="st2" d="M933,391.4c-5.5-8.9-18.5-9.2-24.4-0.5l-49.5,73.3c-0.7,1-1.5,1.9-2.4,2.7L759,322
			c-5.3-7.8-16.8-7.6-21.8,0.4l-127,204.3c-5,8-16.5,8.2-21.8,0.4L542,458.4c-5.3-7.8-16.8-7.6-21.8,0.4l-27.7,44.6
			c-5,8-16.5,8.2-21.8,0.4L408,410.5c-5.3-7.8-16.8-7.6-21.8,0.4L338,488.7c-5,8-16.5,8.2-21.7,0.4L272,423.6
			c-5.3-7.8-16.8-7.6-21.8,0.4L91.3,678.8l281.2,18.7h83.9h48.1H703h93.1h191.4l127.5-20L933,391.4z"/>
		<path class="st3" d="M262.8,469.2c12,0,23.1-4.2,31.8-11.1L272,424.6c-5.3-7.8-16.8-7.6-21.8,0.4l-20.1,32.4
			C239,464.7,250.4,469.2,262.8,469.2z"/>
		<path class="st3" d="M398.3,456.2c12,0,23.1-4.2,31.8-11.1l-22.6-33.5c-5.3-7.8-16.8-7.6-21.8,0.4l-20.1,32.4
			C374.5,451.8,385.9,456.2,398.3,456.2z"/>
		<path class="st3" d="M749.3,387.2c12.2,0,33.6-8.2,42.4-15.2l-32.6-49c-5.3-7.9-17-7.6-22,0.4l-32.4,51.9
			C713.6,382.7,736.8,387.2,749.3,387.2z"/>
		<path class="st3" d="M921.4,435.3c12,0,23.1-4.2,31.8-11.1l-21.4-33.4c-5.3-7.8-18-7.7-23,0.3l-21,31.6
			C896.8,430,909,435.3,921.4,435.3z"/>
		<path class="st3" d="M532.5,501.1c11.6,0,22.2-4,30.6-10.7l-21.7-32.2c-5.1-7.5-16.1-7.3-20.9,0.4l-19.3,31.2
			C509.7,496.8,520.6,501.1,532.5,501.1z"/>
	</g>
	<rect x="91" y="678.5" class="st2" width="123" height="216"/>
	<rect x="860.9" y="678.5" class="st2" width="254.1" height="216"/>
</g>
<path class="st4" d="M447.9,894.2c2.1,0,3.7-1.7,3.7-3.7l0,0c2-81.8,69.2-147.5,151.5-147.5c82.6,0,149.5,66.2,151.5,148.5l0,0
	c0,1.5,1.1,2.7,2.6,2.7l349.3,0.2c3.6,0,5.7-4,3.7-7L875,541.7c-6.4-10.3-21.3-10.6-28.1-0.6l-53.3,78.1c-3.1,4.6-9.9,4.5-13,0
	L674.5,461.8c-6.1-9-19.3-8.7-25.1,0.5l-118.1,190c-2.3,3.7-7.6,3.7-10,0.1L435,520.2c-4.9-8-16.5-8.2-21.7-0.4L323.7,652
	c-3.5,5.2-11.2,5.3-14.8,0.1l-44.8-63.7c-5.9-8.7-18.7-8.4-24.3,0.5l0,0L94.7,887.3c-1.6,3.4,0.8,7.3,4.5,7.3L447.9,894.2z"/>
<path class="st3" d="M664.3,534.7c14.1,0,39-9.5,49.3-17.7l-38-56.8c-6.2-9.1-19.7-8.9-25.5,0.5l-37.6,60.2
	C622.8,529.5,649.7,534.7,664.3,534.7z"/>
<path class="st3" d="M861.3,580.9c12.3,0,24.3-4.9,33.2-12l-19.2-29.1c-6.4-10.3-21.3-10.6-28-0.6l-20,29.2
	C836.5,576.2,848.4,580.9,861.3,580.9z"/>
<path class="st3" d="M254.6,626c11.6,0,20.7-5.3,29.1-12L266.3,587c-6.1-9.7-20.1-10-26.5-0.6l-14.3,28.9
	C234.2,622.9,242.5,626,254.6,626z"/>
</svg>
