<?xml version="1.0" encoding="utf-8"?>
<!-- Generator: Adobe Illustrator 19.1.0, SVG Export Plug-In . SVG Version: 6.00 Build 0)  -->
<svg version="1.1" id="Lager_1" xmlns="http://www.w3.org/2000/svg" xmlns:xlink="http://www.w3.org/1999/xlink" x="0px" y="0px"
	 viewBox="272 122.8 1024 397.2" style="enable-background:new 272 122.8 1024 397.2;" xml:space="preserve">
<style type="text/css">
	.st0{fill:#1C88A5;}
	.st1{opacity:0.41;fill:#1B7989;enable-background:new    ;}
	.st2{fill:#F2F9F8;}
	.st3{fill:#EA9C68;}
	.st4{fill:#EDA574;}
	.st5{opacity:0.5;fill:#E8CA7E;enable-background:new    ;}
</style>
<g id="Layer_3">
</g>
<g id="ocean">
</g>
<g id="Layer_4">
</g>
<g id="montain_back">
	<g>
		<g>
			<path class="st0" d="M360.4,192c2.3-5.5,10.1-5.5,12.4,0l41.5,99.1c0.6,1.5,1.7,4,2.3,5.5l43.8,104.6c1.9,4.4-1.4,9.3-6.2,9.3
				h-84.6c-1.7,0-4.3,0-6,0h-84.6c-4.8,0-8.1-4.9-6.2-9.3l43.8-104.6c0.6-1.5,1.7-4,2.3-5.5L360.4,192z"/>
		</g>
		<path class="st1" d="M454.1,410.5h-87.7l0.1-223.7c2.3,0,4.5,1.1,5.6,3l88.2,211.4C462.1,405.6,458.9,410.5,454.1,410.5z"/>
		<g>
			<path class="st2" d="M388.2,228.2l-15.5-37.3c-2.3-5.5-10.1-5.5-12.4,0l-16,38.2c-0.5,1.2,0.1,2.6,1.3,3
				c3.8,1.3,11.9,3.8,20.7,3.8c8.8,0,16.8-2.8,20.6-4.3C388.4,231.1,388.9,229.5,388.2,228.2z"/>
		</g>
		<path class="st1" d="M386.9,231.6c-10.4,4.6-20.4,4.3-20.4,4.3v-49.1c0,0,1.3,0,2.2,0.4c2,0.7,3.2,2,3.9,3.5l14.7,35
			C388.5,228.5,389.2,230.6,386.9,231.6z"/>
	</g>
	<g>
		<g>
			<path class="st0" d="M476.5,191.5c2.3-5.5,10.1-5.5,12.4,0l41.5,99.1c0.6,1.5,1.7,4,2.3,5.5l43.8,104.6c1.9,4.4-1.4,9.3-6.2,9.3
				h-84.6c-1.6,0-4.3,0-6,0h-84.5c-4.8,0-8.1-4.9-6.2-9.3l43.8-104.6c0.6-1.5,1.7-4,2.3-5.5L476.5,191.5z"/>
		</g>
		<path class="st1" d="M570.5,410h-87.7l0.1-223.7c2.3,0,4.5,1.1,5.6,3l88.2,211.4C578.5,405.2,575.1,410,570.5,410z"/>
		<g>
			<path class="st2" d="M504.5,227.7L489,190.4c-2.3-5.5-10.1-5.5-12.4,0l-16,38.2c-0.5,1.2,0.1,2.6,1.3,3
				c3.8,1.3,11.9,3.8,20.7,3.8c8.8,0,16.8-2.8,20.6-4.3C504.5,230.6,505,229,504.5,227.7z"/>
		</g>
		<path class="st1" d="M503.2,231.2c-10.4,4.6-20.4,4.3-20.4,4.3v-49.2c0,0,1.3,0,2.2,0.4c2,0.7,3.2,2,3.9,3.5l14.7,35
			C504.9,228,505.4,230.2,503.2,231.2z"/>
	</g>
	<g>
		<g>
			<path class="st0" d="M598.3,192.1c2.3-5.5,10.1-5.5,12.4,0l41.5,99.1c0.6,1.5,1.7,4,2.3,5.5l43.8,104.6c1.9,4.4-1.4,9.3-6.2,9.3
				h-84.6c-1.6,0-4.4,0-6,0h-84.6c-4.8,0-8.1-4.9-6.2-9.3l43.8-104.6c0.6-1.5,1.7-4,2.3-5.5L598.3,192.1z"/>
		</g>
		<path class="st1" d="M692.1,410.6h-87.7l0.1-223.7c2.3,0,4.5,1.1,5.6,3l88.2,211.4C700.1,405.7,697,410.6,692.1,410.6z"/>
		<g>
			<path class="st2" d="M626.2,228.3L610.8,191c-2.3-5.5-10.1-5.5-12.4,0l-16,38.2c-0.5,1.2,0.1,2.6,1.3,3
				c3.8,1.3,11.9,3.8,20.7,3.8s16.8-2.8,20.6-4.3C626.2,231.2,626.8,229.6,626.2,228.3z"/>
		</g>
		<path class="st1" d="M625,231.7c-10.4,4.6-20.4,4.3-20.4,4.3v-49.1c0,0,1.3,0,2.2,0.4c2,0.7,3.2,2,3.9,3.5l14.7,35
			C626.5,228.6,627.1,230.7,625,231.7z"/>
	</g>
	<g>
		<g>
			<path class="st0" d="M1195.2,192.1c2.3-5.5,10.1-5.5,12.4,0l41.5,99.1c0.6,1.5,1.7,4,2.3,5.5l43.8,104.6c1.9,4.4-1.4,9.3-6.2,9.3
				h-84.6c-1.7,0-4.3,0-6,0h-84.6c-4.8,0-8.1-4.9-6.2-9.3l43.8-104.6c0.6-1.5,1.7-4,2.3-5.5L1195.2,192.1z"/>
		</g>
		<path class="st1" d="M1289,410.6h-87.7l0.1-223.7c2.3,0,4.5,1.1,5.6,3l88.2,211.4C1297,405.7,1293.8,410.6,1289,410.6z"/>
		<g>
			<path class="st2" d="M1223.2,228.3l-15.5-37.3c-2.3-5.5-10.1-5.5-12.4,0l-16,38.2c-0.5,1.2,0.1,2.6,1.3,3
				c3.8,1.3,11.9,3.8,20.7,3.8c8.8,0,16.8-2.8,20.6-4.3C1223.2,231.2,1223.7,229.6,1223.2,228.3z"/>
		</g>
		<path class="st1" d="M1221.8,231.7c-10.4,4.6-20.4,4.3-20.4,4.3v-49.1c0,0,1.3,0,2.2,0.4c2,0.7,3.2,2,3.9,3.5l14.7,35
			C1223.4,228.6,1224,230.7,1221.8,231.7z"/>
	</g>
	<g>
		<g>
			<path class="st0" d="M1078.9,192.6c2.3-5.5,10.1-5.5,12.4,0l41.5,99.1c0.6,1.5,1.7,4,2.3,5.5l43.8,104.6c1.9,4.4-1.4,9.3-6.2,9.3
				h-84.6c-1.6,0-4.3,0-6,0h-84.6c-4.8,0-8.1-4.9-6.2-9.3l43.8-104.6c0.6-1.5,1.7-4,2.3-5.5L1078.9,192.6z"/>
		</g>
		<path class="st1" d="M1172.8,411.1H1085l0.1-223.7c2.3,0,4.5,1.1,5.6,3l88.2,211.4C1180.8,406.3,1177.5,411.1,1172.8,411.1z"/>
		<g>
			<path class="st2" d="M1106.8,228.8l-15.5-37.3c-2.3-5.5-10.1-5.5-12.4,0l-16,38.2c-0.5,1.2,0.1,2.6,1.3,3
				c3.8,1.3,11.9,3.8,20.7,3.8c8.8,0,16.8-2.8,20.6-4.3C1106.9,231.7,1107.4,230.1,1106.8,228.8z"/>
		</g>
		<path class="st1" d="M1105.7,232.3c-10.4,4.6-20.4,4.3-20.4,4.3v-49.2c0,0,1.3,0,2.2,0.4c2,0.7,3.2,2,3.9,3.5l14.7,35
			C1107.2,229.1,1107.8,231.3,1105.7,232.3z"/>
	</g>
	<g>
		<g>
			<path class="st0" d="M962.8,193.2c2.3-5.5,10.1-5.5,12.4,0l41.5,99.1c0.6,1.5,1.7,4,2.3,5.5l43.8,104.6c1.9,4.4-1.4,9.3-6.2,9.3
				H972c-1.7,0-4.4,0-6,0h-84.6c-4.8,0-8.1-4.9-6.2-9.3L919,297.8c0.6-1.5,1.7-4,2.3-5.5L962.8,193.2z"/>
		</g>
		<path class="st1" d="M1056.5,411.7h-87.7l0.1-223.7c2.3,0,4.5,1.1,5.6,3l88.2,211.4C1064.5,406.8,1061.3,411.7,1056.5,411.7z"/>
		<g>
			<path class="st2" d="M990.7,229.4l-15.5-37.3c-2.3-5.5-10.1-5.5-12.4,0l-16,38.2c-0.5,1.2,0.1,2.6,1.3,3
				c3.8,1.3,11.9,3.8,20.7,3.8s16.8-2.8,20.6-4.3C990.8,232.3,991.2,230.7,990.7,229.4z"/>
		</g>
		<path class="st1" d="M989.3,232.8c-10.4,4.6-20.4,4.3-20.4,4.3V188c0,0,1.3,0,2.2,0.4c2,0.7,3.2,2,3.9,3.5l14.7,35
			C991,229.7,991.5,231.8,989.3,232.8z"/>
	</g>
	<g>
		<g>
			<path class="st0" d="M724.8,192c2.3-5.5,10.1-5.5,12.4,0l41.5,99.1c0.6,1.5,1.7,4,2.3,5.5l43.8,104.6c1.9,4.4-1.4,9.3-6.2,9.3
				h-84.6c-1.6,0-4.3,0-6,0h-84.6c-4.8,0-8.1-4.9-6.2-9.3l43.8-104.6c0.6-1.5,1.7-4,2.3-5.5L724.8,192z"/>
		</g>
		<path class="st1" d="M818.5,410.5h-87.7l0.1-223.7c2.3,0,4.5,1.1,5.6,3l88.2,211.4C826.5,405.6,823.3,410.5,818.5,410.5z"/>
		<g>
			<path class="st2" d="M752.6,228.2l-15.5-37.3c-2.3-5.5-10.1-5.5-12.4,0l-16,38.2c-0.5,1.2,0.1,2.6,1.3,3
				c3.8,1.3,11.9,3.8,20.7,3.8c8.8,0,16.8-2.8,20.6-4.3C752.8,231.1,753.2,229.5,752.6,228.2z"/>
		</g>
		<path class="st1" d="M751.5,231.6c-10.4,4.6-20.4,4.3-20.4,4.3v-49.1c0,0,1.3,0,2.2,0.4c2,0.7,3.2,2,3.9,3.5l14.7,35
			C753,228.5,753.6,230.6,751.5,231.6z"/>
	</g>
	<g>
		<g>
			<path class="st0" d="M841,192.5c2.3-5.5,10.1-5.5,12.4,0l41.5,99.1c0.6,1.5,1.7,4,2.3,5.5L941,401.7c1.9,4.4-1.4,9.3-6.2,9.3
				h-84.6c-1.7,0-4.4,0-6,0h-84.6c-4.8,0-8.1-4.9-6.2-9.3l43.8-104.6c0.6-1.5,1.7-4,2.3-5.5L841,192.5z"/>
		</g>
		<path class="st1" d="M934.8,411h-87.7l0.1-223.7c2.3,0,4.5,1.1,5.6,3L941,401.7C942.8,406.2,939.5,411,934.8,411z"/>
		<g>
			<path class="st2" d="M869,228.7l-15.5-37.3c-2.3-5.5-10.1-5.5-12.4,0l-16,38.2c-0.5,1.2,0.1,2.6,1.3,3c3.8,1.3,11.9,3.8,20.7,3.8
				s16.8-2.8,20.6-4.3C869,231.6,869.5,230,869,228.7z"/>
		</g>
		<path class="st1" d="M867.7,232.2c-10.4,4.6-20.4,4.3-20.4,4.3v-49.2c0,0,1.3,0,2.2,0.4c2,0.7,3.2,2,3.9,3.5l14.7,35
			C869.2,229,869.8,231.2,867.7,232.2z"/>
	</g>
</g>
<g id="montain_front">
	<g>
		<g>
			<path class="st3" d="M417.8,278.4c1.8-2.8,5.9-2.8,7.8,0l40.2,60.7c0.9,1.4,2.4,3.6,3.3,5l39.3,59.3c2.1,3.1-0.2,7.2-3.9,7.2
				h-79.8c-1.6,0-4.3,0-6,0h-79.8c-3.7,0-5.9-4.1-3.9-7.2l39.3-59.3c0.9-1.4,2.4-3.6,3.3-5L417.8,278.4z"/>
		</g>
		<g>
			<path class="st4" d="M422.1,410.6h-83.3c-3.7,0-5.9-4.1-3.9-7.2l40.4-61c0.9-1.4,2.4-3.6,3.4-5l42.9-61.6"/>
		</g>
		<path class="st2" d="M444.8,312c1.3-0.7,1.7-2.3,0.9-3.6L434.5,291l-8.4-12.9c-2.1-3.2-6.7-3.2-8.8,0l-8.4,12.9l-11.7,18.5
			c-0.6,0.9-0.3,2,0.6,2.5c3.2,1.8,10.7,5.5,17.6,6.1c2.1,0.3,4.3,0.4,6.6,0.4c0.7,0,1.5-0.1,2.3-0.2
			C432.4,318.1,440.9,314.1,444.8,312z"/>
		<path class="st5" d="M434.5,291.1l-8.9-13.5c-0.4-0.7-1.6-1.3-2.8-1.6c-0.6-0.2-1.2-0.1-1.2-0.1v42.7c0.1,0,0.3,0,0.4,0
			c0.7,0,1.5-0.1,2.3-0.2c8.8-0.3,18-5,21.4-6.9c0.7-0.4,1-1.3,0.5-2L434.5,291.1z"/>
	</g>
	<g>
		<g>
			<path class="st3" d="M543,278.4c1.8-2.8,5.9-2.8,7.8,0l40.2,60.7c0.9,1.4,2.4,3.6,3.3,5l39.3,59.3c2.1,3.1-0.2,7.2-3.9,7.2h-79.8
				c-1.6,0-4.3,0-6,0H464c-3.7,0-5.9-4.1-3.9-7.2l39.3-59.3c0.9-1.4,2.4-3.6,3.3-5L543,278.4z"/>
		</g>
		<g>
			<path class="st4" d="M547.2,410.6h-83.3c-3.7,0-5.9-4.1-3.9-7.2l40.4-61c0.9-1.4,2.4-3.6,3.4-5l42.9-61.6"/>
		</g>
		<path class="st2" d="M570,312c1.3-0.7,1.7-2.3,0.9-3.6L559.8,291l-8.4-12.9c-2.1-3.2-6.7-3.2-8.8,0l-8.4,12.9l-11.7,18.5
			c-0.6,0.9-0.3,2,0.6,2.5c3.2,1.8,10.7,5.5,17.6,6.1c2.1,0.3,4.3,0.4,6.6,0.4c0.7,0,1.5-0.1,2.3-0.2C557.6,318.1,566,314.1,570,312
			z"/>
		<path class="st5" d="M559.8,291.1l-8.9-13.5c-0.4-0.7-1.6-1.3-2.8-1.6c-0.6-0.2-1.2-0.1-1.2-0.1v42.7c0.1,0,0.3,0,0.4,0
			c0.7,0,1.5-0.1,2.3-0.2c8.8-0.3,18-5,21.4-6.9c0.7-0.4,1-1.3,0.5-2L559.8,291.1z"/>
	</g>
	<g>
		<g>
			<path class="st3" d="M479,335.9c1.3-1.9,4.1-1.9,5.4,0l27.5,41.5c0.9,1.4,2.4,3.6,3.3,5l26.9,40.5c1.4,2.2-0.1,5-2.7,5h-54.7
				c-1.6,0-4.3,0-6,0H424c-2.6,0-4.1-2.9-2.7-5l26.9-40.5c0.9-1.4,2.4-3.6,3.3-5L479,335.9z"/>
		</g>
		<g>
			<path class="st4" d="M482,427.9h-58c-2.6,0-4.1-2.9-2.7-5l27.7-41.7c0.9-1.4,2.4-3.6,3.4-5l29.4-42.1"/>
		</g>
		<path class="st2" d="M497.9,359.3c0.9-0.5,1.2-1.6,0.6-2.5l-7.7-12.1l-5.9-9c-1.4-2.2-4.7-2.2-6.1,0l-5.9,9l-8.2,12.8
			c-0.4,0.6-0.2,1.4,0.4,1.8c2.3,1.2,7.5,3.9,12.3,4.3c1.4,0.2,3,0.3,4.6,0.3c0.5,0,1-0.1,1.6-0.2
			C489.4,363.5,495.1,360.7,497.9,359.3z"/>
		<path class="st5" d="M490.8,344.7l-6.2-9.4c-0.3-0.5-1.1-0.9-1.9-1.1c-0.4-0.1-0.9-0.1-0.9-0.1v29.7c0.1,0,0.2,0,0.3,0
			c0.5,0,1-0.1,1.6-0.2c6.1-0.2,12.5-3.5,14.9-4.8c0.5-0.3,0.7-0.9,0.4-1.4L490.8,344.7z"/>
	</g>
	<g>
		<g>
			<path class="st3" d="M1025.2,280.4c1.8-2.8,5.9-2.8,7.8,0l40.2,60.7c0.9,1.4,2.4,3.6,3.3,5l39.3,59.3c2.1,3.1-0.2,7.2-3.9,7.2
				H1032c-1.7,0-4.4,0-6,0h-79.8c-3.7,0-5.9-4.1-3.9-7.2l39.3-59.3c0.9-1.4,2.4-3.6,3.3-5L1025.2,280.4z"/>
		</g>
		<g>
			<path class="st4" d="M1029.4,412.6h-83.3c-3.7,0-5.9-4.1-3.9-7.2l40.4-61c0.9-1.4,2.4-3.6,3.4-5l42.9-61.6"/>
		</g>
		<path class="st2" d="M1052.2,314c1.3-0.7,1.7-2.3,0.9-3.6L1042,293l-8.4-12.9c-2.1-3.2-6.7-3.2-8.8,0l-8.4,12.9l-11.8,18.5
			c-0.6,0.9-0.3,2,0.6,2.5c3.2,1.8,10.7,5.5,17.6,6.1c2.1,0.3,4.3,0.4,6.6,0.4c0.7,0,1.5-0.1,2.3-0.2
			C1039.8,320.1,1048.2,316.1,1052.2,314z"/>
		<path class="st5" d="M1041.9,293.1l-8.9-13.5c-0.4-0.7-1.6-1.3-2.8-1.6c-0.6-0.2-1.2-0.1-1.2-0.1v42.7c0.1,0,0.3,0,0.4,0
			c0.7,0,1.5-0.1,2.3-0.2c8.8-0.3,18-5,21.4-6.9c0.7-0.4,1-1.3,0.5-2L1041.9,293.1z"/>
	</g>
	<g>
		<g>
			<path class="st3" d="M1141.2,279.4c1.8-2.8,5.9-2.8,7.8,0l40.2,60.7c0.9,1.4,2.4,3.6,3.3,5l39.3,59.3c2.1,3.1-0.2,7.2-3.9,7.2
				h-79.8c-1.7,0-4.4,0-6,0h-79.8c-3.7,0-5.9-4.1-3.9-7.2l39.3-59.3c0.9-1.4,2.4-3.6,3.3-5L1141.2,279.4z"/>
		</g>
		<g>
			<path class="st4" d="M1145.7,411.6h-83.3c-3.7,0-5.9-4.1-3.9-7.2l40.4-61c0.9-1.4,2.4-3.6,3.4-5l42.9-61.6"/>
		</g>
		<path class="st2" d="M1168.2,313c1.3-0.7,1.7-2.3,0.9-3.6l-11.1-17.4l-8.4-12.9c-2.1-3.2-6.7-3.2-8.8,0l-8.4,12.9l-11.7,18.5
			c-0.6,0.9-0.3,2,0.6,2.5c3.2,1.8,10.7,5.5,17.6,6.1c2.1,0.3,4.3,0.4,6.6,0.4c0.7,0,1.5-0.1,2.3-0.2
			C1155.9,319.1,1164.3,315.1,1168.2,313z"/>
		<path class="st5" d="M1158,292.1l-8.9-13.5c-0.4-0.7-1.6-1.3-2.8-1.6c-0.6-0.2-1.2-0.1-1.2-0.1v42.7c0.1,0,0.3,0,0.4,0
			c0.7,0,1.5-0.1,2.3-0.2c8.8-0.3,18-5,21.4-6.9c0.7-0.4,1-1.3,0.5-2L1158,292.1z"/>
	</g>
	<g>
		<g>
			<path class="st3" d="M1082.4,335.9c1.3-1.9,4.1-1.9,5.4,0l27.5,41.5c0.9,1.4,2.4,3.6,3.3,5l26.9,40.5c1.4,2.2-0.1,5-2.7,5h-54.7
				c-1.7,0-4.4,0-6,0h-54.7c-2.6,0-4.1-2.9-2.7-5l26.9-40.5c0.9-1.4,2.4-3.6,3.3-5L1082.4,335.9z"/>
		</g>
		<g>
			<path class="st4" d="M1085.4,427.9h-58c-2.6,0-4.1-2.9-2.7-5l27.7-41.7c0.9-1.4,2.4-3.6,3.4-5l29.4-42.1"/>
		</g>
		<path class="st2" d="M1101.2,359.3c0.9-0.5,1.2-1.6,0.6-2.5l-7.7-12.1l-5.9-9c-1.4-2.2-4.7-2.2-6.1,0l-5.9,9l-8.2,12.8
			c-0.4,0.6-0.2,1.4,0.4,1.8c2.3,1.2,7.5,3.9,12.3,4.3c1.4,0.2,3,0.3,4.6,0.3c0.5,0,1-0.1,1.6-0.2
			C1092.7,363.5,1098.4,360.7,1101.2,359.3z"/>
		<path class="st5" d="M1094.2,344.7l-6.2-9.4c-0.3-0.5-1.1-0.9-1.9-1.1c-0.4-0.1-0.9-0.1-0.9-0.1v29.7c0.1,0,0.2,0,0.3,0
			c0.5,0,1-0.1,1.6-0.2c6.2-0.2,12.5-3.5,14.9-4.8c0.5-0.3,0.7-0.9,0.4-1.4L1094.2,344.7z"/>
	</g>
	<path class="st0" d="M934,394H642.2c-5.4,0-9.3,5.4-7.7,10.7l34.1,109.4c1.1,3.4,4.2,5.9,7.7,5.9h23.1c0.9,0,1.6-0.7,1.6-1.6v-0.1
		c1.9-48.3,41.2-85.9,89.5-85.9c48.2,0,87.6,37.5,89.5,85.9l0,0c0,0.9,0.7,1.7,1.6,1.7h18.2c3.5,0,6.6-2.5,7.7-5.9l34.1-109.3
		C943.2,399.5,939.3,394,934,394z"/>
	<path class="st1" d="M934.3,393.5H788.2v39c1,0,1.7-0.1,2.5-0.1c48.2,0,87.5,37.5,89.5,85.9l0,0c0,0.9,0.9,1.2,1.8,1.2h18.2
		c3.5,0,6.6-2.2,7.7-5.6L942,404.5C943.7,399.2,939.8,393.5,934.3,393.5z"/>
</g>
</svg>
