<?xml version="1.0" encoding="utf-8"?>
<!-- Generator: Adobe Illustrator 19.1.0, SVG Export Plug-In . SVG Version: 6.00 Build 0)  -->
<svg version="1.1" id="Layer_1" xmlns="http://www.w3.org/2000/svg" xmlns:xlink="http://www.w3.org/1999/xlink" x="0px" y="0px"
	 viewBox="0 0 1024 768" style="enable-background:new 0 0 1024 768;" xml:space="preserve">
<style type="text/css">
	.st0{fill:#5B463B;}
	.st1{fill:none;stroke:#EDA574;stroke-width:8;stroke-linecap:round;stroke-miterlimit:10;}
</style>
<path class="st0" d="M505.6,438.5c0.6,5.7-3.8,10.6-9.5,10.6l-165.3,0.5c-5.7,0-10.2-4.9-9.6-10.6c5.2-50.9,44.9-120.6,92.6-120.6
	C461.4,318.4,500.6,387.6,505.6,438.5z"/>
<path class="st0" d="M697.5,437.8c0.6,5.7-3.8,10.6-9.5,10.6l-165.3,0.5c-5.7,0-10.2-4.9-9.6-10.6c5.2-50.9,44.9-120.6,92.6-120.6
	C653.3,317.7,692.5,386.9,697.5,437.8z"/>
<g>
	<line class="st1" x1="323.7" y1="444.3" x2="328.1" y2="401.2"/>
	<line class="st1" x1="322.8" y1="444.3" x2="311.3" y2="415.9"/>
	<line class="st1" x1="323.6" y1="445.2" x2="347.6" y2="409.5"/>
</g>
</svg>
