<?xml version="1.0" encoding="utf-8"?>
<!-- Generator: Adobe Illustrator 19.1.0, SVG Export Plug-In . SVG Version: 6.00 Build 0)  -->
<svg version="1.1" id="Layer_1" xmlns="http://www.w3.org/2000/svg" xmlns:xlink="http://www.w3.org/1999/xlink" x="0px" y="0px"
	 viewBox="-247 232 528.7 306" style="enable-background:new -247 232 528.7 306;" xml:space="preserve">
<style type="text/css">
	.st0{fill:#EDA574;}
	.st1{fill:#1C88A5;stroke:#000000;stroke-miterlimit:10;}
	.st2{fill:#5B463B;}
	.st3{fill:none;stroke:#18717A;stroke-linecap:round;stroke-miterlimit:10;}
	.st4{fill:#18717A;}
</style>
<g id="Layer_1_1_">
	<path class="st2" d="M121.8,432.7c0.6,5.7-3.8,10.6-9.5,10.6l-165.4,0.5c-5.7,0-10.2-4.9-9.6-10.6c5.2-50.9,44.9-120.6,92.6-120.6
		C77.5,312.6,116.8,381.9,121.8,432.7z"/>
	<path class="st2" d="M-89.9,355.3c0.2,2.8-2,5.3-4.8,5.3l-82.7,0.3c-2.9,0-5.1-2.5-4.8-5.3c2.6-25.4,22.5-60.3,46.3-60.3
		S-92.4,330-89.9,355.3z"/>
	<path class="st2" d="M216.9,435.3c0.4,4-2.7,7.5-6.7,7.5l-117,0.4c-4.1,0-7.2-3.5-6.8-7.5c3.6-36,31.8-85.3,65.5-85.3
		S213.4,399.4,216.9,435.3z"/>
</g>
</svg>
