<?xml version="1.0" encoding="utf-8"?>
<!-- Generator: Adobe Illustrator 19.1.0, SVG Export Plug-In . SVG Version: 6.00 Build 0)  -->
<svg version="1.1" id="Layer_1" xmlns="http://www.w3.org/2000/svg" xmlns:xlink="http://www.w3.org/1999/xlink" x="0px" y="0px"
	 viewBox="-288 283.2 335.3 171.9" style="enable-background:new -288 283.2 335.3 171.9;" xml:space="preserve">
<style type="text/css">
	.st0{fill:#5B463B;}
</style>
<g id="Layer_2">
</g>
<path class="st0" d="M-885.6,235.4c60.6,0,110.4,48.9,110.4,109.5s0,110.2,0,110.2h-220.1c0,0,0-64.8,0-110
	C-995.3,284.5-946.2,235.4-885.6,235.4z"/>
<path class="st0" d="M-1063.6,283.2c47.4,0,86.4,38.3,86.4,85.7c0,47.4,0,86.3,0,86.3h-172.2c0,0,0-50.7,0-86.1
	C-1149.4,321.6-1111,283.2-1063.6,283.2z"/>
<path class="st0" d="M-1156.7,445.9c2.5,0,4.6,2,4.6,4.6c0,2.6,0,4.6,0,4.6h-9.2c0,0,0-2.7,0-4.6
	C-1161.3,448-1159.2,445.9-1156.7,445.9z"/>
<path class="st0" d="M-1165.1,450.2c1.3,0,2.5,1.1,2.5,2.4s0,2.5,0,2.5h-4.9c0,0,0-1.4,0-2.5
	C-1167.6,451.3-1166.5,450.2-1165.1,450.2z"/>
<path class="st0" d="M-164.2,300.8c47.7,0,87.4,69.7,92.6,120.6c0.6,5.7-3.9,10.6-9.6,10.6l-165.3-0.5c-5.7,0-10.1-4.9-9.5-10.6
	C-251,370-211.8,300.8-164.2,300.8z"/>
<path class="st0" d="M-36.6,303.6c23.8,0,43.7,34.9,46.3,60.3c0.3,2.8-1.9,5.3-4.8,5.3l-82.7-0.3c-2.8,0-5-2.5-4.8-5.3
	C-80.1,338.2-60.4,303.6-36.6,303.6z"/>
<path class="st0" d="M-264.2,425.3c2.2,0,4,3.2,4.3,5.6c0,0.3-0.2,0.5-0.4,0.5l-7.6,0c-0.3,0-0.5-0.2-0.4-0.5
	C-268.2,428.5-266.4,425.3-264.2,425.3z"/>
<path class="st0" d="M-271.4,419.6c1.5,0,2.7,2.1,2.9,3.6c0,0.2-0.1,0.3-0.3,0.3l-5.1,0c-0.2,0-0.3-0.1-0.3-0.3
	C-274,421.7-272.8,419.6-271.4,419.6z"/>
</svg>
