<?xml version="1.0" encoding="utf-8"?>
<!-- Generator: Adobe Illustrator 19.1.0, SVG Export Plug-In . SVG Version: 6.00 Build 0)  -->
<svg version="1.1" id="Layer_1" xmlns="http://www.w3.org/2000/svg" xmlns:xlink="http://www.w3.org/1999/xlink" x="0px" y="0px"
	 viewBox="-343 299.1 335.3 171.9" style="enable-background:new -343 299.1 335.3 171.9;" xml:space="preserve">
<style type="text/css">
	.st0{fill:#5B463B;}
</style>
<g id="Layer_2">
</g>
<path class="st0" d="M-1228.6,534.5c60.6,0,110.4,48.9,110.4,109.5s0,110.2,0,110.2h-220.1c0,0,0-64.8,0-110
	C-1338.3,583.6-1289.2,534.5-1228.6,534.5z"/>
<path class="st0" d="M-1406.6,582.3c47.4,0,86.4,38.3,86.4,85.7s0,86.3,0,86.3h-172.2c0,0,0-50.7,0-86.1
	C-1492.4,620.7-1454,582.3-1406.6,582.3z"/>
<path class="st0" d="M-1499.7,745c2.5,0,4.6,2,4.6,4.6c0,2.6,0,4.6,0,4.6h-9.2c0,0,0-2.7,0-4.6C-1504.3,747.1-1502.2,745-1499.7,745
	z"/>
<path class="st0" d="M-1508.1,749.3c1.3,0,2.5,1.1,2.5,2.4s0,2.5,0,2.5h-4.9c0,0,0-1.4,0-2.5
	C-1510.6,750.4-1509.5,749.3-1508.1,749.3z"/>
<path class="st0" d="M-207.3,319.4c47.7,0,87.4,69.7,92.6,120.6c0.6,5.7-3.9,10.6-9.6,10.6l-165.3-0.5c-5.7,0-10.1-4.9-9.5-10.6
	C-294.1,388.6-254.9,319.4-207.3,319.4z"/>
<path class="st0" d="M-79.7,322.2c23.8,0,43.7,34.9,46.3,60.3c0.3,2.8-1.9,5.3-4.8,5.3l-82.7-0.3c-2.8,0-5-2.5-4.8-5.3
	C-123.2,356.9-103.5,322.2-79.7,322.2z"/>
<path class="st0" d="M-307.3,443.9c2.2,0,4,3.2,4.3,5.6c0,0.3-0.2,0.5-0.4,0.5h-7.6c-0.3,0-0.5-0.2-0.4-0.5
	C-311.3,447.1-309.5,443.9-307.3,443.9z"/>
<path class="st0" d="M-314.5,438.2c1.5,0,2.7,2.1,2.9,3.6c0,0.2-0.1,0.3-0.3,0.3h-5.1c-0.2,0-0.3-0.1-0.3-0.3
	C-317.1,440.4-315.9,438.2-314.5,438.2z"/>
</svg>
