<?xml version="1.0" encoding="utf-8"?>
<!-- Generator: Adobe Illustrator 19.1.0, SVG Export Plug-In . SVG Version: 6.00 Build 0)  -->
<svg version="1.1" xmlns="http://www.w3.org/2000/svg" xmlns:xlink="http://www.w3.org/1999/xlink" x="0px" y="0px"
	 viewBox="0 0 1024 546.1" style="enable-background:new 0 0 1024 546.1;" xml:space="preserve">
<style type="text/css">
	.st0{display:none;}
	.st1{display:inline;fill:#31AA9B;}
	.st2{display:inline;fill:#18717A;}
	.st3{fill:#EFEFEF;}
	.st4{fill:#4ACCC2;}
	.st5{fill:#18717A;}
	.st6{fill:#1C88A5;}
	.st7{fill:#1B7989;}
	.st8{fill:#31AA9B;}
	.st9{fill:#EA9C68;}
	.st10{fill:#EDA574;}
	.st11{fill:#5B463B;}
	.st12{fill:#F2F9F8;}
	.st13{opacity:0.41;fill:#1B7989;}
	.st14{opacity:0.5;fill:#E8CA7E;}
</style>
<g id="Layer_3" class="st0">
</g>
<g id="ocean" class="st0">
</g>
<g id="Layer_4">
</g>
<g id="montain_back">
</g>
<g id="montain_front">
</g>
<g id="Layer_7">
	<path class="st8" d="M1020.8,441.6L844.1,156.9c-5.6-9-18.5-9.3-24.4-0.5L769.9,230c-0.7,1-1.5,1.9-2.4,2.7L669.4,87.3
		c-5.3-7.8-16.9-7.6-21.8,0.4l-127.4,205c-5,8-16.6,8.2-21.8,0.4l-46.5-69c-5.3-7.8-16.9-7.6-21.8,0.4l-27.8,44.8
		c-5,8-16.6,8.2-21.8,0.4l-63.1-93.6c-5.3-7.8-16.9-7.6-21.8,0.4l-48.5,78c-5,8-16.6,8.2-21.8,0.4l-44.4-65.7
		c-5.3-7.8-16.9-7.6-21.8,0.4L1,444c-5.4,8.7,0.8,20,11,20h269.5h84.2H414h199.2h93.5h192.1h109.6
		C1019.8,464,1026.8,451.3,1020.8,441.6z"/>
	<path class="st12" d="M171.4,233.9c12.1,0,23.2-4.2,31.9-11.1l-22.7-33.6c-5.3-7.8-16.9-7.6-21.8,0.4l-20.2,32.5
		C147.5,229.5,159,233.9,171.4,233.9z"/>
	<path class="st12" d="M307.4,220.9c12.1,0,23.2-4.2,31.9-11.1l-22.7-33.6c-5.3-7.8-16.9-7.6-21.8,0.4l-20.2,32.5
		C283.5,216.5,295,220.9,307.4,220.9z"/>
	<path class="st12" d="M659.7,151.7c12.2,0,33.7-8.2,42.6-15.3l-32.8-49.1c-5.3-7.9-17-7.7-22.1,0.4l-32.5,52.1
		C623.9,147.2,647.1,151.7,659.7,151.7z"/>
	<path class="st12" d="M832.4,199.9c12.1,0,23.2-4.2,31.9-11.1l-21.5-33.5c-5.3-7.8-18.1-7.7-23.1,0.3l-21,31.7
		C807.7,194.7,820,199.9,832.4,199.9z"/>
	<path class="st12" d="M442.1,266c11.6,0,22.3-4,30.7-10.7L451,223c-5.1-7.5-16.2-7.3-21,0.4l-19.4,31.3
		C419.2,261.7,430.2,266,442.1,266z"/>
</g>
<g id="mountain_front">
</g>
</svg>
