<?xml version="1.0" encoding="utf-8"?>
<!-- Generator: Adobe Illustrator 19.1.0, SVG Export Plug-In . SVG Version: 6.00 Build 0)  -->
<svg version="1.1" id="Layer_1" xmlns="http://www.w3.org/2000/svg" xmlns:xlink="http://www.w3.org/1999/xlink" x="0px" y="0px"
	 viewBox="52 139 744 204" style="enable-background:new 52 139 744 204;" xml:space="preserve">
<style type="text/css">
	.st0{display:none;}
	.st1{display:inline;fill:#17717A;}
	.st2{fill:none;stroke:#1B7989;stroke-width:8;stroke-linecap:round;stroke-miterlimit:10;}
	.st3{fill:#F2F9F8;}
	.st4{fill:#EDA574;}
</style>
<g id="Layer_1_1_" class="st0">
	<rect x="53.5" y="96.6" class="st1" width="1551.8" height="577.9"/>
</g>
<g id="Layer_3" class="st0">
</g>
<g id="wave_x5F_bubbles">
</g>
<g id="wave">
</g>
<path class="st2" d="M136.4,274.9c0,0,85.1,50.5,150.7,50.5c80.7,0,138.4-60.6,203.4-60.6c79.6,0,168.2,42.8,224,44.8"/>
<circle class="st3" cx="167.2" cy="280.9" r="6.8"/>
<circle class="st3" cx="192" cy="286.4" r="8.7"/>
<circle class="st3" cx="153.8" cy="263.6" r="8.7"/>
<circle class="st3" cx="122.4" cy="272.3" r="8.7"/>
<g>
	<path class="st4" d="M203.6,186.3c15.4-8,33.8-3.4,43.3,11.4c0.9,1.4,0.4,3.2-1,3.9l-53.7,28.1c-1.4,0.7-3.2,0.1-3.8-1.4
		C181.5,212.1,188.2,194.3,203.6,186.3z"/>
	<path class="st4" d="M178.4,231.8c-5.4-1.7-8.9-6.6-8.7-12.1c0.1-1.8,1.9-2.9,3.5-2.4l17.6,5.5c1.7,0.5,2.5,2.5,1.5,4
		C189.4,231.5,183.8,233.5,178.4,231.8z"/>
	<path class="st4" d="M178.1,231.4c1.7-5.4,6.6-8.9,12.1-8.7c1.8,0.1,2.9,1.9,2.4,3.5l-5.5,17.6c-0.5,1.7-2.5,2.5-4,1.5
		C178.4,242.4,176.4,236.8,178.1,231.4z"/>
	<path class="st4" d="M202.9,180.4c3.9,0.3,7,2.9,8,6.5c0.5,1.6-0.8,3.2-2.5,3.1l-12.5-1c-1.7-0.1-2.7-1.9-2-3.4
		C195.5,182.1,199,180.1,202.9,180.4z"/>
</g>
</svg>
