<?xml version="1.0" encoding="utf-8"?>
<!-- Generator: Adobe Illustrator 19.1.0, SVG Export Plug-In . SVG Version: 6.00 Build 0)  -->
<svg version="1.1" id="Lager_1" xmlns="http://www.w3.org/2000/svg" xmlns:xlink="http://www.w3.org/1999/xlink" x="0px" y="0px"
	 viewBox="0 0 217.8 71.7" enable-background="new 0 0 217.8 71.7" xml:space="preserve">
<path fill="#F2F9F8" d="M176.1,17.4c-8.5-0.3-16.4,2-23.1,5.9C142.6,9.2,125.9,0,107,0C84,0,64.2,13.7,55.3,33.4
	C53.7,33.1,52,33,50.3,33c-13.2,0-24.4,8.3-28.8,20c-2.2-0.9-4.7-1.3-7.4-1C6.5,52.7,0.4,59.1,0,66.8c0,1,0,2,0.1,3
	c0.2,1.1,1.1,1.9,2.1,1.9h18.4h10.2h21.4h27.5h53.5h28.5h52.8c1,0,1.9-0.7,2.1-1.7c0.9-4,1.3-8.1,1-12.4
	C216.2,35.6,198.1,18.1,176.1,17.4z"/>
</svg>
