<?xml version="1.0" encoding="utf-8"?>
<!-- Generator: Adobe Illustrator 19.1.0, SVG Export Plug-In . SVG Version: 6.00 Build 0)  -->
<svg version="1.1" xmlns="http://www.w3.org/2000/svg" xmlns:xlink="http://www.w3.org/1999/xlink" x="0px" y="0px"
	 viewBox="0 0 218 143.3" style="enable-background:new 0 0 218 143.3;" xml:space="preserve">
<style type="text/css">
	.st0{fill:#18717A;}
	.st1{fill:none;stroke:#31AA9B;stroke-width:4;stroke-linecap:round;stroke-miterlimit:10;}
	.st2{fill:#1B7989;}
	.st3{fill:#EFEFEF;}
	.st4{fill:#4ACCC2;}
	.st5{fill:#1C88A5;}
	.st6{fill:#31AA9B;}
	.st7{fill:#EA9C68;}
	.st8{fill:#EDA574;}
	.st9{fill:#5B463B;}
	.st10{fill:#F2F9F8;}
</style>
<g id="Layer_1">
</g>
<g id="clors">
</g>
<g id="wave">
</g>
<g id="wave_shark">
</g>
<g id="wavewater">
	<g>
		<path class="st0" d="M203.6,138.9l-189.8-2l0-113.7l9.9,4.9c5.6,2.8,12.1,2.8,17.7,0.1l11.5-5.6c5.6-2.7,12.1-2.7,17.7,0.1
			l10.9,5.4c5.6,2.8,12.2,2.8,17.8,0l10.8-5.4c5.6-2.8,12.2-2.8,17.8,0l10.7,5.3c5.6,2.8,12.3,2.8,17.9,0l10.5-5.3
			c5.6-2.8,12.3-2.8,17.9,0l19.6,9.7L203.6,138.9z"/>
		<path class="st1" d="M12.1,20.2l13.8,6.8c5.6,2.8,12.1,2.8,17.7,0.1l11.5-5.6c5.6-2.7,12.1-2.7,17.7,0.1L83.7,27
			c5.6,2.8,12.2,2.8,17.8,0l10.8-5.4c5.6-2.8,12.2-2.8,17.8,0l10.7,5.3c5.6,2.8,12.3,2.8,17.9,0l10.5-5.3c5.6-2.8,12.3-2.8,17.9,0
			l19.6,9.7"/>
	</g>
</g>
</svg>
