<?xml version="1.0" encoding="utf-8"?>
<!-- Generator: Adobe Illustrator 19.1.0, SVG Export Plug-In . SVG Version: 6.00 Build 0)  -->
<svg version="1.1" xmlns="http://www.w3.org/2000/svg" xmlns:xlink="http://www.w3.org/1999/xlink" x="0px" y="0px"
	 viewBox="0 0 744 204" style="enable-background:new 0 0 744 204;" xml:space="preserve">
<style type="text/css">
	.st0{display:none;}
	.st1{display:inline;fill:#17717A;}
	.st2{display:inline;fill:#33A89D;}
	.st3{display:inline;fill:#1B7989;}
	.st4{display:inline;}
	.st5{fill:#F2F9F8;}
	.st6{display:inline;fill:#18717A;}
	.st7{fill:none;stroke:#1B7989;stroke-width:8;stroke-linecap:round;stroke-miterlimit:10;}
	.st8{fill:#EDA574;}
</style>
<g id="Layer_1" class="st0">
	<rect x="1.5" y="-42.4" class="st1" width="1551.8" height="577.9"/>
</g>
<g id="Layer_3" class="st0">
</g>
<g id="wave_x5F_bubbles">
</g>
<g id="wave">
</g>
<g id="fish">
	<path class="st7" d="M84.4,135.9c0,0,85.1,50.5,150.7,50.5c80.7,0,138.4-60.6,203.4-60.6c79.6,0,168.2,42.8,224,44.8"/>
	<g>
		<path class="st8" d="M127.6,60.5c-4.2-7.8-12.7-11.7-21.1-9.6c-2.6,0.6-3.8,3.5-2.6,5.8l13.7,25.7c1.2,2.3,4.3,2.8,6.3,1
			C130.2,77.6,131.7,68.3,127.6,60.5z"/>
		<circle class="st8" cx="144.1" cy="51.7" r="28.1"/>
	</g>
	<circle class="st5" cx="115.2" cy="141.9" r="6.8"/>
	<circle class="st5" cx="140" cy="147.4" r="8.7"/>
	<circle class="st5" cx="101.8" cy="124.6" r="8.7"/>
	<circle class="st5" cx="70.4" cy="133.3" r="8.7"/>
</g>
</svg>
