<?xml version="1.0" encoding="utf-8"?>
<!-- Generator: Adobe Illustrator 19.1.0, SVG Export Plug-In . SVG Version: 6.00 Build 0)  -->
<svg version="1.1" xmlns="http://www.w3.org/2000/svg" xmlns:xlink="http://www.w3.org/1999/xlink" x="0px" y="0px"
	 viewBox="0 0 889.9 951.1" style="enable-background:new 0 0 889.9 951.1;" xml:space="preserve">
<style type="text/css">
	.st0{fill:none;stroke:#EA75D4;stroke-width:40;stroke-miterlimit:10;}
	.st1{fill:none;stroke:#EA75D4;stroke-width:18;stroke-miterlimit:10;}
	.st2{fill:none;stroke:#EDA574;stroke-width:40;stroke-miterlimit:10;}
	.st3{fill:none;stroke:#F3F5F7;stroke-width:8;stroke-miterlimit:10;stroke-dasharray:14,10;}
</style>
<g id="Lager_1">
	<g>
		<path class="st0" d="M667,555.2"/>
		<path class="st1" d="M436.3,555.2"/>
		<path class="st2" d="M80,31.8h655.4c42.9,0,78,38.2,78,84.9v99.6c0,46.7-35.1,84.9-78,84.9H524.1"/>
		<path class="st2" d="M703,580.8c-2.6,0-5.2,0-7.9,0H312.6c-29.7,0-54-27.6-54-61.4V362.7c0-33.8,24.3-61.4,54-61.4h216"/>
		<path class="st2" d="M701.6,580.8h28c30.8,0,56,25.2,56,56v20"/>
		<line class="st2" x1="785.6" y1="652.9" x2="785.6" y2="757.2"/>
		<circle class="st2" cx="785.6" cy="847" r="73"/>
		<path class="st2" d="M239.8,469.2H64.7c-23.6,0-43-19.4-43-43V74.8c0-23.6,19.4-43,43-43H88"/>
	</g>
</g>
<g id="Lager_2">
	<g>
		<path class="st3" d="M666.2,556.8"/>
		<path class="st3" d="M435.5,556.8"/>
		<path class="st3" d="M53.2,33.4h681.4c42.9,0,78,38.2,78,84.9V218c0,46.7-35.1,84.9-78,84.9H523.3"/>
		<path class="st3" d="M702.2,582.4c-2.6,0-5.2,0-7.9,0H311.8c-29.7,0-54-27.6-54-61.4V364.3c0-33.8,24.3-61.4,54-61.4h216"/>
		<path class="st3" d="M700.8,582.4h28c30.8,0,56,25.2,56,56v20"/>
		<line class="st3" x1="784.8" y1="654.5" x2="784.8" y2="758.8"/>
		<circle class="st3" cx="784.8" cy="848.7" r="73"/>
		<path class="st3" d="M239,470.8H63.9c-23.7,0-43-19.4-43-43V76.4c0-23.6,19.4-43,43-43h23.3"/>
	</g>
</g>
</svg>
