<?xml version="1.0" encoding="utf-8"?>
<!-- Generator: Adobe Illustrator 19.1.0, SVG Export Plug-In . SVG Version: 6.00 Build 0)  -->
<svg version="1.1" xmlns="http://www.w3.org/2000/svg" xmlns:xlink="http://www.w3.org/1999/xlink" x="0px" y="0px"
	 viewBox="0 0 530 1611.3" style="enable-background:new 0 0 530 1611.3;" xml:space="preserve">
<style type="text/css">
	.st0{fill:none;}
	.st1{fill:none;stroke:#1C88A5;stroke-width:8;stroke-linecap:round;stroke-miterlimit:10;}
	.st2{fill:url(#);}
	.st3{display:none;}
	.st4{display:inline;fill:#1C88A5;}
	.st5{display:inline;fill:#1B7989;}
	.st6{display:inline;fill:none;stroke:#1C88A5;stroke-width:8;stroke-linecap:round;stroke-miterlimit:10;}
	.st7{fill:url(#SVGID_1);}
	.st8{fill:url(#SVGID_1_);}
</style>
<pattern  x="-57" y="-897.7" width="600" height="500" patternUnits="userSpaceOnUse" id="SVGID_1" viewBox="0 -500 600 500" style="overflow:visible;">
	<g>
		<polygon class="st0" points="0,-500 600,-500 600,0 0,0 		"/>
		<g>
			<g>
				<line class="st1" x1="512" y1="-291" x2="512" y2="-341"/>
				<line class="st1" x1="573" y1="-409" x2="573" y2="-459"/>
			</g>
			<g>
				<line class="st1" x1="212" y1="-416" x2="212" y2="-466"/>
				<line class="st1" x1="327" y1="-416" x2="327" y2="-466"/>
			</g>
			<g>
				<line class="st1" x1="27" y1="-291" x2="27" y2="-341"/>
				<line class="st1" x1="88" y1="-409" x2="88" y2="-459"/>
			</g>
			<g>
				<line class="st1" x1="512" y1="-41" x2="512" y2="-91"/>
				<line class="st1" x1="573" y1="-159" x2="573" y2="-209"/>
			</g>
			<g>
				<line class="st1" x1="212" y1="-166" x2="212" y2="-216"/>
				<line class="st1" x1="327" y1="-166" x2="327" y2="-216"/>
				<line class="st1" x1="273" y1="-284" x2="273" y2="-334"/>
				<line class="st1" x1="388" y1="-284" x2="388" y2="-334"/>
			</g>
			<g>
				<line class="st1" x1="27" y1="-41" x2="27" y2="-91"/>
				<line class="st1" x1="88" y1="-159" x2="88" y2="-209"/>
			</g>
			<g>
				<line class="st1" x1="273" y1="-34" x2="273" y2="-84"/>
				<line class="st1" x1="388" y1="-34" x2="388" y2="-84"/>
			</g>
		</g>
	</g>
</pattern>
<g id="Layer_4">
</g>
<g id="hail_diagonal">
</g>
<g id="Layer_6">
</g>
<g id="Layer_5" class="st3">
	<line class="st6" x1="208" y1="236.3" x2="208" y2="325.3"/>
	<line class="st6" x1="328" y1="236.3" x2="328" y2="325.3"/>
</g>
<g id="Layer_7">
	<rect x="40.8" y="-0.3" class="st7" width="448.4" height="1611.3"/>
</g>
<g id="Layer_10">
</g>
</svg>
