<?xml version="1.0" encoding="utf-8"?>
<!-- Generator: Adobe Illustrator 19.1.0, SVG Export Plug-In . SVG Version: 6.00 Build 0)  -->
<svg version="1.1" id="Layer_1" xmlns="http://www.w3.org/2000/svg" xmlns:xlink="http://www.w3.org/1999/xlink" x="0px" y="0px"
	 viewBox="0 0 133 99" style="enable-background:new 0 0 133 99;" xml:space="preserve">
<style type="text/css">
	.st0{fill:#EDA574;}
	.st1{fill:#EA9C68;}
</style>
<g>
	<path class="st0" d="M22.5,24c-4.4,0-8.1,2.8-9.3,6.9c-0.4,1.3,0.6,2.6,2,2.6l13.4,0.1c2.1,0,3.4-2.1,2.6-4
		C29.7,26.2,26.4,24,22.5,24z"/>
	<path class="st1" d="M53,76.7c16.2,16.3,41.5,17.7,59.1,2.3c1.2-1.1,1.3-3,0.1-4.1L55.3,17.5c-1.1-1.2-3-1.1-4.1,0.1
		C35.6,35.1,36.8,60.4,53,76.7z"/>
	<path class="st1" d="M105.7,88.8c5,5,12.5,5.8,18.2,1.8c1.2-0.8,1.3-2.5,0.3-3.5l-16.7-16.8c-1-1-2.7-0.9-3.5,0.3
		C100.1,76.3,100.8,83.8,105.7,88.8z"/>
	<circle class="st1" cx="40.8" cy="28.8" r="18.3"/>
	<path class="st0" d="M105.3,56.5c9-9.6,9.7-23.9,1.2-34c-1.1-1.3-3.1-1.4-4.3-0.1L71,55.4c-1.2,1.2-1,3.2,0.4,4.2
		C81.9,67.5,96.2,66.1,105.3,56.5z"/>
	<path class="st1" d="M100.4,57.4c9.1-9,9.5-23.3,0.1-32.8L67.6,57.2C77,66.7,91.3,66.4,100.4,57.4z"/>
	<path class="st0" d="M41.7,58.5c2.5,8.3,7.6,15.9,15,21.7c8,6.3,17.5,9.5,27,9.5C83,80.3,78.3,71.3,70.2,65
		C61.8,58.4,51.3,56.3,41.7,58.5z"/>
</g>
</svg>
