<?xml version="1.0" encoding="utf-8"?>
<!-- Generator: Adobe Illustrator 19.1.0, SVG Export Plug-In . SVG Version: 6.00 Build 0)  -->
<svg version="1.1" id="Lager_1" xmlns="http://www.w3.org/2000/svg" xmlns:xlink="http://www.w3.org/1999/xlink" x="0px" y="0px"
	 viewBox="-154.7 276.4 106 93.9" style="enable-background:new -154.7 276.4 106 93.9;" xml:space="preserve">
<style type="text/css">
	.st0{display:none;}
	.st1{display:inline;fill:#18717A;}
	.st2{fill:#F2F9F8;}
	.st3{fill:none;stroke:#31AA9B;stroke-width:6;stroke-linecap:round;stroke-miterlimit:10;}
</style>
<g id="Layer_3" class="st0">
	<rect x="-537.3" y="51.8" class="st1" width="1024" height="768"/>
</g>
<g id="Layer_1">
	<path class="st2" d="M-89.1,276.4c-19.6,0-36,14-39.7,32.6c-3.2-2.3-7.2-3.4-11.5-3c-7.4,0.8-13.3,6.7-14.3,14
		c-0.2,1.7-0.2,3.4,0.1,4.9c0.2,1.5,1.5,2.6,3,2.6h23.3h5.3h70.3c1.4,0,2.7-1,3-2.4c0.6-2.7,0.9-5.5,0.9-8.3
		C-48.6,294.5-66.8,276.4-89.1,276.4z"/>
	<line class="st3" x1="-138" y1="345" x2="-138" y2="356"/>
	<line class="st3" x1="-117" y1="356" x2="-117" y2="367"/>
	<line class="st3" x1="-99" y1="345" x2="-99" y2="356"/>
	<line class="st3" x1="-80" y1="356" x2="-80" y2="367"/>
	<line class="st3" x1="-61" y1="345" x2="-61" y2="356"/>
</g>
<g id="Layer_2">
</g>
</svg>
