<?xml version="1.0" encoding="utf-8"?>
<!-- Generator: Adobe Illustrator 19.1.0, SVG Export Plug-In . SVG Version: 6.00 Build 0)  -->
<svg version="1.1" xmlns="http://www.w3.org/2000/svg" xmlns:xlink="http://www.w3.org/1999/xlink" x="0px" y="0px"
	 viewBox="0 0 145 110" style="enable-background:new 0 0 145 110;" xml:space="preserve">
<style type="text/css">
	.st0{display:none;}
	.st1{display:inline;fill:#18717A;}
	.st2{fill:#13585B;}
	.st3{fill:#F2F9F8;}
	.st4{fill:none;stroke:#31AA9B;stroke-width:8;stroke-linecap:round;stroke-miterlimit:10;}
	.st5{fill:#124C4F;}
	.st6{fill:none;stroke:#1C88A5;stroke-width:8;stroke-linecap:round;stroke-miterlimit:10;}
	.st7{fill:none;stroke:#31AA9B;stroke-width:6;stroke-linecap:round;stroke-miterlimit:10;}
	.st8{fill:#196B6B;}
	.st9{fill:#EFEFEF;}
	.st10{fill:#4ACCC2;}
	.st11{fill:#18717A;}
	.st12{fill:#1C88A5;}
	.st13{fill:#1B7989;}
	.st14{fill:#31AA9B;}
	.st15{fill:#EA9C68;}
	.st16{fill:#EDA574;}
	.st17{fill:#5B463B;}
</style>
<g id="Layer_3" class="st0">
	<rect x="-370.3" y="-214.2" class="st1" width="1024" height="768"/>
</g>
<g id="Layer_1">
	<path class="st3" d="M77.9,10.4c-19.6,0-36,14-39.7,32.6c-3.2-2.3-7.2-3.4-11.5-3c-7.4,0.8-13.3,6.7-14.3,14
		c-0.2,1.7-0.2,3.4,0.1,4.9c0.2,1.5,1.5,2.6,3,2.6h23.3h5.3h70.3c1.4,0,2.7-1,3-2.4c0.6-2.7,0.9-5.5,0.9-8.3
		C118.4,28.5,100.2,10.4,77.9,10.4z"/>
	<line class="st7" x1="29" y1="79" x2="29" y2="90"/>
	<line class="st7" x1="50" y1="90" x2="50" y2="101"/>
	<line class="st7" x1="68" y1="79" x2="68" y2="90"/>
	<line class="st7" x1="87" y1="90" x2="87" y2="101"/>
	<line class="st7" x1="106" y1="79" x2="106" y2="90"/>
</g>
<g id="Layer_2">
</g>
</svg>
