<?xml version="1.0" encoding="utf-8"?>
<!-- Generator: Adobe Illustrator 19.1.0, SVG Export Plug-In . SVG Version: 6.00 Build 0)  -->
<svg version="1.1" id="Lager_1" xmlns="http://www.w3.org/2000/svg" xmlns:xlink="http://www.w3.org/1999/xlink" x="0px" y="0px"
	 viewBox="-123.7 288.9 94.5 59.6" enable-background="new -123.7 288.9 94.5 59.6" xml:space="preserve">
<g id="Layer_3">
</g>
<g id="Layer_4">
</g>
<g id="Houses">
</g>
<g id="houserow">
</g>
<g id="Layer_6">
</g>
<g id="Layer_9">
</g>
<g id="Layer_8">
</g>
<g id="light_green">
	<g>
		<path fill="#31AA9B" d="M-32.7,346.7H-60c-1.2,0-2-1.1-1.7-2.2l13.3-54.2c0.5-1.9,3.1-1.9,3.6,0l13.9,54.2
			C-30.7,345.6-31.5,346.7-32.7,346.7z"/>
	</g>
</g>
<g id="tree_row_front">
</g>
<g id="light_green_1_">
	<g>
		<path fill="#31AA9B" d="M-94.6,348.5h-27.3c-1.2,0-2-1.1-1.7-2.2l13.3-54.2c0.5-1.9,3.1-1.9,3.6,0l13.9,54.2
			C-92.6,347.4-93.5,348.5-94.6,348.5z"/>
	</g>
</g>
<g id="light_green_2_">
	<g>
		<path fill="#EA9C68" d="M-63.1,332.6h-20.6c-0.9,0-1.5-0.8-1.3-1.7l10-40.9c0.4-1.4,2.3-1.4,2.7,0l10.5,40.9
			C-61.6,331.8-62.2,332.6-63.1,332.6z"/>
	</g>
</g>
</svg>
