<?xml version="1.0" encoding="utf-8"?>
<!-- Generator: Adobe Illustrator 19.1.0, SVG Export Plug-In . SVG Version: 6.00 Build 0)  -->
<svg version="1.1" xmlns="http://www.w3.org/2000/svg" xmlns:xlink="http://www.w3.org/1999/xlink" x="0px" y="0px"
	 viewBox="0 0 156 94.5" style="enable-background:new 0 0 156 94.5;" xml:space="preserve">
<style type="text/css">
	.st0{fill:#4ACCC2;}
	.st1{fill:#18717A;}
	.st2{fill:none;stroke:#EDA574;stroke-width:20;stroke-miterlimit:10;}
	.st3{fill:#1A7F84;}
	.st4{fill:#84D3C9;}
	.st5{fill:#5B463B;}
	.st6{fill:#EA9C68;}
	.st7{fill:#31AA9B;}
	.st8{fill:#176266;}
	.st9{fill:#1B8989;}
	.st10{fill:#EFEFEF;}
	.st11{fill:#1C88A5;}
	.st12{fill:#1B7989;}
	.st13{fill:#EDA574;}
	.st14{fill:#F2F9F8;}
</style>
<g id="Layer_3">
</g>
<g id="Layer_1">
	<g id="Layer_4">
	</g>
	<g>
		<path class="st7" d="M53.9,78.4H18c-0.5,0-0.8-0.5-0.7-0.9L34.8,6c0.2-0.8,1.2-0.8,1.4,0l18.3,71.5C54.7,77.9,54.4,78.4,53.9,78.4
			z"/>
	</g>
	<g>
		<path class="st6" d="M101.6,70.5c0.5,2.1-0.8,4-3,4H74c-2.2,0-3.6-1.8-3-4l14-57.2c0.5-2.1,1.4-2.1,1.9,0L101.6,70.5z"/>
	</g>
	<g>
		<path class="st7" d="M136.8,85.5c0.5,2.1-0.8,4-3,4H104c-2.2,0-3.6-1.8-3-4L117.5,18c0.5-2.1,1.4-2.1,1.9,0L136.8,85.5z"/>
	</g>
</g>
<g id="Houses">
</g>
<g id="houserow">
</g>
<g id="Layer_6">
</g>
<g id="Layer_9">
</g>
<g id="Layer_8">
</g>
<g id="Layer_2">
</g>
</svg>
