<?xml version="1.0" encoding="utf-8"?>
<!-- Generator: Adobe Illustrator 19.1.0, SVG Export Plug-In . SVG Version: 6.00 Build 0)  -->
<svg version="1.1" xmlns="http://www.w3.org/2000/svg" xmlns:xlink="http://www.w3.org/1999/xlink" x="0px" y="0px"
	 viewBox="0 0 156 94.5" style="enable-background:new 0 0 156 94.5;" xml:space="preserve">
<style type="text/css">
	.st0{fill:#4ACCC2;}
	.st1{fill:#18717A;}
	.st2{fill:none;stroke:#EDA574;stroke-width:20;stroke-miterlimit:10;}
	.st3{fill:#1A7F84;}
	.st4{fill:#84D3C9;}
	.st5{fill:#5B463B;}
	.st6{fill:#EA9C68;}
	.st7{fill:#31AA9B;}
	.st8{fill:#176266;}
	.st9{fill:#1B8989;}
	.st10{fill:#EFEFEF;}
	.st11{fill:#1C88A5;}
	.st12{fill:#1B7989;}
	.st13{fill:#EDA574;}
	.st14{fill:#F2F9F8;}
</style>
<g id="Layer_3">
</g>
<g id="Layer_1">
	<g id="Layer_4">
	</g>
	<g>
		<path class="st7" d="M46.9,73.8H21.1c-0.3,0-0.6-0.3-0.5-0.7l12.6-51.4c0.1-0.5,0.9-0.5,1,0l13.2,51.4
			C47.5,73.5,47.2,73.8,46.9,73.8z"/>
	</g>
	<g>
		<path class="st6" d="M94.7,56c0.5,2.1-0.8,4-3,4H76.2c-2.2,0-3.6-1.8-3-4l9.6-39c0.5-2.1,1.4-2.1,1.9,0L94.7,56z"/>
	</g>
	<g>
		<path class="st7" d="M141,70.9c0.5,2.1-0.8,4.1-3,4.1h-19.2c-2.2,0-3.6-1.9-3-4.1l11.4-46.5c0.5-2.1,1.4-2.1,1.9,0L141,70.9z"/>
	</g>
</g>
<g id="Houses">
</g>
<g id="houserow">
</g>
<g id="Layer_6">
</g>
<g id="Layer_9">
</g>
<g id="Layer_8">
</g>
<g id="Layer_2">
</g>
</svg>
