<?xml version="1.0" encoding="utf-8"?>
<!-- Generator: Adobe Illustrator 19.1.0, SVG Export Plug-In . SVG Version: 6.00 Build 0)  -->
<svg version="1.1" xmlns="http://www.w3.org/2000/svg" xmlns:xlink="http://www.w3.org/1999/xlink" x="0px" y="0px"
	 viewBox="0 0 124 124" style="enable-background:new 0 0 124 124;" xml:space="preserve">
<style type="text/css">
	.st0{fill:#4ACCC2;}
	.st1{fill:#18717A;}
	.st2{fill:none;stroke:#EDA574;stroke-width:20;stroke-miterlimit:10;}
	.st3{fill:#1A7F84;}
	.st4{fill:#84D3C9;}
	.st5{fill:#5B463B;}
	.st6{fill:#EA9C68;}
	.st7{fill:#31AA9B;}
	.st8{fill:#176266;}
	.st9{fill:#1B8989;}
	.st10{fill:#EFEFEF;}
	.st11{fill:#1C88A5;}
	.st12{fill:#1B7989;}
	.st13{fill:#EDA574;}
	.st14{fill:#F2F9F8;}
</style>
<g id="Layer_3">
</g>
<g id="Layer_1">
	<g id="Layer_4">
	</g>
</g>
<g id="Houses">
	<g>
		<path class="st3" d="M32.4,25.2L7.5,59.9C7.2,60.4,7,61.1,7,61.7v46.9c0,1.7,1.4,3.1,3.1,3.1H60v-51L36.1,25.3
			C35.2,23.9,33.3,23.9,32.4,25.2z"/>
		<path class="st4" d="M44.9,111.7H22.3V76.1c0-2.5,2-4.4,4.4-4.4h13.7c2.5,0,4.4,2,4.4,4.4V111.7z"/>
		<path class="st1" d="M107.4,111.7H59.8V60.8h47.6c1.5,0,2.8,1.2,2.8,2.8v45.4C110.2,110.5,109,111.7,107.4,111.7z"/>
		<path class="st4" d="M80,98h-9.3c-1.2,0-2.1-1-2.1-2.1V76.3c0-1.2,1-2.1,2.1-2.1H80c1.2,0,2.1,1,2.1,2.1v19.5
			C82.2,97.1,81.2,98,80,98z"/>
		<path class="st4" d="M101.9,98h-9.3c-1.2,0-2.1-1-2.1-2.1V76.3c0-1.2,1-2.1,2.1-2.1h9.3c1.2,0,2.1,1,2.1,2.1v19.5
			C104,97.1,103.1,98,101.9,98z"/>
		<path class="st6" d="M108.3,63H61c-0.9,0-1.8-0.5-2.3-1.2L34.1,25.4c-0.5-0.8,0-1.8,1-1.8h47.3c1.8,0,3.4,0.9,4.4,2.4L109.8,60
			C110.7,61.3,109.8,63,108.3,63z"/>
		<g>
			<path class="st3" d="M73.4,33.3h-7.8c-0.6,0-1-0.5-1-1V21.5h9.9v10.9C74.4,32.9,74,33.3,73.4,33.3z"/>
			<path class="st1" d="M73.4,33.3h-3.9V21.5h4.9v10.8C74.4,32.9,73.9,33.3,73.4,33.3z"/>
			<path class="st3" d="M75.4,21.5H63.5c-0.4,0-0.8-0.4-0.8-0.8v-1.5c0-0.4,0.4-0.8,0.8-0.8h11.9c0.4,0,0.8,0.4,0.8,0.8v1.5
				C76.2,21.1,75.9,21.5,75.4,21.5z"/>
			<path class="st1" d="M75.4,21.5h-5.9v-3h5.9c0.5,0,0.8,0.4,0.8,0.8v1.4C76.2,21.1,75.8,21.5,75.4,21.5z"/>
		</g>
	</g>
</g>
<g id="houserow">
</g>
<g id="Layer_6">
</g>
<g id="Layer_9">
</g>
<g id="Layer_8">
</g>
<g id="Layer_2">
</g>
</svg>
