<?xml version="1.0" encoding="utf-8"?>
<!-- Generator: Adobe Illustrator 19.1.0, SVG Export Plug-In . SVG Version: 6.00 Build 0)  -->
<svg version="1.1" xmlns="http://www.w3.org/2000/svg" xmlns:xlink="http://www.w3.org/1999/xlink" x="0px" y="0px"
	 viewBox="0 0 100 160" style="enable-background:new 0 0 100 160;" xml:space="preserve">
<style type="text/css">
	.st0{fill:#4ACCC2;}
	.st1{fill:#18717A;}
	.st2{fill:none;stroke:#EDA574;stroke-width:20;stroke-miterlimit:10;}
	.st3{fill:#1A7F84;}
	.st4{fill:#84D3C9;}
	.st5{fill:#5B463B;}
	.st6{fill:#EA9C68;}
	.st7{fill:#31AA9B;}
	.st8{fill:#176266;}
	.st9{fill:#1B8989;}
	.st10{fill:#EFEFEF;}
	.st11{fill:#1C88A5;}
	.st12{fill:#1B7989;}
	.st13{fill:#EDA574;}
	.st14{fill:#F2F9F8;}
</style>
<g id="Layer_3">
</g>
<g id="Layer_1">
	<g id="Layer_4">
	</g>
</g>
<g id="Houses">
	<g>
		<path class="st3" d="M92.7,51.9v95.4c0,1.7-1.4,3.1-3.1,3.1H47.8V49.8l19.1-30.7c1.5-2.5,5.1-2.5,6.6,0l18,28.9
			C92.3,49.2,92.7,50.6,92.7,51.9z"/>
		<path class="st1" d="M11.2,150.3h36.6V49.9H11.2c-1.5,0-2.8,1.2-2.8,2.8v94.9C8.5,149.1,9.7,150.3,11.2,150.3z"/>
		<path class="st4" d="M32.3,126.6h9.3c1.2,0,2.1-1,2.1-2.1v-12c0-1.2-1-2.1-2.1-2.1h-9.3c-1.2,0-2.1,1-2.1,2.1v12
			C30.2,125.6,31.1,126.6,32.3,126.6z"/>
		<path class="st4" d="M65.6,124.2h9.3c1.2,0,2.1-1,2.1-2.1v-12c0-1.2-1-2.1-2.1-2.1h-9.3c-1.2,0-2.1,1-2.1,2.1v12
			C63.5,123.3,64.4,124.2,65.6,124.2z"/>
		<path class="st4" d="M13.8,126.6h9.3c1.2,0,2.1-1,2.1-2.1v-12c0-1.2-1-2.1-2.1-2.1h-9.3c-1.2,0-2.1,1-2.1,2.1v12
			C11.6,125.6,12.6,126.6,13.8,126.6z"/>
		<path class="st4" d="M32.3,91.8h9.3c1.2,0,2.1-1,2.1-2.1v-12c0-1.2-1-2.1-2.1-2.1h-9.3c-1.2,0-2.1,1-2.1,2.1v12
			C30.2,90.8,31.1,91.8,32.3,91.8z"/>
		<path class="st4" d="M65.6,91.8h9.3c1.2,0,2.1-1,2.1-2.1v-12c0-1.2-1-2.1-2.1-2.1h-9.3c-1.2,0-2.1,1-2.1,2.1v12
			C63.5,90.8,64.4,91.8,65.6,91.8z"/>
		<path class="st4" d="M13.8,91.8h9.3c1.2,0,2.1-1,2.1-2.1v-12c0-1.2-1-2.1-2.1-2.1h-9.3c-1.2,0-2.1,1-2.1,2.1v12
			C11.6,90.8,12.6,91.8,13.8,91.8z"/>
		<path class="st5" d="M8.5,50.9h40.2c0.8,0,1.5-0.4,1.9-1l20.9-30.9c0.4-0.7,0-1.6-0.8-1.6H30.6c-1.5,0-2.9,0.8-3.8,2l-19.6,29
			C6.5,49.4,7.3,50.9,8.5,50.9z"/>
		<g>
			<path class="st3" d="M35.4,22.5h7.8c0.6,0,1-0.5,1-1V10.6h-9.9v10.9C34.4,22,34.9,22.5,35.4,22.5z"/>
			<path class="st1" d="M35.5,22.5h3.9V10.6h-4.9v10.8C34.4,22,34.9,22.5,35.5,22.5z"/>
			<path class="st3" d="M33.4,10.6h11.9c0.4,0,0.8-0.4,0.8-0.8V8.4c0-0.4-0.4-0.8-0.8-0.8H33.4c-0.4,0-0.8,0.4-0.8,0.8v1.5
				C32.6,10.3,33,10.6,33.4,10.6z"/>
			<path class="st1" d="M33.4,10.6h5.9v-3h-5.9c-0.5,0-0.8,0.4-0.8,0.8v1.4C32.6,10.2,33,10.6,33.4,10.6z"/>
		</g>
	</g>
</g>
<g id="houserow">
</g>
<g id="Layer_6">
</g>
<g id="Layer_9">
</g>
<g id="Layer_8">
</g>
<g id="Layer_2">
</g>
</svg>
