<?xml version="1.0" encoding="utf-8"?>
<!-- Generator: Adobe Illustrator 19.1.0, SVG Export Plug-In . SVG Version: 6.00 Build 0)  -->
<svg version="1.1" id="Lager_1" xmlns="http://www.w3.org/2000/svg" xmlns:xlink="http://www.w3.org/1999/xlink" x="0px" y="0px"
	 viewBox="272 216.7 1024 187.9" enable-background="new 272 216.7 1024 187.9" xml:space="preserve">
<g id="Layer_3">
</g>
<g id="Layer_1">
	<g id="Layer_4">
	</g>
</g>
<g id="Houses">
</g>
<g id="houserow">
</g>
<g id="Layer_6">
</g>
<g id="Layer_9">
	<g>
		<path fill="#176266" d="M771.1,289.4l-24.8,34.7c-0.4,0.5-0.6,1.1-0.6,1.8v46.9c0,1.7,1.4,3.1,3.1,3.1h49.9v-51l-23.8-35.4
			C774,288.1,772,288.1,771.1,289.4z"/>
		<path fill="#84D3C9" d="M783.7,375.9h-22.6v-35.6c0-2.5,2-4.4,4.4-4.4h13.7c2.5,0,4.4,2,4.4,4.4v35.6H783.7z"/>
		<path fill="#1A7F84" d="M846.2,375.9h-47.6V325h47.6c1.5,0,2.8,1.2,2.8,2.8v45.4C848.9,374.7,847.7,375.9,846.2,375.9z"/>
		<path fill="#84D3C9" d="M818.8,362.2h-9.3c-1.2,0-2.1-1-2.1-2.1v-19.5c0-1.2,1-2.1,2.1-2.1h9.3c1.2,0,2.1,1,2.1,2.1v19.5
			C820.9,361.3,820,362.2,818.8,362.2z"/>
		<path fill="#84D3C9" d="M840.6,362.2h-9.3c-1.2,0-2.1-1-2.1-2.1v-19.5c0-1.2,1-2.1,2.1-2.1h9.3c1.2,0,2.1,1,2.1,2.1v19.5
			C842.8,361.3,841.8,362.2,840.6,362.2z"/>
		<path fill="#5B463B" d="M847,327.2h-47.3c-0.9,0-1.8-0.5-2.3-1.2l-24.6-36.4c-0.5-0.8,0-1.8,1-1.8h47.3c1.8,0,3.4,0.9,4.4,2.4
			l23.1,34.1C849.4,325.5,848.5,327.2,847,327.2z"/>
		<g>
			<path fill="#1A7F84" d="M812.1,297.5h-7.8c-0.6,0-1-0.5-1-1v-10.8h9.9v10.9C813.1,297.1,812.7,297.5,812.1,297.5z"/>
			<path fill="#18717A" d="M812.1,297.5h-3.9v-11.8h4.9v10.8C813.1,297.1,812.7,297.5,812.1,297.5z"/>
			<path fill="#1A7F84" d="M814.2,285.7h-11.9c-0.4,0-0.8-0.4-0.8-0.8v-1.5c0-0.4,0.4-0.8,0.8-0.8h11.9c0.4,0,0.8,0.4,0.8,0.8v1.5
				C814.9,285.3,814.6,285.7,814.2,285.7z"/>
			<path fill="#18717A" d="M814.1,285.7h-5.9v-3h5.9c0.5,0,0.8,0.4,0.8,0.8v1.4C814.9,285.3,814.6,285.7,814.1,285.7z"/>
		</g>
	</g>
	<g>
		<path fill="#1A7F84" d="M750.4,285.7v95.4c0,1.7-1.4,3.1-3.1,3.1h-41.8V283.7l19.1-30.7c1.5-2.5,5.1-2.5,6.6,0l18,28.9
			C750,283.1,750.4,284.4,750.4,285.7z"/>
		<path fill="#18717A" d="M669,384.2h36.6V283.7H669c-1.5,0-2.8,1.2-2.8,2.8v94.9C666.2,382.9,667.4,384.2,669,384.2z"/>
		<path fill="#84D3C9" d="M690,360.4h9.3c1.2,0,2.1-1,2.1-2.1v-12c0-1.2-1-2.1-2.1-2.1H690c-1.2,0-2.1,1-2.1,2.1v12
			C687.9,359.5,688.8,360.4,690,360.4z"/>
		<path fill="#84D3C9" d="M723.3,358.1h9.3c1.2,0,2.1-1,2.1-2.1v-12c0-1.2-1-2.1-2.1-2.1h-9.3c-1.2,0-2.1,1-2.1,2.1v12
			C721.2,357.1,722.1,358.1,723.3,358.1z"/>
		<path fill="#84D3C9" d="M671.5,360.4h9.3c1.2,0,2.1-1,2.1-2.1v-12c0-1.2-1-2.1-2.1-2.1h-9.3c-1.2,0-2.1,1-2.1,2.1v12
			C669.3,359.5,670.3,360.4,671.5,360.4z"/>
		<path fill="#84D3C9" d="M690,325.6h9.3c1.2,0,2.1-1,2.1-2.1v-12c0-1.2-1-2.1-2.1-2.1H690c-1.2,0-2.1,1-2.1,2.1v12
			C687.9,324.6,688.8,325.6,690,325.6z"/>
		<path fill="#84D3C9" d="M723.3,325.6h9.3c1.2,0,2.1-1,2.1-2.1v-12c0-1.2-1-2.1-2.1-2.1h-9.3c-1.2,0-2.1,1-2.1,2.1v12
			C721.2,324.6,722.1,325.6,723.3,325.6z"/>
		<path fill="#84D3C9" d="M671.5,325.6h9.3c1.2,0,2.1-1,2.1-2.1v-12c0-1.2-1-2.1-2.1-2.1h-9.3c-1.2,0-2.1,1-2.1,2.1v12
			C669.3,324.6,670.3,325.6,671.5,325.6z"/>
		<path fill="#EA9C68" d="M666.2,284.7h40.2c0.8,0,1.5-0.4,1.9-1l21-31c0.4-0.7,0-1.6-0.8-1.6h-40.2c-1.5,0-2.9,0.8-3.8,2l-19.6,29
			C664.2,283.2,665,284.7,666.2,284.7z"/>
		<g>
			<path fill="#1A7F84" d="M693.1,256.3h7.8c0.6,0,1-0.5,1-1v-10.9H692v10.9C692.1,255.9,692.6,256.3,693.1,256.3z"/>
			<path fill="#18717A" d="M693.2,256.3h3.9v-11.9h-4.9v10.8C692.1,255.8,692.6,256.3,693.2,256.3z"/>
			<path fill="#1A7F84" d="M691.1,244.4H703c0.4,0,0.8-0.4,0.8-0.8v-1.5c0-0.4-0.4-0.8-0.8-0.8h-11.9c-0.4,0-0.8,0.4-0.8,0.8v1.6
				C690.3,244.1,690.7,244.4,691.1,244.4z"/>
			<path fill="#18717A" d="M691.1,244.4h5.9v-3h-5.9c-0.5,0-0.8,0.4-0.8,0.8v1.4C690.3,244.1,690.7,244.4,691.1,244.4z"/>
		</g>
	</g>
	<g>
		<path fill="#176266" d="M532.2,262.8l-24.8,34.7c-0.4,0.5-0.6,1.1-0.6,1.8v46.9c0,1.7,1.4,3.1,3.1,3.1h49.9v-51L536,262.8
			C535.1,261.5,533.1,261.5,532.2,262.8z"/>
		<path fill="#84D3C9" d="M544.8,349.3h-22.6v-35.7c0-2.5,2-4.4,4.4-4.4h13.7c2.5,0,4.4,2,4.4,4.4v35.7H544.8z"/>
		<path fill="#1A7F84" d="M607.3,349.3h-47.6v-51h47.6c1.5,0,2.8,1.2,2.8,2.8v45.4C610,348,608.8,349.3,607.3,349.3z"/>
		<path fill="#84D3C9" d="M579.9,335.6h-9.3c-1.2,0-2.1-1-2.1-2.1v-19.6c0-1.2,1-2.1,2.1-2.1h9.3c1.2,0,2.1,1,2.1,2.1v19.5
			C582,334.6,581.1,335.6,579.9,335.6z"/>
		<path fill="#84D3C9" d="M601.7,335.6h-9.3c-1.2,0-2.1-1-2.1-2.1v-19.6c0-1.2,1-2.1,2.1-2.1h9.3c1.2,0,2.1,1,2.1,2.1v19.5
			C603.9,334.6,602.9,335.6,601.7,335.6z"/>
		<path fill="#5B463B" d="M608.1,300.6h-47.3c-0.9,0-1.8-0.5-2.3-1.2L533.9,263c-0.5-0.8,0-1.8,1-1.8h47.3c1.8,0,3.4,0.9,4.4,2.4
			l23.1,34.1C610.5,298.9,609.6,300.6,608.1,300.6z"/>
		<g>
			<path fill="#1A7F84" d="M573.2,270.9h-7.8c-0.6,0-1-0.5-1-1V259h9.9v10.9C574.2,270.4,573.8,270.9,573.2,270.9z"/>
			<path fill="#18717A" d="M573.2,270.9h-3.9V259h4.9v10.8C574.2,270.4,573.8,270.9,573.2,270.9z"/>
			<path fill="#1A7F84" d="M575.3,259h-11.9c-0.4,0-0.8-0.4-0.8-0.8v-1.5c0-0.4,0.4-0.8,0.8-0.8h11.9c0.4,0,0.8,0.4,0.8,0.8v1.5
				C576,258.7,575.7,259,575.3,259z"/>
			<path fill="#18717A" d="M575.2,259h-5.9v-3h5.9c0.5,0,0.8,0.4,0.8,0.8v1.4C576,258.7,575.7,259,575.2,259z"/>
		</g>
	</g>
	<g>
		<path fill="#1A7F84" d="M424.1,262.8l24.8,34.7c0.4,0.5,0.6,1.1,0.6,1.8v46.9c0,1.7-1.4,3.1-3.1,3.1h-49.9v-51l23.8-35.4
			C421.3,261.5,423.2,261.5,424.1,262.8z"/>
		<path fill="#84D3C9" d="M411.5,349.3h22.6v-35.7c0-2.5-2-4.4-4.4-4.4H416c-2.5,0-4.4,2-4.4,4.4v35.7H411.5z"/>
		<path fill="#176266" d="M349.1,349.3h47.6v-51h-47.6c-1.5,0-2.8,1.2-2.8,2.8v45.4C346.3,348,347.5,349.3,349.1,349.3z"/>
		<path fill="#84D3C9" d="M376.4,335.6h9.3c1.2,0,2.1-1,2.1-2.1v-19.6c0-1.2-1-2.1-2.1-2.1h-9.3c-1.2,0-2.1,1-2.1,2.1v19.5
			C374.3,334.6,375.3,335.6,376.4,335.6z"/>
		<path fill="#84D3C9" d="M354.6,335.6h9.3c1.2,0,2.1-1,2.1-2.1v-19.6c0-1.2-1-2.1-2.1-2.1h-9.3c-1.2,0-2.1,1-2.1,2.1v19.5
			C352.5,334.6,353.4,335.6,354.6,335.6z"/>
		<path fill="#EA9C68" d="M348.2,300.6h47.3c0.9,0,1.8-0.5,2.3-1.2l24.6-36.4c0.5-0.8,0-1.8-1-1.8h-47.3c-1.8,0-3.4,0.9-4.4,2.4
			l-23.1,34C345.8,298.9,346.7,300.6,348.2,300.6z"/>
		<g>
			<path fill="#1A7F84" d="M383.1,270.9h7.8c0.6,0,1-0.5,1-1V259H382v10.9C382.1,270.4,382.5,270.9,383.1,270.9z"/>
			<path fill="#18717A" d="M383.1,270.9h3.9V259h-4.9v10.8C382.1,270.4,382.5,270.9,383.1,270.9z"/>
			<path fill="#1A7F84" d="M381.1,259H393c0.4,0,0.8-0.4,0.8-0.8v-1.5c0-0.4-0.4-0.8-0.8-0.8h-11.9c-0.4,0-0.8,0.4-0.8,0.8v1.5
				C380.3,258.7,380.6,259,381.1,259z"/>
			<path fill="#18717A" d="M381.1,259h5.9v-3h-5.9c-0.5,0-0.8,0.4-0.8,0.8v1.4C380.3,258.7,380.6,259,381.1,259z"/>
		</g>
	</g>
	<g>
		<path fill="#1A7F84" d="M509.7,289v95.4c0,1.7-1.4,3.1-3.1,3.1h-41.8V287l19.2-30.7c1.5-2.5,5.1-2.5,6.6,0l18,28.9
			C509.4,286.4,509.7,287.7,509.7,289z"/>
		<path fill="#18717A" d="M428.3,387.5h36.6V287.1h-36.6c-1.5,0-2.8,1.2-2.8,2.8v94.8C425.5,386.3,426.8,387.5,428.3,387.5z"/>
		<path fill="#84D3C9" d="M449.4,363.7h9.3c1.2,0,2.1-1,2.1-2.1v-12c0-1.2-1-2.1-2.1-2.1h-9.3c-1.2,0-2.1,1-2.1,2.1v12
			C447.2,362.8,448.2,363.7,449.4,363.7z"/>
		<path fill="#84D3C9" d="M482.6,361.4h9.3c1.2,0,2.1-1,2.1-2.1v-12c0-1.2-1-2.1-2.1-2.1h-9.3c-1.2,0-2.1,1-2.1,2.1v12
			C480.5,360.4,481.5,361.4,482.6,361.4z"/>
		<path fill="#84D3C9" d="M430.8,363.7h9.3c1.2,0,2.1-1,2.1-2.1v-12c0-1.2-1-2.1-2.1-2.1h-9.3c-1.2,0-2.1,1-2.1,2.1v12
			C428.7,362.8,429.6,363.7,430.8,363.7z"/>
		<path fill="#84D3C9" d="M449.4,328.9h9.3c1.2,0,2.1-1,2.1-2.1v-12.1c0-1.2-1-2.1-2.1-2.1h-9.3c-1.2,0-2.1,1-2.1,2.1v12
			C447.2,328,448.2,328.9,449.4,328.9z"/>
		<path fill="#84D3C9" d="M482.6,328.9h9.3c1.2,0,2.1-1,2.1-2.1v-12.1c0-1.2-1-2.1-2.1-2.1h-9.3c-1.2,0-2.1,1-2.1,2.1v12
			C480.5,328,481.5,328.9,482.6,328.9z"/>
		<path fill="#84D3C9" d="M430.8,328.9h9.3c1.2,0,2.1-1,2.1-2.1v-12.1c0-1.2-1-2.1-2.1-2.1h-9.3c-1.2,0-2.1,1-2.1,2.1v12
			C428.7,328,429.6,328.9,430.8,328.9z"/>
		<path fill="#5B463B" d="M425.6,288h40.2c0.8,0,1.5-0.4,1.9-1l20.9-30.9c0.4-0.7,0-1.6-0.8-1.6h-40.2c-1.5,0-2.9,0.8-3.8,2
			l-19.6,29C423.6,286.6,424.3,288,425.6,288z"/>
		<g>
			<path fill="#1A7F84" d="M452.5,259.6h7.8c0.6,0,1-0.5,1-1v-10.8h-9.9v10.9C451.5,259.2,451.9,259.6,452.5,259.6z"/>
			<path fill="#18717A" d="M452.5,259.6h3.9v-11.8h-4.9v10.8C451.5,259.2,451.9,259.6,452.5,259.6z"/>
			<path fill="#1A7F84" d="M450.4,247.8h11.9c0.4,0,0.8-0.4,0.8-0.8v-1.5c0-0.4-0.4-0.8-0.8-0.8h-11.9c-0.4,0-0.8,0.4-0.8,0.8v1.5
				C449.7,247.4,450,247.8,450.4,247.8z"/>
			<path fill="#18717A" d="M450.5,247.8h5.9v-3h-5.9c-0.5,0-0.8,0.4-0.8,0.8v1.4C449.7,247.4,450,247.8,450.5,247.8z"/>
		</g>
	</g>
	<g>
		<path fill="#176266" d="M272,295.4v95.4c0,1.7,1.4,3.1,3.1,3.1h41.8V293.4l-19.2-30.7c-1.5-2.5-5.1-2.5-6.6,0l-18,29
			C272.4,292.8,272,294.1,272,295.4z"/>
		<path fill="#1A7F84" d="M353.4,393.9h-36.6V293.5h36.6c1.5,0,2.8,1.2,2.8,2.8v94.9C356.2,392.6,355,393.9,353.4,393.9z"/>
		<path fill="#84D3C9" d="M332.4,370.1H323c-1.2,0-2.1-1-2.1-2.1v-12c0-1.2,1-2.1,2.1-2.1h9.3c1.2,0,2.1,1,2.1,2.1v12
			C334.5,369.2,333.6,370.1,332.4,370.1z"/>
		<path fill="#84D3C9" d="M299.1,367.8h-9.3c-1.2,0-2.1-1-2.1-2.1v-12c0-1.2,1-2.1,2.1-2.1h9.3c1.2,0,2.1,1,2.1,2.1v12
			C301.2,366.8,300.3,367.8,299.1,367.8z"/>
		<path fill="#84D3C9" d="M350.9,370.1h-9.3c-1.2,0-2.1-1-2.1-2.1v-12c0-1.2,1-2.1,2.1-2.1h9.3c1.2,0,2.1,1,2.1,2.1v12
			C353,369.2,352.1,370.1,350.9,370.1z"/>
		<path fill="#84D3C9" d="M332.4,335.3H323c-1.2,0-2.1-1-2.1-2.1v-12c0-1.2,1-2.1,2.1-2.1h9.3c1.2,0,2.1,1,2.1,2.1v12
			C334.5,334.4,333.6,335.3,332.4,335.3z"/>
		<path fill="#84D3C9" d="M299.1,335.3h-9.3c-1.2,0-2.1-1-2.1-2.1v-12c0-1.2,1-2.1,2.1-2.1h9.3c1.2,0,2.1,1,2.1,2.1v12
			C301.2,334.4,300.3,335.3,299.1,335.3z"/>
		<path fill="#84D3C9" d="M350.9,335.3h-9.3c-1.2,0-2.1-1-2.1-2.1v-12c0-1.2,1-2.1,2.1-2.1h9.3c1.2,0,2.1,1,2.1,2.1v12
			C353,334.4,352.1,335.3,350.9,335.3z"/>
		<path fill="#5B463B" d="M356.2,294.4h-40.3c-0.8,0-1.5-0.4-1.9-1l-20.9-31c-0.4-0.7,0-1.6,0.8-1.6h40.2c1.5,0,2.9,0.8,3.8,2
			l19.6,29C358.2,293,357.4,294.4,356.2,294.4z"/>
		<g>
			<path fill="#1A7F84" d="M329.2,266h-7.8c-0.6,0-1-0.5-1-1v-10.9h9.9V265C330.3,265.6,329.8,266,329.2,266z"/>
			<path fill="#18717A" d="M329.2,266h-3.9v-11.9h4.9v10.8C330.3,265.5,329.8,266,329.2,266z"/>
			<path fill="#1A7F84" d="M331.3,254.1h-11.9c-0.4,0-0.8-0.4-0.8-0.8v-1.5c0-0.4,0.4-0.8,0.8-0.8h11.9c0.4,0,0.8,0.4,0.8,0.8v1.5
				C332.1,253.8,331.7,254.1,331.3,254.1z"/>
			<path fill="#18717A" d="M331.2,254.1h-5.9v-3h5.9c0.5,0,0.8,0.4,0.8,0.8v1.4C332.1,253.8,331.7,254.1,331.2,254.1z"/>
		</g>
	</g>
	<g>
		<path fill="#1A7F84" d="M430.9,313.4l24.8,34.7c0.4,0.5,0.6,1.1,0.6,1.8v46.9c0,1.7-1.4,3.1-3.1,3.1h-49.9v-51l23.8-35.4
			C428,312.2,429.9,312.1,430.9,313.4z"/>
		<path fill="#84D3C9" d="M418.3,399.9h22.6v-35.6c0-2.5-2-4.4-4.4-4.4h-13.7c-2.5,0-4.4,2-4.4,4.4v35.6H418.3z"/>
		<path fill="#18717A" d="M355.8,399.9h47.6V349h-47.6c-1.5,0-2.8,1.2-2.8,2.8v45.4C353,398.7,354.3,399.9,355.8,399.9z"/>
		<path fill="#84D3C9" d="M383.2,386.2h9.3c1.2,0,2.1-1,2.1-2.1v-19.5c0-1.2-1-2.1-2.1-2.1h-9.3c-1.2,0-2.1,1-2.1,2.1v19.5
			C381.1,385.3,382,386.2,383.2,386.2z"/>
		<path fill="#84D3C9" d="M361.4,386.2h9.3c1.2,0,2.1-1,2.1-2.1v-19.5c0-1.2-1-2.1-2.1-2.1h-9.3c-1.2,0-2.1,1-2.1,2.1v19.5
			C359.2,385.3,360.2,386.2,361.4,386.2z"/>
		<path fill="#5B463B" d="M354.9,351.2h47.3c0.9,0,1.8-0.5,2.3-1.2l24.6-36.4c0.5-0.8,0-1.8-1-1.8h-47.3c-1.8,0-3.4,0.9-4.4,2.4
			l-23.1,34.1C352.6,349.5,353.4,351.2,354.9,351.2z"/>
		<g>
			<path fill="#1A7F84" d="M389.8,321.5h7.8c0.6,0,1-0.5,1-1v-10.8h-9.9v10.9C388.8,321.1,389.3,321.5,389.8,321.5z"/>
			<path fill="#18717A" d="M389.9,321.5h3.9v-11.8h-4.9v10.8C388.8,321.1,389.3,321.5,389.9,321.5z"/>
			<path fill="#1A7F84" d="M387.8,309.7h11.9c0.4,0,0.8-0.4,0.8-0.8v-1.5c0-0.4-0.4-0.8-0.8-0.8h-11.9c-0.4,0-0.8,0.4-0.8,0.8v1.5
				C387,309.3,387.4,309.7,387.8,309.7z"/>
			<path fill="#18717A" d="M387.9,309.7h5.9v-3h-5.9c-0.5,0-0.8,0.4-0.8,0.8v1.4C387,309.3,387.4,309.7,387.9,309.7z"/>
		</g>
	</g>
	<g>
		<path fill="#1A7F84" d="M685.1,289v95.4c0,1.7-1.4,3.1-3.1,3.1h-41.8V286.9l19.1-30.7c1.5-2.5,5.1-2.5,6.6,0l18,28.9
			C684.7,286.3,685.1,287.6,685.1,289z"/>
		<path fill="#18717A" d="M603.7,387.4h36.6V287h-36.6c-1.5,0-2.8,1.2-2.8,2.8v94.9C600.9,386.2,602.1,387.4,603.7,387.4z"/>
		<path fill="#84D3C9" d="M624.7,363.7h9.3c1.2,0,2.1-1,2.1-2.1v-12c0-1.2-1-2.1-2.1-2.1h-9.3c-1.2,0-2.1,1-2.1,2.1v12
			C622.6,362.7,623.5,363.7,624.7,363.7z"/>
		<path fill="#84D3C9" d="M658,361.3h9.3c1.2,0,2.1-1,2.1-2.1v-12c0-1.2-1-2.1-2.1-2.1H658c-1.2,0-2.1,1-2.1,2.1v12
			C655.9,360.4,656.8,361.3,658,361.3z"/>
		<path fill="#84D3C9" d="M606.2,363.7h9.3c1.2,0,2.1-1,2.1-2.1v-12c0-1.2-1-2.1-2.1-2.1h-9.3c-1.2,0-2.1,1-2.1,2.1v12
			C604,362.7,605,363.7,606.2,363.7z"/>
		<path fill="#84D3C9" d="M624.7,328.8h9.3c1.2,0,2.1-1,2.1-2.1v-12c0-1.2-1-2.1-2.1-2.1h-9.3c-1.2,0-2.1,1-2.1,2.1v12
			C622.6,327.9,623.5,328.8,624.7,328.8z"/>
		<path fill="#84D3C9" d="M658,328.8h9.3c1.2,0,2.1-1,2.1-2.1v-12c0-1.2-1-2.1-2.1-2.1H658c-1.2,0-2.1,1-2.1,2.1v12
			C655.9,327.9,656.8,328.8,658,328.8z"/>
		<path fill="#84D3C9" d="M606.2,328.8h9.3c1.2,0,2.1-1,2.1-2.1v-12c0-1.2-1-2.1-2.1-2.1h-9.3c-1.2,0-2.1,1-2.1,2.1v12
			C604,327.9,605,328.8,606.2,328.8z"/>
		<path fill="#EA9C68" d="M600.9,287.9h40.2c0.8,0,1.5-0.4,1.9-1l21-30.9c0.4-0.7,0-1.6-0.8-1.6H623c-1.5,0-2.9,0.8-3.8,2l-19.6,29
			C598.9,286.5,599.7,287.9,600.9,287.9z"/>
		<g>
			<path fill="#1A7F84" d="M627.8,259.6h7.8c0.6,0,1-0.5,1-1v-10.9h-9.9v10.9C626.8,259.1,627.3,259.6,627.8,259.6z"/>
			<path fill="#18717A" d="M627.9,259.6h3.9v-11.9h-4.9v10.8C626.8,259.1,627.3,259.6,627.9,259.6z"/>
			<path fill="#1A7F84" d="M625.8,247.7h11.9c0.4,0,0.8-0.4,0.8-0.8v-1.5c0-0.4-0.4-0.8-0.8-0.8h-11.9c-0.4,0-0.8,0.4-0.8,0.8v1.5
				C625,247.3,625.4,247.7,625.8,247.7z"/>
			<path fill="#18717A" d="M625.9,247.7h5.9v-3h-5.9c-0.5,0-0.8,0.4-0.8,0.8v1.4C625,247.3,625.4,247.7,625.9,247.7z"/>
		</g>
	</g>
	<g>
		<path fill="#1A7F84" d="M581.8,308.5l24.8,34.7c0.4,0.5,0.6,1.1,0.6,1.8v46.9c0,1.7-1.4,3.1-3.1,3.1h-49.9v-51l23.8-35.4
			C579,307.3,580.9,307.3,581.8,308.5z"/>
		<path fill="#84D3C9" d="M569.2,395h22.6v-35.6c0-2.5-2-4.4-4.4-4.4h-13.7c-2.5,0-4.4,2-4.4,4.4V395H569.2z"/>
		<path fill="#176266" d="M506.8,395h47.6v-50.9h-47.6c-1.5,0-2.8,1.2-2.8,2.8v45.4C504,393.8,505.2,395,506.8,395z"/>
		<path fill="#84D3C9" d="M534.1,381.4h9.3c1.2,0,2.1-1,2.1-2.1v-19.6c0-1.2-1-2.1-2.1-2.1h-9.3c-1.2,0-2.1,1-2.1,2.1v19.5
			C532,380.4,533,381.4,534.1,381.4z"/>
		<path fill="#84D3C9" d="M512.3,381.4h9.3c1.2,0,2.1-1,2.1-2.1v-19.6c0-1.2-1-2.1-2.1-2.1h-9.3c-1.2,0-2.1,1-2.1,2.1v19.5
			C510.2,380.4,511.1,381.4,512.3,381.4z"/>
		<path fill="#EA9C68" d="M505.9,346.3h47.3c0.9,0,1.8-0.5,2.3-1.2l24.6-36.4c0.5-0.8,0-1.8-1-1.8h-47.3c-1.8,0-3.4,0.9-4.4,2.4
			l-23.1,34.1C503.5,344.6,504.4,346.3,505.9,346.3z"/>
		<g>
			<path fill="#1A7F84" d="M540.8,316.7h7.8c0.6,0,1-0.5,1-1v-10.9h-9.9v10.9C539.8,316.2,540.2,316.7,540.8,316.7z"/>
			<path fill="#18717A" d="M540.8,316.7h3.9v-11.9h-4.9v10.8C539.8,316.2,540.2,316.7,540.8,316.7z"/>
			<path fill="#1A7F84" d="M538.8,304.8h11.9c0.4,0,0.8-0.4,0.8-0.8v-1.5c0-0.4-0.4-0.8-0.8-0.8h-11.9c-0.4,0-0.8,0.4-0.8,0.8v1.5
				C538,304.5,538.3,304.8,538.8,304.8z"/>
			<path fill="#18717A" d="M538.8,304.8h5.9v-3h-5.9c-0.5,0-0.8,0.4-0.8,0.8v1.4C538,304.4,538.3,304.8,538.8,304.8z"/>
		</g>
	</g>
	<g>
		<path fill="#1A7F84" d="M825.8,286.3v95.4c0,1.7,1.4,3.1,3.1,3.1h41.8V284.2l-19.1-30.7c-1.5-2.5-5.1-2.5-6.6,0l-18,28.9
			C826.2,283.6,825.8,284.9,825.8,286.3z"/>
		<path fill="#18717A" d="M907.3,384.7h-36.6V284.3h36.6c1.5,0,2.8,1.2,2.8,2.8V382C910,383.5,908.8,384.7,907.3,384.7z"/>
		<path fill="#84D3C9" d="M886.2,361h-9.3c-1.2,0-2.1-1-2.1-2.1v-12c0-1.2,1-2.1,2.1-2.1h9.3c1.2,0,2.1,1,2.1,2.1v12
			C888.3,360,887.4,361,886.2,361z"/>
		<path fill="#84D3C9" d="M852.9,358.6h-9.3c-1.2,0-2.1-1-2.1-2.1v-12c0-1.2,1-2.1,2.1-2.1h9.3c1.2,0,2.1,1,2.1,2.1v12
			C855.1,357.7,854.1,358.6,852.9,358.6z"/>
		<path fill="#84D3C9" d="M904.7,361h-9.3c-1.2,0-2.1-1-2.1-2.1v-12c0-1.2,1-2.1,2.1-2.1h9.3c1.2,0,2.1,1,2.1,2.1v12
			C906.9,360,905.9,361,904.7,361z"/>
		<path fill="#84D3C9" d="M886.2,326.2h-9.3c-1.2,0-2.1-1-2.1-2.1v-12c0-1.2,1-2.1,2.1-2.1h9.3c1.2,0,2.1,1,2.1,2.1v12
			C888.3,325.2,887.4,326.2,886.2,326.2z"/>
		<path fill="#84D3C9" d="M852.9,326.2h-9.3c-1.2,0-2.1-1-2.1-2.1v-12c0-1.2,1-2.1,2.1-2.1h9.3c1.2,0,2.1,1,2.1,2.1v12
			C855.1,325.2,854.1,326.2,852.9,326.2z"/>
		<path fill="#84D3C9" d="M904.7,326.2h-9.3c-1.2,0-2.1-1-2.1-2.1v-12c0-1.2,1-2.1,2.1-2.1h9.3c1.2,0,2.1,1,2.1,2.1v12
			C906.9,325.2,905.9,326.2,904.7,326.2z"/>
		<path fill="#EA9C68" d="M910,285.3h-40.2c-0.8,0-1.5-0.4-1.9-1L847,253.4c-0.4-0.7,0-1.6,0.8-1.6H888c1.5,0,2.9,0.8,3.8,2l19.6,29
			C912,283.8,911.3,285.3,910,285.3z"/>
		<g>
			<path fill="#1A7F84" d="M883.1,256.9h-7.8c-0.6,0-1-0.5-1-1V245h9.9v10.9C884.1,256.4,883.6,256.9,883.1,256.9z"/>
			<path fill="#18717A" d="M883,256.9h-3.9V245h4.9v10.8C884.1,256.4,883.6,256.9,883,256.9z"/>
			<path fill="#1A7F84" d="M885.1,245h-11.9c-0.4,0-0.8-0.4-0.8-0.8v-1.5c0-0.4,0.4-0.8,0.8-0.8h11.9c0.4,0,0.8,0.4,0.8,0.8v1.5
				C885.9,244.6,885.5,245,885.1,245z"/>
			<path fill="#18717A" d="M885.1,245h-5.9v-3h5.9c0.5,0,0.8,0.4,0.8,0.8v1.4C885.9,244.6,885.5,245,885.1,245z"/>
		</g>
	</g>
	<g>
		<path fill="#176266" d="M1034.5,262.3l24.8,34.7c0.4,0.5,0.6,1.1,0.6,1.8v46.9c0,1.7-1.4,3.1-3.1,3.1H1007v-51l23.8-35.4
			C1031.7,261.1,1033.6,261,1034.5,262.3z"/>
		<path fill="#84D3C9" d="M1022,348.8h22.6v-35.6c0-2.5-2-4.4-4.4-4.4h-13.7c-2.5,0-4.4,2-4.4,4.4L1022,348.8L1022,348.8z"/>
		<path fill="#1A7F84" d="M959.5,348.8h47.6v-50.9h-47.6c-1.5,0-2.8,1.2-2.8,2.8v45.4C956.7,347.6,958,348.8,959.5,348.8z"/>
		<path fill="#84D3C9" d="M986.9,335.1h9.3c1.2,0,2.1-1,2.1-2.1v-19.6c0-1.2-1-2.1-2.1-2.1h-9.3c-1.2,0-2.1,1-2.1,2.1v19.5
			C984.7,334.2,985.7,335.1,986.9,335.1z"/>
		<path fill="#84D3C9" d="M965,335.1h9.3c1.2,0,2.1-1,2.1-2.1v-19.6c0-1.2-1-2.1-2.1-2.1H965c-1.2,0-2.1,1-2.1,2.1v19.5
			C962.9,334.2,963.9,335.1,965,335.1z"/>
		<path fill="#5B463B" d="M958.6,300.1h47.3c0.9,0,1.8-0.5,2.3-1.2l24.6-36.4c0.5-0.8,0-1.8-1-1.8h-47.3c-1.8,0-3.4,0.9-4.4,2.4
			L957,297.2C956.2,298.4,957.1,300.1,958.6,300.1z"/>
		<g>
			<path fill="#1A7F84" d="M993.5,270.5h7.8c0.6,0,1-0.5,1-1v-10.9h-9.9v10.9C992.5,270,993,270.5,993.5,270.5z"/>
			<path fill="#18717A" d="M993.6,270.5h3.9v-11.9h-4.9v10.8C992.5,270,993,270.5,993.6,270.5z"/>
			<path fill="#1A7F84" d="M991.5,258.6h11.9c0.4,0,0.8-0.4,0.8-0.8v-1.5c0-0.4-0.4-0.8-0.8-0.8h-11.9c-0.4,0-0.8,0.4-0.8,0.8v1.5
				C990.7,258.2,991.1,258.6,991.5,258.6z"/>
			<path fill="#18717A" d="M991.5,258.6h5.9v-3h-5.9c-0.5,0-0.8,0.4-0.8,0.8v1.4C990.7,258.2,991.1,258.6,991.5,258.6z"/>
		</g>
	</g>
	<g>
		<path fill="#1A7F84" d="M1142.6,262.3l-24.8,34.7c-0.4,0.5-0.6,1.1-0.6,1.8v46.9c0,1.7,1.4,3.1,3.1,3.1h49.9v-51l-23.8-35.4
			C1145.5,261.1,1143.6,261,1142.6,262.3z"/>
		<path fill="#84D3C9" d="M1155.2,348.8h-22.6v-35.6c0-2.5,2-4.4,4.4-4.4h13.7c2.5,0,4.4,2,4.4,4.4L1155.2,348.8L1155.2,348.8z"/>
		<path fill="#176266" d="M1217.7,348.8h-47.6v-50.9h47.6c1.5,0,2.8,1.2,2.8,2.8v45.4C1220.5,347.6,1219.2,348.8,1217.7,348.8z"/>
		<path fill="#84D3C9" d="M1190.3,335.1h-9.3c-1.2,0-2.1-1-2.1-2.1v-19.6c0-1.2,1-2.1,2.1-2.1h9.3c1.2,0,2.1,1,2.1,2.1v19.5
			C1192.5,334.2,1191.5,335.1,1190.3,335.1z"/>
		<path fill="#84D3C9" d="M1212.1,335.1h-9.3c-1.2,0-2.1-1-2.1-2.1v-19.6c0-1.2,1-2.1,2.1-2.1h9.3c1.2,0,2.1,1,2.1,2.1v19.5
			C1214.3,334.2,1213.3,335.1,1212.1,335.1z"/>
		<path fill="#EA9C68" d="M1218.6,300.1h-47.3c-0.9,0-1.8-0.5-2.3-1.2l-24.6-36.4c-0.5-0.8,0-1.8,1-1.8h47.3c1.8,0,3.4,0.9,4.4,2.4
			l23.1,34.1C1220.9,298.4,1220.1,300.1,1218.6,300.1z"/>
		<g>
			<path fill="#1A7F84" d="M1183.7,270.5h-7.8c-0.6,0-1-0.5-1-1v-10.9h9.9v10.9C1184.7,270,1184.2,270.5,1183.7,270.5z"/>
			<path fill="#18717A" d="M1183.6,270.5h-3.9v-11.9h4.9v10.8C1184.7,270,1184.2,270.5,1183.6,270.5z"/>
			<path fill="#1A7F84" d="M1185.7,258.6h-11.9c-0.4,0-0.8-0.4-0.8-0.8v-1.5c0-0.4,0.4-0.8,0.8-0.8h11.9c0.4,0,0.8,0.4,0.8,0.8v1.5
				C1186.5,258.2,1186.1,258.6,1185.7,258.6z"/>
			<path fill="#18717A" d="M1185.7,258.6h-5.9v-3h5.9c0.5,0,0.8,0.4,0.8,0.8v1.4C1186.5,258.2,1186.1,258.6,1185.7,258.6z"/>
		</g>
	</g>
	<g>
		<path fill="#1A7F84" d="M1057,287.6V383c0,1.7,1.4,3.1,3.1,3.1h41.8V285.6l-19.1-30.7c-1.5-2.5-5.1-2.5-6.6,0l-18,28.9
			C1057.4,285,1057,286.3,1057,287.6z"/>
		<path fill="#18717A" d="M1138.4,386h-36.6V285.6h36.6c1.5,0,2.8,1.2,2.8,2.8v94.9C1141.2,384.8,1140,386,1138.4,386z"/>
		<path fill="#84D3C9" d="M1117.4,362.3h-9.3c-1.2,0-2.1-1-2.1-2.1v-12c0-1.2,1-2.1,2.1-2.1h9.3c1.2,0,2.1,1,2.1,2.1v12
			C1119.5,361.3,1118.6,362.3,1117.4,362.3z"/>
		<path fill="#84D3C9" d="M1084.1,360h-9.3c-1.2,0-2.1-1-2.1-2.1v-12c0-1.2,1-2.1,2.1-2.1h9.3c1.2,0,2.1,1,2.1,2.1v12
			C1086.2,359,1085.3,360,1084.1,360z"/>
		<path fill="#84D3C9" d="M1135.9,362.3h-9.3c-1.2,0-2.1-1-2.1-2.1v-12c0-1.2,1-2.1,2.1-2.1h9.3c1.2,0,2.1,1,2.1,2.1v12
			C1138.1,361.3,1137.1,362.3,1135.9,362.3z"/>
		<path fill="#84D3C9" d="M1117.4,327.5h-9.3c-1.2,0-2.1-1-2.1-2.1v-12c0-1.2,1-2.1,2.1-2.1h9.3c1.2,0,2.1,1,2.1,2.1v12
			C1119.5,326.5,1118.6,327.5,1117.4,327.5z"/>
		<path fill="#84D3C9" d="M1084.1,327.5h-9.3c-1.2,0-2.1-1-2.1-2.1v-12c0-1.2,1-2.1,2.1-2.1h9.3c1.2,0,2.1,1,2.1,2.1v12
			C1086.2,326.5,1085.3,327.5,1084.1,327.5z"/>
		<path fill="#84D3C9" d="M1135.9,327.5h-9.3c-1.2,0-2.1-1-2.1-2.1v-12c0-1.2,1-2.1,2.1-2.1h9.3c1.2,0,2.1,1,2.1,2.1v12
			C1138.1,326.5,1137.1,327.5,1135.9,327.5z"/>
		<path fill="#5B463B" d="M1141.2,286.6H1101c-0.8,0-1.5-0.4-1.9-1l-20.9-30.9c-0.4-0.7,0-1.6,0.8-1.6h40.2c1.5,0,2.9,0.8,3.8,2
			l19.6,29C1143.2,285.1,1142.4,286.6,1141.2,286.6z"/>
		<g>
			<path fill="#1A7F84" d="M1114.3,258.2h-7.8c-0.6,0-1-0.5-1-1v-10.9h9.9v10.9C1115.3,257.7,1114.8,258.2,1114.3,258.2z"/>
			<path fill="#18717A" d="M1114.2,258.2h-3.9v-11.9h4.9v10.8C1115.3,257.7,1114.8,258.2,1114.2,258.2z"/>
			<path fill="#1A7F84" d="M1116.3,246.3h-11.9c-0.4,0-0.8-0.4-0.8-0.8V244c0-0.4,0.4-0.8,0.8-0.8h11.9c0.4,0,0.8,0.4,0.8,0.8v1.5
				C1117.1,246,1116.7,246.3,1116.3,246.3z"/>
			<path fill="#18717A" d="M1116.3,246.3h-5.9v-3h5.9c0.5,0,0.8,0.4,0.8,0.8v1.4C1117.1,245.9,1116.7,246.3,1116.3,246.3z"/>
		</g>
	</g>
	<g>
		<path fill="#1A7F84" d="M1135.9,307l-24.9,34.7c-0.4,0.5-0.6,1.1-0.6,1.8v46.9c0,1.7,1.4,3.1,3.1,3.1h49.9v-51l-23.8-35.4
			C1138.7,305.7,1136.8,305.7,1135.9,307z"/>
		<path fill="#84D3C9" d="M1148.5,393.5h-22.6v-35.6c0-2.5,2-4.4,4.4-4.4h13.7c2.5,0,4.4,2,4.4,4.4L1148.5,393.5L1148.5,393.5z"/>
		<path fill="#18717A" d="M1210.9,393.5h-47.6v-50.9h47.6c1.5,0,2.8,1.2,2.8,2.8v45.3C1213.7,392.2,1212.5,393.5,1210.9,393.5z"/>
		<path fill="#84D3C9" d="M1183.6,379.8h-9.3c-1.2,0-2.1-1-2.1-2.1v-19.5c0-1.2,1-2.1,2.1-2.1h9.3c1.2,0,2.1,1,2.1,2.1v19.5
			C1185.7,378.8,1184.7,379.8,1183.6,379.8z"/>
		<path fill="#84D3C9" d="M1205.4,379.8h-9.3c-1.2,0-2.1-1-2.1-2.1v-19.5c0-1.2,1-2.1,2.1-2.1h9.3c1.2,0,2.1,1,2.1,2.1v19.5
			C1207.5,378.8,1206.6,379.8,1205.4,379.8z"/>
		<path fill="#5B463B" d="M1211.8,344.8h-47.3c-0.9,0-1.8-0.5-2.3-1.2l-24.6-36.4c-0.5-0.8,0-1.8,1-1.8h47.3c1.8,0,3.4,0.9,4.4,2.4
			l23.1,34.1C1214.2,343.1,1213.3,344.8,1211.8,344.8z"/>
		<g>
			<path fill="#1A7F84" d="M1176.9,315.1h-7.8c-0.6,0-1-0.5-1-1v-10.9h9.9v10.9C1177.9,314.6,1177.5,315.1,1176.9,315.1z"/>
			<path fill="#18717A" d="M1176.9,315.1h-3.9v-11.9h4.9V314C1177.9,314.6,1177.4,315.1,1176.9,315.1z"/>
			<path fill="#1A7F84" d="M1178.9,303.2H1167c-0.4,0-0.8-0.4-0.8-0.8v-1.5c0-0.4,0.4-0.8,0.8-0.8h11.9c0.4,0,0.8,0.4,0.8,0.8v1.5
				C1179.7,302.9,1179.4,303.2,1178.9,303.2z"/>
			<path fill="#18717A" d="M1178.9,303.2h-5.9v-3h5.9c0.5,0,0.8,0.4,0.8,0.8v1.4C1179.7,302.9,1179.4,303.2,1178.9,303.2z"/>
		</g>
	</g>
	<g>
		<path fill="#1A7F84" d="M984.9,306.1l-24.8,34.7c-0.4,0.5-0.6,1.1-0.6,1.8v46.9c0,1.7,1.4,3.1,3.1,3.1h49.9v-51l-23.8-35.4
			C987.8,304.8,985.9,304.8,984.9,306.1z"/>
		<path fill="#84D3C9" d="M997.5,392.6h-22.6V357c0-2.5,2-4.4,4.4-4.4H993c2.5,0,4.4,2,4.4,4.4L997.5,392.6L997.5,392.6z"/>
		<path fill="#176266" d="M1060,392.6h-47.6v-50.9h47.6c1.5,0,2.8,1.2,2.8,2.8v45.4C1062.8,391.4,1061.5,392.6,1060,392.6z"/>
		<path fill="#84D3C9" d="M1032.6,378.9h-9.3c-1.2,0-2.1-1-2.1-2.1v-19.5c0-1.2,1-2.1,2.1-2.1h9.3c1.2,0,2.1,1,2.1,2.1v19.5
			C1034.8,378,1033.8,378.9,1032.6,378.9z"/>
		<path fill="#84D3C9" d="M1054.4,378.9h-9.3c-1.2,0-2.1-1-2.1-2.1v-19.5c0-1.2,1-2.1,2.1-2.1h9.3c1.2,0,2.1,1,2.1,2.1v19.5
			C1056.6,378,1055.6,378.9,1054.4,378.9z"/>
		<path fill="#EA9C68" d="M1060.9,343.9h-47.3c-0.9,0-1.8-0.5-2.3-1.2l-24.6-36.4c-0.5-0.8,0-1.8,1-1.8h47.3c1.8,0,3.4,0.9,4.4,2.4
			l23.1,34.1C1063.2,342.2,1062.4,343.9,1060.9,343.9z"/>
		<g>
			<path fill="#1A7F84" d="M1026,314.2h-7.8c-0.6,0-1-0.5-1-1v-10.8h9.9v10.9C1027,313.8,1026.5,314.2,1026,314.2z"/>
			<path fill="#18717A" d="M1025.9,314.2h-3.9v-11.8h4.9v10.8C1027,313.8,1026.5,314.2,1025.9,314.2z"/>
			<path fill="#1A7F84" d="M1028,302.4h-11.9c-0.4,0-0.8-0.4-0.8-0.8v-1.5c0-0.4,0.4-0.8,0.8-0.8h11.9c0.4,0,0.8,0.4,0.8,0.8v1.5
				C1028.8,302,1028.4,302.4,1028,302.4z"/>
			<path fill="#18717A" d="M1028,302.4h-6v-3h5.9c0.5,0,0.8,0.4,0.8,0.8v1.4C1028.8,302,1028.4,302.4,1028,302.4z"/>
		</g>
	</g>
	<g>
		<path fill="#1A7F84" d="M881.5,306.1v95.4c0,1.7,1.4,3.1,3.1,3.1h41.8V304.1l-19.1-30.7c-1.5-2.5-5.1-2.5-6.6,0l-18,28.9
			C881.9,303.4,881.5,304.8,881.5,306.1z"/>
		<path fill="#18717A" d="M963,404.5h-36.6V304.1H963c1.5,0,2.8,1.2,2.8,2.8v94.9C965.7,403.3,964.5,404.5,963,404.5z"/>
		<path fill="#84D3C9" d="M941.9,380.8h-9.3c-1.2,0-2.1-1-2.1-2.1v-12c0-1.2,1-2.1,2.1-2.1h9.3c1.2,0,2.1,1,2.1,2.1v12
			C944,379.8,943.1,380.8,941.9,380.8z"/>
		<path fill="#84D3C9" d="M908.6,378.5h-9.3c-1.2,0-2.1-1-2.1-2.1v-12c0-1.2,1-2.1,2.1-2.1h9.3c1.2,0,2.1,1,2.1,2.1v12
			C910.8,377.5,909.8,378.5,908.6,378.5z"/>
		<path fill="#84D3C9" d="M960.4,380.8h-9.3c-1.2,0-2.1-1-2.1-2.1v-12c0-1.2,1-2.1,2.1-2.1h9.3c1.2,0,2.1,1,2.1,2.1v12
			C962.6,379.8,961.6,380.8,960.4,380.8z"/>
		<path fill="#84D3C9" d="M941.9,346h-9.3c-1.2,0-2.1-1-2.1-2.1v-12c0-1.2,1-2.1,2.1-2.1h9.3c1.2,0,2.1,1,2.1,2.1v12
			C944,345,943.1,346,941.9,346z"/>
		<path fill="#84D3C9" d="M908.6,346h-9.3c-1.2,0-2.1-1-2.1-2.1v-12c0-1.2,1-2.1,2.1-2.1h9.3c1.2,0,2.1,1,2.1,2.1v12
			C910.8,345,909.8,346,908.6,346z"/>
		<path fill="#84D3C9" d="M960.4,346h-9.3c-1.2,0-2.1-1-2.1-2.1v-12c0-1.2,1-2.1,2.1-2.1h9.3c1.2,0,2.1,1,2.1,2.1v12
			C962.6,345,961.6,346,960.4,346z"/>
		<path fill="#EA9C68" d="M965.7,305.1h-40.2c-0.8,0-1.5-0.4-1.9-1l-20.9-30.9c-0.4-0.7,0-1.6,0.8-1.6h40.2c1.5,0,2.9,0.8,3.8,2
			l19.6,29C967.7,303.6,967,305.1,965.7,305.1z"/>
		<g>
			<path fill="#1A7F84" d="M938.8,276.7H931c-0.6,0-1-0.5-1-1v-10.9h9.9v10.9C939.8,276.2,939.3,276.7,938.8,276.7z"/>
			<path fill="#18717A" d="M938.8,276.7h-3.9v-11.9h4.9v10.8C939.8,276.2,939.3,276.7,938.8,276.7z"/>
			<path fill="#1A7F84" d="M940.8,264.8h-11.9c-0.4,0-0.8-0.4-0.8-0.8v-1.5c0-0.4,0.4-0.8,0.8-0.8h11.9c0.4,0,0.8,0.4,0.8,0.8v1.5
				C941.6,264.5,941.3,264.8,940.8,264.8z"/>
			<path fill="#18717A" d="M940.8,264.8h-5.9v-3h5.9c0.5,0,0.8,0.4,0.8,0.8v1.4C941.6,264.4,941.2,264.8,940.8,264.8z"/>
		</g>
	</g>
	<g>
		<path fill="#1B8989" d="M814.8,313.8l24.8,34.7c0.4,0.5,0.6,1.1,0.6,1.8v46.9c0,1.7-1.4,3.1-3.1,3.1h-49.9v-51l23.8-35.5
			C811.9,312.5,813.9,312.5,814.8,313.8z"/>
		<path fill="#84D3C9" d="M802.2,400.3h22.6v-35.6c0-2.5-2-4.4-4.4-4.4h-13.7c-2.5,0-4.4,2-4.4,4.4L802.2,400.3L802.2,400.3z"/>
		<path fill="#18717A" d="M739.7,400.3h47.6v-50.9h-47.6c-1.5,0-2.8,1.2-2.8,2.8v45.4C737,399,738.2,400.3,739.7,400.3z"/>
		<path fill="#84D3C9" d="M767.1,386.6h9.3c1.2,0,2.1-1,2.1-2.1V365c0-1.2-1-2.1-2.1-2.1h-9.3c-1.2,0-2.1,1-2.1,2.1v19.5
			C765,385.6,765.9,386.6,767.1,386.6z"/>
		<path fill="#84D3C9" d="M745.3,386.6h9.3c1.2,0,2.1-1,2.1-2.1V365c0-1.2-1-2.1-2.1-2.1h-9.3c-1.2,0-2.1,1-2.1,2.1v19.5
			C743.1,385.6,744.1,386.6,745.3,386.6z"/>
		<path fill="#EA9C68" d="M738.9,351.6h47.3c0.9,0,1.8-0.5,2.3-1.2l24.6-36.4c0.5-0.8,0-1.8-1-1.8h-47.3c-1.8,0-3.4,0.9-4.4,2.4
			l-23.1,34.1C736.5,349.9,737.4,351.6,738.9,351.6z"/>
		<g>
			<path fill="#1A7F84" d="M773.8,321.9h7.8c0.6,0,1-0.5,1-1V310h-9.9v10.9C772.8,321.4,773.2,321.9,773.8,321.9z"/>
			<path fill="#18717A" d="M773.8,321.9h3.9V310h-4.9v10.8C772.8,321.4,773.2,321.9,773.8,321.9z"/>
			<path fill="#1A7F84" d="M771.7,310h11.9c0.4,0,0.8-0.4,0.8-0.8v-1.5c0-0.4-0.4-0.8-0.8-0.8h-11.9c-0.4,0-0.8,0.4-0.8,0.8v1.5
				C771,309.7,771.3,310,771.7,310z"/>
			<path fill="#18717A" d="M771.8,310h5.9v-3h-5.9c-0.5,0-0.8,0.4-0.8,0.8v1.4C771,309.7,771.3,310,771.8,310z"/>
		</g>
	</g>
	<g>
		<path fill="#176266" d="M1294.7,303.4v95.4c0,1.7-1.4,3.1-3.1,3.1h-41.8V301.4l19.2-30.7c1.5-2.5,5.1-2.5,6.6,0l18,28.9
			C1294.4,300.8,1294.7,302.1,1294.7,303.4z"/>
		<path fill="#1A7F84" d="M1213.3,401.8h36.6V301.4h-36.6c-1.5,0-2.8,1.2-2.8,2.8v94.9C1210.6,400.6,1211.8,401.8,1213.3,401.8z"/>
		<path fill="#84D3C9" d="M1234.4,378.1h9.3c1.2,0,2.1-1,2.1-2.1v-12c0-1.2-1-2.1-2.1-2.1h-9.3c-1.2,0-2.1,1-2.1,2.1v12
			C1232.2,377.1,1233.2,378.1,1234.4,378.1z"/>
		<path fill="#84D3C9" d="M1267.7,375.8h9.3c1.2,0,2.1-1,2.1-2.1v-12c0-1.2-1-2.1-2.1-2.1h-9.3c-1.2,0-2.1,1-2.1,2.1v12
			C1265.5,374.8,1266.5,375.8,1267.7,375.8z"/>
		<path fill="#84D3C9" d="M1215.8,378.1h9.3c1.2,0,2.1-1,2.1-2.1v-12c0-1.2-1-2.1-2.1-2.1h-9.3c-1.2,0-2.1,1-2.1,2.1v12
			C1213.7,377.1,1214.7,378.1,1215.8,378.1z"/>
		<path fill="#84D3C9" d="M1234.4,343.3h9.3c1.2,0,2.1-1,2.1-2.1v-12c0-1.2-1-2.1-2.1-2.1h-9.3c-1.2,0-2.1,1-2.1,2.1v12
			C1232.2,342.3,1233.2,343.3,1234.4,343.3z"/>
		<path fill="#84D3C9" d="M1267.7,343.3h9.3c1.2,0,2.1-1,2.1-2.1v-12c0-1.2-1-2.1-2.1-2.1h-9.3c-1.2,0-2.1,1-2.1,2.1v12
			C1265.5,342.3,1266.5,343.3,1267.7,343.3z"/>
		<path fill="#84D3C9" d="M1215.8,343.3h9.3c1.2,0,2.1-1,2.1-2.1v-12c0-1.2-1-2.1-2.1-2.1h-9.3c-1.2,0-2.1,1-2.1,2.1v12
			C1213.7,342.3,1214.7,343.3,1215.8,343.3z"/>
		<path fill="#EA9C68" d="M1210.6,302.4h40.2c0.8,0,1.5-0.4,1.9-1l20.9-30.9c0.4-0.7,0-1.6-0.8-1.6h-40.2c-1.5,0-2.9,0.8-3.8,2
			l-19.6,29C1208.6,300.9,1209.3,302.4,1210.6,302.4z"/>
		<g>
			<path fill="#1A7F84" d="M1237.5,274h7.8c0.6,0,1-0.5,1-1v-10.9h-9.9V273C1236.5,273.5,1236.9,274,1237.5,274z"/>
			<path fill="#18717A" d="M1237.5,274h3.9v-11.9h-4.9v10.8C1236.5,273.5,1237,274,1237.5,274z"/>
			<path fill="#1A7F84" d="M1235.5,262.1h11.9c0.4,0,0.8-0.4,0.8-0.8v-1.5c0-0.4-0.4-0.8-0.8-0.8h-11.9c-0.4,0-0.8,0.4-0.8,0.8v1.5
				C1234.7,261.8,1235,262.1,1235.5,262.1z"/>
			<path fill="#18717A" d="M1235.5,262.1h5.9v-3h-5.9c-0.5,0-0.8,0.4-0.8,0.8v1.4C1234.7,261.7,1235.1,262.1,1235.5,262.1z"/>
		</g>
	</g>
</g>
<g id="Layer_8">
</g>
<g id="Layer_2">
</g>
</svg>
