<?xml version="1.0" encoding="utf-8"?>
<!-- Generator: Adobe Illustrator 19.1.0, SVG Export Plug-In . SVG Version: 6.00 Build 0)  -->
<svg version="1.1" xmlns="http://www.w3.org/2000/svg" xmlns:xlink="http://www.w3.org/1999/xlink" x="0px" y="0px"
	 viewBox="0 0 100 160" style="enable-background:new 0 0 100 160;" xml:space="preserve">
<style type="text/css">
	.st0{fill:#4ACCC2;}
	.st1{fill:#18717A;}
	.st2{fill:none;stroke:#EDA574;stroke-width:20;stroke-miterlimit:10;}
	.st3{fill:#1A7F84;}
	.st4{fill:#84D3C9;}
	.st5{fill:#5B463B;}
	.st6{fill:#EA9C68;}
	.st7{fill:#31AA9B;}
	.st8{fill:#176266;}
	.st9{fill:#1B8989;}
	.st10{fill:#EFEFEF;}
	.st11{fill:#1C88A5;}
	.st12{fill:#1B7989;}
	.st13{fill:#EDA574;}
	.st14{fill:#F2F9F8;}
</style>
<g id="Layer_3">
</g>
<g id="Layer_1">
	<g id="Layer_4">
	</g>
</g>
<g id="Houses">
	<g>
		<path class="st3" d="M9.2,51.9v95.4c0,1.7,1.4,3.1,3.1,3.1H54V49.8L34.9,19.2c-1.5-2.5-5.1-2.5-6.6,0l-18,28.9
			C9.5,49.2,9.2,50.6,9.2,51.9z"/>
		<path class="st1" d="M90.6,150.3H54V49.9h36.6c1.5,0,2.8,1.2,2.8,2.8v94.9C93.3,149.1,92.1,150.3,90.6,150.3z"/>
		<path class="st4" d="M69.5,126.6h-9.3c-1.2,0-2.1-1-2.1-2.1v-12c0-1.2,1-2.1,2.1-2.1h9.3c1.2,0,2.1,1,2.1,2.1v12
			C71.7,125.6,70.7,126.6,69.5,126.6z"/>
		<path class="st4" d="M36.2,124.2h-9.3c-1.2,0-2.1-1-2.1-2.1v-12c0-1.2,1-2.1,2.1-2.1h9.3c1.2,0,2.1,1,2.1,2.1v12
			C38.4,123.3,37.4,124.2,36.2,124.2z"/>
		<path class="st4" d="M88.1,126.6h-9.3c-1.2,0-2.1-1-2.1-2.1v-12c0-1.2,1-2.1,2.1-2.1h9.3c1.2,0,2.1,1,2.1,2.1v12
			C90.2,125.6,89.2,126.6,88.1,126.6z"/>
		<path class="st4" d="M69.5,91.8h-9.3c-1.2,0-2.1-1-2.1-2.1v-12c0-1.2,1-2.1,2.1-2.1h9.3c1.2,0,2.1,1,2.1,2.1v12
			C71.7,90.8,70.7,91.8,69.5,91.8z"/>
		<path class="st4" d="M36.2,91.8h-9.3c-1.2,0-2.1-1-2.1-2.1v-12c0-1.2,1-2.1,2.1-2.1h9.3c1.2,0,2.1,1,2.1,2.1v12
			C38.4,90.8,37.4,91.8,36.2,91.8z"/>
		<path class="st4" d="M88.1,91.8h-9.3c-1.2,0-2.1-1-2.1-2.1v-12c0-1.2,1-2.1,2.1-2.1h9.3c1.2,0,2.1,1,2.1,2.1v12
			C90.2,90.8,89.2,91.8,88.1,91.8z"/>
		<path class="st6" d="M93.3,50.9H53.1c-0.8,0-1.5-0.4-1.9-1L30.2,18.9c-0.4-0.7,0-1.6,0.8-1.6h40.2c1.5,0,2.9,0.8,3.8,2l19.6,29
			C95.3,49.4,94.6,50.9,93.3,50.9z"/>
		<g>
			<path class="st3" d="M66.4,22.5h-7.8c-0.6,0-1-0.5-1-1V10.6h9.9v10.9C67.4,22,67,22.5,66.4,22.5z"/>
			<path class="st1" d="M66.4,22.5h-3.9V10.6h4.9v10.8C67.4,22,66.9,22.5,66.4,22.5z"/>
			<path class="st3" d="M68.4,10.6H56.5c-0.4,0-0.8-0.4-0.8-0.8V8.4c0-0.4,0.4-0.8,0.8-0.8h11.9c0.4,0,0.8,0.4,0.8,0.8v1.5
				C69.2,10.3,68.9,10.6,68.4,10.6z"/>
			<path class="st1" d="M68.4,10.6h-5.9v-3h5.9c0.5,0,0.8,0.4,0.8,0.8v1.4C69.2,10.2,68.9,10.6,68.4,10.6z"/>
		</g>
	</g>
</g>
<g id="houserow">
</g>
<g id="Layer_6">
</g>
<g id="Layer_9">
</g>
<g id="Layer_8">
</g>
<g id="Layer_2">
</g>
</svg>
