<?xml version="1.0" encoding="utf-8"?>
<!-- Generator: Adobe Illustrator 19.1.0, SVG Export Plug-In . SVG Version: 6.00 Build 0)  -->
<svg version="1.1" xmlns="http://www.w3.org/2000/svg" xmlns:xlink="http://www.w3.org/1999/xlink" x="0px" y="0px"
	 viewBox="0 0 124 124" style="enable-background:new 0 0 124 124;" xml:space="preserve">
<style type="text/css">
	.st0{fill:#4ACCC2;}
	.st1{fill:#18717A;}
	.st2{fill:none;stroke:#EDA574;stroke-width:20;stroke-miterlimit:10;}
	.st3{fill:#1A7F84;}
	.st4{fill:#84D3C9;}
	.st5{fill:#5B463B;}
	.st6{fill:#EA9C68;}
	.st7{fill:#31AA9B;}
	.st8{fill:#176266;}
	.st9{fill:#1B8989;}
	.st10{fill:#EFEFEF;}
	.st11{fill:#1C88A5;}
	.st12{fill:#1B7989;}
	.st13{fill:#EDA574;}
	.st14{fill:#F2F9F8;}
</style>
<g id="Layer_3">
</g>
<g id="Layer_1">
	<g id="Layer_4">
	</g>
</g>
<g id="Houses">
	<g>
		<path class="st3" d="M91,22l24.8,34.7c0.4,0.5,0.6,1.1,0.6,1.8v46.9c0,1.7-1.4,3.1-3.1,3.1H63.5v-51L87.3,22
			C88.2,20.7,90.1,20.7,91,22z"/>
		<path class="st4" d="M78.5,108.5h22.6V72.8c0-2.5-2-4.4-4.4-4.4H82.9c-2.5,0-4.4,2-4.4,4.4V108.5z"/>
		<path class="st1" d="M16,108.5h47.6V57.5H16c-1.5,0-2.8,1.2-2.8,2.8v45.4C13.2,107.2,14.5,108.5,16,108.5z"/>
		<path class="st4" d="M43.4,94.8h9.3c1.2,0,2.1-1,2.1-2.1V73.1c0-1.2-1-2.1-2.1-2.1h-9.3c-1.2,0-2.1,1-2.1,2.1v19.5
			C41.2,93.8,42.2,94.8,43.4,94.8z"/>
		<path class="st4" d="M21.5,94.8h9.3c1.2,0,2.1-1,2.1-2.1V73.1c0-1.2-1-2.1-2.1-2.1h-9.3c-1.2,0-2.1,1-2.1,2.1v19.5
			C19.4,93.8,20.4,94.8,21.5,94.8z"/>
		<path class="st5" d="M15.1,59.7h47.3c0.9,0,1.8-0.5,2.3-1.2l24.6-36.4c0.5-0.8,0-1.8-1-1.8H41.1c-1.8,0-3.4,0.9-4.4,2.4L13.6,56.8
			C12.7,58,13.6,59.7,15.1,59.7z"/>
		<g>
			<path class="st3" d="M50,30.1h7.8c0.6,0,1-0.5,1-1V18.2H49v10.9C49,29.6,49.5,30.1,50,30.1z"/>
			<path class="st1" d="M50.1,30.1H54V18.2H49V29C49,29.6,49.5,30.1,50.1,30.1z"/>
			<path class="st3" d="M48,18.2h11.9c0.4,0,0.8-0.4,0.8-0.8V16c0-0.4-0.4-0.8-0.8-0.8H48c-0.4,0-0.8,0.4-0.8,0.8v1.5
				C47.2,17.9,47.6,18.2,48,18.2z"/>
			<path class="st1" d="M48,18.2H54v-3H48c-0.5,0-0.8,0.4-0.8,0.8v1.4C47.2,17.8,47.6,18.2,48,18.2z"/>
		</g>
	</g>
</g>
<g id="houserow">
</g>
<g id="Layer_6">
</g>
<g id="Layer_9">
</g>
<g id="Layer_8">
</g>
<g id="Layer_2">
</g>
</svg>
