<?xml version="1.0" encoding="utf-8"?>
<!-- Generator: Adobe Illustrator 19.1.0, SVG Export Plug-In . SVG Version: 6.00 Build 0)  -->
<svg version="1.1" xmlns="http://www.w3.org/2000/svg" xmlns:xlink="http://www.w3.org/1999/xlink" x="0px" y="0px"
	 viewBox="0 0 124 124" style="enable-background:new 0 0 124 124;" xml:space="preserve">
<style type="text/css">
	.st0{fill:#4ACCC2;}
	.st1{fill:#18717A;}
	.st2{fill:none;stroke:#EDA574;stroke-width:20;stroke-miterlimit:10;}
	.st3{fill:#1A7F84;}
	.st4{fill:#84D3C9;}
	.st5{fill:#5B463B;}
	.st6{fill:#EA9C68;}
	.st7{fill:#31AA9B;}
	.st8{fill:#176266;}
	.st9{fill:#1B8989;}
	.st10{fill:#EFEFEF;}
	.st11{fill:#1C88A5;}
	.st12{fill:#1B7989;}
	.st13{fill:#EDA574;}
	.st14{fill:#F2F9F8;}
</style>
<g id="Layer_3">
</g>
<g id="Layer_1">
	<g id="Layer_4">
	</g>
</g>
<g id="Houses">
	<g>
		<path class="st3" d="M86,25.2l24.8,34.7c0.4,0.5,0.6,1.1,0.6,1.8v46.9c0,1.7-1.4,3.1-3.1,3.1H58.5v-51l23.8-35.4
			C83.2,23.9,85.1,23.9,86,25.2z"/>
		<path class="st4" d="M73.5,111.7h22.6V76.1c0-2.5-2-4.4-4.4-4.4H77.9c-2.5,0-4.4,2-4.4,4.4V111.7z"/>
		<path class="st1" d="M11,111.7h47.6V60.8H11c-1.5,0-2.8,1.2-2.8,2.8v45.4C8.2,110.5,9.5,111.7,11,111.7z"/>
		<path class="st4" d="M38.4,98h9.3c1.2,0,2.1-1,2.1-2.1V76.3c0-1.2-1-2.1-2.1-2.1h-9.3c-1.2,0-2.1,1-2.1,2.1v19.5
			C36.2,97.1,37.2,98,38.4,98z"/>
		<path class="st4" d="M16.5,98h9.3c1.2,0,2.1-1,2.1-2.1V76.3c0-1.2-1-2.1-2.1-2.1h-9.3c-1.2,0-2.1,1-2.1,2.1v19.5
			C14.4,97.1,15.4,98,16.5,98z"/>
		<path class="st6" d="M10.1,63h47.3c0.9,0,1.8-0.5,2.3-1.2l24.6-36.4c0.5-0.8,0-1.8-1-1.8H36.1c-1.8,0-3.4,0.9-4.4,2.4L8.6,60
			C7.7,61.3,8.6,63,10.1,63z"/>
		<g>
			<path class="st3" d="M45,33.3h7.8c0.6,0,1-0.5,1-1V21.5H44v10.9C44,32.9,44.5,33.3,45,33.3z"/>
			<path class="st1" d="M45.1,33.3H49V21.5H44v10.8C44,32.9,44.5,33.3,45.1,33.3z"/>
			<path class="st3" d="M43,21.5h11.9c0.4,0,0.8-0.4,0.8-0.8v-1.5c0-0.4-0.4-0.8-0.8-0.8H43c-0.4,0-0.8,0.4-0.8,0.8v1.5
				C42.2,21.1,42.6,21.5,43,21.5z"/>
			<path class="st1" d="M43,21.5H49v-3H43c-0.5,0-0.8,0.4-0.8,0.8v1.4C42.2,21.1,42.6,21.5,43,21.5z"/>
		</g>
	</g>
</g>
<g id="houserow">
</g>
<g id="Layer_6">
</g>
<g id="Layer_9">
</g>
<g id="Layer_8">
</g>
<g id="Layer_2">
</g>
</svg>
