<?xml version="1.0" encoding="utf-8"?>
<!-- Generator: Adobe Illustrator 19.1.0, SVG Export Plug-In . SVG Version: 6.00 Build 0)  -->
<svg version="1.1" xmlns="http://www.w3.org/2000/svg" xmlns:xlink="http://www.w3.org/1999/xlink" x="0px" y="0px"
	 viewBox="0 0 1024 209.3" style="enable-background:new 0 0 1024 209.3;" xml:space="preserve">
<style type="text/css">
	.st0{fill:#4ACCC2;}
	.st1{fill:#18717A;}
	.st2{fill:none;stroke:#EDA574;stroke-width:20;stroke-miterlimit:10;}
	.st3{fill:#1A7F84;}
	.st4{fill:#84D3C9;}
	.st5{fill:#5B463B;}
	.st6{fill:#EA9C68;}
	.st7{fill:#31AA9B;}
	.st8{fill:#176266;}
	.st9{fill:#1B8989;}
	.st10{fill:#EFEFEF;}
	.st11{fill:#1C88A5;}
	.st12{fill:#1B7989;}
	.st13{fill:#EDA574;}
	.st14{fill:#F2F9F8;}
</style>
<g id="Layer_3">
</g>
<g id="Layer_1">
	<g id="Layer_4">
	</g>
</g>
<g id="Houses">
</g>
<g id="houserow">
</g>
<g id="Layer_6">
</g>
<g id="Layer_9">
	<g>
		<path class="st8" d="M499.1,72.7l-24.8,34.7c-0.4,0.5-0.6,1.1-0.6,1.8v46.9c0,1.7,1.4,3.1,3.1,3.1h49.9v-51l-23.8-35.4
			C502,71.4,500,71.4,499.1,72.7z"/>
		<path class="st4" d="M511.7,159.2h-22.6v-35.6c0-2.5,2-4.4,4.4-4.4h13.7c2.5,0,4.4,2,4.4,4.4V159.2z"/>
		<path class="st3" d="M574.2,159.2h-47.6v-50.9h47.6c1.5,0,2.8,1.2,2.8,2.8v45.4C576.9,158,575.7,159.2,574.2,159.2z"/>
		<path class="st4" d="M546.8,145.5h-9.3c-1.2,0-2.1-1-2.1-2.1v-19.5c0-1.2,1-2.1,2.1-2.1h9.3c1.2,0,2.1,1,2.1,2.1v19.5
			C548.9,144.6,548,145.5,546.8,145.5z"/>
		<path class="st4" d="M568.6,145.5h-9.3c-1.2,0-2.1-1-2.1-2.1v-19.5c0-1.2,1-2.1,2.1-2.1h9.3c1.2,0,2.1,1,2.1,2.1v19.5
			C570.8,144.6,569.8,145.5,568.6,145.5z"/>
		<path class="st5" d="M575,110.5h-47.3c-0.9,0-1.8-0.5-2.3-1.2l-24.6-36.4c-0.5-0.8,0-1.8,1-1.8h47.3c1.8,0,3.4,0.9,4.4,2.4
			l23.1,34.1C577.4,108.8,576.5,110.5,575,110.5z"/>
		<g>
			<path class="st3" d="M540.1,80.8h-7.8c-0.6,0-1-0.5-1-1V69h9.9v10.9C541.1,80.4,540.7,80.8,540.1,80.8z"/>
			<path class="st1" d="M540.1,80.8h-3.9V69h4.9v10.8C541.1,80.4,540.7,80.8,540.1,80.8z"/>
			<path class="st3" d="M542.2,69h-11.9c-0.4,0-0.8-0.4-0.8-0.8v-1.5c0-0.4,0.4-0.8,0.8-0.8h11.9c0.4,0,0.8,0.4,0.8,0.8v1.5
				C542.9,68.6,542.6,69,542.2,69z"/>
			<path class="st1" d="M542.1,69h-5.9v-3h5.9c0.5,0,0.8,0.4,0.8,0.8v1.4C542.9,68.6,542.6,69,542.1,69z"/>
		</g>
	</g>
	<g>
		<path class="st3" d="M478.4,69v95.4c0,1.7-1.4,3.1-3.1,3.1h-41.8V67l19.1-30.7c1.5-2.5,5.1-2.5,6.6,0l18,28.9
			C478,66.4,478.4,67.7,478.4,69z"/>
		<path class="st1" d="M397,167.5h36.6V67H397c-1.5,0-2.8,1.2-2.8,2.8v94.9C394.2,166.2,395.4,167.5,397,167.5z"/>
		<path class="st4" d="M418,143.7h9.3c1.2,0,2.1-1,2.1-2.1v-12c0-1.2-1-2.1-2.1-2.1H418c-1.2,0-2.1,1-2.1,2.1v12
			C415.9,142.8,416.8,143.7,418,143.7z"/>
		<path class="st4" d="M451.3,141.4h9.3c1.2,0,2.1-1,2.1-2.1v-12c0-1.2-1-2.1-2.1-2.1h-9.3c-1.2,0-2.1,1-2.1,2.1v12
			C449.2,140.4,450.1,141.4,451.3,141.4z"/>
		<path class="st4" d="M399.5,143.7h9.3c1.2,0,2.1-1,2.1-2.1v-12c0-1.2-1-2.1-2.1-2.1h-9.3c-1.2,0-2.1,1-2.1,2.1v12
			C397.3,142.8,398.3,143.7,399.5,143.7z"/>
		<path class="st4" d="M418,108.9h9.3c1.2,0,2.1-1,2.1-2.1v-12c0-1.2-1-2.1-2.1-2.1H418c-1.2,0-2.1,1-2.1,2.1v12
			C415.9,107.9,416.8,108.9,418,108.9z"/>
		<path class="st4" d="M451.3,108.9h9.3c1.2,0,2.1-1,2.1-2.1v-12c0-1.2-1-2.1-2.1-2.1h-9.3c-1.2,0-2.1,1-2.1,2.1v12
			C449.2,107.9,450.1,108.9,451.3,108.9z"/>
		<path class="st4" d="M399.5,108.9h9.3c1.2,0,2.1-1,2.1-2.1v-12c0-1.2-1-2.1-2.1-2.1h-9.3c-1.2,0-2.1,1-2.1,2.1v12
			C397.3,107.9,398.3,108.9,399.5,108.9z"/>
		<path class="st6" d="M394.2,68h40.2c0.8,0,1.5-0.4,1.9-1L457.3,36c0.4-0.7,0-1.6-0.8-1.6h-40.2c-1.5,0-2.9,0.8-3.8,2l-19.6,29
			C392.2,66.5,393,68,394.2,68z"/>
		<g>
			<path class="st3" d="M421.1,39.6h7.8c0.6,0,1-0.5,1-1V27.7h-9.9v10.9C420.1,39.2,420.6,39.6,421.1,39.6z"/>
			<path class="st1" d="M421.2,39.6h3.9V27.7h-4.9v10.8C420.1,39.1,420.6,39.6,421.2,39.6z"/>
			<path class="st3" d="M419.1,27.7H431c0.4,0,0.8-0.4,0.8-0.8v-1.5c0-0.4-0.4-0.8-0.8-0.8h-11.9c-0.4,0-0.8,0.4-0.8,0.8V27
				C418.3,27.4,418.7,27.7,419.1,27.7z"/>
			<path class="st1" d="M419.1,27.7h5.9v-3h-5.9c-0.5,0-0.8,0.4-0.8,0.8v1.4C418.3,27.4,418.7,27.7,419.1,27.7z"/>
		</g>
	</g>
	<g>
		<path class="st8" d="M260.2,46.1l-24.8,34.7c-0.4,0.5-0.6,1.1-0.6,1.8v46.9c0,1.7,1.4,3.1,3.1,3.1h49.9v-51L264,46.1
			C263.1,44.8,261.1,44.8,260.2,46.1z"/>
		<path class="st4" d="M272.8,132.6h-22.6V96.9c0-2.5,2-4.4,4.4-4.4h13.7c2.5,0,4.4,2,4.4,4.4V132.6z"/>
		<path class="st3" d="M335.3,132.6h-47.6V81.6h47.6c1.5,0,2.8,1.2,2.8,2.8v45.4C338,131.3,336.8,132.6,335.3,132.6z"/>
		<path class="st4" d="M307.9,118.9h-9.3c-1.2,0-2.1-1-2.1-2.1V97.2c0-1.2,1-2.1,2.1-2.1h9.3c1.2,0,2.1,1,2.1,2.1v19.5
			C310,117.9,309.1,118.9,307.9,118.9z"/>
		<path class="st4" d="M329.7,118.9h-9.3c-1.2,0-2.1-1-2.1-2.1V97.2c0-1.2,1-2.1,2.1-2.1h9.3c1.2,0,2.1,1,2.1,2.1v19.5
			C331.9,117.9,330.9,118.9,329.7,118.9z"/>
		<path class="st5" d="M336.1,83.9h-47.3c-0.9,0-1.8-0.5-2.3-1.2l-24.6-36.4c-0.5-0.8,0-1.8,1-1.8h47.3c1.8,0,3.4,0.9,4.4,2.4
			l23.1,34.1C338.5,82.2,337.6,83.9,336.1,83.9z"/>
		<g>
			<path class="st3" d="M301.2,54.2h-7.8c-0.6,0-1-0.5-1-1V42.3h9.9v10.9C302.2,53.7,301.8,54.2,301.2,54.2z"/>
			<path class="st1" d="M301.2,54.2h-3.9V42.3h4.9v10.8C302.2,53.7,301.8,54.2,301.2,54.2z"/>
			<path class="st3" d="M303.3,42.3h-11.9c-0.4,0-0.8-0.4-0.8-0.8v-1.5c0-0.4,0.4-0.8,0.8-0.8h11.9c0.4,0,0.8,0.4,0.8,0.8v1.5
				C304,42,303.7,42.3,303.3,42.3z"/>
			<path class="st1" d="M303.2,42.3h-5.9v-3h5.9c0.5,0,0.8,0.4,0.8,0.8v1.4C304,42,303.7,42.3,303.2,42.3z"/>
		</g>
	</g>
	<g>
		<path class="st3" d="M152.1,46.1l24.8,34.7c0.4,0.5,0.6,1.1,0.6,1.8v46.9c0,1.7-1.4,3.1-3.1,3.1h-49.9v-51l23.8-35.4
			C149.3,44.8,151.2,44.8,152.1,46.1z"/>
		<path class="st4" d="M139.5,132.6h22.6V96.9c0-2.5-2-4.4-4.4-4.4H144c-2.5,0-4.4,2-4.4,4.4V132.6z"/>
		<path class="st8" d="M77.1,132.6h47.6V81.6H77.1c-1.5,0-2.8,1.2-2.8,2.8v45.4C74.3,131.3,75.5,132.6,77.1,132.6z"/>
		<path class="st4" d="M104.4,118.9h9.3c1.2,0,2.1-1,2.1-2.1V97.2c0-1.2-1-2.1-2.1-2.1h-9.3c-1.2,0-2.1,1-2.1,2.1v19.5
			C102.3,117.9,103.3,118.9,104.4,118.9z"/>
		<path class="st4" d="M82.6,118.9h9.3c1.2,0,2.1-1,2.1-2.1V97.2c0-1.2-1-2.1-2.1-2.1h-9.3c-1.2,0-2.1,1-2.1,2.1v19.5
			C80.5,117.9,81.4,118.9,82.6,118.9z"/>
		<path class="st6" d="M76.2,83.9h47.3c0.9,0,1.8-0.5,2.3-1.2l24.6-36.4c0.5-0.8,0-1.8-1-1.8h-47.3c-1.8,0-3.4,0.9-4.4,2.4
			L74.6,80.9C73.8,82.2,74.7,83.9,76.2,83.9z"/>
		<g>
			<path class="st3" d="M111.1,54.2h7.8c0.6,0,1-0.5,1-1V42.3h-9.9v10.9C110.1,53.7,110.5,54.2,111.1,54.2z"/>
			<path class="st1" d="M111.1,54.2h3.9V42.3h-4.9v10.8C110.1,53.7,110.5,54.2,111.1,54.2z"/>
			<path class="st3" d="M109.1,42.3H121c0.4,0,0.8-0.4,0.8-0.8v-1.5c0-0.4-0.4-0.8-0.8-0.8h-11.9c-0.4,0-0.8,0.4-0.8,0.8v1.5
				C108.3,42,108.6,42.3,109.1,42.3z"/>
			<path class="st1" d="M109.1,42.3h5.9v-3h-5.9c-0.5,0-0.8,0.4-0.8,0.8v1.4C108.3,42,108.6,42.3,109.1,42.3z"/>
		</g>
	</g>
	<g>
		<path class="st3" d="M237.7,72.3v95.4c0,1.7-1.4,3.1-3.1,3.1h-41.8V70.3L212,39.6c1.5-2.5,5.1-2.5,6.6,0l18,28.9
			C237.4,69.7,237.7,71,237.7,72.3z"/>
		<path class="st1" d="M156.3,170.8h36.6V70.4h-36.6c-1.5,0-2.8,1.2-2.8,2.8V168C153.5,169.6,154.8,170.8,156.3,170.8z"/>
		<path class="st4" d="M177.4,147h9.3c1.2,0,2.1-1,2.1-2.1v-12c0-1.2-1-2.1-2.1-2.1h-9.3c-1.2,0-2.1,1-2.1,2.1v12
			C175.2,146.1,176.2,147,177.4,147z"/>
		<path class="st4" d="M210.6,144.7h9.3c1.2,0,2.1-1,2.1-2.1v-12c0-1.2-1-2.1-2.1-2.1h-9.3c-1.2,0-2.1,1-2.1,2.1v12
			C208.5,143.7,209.5,144.7,210.6,144.7z"/>
		<path class="st4" d="M158.8,147h9.3c1.2,0,2.1-1,2.1-2.1v-12c0-1.2-1-2.1-2.1-2.1h-9.3c-1.2,0-2.1,1-2.1,2.1v12
			C156.7,146.1,157.6,147,158.8,147z"/>
		<path class="st4" d="M177.4,112.2h9.3c1.2,0,2.1-1,2.1-2.1V98c0-1.2-1-2.1-2.1-2.1h-9.3c-1.2,0-2.1,1-2.1,2.1v12
			C175.2,111.3,176.2,112.2,177.4,112.2z"/>
		<path class="st4" d="M210.6,112.2h9.3c1.2,0,2.1-1,2.1-2.1V98c0-1.2-1-2.1-2.1-2.1h-9.3c-1.2,0-2.1,1-2.1,2.1v12
			C208.5,111.3,209.5,112.2,210.6,112.2z"/>
		<path class="st4" d="M158.8,112.2h9.3c1.2,0,2.1-1,2.1-2.1V98c0-1.2-1-2.1-2.1-2.1h-9.3c-1.2,0-2.1,1-2.1,2.1v12
			C156.7,111.3,157.6,112.2,158.8,112.2z"/>
		<path class="st5" d="M153.6,71.3h40.2c0.8,0,1.5-0.4,1.9-1l20.9-30.9c0.4-0.7,0-1.6-0.8-1.6h-40.2c-1.5,0-2.9,0.8-3.8,2l-19.6,29
			C151.6,69.9,152.3,71.3,153.6,71.3z"/>
		<g>
			<path class="st3" d="M180.5,42.9h7.8c0.6,0,1-0.5,1-1V31.1h-9.9v10.9C179.5,42.5,179.9,42.9,180.5,42.9z"/>
			<path class="st1" d="M180.5,42.9h3.9V31.1h-4.9v10.8C179.5,42.5,179.9,42.9,180.5,42.9z"/>
			<path class="st3" d="M178.4,31.1h11.9c0.4,0,0.8-0.4,0.8-0.8v-1.5c0-0.4-0.4-0.8-0.8-0.8h-11.9c-0.4,0-0.8,0.4-0.8,0.8v1.5
				C177.7,30.7,178,31.1,178.4,31.1z"/>
			<path class="st1" d="M178.5,31.1h5.9v-3h-5.9c-0.5,0-0.8,0.4-0.8,0.8v1.4C177.7,30.7,178,31.1,178.5,31.1z"/>
		</g>
	</g>
	<g>
		<path class="st8" d="M0,78.7v95.4c0,1.7,1.4,3.1,3.1,3.1h41.8V76.7L25.7,46c-1.5-2.5-5.1-2.5-6.6,0L1.1,75C0.4,76.1,0,77.4,0,78.7
			z"/>
		<path class="st3" d="M81.4,177.2H44.8V76.8h36.6c1.5,0,2.8,1.2,2.8,2.8v94.9C84.2,175.9,83,177.2,81.4,177.2z"/>
		<path class="st4" d="M60.4,153.4H51c-1.2,0-2.1-1-2.1-2.1v-12c0-1.2,1-2.1,2.1-2.1h9.3c1.2,0,2.1,1,2.1,2.1v12
			C62.5,152.5,61.6,153.4,60.4,153.4z"/>
		<path class="st4" d="M27.1,151.1h-9.3c-1.2,0-2.1-1-2.1-2.1v-12c0-1.2,1-2.1,2.1-2.1h9.3c1.2,0,2.1,1,2.1,2.1v12
			C29.2,150.1,28.3,151.1,27.1,151.1z"/>
		<path class="st4" d="M78.9,153.4h-9.3c-1.2,0-2.1-1-2.1-2.1v-12c0-1.2,1-2.1,2.1-2.1h9.3c1.2,0,2.1,1,2.1,2.1v12
			C81,152.5,80.1,153.4,78.9,153.4z"/>
		<path class="st4" d="M60.4,118.6H51c-1.2,0-2.1-1-2.1-2.1v-12c0-1.2,1-2.1,2.1-2.1h9.3c1.2,0,2.1,1,2.1,2.1v12
			C62.5,117.7,61.6,118.6,60.4,118.6z"/>
		<path class="st4" d="M27.1,118.6h-9.3c-1.2,0-2.1-1-2.1-2.1v-12c0-1.2,1-2.1,2.1-2.1h9.3c1.2,0,2.1,1,2.1,2.1v12
			C29.2,117.7,28.3,118.6,27.1,118.6z"/>
		<path class="st4" d="M78.9,118.6h-9.3c-1.2,0-2.1-1-2.1-2.1v-12c0-1.2,1-2.1,2.1-2.1h9.3c1.2,0,2.1,1,2.1,2.1v12
			C81,117.7,80.1,118.6,78.9,118.6z"/>
		<path class="st5" d="M84.2,77.7H43.9c-0.8,0-1.5-0.4-1.9-1L21.1,45.7c-0.4-0.7,0-1.6,0.8-1.6h40.2c1.5,0,2.9,0.8,3.8,2l19.6,29
			C86.2,76.3,85.4,77.7,84.2,77.7z"/>
		<g>
			<path class="st3" d="M57.2,49.3h-7.8c-0.6,0-1-0.5-1-1V37.4h9.9v10.9C58.3,48.9,57.8,49.3,57.2,49.3z"/>
			<path class="st1" d="M57.2,49.3h-3.9V37.4h4.9v10.8C58.3,48.8,57.8,49.3,57.2,49.3z"/>
			<path class="st3" d="M59.3,37.4H47.4c-0.4,0-0.8-0.4-0.8-0.8v-1.5c0-0.4,0.4-0.8,0.8-0.8h11.9c0.4,0,0.8,0.4,0.8,0.8v1.5
				C60.1,37.1,59.7,37.4,59.3,37.4z"/>
			<path class="st1" d="M59.2,37.4h-5.9v-3h5.9c0.5,0,0.8,0.4,0.8,0.8v1.4C60.1,37.1,59.7,37.4,59.2,37.4z"/>
		</g>
	</g>
	<g>
		<path class="st3" d="M158.9,96.7l24.8,34.7c0.4,0.5,0.6,1.1,0.6,1.8v46.9c0,1.7-1.4,3.1-3.1,3.1h-49.9v-51l23.8-35.4
			C156,95.5,157.9,95.4,158.9,96.7z"/>
		<path class="st4" d="M146.3,183.2h22.6v-35.6c0-2.5-2-4.4-4.4-4.4h-13.7c-2.5,0-4.4,2-4.4,4.4V183.2z"/>
		<path class="st1" d="M83.8,183.2h47.6v-50.9H83.8c-1.5,0-2.8,1.2-2.8,2.8v45.4C81,182,82.3,183.2,83.8,183.2z"/>
		<path class="st4" d="M111.2,169.5h9.3c1.2,0,2.1-1,2.1-2.1v-19.5c0-1.2-1-2.1-2.1-2.1h-9.3c-1.2,0-2.1,1-2.1,2.1v19.5
			C109.1,168.6,110,169.5,111.2,169.5z"/>
		<path class="st4" d="M89.4,169.5h9.3c1.2,0,2.1-1,2.1-2.1v-19.5c0-1.2-1-2.1-2.1-2.1h-9.3c-1.2,0-2.1,1-2.1,2.1v19.5
			C87.2,168.6,88.2,169.5,89.4,169.5z"/>
		<path class="st5" d="M82.9,134.5h47.3c0.9,0,1.8-0.5,2.3-1.2l24.6-36.4c0.5-0.8,0-1.8-1-1.8h-47.3c-1.8,0-3.4,0.9-4.4,2.4
			l-23.1,34.1C80.6,132.8,81.4,134.5,82.9,134.5z"/>
		<g>
			<path class="st3" d="M117.8,104.8h7.8c0.6,0,1-0.5,1-1V93h-9.9v10.9C116.8,104.4,117.3,104.8,117.8,104.8z"/>
			<path class="st1" d="M117.9,104.8h3.9V93h-4.9v10.8C116.8,104.4,117.3,104.8,117.9,104.8z"/>
			<path class="st3" d="M115.8,93h11.9c0.4,0,0.8-0.4,0.8-0.8v-1.5c0-0.4-0.4-0.8-0.8-0.8h-11.9c-0.4,0-0.8,0.4-0.8,0.8v1.5
				C115,92.6,115.4,93,115.8,93z"/>
			<path class="st1" d="M115.9,93h5.9v-3h-5.9c-0.5,0-0.8,0.4-0.8,0.8v1.4C115,92.6,115.4,93,115.9,93z"/>
		</g>
	</g>
	<g>
		<path class="st3" d="M413.1,72.3v95.4c0,1.7-1.4,3.1-3.1,3.1h-41.8V70.2l19.1-30.7c1.5-2.5,5.1-2.5,6.6,0l18,28.9
			C412.7,69.6,413.1,70.9,413.1,72.3z"/>
		<path class="st1" d="M331.7,170.7h36.6V70.3h-36.6c-1.5,0-2.8,1.2-2.8,2.8V168C328.9,169.5,330.1,170.7,331.7,170.7z"/>
		<path class="st4" d="M352.7,147h9.3c1.2,0,2.1-1,2.1-2.1v-12c0-1.2-1-2.1-2.1-2.1h-9.3c-1.2,0-2.1,1-2.1,2.1v12
			C350.6,146,351.5,147,352.7,147z"/>
		<path class="st4" d="M386,144.6h9.3c1.2,0,2.1-1,2.1-2.1v-12c0-1.2-1-2.1-2.1-2.1H386c-1.2,0-2.1,1-2.1,2.1v12
			C383.9,143.7,384.8,144.6,386,144.6z"/>
		<path class="st4" d="M334.2,147h9.3c1.2,0,2.1-1,2.1-2.1v-12c0-1.2-1-2.1-2.1-2.1h-9.3c-1.2,0-2.1,1-2.1,2.1v12
			C332,146,333,147,334.2,147z"/>
		<path class="st4" d="M352.7,112.1h9.3c1.2,0,2.1-1,2.1-2.1V98c0-1.2-1-2.1-2.1-2.1h-9.3c-1.2,0-2.1,1-2.1,2.1v12
			C350.6,111.2,351.5,112.1,352.7,112.1z"/>
		<path class="st4" d="M386,112.1h9.3c1.2,0,2.1-1,2.1-2.1V98c0-1.2-1-2.1-2.1-2.1H386c-1.2,0-2.1,1-2.1,2.1v12
			C383.9,111.2,384.8,112.1,386,112.1z"/>
		<path class="st4" d="M334.2,112.1h9.3c1.2,0,2.1-1,2.1-2.1V98c0-1.2-1-2.1-2.1-2.1h-9.3c-1.2,0-2.1,1-2.1,2.1v12
			C332,111.2,333,112.1,334.2,112.1z"/>
		<path class="st6" d="M328.9,71.2h40.2c0.8,0,1.5-0.4,1.9-1L392,39.3c0.4-0.7,0-1.6-0.8-1.6H351c-1.5,0-2.9,0.8-3.8,2l-19.6,29
			C326.9,69.8,327.7,71.2,328.9,71.2z"/>
		<g>
			<path class="st3" d="M355.8,42.9h7.8c0.6,0,1-0.5,1-1V31h-9.9v10.9C354.8,42.4,355.3,42.9,355.8,42.9z"/>
			<path class="st1" d="M355.9,42.9h3.9V31h-4.9v10.8C354.8,42.4,355.3,42.9,355.9,42.9z"/>
			<path class="st3" d="M353.8,31h11.9c0.4,0,0.8-0.4,0.8-0.8v-1.5c0-0.4-0.4-0.8-0.8-0.8h-11.9c-0.4,0-0.8,0.4-0.8,0.8v1.5
				C353,30.6,353.4,31,353.8,31z"/>
			<path class="st1" d="M353.9,31h5.9v-3h-5.9c-0.5,0-0.8,0.4-0.8,0.8v1.4C353,30.6,353.4,31,353.9,31z"/>
		</g>
	</g>
	<g>
		<path class="st3" d="M309.8,91.8l24.8,34.7c0.4,0.5,0.6,1.1,0.6,1.8v46.9c0,1.7-1.4,3.1-3.1,3.1h-49.9v-51l23.8-35.4
			C307,90.6,308.9,90.6,309.8,91.8z"/>
		<path class="st4" d="M297.2,178.3h22.6v-35.6c0-2.5-2-4.4-4.4-4.4h-13.7c-2.5,0-4.4,2-4.4,4.4V178.3z"/>
		<path class="st8" d="M234.8,178.3h47.6v-50.9h-47.6c-1.5,0-2.8,1.2-2.8,2.8v45.4C232,177.1,233.2,178.3,234.8,178.3z"/>
		<path class="st4" d="M262.1,164.7h9.3c1.2,0,2.1-1,2.1-2.1V143c0-1.2-1-2.1-2.1-2.1h-9.3c-1.2,0-2.1,1-2.1,2.1v19.5
			C260,163.7,261,164.7,262.1,164.7z"/>
		<path class="st4" d="M240.3,164.7h9.3c1.2,0,2.1-1,2.1-2.1V143c0-1.2-1-2.1-2.1-2.1h-9.3c-1.2,0-2.1,1-2.1,2.1v19.5
			C238.2,163.7,239.1,164.7,240.3,164.7z"/>
		<path class="st6" d="M233.9,129.6h47.3c0.9,0,1.8-0.5,2.3-1.2L308.1,92c0.5-0.8,0-1.8-1-1.8h-47.3c-1.8,0-3.4,0.9-4.4,2.4
			l-23.1,34.1C231.5,127.9,232.4,129.6,233.9,129.6z"/>
		<g>
			<path class="st3" d="M268.8,100h7.8c0.6,0,1-0.5,1-1V88.1h-9.9V99C267.8,99.5,268.2,100,268.8,100z"/>
			<path class="st1" d="M268.8,100h3.9V88.1h-4.9v10.8C267.8,99.5,268.2,100,268.8,100z"/>
			<path class="st3" d="M266.8,88.1h11.9c0.4,0,0.8-0.4,0.8-0.8v-1.5c0-0.4-0.4-0.8-0.8-0.8h-11.9c-0.4,0-0.8,0.4-0.8,0.8v1.5
				C266,87.8,266.3,88.1,266.8,88.1z"/>
			<path class="st1" d="M266.8,88.1h5.9v-3h-5.9c-0.5,0-0.8,0.4-0.8,0.8v1.4C266,87.7,266.3,88.1,266.8,88.1z"/>
		</g>
	</g>
	<g>
		<path class="st3" d="M553.8,69.6V165c0,1.7,1.4,3.1,3.1,3.1h41.8V67.5l-19.1-30.7c-1.5-2.5-5.1-2.5-6.6,0l-18,28.9
			C554.2,66.9,553.8,68.2,553.8,69.6z"/>
		<path class="st1" d="M635.3,168h-36.6V67.6h36.6c1.5,0,2.8,1.2,2.8,2.8v94.9C638,166.8,636.8,168,635.3,168z"/>
		<path class="st4" d="M614.2,144.3h-9.3c-1.2,0-2.1-1-2.1-2.1v-12c0-1.2,1-2.1,2.1-2.1h9.3c1.2,0,2.1,1,2.1,2.1v12
			C616.3,143.3,615.4,144.3,614.2,144.3z"/>
		<path class="st4" d="M580.9,141.9h-9.3c-1.2,0-2.1-1-2.1-2.1v-12c0-1.2,1-2.1,2.1-2.1h9.3c1.2,0,2.1,1,2.1,2.1v12
			C583.1,141,582.1,141.9,580.9,141.9z"/>
		<path class="st4" d="M632.7,144.3h-9.3c-1.2,0-2.1-1-2.1-2.1v-12c0-1.2,1-2.1,2.1-2.1h9.3c1.2,0,2.1,1,2.1,2.1v12
			C634.9,143.3,633.9,144.3,632.7,144.3z"/>
		<path class="st4" d="M614.2,109.5h-9.3c-1.2,0-2.1-1-2.1-2.1v-12c0-1.2,1-2.1,2.1-2.1h9.3c1.2,0,2.1,1,2.1,2.1v12
			C616.3,108.5,615.4,109.5,614.2,109.5z"/>
		<path class="st4" d="M580.9,109.5h-9.3c-1.2,0-2.1-1-2.1-2.1v-12c0-1.2,1-2.1,2.1-2.1h9.3c1.2,0,2.1,1,2.1,2.1v12
			C583.1,108.5,582.1,109.5,580.9,109.5z"/>
		<path class="st4" d="M632.7,109.5h-9.3c-1.2,0-2.1-1-2.1-2.1v-12c0-1.2,1-2.1,2.1-2.1h9.3c1.2,0,2.1,1,2.1,2.1v12
			C634.9,108.5,633.9,109.5,632.7,109.5z"/>
		<path class="st6" d="M638,68.6h-40.2c-0.8,0-1.5-0.4-1.9-1l-20.9-30.9c-0.4-0.7,0-1.6,0.8-1.6h40.2c1.5,0,2.9,0.8,3.8,2l19.6,29
			C640,67.1,639.3,68.6,638,68.6z"/>
		<g>
			<path class="st3" d="M611.1,40.2h-7.8c-0.6,0-1-0.5-1-1V28.3h9.9v10.9C612.1,39.7,611.6,40.2,611.1,40.2z"/>
			<path class="st1" d="M611,40.2h-3.9V28.3h4.9v10.8C612.1,39.7,611.6,40.2,611,40.2z"/>
			<path class="st3" d="M613.1,28.3h-11.9c-0.4,0-0.8-0.4-0.8-0.8V26c0-0.4,0.4-0.8,0.8-0.8h11.9c0.4,0,0.8,0.4,0.8,0.8v1.5
				C613.9,27.9,613.5,28.3,613.1,28.3z"/>
			<path class="st1" d="M613.1,28.3h-5.9v-3h5.9c0.5,0,0.8,0.4,0.8,0.8v1.4C613.9,27.9,613.5,28.3,613.1,28.3z"/>
		</g>
	</g>
	<g>
		<path class="st8" d="M762.5,45.6l24.8,34.7c0.4,0.5,0.6,1.1,0.6,1.8v46.9c0,1.7-1.4,3.1-3.1,3.1H735v-51l23.8-35.4
			C759.7,44.4,761.6,44.3,762.5,45.6z"/>
		<path class="st4" d="M750,132.1h22.6V96.5c0-2.5-2-4.4-4.4-4.4h-13.7c-2.5,0-4.4,2-4.4,4.4V132.1z"/>
		<path class="st3" d="M687.5,132.1h47.6V81.2h-47.6c-1.5,0-2.8,1.2-2.8,2.8v45.4C684.7,130.9,686,132.1,687.5,132.1z"/>
		<path class="st4" d="M714.9,118.4h9.3c1.2,0,2.1-1,2.1-2.1V96.7c0-1.2-1-2.1-2.1-2.1h-9.3c-1.2,0-2.1,1-2.1,2.1v19.5
			C712.7,117.5,713.7,118.4,714.9,118.4z"/>
		<path class="st4" d="M693,118.4h9.3c1.2,0,2.1-1,2.1-2.1V96.7c0-1.2-1-2.1-2.1-2.1H693c-1.2,0-2.1,1-2.1,2.1v19.5
			C690.9,117.5,691.9,118.4,693,118.4z"/>
		<path class="st5" d="M686.6,83.4h47.3c0.9,0,1.8-0.5,2.3-1.2l24.6-36.4c0.5-0.8,0-1.8-1-1.8h-47.3c-1.8,0-3.4,0.9-4.4,2.4
			l-23.1,34.1C684.2,81.7,685.1,83.4,686.6,83.4z"/>
		<g>
			<path class="st3" d="M721.5,53.8h7.8c0.6,0,1-0.5,1-1V41.9h-9.9v10.9C720.5,53.3,721,53.8,721.5,53.8z"/>
			<path class="st1" d="M721.6,53.8h3.9V41.9h-4.9v10.8C720.5,53.3,721,53.8,721.6,53.8z"/>
			<path class="st3" d="M719.5,41.9h11.9c0.4,0,0.8-0.4,0.8-0.8v-1.5c0-0.4-0.4-0.8-0.8-0.8h-11.9c-0.4,0-0.8,0.4-0.8,0.8v1.5
				C718.7,41.5,719.1,41.9,719.5,41.9z"/>
			<path class="st1" d="M719.5,41.9h5.9v-3h-5.9c-0.5,0-0.8,0.4-0.8,0.8v1.4C718.7,41.5,719.1,41.9,719.5,41.9z"/>
		</g>
	</g>
	<g>
		<path class="st3" d="M870.6,45.6l-24.8,34.7c-0.4,0.5-0.6,1.1-0.6,1.8v46.9c0,1.7,1.4,3.1,3.1,3.1h49.9v-51l-23.8-35.4
			C873.5,44.4,871.6,44.3,870.6,45.6z"/>
		<path class="st4" d="M883.2,132.1h-22.6V96.5c0-2.5,2-4.4,4.4-4.4h13.7c2.5,0,4.4,2,4.4,4.4V132.1z"/>
		<path class="st8" d="M945.7,132.1h-47.6V81.2h47.6c1.5,0,2.8,1.2,2.8,2.8v45.4C948.5,130.9,947.2,132.1,945.7,132.1z"/>
		<path class="st4" d="M918.3,118.4H909c-1.2,0-2.1-1-2.1-2.1V96.7c0-1.2,1-2.1,2.1-2.1h9.3c1.2,0,2.1,1,2.1,2.1v19.5
			C920.5,117.5,919.5,118.4,918.3,118.4z"/>
		<path class="st4" d="M940.1,118.4h-9.3c-1.2,0-2.1-1-2.1-2.1V96.7c0-1.2,1-2.1,2.1-2.1h9.3c1.2,0,2.1,1,2.1,2.1v19.5
			C942.3,117.5,941.3,118.4,940.1,118.4z"/>
		<path class="st6" d="M946.6,83.4h-47.3c-0.9,0-1.8-0.5-2.3-1.2l-24.6-36.4c-0.5-0.8,0-1.8,1-1.8h47.3c1.8,0,3.4,0.9,4.4,2.4
			l23.1,34.1C948.9,81.7,948.1,83.4,946.6,83.4z"/>
		<g>
			<path class="st3" d="M911.7,53.8h-7.8c-0.6,0-1-0.5-1-1V41.9h9.9v10.9C912.7,53.3,912.2,53.8,911.7,53.8z"/>
			<path class="st1" d="M911.6,53.8h-3.9V41.9h4.9v10.8C912.7,53.3,912.2,53.8,911.6,53.8z"/>
			<path class="st3" d="M913.7,41.9h-11.9c-0.4,0-0.8-0.4-0.8-0.8v-1.5c0-0.4,0.4-0.8,0.8-0.8h11.9c0.4,0,0.8,0.4,0.8,0.8v1.5
				C914.5,41.5,914.1,41.9,913.7,41.9z"/>
			<path class="st1" d="M913.7,41.9h-5.9v-3h5.9c0.5,0,0.8,0.4,0.8,0.8v1.4C914.5,41.5,914.1,41.9,913.7,41.9z"/>
		</g>
	</g>
	<g>
		<path class="st3" d="M785,70.9v95.4c0,1.7,1.4,3.1,3.1,3.1h41.8V68.9l-19.1-30.7c-1.5-2.5-5.1-2.5-6.6,0l-18,28.9
			C785.4,68.3,785,69.6,785,70.9z"/>
		<path class="st1" d="M866.4,169.3h-36.6V68.9h36.6c1.5,0,2.8,1.2,2.8,2.8v94.9C869.2,168.1,868,169.3,866.4,169.3z"/>
		<path class="st4" d="M845.4,145.6h-9.3c-1.2,0-2.1-1-2.1-2.1v-12c0-1.2,1-2.1,2.1-2.1h9.3c1.2,0,2.1,1,2.1,2.1v12
			C847.5,144.6,846.6,145.6,845.4,145.6z"/>
		<path class="st4" d="M812.1,143.3h-9.3c-1.2,0-2.1-1-2.1-2.1v-12c0-1.2,1-2.1,2.1-2.1h9.3c1.2,0,2.1,1,2.1,2.1v12
			C814.2,142.3,813.3,143.3,812.1,143.3z"/>
		<path class="st4" d="M863.9,145.6h-9.3c-1.2,0-2.1-1-2.1-2.1v-12c0-1.2,1-2.1,2.1-2.1h9.3c1.2,0,2.1,1,2.1,2.1v12
			C866.1,144.6,865.1,145.6,863.9,145.6z"/>
		<path class="st4" d="M845.4,110.8h-9.3c-1.2,0-2.1-1-2.1-2.1v-12c0-1.2,1-2.1,2.1-2.1h9.3c1.2,0,2.1,1,2.1,2.1v12
			C847.5,109.8,846.6,110.8,845.4,110.8z"/>
		<path class="st4" d="M812.1,110.8h-9.3c-1.2,0-2.1-1-2.1-2.1v-12c0-1.2,1-2.1,2.1-2.1h9.3c1.2,0,2.1,1,2.1,2.1v12
			C814.2,109.8,813.3,110.8,812.1,110.8z"/>
		<path class="st4" d="M863.9,110.8h-9.3c-1.2,0-2.1-1-2.1-2.1v-12c0-1.2,1-2.1,2.1-2.1h9.3c1.2,0,2.1,1,2.1,2.1v12
			C866.1,109.8,865.1,110.8,863.9,110.8z"/>
		<path class="st5" d="M869.2,69.9H829c-0.8,0-1.5-0.4-1.9-1l-20.9-30.9c-0.4-0.7,0-1.6,0.8-1.6h40.2c1.5,0,2.9,0.8,3.8,2l19.6,29
			C871.2,68.4,870.4,69.9,869.2,69.9z"/>
		<g>
			<path class="st3" d="M842.3,41.5h-7.8c-0.6,0-1-0.5-1-1V29.6h9.9v10.9C843.3,41,842.8,41.5,842.3,41.5z"/>
			<path class="st1" d="M842.2,41.5h-3.9V29.6h4.9v10.8C843.3,41,842.8,41.5,842.2,41.5z"/>
			<path class="st3" d="M844.3,29.6h-11.9c-0.4,0-0.8-0.4-0.8-0.8v-1.5c0-0.4,0.4-0.8,0.8-0.8h11.9c0.4,0,0.8,0.4,0.8,0.8v1.5
				C845.1,29.3,844.7,29.6,844.3,29.6z"/>
			<path class="st1" d="M844.3,29.6h-5.9v-3h5.9c0.5,0,0.8,0.4,0.8,0.8v1.4C845.1,29.2,844.7,29.6,844.3,29.6z"/>
		</g>
	</g>
	<g>
		<path class="st3" d="M863.9,90.3L839,125c-0.4,0.5-0.6,1.1-0.6,1.8v46.9c0,1.7,1.4,3.1,3.1,3.1h49.9v-51l-23.8-35.4
			C866.7,89,864.8,89,863.9,90.3z"/>
		<path class="st4" d="M876.5,176.8h-22.6v-35.6c0-2.5,2-4.4,4.4-4.4H872c2.5,0,4.4,2,4.4,4.4V176.8z"/>
		<path class="st1" d="M938.9,176.8h-47.6v-50.9h47.6c1.5,0,2.8,1.2,2.8,2.8V174C941.7,175.5,940.5,176.8,938.9,176.8z"/>
		<path class="st4" d="M911.6,163.1h-9.3c-1.2,0-2.1-1-2.1-2.1v-19.5c0-1.2,1-2.1,2.1-2.1h9.3c1.2,0,2.1,1,2.1,2.1v19.5
			C913.7,162.1,912.7,163.1,911.6,163.1z"/>
		<path class="st4" d="M933.4,163.1h-9.3c-1.2,0-2.1-1-2.1-2.1v-19.5c0-1.2,1-2.1,2.1-2.1h9.3c1.2,0,2.1,1,2.1,2.1v19.5
			C935.5,162.1,934.6,163.1,933.4,163.1z"/>
		<path class="st5" d="M939.8,128.1h-47.3c-0.9,0-1.8-0.5-2.3-1.2l-24.6-36.4c-0.5-0.8,0-1.8,1-1.8h47.3c1.8,0,3.4,0.9,4.4,2.4
			l23.1,34.1C942.2,126.4,941.3,128.1,939.8,128.1z"/>
		<g>
			<path class="st3" d="M904.9,98.4h-7.8c-0.6,0-1-0.5-1-1V86.5h9.9v10.9C905.9,97.9,905.5,98.4,904.9,98.4z"/>
			<path class="st1" d="M904.9,98.4H901V86.5h4.9v10.8C905.9,97.9,905.4,98.4,904.9,98.4z"/>
			<path class="st3" d="M906.9,86.5H895c-0.4,0-0.8-0.4-0.8-0.8v-1.5c0-0.4,0.4-0.8,0.8-0.8h11.9c0.4,0,0.8,0.4,0.8,0.8v1.5
				C907.7,86.2,907.4,86.5,906.9,86.5z"/>
			<path class="st1" d="M906.9,86.5H901v-3h5.9c0.5,0,0.8,0.4,0.8,0.8v1.4C907.7,86.2,907.4,86.5,906.9,86.5z"/>
		</g>
	</g>
	<g>
		<path class="st3" d="M712.9,89.4l-24.8,34.7c-0.4,0.5-0.6,1.1-0.6,1.8v46.9c0,1.7,1.4,3.1,3.1,3.1h49.9v-51l-23.8-35.4
			C715.8,88.1,713.9,88.1,712.9,89.4z"/>
		<path class="st4" d="M725.5,175.9h-22.6v-35.6c0-2.5,2-4.4,4.4-4.4h13.7c2.5,0,4.4,2,4.4,4.4V175.9z"/>
		<path class="st8" d="M788,175.9h-47.6V125H788c1.5,0,2.8,1.2,2.8,2.8v45.4C790.8,174.7,789.5,175.9,788,175.9z"/>
		<path class="st4" d="M760.6,162.2h-9.3c-1.2,0-2.1-1-2.1-2.1v-19.5c0-1.2,1-2.1,2.1-2.1h9.3c1.2,0,2.1,1,2.1,2.1v19.5
			C762.8,161.3,761.8,162.2,760.6,162.2z"/>
		<path class="st4" d="M782.4,162.2h-9.3c-1.2,0-2.1-1-2.1-2.1v-19.5c0-1.2,1-2.1,2.1-2.1h9.3c1.2,0,2.1,1,2.1,2.1v19.5
			C784.6,161.3,783.6,162.2,782.4,162.2z"/>
		<path class="st6" d="M788.9,127.2h-47.3c-0.9,0-1.8-0.5-2.3-1.2l-24.6-36.4c-0.5-0.8,0-1.8,1-1.8h47.3c1.8,0,3.4,0.9,4.4,2.4
			l23.1,34.1C791.2,125.5,790.4,127.2,788.9,127.2z"/>
		<g>
			<path class="st3" d="M754,97.5h-7.8c-0.6,0-1-0.5-1-1V85.7h9.9v10.9C755,97.1,754.5,97.5,754,97.5z"/>
			<path class="st1" d="M753.9,97.5H750V85.7h4.9v10.8C755,97.1,754.5,97.5,753.9,97.5z"/>
			<path class="st3" d="M756,85.7h-11.9c-0.4,0-0.8-0.4-0.8-0.8v-1.5c0-0.4,0.4-0.8,0.8-0.8H756c0.4,0,0.8,0.4,0.8,0.8v1.5
				C756.8,85.3,756.4,85.7,756,85.7z"/>
			<path class="st1" d="M756,85.7H750v-3h5.9c0.5,0,0.8,0.4,0.8,0.8v1.4C756.8,85.3,756.4,85.7,756,85.7z"/>
		</g>
	</g>
	<g>
		<path class="st3" d="M609.5,89.4v95.4c0,1.7,1.4,3.1,3.1,3.1h41.8V87.4l-19.1-30.7c-1.5-2.5-5.1-2.5-6.6,0l-18,28.9
			C609.9,86.7,609.5,88.1,609.5,89.4z"/>
		<path class="st1" d="M691,187.8h-36.6V87.4H691c1.5,0,2.8,1.2,2.8,2.8v94.9C693.7,186.6,692.5,187.8,691,187.8z"/>
		<path class="st4" d="M669.9,164.1h-9.3c-1.2,0-2.1-1-2.1-2.1v-12c0-1.2,1-2.1,2.1-2.1h9.3c1.2,0,2.1,1,2.1,2.1v12
			C672,163.1,671.1,164.1,669.9,164.1z"/>
		<path class="st4" d="M636.6,161.8h-9.3c-1.2,0-2.1-1-2.1-2.1v-12c0-1.2,1-2.1,2.1-2.1h9.3c1.2,0,2.1,1,2.1,2.1v12
			C638.8,160.8,637.8,161.8,636.6,161.8z"/>
		<path class="st4" d="M688.4,164.1h-9.3c-1.2,0-2.1-1-2.1-2.1v-12c0-1.2,1-2.1,2.1-2.1h9.3c1.2,0,2.1,1,2.1,2.1v12
			C690.6,163.1,689.6,164.1,688.4,164.1z"/>
		<path class="st4" d="M669.9,129.3h-9.3c-1.2,0-2.1-1-2.1-2.1v-12c0-1.2,1-2.1,2.1-2.1h9.3c1.2,0,2.1,1,2.1,2.1v12
			C672,128.3,671.1,129.3,669.9,129.3z"/>
		<path class="st4" d="M636.6,129.3h-9.3c-1.2,0-2.1-1-2.1-2.1v-12c0-1.2,1-2.1,2.1-2.1h9.3c1.2,0,2.1,1,2.1,2.1v12
			C638.8,128.3,637.8,129.3,636.6,129.3z"/>
		<path class="st4" d="M688.4,129.3h-9.3c-1.2,0-2.1-1-2.1-2.1v-12c0-1.2,1-2.1,2.1-2.1h9.3c1.2,0,2.1,1,2.1,2.1v12
			C690.6,128.3,689.6,129.3,688.4,129.3z"/>
		<path class="st6" d="M693.7,88.4h-40.2c-0.8,0-1.5-0.4-1.9-1l-20.9-30.9c-0.4-0.7,0-1.6,0.8-1.6h40.2c1.5,0,2.9,0.8,3.8,2l19.6,29
			C695.7,86.9,695,88.4,693.7,88.4z"/>
		<g>
			<path class="st3" d="M666.8,60h-7.8c-0.6,0-1-0.5-1-1V48.1h9.9V59C667.8,59.5,667.3,60,666.8,60z"/>
			<path class="st1" d="M666.8,60h-3.9V48.1h4.9v10.8C667.8,59.5,667.3,60,666.8,60z"/>
			<path class="st3" d="M668.8,48.1h-11.9c-0.4,0-0.8-0.4-0.8-0.8v-1.5c0-0.4,0.4-0.8,0.8-0.8h11.9c0.4,0,0.8,0.4,0.8,0.8v1.5
				C669.6,47.8,669.3,48.1,668.8,48.1z"/>
			<path class="st1" d="M668.8,48.1h-5.9v-3h5.9c0.5,0,0.8,0.4,0.8,0.8v1.4C669.6,47.7,669.2,48.1,668.8,48.1z"/>
		</g>
	</g>
	<g>
		<path class="st9" d="M542.8,97.1l24.8,34.7c0.4,0.5,0.6,1.1,0.6,1.8v46.9c0,1.7-1.4,3.1-3.1,3.1h-49.9v-51L539,97.1
			C539.9,95.8,541.9,95.8,542.8,97.1z"/>
		<path class="st4" d="M530.2,183.6h22.6v-35.6c0-2.5-2-4.4-4.4-4.4h-13.7c-2.5,0-4.4,2-4.4,4.4V183.6z"/>
		<path class="st1" d="M467.7,183.6h47.6v-50.9h-47.6c-1.5,0-2.8,1.2-2.8,2.8v45.4C465,182.3,466.2,183.6,467.7,183.6z"/>
		<path class="st4" d="M495.1,169.9h9.3c1.2,0,2.1-1,2.1-2.1v-19.5c0-1.2-1-2.1-2.1-2.1h-9.3c-1.2,0-2.1,1-2.1,2.1v19.5
			C493,168.9,493.9,169.9,495.1,169.9z"/>
		<path class="st4" d="M473.3,169.9h9.3c1.2,0,2.1-1,2.1-2.1v-19.5c0-1.2-1-2.1-2.1-2.1h-9.3c-1.2,0-2.1,1-2.1,2.1v19.5
			C471.1,168.9,472.1,169.9,473.3,169.9z"/>
		<path class="st6" d="M466.9,134.9h47.3c0.9,0,1.8-0.5,2.3-1.2l24.6-36.4c0.5-0.8,0-1.8-1-1.8h-47.3c-1.8,0-3.4,0.9-4.4,2.4
			l-23.1,34.1C464.5,133.2,465.4,134.9,466.9,134.9z"/>
		<g>
			<path class="st3" d="M501.8,105.2h7.8c0.6,0,1-0.5,1-1V93.3h-9.9v10.9C500.8,104.7,501.2,105.2,501.8,105.2z"/>
			<path class="st1" d="M501.8,105.2h3.9V93.3h-4.9v10.8C500.8,104.7,501.2,105.2,501.8,105.2z"/>
			<path class="st3" d="M499.7,93.3h11.9c0.4,0,0.8-0.4,0.8-0.8v-1.5c0-0.4-0.4-0.8-0.8-0.8h-11.9c-0.4,0-0.8,0.4-0.8,0.8v1.5
				C499,93,499.3,93.3,499.7,93.3z"/>
			<path class="st1" d="M499.8,93.3h5.9v-3h-5.9c-0.5,0-0.8,0.4-0.8,0.8v1.4C499,93,499.3,93.3,499.8,93.3z"/>
		</g>
	</g>
	<g>
		<path class="st8" d="M1022.7,86.7v95.4c0,1.7-1.4,3.1-3.1,3.1h-41.8V84.7L997,54c1.5-2.5,5.1-2.5,6.6,0l18,28.9
			C1022.4,84.1,1022.7,85.4,1022.7,86.7z"/>
		<path class="st3" d="M941.3,185.1h36.6V84.7h-36.6c-1.5,0-2.8,1.2-2.8,2.8v94.9C938.6,183.9,939.8,185.1,941.3,185.1z"/>
		<path class="st4" d="M962.4,161.4h9.3c1.2,0,2.1-1,2.1-2.1v-12c0-1.2-1-2.1-2.1-2.1h-9.3c-1.2,0-2.1,1-2.1,2.1v12
			C960.2,160.4,961.2,161.4,962.4,161.4z"/>
		<path class="st4" d="M995.7,159.1h9.3c1.2,0,2.1-1,2.1-2.1v-12c0-1.2-1-2.1-2.1-2.1h-9.3c-1.2,0-2.1,1-2.1,2.1v12
			C993.5,158.1,994.5,159.1,995.7,159.1z"/>
		<path class="st4" d="M943.8,161.4h9.3c1.2,0,2.1-1,2.1-2.1v-12c0-1.2-1-2.1-2.1-2.1h-9.3c-1.2,0-2.1,1-2.1,2.1v12
			C941.7,160.4,942.7,161.4,943.8,161.4z"/>
		<path class="st4" d="M962.4,126.6h9.3c1.2,0,2.1-1,2.1-2.1v-12c0-1.2-1-2.1-2.1-2.1h-9.3c-1.2,0-2.1,1-2.1,2.1v12
			C960.2,125.6,961.2,126.6,962.4,126.6z"/>
		<path class="st4" d="M995.7,126.6h9.3c1.2,0,2.1-1,2.1-2.1v-12c0-1.2-1-2.1-2.1-2.1h-9.3c-1.2,0-2.1,1-2.1,2.1v12
			C993.5,125.6,994.5,126.6,995.7,126.6z"/>
		<path class="st4" d="M943.8,126.6h9.3c1.2,0,2.1-1,2.1-2.1v-12c0-1.2-1-2.1-2.1-2.1h-9.3c-1.2,0-2.1,1-2.1,2.1v12
			C941.7,125.6,942.7,126.6,943.8,126.6z"/>
		<path class="st6" d="M938.6,85.7h40.2c0.8,0,1.5-0.4,1.9-1l20.9-30.9c0.4-0.7,0-1.6-0.8-1.6h-40.2c-1.5,0-2.9,0.8-3.8,2l-19.6,29
			C936.6,84.2,937.3,85.7,938.6,85.7z"/>
		<g>
			<path class="st3" d="M965.5,57.3h7.8c0.6,0,1-0.5,1-1V45.4h-9.9v10.9C964.5,56.8,964.9,57.3,965.5,57.3z"/>
			<path class="st1" d="M965.5,57.3h3.9V45.4h-4.9v10.8C964.5,56.8,965,57.3,965.5,57.3z"/>
			<path class="st3" d="M963.5,45.4h11.9c0.4,0,0.8-0.4,0.8-0.8v-1.5c0-0.4-0.4-0.8-0.8-0.8h-11.9c-0.4,0-0.8,0.4-0.8,0.8v1.5
				C962.7,45.1,963,45.4,963.5,45.4z"/>
			<path class="st1" d="M963.5,45.4h5.9v-3h-5.9c-0.5,0-0.8,0.4-0.8,0.8v1.4C962.7,45,963.1,45.4,963.5,45.4z"/>
		</g>
	</g>
</g>
<g id="Layer_8">
</g>
<g id="Layer_2">
</g>
</svg>
