<?xml version="1.0" encoding="utf-8"?>
<!-- Generator: Adobe Illustrator 19.1.0, SVG Export Plug-In . SVG Version: 6.00 Build 0)  -->
<svg version="1.1" xmlns="http://www.w3.org/2000/svg" xmlns:xlink="http://www.w3.org/1999/xlink" x="0px" y="0px"
	 viewBox="0 0 212 186.9" style="enable-background:new 0 0 212 186.9;" xml:space="preserve">
<style type="text/css">
	.st0{fill:#4ACCC2;}
	.st1{fill:#18717A;}
	.st2{fill:none;stroke:#EDA574;stroke-width:20;stroke-miterlimit:10;}
	.st3{fill:#1A7F84;}
	.st4{fill:#84D3C9;}
	.st5{fill:#5B463B;}
	.st6{fill:#EA9C68;}
	.st7{fill:#31AA9B;}
	.st8{fill:#176266;}
	.st9{fill:#1B8989;}
	.st10{fill:#EFEFEF;}
	.st11{fill:#1C88A5;}
	.st12{fill:#1B7989;}
	.st13{fill:#EDA574;}
	.st14{fill:#F2F9F8;}
</style>
<g id="Layer_3">
</g>
<g id="Layer_1">
	<g id="Layer_4">
	</g>
	<g>
		<path class="st7" d="M92.6,113.6H46.2c-0.6,0-1.1-0.6-0.9-1.2L68,20c0.2-1,1.6-1,1.9,0l23.7,92.4C93.7,113,93.2,113.6,92.6,113.6z
			"/>
	</g>
	<g>
		<path class="st6" d="M111.5,163.3c0.5,2.1-0.8,3.7-3,3.7H74.4c-2.2,0-3.6-1.6-3-3.7l18.7-76c0.5-2.1,1.4-2.2,1.9-0.1L111.5,163.3z
			"/>
	</g>
	<g>
		<path class="st7" d="M166,128c0.5,2.1-0.8,4-3,4h-40.8c-2.2,0-3.6-1.9-3-4l22-89.6c0.5-2.1,1.4-2.1,1.9,0L166,128z"/>
	</g>
</g>
<g id="Houses">
</g>
<g id="houserow">
</g>
<g id="Layer_6">
</g>
<g id="Layer_9">
</g>
<g id="Layer_8">
</g>
<g id="Layer_2">
</g>
</svg>
