<?xml version="1.0" encoding="utf-8"?>
<!-- Generator: Adobe Illustrator 19.1.0, SVG Export Plug-In . SVG Version: 6.00 Build 0)  -->
<svg version="1.1" id="Layer_1" xmlns="http://www.w3.org/2000/svg" xmlns:xlink="http://www.w3.org/1999/xlink" x="0px" y="0px"
	 viewBox="-269 161 100 160" style="enable-background:new -269 161 100 160;" xml:space="preserve">
<style type="text/css">
	.st0{display:none;}
	.st1{fill:#176266;}
	.st2{fill:#1A7F84;}
	.st3{fill:#84D3C9;}
	.st4{fill:#34514D;}
	.st5{fill:#5B463B;}
	.st6{fill:#493831;}
</style>
<g id="Layer_3">
</g>
<g id="Layer_1_1_">
	<g id="Layer_4">
	</g>
</g>
<g id="Houses">
</g>
<g id="Layer_6" class="st0">
</g>
<g id="Layer_11">
</g>
<g id="Layer_10">
</g>
<g id="Layer_9" class="st0">
</g>
<g id="houserow">
</g>
<g id="Layer_13">
</g>
<g id="Layer_8">
</g>
<g id="Layer_2">
</g>
<g id="Layer_12">
</g>
<g id="Layer_14">
</g>
<g id="ROW2">
</g>
<path class="st1" d="M-261.9,211.3v95.4c0,1.7,1.4,3.1,3.1,3.1h41.8V209.2l-19.1-30.6c-1.5-2.5-5.1-2.5-6.6,0l-18,28.9
	C-261.5,208.6-261.9,210-261.9,211.3z"/>
<path class="st2" d="M-180.4,309.7H-217V209.3h36.6c1.5,0,2.8,1.2,2.8,2.8V307C-177.7,308.5-178.9,309.7-180.4,309.7z"/>
<path class="st3" d="M-201.5,286h-9.3c-1.2,0-2.1-1-2.1-2.1v-12c0-1.2,1-2.1,2.1-2.1h9.3c1.2,0,2.1,1,2.1,2.1v12
	C-199.4,285-200.3,286-201.5,286z"/>
<path class="st3" d="M-234.8,283.6h-9.3c-1.2,0-2.1-1-2.1-2.1v-12c0-1.2,1-2.1,2.1-2.1h9.3c1.2,0,2.1,1,2.1,2.1v12
	C-232.6,282.7-233.6,283.6-234.8,283.6z"/>
<path class="st4" d="M-183,286h-9.3c-1.2,0-2.1-1-2.1-2.1v-12c0-1.2,1-2.1,2.1-2.1h9.3c1.2,0,2.1,1,2.1,2.1v12
	C-180.8,285-181.8,286-183,286z"/>
<path class="st3" d="M-201.5,251.2h-9.3c-1.2,0-2.1-1-2.1-2.1V237c0-1.2,1-2.1,2.1-2.1h9.3c1.2,0,2.1,1,2.1,2.1v12
	C-199.4,250.2-200.3,251.2-201.5,251.2z"/>
<path class="st4" d="M-234.8,251.2h-9.3c-1.2,0-2.1-1-2.1-2.1V237c0-1.2,1-2.1,2.1-2.1h9.3c1.2,0,2.1,1,2.1,2.1v12
	C-232.6,250.2-233.6,251.2-234.8,251.2z"/>
<path class="st3" d="M-183,251.2h-9.3c-1.2,0-2.1-1-2.1-2.1V237c0-1.2,1-2.1,2.1-2.1h9.3c1.2,0,2.1,1,2.1,2.1v12
	C-180.8,250.2-181.8,251.2-183,251.2z"/>
<path class="st5" d="M-177.7,210.3h-40.2c-0.8,0-1.5-0.4-1.9-1l-21-31c-0.4-0.7,0-1.6,0.8-1.6h40.2c1.5,0,2.9,0.8,3.8,2l19.6,29
	C-175.7,208.8-176.4,210.3-177.7,210.3z"/>
<path class="st1" d="M-206.6,181.9h-7.8c-0.6,0-1-0.5-1-1V170h9.9v10.9C-205.6,181.4-206.1,181.9-206.6,181.9z"/>
<path class="st2" d="M-206.7,181.9h-3.9V170h4.9v10.8C-205.6,181.4-206.1,181.9-206.7,181.9z"/>
<path class="st1" d="M-204.6,170h-11.9c-0.4,0-0.8-0.4-0.8-0.8v-1.4c0-0.4,0.4-0.8,0.8-0.8h11.9c0.4,0,0.8,0.4,0.8,0.8v1.5
	C-203.8,169.6-204.1,170-204.6,170z"/>
<path class="st2" d="M-204.6,170h-5.9v-3h5.9c0.5,0,0.8,0.4,0.8,0.8v1.4C-203.8,169.6-204.2,170-204.6,170z"/>
<g>
	<path class="st6" d="M-202.2,193.5L-202.2,193.5c-0.8,0-1.4-0.6-1.4-1.4v-15.4c0.9,0,2.1,0,2.8,0V192
		C-200.8,192.8-201.4,193.5-202.2,193.5z"/>
	<path class="st6" d="M-192.7,194.5L-192.7,194.5c-0.6,0.6-1.4,0.6-2,0l-8.5-8.5c-0.6-0.6-0.6-1.4,0-2l0,0c0.6-0.6,1.4-0.6,2,0
		l8.5,8.5C-192.1,193-192.1,193.9-192.7,194.5z"/>
	<path class="st6" d="M-206,202.2L-206,202.2c-0.6-0.6-0.6-1.4,0-2l8.5-8.5c0.6-0.6,1.4-0.6,2,0l0,0c0.6,0.6,0.6,1.4,0,2l-8.5,8.5
		C-204.6,202.8-205.5,202.8-206,202.2z"/>
</g>
</svg>
