<?xml version="1.0" encoding="utf-8"?>
<!-- Generator: Adobe Illustrator 19.1.0, SVG Export Plug-In . SVG Version: 6.00 Build 0)  -->
<svg version="1.1" id="Layer_1" xmlns="http://www.w3.org/2000/svg" xmlns:xlink="http://www.w3.org/1999/xlink" x="0px" y="0px"
	 viewBox="-257 179 124 124" style="enable-background:new -257 179 124 124;" xml:space="preserve">
<style type="text/css">
	.st0{display:none;}
	.st1{fill:#1A7F84;}
	.st2{fill:#84D3C9;}
	.st3{fill:#18717A;}
	.st4{fill:#34514D;}
	.st5{fill:#5B463B;}
</style>
<g id="Layer_3">
</g>
<g id="Layer_1_1_">
	<g id="Layer_4">
	</g>
</g>
<g id="Houses">
</g>
<g id="Layer_6" class="st0">
</g>
<g id="Layer_11">
</g>
<g id="Layer_10">
</g>
<g id="Layer_9" class="st0">
</g>
<g id="houserow">
</g>
<g id="Layer_13">
</g>
<g id="Layer_8">
</g>
<g id="Layer_2">
</g>
<g id="Layer_12">
</g>
<g id="Layer_14">
</g>
<g id="ROW2">
</g>
<path class="st1" d="M-168.9,199.8l24.8,34.7c0.4,0.5,0.6,1.1,0.6,1.8v46.9c0,1.7-1.4,3.1-3.1,3.1h-49.9v-51l23.8-35.4
	C-171.8,198.5-169.8,198.5-168.9,199.8z"/>
<path class="st2" d="M-181.5,286.3h22.6v-35.7c0-2.5-2-4.4-4.4-4.4H-177c-2.5,0-4.4,2-4.4,4.4v35.7H-181.5z"/>
<path class="st3" d="M-244,286.3h47.6v-51H-244c-1.5,0-2.8,1.2-2.8,2.8v45.4C-246.7,285-245.5,286.3-244,286.3z"/>
<path class="st4" d="M-216.6,272.6h9.3c1.2,0,2.1-1,2.1-2.1v-19.6c0-1.2-1-2.1-2.1-2.1h-9.3c-1.2,0-2.1,1-2.1,2.1v19.5
	C-218.7,271.6-217.8,272.6-216.6,272.6z"/>
<path class="st2" d="M-238.4,272.6h9.3c1.2,0,2.1-1,2.1-2.1v-19.6c0-1.2-1-2.1-2.1-2.1h-9.3c-1.2,0-2.1,1-2.1,2.1v19.5
	C-240.5,271.6-239.6,272.6-238.4,272.6z"/>
<path class="st5" d="M-244.8,237.6h47.3c0.9,0,1.8-0.5,2.3-1.2l24.6-36.4c0.5-0.8,0-1.8-1-1.8h-47.3c-1.8,0-3.4,0.9-4.4,2.4
	l-23.1,34C-247.2,235.9-246.3,237.6-244.8,237.6z"/>
<g>
	<path class="st1" d="M-209.9,207.9h7.8c0.6,0,1-0.5,1-1V196h-9.9v10.9C-210.9,207.4-210.5,207.9-209.9,207.9z"/>
	<path class="st3" d="M-209.9,207.9h3.9V196h-4.9v10.8C-210.9,207.4-210.5,207.9-209.9,207.9z"/>
	<path class="st1" d="M-212,196h12c0.4,0,0.8-0.4,0.8-0.8v-1.5c0-0.4-0.4-0.8-0.8-0.8h-12c-0.4,0-0.8,0.4-0.8,0.8v1.5
		C-212.7,195.7-212.4,196-212,196z"/>
	<path class="st3" d="M-211.9,196h5.9v-3h-5.9c-0.5,0-0.8,0.4-0.8,0.8v1.4C-212.7,195.6-212.4,196-211.9,196z"/>
</g>
<g>
	<path class="st3" d="M-177.2,228.6L-177.2,228.6c0.8,0,1.4-0.6,1.4-1.4v-19.4l-2.8,4v15.4C-178.6,228-178,228.6-177.2,228.6z"/>
	<path class="st3" d="M-186.7,231.4L-186.7,231.4c0.6,0.6,1.4,0.6,2,0l8.5-8.5c0.6-0.6,0.6-1.4,0-2l0,0c-0.6-0.6-1.4-0.6-2,0
		l-8.5,8.5C-187.3,230-187.3,230.9-186.7,231.4z"/>
	<path class="st3" d="M-169.2,243.3L-169.2,243.3c0.6-0.6,0.6-1.4,0-2l-12.7-12.6c-0.6-0.6-1.4-0.6-2,0l0,0c-0.6,0.6-0.6,1.4,0,2
		l12.7,12.7C-170.7,243.9-169.8,243.9-169.2,243.3z"/>
	<path class="st3" d="M-186.7,246.4L-186.7,246.4c0.6,0.6,1.4,0.6,2,0l8.5-8.5c0.6-0.6,0.6-1.4,0-2l0,0c-0.6-0.6-1.4-0.6-2,0
		l-8.5,8.5C-187.3,244.9-187.3,245.8-186.7,246.4z"/>
</g>
</svg>
