<?xml version="1.0" encoding="utf-8"?>
<!-- Generator: Adobe Illustrator 19.1.0, SVG Export Plug-In . SVG Version: 6.00 Build 0)  -->
<svg version="1.1" id="Layer_1" xmlns="http://www.w3.org/2000/svg" xmlns:xlink="http://www.w3.org/1999/xlink" x="0px" y="0px"
	 viewBox="-257 179 124 124" style="enable-background:new -257 179 124 124;" xml:space="preserve">
<style type="text/css">
	.st0{display:none;}
	.st1{fill:#176266;}
	.st2{fill:#84D3C9;}
	.st3{fill:#1A7F84;}
	.st4{fill:#34514D;}
	.st5{fill:#5B463B;}
	.st6{fill:#72B5AB;}
</style>
<g id="Layer_3">
</g>
<g id="Layer_1_1_">
	<g id="Layer_4">
	</g>
</g>
<g id="Houses">
</g>
<g id="Layer_6" class="st0">
</g>
<g id="Layer_11">
</g>
<g id="Layer_10">
</g>
<g id="Layer_9" class="st0">
</g>
<g id="houserow">
</g>
<g id="Layer_13">
</g>
<g id="Layer_8">
</g>
<g id="Layer_2">
</g>
<g id="Layer_12">
</g>
<g id="Layer_14">
</g>
<g id="ROW2">
</g>
<path class="st1" d="M-221.2,209.7l-24.8,34.7c-0.4,0.5-0.6,1.1-0.6,1.8v46.9c0,1.7,1.4,3.1,3.1,3.1h49.9v-51l-23.8-35.5
	C-218.4,208.4-220.2,208.4-221.2,209.7z"/>
<path class="st2" d="M-208.7,296.2h-22.6v-35.6c0-2.5,2-4.4,4.4-4.4h13.7c2.5,0,4.4,2,4.4,4.4L-208.7,296.2L-208.7,296.2z"/>
<path class="st3" d="M-146.2,296.2h-47.6v-50.9h47.6c1.5,0,2.8,1.2,2.8,2.8v45.3C-143.4,295-144.7,296.2-146.2,296.2z"/>
<path class="st2" d="M-173.6,282.5h-9.3c-1.2,0-2.1-1-2.1-2.1v-19.6c0-1.2,1-2.1,2.1-2.1h9.3c1.2,0,2.1,1,2.1,2.1v19.6
	C-171.5,281.5-172.4,282.5-173.6,282.5z"/>
<path class="st4" d="M-151.8,282.5h-9.3c-1.2,0-2.1-1-2.1-2.1v-19.6c0-1.2,1-2.1,2.1-2.1h9.3c1.2,0,2.1,1,2.1,2.1v19.6
	C-149.6,281.5-150.6,282.5-151.8,282.5z"/>
<path class="st5" d="M-145.2,247.5h-47.4c-0.9,0-1.8-0.5-2.3-1.2l-24.6-36.5c-0.5-0.8,0-1.8,1-1.8h47.3c1.8,0,3.4,0.9,4.4,2.4
	l23.1,34.1C-143,245.8-143.8,247.5-145.2,247.5z"/>
<path class="st1" d="M-180.2,217.8h-7.8c-0.6,0-1-0.5-1-1V206h9.9v10.9C-179.2,217.4-179.7,217.8-180.2,217.8z"/>
<path class="st3" d="M-180.2,217.8h-3.9V206h4.9v10.8C-179.2,217.3-179.7,217.8-180.2,217.8z"/>
<path class="st1" d="M-178.2,206h-11.9c-0.4,0-0.8-0.4-0.8-0.8v-1.5c0-0.4,0.4-0.8,0.8-0.8h11.9c0.4,0,0.8,0.4,0.8,0.8v1.5
	C-177.4,205.6-177.8,206-178.2,206z"/>
<path class="st3" d="M-178.2,206h-5.9v-3h5.9c0.5,0,0.8,0.4,0.8,0.8v1.4C-177.4,205.6-177.8,206-178.2,206z"/>
<g>
	<path class="st6" d="M-173.9,276.3v6.2h-1.7v-6.2c0-0.5,0.4-0.9,0.9-0.9l0,0C-174.2,275.4-173.9,275.8-173.9,276.3z"/>
	<path class="st6" d="M-180.2,273.1c0.3-0.3,0.9-0.3,1.2,0l4.6,4.6c0.3,0.3,0.3,0.9,0,1.2l0,0c-0.3,0.3-0.9,0.3-1.2,0l-4.6-4.5
		C-180.6,274-180.6,273.5-180.2,273.1L-180.2,273.1z"/>
	<path class="st6" d="M-171.4,268.2l-6.5,6.5c-0.3,0.3-0.9,0.3-1.2,0l0,0c-0.3-0.3-0.3-0.9,0-1.2l7.7-7.7V268.2z"/>
	<path class="st6" d="M-180.2,264c0.3-0.3,0.9-0.3,1.2,0l5.2,5.2c0.2,0.2,0.2,0.4,0,0.6l-0.6,0.6c-0.2,0.2-0.4,0.2-0.6,0l-5.2-5.2
		C-180.6,264.9-180.6,264.4-180.2,264L-180.2,264z"/>
</g>
</svg>
