<?xml version="1.0" encoding="utf-8"?>
<!-- Generator: Adobe Illustrator 19.1.0, SVG Export Plug-In . SVG Version: 6.00 Build 0)  -->
<svg version="1.1" xmlns="http://www.w3.org/2000/svg" xmlns:xlink="http://www.w3.org/1999/xlink" x="0px" y="0px"
	 viewBox="0 0 124 124" style="enable-background:new 0 0 124 124;" xml:space="preserve">
<style type="text/css">
	.st0{fill:#33A89D;}
	.st1{fill:#18717A;}
	.st2{display:none;}
	.st3{display:inline;}
	.st4{fill:#1A7F84;}
	.st5{fill:#84D3C9;}
	.st6{fill:#EA9C68;}
	.st7{fill:#176266;}
	.st8{fill:#5B463B;}
	.st9{fill:#1B8989;}
	.st10{fill:#EFEFEF;}
	.st11{fill:#4ACCC2;}
	.st12{fill:#1C88A5;}
	.st13{fill:#1B7989;}
	.st14{fill:#31AA9B;}
	.st15{fill:#EDA574;}
	.st16{fill:#F2F9F8;}
	.st17{fill:#166D6D;}
	.st18{fill:#166468;}
	.st19{fill:#493831;}
	.st20{fill:#135454;}
	.st21{fill:#72B5AB;}
	.st22{fill:#2D9185;}
	.st23{fill:#BC825B;}
	.st24{fill:#145656;}
	.st25{fill:#145151;}
	.st26{fill:#155656;}
	.st27{fill:#30998C;}
	.st28{fill:#146266;}
	.st29{fill:none;stroke:#1A7F84;stroke-width:6;stroke-linecap:round;stroke-miterlimit:10;}
	.st30{fill:none;stroke:#EA9C68;stroke-width:6;stroke-linecap:round;stroke-miterlimit:10;}
	.st31{fill:none;stroke:#5B463B;stroke-width:6;stroke-linecap:round;stroke-miterlimit:10;}
</style>
<g id="Layer_3">
</g>
<g id="Layer_1">
	<g id="Layer_4">
	</g>
</g>
<g id="Houses">
</g>
<g id="Layer_6" class="st2">
</g>
<g id="Layer_11">
</g>
<g id="Layer_10">
</g>
<g id="Layer_9" class="st2">
</g>
<g id="houserow">
</g>
<g id="Layer_13">
</g>
<g id="Layer_8">
</g>
<g id="Layer_2">
</g>
<g id="Layer_12">
</g>
<g id="Layer_14">
</g>
<g id="ROW2">
</g>
<g id="Layer_16">
	<g>
		<path class="st7" d="M34.1,22.3L9.3,57c-0.4,0.5-0.6,1.1-0.6,1.8v46.9c0,1.7,1.4,3.1,3.1,3.1h49.9v-51L37.9,22.3
			C37,21,35.1,21,34.1,22.3z"/>
		<path class="st5" d="M46.7,108.8H24.1V73.2c0-2.5,2-4.4,4.4-4.4h13.7c2.5,0,4.4,2,4.4,4.4V108.8z"/>
		<path class="st4" d="M109.2,108.8H61.6V57.9h47.6c1.5,0,2.8,1.2,2.8,2.8V106C112,107.6,110.7,108.8,109.2,108.8z"/>
		<path class="st5" d="M81.8,95.1h-9.3c-1.2,0-2.1-1-2.1-2.1V73.4c0-1.2,1-2.1,2.1-2.1h9.3c1.2,0,2.1,1,2.1,2.1V93
			C83.9,94.1,83,95.1,81.8,95.1z"/>
		<path class="st5" d="M103.6,95.1h-9.3c-1.2,0-2.1-1-2.1-2.1V73.4c0-1.2,1-2.1,2.1-2.1h9.3c1.2,0,2.1,1,2.1,2.1V93
			C105.8,94.1,104.8,95.1,103.6,95.1z"/>
		<path class="st8" d="M110.1,60.1H62.7c-0.9,0-1.8-0.5-2.3-1.2L35.8,22.4c-0.5-0.8,0-1.8,1-1.8h47.3c1.8,0,3.4,0.9,4.4,2.4
			l23.1,34.1C112.4,58.4,111.6,60.1,110.1,60.1z"/>
		<path class="st7" d="M75.2,30.4h-7.8c-0.6,0-1-0.5-1-1V18.6h9.9v10.9C76.2,30,75.7,30.4,75.2,30.4z"/>
		<path class="st4" d="M75.1,30.4h-3.9V18.6h4.9v10.8C76.2,29.9,75.7,30.4,75.1,30.4z"/>
		<path class="st7" d="M77.2,18.6H65.3c-0.4,0-0.8-0.4-0.8-0.8v-1.5c0-0.4,0.4-0.8,0.8-0.8h11.9c0.4,0,0.8,0.4,0.8,0.8v1.5
			C78,18.2,77.6,18.6,77.2,18.6z"/>
		<path class="st4" d="M77.1,18.6h-5.9v-3h5.9c0.5,0,0.8,0.4,0.8,0.8v1.4C78,18.2,77.6,18.6,77.1,18.6z"/>
		<g>
			<path class="st21" d="M81.5,88.9v6.2h-1.7v-6.2c0-0.5,0.4-0.9,0.9-0.9l0,0C81.1,88,81.5,88.4,81.5,88.9z"/>
			<path class="st21" d="M75.1,85.7c0.3-0.3,0.9-0.3,1.2,0l4.6,4.6c0.3,0.3,0.3,0.9,0,1.2l0,0c-0.3,0.3-0.9,0.3-1.2,0L75.1,87
				C74.8,86.6,74.8,86.1,75.1,85.7L75.1,85.7z"/>
			<path class="st21" d="M84,80.8l-6.5,6.5c-0.3,0.3-0.9,0.3-1.2,0l0,0c-0.3-0.3-0.3-0.9,0-1.2l7.7-7.7L84,80.8z"/>
			<path class="st21" d="M75.1,76.6c0.3-0.3,0.9-0.3,1.2,0l5.2,5.2c0.2,0.2,0.2,0.4,0,0.6l-0.6,0.6c-0.2,0.2-0.4,0.2-0.6,0l-5.2-5.2
				C74.8,77.5,74.8,77,75.1,76.6L75.1,76.6z"/>
		</g>
		<g>
			<circle class="st5" cx="57.1" cy="34.3" r="13.9"/>
			<circle class="st5" cx="60.5" cy="53.7" r="10.2"/>
			<circle class="st5" cx="65.5" cy="41.7" r="10.2"/>
			<circle class="st5" cx="54.7" cy="66.5" r="6.7"/>
			<circle class="st5" cx="49.2" cy="70.3" r="6.4"/>
			<circle class="st5" cx="45.6" cy="75.7" r="3.8"/>
			<circle class="st5" cx="61.6" cy="66.8" r="5.8"/>
		</g>
	</g>
</g>
</svg>
