<?xml version="1.0" encoding="utf-8"?>
<!-- Generator: Adobe Illustrator 19.1.0, SVG Export Plug-In . SVG Version: 6.00 Build 0)  -->
<svg version="1.1" xmlns="http://www.w3.org/2000/svg" xmlns:xlink="http://www.w3.org/1999/xlink" x="0px" y="0px"
	 viewBox="0 0 124 124" style="enable-background:new 0 0 124 124;" xml:space="preserve">
<style type="text/css">
	.st0{fill:#33A89D;}
	.st1{fill:#18717A;}
	.st2{display:none;}
	.st3{display:inline;}
	.st4{fill:#1A7F84;}
	.st5{fill:#84D3C9;}
	.st6{fill:#EA9C68;}
	.st7{fill:#176266;}
	.st8{fill:#5B463B;}
	.st9{fill:#1B8989;}
	.st10{fill:#EFEFEF;}
	.st11{fill:#4ACCC2;}
	.st12{fill:#1C88A5;}
	.st13{fill:#1B7989;}
	.st14{fill:#31AA9B;}
	.st15{fill:#EDA574;}
	.st16{fill:#F2F9F8;}
	.st17{fill:#166D6D;}
	.st18{fill:#166468;}
	.st19{fill:#493831;}
	.st20{fill:#135454;}
	.st21{fill:#72B5AB;}
	.st22{fill:#2D9185;}
	.st23{fill:#BC825B;}
	.st24{fill:#145656;}
	.st25{fill:#145151;}
	.st26{fill:#155656;}
	.st27{fill:#30998C;}
	.st28{fill:#146266;}
	.st29{fill:none;stroke:#1A7F84;stroke-width:6;stroke-linecap:round;stroke-miterlimit:10;}
	.st30{fill:none;stroke:#EA9C68;stroke-width:6;stroke-linecap:round;stroke-miterlimit:10;}
	.st31{fill:none;stroke:#5B463B;stroke-width:6;stroke-linecap:round;stroke-miterlimit:10;}
</style>
<g id="Layer_3">
</g>
<g id="Layer_1">
	<g id="Layer_4">
	</g>
</g>
<g id="Houses">
</g>
<g id="Layer_6" class="st2">
</g>
<g id="Layer_11">
</g>
<g id="Layer_10">
</g>
<g id="Layer_9" class="st2">
</g>
<g id="houserow">
</g>
<g id="Layer_13">
</g>
<g id="Layer_8">
</g>
<g id="Layer_2">
</g>
<g id="Layer_12">
</g>
<g id="Layer_14">
</g>
<g id="ROW2">
</g>
<g id="Layer_16">
	<g>
		<g>
			<path class="st4" d="M86.5,23.4l24.8,34.7c0.4,0.5,0.6,1.1,0.6,1.8v46.9c0,1.7-1.4,3.1-3.1,3.1H59v-51l23.8-35.4
				C83.7,22.2,85.6,22.1,86.5,23.4z"/>
			<path class="st5" d="M74,109.9h22.6V74.3c0-2.5-2-4.4-4.4-4.4H78.4c-2.5,0-4.4,2-4.4,4.4V109.9z"/>
			<path class="st1" d="M11.5,109.9h47.6V59H11.5c-1.5,0-2.8,1.2-2.8,2.8v45.4C8.7,108.7,10,109.9,11.5,109.9z"/>
			<path class="st5" d="M38.9,96.2h9.3c1.2,0,2.1-1,2.1-2.1V74.5c0-1.2-1-2.1-2.1-2.1h-9.3c-1.2,0-2.1,1-2.1,2.1v19.5
				C36.7,95.3,37.7,96.2,38.9,96.2z"/>
			<path class="st5" d="M17,96.2h9.3c1.2,0,2.1-1,2.1-2.1V74.5c0-1.2-1-2.1-2.1-2.1H17c-1.2,0-2.1,1-2.1,2.1v19.5
				C14.9,95.3,15.9,96.2,17,96.2z"/>
			<path class="st6" d="M10.6,61.2h47.3c0.9,0,1.8-0.5,2.3-1.2l24.6-36.4c0.5-0.8,0-1.8-1-1.8H36.6c-1.8,0-3.4,0.9-4.4,2.4L9.1,58.3
				C8.2,59.5,9.1,61.2,10.6,61.2z"/>
			<g>
				<path class="st4" d="M45.5,31.6h7.8c0.6,0,1-0.5,1-1V19.7h-9.9v10.9C44.5,31.1,45,31.6,45.5,31.6z"/>
				<path class="st1" d="M45.6,31.6h3.9V19.7h-4.9v10.8C44.5,31.1,45,31.6,45.6,31.6z"/>
				<path class="st4" d="M43.5,19.7h11.9c0.4,0,0.8-0.4,0.8-0.8v-1.5c0-0.4-0.4-0.8-0.8-0.8H43.5c-0.4,0-0.8,0.4-0.8,0.8v1.5
					C42.7,19.3,43.1,19.7,43.5,19.7z"/>
				<path class="st1" d="M43.5,19.7h5.9v-3h-5.9c-0.5,0-0.8,0.4-0.8,0.8v1.4C42.7,19.3,43.1,19.7,43.5,19.7z"/>
			</g>
		</g>
		<g>
			<path class="st23" d="M39.6,38.5L39.6,38.5c0.8,0,1.4-0.6,1.4-1.4V21.7c-0.9,0-2.1,0-2.8,0v15.3C38.1,37.8,38.8,38.5,39.6,38.5z"
				/>
			<path class="st23" d="M30.1,39.5L30.1,39.5c0.6,0.6,1.4,0.6,2,0l8.5-8.5c0.6-0.6,0.6-1.4,0-2v0c-0.6-0.6-1.4-0.6-2,0l-8.5,8.5
				C29.5,38,29.5,38.9,30.1,39.5z"/>
			<path class="st23" d="M50.7,54.2L50.7,54.2c0.6-0.6,0.6-1.4,0-2L34.4,36c-0.6-0.6-1.4-0.6-2,0v0c-0.6,0.6-0.6,1.4,0,2l16.3,16.3
				C49.2,54.8,50.1,54.8,50.7,54.2z"/>
			<path class="st23" d="M38.3,57.4L38.3,57.4c0.6,0.6,1.4,0.6,2,0l6-6c0.6-0.6,0.6-1.4,0-2h0c-0.6-0.6-1.4-0.6-2,0l-6,6
				C37.7,55.9,37.7,56.8,38.3,57.4z"/>
		</g>
	</g>
</g>
</svg>
