<?xml version="1.0" encoding="utf-8"?>
<!-- Generator: Adobe Illustrator 19.1.0, SVG Export Plug-In . SVG Version: 6.00 Build 0)  -->
<svg version="1.1" xmlns="http://www.w3.org/2000/svg" xmlns:xlink="http://www.w3.org/1999/xlink" x="0px" y="0px"
	 viewBox="0 0 1024 312.2" style="enable-background:new 0 0 1024 312.2;" xml:space="preserve">
<style type="text/css">
	.st0{fill:#33A89D;}
	.st1{fill:#18717A;}
	.st2{display:none;}
	.st3{display:inline;}
	.st4{fill:#1A7F84;}
	.st5{fill:#84D3C9;}
	.st6{fill:#EA9C68;}
	.st7{fill:#176266;}
	.st8{fill:#5B463B;}
	.st9{fill:#1B8989;}
	.st10{fill:#EFEFEF;}
	.st11{fill:#4ACCC2;}
	.st12{fill:#1C88A5;}
	.st13{fill:#1B7989;}
	.st14{fill:#31AA9B;}
	.st15{fill:#EDA574;}
	.st16{fill:#F2F9F8;}
	.st17{fill:#166D6D;}
	.st18{fill:#166468;}
	.st19{fill:#493831;}
	.st20{fill:#135454;}
	.st21{fill:#72B5AB;}
	.st22{fill:#2D9185;}
	.st23{fill:#BC825B;}
	.st24{fill:#145656;}
	.st25{fill:#145151;}
	.st26{fill:#155656;}
	.st27{fill:#30998C;}
	.st28{fill:#146266;}
	.st29{fill:none;stroke:#1A7F84;stroke-width:6;stroke-linecap:round;stroke-miterlimit:10;}
	.st30{fill:none;stroke:#EA9C68;stroke-width:6;stroke-linecap:round;stroke-miterlimit:10;}
	.st31{fill:none;stroke:#5B463B;stroke-width:6;stroke-linecap:round;stroke-miterlimit:10;}
</style>
<g id="Layer_3">
</g>
<g id="Layer_1">
	<g id="Layer_4">
	</g>
</g>
<g id="Houses">
</g>
<g id="Layer_6" class="st2">
</g>
<g id="Layer_11">
</g>
<g id="Layer_10">
</g>
<g id="Layer_9" class="st2">
	<g class="st3">
		<path class="st7" d="M499.1,175.4l-24.8,34.7c-0.4,0.5-0.6,1.1-0.6,1.8v46.9c0,1.7,1.4,3.1,3.1,3.1h49.9v-51l-23.8-35.4
			C502,174.1,500,174.1,499.1,175.4z"/>
		<path class="st5" d="M511.7,261.9h-22.6v-35.6c0-2.5,2-4.4,4.4-4.4h13.7c2.5,0,4.4,2,4.4,4.4V261.9z"/>
		<path class="st4" d="M574.2,261.9h-47.6V211h47.6c1.5,0,2.8,1.2,2.8,2.8v45.4C576.9,260.7,575.7,261.9,574.2,261.9z"/>
		<path class="st5" d="M546.8,248.2h-9.3c-1.2,0-2.1-1-2.1-2.1v-19.5c0-1.2,1-2.1,2.1-2.1h9.3c1.2,0,2.1,1,2.1,2.1v19.5
			C548.9,247.2,548,248.2,546.8,248.2z"/>
		<path class="st5" d="M568.6,248.2h-9.3c-1.2,0-2.1-1-2.1-2.1v-19.5c0-1.2,1-2.1,2.1-2.1h9.3c1.2,0,2.1,1,2.1,2.1v19.5
			C570.8,247.2,569.8,248.2,568.6,248.2z"/>
		<path class="st8" d="M575,213.2h-47.3c-0.9,0-1.8-0.5-2.3-1.2l-24.6-36.4c-0.5-0.8,0-1.8,1-1.8h47.3c1.8,0,3.4,0.9,4.4,2.4
			l23.1,34.1C577.4,211.5,576.5,213.2,575,213.2z"/>
		<g>
			<path class="st4" d="M540.1,183.5h-7.8c-0.6,0-1-0.5-1-1v-10.9h9.9v10.9C541.1,183.1,540.7,183.5,540.1,183.5z"/>
			<path class="st1" d="M540.1,183.5h-3.9v-11.9h4.9v10.8C541.1,183,540.7,183.5,540.1,183.5z"/>
			<path class="st4" d="M542.2,171.7h-11.9c-0.4,0-0.8-0.4-0.8-0.8v-1.5c0-0.4,0.4-0.8,0.8-0.8h11.9c0.4,0,0.8,0.4,0.8,0.8v1.5
				C542.9,171.3,542.6,171.7,542.2,171.7z"/>
			<path class="st1" d="M542.1,171.7h-5.9v-3h5.9c0.5,0,0.8,0.4,0.8,0.8v1.4C542.9,171.3,542.6,171.7,542.1,171.7z"/>
		</g>
	</g>
	<g class="st3">
		<path class="st4" d="M478.4,171.7v95.4c0,1.7-1.4,3.1-3.1,3.1h-41.8V169.7l19.1-30.7c1.5-2.5,5.1-2.5,6.6,0l18,28.9
			C478,169.1,478.4,170.4,478.4,171.7z"/>
		<path class="st1" d="M397,270.2h36.6V169.7H397c-1.5,0-2.8,1.2-2.8,2.8v94.9C394.2,268.9,395.4,270.2,397,270.2z"/>
		<path class="st5" d="M418,246.4h9.3c1.2,0,2.1-1,2.1-2.1v-12c0-1.2-1-2.1-2.1-2.1H418c-1.2,0-2.1,1-2.1,2.1v12
			C415.9,245.4,416.8,246.4,418,246.4z"/>
		<path class="st5" d="M451.3,244.1h9.3c1.2,0,2.1-1,2.1-2.1v-12c0-1.2-1-2.1-2.1-2.1h-9.3c-1.2,0-2.1,1-2.1,2.1v12
			C449.2,243.1,450.1,244.1,451.3,244.1z"/>
		<path class="st5" d="M399.5,246.4h9.3c1.2,0,2.1-1,2.1-2.1v-12c0-1.2-1-2.1-2.1-2.1h-9.3c-1.2,0-2.1,1-2.1,2.1v12
			C397.3,245.4,398.3,246.4,399.5,246.4z"/>
		<path class="st5" d="M418,211.6h9.3c1.2,0,2.1-1,2.1-2.1v-12c0-1.2-1-2.1-2.1-2.1H418c-1.2,0-2.1,1-2.1,2.1v12
			C415.9,210.6,416.8,211.6,418,211.6z"/>
		<path class="st5" d="M451.3,211.6h9.3c1.2,0,2.1-1,2.1-2.1v-12c0-1.2-1-2.1-2.1-2.1h-9.3c-1.2,0-2.1,1-2.1,2.1v12
			C449.2,210.6,450.1,211.6,451.3,211.6z"/>
		<path class="st5" d="M399.5,211.6h9.3c1.2,0,2.1-1,2.1-2.1v-12c0-1.2-1-2.1-2.1-2.1h-9.3c-1.2,0-2.1,1-2.1,2.1v12
			C397.3,210.6,398.3,211.6,399.5,211.6z"/>
		<path class="st6" d="M394.2,170.7h40.2c0.8,0,1.5-0.4,1.9-1l20.9-30.9c0.4-0.7,0-1.6-0.8-1.6h-40.2c-1.5,0-2.9,0.8-3.8,2l-19.6,29
			C392.2,169.2,393,170.7,394.2,170.7z"/>
		<g>
			<path class="st4" d="M421.1,142.3h7.8c0.6,0,1-0.5,1-1v-10.9h-9.9v10.9C420.1,141.8,420.6,142.3,421.1,142.3z"/>
			<path class="st1" d="M421.2,142.3h3.9v-11.9h-4.9v10.8C420.1,141.8,420.6,142.3,421.2,142.3z"/>
			<path class="st4" d="M419.1,130.4H431c0.4,0,0.8-0.4,0.8-0.8v-1.5c0-0.4-0.4-0.8-0.8-0.8h-11.9c-0.4,0-0.8,0.4-0.8,0.8v1.5
				C418.3,130.1,418.7,130.4,419.1,130.4z"/>
			<path class="st1" d="M419.1,130.4h5.9v-3h-5.9c-0.5,0-0.8,0.4-0.8,0.8v1.4C418.3,130.1,418.7,130.4,419.1,130.4z"/>
		</g>
	</g>
	<g class="st3">
		<path class="st7" d="M260.2,148.8l-24.8,34.7c-0.4,0.5-0.6,1.1-0.6,1.8v46.9c0,1.7,1.4,3.1,3.1,3.1h49.9v-51L264,148.8
			C263.1,147.5,261.1,147.5,260.2,148.8z"/>
		<path class="st5" d="M272.8,235.3h-22.6v-35.6c0-2.5,2-4.4,4.4-4.4h13.7c2.5,0,4.4,2,4.4,4.4V235.3z"/>
		<path class="st4" d="M335.3,235.3h-47.6v-50.9h47.6c1.5,0,2.8,1.2,2.8,2.8v45.4C338,234,336.8,235.3,335.3,235.3z"/>
		<path class="st5" d="M307.9,221.6h-9.3c-1.2,0-2.1-1-2.1-2.1v-19.5c0-1.2,1-2.1,2.1-2.1h9.3c1.2,0,2.1,1,2.1,2.1v19.5
			C310,220.6,309.1,221.6,307.9,221.6z"/>
		<path class="st5" d="M329.7,221.6h-9.3c-1.2,0-2.1-1-2.1-2.1v-19.5c0-1.2,1-2.1,2.1-2.1h9.3c1.2,0,2.1,1,2.1,2.1v19.5
			C331.9,220.6,330.9,221.6,329.7,221.6z"/>
		<path class="st8" d="M336.1,186.6h-47.3c-0.9,0-1.8-0.5-2.3-1.2l-24.6-36.4c-0.5-0.8,0-1.8,1-1.8h47.3c1.8,0,3.4,0.9,4.4,2.4
			l23.1,34.1C338.5,184.8,337.6,186.6,336.1,186.6z"/>
		<g>
			<path class="st4" d="M301.2,156.9h-7.8c-0.6,0-1-0.5-1-1V145h9.9v10.9C302.2,156.4,301.8,156.9,301.2,156.9z"/>
			<path class="st1" d="M301.2,156.9h-3.9V145h4.9v10.8C302.2,156.4,301.8,156.9,301.2,156.9z"/>
			<path class="st4" d="M303.3,145h-11.9c-0.4,0-0.8-0.4-0.8-0.8v-1.5c0-0.4,0.4-0.8,0.8-0.8h11.9c0.4,0,0.8,0.4,0.8,0.8v1.5
				C304,144.7,303.7,145,303.3,145z"/>
			<path class="st1" d="M303.2,145h-5.9v-3h5.9c0.5,0,0.8,0.4,0.8,0.8v1.4C304,144.6,303.7,145,303.2,145z"/>
		</g>
	</g>
	<g class="st3">
		<path class="st4" d="M152.1,148.8l24.8,34.7c0.4,0.5,0.6,1.1,0.6,1.8v46.9c0,1.7-1.4,3.1-3.1,3.1h-49.9v-51l23.8-35.4
			C149.3,147.5,151.2,147.5,152.1,148.8z"/>
		<path class="st5" d="M139.5,235.3h22.6v-35.6c0-2.5-2-4.4-4.4-4.4H144c-2.5,0-4.4,2-4.4,4.4V235.3z"/>
		<path class="st7" d="M77.1,235.3h47.6v-50.9H77.1c-1.5,0-2.8,1.2-2.8,2.8v45.4C74.3,234,75.5,235.3,77.1,235.3z"/>
		<path class="st5" d="M104.4,221.6h9.3c1.2,0,2.1-1,2.1-2.1v-19.5c0-1.2-1-2.1-2.1-2.1h-9.3c-1.2,0-2.1,1-2.1,2.1v19.5
			C102.3,220.6,103.3,221.6,104.4,221.6z"/>
		<path class="st5" d="M82.6,221.6h9.3c1.2,0,2.1-1,2.1-2.1v-19.5c0-1.2-1-2.1-2.1-2.1h-9.3c-1.2,0-2.1,1-2.1,2.1v19.5
			C80.5,220.6,81.4,221.6,82.6,221.6z"/>
		<path class="st6" d="M76.2,186.6h47.3c0.9,0,1.8-0.5,2.3-1.2l24.6-36.4c0.5-0.8,0-1.8-1-1.8h-47.3c-1.8,0-3.4,0.9-4.4,2.4
			l-23.1,34.1C73.8,184.8,74.7,186.6,76.2,186.6z"/>
		<g>
			<path class="st4" d="M111.1,156.9h7.8c0.6,0,1-0.5,1-1V145h-9.9v10.9C110.1,156.4,110.5,156.9,111.1,156.9z"/>
			<path class="st1" d="M111.1,156.9h3.9V145h-4.9v10.8C110.1,156.4,110.5,156.9,111.1,156.9z"/>
			<path class="st4" d="M109.1,145H121c0.4,0,0.8-0.4,0.8-0.8v-1.5c0-0.4-0.4-0.8-0.8-0.8h-11.9c-0.4,0-0.8,0.4-0.8,0.8v1.5
				C108.3,144.7,108.6,145,109.1,145z"/>
			<path class="st1" d="M109.1,145h5.9v-3h-5.9c-0.5,0-0.8,0.4-0.8,0.8v1.4C108.3,144.6,108.6,145,109.1,145z"/>
		</g>
	</g>
	<g class="st3">
		<path class="st4" d="M237.7,175v95.4c0,1.7-1.4,3.1-3.1,3.1h-41.8V173l19.1-30.7c1.5-2.5,5.1-2.5,6.6,0l18,28.9
			C237.4,172.4,237.7,173.7,237.7,175z"/>
		<path class="st1" d="M156.3,273.5h36.6V173.1h-36.6c-1.5,0-2.8,1.2-2.8,2.8v94.9C153.5,272.2,154.8,273.5,156.3,273.5z"/>
		<path class="st5" d="M177.4,249.7h9.3c1.2,0,2.1-1,2.1-2.1v-12c0-1.2-1-2.1-2.1-2.1h-9.3c-1.2,0-2.1,1-2.1,2.1v12
			C175.2,248.8,176.2,249.7,177.4,249.7z"/>
		<path class="st5" d="M210.6,247.4h9.3c1.2,0,2.1-1,2.1-2.1v-12c0-1.2-1-2.1-2.1-2.1h-9.3c-1.2,0-2.1,1-2.1,2.1v12
			C208.5,246.4,209.5,247.4,210.6,247.4z"/>
		<path class="st5" d="M158.8,249.7h9.3c1.2,0,2.1-1,2.1-2.1v-12c0-1.2-1-2.1-2.1-2.1h-9.3c-1.2,0-2.1,1-2.1,2.1v12
			C156.7,248.8,157.6,249.7,158.8,249.7z"/>
		<path class="st5" d="M177.4,214.9h9.3c1.2,0,2.1-1,2.1-2.1v-12c0-1.2-1-2.1-2.1-2.1h-9.3c-1.2,0-2.1,1-2.1,2.1v12
			C175.2,213.9,176.2,214.9,177.4,214.9z"/>
		<path class="st5" d="M210.6,214.9h9.3c1.2,0,2.1-1,2.1-2.1v-12c0-1.2-1-2.1-2.1-2.1h-9.3c-1.2,0-2.1,1-2.1,2.1v12
			C208.5,213.9,209.5,214.9,210.6,214.9z"/>
		<path class="st5" d="M158.8,214.9h9.3c1.2,0,2.1-1,2.1-2.1v-12c0-1.2-1-2.1-2.1-2.1h-9.3c-1.2,0-2.1,1-2.1,2.1v12
			C156.7,213.9,157.6,214.9,158.8,214.9z"/>
		<path class="st8" d="M153.6,174h40.2c0.8,0,1.5-0.4,1.9-1l20.9-30.9c0.4-0.7,0-1.6-0.8-1.6h-40.2c-1.5,0-2.9,0.8-3.8,2l-19.6,29
			C151.6,172.6,152.3,174,153.6,174z"/>
		<g>
			<path class="st4" d="M180.5,145.6h7.8c0.6,0,1-0.5,1-1v-10.9h-9.9v10.9C179.5,145.2,179.9,145.6,180.5,145.6z"/>
			<path class="st1" d="M180.5,145.6h3.9v-11.9h-4.9v10.8C179.5,145.1,179.9,145.6,180.5,145.6z"/>
			<path class="st4" d="M178.4,133.7h11.9c0.4,0,0.8-0.4,0.8-0.8v-1.5c0-0.4-0.4-0.8-0.8-0.8h-11.9c-0.4,0-0.8,0.4-0.8,0.8v1.5
				C177.7,133.4,178,133.7,178.4,133.7z"/>
			<path class="st1" d="M178.5,133.7h5.9v-3h-5.9c-0.5,0-0.8,0.4-0.8,0.8v1.4C177.7,133.4,178,133.7,178.5,133.7z"/>
		</g>
	</g>
	<g class="st3">
		<path class="st7" d="M0,181.4v95.4c0,1.7,1.4,3.1,3.1,3.1h41.8V179.4l-19.1-30.7c-1.5-2.5-5.1-2.5-6.6,0l-18,28.9
			C0.4,178.8,0,180.1,0,181.4z"/>
		<path class="st4" d="M81.4,279.9H44.8V179.4h36.6c1.5,0,2.8,1.2,2.8,2.8v94.9C84.2,278.6,83,279.9,81.4,279.9z"/>
		<path class="st5" d="M60.4,256.1H51c-1.2,0-2.1-1-2.1-2.1v-12c0-1.2,1-2.1,2.1-2.1h9.3c1.2,0,2.1,1,2.1,2.1v12
			C62.5,255.2,61.6,256.1,60.4,256.1z"/>
		<path class="st5" d="M27.1,253.8h-9.3c-1.2,0-2.1-1-2.1-2.1v-12c0-1.2,1-2.1,2.1-2.1h9.3c1.2,0,2.1,1,2.1,2.1v12
			C29.2,252.8,28.3,253.8,27.1,253.8z"/>
		<path class="st5" d="M78.9,256.1h-9.3c-1.2,0-2.1-1-2.1-2.1v-12c0-1.2,1-2.1,2.1-2.1h9.3c1.2,0,2.1,1,2.1,2.1v12
			C81,255.2,80.1,256.1,78.9,256.1z"/>
		<path class="st5" d="M60.4,221.3H51c-1.2,0-2.1-1-2.1-2.1v-12c0-1.2,1-2.1,2.1-2.1h9.3c1.2,0,2.1,1,2.1,2.1v12
			C62.5,220.3,61.6,221.3,60.4,221.3z"/>
		<path class="st5" d="M27.1,221.3h-9.3c-1.2,0-2.1-1-2.1-2.1v-12c0-1.2,1-2.1,2.1-2.1h9.3c1.2,0,2.1,1,2.1,2.1v12
			C29.2,220.3,28.3,221.3,27.1,221.3z"/>
		<path class="st5" d="M78.9,221.3h-9.3c-1.2,0-2.1-1-2.1-2.1v-12c0-1.2,1-2.1,2.1-2.1h9.3c1.2,0,2.1,1,2.1,2.1v12
			C81,220.3,80.1,221.3,78.9,221.3z"/>
		<path class="st8" d="M84.2,180.4H43.9c-0.8,0-1.5-0.4-1.9-1l-20.9-30.9c-0.4-0.7,0-1.6,0.8-1.6h40.2c1.5,0,2.9,0.8,3.8,2l19.6,29
			C86.2,178.9,85.4,180.4,84.2,180.4z"/>
		<g>
			<path class="st4" d="M57.2,152h-7.8c-0.6,0-1-0.5-1-1v-10.9h9.9V151C58.3,151.5,57.8,152,57.2,152z"/>
			<path class="st1" d="M57.2,152h-3.9v-11.9h4.9v10.8C58.3,151.5,57.8,152,57.2,152z"/>
			<path class="st4" d="M59.3,140.1H47.4c-0.4,0-0.8-0.4-0.8-0.8v-1.5c0-0.4,0.4-0.8,0.8-0.8h11.9c0.4,0,0.8,0.4,0.8,0.8v1.5
				C60.1,139.8,59.7,140.1,59.3,140.1z"/>
			<path class="st1" d="M59.2,140.1h-5.9v-3h5.9c0.5,0,0.8,0.4,0.8,0.8v1.4C60.1,139.8,59.7,140.1,59.2,140.1z"/>
		</g>
	</g>
	<g class="st3">
		<path class="st4" d="M158.9,199.4l24.8,34.7c0.4,0.5,0.6,1.1,0.6,1.8v46.9c0,1.7-1.4,3.1-3.1,3.1h-49.9v-51l23.8-35.4
			C156,198.1,157.9,198.1,158.9,199.4z"/>
		<path class="st5" d="M146.3,285.9h22.6v-35.6c0-2.5-2-4.4-4.4-4.4h-13.7c-2.5,0-4.4,2-4.4,4.4V285.9z"/>
		<path class="st1" d="M83.8,285.9h47.6V235H83.8c-1.5,0-2.8,1.2-2.8,2.8v45.4C81,284.7,82.3,285.9,83.8,285.9z"/>
		<path class="st5" d="M111.2,272.2h9.3c1.2,0,2.1-1,2.1-2.1v-19.5c0-1.2-1-2.1-2.1-2.1h-9.3c-1.2,0-2.1,1-2.1,2.1v19.5
			C109.1,271.3,110,272.2,111.2,272.2z"/>
		<path class="st5" d="M89.4,272.2h9.3c1.2,0,2.1-1,2.1-2.1v-19.5c0-1.2-1-2.1-2.1-2.1h-9.3c-1.2,0-2.1,1-2.1,2.1v19.5
			C87.2,271.3,88.2,272.2,89.4,272.2z"/>
		<path class="st8" d="M82.9,237.2h47.3c0.9,0,1.8-0.5,2.3-1.2l24.6-36.4c0.5-0.8,0-1.8-1-1.8h-47.3c-1.8,0-3.4,0.9-4.4,2.4
			l-23.1,34.1C80.6,235.5,81.4,237.2,82.9,237.2z"/>
		<g>
			<path class="st4" d="M117.8,207.5h7.8c0.6,0,1-0.5,1-1v-10.9h-9.9v10.9C116.8,207.1,117.3,207.5,117.8,207.5z"/>
			<path class="st1" d="M117.9,207.5h3.9v-11.9h-4.9v10.8C116.8,207.1,117.3,207.5,117.9,207.5z"/>
			<path class="st4" d="M115.8,195.7h11.9c0.4,0,0.8-0.4,0.8-0.8v-1.5c0-0.4-0.4-0.8-0.8-0.8h-11.9c-0.4,0-0.8,0.4-0.8,0.8v1.5
				C115,195.3,115.4,195.7,115.8,195.7z"/>
			<path class="st1" d="M115.9,195.7h5.9v-3h-5.9c-0.5,0-0.8,0.4-0.8,0.8v1.4C115,195.3,115.4,195.7,115.9,195.7z"/>
		</g>
	</g>
	<g class="st3">
		<path class="st4" d="M413.1,175v95.4c0,1.7-1.4,3.1-3.1,3.1h-41.8V172.9l19.1-30.7c1.5-2.5,5.1-2.5,6.6,0l18,28.9
			C412.7,172.3,413.1,173.6,413.1,175z"/>
		<path class="st1" d="M331.7,273.4h36.6V173h-36.6c-1.5,0-2.8,1.2-2.8,2.8v94.9C328.9,272.2,330.1,273.4,331.7,273.4z"/>
		<path class="st5" d="M352.7,249.6h9.3c1.2,0,2.1-1,2.1-2.1v-12c0-1.2-1-2.1-2.1-2.1h-9.3c-1.2,0-2.1,1-2.1,2.1v12
			C350.6,248.7,351.5,249.6,352.7,249.6z"/>
		<path class="st5" d="M386,247.3h9.3c1.2,0,2.1-1,2.1-2.1v-12c0-1.2-1-2.1-2.1-2.1H386c-1.2,0-2.1,1-2.1,2.1v12
			C383.9,246.4,384.8,247.3,386,247.3z"/>
		<path class="st5" d="M334.2,249.6h9.3c1.2,0,2.1-1,2.1-2.1v-12c0-1.2-1-2.1-2.1-2.1h-9.3c-1.2,0-2.1,1-2.1,2.1v12
			C332,248.7,333,249.6,334.2,249.6z"/>
		<path class="st5" d="M352.7,214.8h9.3c1.2,0,2.1-1,2.1-2.1v-12c0-1.2-1-2.1-2.1-2.1h-9.3c-1.2,0-2.1,1-2.1,2.1v12
			C350.6,213.9,351.5,214.8,352.7,214.8z"/>
		<path class="st5" d="M386,214.8h9.3c1.2,0,2.1-1,2.1-2.1v-12c0-1.2-1-2.1-2.1-2.1H386c-1.2,0-2.1,1-2.1,2.1v12
			C383.9,213.9,384.8,214.8,386,214.8z"/>
		<path class="st5" d="M334.2,214.8h9.3c1.2,0,2.1-1,2.1-2.1v-12c0-1.2-1-2.1-2.1-2.1h-9.3c-1.2,0-2.1,1-2.1,2.1v12
			C332,213.9,333,214.8,334.2,214.8z"/>
		<path class="st6" d="M328.9,173.9h40.2c0.8,0,1.5-0.4,1.9-1L392,142c0.4-0.7,0-1.6-0.8-1.6H351c-1.5,0-2.9,0.8-3.8,2l-19.6,29
			C326.9,172.5,327.7,173.9,328.9,173.9z"/>
		<g>
			<path class="st4" d="M355.8,145.5h7.8c0.6,0,1-0.5,1-1v-10.9h-9.9v10.9C354.8,145.1,355.3,145.5,355.8,145.5z"/>
			<path class="st1" d="M355.9,145.5h3.9v-11.9h-4.9v10.8C354.8,145.1,355.3,145.5,355.9,145.5z"/>
			<path class="st4" d="M353.8,133.7h11.9c0.4,0,0.8-0.4,0.8-0.8v-1.5c0-0.4-0.4-0.8-0.8-0.8h-11.9c-0.4,0-0.8,0.4-0.8,0.8v1.5
				C353,133.3,353.4,133.7,353.8,133.7z"/>
			<path class="st1" d="M353.9,133.7h5.9v-3h-5.9c-0.5,0-0.8,0.4-0.8,0.8v1.4C353,133.3,353.4,133.7,353.9,133.7z"/>
		</g>
	</g>
	<g class="st3">
		<path class="st4" d="M309.8,194.5l24.8,34.7c0.4,0.5,0.6,1.1,0.6,1.8V278c0,1.7-1.4,3.1-3.1,3.1h-49.9v-51l23.8-35.4
			C307,193.3,308.9,193.2,309.8,194.5z"/>
		<path class="st5" d="M297.2,281h22.6v-35.6c0-2.5-2-4.4-4.4-4.4h-13.7c-2.5,0-4.4,2-4.4,4.4V281z"/>
		<path class="st7" d="M234.8,281h47.6v-50.9h-47.6c-1.5,0-2.8,1.2-2.8,2.8v45.4C232,279.8,233.2,281,234.8,281z"/>
		<path class="st5" d="M262.1,267.3h9.3c1.2,0,2.1-1,2.1-2.1v-19.5c0-1.2-1-2.1-2.1-2.1h-9.3c-1.2,0-2.1,1-2.1,2.1v19.5
			C260,266.4,261,267.3,262.1,267.3z"/>
		<path class="st5" d="M240.3,267.3h9.3c1.2,0,2.1-1,2.1-2.1v-19.5c0-1.2-1-2.1-2.1-2.1h-9.3c-1.2,0-2.1,1-2.1,2.1v19.5
			C238.2,266.4,239.1,267.3,240.3,267.3z"/>
		<path class="st6" d="M233.9,232.3h47.3c0.9,0,1.8-0.5,2.3-1.2l24.6-36.4c0.5-0.8,0-1.8-1-1.8h-47.3c-1.8,0-3.4,0.9-4.4,2.4
			l-23.1,34.1C231.5,230.6,232.4,232.3,233.9,232.3z"/>
		<g>
			<path class="st4" d="M268.8,202.7h7.8c0.6,0,1-0.5,1-1v-10.9h-9.9v10.9C267.8,202.2,268.2,202.7,268.8,202.7z"/>
			<path class="st1" d="M268.8,202.7h3.9v-11.9h-4.9v10.8C267.8,202.2,268.2,202.7,268.8,202.7z"/>
			<path class="st4" d="M266.8,190.8h11.9c0.4,0,0.8-0.4,0.8-0.8v-1.5c0-0.4-0.4-0.8-0.8-0.8h-11.9c-0.4,0-0.8,0.4-0.8,0.8v1.5
				C266,190.4,266.3,190.8,266.8,190.8z"/>
			<path class="st1" d="M266.8,190.8h5.9v-3h-5.9c-0.5,0-0.8,0.4-0.8,0.8v1.4C266,190.4,266.3,190.8,266.8,190.8z"/>
		</g>
	</g>
	<g class="st3">
		<path class="st4" d="M553.8,172.3v95.4c0,1.7,1.4,3.1,3.1,3.1h41.8V170.2l-19.1-30.7c-1.5-2.5-5.1-2.5-6.6,0l-18,28.9
			C554.2,169.6,553.8,170.9,553.8,172.3z"/>
		<path class="st1" d="M635.3,270.7h-36.6V170.3h36.6c1.5,0,2.8,1.2,2.8,2.8v94.9C638,269.5,636.8,270.7,635.3,270.7z"/>
		<path class="st5" d="M614.2,247h-9.3c-1.2,0-2.1-1-2.1-2.1v-12c0-1.2,1-2.1,2.1-2.1h9.3c1.2,0,2.1,1,2.1,2.1v12
			C616.3,246,615.4,247,614.2,247z"/>
		<path class="st5" d="M580.9,244.6h-9.3c-1.2,0-2.1-1-2.1-2.1v-12c0-1.2,1-2.1,2.1-2.1h9.3c1.2,0,2.1,1,2.1,2.1v12
			C583.1,243.7,582.1,244.6,580.9,244.6z"/>
		<path class="st5" d="M632.7,247h-9.3c-1.2,0-2.1-1-2.1-2.1v-12c0-1.2,1-2.1,2.1-2.1h9.3c1.2,0,2.1,1,2.1,2.1v12
			C634.9,246,633.9,247,632.7,247z"/>
		<path class="st5" d="M614.2,212.1h-9.3c-1.2,0-2.1-1-2.1-2.1v-12c0-1.2,1-2.1,2.1-2.1h9.3c1.2,0,2.1,1,2.1,2.1v12
			C616.3,211.2,615.4,212.1,614.2,212.1z"/>
		<path class="st5" d="M580.9,212.1h-9.3c-1.2,0-2.1-1-2.1-2.1v-12c0-1.2,1-2.1,2.1-2.1h9.3c1.2,0,2.1,1,2.1,2.1v12
			C583.1,211.2,582.1,212.1,580.9,212.1z"/>
		<path class="st5" d="M632.7,212.1h-9.3c-1.2,0-2.1-1-2.1-2.1v-12c0-1.2,1-2.1,2.1-2.1h9.3c1.2,0,2.1,1,2.1,2.1v12
			C634.9,211.2,633.9,212.1,632.7,212.1z"/>
		<path class="st6" d="M638,171.2h-40.2c-0.8,0-1.5-0.4-1.9-1l-20.9-30.9c-0.4-0.7,0-1.6,0.8-1.6h40.2c1.5,0,2.9,0.8,3.8,2l19.6,29
			C640,169.8,639.3,171.2,638,171.2z"/>
		<g>
			<path class="st4" d="M611.1,142.8h-7.8c-0.6,0-1-0.5-1-1V131h9.9v10.9C612.1,142.4,611.6,142.8,611.1,142.8z"/>
			<path class="st1" d="M611,142.8h-3.9V131h4.9v10.8C612.1,142.4,611.6,142.8,611,142.8z"/>
			<path class="st4" d="M613.1,131h-11.9c-0.4,0-0.8-0.4-0.8-0.8v-1.5c0-0.4,0.4-0.8,0.8-0.8h11.9c0.4,0,0.8,0.4,0.8,0.8v1.5
				C613.9,130.6,613.5,131,613.1,131z"/>
			<path class="st1" d="M613.1,131h-5.9v-3h5.9c0.5,0,0.8,0.4,0.8,0.8v1.4C613.9,130.6,613.5,131,613.1,131z"/>
		</g>
	</g>
	<g class="st3">
		<path class="st7" d="M762.5,148.3l24.8,34.7c0.4,0.5,0.6,1.1,0.6,1.8v46.9c0,1.7-1.4,3.1-3.1,3.1H735v-51l23.8-35.4
			C759.7,147,761.6,147,762.5,148.3z"/>
		<path class="st5" d="M750,234.8h22.6v-35.6c0-2.5-2-4.4-4.4-4.4h-13.7c-2.5,0-4.4,2-4.4,4.4V234.8z"/>
		<path class="st4" d="M687.5,234.8h47.6v-50.9h-47.6c-1.5,0-2.8,1.2-2.8,2.8v45.4C684.7,233.6,686,234.8,687.5,234.8z"/>
		<path class="st5" d="M714.9,221.1h9.3c1.2,0,2.1-1,2.1-2.1v-19.5c0-1.2-1-2.1-2.1-2.1h-9.3c-1.2,0-2.1,1-2.1,2.1V219
			C712.7,220.2,713.7,221.1,714.9,221.1z"/>
		<path class="st5" d="M693,221.1h9.3c1.2,0,2.1-1,2.1-2.1v-19.5c0-1.2-1-2.1-2.1-2.1H693c-1.2,0-2.1,1-2.1,2.1V219
			C690.9,220.2,691.9,221.1,693,221.1z"/>
		<path class="st8" d="M686.6,186.1h47.3c0.9,0,1.8-0.5,2.3-1.2l24.6-36.4c0.5-0.8,0-1.8-1-1.8h-47.3c-1.8,0-3.4,0.9-4.4,2.4
			l-23.1,34.1C684.2,184.4,685.1,186.1,686.6,186.1z"/>
		<g>
			<path class="st4" d="M721.5,156.4h7.8c0.6,0,1-0.5,1-1v-10.9h-9.9v10.9C720.5,156,721,156.4,721.5,156.4z"/>
			<path class="st1" d="M721.6,156.4h3.9v-11.9h-4.9v10.8C720.5,156,721,156.4,721.6,156.4z"/>
			<path class="st4" d="M719.5,144.6h11.9c0.4,0,0.8-0.4,0.8-0.8v-1.5c0-0.4-0.4-0.8-0.8-0.8h-11.9c-0.4,0-0.8,0.4-0.8,0.8v1.5
				C718.7,144.2,719.1,144.6,719.5,144.6z"/>
			<path class="st1" d="M719.5,144.6h5.9v-3h-5.9c-0.5,0-0.8,0.4-0.8,0.8v1.4C718.7,144.2,719.1,144.6,719.5,144.6z"/>
		</g>
	</g>
	<g class="st3">
		<path class="st4" d="M870.6,148.3L845.8,183c-0.4,0.5-0.6,1.1-0.6,1.8v46.9c0,1.7,1.4,3.1,3.1,3.1h49.9v-51l-23.8-35.4
			C873.5,147,871.6,147,870.6,148.3z"/>
		<path class="st5" d="M883.2,234.8h-22.6v-35.6c0-2.5,2-4.4,4.4-4.4h13.7c2.5,0,4.4,2,4.4,4.4V234.8z"/>
		<path class="st7" d="M945.7,234.8h-47.6v-50.9h47.6c1.5,0,2.8,1.2,2.8,2.8v45.4C948.5,233.6,947.2,234.8,945.7,234.8z"/>
		<path class="st5" d="M918.3,221.1H909c-1.2,0-2.1-1-2.1-2.1v-19.5c0-1.2,1-2.1,2.1-2.1h9.3c1.2,0,2.1,1,2.1,2.1V219
			C920.5,220.2,919.5,221.1,918.3,221.1z"/>
		<path class="st5" d="M940.1,221.1h-9.3c-1.2,0-2.1-1-2.1-2.1v-19.5c0-1.2,1-2.1,2.1-2.1h9.3c1.2,0,2.1,1,2.1,2.1V219
			C942.3,220.2,941.3,221.1,940.1,221.1z"/>
		<path class="st6" d="M946.6,186.1h-47.3c-0.9,0-1.8-0.5-2.3-1.2l-24.6-36.4c-0.5-0.8,0-1.8,1-1.8h47.3c1.8,0,3.4,0.9,4.4,2.4
			l23.1,34.1C948.9,184.4,948.1,186.1,946.6,186.1z"/>
		<g>
			<path class="st4" d="M911.7,156.4h-7.8c-0.6,0-1-0.5-1-1v-10.9h9.9v10.9C912.7,156,912.2,156.4,911.7,156.4z"/>
			<path class="st1" d="M911.6,156.4h-3.9v-11.9h4.9v10.8C912.7,156,912.2,156.4,911.6,156.4z"/>
			<path class="st4" d="M913.7,144.6h-11.9c-0.4,0-0.8-0.4-0.8-0.8v-1.5c0-0.4,0.4-0.8,0.8-0.8h11.9c0.4,0,0.8,0.4,0.8,0.8v1.5
				C914.5,144.2,914.1,144.6,913.7,144.6z"/>
			<path class="st1" d="M913.7,144.6h-5.9v-3h5.9c0.5,0,0.8,0.4,0.8,0.8v1.4C914.5,144.2,914.1,144.6,913.7,144.6z"/>
		</g>
	</g>
	<g class="st3">
		<path class="st4" d="M785,173.6V269c0,1.7,1.4,3.1,3.1,3.1h41.8V171.5l-19.1-30.7c-1.5-2.5-5.1-2.5-6.6,0l-18,28.9
			C785.4,170.9,785,172.2,785,173.6z"/>
		<path class="st1" d="M866.4,272h-36.6V171.6h36.6c1.5,0,2.8,1.2,2.8,2.8v94.9C869.2,270.8,868,272,866.4,272z"/>
		<path class="st5" d="M845.4,248.3h-9.3c-1.2,0-2.1-1-2.1-2.1v-12c0-1.2,1-2.1,2.1-2.1h9.3c1.2,0,2.1,1,2.1,2.1v12
			C847.5,247.3,846.6,248.3,845.4,248.3z"/>
		<path class="st5" d="M812.1,245.9h-9.3c-1.2,0-2.1-1-2.1-2.1v-12c0-1.2,1-2.1,2.1-2.1h9.3c1.2,0,2.1,1,2.1,2.1v12
			C814.2,245,813.3,245.9,812.1,245.9z"/>
		<path class="st5" d="M863.9,248.3h-9.3c-1.2,0-2.1-1-2.1-2.1v-12c0-1.2,1-2.1,2.1-2.1h9.3c1.2,0,2.1,1,2.1,2.1v12
			C866.1,247.3,865.1,248.3,863.9,248.3z"/>
		<path class="st5" d="M845.4,213.5h-9.3c-1.2,0-2.1-1-2.1-2.1v-12c0-1.2,1-2.1,2.1-2.1h9.3c1.2,0,2.1,1,2.1,2.1v12
			C847.5,212.5,846.6,213.5,845.4,213.5z"/>
		<path class="st5" d="M812.1,213.5h-9.3c-1.2,0-2.1-1-2.1-2.1v-12c0-1.2,1-2.1,2.1-2.1h9.3c1.2,0,2.1,1,2.1,2.1v12
			C814.2,212.5,813.3,213.5,812.1,213.5z"/>
		<path class="st5" d="M863.9,213.5h-9.3c-1.2,0-2.1-1-2.1-2.1v-12c0-1.2,1-2.1,2.1-2.1h9.3c1.2,0,2.1,1,2.1,2.1v12
			C866.1,212.5,865.1,213.5,863.9,213.5z"/>
		<path class="st8" d="M869.2,172.6H829c-0.8,0-1.5-0.4-1.9-1l-20.9-30.9c-0.4-0.7,0-1.6,0.8-1.6h40.2c1.5,0,2.9,0.8,3.8,2l19.6,29
			C871.2,171.1,870.4,172.6,869.2,172.6z"/>
		<g>
			<path class="st4" d="M842.3,144.2h-7.8c-0.6,0-1-0.5-1-1v-10.9h9.9v10.9C843.3,143.7,842.8,144.2,842.3,144.2z"/>
			<path class="st1" d="M842.2,144.2h-3.9v-11.9h4.9v10.8C843.3,143.7,842.8,144.2,842.2,144.2z"/>
			<path class="st4" d="M844.3,132.3h-11.9c-0.4,0-0.8-0.4-0.8-0.8V130c0-0.4,0.4-0.8,0.8-0.8h11.9c0.4,0,0.8,0.4,0.8,0.8v1.5
				C845.1,131.9,844.7,132.3,844.3,132.3z"/>
			<path class="st1" d="M844.3,132.3h-5.9v-3h5.9c0.5,0,0.8,0.4,0.8,0.8v1.4C845.1,131.9,844.7,132.3,844.3,132.3z"/>
		</g>
	</g>
	<g class="st3">
		<path class="st4" d="M863.9,193L839,227.7c-0.4,0.5-0.6,1.1-0.6,1.8v46.9c0,1.7,1.4,3.1,3.1,3.1h49.9v-51L867.6,193
			C866.7,191.7,864.8,191.7,863.9,193z"/>
		<path class="st5" d="M876.5,279.5h-22.6v-35.6c0-2.5,2-4.4,4.4-4.4H872c2.5,0,4.4,2,4.4,4.4V279.5z"/>
		<path class="st1" d="M938.9,279.5h-47.6v-50.9h47.6c1.5,0,2.8,1.2,2.8,2.8v45.4C941.7,278.2,940.5,279.5,938.9,279.5z"/>
		<path class="st5" d="M911.6,265.8h-9.3c-1.2,0-2.1-1-2.1-2.1v-19.5c0-1.2,1-2.1,2.1-2.1h9.3c1.2,0,2.1,1,2.1,2.1v19.5
			C913.7,264.8,912.7,265.8,911.6,265.8z"/>
		<path class="st5" d="M933.4,265.8h-9.3c-1.2,0-2.1-1-2.1-2.1v-19.5c0-1.2,1-2.1,2.1-2.1h9.3c1.2,0,2.1,1,2.1,2.1v19.5
			C935.5,264.8,934.6,265.8,933.4,265.8z"/>
		<path class="st8" d="M939.8,230.8h-47.3c-0.9,0-1.8-0.5-2.3-1.2l-24.6-36.4c-0.5-0.8,0-1.8,1-1.8h47.3c1.8,0,3.4,0.9,4.4,2.4
			l23.1,34.1C942.2,229,941.3,230.8,939.8,230.8z"/>
		<g>
			<path class="st4" d="M904.9,201.1h-7.8c-0.6,0-1-0.5-1-1v-10.9h9.9v10.9C905.9,200.6,905.5,201.1,904.9,201.1z"/>
			<path class="st1" d="M904.9,201.1H901v-11.9h4.9V200C905.9,200.6,905.4,201.1,904.9,201.1z"/>
			<path class="st4" d="M906.9,189.2H895c-0.4,0-0.8-0.4-0.8-0.8V187c0-0.4,0.4-0.8,0.8-0.8h11.9c0.4,0,0.8,0.4,0.8,0.8v1.5
				C907.7,188.9,907.4,189.2,906.9,189.2z"/>
			<path class="st1" d="M906.9,189.2H901v-3h5.9c0.5,0,0.8,0.4,0.8,0.8v1.4C907.7,188.8,907.4,189.2,906.9,189.2z"/>
		</g>
	</g>
	<g class="st3">
		<path class="st4" d="M712.9,192.1l-24.8,34.7c-0.4,0.5-0.6,1.1-0.6,1.8v46.9c0,1.7,1.4,3.1,3.1,3.1h49.9v-51l-23.8-35.4
			C715.8,190.8,713.9,190.8,712.9,192.1z"/>
		<path class="st5" d="M725.5,278.6h-22.6V243c0-2.5,2-4.4,4.4-4.4h13.7c2.5,0,4.4,2,4.4,4.4V278.6z"/>
		<path class="st7" d="M788,278.6h-47.6v-50.9H788c1.5,0,2.8,1.2,2.8,2.8v45.4C790.8,277.4,789.5,278.6,788,278.6z"/>
		<path class="st5" d="M760.6,264.9h-9.3c-1.2,0-2.1-1-2.1-2.1v-19.5c0-1.2,1-2.1,2.1-2.1h9.3c1.2,0,2.1,1,2.1,2.1v19.5
			C762.8,263.9,761.8,264.9,760.6,264.9z"/>
		<path class="st5" d="M782.4,264.9h-9.3c-1.2,0-2.1-1-2.1-2.1v-19.5c0-1.2,1-2.1,2.1-2.1h9.3c1.2,0,2.1,1,2.1,2.1v19.5
			C784.6,263.9,783.6,264.9,782.4,264.9z"/>
		<path class="st6" d="M788.9,229.9h-47.3c-0.9,0-1.8-0.5-2.3-1.2l-24.6-36.4c-0.5-0.8,0-1.8,1-1.8h47.3c1.8,0,3.4,0.9,4.4,2.4
			l23.1,34.1C791.2,228.2,790.4,229.9,788.9,229.9z"/>
		<g>
			<path class="st4" d="M754,200.2h-7.8c-0.6,0-1-0.5-1-1v-10.9h9.9v10.9C755,199.8,754.5,200.2,754,200.2z"/>
			<path class="st1" d="M753.9,200.2H750v-11.9h4.9v10.8C755,199.7,754.5,200.2,753.9,200.2z"/>
			<path class="st4" d="M756,188.3h-11.9c-0.4,0-0.8-0.4-0.8-0.8v-1.5c0-0.4,0.4-0.8,0.8-0.8H756c0.4,0,0.8,0.4,0.8,0.8v1.5
				C756.8,188,756.4,188.3,756,188.3z"/>
			<path class="st1" d="M756,188.3H750v-3h5.9c0.5,0,0.8,0.4,0.8,0.8v1.4C756.8,188,756.4,188.3,756,188.3z"/>
		</g>
	</g>
	<g class="st3">
		<path class="st4" d="M609.5,192.1v95.4c0,1.7,1.4,3.1,3.1,3.1h41.8V190l-19.1-30.7c-1.5-2.5-5.1-2.5-6.6,0l-18,28.9
			C609.9,189.4,609.5,190.7,609.5,192.1z"/>
		<path class="st1" d="M691,290.5h-36.6V190.1H691c1.5,0,2.8,1.2,2.8,2.8v94.9C693.7,289.3,692.5,290.5,691,290.5z"/>
		<path class="st5" d="M669.9,266.8h-9.3c-1.2,0-2.1-1-2.1-2.1v-12c0-1.2,1-2.1,2.1-2.1h9.3c1.2,0,2.1,1,2.1,2.1v12
			C672,265.8,671.1,266.8,669.9,266.8z"/>
		<path class="st5" d="M636.6,264.4h-9.3c-1.2,0-2.1-1-2.1-2.1v-12c0-1.2,1-2.1,2.1-2.1h9.3c1.2,0,2.1,1,2.1,2.1v12
			C638.8,263.5,637.8,264.4,636.6,264.4z"/>
		<path class="st5" d="M688.4,266.8h-9.3c-1.2,0-2.1-1-2.1-2.1v-12c0-1.2,1-2.1,2.1-2.1h9.3c1.2,0,2.1,1,2.1,2.1v12
			C690.6,265.8,689.6,266.8,688.4,266.8z"/>
		<path class="st5" d="M669.9,232h-9.3c-1.2,0-2.1-1-2.1-2.1v-12c0-1.2,1-2.1,2.1-2.1h9.3c1.2,0,2.1,1,2.1,2.1v12
			C672,231,671.1,232,669.9,232z"/>
		<path class="st5" d="M636.6,232h-9.3c-1.2,0-2.1-1-2.1-2.1v-12c0-1.2,1-2.1,2.1-2.1h9.3c1.2,0,2.1,1,2.1,2.1v12
			C638.8,231,637.8,232,636.6,232z"/>
		<path class="st5" d="M688.4,232h-9.3c-1.2,0-2.1-1-2.1-2.1v-12c0-1.2,1-2.1,2.1-2.1h9.3c1.2,0,2.1,1,2.1,2.1v12
			C690.6,231,689.6,232,688.4,232z"/>
		<path class="st6" d="M693.7,191.1h-40.2c-0.8,0-1.5-0.4-1.9-1l-20.9-30.9c-0.4-0.7,0-1.6,0.8-1.6h40.2c1.5,0,2.9,0.8,3.8,2
			l19.6,29C695.7,189.6,695,191.1,693.7,191.1z"/>
		<g>
			<path class="st4" d="M666.8,162.7h-7.8c-0.6,0-1-0.5-1-1v-10.9h9.9v10.9C667.8,162.2,667.3,162.7,666.8,162.7z"/>
			<path class="st1" d="M666.8,162.7h-3.9v-11.9h4.9v10.8C667.8,162.2,667.3,162.7,666.8,162.7z"/>
			<path class="st4" d="M668.8,150.8h-11.9c-0.4,0-0.8-0.4-0.8-0.8v-1.5c0-0.4,0.4-0.8,0.8-0.8h11.9c0.4,0,0.8,0.4,0.8,0.8v1.5
				C669.6,150.4,669.3,150.8,668.8,150.8z"/>
			<path class="st1" d="M668.8,150.8h-5.9v-3h5.9c0.5,0,0.8,0.4,0.8,0.8v1.4C669.6,150.4,669.2,150.8,668.8,150.8z"/>
		</g>
	</g>
	<g class="st3">
		<path class="st9" d="M542.8,199.8l24.8,34.7c0.4,0.5,0.6,1.1,0.6,1.8v46.9c0,1.7-1.4,3.1-3.1,3.1h-49.9v-51l23.8-35.4
			C539.9,198.5,541.9,198.5,542.8,199.8z"/>
		<path class="st5" d="M530.2,286.3h22.6v-35.6c0-2.5-2-4.4-4.4-4.4h-13.7c-2.5,0-4.4,2-4.4,4.4V286.3z"/>
		<path class="st1" d="M467.7,286.3h47.6v-50.9h-47.6c-1.5,0-2.8,1.2-2.8,2.8v45.4C465,285,466.2,286.3,467.7,286.3z"/>
		<path class="st5" d="M495.1,272.6h9.3c1.2,0,2.1-1,2.1-2.1v-19.5c0-1.2-1-2.1-2.1-2.1h-9.3c-1.2,0-2.1,1-2.1,2.1v19.5
			C493,271.6,493.9,272.6,495.1,272.6z"/>
		<path class="st5" d="M473.3,272.6h9.3c1.2,0,2.1-1,2.1-2.1v-19.5c0-1.2-1-2.1-2.1-2.1h-9.3c-1.2,0-2.1,1-2.1,2.1v19.5
			C471.1,271.6,472.1,272.6,473.3,272.6z"/>
		<path class="st6" d="M466.9,237.5h47.3c0.9,0,1.8-0.5,2.3-1.2l24.6-36.4c0.5-0.8,0-1.8-1-1.8h-47.3c-1.8,0-3.4,0.9-4.4,2.4
			l-23.1,34.1C464.5,235.8,465.4,237.5,466.9,237.5z"/>
		<g>
			<path class="st4" d="M501.8,207.9h7.8c0.6,0,1-0.5,1-1V196h-9.9v10.9C500.8,207.4,501.2,207.9,501.8,207.9z"/>
			<path class="st1" d="M501.8,207.9h3.9V196h-4.9v10.8C500.8,207.4,501.2,207.9,501.8,207.9z"/>
			<path class="st4" d="M499.7,196h11.9c0.4,0,0.8-0.4,0.8-0.8v-1.5c0-0.4-0.4-0.8-0.8-0.8h-11.9c-0.4,0-0.8,0.4-0.8,0.8v1.5
				C499,195.7,499.3,196,499.7,196z"/>
			<path class="st1" d="M499.8,196h5.9v-3h-5.9c-0.5,0-0.8,0.4-0.8,0.8v1.4C499,195.6,499.3,196,499.8,196z"/>
		</g>
	</g>
	<g class="st3">
		<path class="st7" d="M1022.7,189.4v95.4c0,1.7-1.4,3.1-3.1,3.1h-41.8V187.3l19.1-30.7c1.5-2.5,5.1-2.5,6.6,0l18,28.9
			C1022.4,186.7,1022.7,188,1022.7,189.4z"/>
		<path class="st4" d="M941.3,287.8h36.6V187.4h-36.6c-1.5,0-2.8,1.2-2.8,2.8v94.9C938.6,286.6,939.8,287.8,941.3,287.8z"/>
		<path class="st5" d="M962.4,264.1h9.3c1.2,0,2.1-1,2.1-2.1v-12c0-1.2-1-2.1-2.1-2.1h-9.3c-1.2,0-2.1,1-2.1,2.1v12
			C960.2,263.1,961.2,264.1,962.4,264.1z"/>
		<path class="st5" d="M995.7,261.7h9.3c1.2,0,2.1-1,2.1-2.1v-12c0-1.2-1-2.1-2.1-2.1h-9.3c-1.2,0-2.1,1-2.1,2.1v12
			C993.5,260.8,994.5,261.7,995.7,261.7z"/>
		<path class="st5" d="M943.8,264.1h9.3c1.2,0,2.1-1,2.1-2.1v-12c0-1.2-1-2.1-2.1-2.1h-9.3c-1.2,0-2.1,1-2.1,2.1v12
			C941.7,263.1,942.7,264.1,943.8,264.1z"/>
		<path class="st5" d="M962.4,229.3h9.3c1.2,0,2.1-1,2.1-2.1v-12c0-1.2-1-2.1-2.1-2.1h-9.3c-1.2,0-2.1,1-2.1,2.1v12
			C960.2,228.3,961.2,229.3,962.4,229.3z"/>
		<path class="st5" d="M995.7,229.3h9.3c1.2,0,2.1-1,2.1-2.1v-12c0-1.2-1-2.1-2.1-2.1h-9.3c-1.2,0-2.1,1-2.1,2.1v12
			C993.5,228.3,994.5,229.3,995.7,229.3z"/>
		<path class="st5" d="M943.8,229.3h9.3c1.2,0,2.1-1,2.1-2.1v-12c0-1.2-1-2.1-2.1-2.1h-9.3c-1.2,0-2.1,1-2.1,2.1v12
			C941.7,228.3,942.7,229.3,943.8,229.3z"/>
		<path class="st6" d="M938.6,188.4h40.2c0.8,0,1.5-0.4,1.9-1l20.9-30.9c0.4-0.7,0-1.6-0.8-1.6h-40.2c-1.5,0-2.9,0.8-3.8,2l-19.6,29
			C936.6,186.9,937.3,188.4,938.6,188.4z"/>
		<g>
			<path class="st4" d="M965.5,160h7.8c0.6,0,1-0.5,1-1v-10.9h-9.9v10.9C964.5,159.5,964.9,160,965.5,160z"/>
			<path class="st1" d="M965.5,160h3.9v-11.9h-4.9v10.8C964.5,159.5,965,160,965.5,160z"/>
			<path class="st4" d="M963.5,148.1h11.9c0.4,0,0.8-0.4,0.8-0.8v-1.5c0-0.4-0.4-0.8-0.8-0.8h-11.9c-0.4,0-0.8,0.4-0.8,0.8v1.5
				C962.7,147.7,963,148.1,963.5,148.1z"/>
			<path class="st1" d="M963.5,148.1h5.9v-3h-5.9c-0.5,0-0.8,0.4-0.8,0.8v1.4C962.7,147.7,963.1,148.1,963.5,148.1z"/>
		</g>
	</g>
</g>
<g id="houserow">
</g>
<g id="Layer_13">
</g>
<g id="Layer_8">
</g>
<g id="Layer_2">
</g>
<g id="Layer_12">
</g>
<g id="Layer_14">
	<g>
		<path class="st7" d="M472,167.4v95.4c0,1.7,1.4,3.1,3.1,3.1h41.8V165.3l-19.1-30.7c-1.5-2.5-5.1-2.5-6.6,0l-18,28.9
			C472.4,164.7,472,166,472,167.4z"/>
		<path class="st4" d="M553.4,265.8h-36.6V165.4h36.6c1.5,0,2.8,1.2,2.8,2.8v94.9C556.2,264.6,555,265.8,553.4,265.8z"/>
		<path class="st5" d="M532.4,242.1H523c-1.2,0-2.1-1-2.1-2.1v-12c0-1.2,1-2.1,2.1-2.1h9.3c1.2,0,2.1,1,2.1,2.1v12
			C534.5,241.1,533.5,242.1,532.4,242.1z"/>
		<path class="st0" d="M499.1,239.7h-9.3c-1.2,0-2.1-1-2.1-2.1v-12c0-1.2,1-2.1,2.1-2.1h9.3c1.2,0,2.1,1,2.1,2.1v12
			C501.2,238.8,500.3,239.7,499.1,239.7z"/>
		<path class="st5" d="M550.9,242.1h-9.3c-1.2,0-2.1-1-2.1-2.1v-12c0-1.2,1-2.1,2.1-2.1h9.3c1.2,0,2.1,1,2.1,2.1v12
			C553,241.1,552.1,242.1,550.9,242.1z"/>
		<path class="st5" d="M532.4,207.3H523c-1.2,0-2.1-1-2.1-2.1v-12c0-1.2,1-2.1,2.1-2.1h9.3c1.2,0,2.1,1,2.1,2.1v12
			C534.5,206.3,533.5,207.3,532.4,207.3z"/>
		<path class="st0" d="M499.1,207.3h-9.3c-1.2,0-2.1-1-2.1-2.1v-12c0-1.2,1-2.1,2.1-2.1h9.3c1.2,0,2.1,1,2.1,2.1v12
			C501.2,206.3,500.3,207.3,499.1,207.3z"/>
		<path class="st5" d="M550.9,207.3h-9.3c-1.2,0-2.1-1-2.1-2.1v-12c0-1.2,1-2.1,2.1-2.1h9.3c1.2,0,2.1,1,2.1,2.1v12
			C553,206.3,552.1,207.3,550.9,207.3z"/>
		<path class="st8" d="M556.1,166.4h-40.2c-0.8,0-1.5-0.4-1.9-1l-20.9-30.9c-0.4-0.7,0-1.6,0.8-1.6h40.2c1.5,0,2.9,0.8,3.8,2
			l19.6,29C558.2,164.9,557.4,166.4,556.1,166.4z"/>
		<path class="st4" d="M529.2,138h-7.8c-0.6,0-1-0.5-1-1v-10.9h9.9v10.9C530.3,137.5,529.8,138,529.2,138z"/>
		<path class="st7" d="M529.2,138h-3.9v-11.9h4.9v10.8C530.3,137.5,529.8,138,529.2,138z"/>
		<path class="st4" d="M531.3,126.1h-11.9c-0.4,0-0.8-0.4-0.8-0.8v-1.5c0-0.4,0.4-0.8,0.8-0.8h11.9c0.4,0,0.8,0.4,0.8,0.8v1.5
			C532.1,125.7,531.7,126.1,531.3,126.1z"/>
		<path class="st7" d="M531.2,126.1h-5.9v-3h5.9c0.5,0,0.8,0.4,0.8,0.8v1.4C532.1,125.7,531.7,126.1,531.2,126.1z"/>
		<g>
			<path class="st17" d="M544.8,174.3L544.8,174.3c0.8,0,1.4-0.6,1.4-1.4v-6.6h-2.8v6.6C543.4,173.7,544,174.3,544.8,174.3z"/>
			<path class="st17" d="M535.3,178.4L535.3,178.4c0.6,0.6,1.4,0.6,2,0l8.5-8.5c0.6-0.6,0.6-1.4,0-2v0c-0.6-0.6-1.4-0.6-2,0
				l-8.5,8.5C534.8,177,534.8,177.8,535.3,178.4z"/>
			<path class="st17" d="M550.7,184.8L550.7,184.8c0.6-0.6,0.6-1.4,0-2l-9.4-9.4c-0.6-0.6-1.4-0.6-2,0l0,0c-0.6,0.6-0.6,1.4,0,2
				l9.4,9.4C549.2,185.3,550.1,185.3,550.7,184.8z"/>
			<path class="st17" d="M535.3,189.9L535.3,189.9c0.6,0.6,1.4,0.6,2,0l8.5-8.5c0.6-0.6,0.6-1.4,0-2l0,0c-0.6-0.6-1.4-0.6-2,0
				l-8.5,8.5C534.8,188.5,534.8,189.4,535.3,189.9z"/>
		</g>
	</g>
	<g>
		<g>
			<path class="st7" d="M172.5,283.6h-50.1c-2.9,0-5.3-3.8-5.3-8.6V125.4c0-2.7,0.8-4.1,2.1-5.8l20.6-25.8c1.8-2.2,4.2-2.4,6.1-0.3
				l26.6,28.7V283.6z"/>
			<path class="st4" d="M220.6,283.6h-48V122.2h50.6c2.7,0,4.8,2.2,4.8,4.8v149.2C227.9,280.3,224.6,283.6,220.6,283.6z"/>
			<g>
				<path class="st5" d="M186.7,156.4h-5.5c-1,0-1.8-0.8-1.8-1.8V141c0-1,0.8-1.8,1.8-1.8h5.5c1,0,1.8,0.8,1.8,1.8v13.7
					C188.5,155.6,187.7,156.4,186.7,156.4z"/>
			</g>
			<g>
				<path class="st5" d="M186.7,192.9h-5.5c-1,0-1.8-0.8-1.8-1.8v-13.7c0-1,0.8-1.8,1.8-1.8h5.5c1,0,1.8,0.8,1.8,1.8v13.7
					C188.5,192.1,187.7,192.9,186.7,192.9z"/>
			</g>
			<g>
				<path class="st5" d="M202.9,156.4h-5.5c-1,0-1.8-0.8-1.8-1.8V141c0-1,0.8-1.8,1.8-1.8h5.5c1,0,1.8,0.8,1.8,1.8v13.7
					C204.6,155.6,203.9,156.4,202.9,156.4z"/>
			</g>
			<g>
				<path class="st5" d="M219.3,156.4h-5.5c-1,0-1.8-0.8-1.8-1.8V141c0-1,0.8-1.8,1.8-1.8h5.5c1,0,1.8,0.8,1.8,1.8v13.7
					C221,155.6,220.2,156.4,219.3,156.4z"/>
			</g>
			<g>
				<path class="st5" d="M202.9,192.9h-5.5c-1,0-1.8-0.8-1.8-1.8v-13.7c0-1,0.8-1.8,1.8-1.8h5.5c1,0,1.8,0.8,1.8,1.8v13.7
					C204.6,192.1,203.9,192.9,202.9,192.9z"/>
			</g>
			<g>
				<path class="st5" d="M219.3,192.9h-5.5c-1,0-1.8-0.8-1.8-1.8v-13.7c0-1,0.8-1.8,1.8-1.8h5.5c1,0,1.8,0.8,1.8,1.8v13.7
					C221,192.1,220.2,192.9,219.3,192.9z"/>
			</g>
			<g>
				<path class="st5" d="M186.7,227.7h-5.5c-1,0-1.8-0.8-1.8-1.8v-13.7c0-1,0.8-1.8,1.8-1.8h5.5c1,0,1.8,0.8,1.8,1.8V226
					C188.5,227,187.7,227.7,186.7,227.7z"/>
			</g>
			<g>
				<path class="st5" d="M186.7,264.2h-5.5c-1,0-1.8-0.8-1.8-1.8v-13.7c0-1,0.8-1.8,1.8-1.8h5.5c1,0,1.8,0.8,1.8,1.8v13.7
					C188.5,263.4,187.7,264.2,186.7,264.2z"/>
			</g>
			<g>
				<path class="st5" d="M202.9,227.7h-5.5c-1,0-1.8-0.8-1.8-1.8v-13.7c0-1,0.8-1.8,1.8-1.8h5.5c1,0,1.8,0.8,1.8,1.8V226
					C204.6,226.9,203.9,227.7,202.9,227.7z"/>
			</g>
			<g>
				<path class="st5" d="M219.3,227.7h-5.5c-1,0-1.8-0.8-1.8-1.8v-13.7c0-1,0.8-1.8,1.8-1.8h5.5c1,0,1.8,0.8,1.8,1.8V226
					C221,227,220.2,227.7,219.3,227.7z"/>
			</g>
			<g>
				<path class="st5" d="M202.9,264.2h-5.5c-1,0-1.8-0.8-1.8-1.8v-13.7c0-1,0.8-1.8,1.8-1.8h5.5c1,0,1.8,0.8,1.8,1.8v13.7
					C204.6,263.4,203.9,264.2,202.9,264.2z"/>
			</g>
			<g>
				<path class="st5" d="M219.3,264.2h-5.5c-1,0-1.8-0.8-1.8-1.8v-13.7c0-1,0.8-1.8,1.8-1.8h5.5c1,0,1.8,0.8,1.8,1.8v13.7
					C221,263.4,220.2,264.2,219.3,264.2z"/>
			</g>
			<g>
				<path class="st0" d="M131.3,156.4h-5.5c-1,0-1.8-0.8-1.8-1.8V141c0-1,0.8-1.8,1.8-1.8h5.5c1,0,1.8,0.8,1.8,1.8v13.7
					C133.1,155.6,132.3,156.4,131.3,156.4z"/>
			</g>
			<g>
				<path class="st0" d="M131.3,192.9h-5.5c-1,0-1.8-0.8-1.8-1.8v-13.7c0-1,0.8-1.8,1.8-1.8h5.5c1,0,1.8,0.8,1.8,1.8v13.7
					C133.1,192.1,132.3,192.9,131.3,192.9z"/>
			</g>
			<g>
				<path class="st0" d="M147.5,156.4H142c-1,0-1.8-0.8-1.8-1.8V141c0-1,0.8-1.8,1.8-1.8h5.5c1,0,1.8,0.8,1.8,1.8v13.7
					C149.3,155.6,148.5,156.4,147.5,156.4z"/>
			</g>
			<g>
				<path class="st0" d="M163.9,156.4h-5.5c-1,0-1.8-0.8-1.8-1.8V141c0-1,0.8-1.8,1.8-1.8h5.5c1,0,1.8,0.8,1.8,1.8v13.7
					C165.6,155.6,164.8,156.4,163.9,156.4z"/>
			</g>
			<g>
				<path class="st0" d="M147.5,192.9H142c-1,0-1.8-0.8-1.8-1.8v-13.7c0-1,0.8-1.8,1.8-1.8h5.5c1,0,1.8,0.8,1.8,1.8v13.7
					C149.3,192.1,148.5,192.9,147.5,192.9z"/>
			</g>
			<g>
				<path class="st0" d="M163.9,192.9h-5.5c-1,0-1.8-0.8-1.8-1.8v-13.7c0-1,0.8-1.8,1.8-1.8h5.5c1,0,1.8,0.8,1.8,1.8v13.7
					C165.6,192.1,164.8,192.9,163.9,192.9z"/>
			</g>
			<g>
				<path class="st0" d="M131.3,227.7h-5.5c-1,0-1.8-0.8-1.8-1.8v-13.7c0-1,0.8-1.8,1.8-1.8h5.5c1,0,1.8,0.8,1.8,1.8V226
					C133.1,227,132.3,227.7,131.3,227.7z"/>
			</g>
			<g>
				<path class="st0" d="M131.3,264.2h-5.5c-1,0-1.8-0.8-1.8-1.8v-13.7c0-1,0.8-1.8,1.8-1.8h5.5c1,0,1.8,0.8,1.8,1.8v13.7
					C133.1,263.4,132.3,264.2,131.3,264.2z"/>
			</g>
			<g>
				<path class="st0" d="M147.5,227.7H142c-1,0-1.8-0.8-1.8-1.8v-13.7c0-1,0.8-1.8,1.8-1.8h5.5c1,0,1.8,0.8,1.8,1.8V226
					C149.3,226.9,148.5,227.7,147.5,227.7z"/>
			</g>
			<g>
				<path class="st0" d="M163.9,227.7h-5.5c-1,0-1.8-0.8-1.8-1.8v-13.7c0-1,0.8-1.8,1.8-1.8h5.5c1,0,1.8,0.8,1.8,1.8V226
					C165.6,227,164.8,227.7,163.9,227.7z"/>
			</g>
			<g>
				<path class="st0" d="M147.5,264.2H142c-1,0-1.8-0.8-1.8-1.8v-13.7c0-1,0.8-1.8,1.8-1.8h5.5c1,0,1.8,0.8,1.8,1.8v13.7
					C149.3,263.4,148.5,264.2,147.5,264.2z"/>
			</g>
			<g>
				<path class="st0" d="M163.9,264.2h-5.5c-1,0-1.8-0.8-1.8-1.8v-13.7c0-1,0.8-1.8,1.8-1.8h5.5c1,0,1.8,0.8,1.8,1.8v13.7
					C165.6,263.4,164.8,264.2,163.9,264.2z"/>
			</g>
			<path class="st8" d="M222.6,125.3l-46.9,0.1c-1.5,0-2.9-0.5-3.9-1.3L140,96.2c-2.8-2.4-0.5-6.2,3.9-6.2h44.4
				c1.5,0,2.9,0.5,3.9,1.3l34.4,27.8C229.3,121.6,226.9,125.3,222.6,125.3z"/>
			<path class="st18" d="M172.5,283.6h-51.3c-2.3,0-4.1-1.8-4.1-4.1v-9.8h55.4V283.6z"/>
			<path class="st1" d="M172.5,283.6H224c2.2,0,4-1.8,4-4v-9.9h-55.4V283.6z"/>
			<path class="st1" d="M191.7,104.5h-16.9c-0.6,0-1-0.5-1-1V81.7h18.9v21.8C192.7,104.1,192.2,104.5,191.7,104.5z"/>
			<path class="st4" d="M191.7,104.5h-8.4V81.7h9.5v21.7C192.7,104,192.2,104.5,191.7,104.5z"/>
			<path class="st1" d="M195.4,84.6h-24.3c-0.4,0-0.8-0.4-0.8-0.8v-4.2c0-0.4,0.4-0.8,0.8-0.8h24.3c0.4,0,0.8,0.4,0.8,0.8v4.2
				C196.2,84.3,195.9,84.6,195.4,84.6z"/>
			<path class="st4" d="M195.4,84.6h-12.1v-5.8h12.1c0.5,0,0.8,0.4,0.8,0.8v4.2C196.2,84.3,195.8,84.6,195.4,84.6z"/>
		</g>
		<path class="st19" d="M164.8,106.7L164.8,106.7c-0.8,0-1.4-0.6-1.4-1.4V90c0.9,0,2.1,0,2.8,0v15.3
			C166.2,106.1,165.5,106.7,164.8,106.7z"/>
		<path class="st19" d="M174.3,107.7L174.3,107.7c-0.6,0.6-1.4,0.6-2,0l-8.5-8.5c-0.6-0.6-0.6-1.4,0-2l0,0c0.6-0.6,1.4-0.6,2,0
			l8.5,8.5C174.8,106.3,174.8,107.2,174.3,107.7z"/>
		<path class="st19" d="M163.2,113.2L163.2,113.2c-0.6-0.6-0.6-1.4,0-2l6.2-6.2c0.6-0.6,1.4-0.6,2,0l0,0c0.6,0.6,0.6,1.4,0,2
			l-6.2,6.2C164.6,113.8,163.8,113.8,163.2,113.2z"/>
		<path class="st19" d="M181.1,121.8L181.1,121.8c-0.6,0.6-1.4,0.6-2,0l-11.7-11.7c-0.6-0.6-0.6-1.4,0-2l0,0c0.6-0.6,1.4-0.6,2,0
			l11.7,11.7C181.7,120.4,181.7,121.3,181.1,121.8z"/>
		<g>
			<path class="st20" d="M135.3,117.6L135.3,117.6c0.8,0,1.4-0.6,1.4-1.4V97.8l-2.8,3.5v14.8C133.8,116.9,134.5,117.6,135.3,117.6z"
				/>
			<path class="st20" d="M125.8,120.3L125.8,120.3c0.6,0.6,1.4,0.6,2,0l8.5-8.5c0.6-0.6,0.6-1.4,0-2v0c-0.6-0.6-1.4-0.6-2,0
				l-8.5,8.5C125.2,118.9,125.2,119.8,125.8,120.3z"/>
			<path class="st20" d="M143.3,132.3L143.3,132.3c0.6-0.6,0.6-1.4,0-2l-12.7-12.7c-0.6-0.6-1.4-0.6-2,0l0,0c-0.6,0.6-0.6,1.4,0,2
				l12.7,12.7C141.8,132.8,142.7,132.8,143.3,132.3z"/>
			<path class="st20" d="M125.8,135.3L125.8,135.3c0.6,0.6,1.4,0.6,2,0l8.5-8.5c0.6-0.6,0.6-1.4,0-2l0,0c-0.6-0.6-1.4-0.6-2,0
				l-8.5,8.5C125.2,133.9,125.2,134.8,125.8,135.3z"/>
		</g>
		<g>
			<path class="st21" d="M181.5,151.4v5h1.4v-5c0-0.4-0.3-0.7-0.7-0.7l0,0C181.8,150.7,181.5,151,181.5,151.4z"/>
			<path class="st21" d="M186.6,148.9c-0.3-0.3-0.7-0.3-1,0l-3.7,3.7c-0.3,0.3-0.3,0.7,0,1l0,0c0.3,0.3,0.7,0.3,1,0l3.7-3.7
				C186.9,149.6,186.9,149.2,186.6,148.9L186.6,148.9z"/>
			<path class="st21" d="M179.4,144.9l5.3,5.3c0.3,0.3,0.7,0.3,1,0l0,0c0.3-0.3,0.3-0.7,0-1l-6.2-6.2L179.4,144.9z"/>
			<path class="st21" d="M186.6,141.5c-0.3-0.3-0.7-0.3-1,0l-4.2,4.2c-0.1,0.1-0.1,0.3,0,0.5l0.5,0.5c0.1,0.1,0.3,0.1,0.5,0l4.2-4.2
				C186.9,142.3,186.9,141.8,186.6,141.5L186.6,141.5z"/>
		</g>
		<g>
			<path class="st21" d="M202.7,180.8v-5h-1.4v5c0,0.4,0.3,0.7,0.7,0.7l0,0C202.4,181.5,202.7,181.2,202.7,180.8z"/>
			<path class="st21" d="M197.5,183.3c0.3,0.3,0.7,0.3,1,0l3.7-3.7c0.3-0.3,0.3-0.7,0-1l0,0c-0.3-0.3-0.7-0.3-1,0l-3.7,3.7
				C197.3,182.6,197.3,183,197.5,183.3L197.5,183.3z"/>
			<path class="st21" d="M204.7,187.3l-5.3-5.3c-0.3-0.3-0.7-0.3-1,0l0,0c-0.3,0.3-0.3,0.7,0,1l6.2,6.2L204.7,187.3z"/>
			<path class="st21" d="M197.5,190.7c0.3,0.3,0.7,0.3,1,0l4.2-4.2c0.1-0.1,0.1-0.3,0-0.5l-0.5-0.5c-0.1-0.1-0.3-0.1-0.5,0l-4.2,4.2
				C197.3,189.9,197.3,190.4,197.5,190.7L197.5,190.7z"/>
		</g>
		<path class="st22" d="M146.5,144.3v-5h-1.4v5c0,0.4,0.3,0.7,0.7,0.7h0C146.2,145,146.5,144.7,146.5,144.3z"/>
		<path class="st22" d="M141.4,146.8c0.3,0.3,0.7,0.3,1,0l3.7-3.7c0.3-0.3,0.3-0.7,0-1l0,0c-0.3-0.3-0.7-0.3-1,0l-3.7,3.7
			C141.1,146.1,141.1,146.5,141.4,146.8L141.4,146.8z"/>
		<path class="st22" d="M143.5,152L143.5,152c-0.4,0-0.7-0.3-0.7-0.7v-6.3c0-0.4,0.3-0.7,0.7-0.7l0,0c0.4,0,0.7,0.3,0.7,0.7v6.3
			C144.2,151.7,143.9,152,143.5,152z"/>
		<path class="st22" d="M146.6,150.1L146.6,150.1c-0.3,0.3-0.7,0.3-1,0l-2.5-2.5c-0.3-0.3-0.3-0.7,0-1l0,0c0.3-0.3,0.7-0.3,1,0
			l2.5,2.5C146.8,149.4,146.8,149.9,146.6,150.1z"/>
		<g>
			<circle class="st5" cx="233.2" cy="93.7" r="47.6"/>
			<circle class="st5" cx="244.7" cy="160.2" r="35.1"/>
			<circle class="st5" cx="261.8" cy="119.1" r="35.1"/>
			<circle class="st5" cx="225.1" cy="204" r="23.1"/>
			<circle class="st5" cx="206" cy="217.1" r="21.8"/>
			<circle class="st5" cx="193.9" cy="235.9" r="13.1"/>
			<circle class="st5" cx="248.8" cy="205" r="20"/>
		</g>
	</g>
	<g>
		<g>
			<path class="st7" d="M265.7,168.9l-26,33.8c-0.4,0.5-0.6,1.1-0.6,1.8l-1.6,46.9c-0.1,1.7,1.3,3.1,3,3.2l49.9,1.7l1.7-51
				l-22.6-36.2C268.6,167.7,266.7,167.7,265.7,168.9z"/>
			<path class="st5" d="M275.4,255.8l-22.6-0.8l1.2-35.6c0.1-2.5,2.1-4.4,4.6-4.3l13.7,0.5c2.5,0.1,4.4,2.1,4.3,4.6L275.4,255.8z"/>
			<path class="st4" d="M337.8,257.9l-47.6-1.6l1.7-50.9l47.6,1.6c1.5,0.1,2.7,1.3,2.7,2.9l-1.5,45.4
				C340.6,256.8,339.4,257.9,337.8,257.9z"/>
			<path class="st5" d="M310.9,243.3l-9.3-0.3c-1.2,0-2.1-1-2.1-2.2l0.7-19.5c0-1.2,1-2.1,2.2-2.1l9.3,0.3c1.2,0,2.1,1,2.1,2.2
				l-0.7,19.5C313.1,242.4,312.1,243.3,310.9,243.3z"/>
			<path class="st5" d="M332.7,244l-9.3-0.3c-1.2,0-2.1-1-2.1-2.2L322,222c0-1.2,1-2.1,2.2-2.1l9.3,0.3c1.2,0,2.1,1,2.1,2.2L335,242
				C334.9,243.1,333.9,244.1,332.7,244z"/>
			<path class="st8" d="M340.4,209.3l-47.3-1.6c-0.9,0-1.8-0.5-2.2-1.3l-23.4-37.2c-0.5-0.8,0.1-1.8,1-1.8l47.3,1.6
				c1.8,0.1,3.4,1,4.4,2.5l21.9,34.9C342.8,207.6,341.8,209.3,340.4,209.3z"/>
			<g>
				<path class="st4" d="M306.5,178.4l-7.8-0.3c-0.6,0-1-0.5-1-1.1l0.4-10.8l9.9,0.3l-0.4,10.8C307.5,178,307,178.4,306.5,178.4z"/>
				<path class="st1" d="M306.4,178.4l-3.9-0.1l0.4-11.9l4.9,0.2l-0.4,10.8C307.5,178,307,178.4,306.4,178.4z"/>
				<path class="st4" d="M308.9,166.6l-11.9-0.4c-0.4,0-0.8-0.4-0.8-0.8l0-1.5c0-0.4,0.4-0.8,0.8-0.8l11.9,0.4
					c0.4,0,0.8,0.4,0.8,0.8l0,1.5C309.7,166.3,309.3,166.6,308.9,166.6z"/>
				<path class="st1" d="M308.9,166.6l-5.9-0.2l0.1-3l5.9,0.2c0.5,0,0.8,0.4,0.8,0.9l0,1.4C309.7,166.3,309.3,166.6,308.9,166.6z"/>
			</g>
		</g>
		<g>
			<path class="st21" d="M310.8,237l-0.2,6.2l-1.7-0.1l0.2-6.2c0-0.5,0.4-0.8,0.9-0.8l0,0C310.4,236.2,310.8,236.6,310.8,237z"/>
			<path class="st21" d="M304.5,233.7c0.3-0.3,0.9-0.3,1.2,0l4.4,4.8c0.3,0.3,0.3,0.9,0,1.2v0c-0.3,0.3-0.9,0.3-1.2,0l-4.4-4.8
				C304.2,234.6,304.2,234,304.5,233.7L304.5,233.7z"/>
			<path class="st21" d="M313.6,229.1l-6.7,6.3c-0.3,0.3-0.9,0.3-1.2,0l0,0c-0.3-0.3-0.3-0.9,0-1.2l8-7.5L313.6,229.1z"/>
			<path class="st21" d="M304.9,224.6c0.3-0.3,0.9-0.3,1.2,0l5,5.4c0.2,0.2,0.1,0.4,0,0.6l-0.7,0.6c-0.2,0.2-0.4,0.1-0.6,0l-5-5.4
				C304.5,225.5,304.5,224.9,304.9,224.6L304.9,224.6z"/>
		</g>
	</g>
	<g>
		<path class="st7" d="M-0.1,194.8v95.4c0,1.7,1.4,3.1,3.1,3.1h41.8V192.7l-19.1-30.7c-1.5-2.5-5.1-2.5-6.6,0L0.9,191
			C0.2,192.1-0.1,193.5-0.1,194.8z"/>
		<path class="st4" d="M81.3,293.2H44.7V192.8h36.6c1.5,0,2.8,1.2,2.8,2.8v94.9C84,292,82.8,293.2,81.3,293.2z"/>
		<path class="st5" d="M60.2,269.5h-9.3c-1.2,0-2.1-1-2.1-2.1v-12c0-1.2,1-2.1,2.1-2.1h9.3c1.2,0,2.1,1,2.1,2.1v12
			C62.4,268.5,61.4,269.5,60.2,269.5z"/>
		<path class="st5" d="M26.9,267.1h-9.3c-1.2,0-2.1-1-2.1-2.1v-12c0-1.2,1-2.1,2.1-2.1h9.3c1.2,0,2.1,1,2.1,2.1v12
			C29.1,266.2,28.1,267.1,26.9,267.1z"/>
		<path class="st5" d="M78.8,269.5h-9.3c-1.2,0-2.1-1-2.1-2.1v-12c0-1.2,1-2.1,2.1-2.1h9.3c1.2,0,2.1,1,2.1,2.1v12
			C80.9,268.5,79.9,269.5,78.8,269.5z"/>
		<path class="st5" d="M60.2,234.7h-9.3c-1.2,0-2.1-1-2.1-2.1v-12c0-1.2,1-2.1,2.1-2.1h9.3c1.2,0,2.1,1,2.1,2.1v12
			C62.4,233.7,61.4,234.7,60.2,234.7z"/>
		<path class="st5" d="M26.9,234.7h-9.3c-1.2,0-2.1-1-2.1-2.1v-12c0-1.2,1-2.1,2.1-2.1h9.3c1.2,0,2.1,1,2.1,2.1v12
			C29.1,233.7,28.1,234.7,26.9,234.7z"/>
		<path class="st5" d="M78.8,234.7h-9.3c-1.2,0-2.1-1-2.1-2.1v-12c0-1.2,1-2.1,2.1-2.1h9.3c1.2,0,2.1,1,2.1,2.1v12
			C80.9,233.7,79.9,234.7,78.8,234.7z"/>
		<path class="st8" d="M84,193.8H43.8c-0.8,0-1.5-0.4-1.9-1L21,161.8c-0.4-0.7,0-1.6,0.8-1.6h40.2c1.5,0,2.9,0.8,3.8,2l19.6,29
			C86,192.3,85.3,193.8,84,193.8z"/>
		<g>
			<path class="st4" d="M57.1,165.4h-7.8c-0.6,0-1-0.5-1-1v-10.9h9.9v10.9C58.1,164.9,57.7,165.4,57.1,165.4z"/>
			<path class="st1" d="M57.1,165.4h-3.9v-11.9h4.9v10.8C58.1,164.9,57.6,165.4,57.1,165.4z"/>
			<path class="st4" d="M59.1,153.5H47.2c-0.4,0-0.8-0.4-0.8-0.8v-1.5c0-0.4,0.4-0.8,0.8-0.8h11.9c0.4,0,0.8,0.4,0.8,0.8v1.5
				C59.9,153.2,59.6,153.5,59.1,153.5z"/>
			<path class="st1" d="M59.1,153.5h-5.9v-3h5.9c0.5,0,0.8,0.4,0.8,0.8v1.4C59.9,153.1,59.6,153.5,59.1,153.5z"/>
		</g>
		<g>
			<path class="st19" d="M59.5,177L59.5,177c-0.8,0-1.4-0.6-1.4-1.4v-15.3c0.9,0,2.1,0,2.8,0v15.3C60.9,176.3,60.3,177,59.5,177z"/>
			<path class="st19" d="M69,178L69,178c-0.6,0.6-1.4,0.6-2,0l-8.5-8.5c-0.6-0.6-0.6-1.4,0-2l0,0c0.6-0.6,1.4-0.6,2,0L69,176
				C69.6,176.5,69.6,177.4,69,178z"/>
			<path class="st19" d="M55.7,185.7L55.7,185.7c-0.6-0.6-0.6-1.4,0-2l8.5-8.5c0.6-0.6,1.4-0.6,2,0l0,0c0.6,0.6,0.6,1.4,0,2
				l-8.5,8.5C57.1,186.3,56.2,186.3,55.7,185.7z"/>
		</g>
	</g>
	<g>
		<path class="st4" d="M167.6,192.1v95.4c0,1.7-1.4,3.1-3.1,3.1h-41.8V190.1l19.1-30.7c1.5-2.5,5.1-2.5,6.6,0l18,28.9
			C167.2,189.4,167.6,190.8,167.6,192.1z"/>
		<path class="st7" d="M86.1,290.6h36.6V190.2H86.1c-1.5,0-2.8,1.2-2.8,2.8v94.9C83.4,289.3,84.6,290.6,86.1,290.6z"/>
		<path class="st0" d="M107.2,266.8h9.3c1.2,0,2.1-1,2.1-2.1v-12c0-1.2-1-2.1-2.1-2.1h-9.3c-1.2,0-2.1,1-2.1,2.1v12
			C105,265.9,106,266.8,107.2,266.8z"/>
		<path class="st5" d="M140.5,264.5h9.3c1.2,0,2.1-1,2.1-2.1v-12c0-1.2-1-2.1-2.1-2.1h-9.3c-1.2,0-2.1,1-2.1,2.1v12
			C138.3,263.5,139.3,264.5,140.5,264.5z"/>
		<path class="st0" d="M88.6,266.8H98c1.2,0,2.1-1,2.1-2.1v-12c0-1.2-1-2.1-2.1-2.1h-9.3c-1.2,0-2.1,1-2.1,2.1v12
			C86.5,265.9,87.5,266.8,88.6,266.8z"/>
		<path class="st0" d="M107.2,232h9.3c1.2,0,2.1-1,2.1-2.1v-12c0-1.2-1-2.1-2.1-2.1h-9.3c-1.2,0-2.1,1-2.1,2.1v12
			C105,231.1,106,232,107.2,232z"/>
		<path class="st5" d="M140.5,232h9.3c1.2,0,2.1-1,2.1-2.1v-12c0-1.2-1-2.1-2.1-2.1h-9.3c-1.2,0-2.1,1-2.1,2.1v12
			C138.3,231.1,139.3,232,140.5,232z"/>
		<path class="st0" d="M88.6,232H98c1.2,0,2.1-1,2.1-2.1v-12c0-1.2-1-2.1-2.1-2.1h-9.3c-1.2,0-2.1,1-2.1,2.1v12
			C86.5,231.1,87.5,232,88.6,232z"/>
		<path class="st6" d="M83.4,191.1h40.2c0.8,0,1.5-0.4,1.9-1l20.9-30.9c0.4-0.7,0-1.6-0.8-1.6h-40.2c-1.5,0-2.9,0.8-3.8,2l-19.6,29
			C81.4,189.7,82.1,191.1,83.4,191.1z"/>
		<g>
			<path class="st4" d="M110.3,162.7h7.8c0.6,0,1-0.5,1-1v-10.9h-9.9v10.9C109.3,162.3,109.7,162.7,110.3,162.7z"/>
			<path class="st1" d="M110.3,162.7h3.9v-11.9h-4.9v10.8C109.3,162.3,109.8,162.7,110.3,162.7z"/>
			<path class="st4" d="M108.3,150.9h11.9c0.4,0,0.8-0.4,0.8-0.8v-1.5c0-0.4-0.4-0.8-0.8-0.8h-11.9c-0.4,0-0.8,0.4-0.8,0.8v1.5
				C107.5,150.5,107.8,150.9,108.3,150.9z"/>
			<path class="st1" d="M108.3,150.9h5.9v-3h-5.9c-0.5,0-0.8,0.4-0.8,0.8v1.4C107.5,150.5,107.9,150.9,108.3,150.9z"/>
		</g>
		<g>
			<path class="st23" d="M121.9,174.3L121.9,174.3c-0.8,0-1.4-0.6-1.4-1.4v-15.3c0.9,0,2.1,0,2.8,0v15.3
				C123.3,173.7,122.6,174.3,121.9,174.3z"/>
			<path class="st23" d="M131.4,175.3L131.4,175.3c-0.6,0.6-1.4,0.6-2,0l-8.5-8.5c-0.6-0.6-0.6-1.4,0-2l0,0c0.6-0.6,1.4-0.6,2,0
				l8.5,8.5C131.9,173.9,131.9,174.8,131.4,175.3z"/>
			<path class="st23" d="M118,183.1L118,183.1c-0.6-0.6-0.6-1.4,0-2l8.5-8.5c0.6-0.6,1.4-0.6,2,0l0,0c0.6,0.6,0.6,1.4,0,2l-8.5,8.5
				C119.5,183.6,118.6,183.6,118,183.1z"/>
		</g>
		<g>
			<path class="st1" d="M154.8,184.3L154.8,184.3c0.8,0,1.4-0.6,1.4-1.4v-11.1c-1.2-1.9-1.4-2.2-2.8-4.5v15.6
				C153.4,183.7,154,184.3,154.8,184.3z"/>
			<path class="st1" d="M145.3,187.1L145.3,187.1c0.6,0.6,1.4,0.6,2,0l8.5-8.5c0.6-0.6,0.6-1.4,0-2h0c-0.6-0.6-1.4-0.6-2,0l-8.5,8.5
				C144.7,185.6,144.7,186.5,145.3,187.1z"/>
			<path class="st1" d="M162.8,199L162.8,199c0.6-0.6,0.6-1.4,0-2l-12.7-12.7c-0.6-0.6-1.4-0.6-2,0l0,0c-0.6,0.6-0.6,1.4,0,2
				l12.7,12.7C161.3,199.5,162.2,199.5,162.8,199z"/>
			<path class="st1" d="M145.3,202L145.3,202c0.6,0.6,1.4,0.6,2,0l8.5-8.5c0.6-0.6,0.6-1.4,0-2l0,0c-0.6-0.6-1.4-0.6-2,0l-8.5,8.5
				C144.7,200.6,144.7,201.5,145.3,202z"/>
		</g>
	</g>
	<g>
		<path class="st4" d="M245.4,194.8v95.4c0,1.7-1.4,3.1-3.1,3.1h-41.8V192.8l19.1-30.7c1.5-2.5,5.1-2.5,6.6,0l18,28.9
			C245.1,192.2,245.4,193.5,245.4,194.8z"/>
		<path class="st7" d="M164,293.3h36.6V192.8H164c-1.5,0-2.8,1.2-2.8,2.8v94.9C161.2,292,162.5,293.3,164,293.3z"/>
		<path class="st0" d="M185.1,269.5h9.3c1.2,0,2.1-1,2.1-2.1v-12c0-1.2-1-2.1-2.1-2.1h-9.3c-1.2,0-2.1,1-2.1,2.1v12
			C182.9,268.5,183.9,269.5,185.1,269.5z"/>
		<path class="st5" d="M218.3,267.2h9.3c1.2,0,2.1-1,2.1-2.1v-12c0-1.2-1-2.1-2.1-2.1h-9.3c-1.2,0-2.1,1-2.1,2.1v12
			C216.2,266.2,217.2,267.2,218.3,267.2z"/>
		<path class="st0" d="M166.5,269.5h9.3c1.2,0,2.1-1,2.1-2.1v-12c0-1.2-1-2.1-2.1-2.1h-9.3c-1.2,0-2.1,1-2.1,2.1v12
			C164.4,268.5,165.3,269.5,166.5,269.5z"/>
		<path class="st0" d="M185.1,234.7h9.3c1.2,0,2.1-1,2.1-2.1v-12c0-1.2-1-2.1-2.1-2.1h-9.3c-1.2,0-2.1,1-2.1,2.1v12
			C182.9,233.7,183.9,234.7,185.1,234.7z"/>
		<path class="st5" d="M218.3,234.7h9.3c1.2,0,2.1-1,2.1-2.1v-12c0-1.2-1-2.1-2.1-2.1h-9.3c-1.2,0-2.1,1-2.1,2.1v12
			C216.2,233.7,217.2,234.7,218.3,234.7z"/>
		<path class="st0" d="M166.5,234.7h9.3c1.2,0,2.1-1,2.1-2.1v-12c0-1.2-1-2.1-2.1-2.1h-9.3c-1.2,0-2.1,1-2.1,2.1v12
			C164.4,233.7,165.3,234.7,166.5,234.7z"/>
		<path class="st8" d="M161.3,193.8h40.2c0.8,0,1.5-0.4,1.9-1l20.9-30.9c0.4-0.7,0-1.6-0.8-1.6h-40.2c-1.5,0-2.9,0.8-3.8,2l-19.6,29
			C159.3,192.3,160,193.8,161.3,193.8z"/>
		<path class="st4" d="M188.2,165.4h7.8c0.6,0,1-0.5,1-1v-10.9h-9.9v10.9C187.2,164.9,187.6,165.4,188.2,165.4z"/>
		<path class="st7" d="M188.2,165.4h3.9v-11.9h-4.9v10.8C187.2,164.9,187.6,165.4,188.2,165.4z"/>
		<path class="st4" d="M186.1,153.5h11.9c0.4,0,0.8-0.4,0.8-0.8v-1.5c0-0.4-0.4-0.8-0.8-0.8h-11.9c-0.4,0-0.8,0.4-0.8,0.8v1.5
			C185.4,153.2,185.7,153.5,186.1,153.5z"/>
		<path class="st7" d="M186.2,153.5h5.9v-3h-5.9c-0.5,0-0.8,0.4-0.8,0.8v1.4C185.4,153.2,185.7,153.5,186.2,153.5z"/>
		<g>
			<path class="st24" d="M172.6,201.8L172.6,201.8c-0.8,0-1.4-0.6-1.4-1.4v-6.6h2.8v6.6C174,201.1,173.4,201.8,172.6,201.8z"/>
			<path class="st24" d="M182.1,205.8L182.1,205.8c-0.6,0.6-1.4,0.6-2,0l-8.5-8.5c-0.6-0.6-0.6-1.4,0-2l0,0c0.6-0.6,1.4-0.6,2,0
				l8.5,8.5C182.7,204.4,182.7,205.3,182.1,205.8z"/>
			<path class="st24" d="M166.7,212.2L166.7,212.2c-0.6-0.6-0.6-1.4,0-2l9.4-9.4c0.6-0.6,1.4-0.6,2,0l0,0c0.6,0.6,0.6,1.4,0,2
				l-9.4,9.4C168.2,212.8,167.3,212.8,166.7,212.2z"/>
			<path class="st24" d="M182.1,217.4L182.1,217.4c-0.6,0.6-1.4,0.6-2,0l-8.5-8.5c-0.6-0.6-0.6-1.4,0-2l0,0c0.6-0.6,1.4-0.6,2,0
				l8.5,8.5C182.7,215.9,182.7,216.8,182.1,217.4z"/>
		</g>
	</g>
	<g>
		<path class="st4" d="M475.3,169.7V265c0,1.7-1.4,3.1-3.1,3.1h-41.8V167.6l19.1-30.7c1.5-2.5,5.1-2.5,6.6,0l18,28.9
			C474.9,167,475.3,168.3,475.3,169.7z"/>
		<path class="st7" d="M393.9,268.2h36.6V167.7h-36.6c-1.5,0-2.8,1.2-2.8,2.8v94.9C391.1,266.9,392.3,268.2,393.9,268.2z"/>
		<path class="st0" d="M414.9,244.4h9.3c1.2,0,2.1-1,2.1-2.1v-12c0-1.2-1-2.1-2.1-2.1h-9.3c-1.2,0-2.1,1-2.1,2.1v12
			C412.8,243.5,413.7,244.4,414.9,244.4z"/>
		<path class="st5" d="M448.2,242.1h9.3c1.2,0,2.1-1,2.1-2.1v-12c0-1.2-1-2.1-2.1-2.1h-9.3c-1.2,0-2.1,1-2.1,2.1v12
			C446.1,241.1,447,242.1,448.2,242.1z"/>
		<path class="st0" d="M396.4,244.4h9.3c1.2,0,2.1-1,2.1-2.1v-12c0-1.2-1-2.1-2.1-2.1h-9.3c-1.2,0-2.1,1-2.1,2.1v12
			C394.3,243.5,395.2,244.4,396.4,244.4z"/>
		<path class="st0" d="M414.9,209.6h9.3c1.2,0,2.1-1,2.1-2.1v-12c0-1.2-1-2.1-2.1-2.1h-9.3c-1.2,0-2.1,1-2.1,2.1v12
			C412.8,208.6,413.7,209.6,414.9,209.6z"/>
		<path class="st5" d="M448.2,209.6h9.3c1.2,0,2.1-1,2.1-2.1v-12c0-1.2-1-2.1-2.1-2.1h-9.3c-1.2,0-2.1,1-2.1,2.1v12
			C446.1,208.6,447,209.6,448.2,209.6z"/>
		<path class="st0" d="M396.4,209.6h9.3c1.2,0,2.1-1,2.1-2.1v-12c0-1.2-1-2.1-2.1-2.1h-9.3c-1.2,0-2.1,1-2.1,2.1v12
			C394.3,208.6,395.2,209.6,396.4,209.6z"/>
		<path class="st6" d="M391.1,168.7h40.2c0.8,0,1.5-0.4,1.9-1l20.9-30.9c0.4-0.7,0-1.6-0.8-1.6h-40.2c-1.5,0-2.9,0.8-3.8,2l-19.6,29
			C389.1,167.2,389.9,168.7,391.1,168.7z"/>
		<path class="st4" d="M420.9,140.3h7.8c0.6,0,1-0.5,1-1v-10.9h-9.9v10.9C419.9,139.8,420.3,140.3,420.9,140.3z"/>
		<path class="st7" d="M420.9,140.3h3.9v-11.9h-4.9v10.8C419.9,139.8,420.4,140.3,420.9,140.3z"/>
		<path class="st4" d="M418.9,128.4h11.9c0.4,0,0.8-0.4,0.8-0.8v-1.5c0-0.4-0.4-0.8-0.8-0.8h-11.9c-0.4,0-0.8,0.4-0.8,0.8v1.5
			C418.1,128.1,418.4,128.4,418.9,128.4z"/>
		<path class="st7" d="M418.9,128.4h5.9v-3h-5.9c-0.5,0-0.8,0.4-0.8,0.8v1.4C418.1,128.1,418.5,128.4,418.9,128.4z"/>
		<g>
			<path class="st23" d="M417.1,151.8L417.1,151.8c-0.8,0-1.4-0.6-1.4-1.4v-15.3c0.9,0,2.1,0,2.8,0v15.3
				C418.5,151.2,417.8,151.8,417.1,151.8z"/>
			<path class="st23" d="M426.6,152.8L426.6,152.8c-0.6,0.6-1.4,0.6-2,0l-8.5-8.5c-0.6-0.6-0.6-1.4,0-2l0,0c0.6-0.6,1.4-0.6,2,0
				l8.5,8.5C427.1,151.4,427.1,152.3,426.6,152.8z"/>
			<path class="st23" d="M413.2,160.6L413.2,160.6c-0.6-0.6-0.6-1.4,0-2l8.5-8.5c0.6-0.6,1.4-0.6,2,0l0,0c0.6,0.6,0.6,1.4,0,2
				l-8.5,8.5C414.7,161.2,413.8,161.2,413.2,160.6z"/>
		</g>
	</g>
	<g>
		<path class="st7" d="M554.9,170.8v95.4c0,1.7,1.4,3.1,3.1,3.1h41.8V168.8l-19.1-30.7c-1.5-2.5-5.1-2.5-6.6,0l-18,28.9
			C555.2,168.2,554.9,169.5,554.9,170.8z"/>
		<path class="st4" d="M636.3,269.3h-36.6V168.9h36.6c1.5,0,2.8,1.2,2.8,2.8v94.9C639.1,268.1,637.8,269.3,636.3,269.3z"/>
		<path class="st5" d="M615.2,245.5h-9.3c-1.2,0-2.1-1-2.1-2.1v-12c0-1.2,1-2.1,2.1-2.1h9.3c1.2,0,2.1,1,2.1,2.1v12
			C617.4,244.6,616.4,245.5,615.2,245.5z"/>
		<path class="st0" d="M581.9,243.2h-9.3c-1.2,0-2.1-1-2.1-2.1v-12c0-1.2,1-2.1,2.1-2.1h9.3c1.2,0,2.1,1,2.1,2.1v12
			C584.1,242.3,583.1,243.2,581.9,243.2z"/>
		<path class="st5" d="M633.8,245.5h-9.3c-1.2,0-2.1-1-2.1-2.1v-12c0-1.2,1-2.1,2.1-2.1h9.3c1.2,0,2.1,1,2.1,2.1v12
			C635.9,244.6,635,245.5,633.8,245.5z"/>
		<path class="st5" d="M615.2,210.7h-9.3c-1.2,0-2.1-1-2.1-2.1v-12c0-1.2,1-2.1,2.1-2.1h9.3c1.2,0,2.1,1,2.1,2.1v12
			C617.4,209.8,616.4,210.7,615.2,210.7z"/>
		<path class="st0" d="M581.9,210.7h-9.3c-1.2,0-2.1-1-2.1-2.1v-12c0-1.2,1-2.1,2.1-2.1h9.3c1.2,0,2.1,1,2.1,2.1v12
			C584.1,209.8,583.1,210.7,581.9,210.7z"/>
		<path class="st5" d="M633.8,210.7h-9.3c-1.2,0-2.1-1-2.1-2.1v-12c0-1.2,1-2.1,2.1-2.1h9.3c1.2,0,2.1,1,2.1,2.1v12
			C635.9,209.8,635,210.7,633.8,210.7z"/>
		<path class="st6" d="M639,169.8h-40.2c-0.8,0-1.5-0.4-1.9-1L576,137.9c-0.4-0.7,0-1.6,0.8-1.6H617c1.5,0,2.9,0.8,3.8,2l19.6,29
			C641,168.4,640.3,169.8,639,169.8z"/>
		<path class="st7" d="M613.9,143h-7.8c-0.6,0-1-0.5-1-1v-10.9h9.9v10.9C614.9,142.5,614.5,143,613.9,143z"/>
		<path class="st4" d="M613.9,143H610v-11.9h4.9v10.8C614.9,142.5,614.5,143,613.9,143z"/>
		<path class="st7" d="M616,131.1H604c-0.4,0-0.8-0.4-0.8-0.8v-1.5c0-0.4,0.4-0.8,0.8-0.8H616c0.4,0,0.8,0.4,0.8,0.8v1.5
			C616.7,130.7,616.4,131.1,616,131.1z"/>
		<path class="st4" d="M615.9,131.1H610v-3h5.9c0.5,0,0.8,0.4,0.8,0.8v1.4C616.7,130.7,616.4,131.1,615.9,131.1z"/>
		<g>
			<path class="st23" d="M600.6,153L600.6,153c0.8,0,1.4-0.6,1.4-1.4v-15.3c-0.9,0-2.1,0-2.8,0v15.3
				C599.1,152.4,599.8,153,600.6,153z"/>
			<path class="st23" d="M591.1,154L591.1,154c0.6,0.6,1.4,0.6,2,0l8.5-8.5c0.6-0.6,0.6-1.4,0-2v0c-0.6-0.6-1.4-0.6-2,0l-8.5,8.5
				C590.5,152.6,590.5,153.5,591.1,154z"/>
			<path class="st23" d="M604.4,161.8L604.4,161.8c0.6-0.6,0.6-1.4,0-2l-8.5-8.5c-0.6-0.6-1.4-0.6-2,0l0,0c-0.6,0.6-0.6,1.4,0,2
				l8.5,8.5C602.9,162.3,603.8,162.3,604.4,161.8z"/>
		</g>
		<g>
			<path class="st25" d="M567.7,163L567.7,163c-0.8,0-1.4-0.6-1.4-1.4v-11.1c1.2-1.9,1.4-2.2,2.8-4.5v15.6
				C569.1,162.4,568.4,163,567.7,163z"/>
			<path class="st25" d="M577.2,165.8L577.2,165.8c-0.6,0.6-1.4,0.6-2,0l-8.5-8.5c-0.6-0.6-0.6-1.4,0-2l0,0c0.6-0.6,1.4-0.6,2,0
				l8.5,8.5C577.7,164.3,577.7,165.2,577.2,165.8z"/>
			<path class="st25" d="M559.7,177.7L559.7,177.7c-0.6-0.6-0.6-1.4,0-2l12.7-12.7c0.6-0.6,1.4-0.6,2,0l0,0c0.6,0.6,0.6,1.4,0,2
				l-12.7,12.7C561.1,178.3,560.2,178.3,559.7,177.7z"/>
			<path class="st25" d="M577.2,180.7L577.2,180.7c-0.6,0.6-1.4,0.6-2,0l-8.5-8.5c-0.6-0.6-0.6-1.4,0-2l0,0c0.6-0.6,1.4-0.6,2,0
				l8.5,8.5C577.7,179.3,577.7,180.2,577.2,180.7z"/>
		</g>
	</g>
	<g>
		<g>
			<path class="st4" d="M156.2,214.1l24.8,34.7c0.4,0.5,0.6,1.1,0.6,1.8v46.9c0,1.7-1.4,3.1-3.1,3.1h-49.9v-51l23.8-35.4
				C153.4,212.8,155.3,212.8,156.2,214.1z"/>
			<path class="st5" d="M143.7,300.6h22.6V265c0-2.5-2-4.4-4.4-4.4h-13.7c-2.5,0-4.4,2-4.4,4.4V300.6z"/>
			<path class="st1" d="M81.2,300.6h47.6v-50.9H81.2c-1.5,0-2.8,1.2-2.8,2.8v45.4C78.4,299.4,79.6,300.6,81.2,300.6z"/>
			<path class="st5" d="M108.6,286.9h9.3c1.2,0,2.1-1,2.1-2.1v-19.5c0-1.2-1-2.1-2.1-2.1h-9.3c-1.2,0-2.1,1-2.1,2.1v19.5
				C106.4,285.9,107.4,286.9,108.6,286.9z"/>
			<path class="st5" d="M86.7,286.9H96c1.2,0,2.1-1,2.1-2.1v-19.5c0-1.2-1-2.1-2.1-2.1h-9.3c-1.2,0-2.1,1-2.1,2.1v19.5
				C84.6,285.9,85.5,286.9,86.7,286.9z"/>
			<path class="st8" d="M80.3,251.9h47.3c0.9,0,1.8-0.5,2.3-1.2l24.6-36.4c0.5-0.8,0-1.8-1-1.8h-47.3c-1.8,0-3.4,0.9-4.4,2.4
				l-23.1,34.1C77.9,250.2,78.8,251.9,80.3,251.9z"/>
			<g>
				<path class="st4" d="M115.2,222.2h7.8c0.6,0,1-0.5,1-1v-10.9h-9.9v10.9C114.2,221.8,114.6,222.2,115.2,222.2z"/>
				<path class="st1" d="M115.2,222.2h3.9v-11.9h-4.9v10.8C114.2,221.7,114.7,222.2,115.2,222.2z"/>
				<path class="st4" d="M113.2,210.3h11.9c0.4,0,0.8-0.4,0.8-0.8v-1.5c0-0.4-0.4-0.8-0.8-0.8h-11.9c-0.4,0-0.8,0.4-0.8,0.8v1.5
					C112.4,210,112.7,210.3,113.2,210.3z"/>
				<path class="st1" d="M113.2,210.3h5.9v-3h-5.9c-0.5,0-0.8,0.4-0.8,0.8v1.4C112.4,210,112.8,210.3,113.2,210.3z"/>
			</g>
		</g>
		<g>
			<path class="st1" d="M147.9,243L147.9,243c0.8,0,1.4-0.6,1.4-1.4v-19.4l-2.8,4v15.4C146.5,242.3,147.1,243,147.9,243z"/>
			<path class="st1" d="M138.4,245.7L138.4,245.7c0.6,0.6,1.4,0.6,2,0l8.5-8.5c0.6-0.6,0.6-1.4,0-2l0,0c-0.6-0.6-1.4-0.6-2,0
				l-8.5,8.5C137.8,244.3,137.8,245.2,138.4,245.7z"/>
			<path class="st1" d="M155.9,257.7L155.9,257.7c0.6-0.6,0.6-1.4,0-2L143.2,243c-0.6-0.6-1.4-0.6-2,0h0c-0.6,0.6-0.6,1.4,0,2
				l12.7,12.7C154.4,258.2,155.3,258.2,155.9,257.7z"/>
			<path class="st1" d="M138.4,260.7L138.4,260.7c0.6,0.6,1.4,0.6,2,0l8.5-8.5c0.6-0.6,0.6-1.4,0-2l0,0c-0.6-0.6-1.4-0.6-2,0
				l-8.5,8.5C137.8,259.3,137.8,260.2,138.4,260.7z"/>
		</g>
	</g>
	<g>
		<g>
			<path class="st4" d="M505,213.4l24.8,34.7c0.4,0.5,0.6,1.1,0.6,1.8v46.9c0,1.7-1.4,3.1-3.1,3.1h-49.9v-51l23.8-35.4
				C502.2,212.1,504.1,212.1,505,213.4z"/>
			<path class="st5" d="M492.5,299.9h22.6v-35.6c0-2.5-2-4.4-4.4-4.4h-13.7c-2.5,0-4.4,2-4.4,4.4V299.9z"/>
			<path class="st1" d="M430,299.9h47.6v-50.9H430c-1.5,0-2.8,1.2-2.8,2.8v45.4C427.2,298.6,428.5,299.9,430,299.9z"/>
			<path class="st5" d="M457.4,286.2h9.3c1.2,0,2.1-1,2.1-2.1v-19.5c0-1.2-1-2.1-2.1-2.1h-9.3c-1.2,0-2.1,1-2.1,2.1V284
				C455.2,285.2,456.2,286.2,457.4,286.2z"/>
			<path class="st5" d="M435.5,286.2h9.3c1.2,0,2.1-1,2.1-2.1v-19.5c0-1.2-1-2.1-2.1-2.1h-9.3c-1.2,0-2.1,1-2.1,2.1V284
				C433.4,285.2,434.4,286.2,435.5,286.2z"/>
			<path class="st6" d="M429.1,251.2h47.3c0.9,0,1.8-0.5,2.3-1.2l24.6-36.4c0.5-0.8,0-1.8-1-1.8h-47.3c-1.8,0-3.4,0.9-4.4,2.4
				l-23.1,34.1C426.7,249.5,427.6,251.2,429.1,251.2z"/>
			<g>
				<path class="st4" d="M464,221.5h7.8c0.6,0,1-0.5,1-1v-10.9H463v10.9C463,221,463.5,221.5,464,221.5z"/>
				<path class="st1" d="M464.1,221.5h3.9v-11.9H463v10.8C463,221,463.5,221.5,464.1,221.5z"/>
				<path class="st4" d="M462,209.6h11.9c0.4,0,0.8-0.4,0.8-0.8v-1.5c0-0.4-0.4-0.8-0.8-0.8H462c-0.4,0-0.8,0.4-0.8,0.8v1.5
					C461.2,209.3,461.6,209.6,462,209.6z"/>
				<path class="st1" d="M462,209.6h5.9v-3H462c-0.5,0-0.8,0.4-0.8,0.8v1.4C461.2,209.2,461.6,209.6,462,209.6z"/>
			</g>
		</g>
		<g>
			<path class="st23" d="M458.1,228.4L458.1,228.4c0.8,0,1.4-0.6,1.4-1.4v-15.3c-0.9,0-2.1,0-2.8,0V227
				C456.7,227.8,457.3,228.4,458.1,228.4z"/>
			<path class="st23" d="M448.6,229.4L448.6,229.4c0.6,0.6,1.4,0.6,2,0l8.5-8.5c0.6-0.6,0.6-1.4,0-2l0,0c-0.6-0.6-1.4-0.6-2,0
				l-8.5,8.5C448,228,448,228.9,448.6,229.4z"/>
			<path class="st23" d="M469.2,244.2L469.2,244.2c0.6-0.6,0.6-1.4,0-2l-16.3-16.3c-0.6-0.6-1.4-0.6-2,0l0,0c-0.6,0.6-0.6,1.4,0,2
				l16.3,16.3C467.7,244.7,468.6,244.7,469.2,244.2z"/>
			<path class="st23" d="M456.8,247.3L456.8,247.3c0.6,0.6,1.4,0.6,2,0l6-6c0.6-0.6,0.6-1.4,0-2l0,0c-0.6-0.6-1.4-0.6-2,0l-6,6
				C456.2,245.9,456.2,246.7,456.8,247.3z"/>
		</g>
	</g>
	<g>
		<path class="st4" d="M412.7,189.1v95.4c0,1.7-1.4,3.1-3.1,3.1h-41.8V187.1l19.1-30.7c1.5-2.5,5.1-2.5,6.6,0l18,28.9
			C412.3,186.5,412.7,187.8,412.7,189.1z"/>
		<path class="st7" d="M331.2,287.6h36.6V187.2h-36.6c-1.5,0-2.8,1.2-2.8,2.8v94.9C328.5,286.4,329.7,287.6,331.2,287.6z"/>
		<path class="st0" d="M352.3,263.8h9.3c1.2,0,2.1-1,2.1-2.1v-12c0-1.2-1-2.1-2.1-2.1h-9.3c-1.2,0-2.1,1-2.1,2.1v12
			C350.2,262.9,351.1,263.8,352.3,263.8z"/>
		<path class="st5" d="M385.6,261.5h9.3c1.2,0,2.1-1,2.1-2.1v-12c0-1.2-1-2.1-2.1-2.1h-9.3c-1.2,0-2.1,1-2.1,2.1v12
			C383.4,260.6,384.4,261.5,385.6,261.5z"/>
		<path class="st0" d="M333.8,263.8h9.3c1.2,0,2.1-1,2.1-2.1v-12c0-1.2-1-2.1-2.1-2.1h-9.3c-1.2,0-2.1,1-2.1,2.1v12
			C331.6,262.9,332.6,263.8,333.8,263.8z"/>
		<path class="st0" d="M352.3,229h9.3c1.2,0,2.1-1,2.1-2.1v-12c0-1.2-1-2.1-2.1-2.1h-9.3c-1.2,0-2.1,1-2.1,2.1v12
			C350.2,228.1,351.1,229,352.3,229z"/>
		<path class="st5" d="M385.6,229h9.3c1.2,0,2.1-1,2.1-2.1v-12c0-1.2-1-2.1-2.1-2.1h-9.3c-1.2,0-2.1,1-2.1,2.1v12
			C383.4,228.1,384.4,229,385.6,229z"/>
		<path class="st0" d="M333.8,229h9.3c1.2,0,2.1-1,2.1-2.1v-12c0-1.2-1-2.1-2.1-2.1h-9.3c-1.2,0-2.1,1-2.1,2.1v12
			C331.6,228.1,332.6,229,333.8,229z"/>
		<path class="st6" d="M328.5,188.1h40.2c0.8,0,1.5-0.4,1.9-1l20.9-30.9c0.4-0.7,0-1.6-0.8-1.6h-40.2c-1.5,0-2.9,0.8-3.8,2l-19.6,29
			C326.5,186.7,327.2,188.1,328.5,188.1z"/>
		<g>
			<path class="st4" d="M355.4,159.7h7.8c0.6,0,1-0.5,1-1v-10.9h-9.9v10.9C354.4,159.3,354.9,159.7,355.4,159.7z"/>
			<path class="st7" d="M355.5,159.7h3.9v-11.9h-4.9v10.8C354.4,159.3,354.9,159.7,355.5,159.7z"/>
			<path class="st4" d="M353.4,147.9h11.9c0.4,0,0.8-0.4,0.8-0.8v-1.5c0-0.4-0.4-0.8-0.8-0.8h-11.9c-0.4,0-0.8,0.4-0.8,0.8v1.5
				C352.6,147.5,353,147.9,353.4,147.9z"/>
			<path class="st7" d="M353.4,147.9h5.9v-3h-5.9c-0.5,0-0.8,0.4-0.8,0.8v1.4C352.6,147.5,353,147.9,353.4,147.9z"/>
		</g>
		<g>
			<path class="st1" d="M399.9,181.3L399.9,181.3c0.8,0,1.4-0.6,1.4-1.4v-11.1c-1.2-1.9-1.4-2.2-2.8-4.5v15.6
				C398.5,180.7,399.1,181.3,399.9,181.3z"/>
			<path class="st1" d="M390.4,184.1L390.4,184.1c0.6,0.6,1.4,0.6,2,0l8.5-8.5c0.6-0.6,0.6-1.4,0-2v0c-0.6-0.6-1.4-0.6-2,0l-8.5,8.5
				C389.8,182.6,389.8,183.5,390.4,184.1z"/>
			<path class="st1" d="M407.9,196L407.9,196c0.6-0.6,0.6-1.4,0-2l-12.7-12.7c-0.6-0.6-1.4-0.6-2,0l0,0c-0.6,0.6-0.6,1.4,0,2
				l12.7,12.7C406.4,196.6,407.3,196.6,407.9,196z"/>
			<path class="st1" d="M390.4,199L390.4,199c0.6,0.6,1.4,0.6,2,0l8.5-8.5c0.6-0.6,0.6-1.4,0-2h0c-0.6-0.6-1.4-0.6-2,0l-8.5,8.5
				C389.8,197.6,389.8,198.5,390.4,199z"/>
		</g>
		<g>
			<path class="st23" d="M352.6,171.3L352.6,171.3c0.8,0,1.4-0.6,1.4-1.4v-15.3c-0.9,0-2.1,0-2.8,0v15.3
				C351.2,170.6,351.8,171.3,352.6,171.3z"/>
			<path class="st23" d="M343.1,172.3L343.1,172.3c0.6,0.6,1.4,0.6,2,0l8.5-8.5c0.6-0.6,0.6-1.4,0-2l0,0c-0.6-0.6-1.4-0.6-2,0
				l-8.5,8.5C342.5,170.8,342.5,171.7,343.1,172.3z"/>
			<path class="st23" d="M360.6,183.9L360.6,183.9c0.6-0.6,0.6-1.4,0-2l-13.2-13.2c-0.6-0.6-1.4-0.6-2,0l0,0c-0.6,0.6-0.6,1.4,0,2
				l13.2,13.2C359.1,184.5,360,184.5,360.6,183.9z"/>
			<path class="st23" d="M348.6,186.3L348.6,186.3c0.6,0.6,1.4,0.6,2,0l6-6c0.6-0.6,0.6-1.4,0-2l0,0c-0.6-0.6-1.4-0.6-2,0l-6,6
				C348,184.8,348,185.7,348.6,186.3z"/>
		</g>
	</g>
	<g>
		<path class="st4" d="M311.7,213.5l24.8,34.7c0.4,0.5,0.6,1.1,0.6,1.8v46.9c0,1.7-1.4,3.1-3.1,3.1h-49.9v-51l23.8-35.4
			C308.9,212.2,310.8,212.2,311.7,213.5z"/>
		<path class="st5" d="M299.1,300h22.6v-35.6c0-2.5-2-4.4-4.4-4.4h-13.7c-2.5,0-4.4,2-4.4,4.4V300z"/>
		<path class="st1" d="M236.7,300h47.6v-50.9h-47.6c-1.5,0-2.8,1.2-2.8,2.8v45.4C233.9,298.8,235.1,300,236.7,300z"/>
		<path class="st5" d="M264,286.3h9.3c1.2,0,2.1-1,2.1-2.1v-19.5c0-1.2-1-2.1-2.1-2.1H264c-1.2,0-2.1,1-2.1,2.1v19.5
			C261.9,285.3,262.9,286.3,264,286.3z"/>
		<path class="st5" d="M242.2,286.3h9.3c1.2,0,2.1-1,2.1-2.1v-19.5c0-1.2-1-2.1-2.1-2.1h-9.3c-1.2,0-2.1,1-2.1,2.1v19.5
			C240.1,285.3,241,286.3,242.2,286.3z"/>
		<path class="st6" d="M235.8,251.3h47.3c0.9,0,1.8-0.5,2.3-1.2l24.6-36.4c0.5-0.8,0-1.8-1-1.8h-47.3c-1.8,0-3.4,0.9-4.4,2.4
			l-23.1,34.1C233.4,249.6,234.3,251.3,235.8,251.3z"/>
		<g>
			<path class="st4" d="M270.7,221.6h7.8c0.6,0,1-0.5,1-1v-10.9h-9.9v10.9C269.7,221.2,270.1,221.6,270.7,221.6z"/>
			<path class="st1" d="M270.7,221.6h3.9v-11.9h-4.9v10.8C269.7,221.1,270.1,221.6,270.7,221.6z"/>
			<path class="st4" d="M268.7,209.7h11.9c0.4,0,0.8-0.4,0.8-0.8v-1.5c0-0.4-0.4-0.8-0.8-0.8h-11.9c-0.4,0-0.8,0.4-0.8,0.8v1.5
				C267.9,209.4,268.2,209.7,268.7,209.7z"/>
			<path class="st1" d="M268.7,209.7h5.9v-3h-5.9c-0.5,0-0.8,0.4-0.8,0.8v1.4C267.9,209.4,268.2,209.7,268.7,209.7z"/>
		</g>
		<path class="st23" d="M266.1,228.4L266.1,228.4c0.8,0,1.4-0.6,1.4-1.4v-15.3c-0.9,0-2.1,0-2.8,0V227
			C264.7,227.8,265.4,228.4,266.1,228.4z"/>
		<path class="st23" d="M256.6,229.4L256.6,229.4c0.6,0.6,1.4,0.6,2,0l8.5-8.5c0.6-0.6,0.6-1.4,0-2l0,0c-0.6-0.6-1.4-0.6-2,0
			l-8.5,8.5C256.1,228,256.1,228.9,256.6,229.4z"/>
		<path class="st23" d="M277.3,244.2L277.3,244.2c0.6-0.6,0.6-1.4,0-2L261,225.9c-0.6-0.6-1.4-0.6-2,0v0c-0.6,0.6-0.6,1.4,0,2
			l16.3,16.3C275.8,244.7,276.7,244.7,277.3,244.2z"/>
		<path class="st23" d="M264.8,247.3L264.8,247.3c0.6,0.6,1.4,0.6,2,0l6-6c0.6-0.6,0.6-1.4,0-2l0,0c-0.6-0.6-1.4-0.6-2,0l-6,6
			C264.3,245.9,264.3,246.7,264.8,247.3z"/>
	</g>
	<g>
		<path class="st1" d="M528.7,215.7l-24.8,34.7c-0.4,0.5-0.6,1.1-0.6,1.8v46.9c0,1.7,1.4,3.1,3.1,3.1h49.9v-51l-23.8-35.4
			C531.5,214.4,529.6,214.4,528.7,215.7z"/>
		<path class="st0" d="M541.2,302.2h-22.6v-35.6c0-2.5,2-4.4,4.4-4.4h13.7c2.5,0,4.4,2,4.4,4.4V302.2z"/>
		<path class="st4" d="M603.7,302.2h-47.6v-50.9h47.6c1.5,0,2.8,1.2,2.8,2.8v45.4C606.5,301,605.2,302.2,603.7,302.2z"/>
		<path class="st5" d="M576.3,288.5H567c-1.2,0-2.1-1-2.1-2.1v-19.5c0-1.2,1-2.1,2.1-2.1h9.3c1.2,0,2.1,1,2.1,2.1v19.5
			C578.5,287.6,577.5,288.5,576.3,288.5z"/>
		<path class="st5" d="M598.2,288.5h-9.3c-1.2,0-2.1-1-2.1-2.1v-19.5c0-1.2,1-2.1,2.1-2.1h9.3c1.2,0,2.1,1,2.1,2.1v19.5
			C600.3,287.6,599.4,288.5,598.2,288.5z"/>
		<path class="st8" d="M604.6,253.5h-47.3c-0.9,0-1.8-0.5-2.3-1.2l-24.6-36.4c-0.5-0.8,0-1.8,1-1.8h47.3c1.8,0,3.4,0.9,4.4,2.4
			l23.1,34.1C607,251.8,606.1,253.5,604.6,253.5z"/>
		<path class="st1" d="M569.7,223.8h-7.8c-0.6,0-1-0.5-1-1V212h9.9v10.9C570.7,223.4,570.2,223.8,569.7,223.8z"/>
		<path class="st4" d="M569.6,223.8h-3.9V212h4.9v10.8C570.7,223.4,570.2,223.8,569.6,223.8z"/>
		<path class="st1" d="M571.7,212h-11.9c-0.4,0-0.8-0.4-0.8-0.8v-1.5c0-0.4,0.4-0.8,0.8-0.8h11.9c0.4,0,0.8,0.4,0.8,0.8v1.5
			C572.5,211.6,572.2,212,571.7,212z"/>
		<path class="st4" d="M571.7,212h-5.9v-3h5.9c0.5,0,0.8,0.4,0.8,0.8v1.4C572.5,211.6,572.1,212,571.7,212z"/>
	</g>
	<g>
		<circle class="st5" cx="320.1" cy="222.3" r="13.9"/>
		<circle class="st5" cx="323.4" cy="241.7" r="10.2"/>
		<circle class="st5" cx="328.4" cy="229.7" r="10.2"/>
		<circle class="st5" cx="317.7" cy="254.5" r="6.7"/>
		<circle class="st5" cx="312.1" cy="258.3" r="6.4"/>
		<circle class="st5" cx="308.6" cy="263.7" r="3.8"/>
		<circle class="st5" cx="324.6" cy="254.8" r="5.8"/>
	</g>
	<g>
		<g>
			<path class="st7" d="M729.8,263.1h-50.1c-2.9,0-5.3-3.8-5.3-8.6V105c0-2.7,0.8-4.1,2.1-5.8l20.6-25.8c1.8-2.2,4.2-2.4,6.1-0.3
				l26.6,28.7V263.1z"/>
			<path class="st4" d="M777.9,263.1h-48V101.8h50.6c2.7,0,4.8,2.2,4.8,4.8v149.2C785.2,259.8,781.9,263.1,777.9,263.1z"/>
			<g>
				<path class="st5" d="M744,136h-5.5c-1,0-1.8-0.8-1.8-1.8v-13.7c0-1,0.8-1.8,1.8-1.8h5.5c1,0,1.8,0.8,1.8,1.8v13.7
					C745.8,135.2,745,136,744,136z"/>
			</g>
			<g>
				<path class="st5" d="M744,172.4h-5.5c-1,0-1.8-0.8-1.8-1.8V157c0-1,0.8-1.8,1.8-1.8h5.5c1,0,1.8,0.8,1.8,1.8v13.7
					C745.8,171.6,745,172.4,744,172.4z"/>
			</g>
			<g>
				<path class="st5" d="M760.2,136h-5.5c-1,0-1.8-0.8-1.8-1.8v-13.7c0-1,0.8-1.8,1.8-1.8h5.5c1,0,1.8,0.8,1.8,1.8v13.7
					C762,135.2,761.2,136,760.2,136z"/>
			</g>
			<g>
				<path class="st5" d="M776.6,136h-5.5c-1,0-1.8-0.8-1.8-1.8v-13.7c0-1,0.8-1.8,1.8-1.8h5.5c1,0,1.8,0.8,1.8,1.8v13.7
					C778.3,135.2,777.5,136,776.6,136z"/>
			</g>
			<g>
				<path class="st5" d="M760.2,172.4h-5.5c-1,0-1.8-0.8-1.8-1.8V157c0-1,0.8-1.8,1.8-1.8h5.5c1,0,1.8,0.8,1.8,1.8v13.7
					C762,171.6,761.2,172.4,760.2,172.4z"/>
			</g>
			<g>
				<path class="st5" d="M776.6,172.4h-5.5c-1,0-1.8-0.8-1.8-1.8V157c0-1,0.8-1.8,1.8-1.8h5.5c1,0,1.8,0.8,1.8,1.8v13.7
					C778.3,171.6,777.5,172.4,776.6,172.4z"/>
			</g>
			<g>
				<path class="st5" d="M744,207.3h-5.5c-1,0-1.8-0.8-1.8-1.8v-13.7c0-1,0.8-1.8,1.8-1.8h5.5c1,0,1.8,0.8,1.8,1.8v13.7
					C745.8,206.5,745,207.3,744,207.3z"/>
			</g>
			<g>
				<path class="st5" d="M744,243.7h-5.5c-1,0-1.8-0.8-1.8-1.8v-13.7c0-1,0.8-1.8,1.8-1.8h5.5c1,0,1.8,0.8,1.8,1.8v13.7
					C745.8,242.9,745,243.7,744,243.7z"/>
			</g>
			<g>
				<path class="st5" d="M760.2,207.3h-5.5c-1,0-1.8-0.8-1.8-1.8v-13.7c0-1,0.8-1.8,1.8-1.8h5.5c1,0,1.8,0.8,1.8,1.8v13.7
					C762,206.5,761.2,207.3,760.2,207.3z"/>
			</g>
			<g>
				<path class="st5" d="M776.6,207.3h-5.5c-1,0-1.8-0.8-1.8-1.8v-13.7c0-1,0.8-1.8,1.8-1.8h5.5c1,0,1.8,0.8,1.8,1.8v13.7
					C778.3,206.5,777.5,207.3,776.6,207.3z"/>
			</g>
			<g>
				<path class="st5" d="M760.2,243.7h-5.5c-1,0-1.8-0.8-1.8-1.8v-13.7c0-1,0.8-1.8,1.8-1.8h5.5c1,0,1.8,0.8,1.8,1.8v13.7
					C762,242.9,761.2,243.7,760.2,243.7z"/>
			</g>
			<g>
				<path class="st5" d="M776.6,243.7h-5.5c-1,0-1.8-0.8-1.8-1.8v-13.7c0-1,0.8-1.8,1.8-1.8h5.5c1,0,1.8,0.8,1.8,1.8v13.7
					C778.3,242.9,777.5,243.7,776.6,243.7z"/>
			</g>
			<g>
				<path class="st0" d="M688.6,136h-5.5c-1,0-1.8-0.8-1.8-1.8v-13.7c0-1,0.8-1.8,1.8-1.8h5.5c1,0,1.8,0.8,1.8,1.8v13.7
					C690.4,135.2,689.6,136,688.6,136z"/>
			</g>
			<g>
				<path class="st0" d="M688.6,172.4h-5.5c-1,0-1.8-0.8-1.8-1.8V157c0-1,0.8-1.8,1.8-1.8h5.5c1,0,1.8,0.8,1.8,1.8v13.7
					C690.4,171.6,689.6,172.4,688.6,172.4z"/>
			</g>
			<g>
				<path class="st0" d="M704.8,136h-5.5c-1,0-1.8-0.8-1.8-1.8v-13.7c0-1,0.8-1.8,1.8-1.8h5.5c1,0,1.8,0.8,1.8,1.8v13.7
					C706.6,135.2,705.8,136,704.8,136z"/>
			</g>
			<g>
				<path class="st0" d="M721.2,136h-5.5c-1,0-1.8-0.8-1.8-1.8v-13.7c0-1,0.8-1.8,1.8-1.8h5.5c1,0,1.8,0.8,1.8,1.8v13.7
					C723,135.2,722.2,136,721.2,136z"/>
			</g>
			<g>
				<path class="st0" d="M704.8,172.4h-5.5c-1,0-1.8-0.8-1.8-1.8V157c0-1,0.8-1.8,1.8-1.8h5.5c1,0,1.8,0.8,1.8,1.8v13.7
					C706.6,171.6,705.8,172.4,704.8,172.4z"/>
			</g>
			<g>
				<path class="st0" d="M721.2,172.4h-5.5c-1,0-1.8-0.8-1.8-1.8V157c0-1,0.8-1.8,1.8-1.8h5.5c1,0,1.8,0.8,1.8,1.8v13.7
					C723,171.6,722.2,172.4,721.2,172.4z"/>
			</g>
			<g>
				<path class="st0" d="M688.6,207.3h-5.5c-1,0-1.8-0.8-1.8-1.8v-13.7c0-1,0.8-1.8,1.8-1.8h5.5c1,0,1.8,0.8,1.8,1.8v13.7
					C690.4,206.5,689.6,207.3,688.6,207.3z"/>
			</g>
			<g>
				<path class="st0" d="M688.6,243.7h-5.5c-1,0-1.8-0.8-1.8-1.8v-13.7c0-1,0.8-1.8,1.8-1.8h5.5c1,0,1.8,0.8,1.8,1.8v13.7
					C690.4,242.9,689.6,243.7,688.6,243.7z"/>
			</g>
			<g>
				<path class="st0" d="M704.8,207.3h-5.5c-1,0-1.8-0.8-1.8-1.8v-13.7c0-1,0.8-1.8,1.8-1.8h5.5c1,0,1.8,0.8,1.8,1.8v13.7
					C706.6,206.5,705.8,207.3,704.8,207.3z"/>
			</g>
			<g>
				<path class="st0" d="M721.2,207.3h-5.5c-1,0-1.8-0.8-1.8-1.8v-13.7c0-1,0.8-1.8,1.8-1.8h5.5c1,0,1.8,0.8,1.8,1.8v13.7
					C723,206.5,722.2,207.3,721.2,207.3z"/>
			</g>
			<g>
				<path class="st0" d="M704.8,243.7h-5.5c-1,0-1.8-0.8-1.8-1.8v-13.7c0-1,0.8-1.8,1.8-1.8h5.5c1,0,1.8,0.8,1.8,1.8v13.7
					C706.6,242.9,705.8,243.7,704.8,243.7z"/>
			</g>
			<g>
				<path class="st0" d="M721.2,243.7h-5.5c-1,0-1.8-0.8-1.8-1.8v-13.7c0-1,0.8-1.8,1.8-1.8h5.5c1,0,1.8,0.8,1.8,1.8v13.7
					C723,242.9,722.2,243.7,721.2,243.7z"/>
			</g>
			<path class="st8" d="M779.9,104.9L733,105c-1.5,0-2.9-0.5-3.9-1.3l-31.8-27.9c-2.8-2.4-0.5-6.2,3.9-6.2h44.4
				c1.5,0,2.9,0.5,3.9,1.3l34.4,27.8C786.6,101.1,784.3,104.9,779.9,104.9z"/>
			<path class="st18" d="M729.8,263.1h-51.3c-2.3,0-4.1-1.8-4.1-4.1v-9.8h55.4V263.1z"/>
			<path class="st1" d="M729.8,263.1h51.4c2.2,0,4-1.8,4-4v-9.9h-55.4V263.1z"/>
			<path class="st1" d="M749,84h-16.9c-0.6,0-1-0.5-1-1V61.3H750V83C750,83.6,749.6,84,749,84z"/>
			<path class="st4" d="M749,84h-8.4V61.3h9.5V83C750,83.6,749.5,84,749,84z"/>
			<path class="st1" d="M752.7,64.2h-24.3c-0.4,0-0.8-0.4-0.8-0.8v-4.2c0-0.4,0.4-0.8,0.8-0.8h24.3c0.4,0,0.8,0.4,0.8,0.8v4.2
				C753.5,63.8,753.2,64.2,752.7,64.2z"/>
			<path class="st4" d="M752.7,64.2h-12.1v-5.8h12.1c0.5,0,0.8,0.4,0.8,0.8v4.2C753.5,63.8,753.2,64.2,752.7,64.2z"/>
		</g>
		<path class="st19" d="M722.1,86.2L722.1,86.2c-0.8,0-1.4-0.6-1.4-1.4V69.5c0.9,0,2.1,0,2.8,0v15.3
			C723.5,85.6,722.9,86.2,722.1,86.2z"/>
		<path class="st19" d="M731.6,87.3L731.6,87.3c-0.6,0.6-1.4,0.6-2,0l-8.5-8.5c-0.6-0.6-0.6-1.4,0-2l0,0c0.6-0.6,1.4-0.6,2,0
			l8.5,8.5C732.1,85.8,732.1,86.7,731.6,87.3z"/>
		<path class="st19" d="M720.5,92.7L720.5,92.7c-0.6-0.6-0.6-1.4,0-2l6.2-6.2c0.6-0.6,1.4-0.6,2,0v0c0.6,0.6,0.6,1.4,0,2l-6.2,6.2
			C722,93.3,721.1,93.3,720.5,92.7z"/>
		<path class="st19" d="M738.4,101.3L738.4,101.3c-0.6,0.6-1.4,0.6-2,0l-11.7-11.7c-0.6-0.6-0.6-1.4,0-2l0,0c0.6-0.6,1.4-0.6,2,0
			l11.7,11.7C739,99.9,739,100.8,738.4,101.3z"/>
		<g>
			<path class="st20" d="M692.6,97.1L692.6,97.1c0.8,0,1.4-0.6,1.4-1.4V77.4l-2.8,3.5v14.8C691.2,96.5,691.8,97.1,692.6,97.1z"/>
			<path class="st20" d="M683.1,99.9L683.1,99.9c0.6,0.6,1.4,0.6,2,0l8.5-8.5c0.6-0.6,0.6-1.4,0-2l0,0c-0.6-0.6-1.4-0.6-2,0
				l-8.5,8.5C682.5,98.4,682.5,99.3,683.1,99.9z"/>
			<path class="st20" d="M700.6,111.8L700.6,111.8c0.6-0.6,0.6-1.4,0-2l-12.7-12.7c-0.6-0.6-1.4-0.6-2,0l0,0c-0.6,0.6-0.6,1.4,0,2
				l12.7,12.7C699.1,112.4,700,112.4,700.6,111.8z"/>
			<path class="st20" d="M683.1,114.8L683.1,114.8c0.6,0.6,1.4,0.6,2,0l8.5-8.5c0.6-0.6,0.6-1.4,0-2l0,0c-0.6-0.6-1.4-0.6-2,0
				l-8.5,8.5C682.5,113.4,682.5,114.3,683.1,114.8z"/>
		</g>
		<g>
			<path class="st21" d="M738.8,130.9v5h1.4v-5c0-0.4-0.3-0.7-0.7-0.7l0,0C739.1,130.2,738.8,130.5,738.8,130.9z"/>
			<path class="st21" d="M743.9,128.4c-0.3-0.3-0.7-0.3-1,0l-3.7,3.7c-0.3,0.3-0.3,0.7,0,1l0,0c0.3,0.3,0.7,0.3,1,0l3.7-3.7
				C744.2,129.1,744.2,128.7,743.9,128.4L743.9,128.4z"/>
			<path class="st21" d="M736.7,124.5l5.3,5.3c0.3,0.3,0.7,0.3,1,0l0,0c0.3-0.3,0.3-0.7,0-1l-6.2-6.2L736.7,124.5z"/>
			<path class="st21" d="M743.9,121.1c-0.3-0.3-0.7-0.3-1,0l-4.2,4.2c-0.1,0.1-0.1,0.3,0,0.5l0.5,0.5c0.1,0.1,0.3,0.1,0.5,0l4.2-4.2
				C744.2,121.8,744.2,121.3,743.9,121.1L743.9,121.1z"/>
		</g>
		<g>
			<path class="st21" d="M760,160.3v-5h-1.4v5c0,0.4,0.3,0.7,0.7,0.7l0,0C759.7,161,760,160.7,760,160.3z"/>
			<path class="st21" d="M754.9,162.8c0.3,0.3,0.7,0.3,1,0l3.7-3.7c0.3-0.3,0.3-0.7,0-1l0,0c-0.3-0.3-0.7-0.3-1,0l-3.7,3.7
				C754.6,162.1,754.6,162.6,754.9,162.8L754.9,162.8z"/>
			<path class="st21" d="M762,166.8l-5.3-5.3c-0.3-0.3-0.7-0.3-1,0l0,0c-0.3,0.3-0.3,0.7,0,1l6.2,6.2L762,166.8z"/>
			<path class="st21" d="M754.9,170.2c0.3,0.3,0.7,0.3,1,0l4.2-4.2c0.1-0.1,0.1-0.3,0-0.5l-0.5-0.5c-0.1-0.1-0.3-0.1-0.5,0l-4.2,4.2
				C754.6,169.5,754.6,169.9,754.9,170.2L754.9,170.2z"/>
		</g>
		<path class="st22" d="M703.8,123.8v-5h-1.4v5c0,0.4,0.3,0.7,0.7,0.7l0,0C703.5,124.5,703.8,124.2,703.8,123.8z"/>
		<path class="st22" d="M698.7,126.3c0.3,0.3,0.7,0.3,1,0l3.7-3.7c0.3-0.3,0.3-0.7,0-1l0,0c-0.3-0.3-0.7-0.3-1,0l-3.7,3.7
			C698.4,125.6,698.4,126.1,698.7,126.3L698.7,126.3z"/>
		<path class="st22" d="M700.9,131.5L700.9,131.5c-0.4,0-0.7-0.3-0.7-0.7v-6.3c0-0.4,0.3-0.7,0.7-0.7l0,0c0.4,0,0.7,0.3,0.7,0.7v6.3
			C701.6,131.2,701.2,131.5,700.9,131.5z"/>
		<path class="st22" d="M703.9,129.7L703.9,129.7c-0.3,0.3-0.7,0.3-1,0l-2.5-2.5c-0.3-0.3-0.3-0.7,0-1l0,0c0.3-0.3,0.7-0.3,1,0
			l2.5,2.5C704.2,129,704.2,129.4,703.9,129.7z"/>
	</g>
	<g>
		<path class="st7" d="M872.7,184.4v95.4c0,1.7,1.4,3.1,3.1,3.1h41.8V182.4l-19.1-30.7c-1.5-2.5-5.1-2.5-6.6,0l-18,28.9
			C873.1,181.8,872.7,183.1,872.7,184.4z"/>
		<path class="st4" d="M954.1,282.9h-36.6V182.5h36.6c1.5,0,2.8,1.2,2.8,2.8v94.9C956.9,281.7,955.6,282.9,954.1,282.9z"/>
		<path class="st5" d="M933.1,259.2h-9.3c-1.2,0-2.1-1-2.1-2.1v-12c0-1.2,1-2.1,2.1-2.1h9.3c1.2,0,2.1,1,2.1,2.1v12
			C935.2,258.2,934.2,259.2,933.1,259.2z"/>
		<path class="st0" d="M899.8,256.8h-9.3c-1.2,0-2.1-1-2.1-2.1v-12c0-1.2,1-2.1,2.1-2.1h9.3c1.2,0,2.1,1,2.1,2.1v12
			C901.9,255.9,900.9,256.8,899.8,256.8z"/>
		<path class="st5" d="M951.6,259.2h-9.3c-1.2,0-2.1-1-2.1-2.1v-12c0-1.2,1-2.1,2.1-2.1h9.3c1.2,0,2.1,1,2.1,2.1v12
			C953.7,258.2,952.8,259.2,951.6,259.2z"/>
		<path class="st5" d="M933.1,224.3h-9.3c-1.2,0-2.1-1-2.1-2.1v-12c0-1.2,1-2.1,2.1-2.1h9.3c1.2,0,2.1,1,2.1,2.1v12
			C935.2,223.4,934.2,224.3,933.1,224.3z"/>
		<path class="st0" d="M899.8,224.3h-9.3c-1.2,0-2.1-1-2.1-2.1v-12c0-1.2,1-2.1,2.1-2.1h9.3c1.2,0,2.1,1,2.1,2.1v12
			C901.9,223.4,900.9,224.3,899.8,224.3z"/>
		<path class="st5" d="M951.6,224.3h-9.3c-1.2,0-2.1-1-2.1-2.1v-12c0-1.2,1-2.1,2.1-2.1h9.3c1.2,0,2.1,1,2.1,2.1v12
			C953.7,223.4,952.8,224.3,951.6,224.3z"/>
		<path class="st6" d="M956.8,183.4h-40.2c-0.8,0-1.5-0.4-1.9-1l-20.9-30.9c-0.4-0.7,0-1.6,0.8-1.6h40.2c1.5,0,2.9,0.8,3.8,2
			l19.6,29C958.9,182,958.1,183.4,956.8,183.4z"/>
		<path class="st7" d="M929.9,155h-7.8c-0.6,0-1-0.5-1-1v-10.9h9.9V154C931,154.6,930.5,155,929.9,155z"/>
		<path class="st4" d="M929.9,155H926v-11.9h4.9V154C931,154.6,930.5,155,929.9,155z"/>
		<path class="st7" d="M932,143.2h-11.9c-0.4,0-0.8-0.4-0.8-0.8v-1.5c0-0.4,0.4-0.8,0.8-0.8H932c0.4,0,0.8,0.4,0.8,0.8v1.5
			C932.8,142.8,932.4,143.2,932,143.2z"/>
		<path class="st4" d="M931.9,143.2H926v-3h5.9c0.5,0,0.8,0.4,0.8,0.8v1.4C932.8,142.8,932.4,143.2,931.9,143.2z"/>
		<g>
			<path class="st23" d="M918.4,166.6L918.4,166.6c0.8,0,1.4-0.6,1.4-1.4v-15.3c-0.9,0-2.1,0-2.8,0v15.3
				C917,166,917.6,166.6,918.4,166.6z"/>
			<path class="st23" d="M908.9,167.6L908.9,167.6c0.6,0.6,1.4,0.6,2,0l8.5-8.5c0.6-0.6,0.6-1.4,0-2l0,0c-0.6-0.6-1.4-0.6-2,0
				l-8.5,8.5C908.3,166.2,908.3,167.1,908.9,167.6z"/>
			<path class="st23" d="M922.2,175.4L922.2,175.4c0.6-0.6,0.6-1.4,0-2l-8.5-8.5c-0.6-0.6-1.4-0.6-2,0l0,0c-0.6,0.6-0.6,1.4,0,2
				l8.5,8.5C920.8,175.9,921.7,175.9,922.2,175.4z"/>
		</g>
		<g>
			<path class="st26" d="M885.5,176.6L885.5,176.6c-0.8,0-1.4-0.6-1.4-1.4v-11.1c1.2-1.9,1.4-2.2,2.8-4.5v15.6
				C886.9,176,886.3,176.6,885.5,176.6z"/>
			<path class="st26" d="M895,179.4L895,179.4c-0.6,0.6-1.4,0.6-2,0l-8.5-8.5c-0.6-0.6-0.6-1.4,0-2v0c0.6-0.6,1.4-0.6,2,0l8.5,8.5
				C895.5,177.9,895.5,178.8,895,179.4z"/>
			<path class="st26" d="M877.5,191.3L877.5,191.3c-0.6-0.6-0.6-1.4,0-2l12.7-12.7c0.6-0.6,1.4-0.6,2,0l0,0c0.6,0.6,0.6,1.4,0,2
				l-12.7,12.7C878.9,191.9,878,191.9,877.5,191.3z"/>
			<path class="st26" d="M895,194.3L895,194.3c-0.6,0.6-1.4,0.6-2,0l-8.5-8.5c-0.6-0.6-0.6-1.4,0-2l0,0c0.6-0.6,1.4-0.6,2,0l8.5,8.5
				C895.5,192.9,895.5,193.8,895,194.3z"/>
		</g>
	</g>
	<g>
		<circle class="st5" cx="838.1" cy="95.7" r="47.6"/>
		<circle class="st5" cx="849.6" cy="162.2" r="35.1"/>
		<circle class="st5" cx="866.8" cy="121.1" r="35.1"/>
		<circle class="st5" cx="830.1" cy="206" r="23.1"/>
		<circle class="st5" cx="810.9" cy="219.1" r="21.8"/>
		<circle class="st5" cx="798.9" cy="237.9" r="13.1"/>
		<circle class="st5" cx="853.7" cy="207" r="20"/>
	</g>
	<g>
		<path class="st4" d="M746.2,195.2l24.9,34.7c0.4,0.5,0.6,1.1,0.6,1.8l0,46.9c0,1.7-1.4,3.1-3.1,3.1l-49.9,0l0-51l23.8-35.5
			C743.4,193.9,745.3,193.9,746.2,195.2z"/>
		<path class="st5" d="M733.8,281.7l22.6,0l0-35.6c0-2.5-2-4.4-4.4-4.4l-13.7,0c-2.5,0-4.4,2-4.4,4.4L733.8,281.7z"/>
		<path class="st7" d="M671.3,281.8l47.6,0l0-50.9l-47.6,0c-1.5,0-2.8,1.2-2.8,2.8l0,45.4C668.5,280.5,669.7,281.8,671.3,281.8z"/>
		<path class="st0" d="M698.6,268l9.3,0c1.2,0,2.1-1,2.1-2.1l0-19.5c0-1.2-1-2.1-2.1-2.1l-9.3,0c-1.2,0-2.1,1-2.1,2.1l0,19.5
			C696.5,267.1,697.5,268,698.6,268z"/>
		<path class="st0" d="M676.8,268.1l9.3,0c1.2,0,2.1-1,2.1-2.1l0-19.5c0-1.2-1-2.1-2.1-2.1l-9.3,0c-1.2,0-2.1,1-2.1,2.1l0,19.5
			C674.7,267.1,675.6,268.1,676.8,268.1z"/>
		<path class="st8" d="M670.4,233.1l47.3,0c0.9,0,1.8-0.5,2.3-1.2l24.6-36.4c0.5-0.8,0-1.8-1-1.8l-47.3,0c-1.8,0-3.4,0.9-4.4,2.4
			l-23,34.2C668,231.3,668.9,233.1,670.4,233.1z"/>
		<path class="st4" d="M705.2,203.4l7.8,0c0.6,0,1-0.5,1-1l0-10.9l-9.9,0l0,10.9C704.2,202.9,704.7,203.4,705.2,203.4z"/>
		<path class="st7" d="M705.3,203.4l3.9,0l0-11.9l-4.9,0l0,10.8C704.2,202.9,704.7,203.4,705.3,203.4z"/>
		<path class="st4" d="M703.2,191.5l11.9,0c0.4,0,0.8-0.4,0.8-0.8l0-1.5c0-0.4-0.4-0.8-0.8-0.8l-11.9,0c-0.4,0-0.8,0.4-0.8,0.8
			l0,1.5C702.4,191.1,702.8,191.5,703.2,191.5z"/>
		<path class="st7" d="M703.2,191.5l5.9,0l0-3l-5.9,0c-0.5,0-0.8,0.4-0.8,0.8l0,1.4C702.4,191.1,702.8,191.5,703.2,191.5z"/>
		<g>
			<path class="st27" d="M699,261.8l0,6.2l1.7,0l0-6.2c0-0.5-0.4-0.9-0.9-0.9l0,0C699.4,260.9,699,261.3,699,261.8z"/>
			<path class="st27" d="M705.3,258.7c-0.3-0.3-0.9-0.3-1.2,0l-4.6,4.6c-0.3,0.3-0.3,0.9,0,1.2l0,0c0.3,0.3,0.9,0.3,1.2,0l4.6-4.6
				C705.7,259.6,705.7,259,705.3,258.7L705.3,258.7z"/>
			<path class="st27" d="M696.4,253.8l6.5,6.5c0.3,0.3,0.9,0.3,1.2,0l0,0c0.3-0.3,0.3-0.9,0-1.2l-7.7-7.7L696.4,253.8z"/>
			<path class="st27" d="M705.3,249.6c-0.3-0.3-0.9-0.3-1.2,0l-5.2,5.2c-0.2,0.2-0.2,0.4,0,0.6l0.6,0.6c0.2,0.2,0.4,0.2,0.6,0
				l5.2-5.2C705.7,250.4,705.7,249.9,705.3,249.6L705.3,249.6z"/>
		</g>
	</g>
	<g>
		<path class="st4" d="M1024.3,187.2v95.4c0,1.7-1.4,3.1-3.1,3.1h-41.8V185.2l19.1-30.7c1.5-2.5,5.1-2.5,6.6,0l18,28.9
			C1024,184.6,1024.3,185.9,1024.3,187.2z"/>
		<path class="st7" d="M942.9,285.7h36.6V185.2h-36.6c-1.5,0-2.8,1.2-2.8,2.8v94.9C940.1,284.4,941.4,285.7,942.9,285.7z"/>
		<path class="st0" d="M964,261.9h9.3c1.2,0,2.1-1,2.1-2.1v-12c0-1.2-1-2.1-2.1-2.1H964c-1.2,0-2.1,1-2.1,2.1v12
			C961.8,261,962.8,261.9,964,261.9z"/>
		<path class="st5" d="M997.2,259.6h9.3c1.2,0,2.1-1,2.1-2.1v-12c0-1.2-1-2.1-2.1-2.1h-9.3c-1.2,0-2.1,1-2.1,2.1v12
			C995.1,258.6,996.1,259.6,997.2,259.6z"/>
		<path class="st0" d="M945.4,261.9h9.3c1.2,0,2.1-1,2.1-2.1v-12c0-1.2-1-2.1-2.1-2.1h-9.3c-1.2,0-2.1,1-2.1,2.1v12
			C943.3,261,944.2,261.9,945.4,261.9z"/>
		<path class="st0" d="M964,227.1h9.3c1.2,0,2.1-1,2.1-2.1v-12c0-1.2-1-2.1-2.1-2.1H964c-1.2,0-2.1,1-2.1,2.1v12
			C961.8,226.1,962.8,227.1,964,227.1z"/>
		<path class="st5" d="M997.2,227.1h9.3c1.2,0,2.1-1,2.1-2.1v-12c0-1.2-1-2.1-2.1-2.1h-9.3c-1.2,0-2.1,1-2.1,2.1v12
			C995.1,226.1,996.1,227.1,997.2,227.1z"/>
		<path class="st0" d="M945.4,227.1h9.3c1.2,0,2.1-1,2.1-2.1v-12c0-1.2-1-2.1-2.1-2.1h-9.3c-1.2,0-2.1,1-2.1,2.1v12
			C943.3,226.1,944.2,227.1,945.4,227.1z"/>
		<path class="st8" d="M940.2,186.2h40.2c0.8,0,1.5-0.4,1.9-1l20.9-30.9c0.4-0.7,0-1.6-0.8-1.6h-40.2c-1.5,0-2.9,0.8-3.8,2l-19.6,29
			C938.2,184.7,938.9,186.2,940.2,186.2z"/>
		<path class="st4" d="M967.1,157.8h7.8c0.6,0,1-0.5,1-1v-10.9h-9.9v10.9C966.1,157.4,966.5,157.8,967.1,157.8z"/>
		<path class="st7" d="M967.1,157.8h3.9v-11.9h-4.9v10.8C966.1,157.3,966.5,157.8,967.1,157.8z"/>
		<path class="st4" d="M965,145.9H977c0.4,0,0.8-0.4,0.8-0.8v-1.5c0-0.4-0.4-0.8-0.8-0.8H965c-0.4,0-0.8,0.4-0.8,0.8v1.5
			C964.3,145.6,964.6,145.9,965,145.9z"/>
		<path class="st7" d="M965.1,145.9h5.9v-3h-5.9c-0.5,0-0.8,0.4-0.8,0.8v1.4C964.3,145.6,964.6,145.9,965.1,145.9z"/>
		<g>
			<path class="st19" d="M964.6,169.4L964.6,169.4c0.8,0,1.4-0.6,1.4-1.4v-15.3c-0.9,0-2.1,0-2.8,0V168
				C963.2,168.8,963.9,169.4,964.6,169.4z"/>
			<path class="st19" d="M955.2,170.4L955.2,170.4c0.6,0.6,1.4,0.6,2,0l8.5-8.5c0.6-0.6,0.6-1.4,0-2l0,0c-0.6-0.6-1.4-0.6-2,0
				l-8.5,8.5C954.6,168.9,954.6,169.8,955.2,170.4z"/>
			<path class="st19" d="M968.5,178.2L968.5,178.2c0.6-0.6,0.6-1.4,0-2l-8.5-8.5c-0.6-0.6-1.4-0.6-2,0v0c-0.6,0.6-0.6,1.4,0,2
				l8.5,8.5C967,178.7,967.9,178.7,968.5,178.2z"/>
		</g>
	</g>
	<g>
		<path class="st1" d="M772.7,205.9l-24.8,34.7c-0.4,0.5-0.6,1.1-0.6,1.8v46.9c0,1.7,1.4,3.1,3.1,3.1h49.9v-51l-23.8-35.4
			C775.5,204.6,773.6,204.6,772.7,205.9z"/>
		<path class="st0" d="M785.2,292.4h-22.6v-35.6c0-2.5,2-4.4,4.4-4.4h13.7c2.5,0,4.4,2,4.4,4.4V292.4z"/>
		<path class="st4" d="M847.7,292.2h-47.6v-50.9h47.6c1.5,0,2.8,1.2,2.8,2.8v45.4C850.5,291,849.2,292.2,847.7,292.2z"/>
		<path class="st5" d="M820.3,278.7H811c-1.2,0-2.1-1-2.1-2.1V257c0-1.2,1-2.1,2.1-2.1h9.3c1.2,0,2.1,1,2.1,2.1v19.5
			C822.5,277.7,821.5,278.7,820.3,278.7z"/>
		<path class="st5" d="M842.2,278.7h-9.3c-1.2,0-2.1-1-2.1-2.1V257c0-1.2,1-2.1,2.1-2.1h9.3c1.2,0,2.1,1,2.1,2.1v19.5
			C844.3,277.7,843.3,278.7,842.2,278.7z"/>
		<path class="st8" d="M848.6,243.7h-47.3c-0.9,0-1.8-0.5-2.3-1.2L774.4,206c-0.5-0.8,0-1.8,1-1.8h47.3c1.8,0,3.4,0.9,4.4,2.4
			l23.1,34.1C851,242,850.1,243.7,848.6,243.7z"/>
		<path class="st1" d="M813.7,214h-7.8c-0.6,0-1-0.5-1-1v-10.9h9.9V213C814.7,213.5,814.2,214,813.7,214z"/>
		<path class="st4" d="M813.6,214h-3.9v-11.9h4.9v10.8C814.7,213.5,814.2,214,813.6,214z"/>
		<path class="st1" d="M815.7,202.1h-11.9c-0.4,0-0.8-0.4-0.8-0.8v-1.5c0-0.4,0.4-0.8,0.8-0.8h11.9c0.4,0,0.8,0.4,0.8,0.8v1.5
			C816.5,201.8,816.1,202.1,815.7,202.1z"/>
		<path class="st4" d="M815.7,202.1h-5.9v-3h5.9c0.5,0,0.8,0.4,0.8,0.8v1.4C816.5,201.8,816.1,202.1,815.7,202.1z"/>
		<g>
			<path class="st28" d="M781,234.7L781,234.7c-0.8,0-1.4-0.6-1.4-1.4V214l2.8,4v15.4C782.4,234.1,781.8,234.7,781,234.7z"/>
			<path class="st28" d="M790.5,237.5L790.5,237.5c-0.6,0.6-1.4,0.6-2,0L780,229c-0.6-0.6-0.6-1.4,0-2h0c0.6-0.6,1.4-0.6,2,0
				l8.5,8.5C791,236.1,791,237,790.5,237.5z"/>
			<path class="st28" d="M773,249.4L773,249.4c-0.6-0.6-0.6-1.4,0-2l12.7-12.7c0.6-0.6,1.4-0.6,2,0l0,0c0.6,0.6,0.6,1.4,0,2
				L775,249.4C774.4,250,773.5,250,773,249.4z"/>
			<path class="st28" d="M790.5,252.5L790.5,252.5c-0.6,0.6-1.4,0.6-2,0L780,244c-0.6-0.6-0.6-1.4,0-2l0,0c0.6-0.6,1.4-0.6,2,0
				l8.5,8.5C791,251,791,251.9,790.5,252.5z"/>
		</g>
	</g>
	<g>
		<path class="st1" d="M850.9,206.3L826,241c-0.4,0.5-0.6,1.1-0.6,1.8v46.9c0,1.7,1.4,3.1,3.1,3.1h49.9v-51l-23.8-35.4
			C853.7,205,851.8,205,850.9,206.3z"/>
		<path class="st5" d="M863.4,292.8h-22.6v-35.6c0-2.5,2-4.4,4.4-4.4H859c2.5,0,4.4,2,4.4,4.4V292.8z"/>
		<path class="st4" d="M925.9,292.8h-47.6v-50.9h47.6c1.5,0,2.8,1.2,2.8,2.8V290C928.7,291.6,927.4,292.8,925.9,292.8z"/>
		<path class="st5" d="M898.5,279.1h-9.3c-1.2,0-2.1-1-2.1-2.1v-19.5c0-1.2,1-2.1,2.1-2.1h9.3c1.2,0,2.1,1,2.1,2.1V277
			C900.7,278.2,899.7,279.1,898.5,279.1z"/>
		<path class="st5" d="M920.4,279.1H911c-1.2,0-2.1-1-2.1-2.1v-19.5c0-1.2,1-2.1,2.1-2.1h9.3c1.2,0,2.1,1,2.1,2.1V277
			C922.5,278.2,921.5,279.1,920.4,279.1z"/>
		<path class="st6" d="M926.8,244.1h-47.3c-0.9,0-1.8-0.5-2.3-1.2l-24.6-36.4c-0.5-0.8,0-1.8,1-1.8h47.3c1.8,0,3.4,0.9,4.4,2.4
			l23.1,34.1C929.2,242.4,928.3,244.1,926.8,244.1z"/>
		<path class="st1" d="M891.9,214.4H884c-0.6,0-1-0.5-1-1v-10.9h9.9v10.9C892.9,214,892.4,214.4,891.9,214.4z"/>
		<path class="st4" d="M891.8,214.4H888v-11.9h4.9v10.8C892.9,214,892.4,214.4,891.8,214.4z"/>
		<path class="st1" d="M893.9,202.6H882c-0.4,0-0.8-0.4-0.8-0.8v-1.5c0-0.4,0.4-0.8,0.8-0.8h11.9c0.4,0,0.8,0.4,0.8,0.8v1.5
			C894.7,202.2,894.3,202.6,893.9,202.6z"/>
		<path class="st4" d="M893.9,202.6H888v-3h5.9c0.5,0,0.8,0.4,0.8,0.8v1.4C894.7,202.2,894.3,202.6,893.9,202.6z"/>
		<path class="st23" d="M896.4,221.2L896.4,221.2c-0.8,0-1.4-0.6-1.4-1.4v-15.3c0.9,0,2.1,0,2.8,0v15.3
			C897.8,220.6,897.2,221.2,896.4,221.2z"/>
		<path class="st23" d="M905.9,222.2L905.9,222.2c-0.6,0.6-1.4,0.6-2,0l-8.5-8.5c-0.6-0.6-0.6-1.4,0-2l0,0c0.6-0.6,1.4-0.6,2,0
			l8.5,8.5C906.5,220.8,906.5,221.7,905.9,222.2z"/>
		<path class="st23" d="M885.3,237L885.3,237c-0.6-0.6-0.6-1.4,0-2l16.3-16.3c0.6-0.6,1.4-0.6,2,0l0,0c0.6,0.6,0.6,1.4,0,2
			L887.3,237C886.8,237.5,885.9,237.5,885.3,237z"/>
		<path class="st23" d="M897.7,240.1L897.7,240.1c-0.6,0.6-1.4,0.6-2,0l-6-6c-0.6-0.6-0.6-1.4,0-2l0,0c0.6-0.6,1.4-0.6,2,0l6,6
			C898.3,238.7,898.3,239.6,897.7,240.1z"/>
	</g>
	<g>
		<circle class="st5" cx="727.9" cy="208.3" r="13.9"/>
		<circle class="st5" cx="724.5" cy="227.7" r="10.2"/>
		<circle class="st5" cx="719.5" cy="215.7" r="10.2"/>
		<circle class="st5" cx="730.2" cy="240.5" r="6.7"/>
		<circle class="st5" cx="735.8" cy="244.3" r="6.4"/>
		<circle class="st5" cx="739.4" cy="249.7" r="3.8"/>
		<circle class="st5" cx="723.3" cy="240.8" r="5.8"/>
	</g>
	<g>
		<path class="st7" d="M608.3,202.4v95.4c0,1.7,1.4,3.1,3.1,3.1h41.8V200.3L634,169.7c-1.5-2.5-5.1-2.5-6.6,0l-18,28.9
			C608.7,199.7,608.3,201,608.3,202.4z"/>
		<path class="st4" d="M689.7,300.8h-36.6V200.4h36.6c1.5,0,2.8,1.2,2.8,2.8v94.9C692.5,299.6,691.3,300.8,689.7,300.8z"/>
		<path class="st5" d="M668.7,277.1h-9.3c-1.2,0-2.1-1-2.1-2.1v-12c0-1.2,1-2.1,2.1-2.1h9.3c1.2,0,2.1,1,2.1,2.1v12
			C670.8,276.1,669.9,277.1,668.7,277.1z"/>
		<path class="st5" d="M635.4,274.7h-9.3c-1.2,0-2.1-1-2.1-2.1v-12c0-1.2,1-2.1,2.1-2.1h9.3c1.2,0,2.1,1,2.1,2.1v12
			C637.5,273.8,636.6,274.7,635.4,274.7z"/>
		<path class="st5" d="M687.2,277.1h-9.3c-1.2,0-2.1-1-2.1-2.1v-12c0-1.2,1-2.1,2.1-2.1h9.3c1.2,0,2.1,1,2.1,2.1v12
			C689.4,276.1,688.4,277.1,687.2,277.1z"/>
		<path class="st5" d="M668.7,242.3h-9.3c-1.2,0-2.1-1-2.1-2.1v-12c0-1.2,1-2.1,2.1-2.1h9.3c1.2,0,2.1,1,2.1,2.1v12
			C670.8,241.3,669.9,242.3,668.7,242.3z"/>
		<path class="st5" d="M635.4,242.3h-9.3c-1.2,0-2.1-1-2.1-2.1v-12c0-1.2,1-2.1,2.1-2.1h9.3c1.2,0,2.1,1,2.1,2.1v12
			C637.5,241.3,636.6,242.3,635.4,242.3z"/>
		<path class="st5" d="M687.2,242.3h-9.3c-1.2,0-2.1-1-2.1-2.1v-12c0-1.2,1-2.1,2.1-2.1h9.3c1.2,0,2.1,1,2.1,2.1v12
			C689.4,241.3,688.4,242.3,687.2,242.3z"/>
		<path class="st8" d="M692.5,201.4h-40.2c-0.8,0-1.5-0.4-1.9-1l-20.9-30.9c-0.4-0.7,0-1.6,0.8-1.6h40.2c1.5,0,2.9,0.8,3.8,2
			l19.6,29C694.5,199.9,693.7,201.4,692.5,201.4z"/>
		<g>
			<path class="st4" d="M665.6,173h-7.8c-0.6,0-1-0.5-1-1v-10.9h9.9v10.9C666.6,172.5,666.1,173,665.6,173z"/>
			<path class="st1" d="M665.5,173h-3.9v-11.9h4.9v10.8C666.6,172.5,666.1,173,665.5,173z"/>
			<path class="st4" d="M667.6,161.1h-11.9c-0.4,0-0.8-0.4-0.8-0.8v-1.5c0-0.4,0.4-0.8,0.8-0.8h11.9c0.4,0,0.8,0.4,0.8,0.8v1.5
				C668.4,160.7,668,161.1,667.6,161.1z"/>
			<path class="st1" d="M667.5,161.1h-5.9v-3h5.9c0.5,0,0.8,0.4,0.8,0.8v1.4C668.4,160.7,668,161.1,667.5,161.1z"/>
		</g>
		<g>
			<path class="st19" d="M668,184.5L668,184.5c-0.8,0-1.4-0.6-1.4-1.4v-15.3c0.9,0,2.1,0,2.8,0v15.3
				C669.4,183.9,668.8,184.5,668,184.5z"/>
			<path class="st19" d="M677.5,185.5L677.5,185.5c-0.6,0.6-1.4,0.6-2,0l-8.5-8.5c-0.6-0.6-0.6-1.4,0-2l0,0c0.6-0.6,1.4-0.6,2,0
				l8.5,8.5C678,184.1,678,185,677.5,185.5z"/>
			<path class="st19" d="M664.1,193.3L664.1,193.3c-0.6-0.6-0.6-1.4,0-2l8.5-8.5c0.6-0.6,1.4-0.6,2,0v0c0.6,0.6,0.6,1.4,0,2
				l-8.5,8.5C665.6,193.9,664.7,193.9,664.1,193.3z"/>
		</g>
	</g>
</g>
<g id="ROW2">
</g>
<g id="Layer_16">
</g>
</svg>
