<?xml version="1.0" encoding="utf-8"?>
<!-- Generator: Adobe Illustrator 19.1.0, SVG Export Plug-In . SVG Version: 6.00 Build 0)  -->
<svg version="1.1" xmlns="http://www.w3.org/2000/svg" xmlns:xlink="http://www.w3.org/1999/xlink" x="0px" y="0px"
	 viewBox="0 0 100 160" style="enable-background:new 0 0 100 160;" xml:space="preserve">
<style type="text/css">
	.st0{fill:#33A89D;}
	.st1{fill:#18717A;}
	.st2{display:none;}
	.st3{display:inline;}
	.st4{fill:#1A7F84;}
	.st5{fill:#84D3C9;}
	.st6{fill:#EA9C68;}
	.st7{fill:#176266;}
	.st8{fill:#5B463B;}
	.st9{fill:#1B8989;}
	.st10{fill:#EFEFEF;}
	.st11{fill:#4ACCC2;}
	.st12{fill:#1C88A5;}
	.st13{fill:#1B7989;}
	.st14{fill:#31AA9B;}
	.st15{fill:#EDA574;}
	.st16{fill:#F2F9F8;}
	.st17{fill:#166D6D;}
	.st18{fill:#166468;}
	.st19{fill:#493831;}
	.st20{fill:#135454;}
	.st21{fill:#72B5AB;}
	.st22{fill:#2D9185;}
	.st23{fill:#BC825B;}
	.st24{fill:#145656;}
	.st25{fill:#145151;}
	.st26{fill:#155656;}
	.st27{fill:#30998C;}
	.st28{fill:#146266;}
	.st29{fill:none;stroke:#1A7F84;stroke-width:6;stroke-linecap:round;stroke-miterlimit:10;}
	.st30{fill:none;stroke:#EA9C68;stroke-width:6;stroke-linecap:round;stroke-miterlimit:10;}
	.st31{fill:none;stroke:#5B463B;stroke-width:6;stroke-linecap:round;stroke-miterlimit:10;}
</style>
<g id="Layer_3">
</g>
<g id="Layer_1">
	<g id="Layer_4">
	</g>
</g>
<g id="Houses">
</g>
<g id="Layer_6" class="st2">
</g>
<g id="Layer_11">
</g>
<g id="Layer_10">
</g>
<g id="Layer_9" class="st2">
</g>
<g id="houserow">
</g>
<g id="Layer_13">
</g>
<g id="Layer_8">
</g>
<g id="Layer_2">
</g>
<g id="Layer_12">
</g>
<g id="Layer_14">
</g>
<g id="ROW2">
</g>
<g id="Layer_16">
	<g>
		<path class="st7" d="M7.1,50.3v95.4c0,1.7,1.4,3.1,3.1,3.1H52V48.2L32.9,17.6c-1.5-2.5-5.1-2.5-6.6,0l-18,28.9
			C7.5,47.6,7.1,49,7.1,50.3z"/>
		<path class="st4" d="M88.6,148.7H52V48.3h36.6c1.5,0,2.8,1.2,2.8,2.8V146C91.3,147.5,90.1,148.7,88.6,148.7z"/>
		<path class="st5" d="M67.5,125h-9.3c-1.2,0-2.1-1-2.1-2.1v-12c0-1.2,1-2.1,2.1-2.1h9.3c1.2,0,2.1,1,2.1,2.1v12
			C69.6,124,68.7,125,67.5,125z"/>
		<path class="st5" d="M34.2,122.6h-9.3c-1.2,0-2.1-1-2.1-2.1v-12c0-1.2,1-2.1,2.1-2.1h9.3c1.2,0,2.1,1,2.1,2.1v12
			C36.4,121.7,35.4,122.6,34.2,122.6z"/>
		<path class="st5" d="M86,125h-9.3c-1.2,0-2.1-1-2.1-2.1v-12c0-1.2,1-2.1,2.1-2.1H86c1.2,0,2.1,1,2.1,2.1v12
			C88.2,124,87.2,125,86,125z"/>
		<path class="st5" d="M67.5,90.2h-9.3c-1.2,0-2.1-1-2.1-2.1V76c0-1.2,1-2.1,2.1-2.1h9.3c1.2,0,2.1,1,2.1,2.1v12
			C69.6,89.2,68.7,90.2,67.5,90.2z"/>
		<path class="st5" d="M34.2,90.2h-9.3c-1.2,0-2.1-1-2.1-2.1V76c0-1.2,1-2.1,2.1-2.1h9.3c1.2,0,2.1,1,2.1,2.1v12
			C36.4,89.2,35.4,90.2,34.2,90.2z"/>
		<path class="st5" d="M86,90.2h-9.3c-1.2,0-2.1-1-2.1-2.1V76c0-1.2,1-2.1,2.1-2.1H86c1.2,0,2.1,1,2.1,2.1v12
			C88.2,89.2,87.2,90.2,86,90.2z"/>
		<path class="st8" d="M91.3,49.3H51.1c-0.8,0-1.5-0.4-1.9-1L28.2,17.3c-0.4-0.7,0-1.6,0.8-1.6h40.2c1.5,0,2.9,0.8,3.8,2l19.6,29
			C93.3,47.8,92.6,49.3,91.3,49.3z"/>
		<path class="st7" d="M62.4,20.9h-7.8c-0.6,0-1-0.5-1-1V9h9.9v10.9C63.4,20.4,62.9,20.9,62.4,20.9z"/>
		<path class="st4" d="M62.3,20.9h-3.9V9h4.9v10.8C63.4,20.4,62.9,20.9,62.3,20.9z"/>
		<path class="st7" d="M64.4,9H52.5c-0.4,0-0.8-0.4-0.8-0.8V6.8c0-0.4,0.4-0.8,0.8-0.8h11.9c0.4,0,0.8,0.4,0.8,0.8v1.5
			C65.2,8.6,64.9,9,64.4,9z"/>
		<path class="st4" d="M64.4,9h-5.9V6h5.9c0.5,0,0.8,0.4,0.8,0.8v1.4C65.2,8.6,64.8,9,64.4,9z"/>
		<g>
			<path class="st19" d="M66.8,32.5L66.8,32.5c-0.8,0-1.4-0.6-1.4-1.4V15.7c0.9,0,2.1,0,2.8,0V31C68.2,31.8,67.6,32.5,66.8,32.5z"/>
			<path class="st19" d="M76.3,33.5L76.3,33.5c-0.6,0.6-1.4,0.6-2,0L65.8,25c-0.6-0.6-0.6-1.4,0-2v0c0.6-0.6,1.4-0.6,2,0l8.5,8.5
				C76.9,32,76.9,32.9,76.3,33.5z"/>
			<path class="st19" d="M63,41.2L63,41.2c-0.6-0.6-0.6-1.4,0-2l8.5-8.5c0.6-0.6,1.4-0.6,2,0l0,0c0.6,0.6,0.6,1.4,0,2L65,41.2
				C64.4,41.8,63.5,41.8,63,41.2z"/>
		</g>
	</g>
</g>
</svg>
