<?xml version="1.0" encoding="utf-8"?>
<!-- Generator: Adobe Illustrator 19.1.0, SVG Export Plug-In . SVG Version: 6.00 Build 0)  -->
<svg version="1.1" id="Layer_1" xmlns="http://www.w3.org/2000/svg" xmlns:xlink="http://www.w3.org/1999/xlink" x="0px" y="0px"
	 viewBox="192 84.8 1024 312.2" style="enable-background:new 192 84.8 1024 312.2;" xml:space="preserve">
<style type="text/css">
	.st0{display:none;}
	.st1{display:inline;}
	.st2{fill:#176266;}
	.st3{fill:#84D3C9;}
	.st4{fill:#1A7F84;}
	.st5{fill:#5B463B;}
	.st6{fill:#18717A;}
	.st7{fill:#EA9C68;}
	.st8{fill:#1B8989;}
	.st9{fill:#33A89D;}
	.st10{fill:#34514D;}
	.st11{fill:#166D6D;}
	.st12{fill:#166468;}
	.st13{fill:#493831;}
	.st14{fill:#135454;}
	.st15{fill:#72B5AB;}
	.st16{fill:#2D9185;}
	.st17{fill:#BC825B;}
	.st18{fill:#145656;}
	.st19{fill:#145151;}
	.st20{fill:#155656;}
	.st21{fill:#30998C;}
	.st22{fill:#146266;}
</style>
<g id="Layer_3">
</g>
<g id="Layer_1_1_">
	<g id="Layer_4">
	</g>
</g>
<g id="Houses">
</g>
<g id="Layer_6" class="st0">
</g>
<g id="Layer_11">
</g>
<g id="Layer_10">
</g>
<g id="Layer_9" class="st0">
	<g class="st1">
		<path class="st2" d="M883.1,345l-24.8,34.7c-0.4,0.5-0.6,1.1-0.6,1.8v46.9c0,1.7,1.4,3.1,3.1,3.1h49.9v-51l-23.8-35.4
			C886,343.7,884,343.7,883.1,345z"/>
		<path class="st3" d="M895.7,431.5h-22.6v-35.6c0-2.5,2-4.4,4.4-4.4h13.7c2.5,0,4.4,2,4.4,4.4L895.7,431.5L895.7,431.5z"/>
		<path class="st4" d="M958.2,431.5h-47.6v-50.9h47.6c1.5,0,2.8,1.2,2.8,2.8v45.4C960.9,430.3,959.7,431.5,958.2,431.5z"/>
		<path class="st3" d="M930.8,417.8h-9.3c-1.2,0-2.1-1-2.1-2.1v-19.5c0-1.2,1-2.1,2.1-2.1h9.3c1.2,0,2.1,1,2.1,2.1v19.5
			C932.9,416.8,932,417.8,930.8,417.8z"/>
		<path class="st3" d="M952.6,417.8h-9.3c-1.2,0-2.1-1-2.1-2.1v-19.5c0-1.2,1-2.1,2.1-2.1h9.3c1.2,0,2.1,1,2.1,2.1v19.5
			C954.8,416.8,953.8,417.8,952.6,417.8z"/>
		<path class="st5" d="M959,382.8h-47.3c-0.9,0-1.8-0.5-2.3-1.2l-24.6-36.4c-0.5-0.8,0-1.8,1-1.8h47.3c1.8,0,3.4,0.9,4.4,2.4
			l23.1,34.1C961.4,381.1,960.5,382.8,959,382.8z"/>
		<g>
			<path class="st4" d="M924.1,353.1h-7.8c-0.6,0-1-0.5-1-1v-10.9h9.9v10.9C925.1,352.7,924.7,353.1,924.1,353.1z"/>
			<path class="st6" d="M924.1,353.1h-3.9v-11.9h4.9V352C925.1,352.6,924.7,353.1,924.1,353.1z"/>
			<path class="st4" d="M926.2,341.3h-11.9c-0.4,0-0.8-0.4-0.8-0.8V339c0-0.4,0.4-0.8,0.8-0.8h11.9c0.4,0,0.8,0.4,0.8,0.8v1.5
				C926.9,340.9,926.6,341.3,926.2,341.3z"/>
			<path class="st6" d="M926.1,341.3h-5.9v-3h5.9c0.5,0,0.8,0.4,0.8,0.8v1.4C926.9,340.9,926.6,341.3,926.1,341.3z"/>
		</g>
	</g>
	<g class="st1">
		<path class="st4" d="M862.4,341.3v95.4c0,1.7-1.4,3.1-3.1,3.1h-41.8V339.3l19.1-30.7c1.5-2.5,5.1-2.5,6.6,0l18,28.9
			C862,338.7,862.4,340,862.4,341.3z"/>
		<path class="st6" d="M781,439.8h36.6V339.3H781c-1.5,0-2.8,1.2-2.8,2.8V437C778.2,438.5,779.4,439.8,781,439.8z"/>
		<path class="st3" d="M802,416h9.3c1.2,0,2.1-1,2.1-2.1v-12c0-1.2-1-2.1-2.1-2.1H802c-1.2,0-2.1,1-2.1,2.1v12
			C799.9,415,800.8,416,802,416z"/>
		<path class="st3" d="M835.3,413.7h9.3c1.2,0,2.1-1,2.1-2.1v-12c0-1.2-1-2.1-2.1-2.1h-9.3c-1.2,0-2.1,1-2.1,2.1v12
			C833.2,412.7,834.1,413.7,835.3,413.7z"/>
		<path class="st3" d="M783.5,416h9.3c1.2,0,2.1-1,2.1-2.1v-12c0-1.2-1-2.1-2.1-2.1h-9.3c-1.2,0-2.1,1-2.1,2.1v12
			C781.3,415,782.3,416,783.5,416z"/>
		<path class="st3" d="M802,381.2h9.3c1.2,0,2.1-1,2.1-2.1v-12c0-1.2-1-2.1-2.1-2.1H802c-1.2,0-2.1,1-2.1,2.1v12
			C799.9,380.2,800.8,381.2,802,381.2z"/>
		<path class="st3" d="M835.3,381.2h9.3c1.2,0,2.1-1,2.1-2.1v-12c0-1.2-1-2.1-2.1-2.1h-9.3c-1.2,0-2.1,1-2.1,2.1v12
			C833.2,380.2,834.1,381.2,835.3,381.2z"/>
		<path class="st3" d="M783.5,381.2h9.3c1.2,0,2.1-1,2.1-2.1v-12c0-1.2-1-2.1-2.1-2.1h-9.3c-1.2,0-2.1,1-2.1,2.1v12
			C781.3,380.2,782.3,381.2,783.5,381.2z"/>
		<path class="st7" d="M778.2,340.3h40.2c0.8,0,1.5-0.4,1.9-1l20.9-30.9c0.4-0.7,0-1.6-0.8-1.6h-40.2c-1.5,0-2.9,0.8-3.8,2l-19.6,29
			C776.2,338.8,777,340.3,778.2,340.3z"/>
		<g>
			<path class="st4" d="M805.1,311.9h7.8c0.6,0,1-0.5,1-1V300H804v10.9C804.1,311.4,804.6,311.9,805.1,311.9z"/>
			<path class="st6" d="M805.2,311.9h3.9V300h-4.9v10.8C804.1,311.4,804.6,311.9,805.2,311.9z"/>
			<path class="st4" d="M803.1,300H815c0.4,0,0.8-0.4,0.8-0.8v-1.5c0-0.4-0.4-0.8-0.8-0.8h-11.9c-0.4,0-0.8,0.4-0.8,0.8v1.5
				C802.3,299.7,802.7,300,803.1,300z"/>
			<path class="st6" d="M803.1,300h5.9v-3h-5.9c-0.5,0-0.8,0.4-0.8,0.8v1.4C802.3,299.7,802.7,300,803.1,300z"/>
		</g>
	</g>
	<g class="st1">
		<path class="st2" d="M644.2,318.4l-24.8,34.7c-0.4,0.5-0.6,1.1-0.6,1.8v46.9c0,1.7,1.4,3.1,3.1,3.1h49.9v-51L648,318.4
			C647.1,317.1,645.1,317.1,644.2,318.4z"/>
		<path class="st3" d="M656.8,404.9h-22.6v-35.6c0-2.5,2-4.4,4.4-4.4h13.7c2.5,0,4.4,2,4.4,4.4v35.6H656.8z"/>
		<path class="st4" d="M719.3,404.9h-47.6V354h47.6c1.5,0,2.8,1.2,2.8,2.8v45.4C722,403.6,720.8,404.9,719.3,404.9z"/>
		<path class="st3" d="M691.9,391.2h-9.3c-1.2,0-2.1-1-2.1-2.1v-19.5c0-1.2,1-2.1,2.1-2.1h9.3c1.2,0,2.1,1,2.1,2.1v19.5
			C694,390.2,693.1,391.2,691.9,391.2z"/>
		<path class="st3" d="M713.7,391.2h-9.3c-1.2,0-2.1-1-2.1-2.1v-19.5c0-1.2,1-2.1,2.1-2.1h9.3c1.2,0,2.1,1,2.1,2.1v19.5
			C715.9,390.2,714.9,391.2,713.7,391.2z"/>
		<path class="st5" d="M720.1,356.2h-47.3c-0.9,0-1.8-0.5-2.3-1.2l-24.6-36.4c-0.5-0.8,0-1.8,1-1.8h47.3c1.8,0,3.4,0.9,4.4,2.4
			l23.1,34.1C722.5,354.4,721.6,356.2,720.1,356.2z"/>
		<g>
			<path class="st4" d="M685.2,326.5h-7.8c-0.6,0-1-0.5-1-1v-10.9h9.9v10.9C686.2,326,685.8,326.5,685.2,326.5z"/>
			<path class="st6" d="M685.2,326.5h-3.9v-11.9h4.9v10.8C686.2,326,685.8,326.5,685.2,326.5z"/>
			<path class="st4" d="M687.3,314.6h-11.9c-0.4,0-0.8-0.4-0.8-0.8v-1.5c0-0.4,0.4-0.8,0.8-0.8h11.9c0.4,0,0.8,0.4,0.8,0.8v1.5
				C688,314.3,687.7,314.6,687.3,314.6z"/>
			<path class="st6" d="M687.2,314.6h-5.9v-3h5.9c0.5,0,0.8,0.4,0.8,0.8v1.4C688,314.2,687.7,314.6,687.2,314.6z"/>
		</g>
	</g>
	<g class="st1">
		<path class="st4" d="M536.1,318.4l24.8,34.7c0.4,0.5,0.6,1.1,0.6,1.8v46.9c0,1.7-1.4,3.1-3.1,3.1h-49.9v-51l23.8-35.4
			C533.3,317.1,535.2,317.1,536.1,318.4z"/>
		<path class="st3" d="M523.5,404.9h22.6v-35.6c0-2.5-2-4.4-4.4-4.4H528c-2.5,0-4.4,2-4.4,4.4L523.5,404.9L523.5,404.9z"/>
		<path class="st2" d="M461.1,404.9h47.6V354h-47.6c-1.5,0-2.8,1.2-2.8,2.8v45.4C458.3,403.6,459.5,404.9,461.1,404.9z"/>
		<path class="st3" d="M488.4,391.2h9.3c1.2,0,2.1-1,2.1-2.1v-19.5c0-1.2-1-2.1-2.1-2.1h-9.3c-1.2,0-2.1,1-2.1,2.1v19.5
			C486.3,390.2,487.3,391.2,488.4,391.2z"/>
		<path class="st3" d="M466.6,391.2h9.3c1.2,0,2.1-1,2.1-2.1v-19.5c0-1.2-1-2.1-2.1-2.1h-9.3c-1.2,0-2.1,1-2.1,2.1v19.5
			C464.5,390.2,465.4,391.2,466.6,391.2z"/>
		<path class="st7" d="M460.2,356.2h47.3c0.9,0,1.8-0.5,2.3-1.2l24.6-36.4c0.5-0.8,0-1.8-1-1.8h-47.3c-1.8,0-3.4,0.9-4.4,2.4
			l-23.1,34.1C457.8,354.4,458.7,356.2,460.2,356.2z"/>
		<g>
			<path class="st4" d="M495.1,326.5h7.8c0.6,0,1-0.5,1-1v-10.9H494v10.9C494.1,326,494.5,326.5,495.1,326.5z"/>
			<path class="st6" d="M495.1,326.5h3.9v-11.9h-4.9v10.8C494.1,326,494.5,326.5,495.1,326.5z"/>
			<path class="st4" d="M493.1,314.6H505c0.4,0,0.8-0.4,0.8-0.8v-1.5c0-0.4-0.4-0.8-0.8-0.8h-11.9c-0.4,0-0.8,0.4-0.8,0.8v1.5
				C492.3,314.3,492.6,314.6,493.1,314.6z"/>
			<path class="st6" d="M493.1,314.6h5.9v-3h-5.9c-0.5,0-0.8,0.4-0.8,0.8v1.4C492.3,314.2,492.6,314.6,493.1,314.6z"/>
		</g>
	</g>
	<g class="st1">
		<path class="st4" d="M621.7,344.6V440c0,1.7-1.4,3.1-3.1,3.1h-41.8V342.6l19.1-30.7c1.5-2.5,5.1-2.5,6.6,0l18,28.9
			C621.4,342,621.7,343.3,621.7,344.6z"/>
		<path class="st6" d="M540.3,443.1h36.6V342.7h-36.6c-1.5,0-2.8,1.2-2.8,2.8v94.9C537.5,441.8,538.8,443.1,540.3,443.1z"/>
		<path class="st3" d="M561.4,419.3h9.3c1.2,0,2.1-1,2.1-2.1v-12c0-1.2-1-2.1-2.1-2.1h-9.3c-1.2,0-2.1,1-2.1,2.1v12
			C559.2,418.4,560.2,419.3,561.4,419.3z"/>
		<path class="st3" d="M594.6,417h9.3c1.2,0,2.1-1,2.1-2.1v-12c0-1.2-1-2.1-2.1-2.1h-9.3c-1.2,0-2.1,1-2.1,2.1v12
			C592.5,416,593.5,417,594.6,417z"/>
		<path class="st3" d="M542.8,419.3h9.3c1.2,0,2.1-1,2.1-2.1v-12c0-1.2-1-2.1-2.1-2.1h-9.3c-1.2,0-2.1,1-2.1,2.1v12
			C540.7,418.4,541.6,419.3,542.8,419.3z"/>
		<path class="st3" d="M561.4,384.5h9.3c1.2,0,2.1-1,2.1-2.1v-12c0-1.2-1-2.1-2.1-2.1h-9.3c-1.2,0-2.1,1-2.1,2.1v12
			C559.2,383.5,560.2,384.5,561.4,384.5z"/>
		<path class="st3" d="M594.6,384.5h9.3c1.2,0,2.1-1,2.1-2.1v-12c0-1.2-1-2.1-2.1-2.1h-9.3c-1.2,0-2.1,1-2.1,2.1v12
			C592.5,383.5,593.5,384.5,594.6,384.5z"/>
		<path class="st3" d="M542.8,384.5h9.3c1.2,0,2.1-1,2.1-2.1v-12c0-1.2-1-2.1-2.1-2.1h-9.3c-1.2,0-2.1,1-2.1,2.1v12
			C540.7,383.5,541.6,384.5,542.8,384.5z"/>
		<path class="st5" d="M537.6,343.6h40.2c0.8,0,1.5-0.4,1.9-1l20.9-30.9c0.4-0.7,0-1.6-0.8-1.6h-40.2c-1.5,0-2.9,0.8-3.8,2l-19.6,29
			C535.6,342.2,536.3,343.6,537.6,343.6z"/>
		<g>
			<path class="st4" d="M564.5,315.2h7.8c0.6,0,1-0.5,1-1v-10.9h-9.9v10.9C563.5,314.8,563.9,315.2,564.5,315.2z"/>
			<path class="st6" d="M564.5,315.2h3.9v-11.9h-4.9v10.8C563.5,314.7,563.9,315.2,564.5,315.2z"/>
			<path class="st4" d="M562.4,303.3h11.9c0.4,0,0.8-0.4,0.8-0.8V301c0-0.4-0.4-0.8-0.8-0.8h-11.9c-0.4,0-0.8,0.4-0.8,0.8v1.5
				C561.7,303,562,303.3,562.4,303.3z"/>
			<path class="st6" d="M562.5,303.3h5.9v-3h-5.9c-0.5,0-0.8,0.4-0.8,0.8v1.4C561.7,303,562,303.3,562.5,303.3z"/>
		</g>
	</g>
	<g class="st1">
		<path class="st2" d="M384,351v95.4c0,1.7,1.4,3.1,3.1,3.1h41.8V349l-19.1-30.7c-1.5-2.5-5.1-2.5-6.6,0l-18,28.9
			C384.4,348.4,384,349.7,384,351z"/>
		<path class="st4" d="M465.4,449.5h-36.6V349h36.6c1.5,0,2.8,1.2,2.8,2.8v94.9C468.2,448.2,467,449.5,465.4,449.5z"/>
		<path class="st3" d="M444.4,425.7H435c-1.2,0-2.1-1-2.1-2.1v-12c0-1.2,1-2.1,2.1-2.1h9.3c1.2,0,2.1,1,2.1,2.1v12
			C446.5,424.8,445.6,425.7,444.4,425.7z"/>
		<path class="st3" d="M411.1,423.4h-9.3c-1.2,0-2.1-1-2.1-2.1v-12c0-1.2,1-2.1,2.1-2.1h9.3c1.2,0,2.1,1,2.1,2.1v12
			C413.2,422.4,412.3,423.4,411.1,423.4z"/>
		<path class="st3" d="M462.9,425.7h-9.3c-1.2,0-2.1-1-2.1-2.1v-12c0-1.2,1-2.1,2.1-2.1h9.3c1.2,0,2.1,1,2.1,2.1v12
			C465,424.8,464.1,425.7,462.9,425.7z"/>
		<path class="st3" d="M444.4,390.9H435c-1.2,0-2.1-1-2.1-2.1v-12c0-1.2,1-2.1,2.1-2.1h9.3c1.2,0,2.1,1,2.1,2.1v12
			C446.5,389.9,445.6,390.9,444.4,390.9z"/>
		<path class="st3" d="M411.1,390.9h-9.3c-1.2,0-2.1-1-2.1-2.1v-12c0-1.2,1-2.1,2.1-2.1h9.3c1.2,0,2.1,1,2.1,2.1v12
			C413.2,389.9,412.3,390.9,411.1,390.9z"/>
		<path class="st3" d="M462.9,390.9h-9.3c-1.2,0-2.1-1-2.1-2.1v-12c0-1.2,1-2.1,2.1-2.1h9.3c1.2,0,2.1,1,2.1,2.1v12
			C465,389.9,464.1,390.9,462.9,390.9z"/>
		<path class="st5" d="M468.2,350h-40.3c-0.8,0-1.5-0.4-1.9-1l-20.9-30.9c-0.4-0.7,0-1.6,0.8-1.6h40.2c1.5,0,2.9,0.8,3.8,2l19.6,29
			C470.2,348.5,469.4,350,468.2,350z"/>
		<g>
			<path class="st4" d="M441.2,321.6h-7.8c-0.6,0-1-0.5-1-1v-10.9h9.9v10.9C442.3,321.1,441.8,321.6,441.2,321.6z"/>
			<path class="st6" d="M441.2,321.6h-3.9v-11.9h4.9v10.8C442.3,321.1,441.8,321.6,441.2,321.6z"/>
			<path class="st4" d="M443.3,309.7h-11.9c-0.4,0-0.8-0.4-0.8-0.8v-1.5c0-0.4,0.4-0.8,0.8-0.8h11.9c0.4,0,0.8,0.4,0.8,0.8v1.5
				C444.1,309.4,443.7,309.7,443.3,309.7z"/>
			<path class="st6" d="M443.2,309.7h-5.9v-3h5.9c0.5,0,0.8,0.4,0.8,0.8v1.4C444.1,309.4,443.7,309.7,443.2,309.7z"/>
		</g>
	</g>
	<g class="st1">
		<path class="st4" d="M542.9,369l24.8,34.7c0.4,0.5,0.6,1.1,0.6,1.8v46.9c0,1.7-1.4,3.1-3.1,3.1h-49.9v-51l23.8-35.4
			C540,367.7,541.9,367.7,542.9,369z"/>
		<path class="st3" d="M530.3,455.5h22.6v-35.6c0-2.5-2-4.4-4.4-4.4h-13.7c-2.5,0-4.4,2-4.4,4.4v35.6H530.3z"/>
		<path class="st6" d="M467.8,455.5h47.6v-50.9h-47.6c-1.5,0-2.8,1.2-2.8,2.8v45.4C465,454.3,466.3,455.5,467.8,455.5z"/>
		<path class="st3" d="M495.2,441.8h9.3c1.2,0,2.1-1,2.1-2.1v-19.5c0-1.2-1-2.1-2.1-2.1h-9.3c-1.2,0-2.1,1-2.1,2.1v19.5
			C493.1,440.9,494,441.8,495.2,441.8z"/>
		<path class="st3" d="M473.4,441.8h9.3c1.2,0,2.1-1,2.1-2.1v-19.5c0-1.2-1-2.1-2.1-2.1h-9.3c-1.2,0-2.1,1-2.1,2.1v19.5
			C471.2,440.9,472.2,441.8,473.4,441.8z"/>
		<path class="st5" d="M466.9,406.8h47.3c0.9,0,1.8-0.5,2.3-1.2l24.6-36.4c0.5-0.8,0-1.8-1-1.8h-47.3c-1.8,0-3.4,0.9-4.4,2.4
			l-23.1,34.1C464.6,405.1,465.4,406.8,466.9,406.8z"/>
		<g>
			<path class="st4" d="M501.8,377.1h7.8c0.6,0,1-0.5,1-1v-10.9h-9.9v10.9C500.8,376.7,501.3,377.1,501.8,377.1z"/>
			<path class="st6" d="M501.9,377.1h3.9v-11.9h-4.9V376C500.8,376.7,501.3,377.1,501.9,377.1z"/>
			<path class="st4" d="M499.8,365.3h11.9c0.4,0,0.8-0.4,0.8-0.8V363c0-0.4-0.4-0.8-0.8-0.8h-11.9c-0.4,0-0.8,0.4-0.8,0.8v1.5
				C499,364.9,499.4,365.3,499.8,365.3z"/>
			<path class="st6" d="M499.9,365.3h5.9v-3h-5.9c-0.5,0-0.8,0.4-0.8,0.8v1.4C499,364.9,499.4,365.3,499.9,365.3z"/>
		</g>
	</g>
	<g class="st1">
		<path class="st4" d="M797.1,344.6V440c0,1.7-1.4,3.1-3.1,3.1h-41.8V342.5l19.1-30.7c1.5-2.5,5.1-2.5,6.6,0l18,28.9
			C796.7,341.9,797.1,343.2,797.1,344.6z"/>
		<path class="st6" d="M715.7,443h36.6V342.6h-36.6c-1.5,0-2.8,1.2-2.8,2.8v94.9C712.9,441.8,714.1,443,715.7,443z"/>
		<path class="st3" d="M736.7,419.2h9.3c1.2,0,2.1-1,2.1-2.1v-12c0-1.2-1-2.1-2.1-2.1h-9.3c-1.2,0-2.1,1-2.1,2.1v12
			C734.6,418.3,735.5,419.2,736.7,419.2z"/>
		<path class="st3" d="M770,416.9h9.3c1.2,0,2.1-1,2.1-2.1v-12c0-1.2-1-2.1-2.1-2.1H770c-1.2,0-2.1,1-2.1,2.1v12
			C767.9,416,768.8,416.9,770,416.9z"/>
		<path class="st3" d="M718.2,419.2h9.3c1.2,0,2.1-1,2.1-2.1v-12c0-1.2-1-2.1-2.1-2.1h-9.3c-1.2,0-2.1,1-2.1,2.1v12
			C716,418.3,717,419.2,718.2,419.2z"/>
		<path class="st3" d="M736.7,384.4h9.3c1.2,0,2.1-1,2.1-2.1v-12c0-1.2-1-2.1-2.1-2.1h-9.3c-1.2,0-2.1,1-2.1,2.1v12
			C734.6,383.5,735.5,384.4,736.7,384.4z"/>
		<path class="st3" d="M770,384.4h9.3c1.2,0,2.1-1,2.1-2.1v-12c0-1.2-1-2.1-2.1-2.1H770c-1.2,0-2.1,1-2.1,2.1v12
			C767.9,383.5,768.8,384.4,770,384.4z"/>
		<path class="st3" d="M718.2,384.4h9.3c1.2,0,2.1-1,2.1-2.1v-12c0-1.2-1-2.1-2.1-2.1h-9.3c-1.2,0-2.1,1-2.1,2.1v12
			C716,383.5,717,384.4,718.2,384.4z"/>
		<path class="st7" d="M712.9,343.5h40.2c0.8,0,1.5-0.4,1.9-1l21-30.9c0.4-0.7,0-1.6-0.8-1.6H735c-1.5,0-2.9,0.8-3.8,2l-19.6,29
			C710.9,342.1,711.7,343.5,712.9,343.5z"/>
		<g>
			<path class="st4" d="M739.8,315.1h7.8c0.6,0,1-0.5,1-1v-10.9h-9.9v10.9C738.8,314.7,739.3,315.1,739.8,315.1z"/>
			<path class="st6" d="M739.9,315.1h3.9v-11.9h-4.9V314C738.8,314.7,739.3,315.1,739.9,315.1z"/>
			<path class="st4" d="M737.8,303.3h11.9c0.4,0,0.8-0.4,0.8-0.8V301c0-0.4-0.4-0.8-0.8-0.8h-11.9c-0.4,0-0.8,0.4-0.8,0.8v1.5
				C737,302.9,737.4,303.3,737.8,303.3z"/>
			<path class="st6" d="M737.9,303.3h5.9v-3h-5.9c-0.5,0-0.8,0.4-0.8,0.8v1.4C737,302.9,737.4,303.3,737.9,303.3z"/>
		</g>
	</g>
	<g class="st1">
		<path class="st4" d="M693.8,364.1l24.8,34.7c0.4,0.5,0.6,1.1,0.6,1.8v47c0,1.7-1.4,3.1-3.1,3.1h-49.9v-51l23.8-35.4
			C691,362.9,692.9,362.8,693.8,364.1z"/>
		<path class="st3" d="M681.2,450.6h22.6V415c0-2.5-2-4.4-4.4-4.4h-13.7c-2.5,0-4.4,2-4.4,4.4v35.6H681.2z"/>
		<path class="st2" d="M618.8,450.6h47.6v-50.9h-47.6c-1.5,0-2.8,1.2-2.8,2.8v45.4C616,449.4,617.2,450.6,618.8,450.6z"/>
		<path class="st3" d="M646.1,436.9h9.3c1.2,0,2.1-1,2.1-2.1v-19.5c0-1.2-1-2.1-2.1-2.1h-9.3c-1.2,0-2.1,1-2.1,2.1v19.5
			C644,436,645,436.9,646.1,436.9z"/>
		<path class="st3" d="M624.3,436.9h9.3c1.2,0,2.1-1,2.1-2.1v-19.5c0-1.2-1-2.1-2.1-2.1h-9.3c-1.2,0-2.1,1-2.1,2.1v19.5
			C622.2,436,623.1,436.9,624.3,436.9z"/>
		<path class="st7" d="M617.9,401.9h47.3c0.9,0,1.8-0.5,2.3-1.2l24.6-36.4c0.5-0.8,0-1.8-1-1.8h-47.3c-1.8,0-3.4,0.9-4.4,2.4
			L616.3,399C615.5,400.2,616.4,401.9,617.9,401.9z"/>
		<g>
			<path class="st4" d="M652.8,372.3h7.8c0.6,0,1-0.5,1-1v-10.9h-9.9v10.9C651.8,371.8,652.2,372.3,652.8,372.3z"/>
			<path class="st6" d="M652.8,372.3h3.9v-11.9h-4.9v10.8C651.8,371.8,652.2,372.3,652.8,372.3z"/>
			<path class="st4" d="M650.8,360.4h11.9c0.4,0,0.8-0.4,0.8-0.8v-1.5c0-0.4-0.4-0.8-0.8-0.8h-11.9c-0.4,0-0.8,0.4-0.8,0.8v1.5
				C650,360,650.3,360.4,650.8,360.4z"/>
			<path class="st6" d="M650.8,360.4h5.9v-3h-5.9c-0.5,0-0.8,0.4-0.8,0.8v1.4C650,360,650.3,360.4,650.8,360.4z"/>
		</g>
	</g>
	<g class="st1">
		<path class="st4" d="M937.8,341.9v95.4c0,1.7,1.4,3.1,3.1,3.1h41.8V339.8l-19.1-30.7c-1.5-2.5-5.1-2.5-6.6,0L939,338
			C938.2,339.2,937.8,340.5,937.8,341.9z"/>
		<path class="st6" d="M1019.3,440.3h-36.6V339.9h36.6c1.5,0,2.8,1.2,2.8,2.8v94.9C1022,439.1,1020.8,440.3,1019.3,440.3z"/>
		<path class="st3" d="M998.2,416.6h-9.3c-1.2,0-2.1-1-2.1-2.1v-12c0-1.2,1-2.1,2.1-2.1h9.3c1.2,0,2.1,1,2.1,2.1v12
			C1000.3,415.6,999.4,416.6,998.2,416.6z"/>
		<path class="st3" d="M964.9,414.2h-9.3c-1.2,0-2.1-1-2.1-2.1v-12c0-1.2,1-2.1,2.1-2.1h9.3c1.2,0,2.1,1,2.1,2.1v12
			C967.1,413.3,966.1,414.2,964.9,414.2z"/>
		<path class="st3" d="M1016.7,416.6h-9.3c-1.2,0-2.1-1-2.1-2.1v-12c0-1.2,1-2.1,2.1-2.1h9.3c1.2,0,2.1,1,2.1,2.1v12
			C1018.9,415.6,1017.9,416.6,1016.7,416.6z"/>
		<path class="st3" d="M998.2,381.7h-9.3c-1.2,0-2.1-1-2.1-2.1v-12c0-1.2,1-2.1,2.1-2.1h9.3c1.2,0,2.1,1,2.1,2.1v12
			C1000.3,380.8,999.4,381.7,998.2,381.7z"/>
		<path class="st3" d="M964.9,381.7h-9.3c-1.2,0-2.1-1-2.1-2.1v-12c0-1.2,1-2.1,2.1-2.1h9.3c1.2,0,2.1,1,2.1,2.1v12
			C967.1,380.8,966.1,381.7,964.9,381.7z"/>
		<path class="st3" d="M1016.7,381.7h-9.3c-1.2,0-2.1-1-2.1-2.1v-12c0-1.2,1-2.1,2.1-2.1h9.3c1.2,0,2.1,1,2.1,2.1v12
			C1018.9,380.8,1017.9,381.7,1016.7,381.7z"/>
		<path class="st7" d="M1022,340.8h-40.2c-0.8,0-1.5-0.4-1.9-1L959,308.9c-0.4-0.7,0-1.6,0.8-1.6h40.2c1.5,0,2.9,0.8,3.8,2l19.6,29
			C1024,339.4,1023.3,340.8,1022,340.8z"/>
		<g>
			<path class="st4" d="M995.1,312.4h-7.8c-0.6,0-1-0.5-1-1v-10.8h9.9v10.9C996.1,312,995.6,312.4,995.1,312.4z"/>
			<path class="st6" d="M995,312.4h-3.9v-11.8h4.9v10.8C996.1,312,995.6,312.4,995,312.4z"/>
			<path class="st4" d="M997.1,300.6h-11.9c-0.4,0-0.8-0.4-0.8-0.8v-1.5c0-0.4,0.4-0.8,0.8-0.8h11.9c0.4,0,0.8,0.4,0.8,0.8v1.5
				C997.9,300.2,997.5,300.6,997.1,300.6z"/>
			<path class="st6" d="M997.1,300.6h-5.9v-3h5.9c0.5,0,0.8,0.4,0.8,0.8v1.4C997.9,300.2,997.5,300.6,997.1,300.6z"/>
		</g>
	</g>
	<g class="st1">
		<path class="st2" d="M1146.5,317.9l24.8,34.7c0.4,0.5,0.6,1.1,0.6,1.8v46.9c0,1.7-1.4,3.1-3.1,3.1H1119v-51l23.8-35.4
			C1143.7,316.6,1145.6,316.6,1146.5,317.9z"/>
		<path class="st3" d="M1134,404.4h22.6v-35.6c0-2.5-2-4.4-4.4-4.4h-13.7c-2.5,0-4.4,2-4.4,4.4L1134,404.4L1134,404.4z"/>
		<path class="st4" d="M1071.5,404.4h47.6v-50.9h-47.6c-1.5,0-2.8,1.2-2.8,2.8v45.4C1068.7,403.2,1070,404.4,1071.5,404.4z"/>
		<path class="st3" d="M1098.9,390.7h9.3c1.2,0,2.1-1,2.1-2.1v-19.5c0-1.2-1-2.1-2.1-2.1h-9.3c-1.2,0-2.1,1-2.1,2.1v19.5
			C1096.7,389.8,1097.7,390.7,1098.9,390.7z"/>
		<path class="st3" d="M1077,390.7h9.3c1.2,0,2.1-1,2.1-2.1v-19.5c0-1.2-1-2.1-2.1-2.1h-9.3c-1.2,0-2.1,1-2.1,2.1v19.5
			C1074.9,389.8,1075.9,390.7,1077,390.7z"/>
		<path class="st5" d="M1070.6,355.7h47.3c0.9,0,1.8-0.5,2.3-1.2l24.6-36.4c0.5-0.8,0-1.8-1-1.8h-47.3c-1.8,0-3.4,0.9-4.4,2.4
			l-23.1,34.1C1068.2,354,1069.1,355.7,1070.6,355.7z"/>
		<g>
			<path class="st4" d="M1105.5,326h7.8c0.6,0,1-0.5,1-1v-10.9h-9.9V325C1104.5,325.6,1105,326,1105.5,326z"/>
			<path class="st6" d="M1105.6,326h3.9v-11.9h-4.9v10.8C1104.5,325.6,1105,326,1105.6,326z"/>
			<path class="st4" d="M1103.5,314.2h11.9c0.4,0,0.8-0.4,0.8-0.8v-1.5c0-0.4-0.4-0.8-0.8-0.8h-11.9c-0.4,0-0.8,0.4-0.8,0.8v1.5
				C1102.7,313.8,1103.1,314.2,1103.5,314.2z"/>
			<path class="st6" d="M1103.5,314.2h5.9v-3h-5.9c-0.5,0-0.8,0.4-0.8,0.8v1.4C1102.7,313.8,1103.1,314.2,1103.5,314.2z"/>
		</g>
	</g>
	<g class="st1">
		<path class="st4" d="M1254.6,317.9l-24.8,34.7c-0.4,0.5-0.6,1.1-0.6,1.8v46.9c0,1.7,1.4,3.1,3.1,3.1h49.9v-51l-23.8-35.4
			C1257.5,316.6,1255.6,316.6,1254.6,317.9z"/>
		<path class="st3" d="M1267.2,404.4h-22.6v-35.6c0-2.5,2-4.4,4.4-4.4h13.7c2.5,0,4.4,2,4.4,4.4L1267.2,404.4L1267.2,404.4z"/>
		<path class="st2" d="M1329.7,404.4h-47.6v-50.9h47.6c1.5,0,2.8,1.2,2.8,2.8v45.4C1332.5,403.2,1331.2,404.4,1329.7,404.4z"/>
		<path class="st3" d="M1302.3,390.7h-9.3c-1.2,0-2.1-1-2.1-2.1v-19.5c0-1.2,1-2.1,2.1-2.1h9.3c1.2,0,2.1,1,2.1,2.1v19.5
			C1304.5,389.8,1303.5,390.7,1302.3,390.7z"/>
		<path class="st3" d="M1324.1,390.7h-9.3c-1.2,0-2.1-1-2.1-2.1v-19.5c0-1.2,1-2.1,2.1-2.1h9.3c1.2,0,2.1,1,2.1,2.1v19.5
			C1326.3,389.8,1325.3,390.7,1324.1,390.7z"/>
		<path class="st7" d="M1330.6,355.7h-47.3c-0.9,0-1.8-0.5-2.3-1.2l-24.6-36.4c-0.5-0.8,0-1.8,1-1.8h47.3c1.8,0,3.4,0.9,4.4,2.4
			l23.1,34.1C1332.9,354,1332.1,355.7,1330.6,355.7z"/>
		<g>
			<path class="st4" d="M1295.7,326h-7.8c-0.6,0-1-0.5-1-1v-10.9h9.9V325C1296.7,325.6,1296.2,326,1295.7,326z"/>
			<path class="st6" d="M1295.6,326h-3.9v-11.9h4.9v10.8C1296.7,325.6,1296.2,326,1295.6,326z"/>
			<path class="st4" d="M1297.7,314.2h-11.9c-0.4,0-0.8-0.4-0.8-0.8v-1.5c0-0.4,0.4-0.8,0.8-0.8h11.9c0.4,0,0.8,0.4,0.8,0.8v1.5
				C1298.5,313.8,1298.1,314.2,1297.7,314.2z"/>
			<path class="st6" d="M1297.7,314.2h-5.9v-3h5.9c0.5,0,0.8,0.4,0.8,0.8v1.4C1298.5,313.8,1298.1,314.2,1297.7,314.2z"/>
		</g>
	</g>
	<g class="st1">
		<path class="st4" d="M1169,343.2v95.4c0,1.7,1.4,3.1,3.1,3.1h41.8V341.1l-19.1-30.7c-1.5-2.5-5.1-2.5-6.6,0l-18,28.9
			C1169.4,340.5,1169,341.8,1169,343.2z"/>
		<path class="st6" d="M1250.4,441.6h-36.6V341.2h36.6c1.5,0,2.8,1.2,2.8,2.8v94.9C1253.2,440.4,1252,441.6,1250.4,441.6z"/>
		<path class="st3" d="M1229.4,417.9h-9.3c-1.2,0-2.1-1-2.1-2.1v-12c0-1.2,1-2.1,2.1-2.1h9.3c1.2,0,2.1,1,2.1,2.1v12
			C1231.5,416.9,1230.6,417.9,1229.4,417.9z"/>
		<path class="st3" d="M1196.1,415.5h-9.3c-1.2,0-2.1-1-2.1-2.1v-12c0-1.2,1-2.1,2.1-2.1h9.3c1.2,0,2.1,1,2.1,2.1v12
			C1198.2,414.6,1197.3,415.5,1196.1,415.5z"/>
		<path class="st3" d="M1247.9,417.9h-9.3c-1.2,0-2.1-1-2.1-2.1v-12c0-1.2,1-2.1,2.1-2.1h9.3c1.2,0,2.1,1,2.1,2.1v12
			C1250.1,416.9,1249.1,417.9,1247.9,417.9z"/>
		<path class="st3" d="M1229.4,383.1h-9.3c-1.2,0-2.1-1-2.1-2.1v-12c0-1.2,1-2.1,2.1-2.1h9.3c1.2,0,2.1,1,2.1,2.1v12
			C1231.5,382.1,1230.6,383.1,1229.4,383.1z"/>
		<path class="st3" d="M1196.1,383.1h-9.3c-1.2,0-2.1-1-2.1-2.1v-12c0-1.2,1-2.1,2.1-2.1h9.3c1.2,0,2.1,1,2.1,2.1v12
			C1198.2,382.1,1197.3,383.1,1196.1,383.1z"/>
		<path class="st3" d="M1247.9,383.1h-9.3c-1.2,0-2.1-1-2.1-2.1v-12c0-1.2,1-2.1,2.1-2.1h9.3c1.2,0,2.1,1,2.1,2.1v12
			C1250.1,382.1,1249.1,383.1,1247.9,383.1z"/>
		<path class="st5" d="M1253.2,342.2H1213c-0.8,0-1.5-0.4-1.9-1l-20.9-30.9c-0.4-0.7,0-1.6,0.8-1.6h40.2c1.5,0,2.9,0.8,3.8,2
			l19.6,29C1255.2,340.7,1254.4,342.2,1253.2,342.2z"/>
		<g>
			<path class="st4" d="M1226.3,313.8h-7.8c-0.6,0-1-0.5-1-1v-10.9h9.9v10.9C1227.3,313.3,1226.8,313.8,1226.3,313.8z"/>
			<path class="st6" d="M1226.2,313.8h-3.9v-11.9h4.9v10.8C1227.3,313.3,1226.8,313.8,1226.2,313.8z"/>
			<path class="st4" d="M1228.3,301.9h-11.9c-0.4,0-0.8-0.4-0.8-0.8v-1.5c0-0.4,0.4-0.8,0.8-0.8h11.9c0.4,0,0.8,0.4,0.8,0.8v1.5
				C1229.1,301.5,1228.7,301.9,1228.3,301.9z"/>
			<path class="st6" d="M1228.3,301.9h-5.9v-3h5.9c0.5,0,0.8,0.4,0.8,0.8v1.4C1229.1,301.5,1228.7,301.9,1228.3,301.9z"/>
		</g>
	</g>
	<g class="st1">
		<path class="st4" d="M1247.9,362.6l-24.9,34.7c-0.4,0.5-0.6,1.1-0.6,1.8V446c0,1.7,1.4,3.1,3.1,3.1h49.9v-51l-23.8-35.5
			C1250.7,361.3,1248.8,361.3,1247.9,362.6z"/>
		<path class="st3" d="M1260.5,449.1h-22.6v-35.6c0-2.5,2-4.4,4.4-4.4h13.7c2.5,0,4.4,2,4.4,4.4L1260.5,449.1L1260.5,449.1z"/>
		<path class="st6" d="M1322.9,449.1h-47.6v-50.9h47.6c1.5,0,2.8,1.2,2.8,2.8v45.4C1325.7,447.8,1324.5,449.1,1322.9,449.1z"/>
		<path class="st3" d="M1295.6,435.4h-9.3c-1.2,0-2.1-1-2.1-2.1v-19.5c0-1.2,1-2.1,2.1-2.1h9.3c1.2,0,2.1,1,2.1,2.1v19.5
			C1297.7,434.4,1296.7,435.4,1295.6,435.4z"/>
		<path class="st3" d="M1317.4,435.4h-9.3c-1.2,0-2.1-1-2.1-2.1v-19.5c0-1.2,1-2.1,2.1-2.1h9.3c1.2,0,2.1,1,2.1,2.1v19.5
			C1319.5,434.4,1318.6,435.4,1317.4,435.4z"/>
		<path class="st5" d="M1323.8,400.4h-47.3c-0.9,0-1.8-0.5-2.3-1.2l-24.6-36.4c-0.5-0.8,0-1.8,1-1.8h47.3c1.8,0,3.4,0.9,4.4,2.4
			l23.1,34.1C1326.2,398.6,1325.3,400.4,1323.8,400.4z"/>
		<g>
			<path class="st4" d="M1288.9,370.7h-7.8c-0.6,0-1-0.5-1-1v-10.9h9.9v10.9C1289.9,370.2,1289.5,370.7,1288.9,370.7z"/>
			<path class="st6" d="M1288.9,370.7h-3.9v-11.9h4.9v10.8C1289.9,370.2,1289.4,370.7,1288.9,370.7z"/>
			<path class="st4" d="M1290.9,358.8H1279c-0.4,0-0.8-0.4-0.8-0.8v-1.4c0-0.4,0.4-0.8,0.8-0.8h11.9c0.4,0,0.8,0.4,0.8,0.8v1.5
				C1291.7,358.5,1291.4,358.8,1290.9,358.8z"/>
			<path class="st6" d="M1290.9,358.8h-5.9v-3h5.9c0.5,0,0.8,0.4,0.8,0.8v1.4C1291.7,358.4,1291.4,358.8,1290.9,358.8z"/>
		</g>
	</g>
	<g class="st1">
		<path class="st4" d="M1096.9,361.7l-24.8,34.7c-0.4,0.5-0.6,1.1-0.6,1.8v46.9c0,1.7,1.4,3.1,3.1,3.1h49.9v-51l-23.8-35.4
			C1099.8,360.4,1097.9,360.4,1096.9,361.7z"/>
		<path class="st3" d="M1109.5,448.2h-22.6v-35.6c0-2.5,2-4.4,4.4-4.4h13.7c2.5,0,4.4,2,4.4,4.4L1109.5,448.2L1109.5,448.2z"/>
		<path class="st2" d="M1172,448.2h-47.6v-50.9h47.6c1.5,0,2.8,1.2,2.8,2.8v45.4C1174.8,447,1173.5,448.2,1172,448.2z"/>
		<path class="st3" d="M1144.6,434.5h-9.3c-1.2,0-2.1-1-2.1-2.1v-19.5c0-1.2,1-2.1,2.1-2.1h9.3c1.2,0,2.1,1,2.1,2.1v19.5
			C1146.8,433.5,1145.8,434.5,1144.6,434.5z"/>
		<path class="st3" d="M1166.4,434.5h-9.3c-1.2,0-2.1-1-2.1-2.1v-19.5c0-1.2,1-2.1,2.1-2.1h9.3c1.2,0,2.1,1,2.1,2.1v19.5
			C1168.6,433.5,1167.6,434.5,1166.4,434.5z"/>
		<path class="st7" d="M1172.9,399.5h-47.3c-0.9,0-1.8-0.5-2.3-1.2l-24.6-36.4c-0.5-0.8,0-1.8,1-1.8h47.3c1.8,0,3.4,0.9,4.4,2.4
			l23.1,34.1C1175.2,397.8,1174.4,399.5,1172.9,399.5z"/>
		<g>
			<path class="st4" d="M1138,369.8h-7.8c-0.6,0-1-0.5-1-1v-10.9h9.9v10.9C1139,369.4,1138.5,369.8,1138,369.8z"/>
			<path class="st6" d="M1137.9,369.8h-3.9v-11.9h4.9v10.8C1139,369.3,1138.5,369.8,1137.9,369.8z"/>
			<path class="st4" d="M1140,357.9h-11.9c-0.4,0-0.8-0.4-0.8-0.8v-1.5c0-0.4,0.4-0.8,0.8-0.8h11.9c0.4,0,0.8,0.4,0.8,0.8v1.5
				C1140.8,357.6,1140.4,357.9,1140,357.9z"/>
			<path class="st6" d="M1140,357.9h-6v-3h5.9c0.5,0,0.8,0.4,0.8,0.8v1.4C1140.8,357.6,1140.4,357.9,1140,357.9z"/>
		</g>
	</g>
	<g class="st1">
		<path class="st4" d="M993.5,361.7v95.4c0,1.7,1.4,3.1,3.1,3.1h41.8V359.6l-19.1-30.7c-1.5-2.5-5.1-2.5-6.6,0l-18,28.9
			C993.9,359,993.5,360.3,993.5,361.7z"/>
		<path class="st6" d="M1075,460.1h-36.6V359.7h36.6c1.5,0,2.8,1.2,2.8,2.8v94.9C1077.7,458.9,1076.5,460.1,1075,460.1z"/>
		<path class="st3" d="M1053.9,436.4h-9.3c-1.2,0-2.1-1-2.1-2.1v-12c0-1.2,1-2.1,2.1-2.1h9.3c1.2,0,2.1,1,2.1,2.1v12
			C1056,435.4,1055.1,436.4,1053.9,436.4z"/>
		<path class="st3" d="M1020.6,434h-9.3c-1.2,0-2.1-1-2.1-2.1v-12c0-1.2,1-2.1,2.1-2.1h9.3c1.2,0,2.1,1,2.1,2.1v12
			C1022.8,433.1,1021.8,434,1020.6,434z"/>
		<path class="st3" d="M1072.4,436.4h-9.3c-1.2,0-2.1-1-2.1-2.1v-12c0-1.2,1-2.1,2.1-2.1h9.3c1.2,0,2.1,1,2.1,2.1v12
			C1074.6,435.4,1073.6,436.4,1072.4,436.4z"/>
		<path class="st3" d="M1053.9,401.6h-9.3c-1.2,0-2.1-1-2.1-2.1v-12c0-1.2,1-2.1,2.1-2.1h9.3c1.2,0,2.1,1,2.1,2.1v12
			C1056,400.6,1055.1,401.6,1053.9,401.6z"/>
		<path class="st3" d="M1020.6,401.6h-9.3c-1.2,0-2.1-1-2.1-2.1v-12c0-1.2,1-2.1,2.1-2.1h9.3c1.2,0,2.1,1,2.1,2.1v12
			C1022.8,400.6,1021.8,401.6,1020.6,401.6z"/>
		<path class="st3" d="M1072.4,401.6h-9.3c-1.2,0-2.1-1-2.1-2.1v-12c0-1.2,1-2.1,2.1-2.1h9.3c1.2,0,2.1,1,2.1,2.1v12
			C1074.6,400.6,1073.6,401.6,1072.4,401.6z"/>
		<path class="st7" d="M1077.7,360.7h-40.2c-0.8,0-1.5-0.4-1.9-1l-20.9-30.9c-0.4-0.7,0-1.6,0.8-1.6h40.2c1.5,0,2.9,0.8,3.8,2
			l19.6,29C1079.7,359.2,1079,360.7,1077.7,360.7z"/>
		<g>
			<path class="st4" d="M1050.8,332.3h-7.8c-0.6,0-1-0.5-1-1v-10.9h9.9v10.9C1051.8,331.8,1051.3,332.3,1050.8,332.3z"/>
			<path class="st6" d="M1050.8,332.3h-3.9v-11.9h4.9v10.8C1051.8,331.8,1051.3,332.3,1050.8,332.3z"/>
			<path class="st4" d="M1052.8,320.4h-11.9c-0.4,0-0.8-0.4-0.8-0.8v-1.5c0-0.4,0.4-0.8,0.8-0.8h11.9c0.4,0,0.8,0.4,0.8,0.8v1.5
				C1053.6,320,1053.3,320.4,1052.8,320.4z"/>
			<path class="st6" d="M1052.8,320.4h-5.9v-3h5.9c0.5,0,0.8,0.4,0.8,0.8v1.4C1053.6,320,1053.2,320.4,1052.8,320.4z"/>
		</g>
	</g>
	<g class="st1">
		<path class="st8" d="M926.8,369.4l24.8,34.7c0.4,0.5,0.6,1.1,0.6,1.8v46.9c0,1.7-1.4,3.1-3.1,3.1h-49.9v-51l23.8-35.4
			C923.9,368.1,925.9,368.1,926.8,369.4z"/>
		<path class="st3" d="M914.2,455.9h22.6v-35.6c0-2.5-2-4.4-4.4-4.4h-13.7c-2.5,0-4.4,2-4.4,4.4L914.2,455.9L914.2,455.9z"/>
		<path class="st6" d="M851.7,455.9h47.6V405h-47.6c-1.5,0-2.8,1.2-2.8,2.8v45.4C849,454.6,850.2,455.9,851.7,455.9z"/>
		<path class="st3" d="M879.1,442.2h9.3c1.2,0,2.1-1,2.1-2.1v-19.5c0-1.2-1-2.1-2.1-2.1h-9.3c-1.2,0-2.1,1-2.1,2.1v19.5
			C877,441.2,877.9,442.2,879.1,442.2z"/>
		<path class="st3" d="M857.3,442.2h9.3c1.2,0,2.1-1,2.1-2.1v-19.5c0-1.2-1-2.1-2.1-2.1h-9.3c-1.2,0-2.1,1-2.1,2.1v19.5
			C855.1,441.2,856.1,442.2,857.3,442.2z"/>
		<path class="st7" d="M850.9,407.1h47.3c0.9,0,1.8-0.5,2.3-1.2l24.6-36.4c0.5-0.8,0-1.8-1-1.8h-47.3c-1.8,0-3.4,0.9-4.4,2.4
			l-23.1,34.1C848.5,405.4,849.4,407.1,850.9,407.1z"/>
		<g>
			<path class="st4" d="M885.8,377.5h7.8c0.6,0,1-0.5,1-1v-10.9h-9.9v10.9C884.8,377,885.2,377.5,885.8,377.5z"/>
			<path class="st6" d="M885.8,377.5h3.9v-11.9h-4.9v10.8C884.8,377,885.2,377.5,885.8,377.5z"/>
			<path class="st4" d="M883.7,365.6h11.9c0.4,0,0.8-0.4,0.8-0.8v-1.5c0-0.4-0.4-0.8-0.8-0.8h-11.9c-0.4,0-0.8,0.4-0.8,0.8v1.5
				C883,365.3,883.3,365.6,883.7,365.6z"/>
			<path class="st6" d="M883.8,365.6h5.9v-3h-5.9c-0.5,0-0.8,0.4-0.8,0.8v1.4C883,365.2,883.3,365.6,883.8,365.6z"/>
		</g>
	</g>
	<g class="st1">
		<path class="st2" d="M1406.7,359v95.4c0,1.7-1.4,3.1-3.1,3.1h-41.8V356.9l19.1-30.7c1.5-2.5,5.1-2.5,6.6,0l18,28.9
			C1406.4,356.3,1406.7,357.6,1406.7,359z"/>
		<path class="st4" d="M1325.3,457.4h36.6V357h-36.6c-1.5,0-2.8,1.2-2.8,2.8v94.9C1322.6,456.2,1323.8,457.4,1325.3,457.4z"/>
		<path class="st3" d="M1346.4,433.7h9.3c1.2,0,2.1-1,2.1-2.1v-12c0-1.2-1-2.1-2.1-2.1h-9.3c-1.2,0-2.1,1-2.1,2.1v12
			C1344.2,432.7,1345.2,433.7,1346.4,433.7z"/>
		<path class="st3" d="M1379.7,431.3h9.3c1.2,0,2.1-1,2.1-2.1v-12c0-1.2-1-2.1-2.1-2.1h-9.3c-1.2,0-2.1,1-2.1,2.1v12
			C1377.5,430.4,1378.5,431.3,1379.7,431.3z"/>
		<path class="st3" d="M1327.8,433.7h9.3c1.2,0,2.1-1,2.1-2.1v-12c0-1.2-1-2.1-2.1-2.1h-9.3c-1.2,0-2.1,1-2.1,2.1v12
			C1325.7,432.7,1326.7,433.7,1327.8,433.7z"/>
		<path class="st3" d="M1346.4,398.9h9.3c1.2,0,2.1-1,2.1-2.1v-12c0-1.2-1-2.1-2.1-2.1h-9.3c-1.2,0-2.1,1-2.1,2.1v12
			C1344.2,397.9,1345.2,398.9,1346.4,398.9z"/>
		<path class="st3" d="M1379.7,398.9h9.3c1.2,0,2.1-1,2.1-2.1v-12c0-1.2-1-2.1-2.1-2.1h-9.3c-1.2,0-2.1,1-2.1,2.1v12
			C1377.5,397.9,1378.5,398.9,1379.7,398.9z"/>
		<path class="st3" d="M1327.8,398.9h9.3c1.2,0,2.1-1,2.1-2.1v-12c0-1.2-1-2.1-2.1-2.1h-9.3c-1.2,0-2.1,1-2.1,2.1v12
			C1325.7,397.9,1326.7,398.9,1327.8,398.9z"/>
		<path class="st7" d="M1322.6,358h40.2c0.8,0,1.5-0.4,1.9-1l20.9-30.9c0.4-0.7,0-1.6-0.8-1.6h-40.2c-1.5,0-2.9,0.8-3.8,2l-19.6,29
			C1320.6,356.5,1321.3,358,1322.6,358z"/>
		<g>
			<path class="st4" d="M1349.5,329.6h7.8c0.6,0,1-0.5,1-1v-10.9h-9.9v10.9C1348.5,329.1,1348.9,329.6,1349.5,329.6z"/>
			<path class="st6" d="M1349.5,329.6h3.9v-11.9h-4.9v10.8C1348.5,329.1,1349,329.6,1349.5,329.6z"/>
			<path class="st4" d="M1347.5,317.7h11.9c0.4,0,0.8-0.4,0.8-0.8v-1.5c0-0.4-0.4-0.8-0.8-0.8h-11.9c-0.4,0-0.8,0.4-0.8,0.8v1.5
				C1346.7,317.3,1347,317.7,1347.5,317.7z"/>
			<path class="st6" d="M1347.5,317.7h5.9v-3h-5.9c-0.5,0-0.8,0.4-0.8,0.8v1.4C1346.7,317.3,1347.1,317.7,1347.5,317.7z"/>
		</g>
	</g>
</g>
<g id="houserow">
</g>
<g id="Layer_13">
</g>
<g id="Layer_8">
</g>
<g id="Layer_2">
</g>
<g id="Layer_12">
</g>
<g>
	<path class="st2" d="M663.9,228.1v95.4c0,1.7,1.4,3.1,3.1,3.1h41.8V226l-19.1-30.7c-1.5-2.5-5.1-2.5-6.6,0l-18,28.9
		C664.3,225.4,663.9,226.7,663.9,228.1z"/>
	<path class="st4" d="M745.3,326.5h-36.6V226.1h36.6c1.5,0,2.8,1.2,2.8,2.8v94.9C748.1,325.2,746.9,326.5,745.3,326.5z"/>
	<path class="st3" d="M724.3,302.8h-9.4c-1.2,0-2.1-1-2.1-2.1v-12c0-1.2,1-2.1,2.1-2.1h9.3c1.2,0,2.1,1,2.1,2.1v12
		C726.4,301.8,725.4,302.8,724.3,302.8z"/>
	<path class="st9" d="M691,300.4h-9.3c-1.2,0-2.1-1-2.1-2.1v-12c0-1.2,1-2.1,2.1-2.1h9.3c1.2,0,2.1,1,2.1,2.1v12
		C693.1,299.5,692.2,300.4,691,300.4z"/>
	<path class="st3" d="M742.8,302.8h-9.3c-1.2,0-2.1-1-2.1-2.1v-12c0-1.2,1-2.1,2.1-2.1h9.3c1.2,0,2.1,1,2.1,2.1v12
		C744.9,301.8,744,302.8,742.8,302.8z"/>
	<path class="st10" d="M724.3,268h-9.4c-1.2,0-2.1-1-2.1-2.1v-12c0-1.2,1-2.1,2.1-2.1h9.3c1.2,0,2.1,1,2.1,2.1v12
		C726.4,267,725.4,268,724.3,268z"/>
	<path class="st10" d="M691,268h-9.3c-1.2,0-2.1-1-2.1-2.1v-12c0-1.2,1-2.1,2.1-2.1h9.3c1.2,0,2.1,1,2.1,2.1v12
		C693.1,267,692.2,268,691,268z"/>
	<path class="st3" d="M742.8,268h-9.3c-1.2,0-2.1-1-2.1-2.1v-12c0-1.2,1-2.1,2.1-2.1h9.3c1.2,0,2.1,1,2.1,2.1v12
		C744.9,267,744,268,742.8,268z"/>
	<path class="st5" d="M748,227.1h-40.2c-0.8,0-1.5-0.4-1.9-1L685,195.2c-0.4-0.7,0-1.6,0.8-1.6H726c1.5,0,2.9,0.8,3.8,2l19.6,29
		C750.1,225.6,749.3,227.1,748,227.1z"/>
	<path class="st4" d="M721.1,198.7h-7.8c-0.6,0-1-0.5-1-1v-10.9h9.9v10.9C722.2,198.2,721.7,198.7,721.1,198.7z"/>
	<path class="st2" d="M721.1,198.7h-3.9v-11.9h4.9v10.8C722.2,198.2,721.7,198.7,721.1,198.7z"/>
	<path class="st4" d="M723.2,186.8h-11.9c-0.4,0-0.8-0.4-0.8-0.8v-1.5c0-0.4,0.4-0.8,0.8-0.8h11.9c0.4,0,0.8,0.4,0.8,0.8v1.5
		C724,186.4,723.6,186.8,723.2,186.8z"/>
	<path class="st2" d="M723.1,186.8h-5.9v-3h5.9c0.5,0,0.8,0.4,0.8,0.8v1.4C724,186.4,723.6,186.8,723.1,186.8z"/>
	<g>
		<path class="st11" d="M736.7,235L736.7,235c0.8,0,1.4-0.6,1.4-1.4V227h-2.8v6.6C735.3,234.4,735.9,235,736.7,235z"/>
		<path class="st11" d="M727.2,239.1L727.2,239.1c0.6,0.6,1.4,0.6,2,0l8.5-8.5c0.6-0.6,0.6-1.4,0-2l0,0c-0.6-0.6-1.4-0.6-2,0
			l-8.5,8.5C726.7,237.6,726.7,238.5,727.2,239.1z"/>
		<path class="st11" d="M742.6,245.5L742.6,245.5c0.6-0.6,0.6-1.4,0-2l-9.4-9.4c-0.6-0.6-1.4-0.6-2,0l0,0c-0.6,0.6-0.6,1.4,0,2
			l9.4,9.4C741.1,246,742,246,742.6,245.5z"/>
		<path class="st11" d="M727.2,250.6L727.2,250.6c0.6,0.6,1.4,0.6,2,0l8.5-8.5c0.6-0.6,0.6-1.4,0-2l0,0c-0.6-0.6-1.4-0.6-2,0
			l-8.5,8.5C726.7,249.1,726.7,250.1,727.2,250.6z"/>
	</g>
</g>
<path class="st2" d="M364.2,378.4h-50.1c-2.9,0-5.3-3.8-5.3-8.6V220.2c0-2.7,0.8-4.1,2.1-5.8l20.6-25.8c1.8-2.2,4.2-2.4,6.1-0.3
	l26.6,28.7L364.2,378.4L364.2,378.4z"/>
<path class="st4" d="M412.3,378.4h-48V217h50.6c2.7,0,4.8,2.2,4.8,4.8V371C419.6,375.1,416.3,378.4,412.3,378.4z"/>
<g>
	<path class="st3" d="M378.4,251.2h-5.5c-1,0-1.8-0.8-1.8-1.8v-13.6c0-1,0.8-1.8,1.8-1.8h5.5c1,0,1.8,0.8,1.8,1.8v13.7
		C380.2,250.4,379.4,251.2,378.4,251.2z"/>
</g>
<g>
	<path class="st3" d="M378.4,287.7h-5.5c-1,0-1.8-0.8-1.8-1.8v-13.7c0-1,0.8-1.8,1.8-1.8h5.5c1,0,1.8,0.8,1.8,1.8v13.7
		C380.2,286.9,379.4,287.7,378.4,287.7z"/>
</g>
<g>
	<path class="st10" d="M394.6,251.2h-5.5c-1,0-1.8-0.8-1.8-1.8v-13.6c0-1,0.8-1.8,1.8-1.8h5.5c1,0,1.8,0.8,1.8,1.8v13.7
		C396.3,250.4,395.6,251.2,394.6,251.2z"/>
</g>
<g>
	<path class="st10" d="M411,251.2h-5.5c-1,0-1.8-0.8-1.8-1.8v-13.6c0-1,0.8-1.8,1.8-1.8h5.5c1,0,1.8,0.8,1.8,1.8v13.7
		C412.7,250.4,411.9,251.2,411,251.2z"/>
</g>
<g>
	<path class="st3" d="M394.6,287.7h-5.5c-1,0-1.8-0.8-1.8-1.8v-13.7c0-1,0.8-1.8,1.8-1.8h5.5c1,0,1.8,0.8,1.8,1.8v13.7
		C396.3,286.9,395.6,287.7,394.6,287.7z"/>
</g>
<g>
	<path class="st3" d="M411,287.7h-5.5c-1,0-1.8-0.8-1.8-1.8v-13.7c0-1,0.8-1.8,1.8-1.8h5.5c1,0,1.8,0.8,1.8,1.8v13.7
		C412.7,286.9,411.9,287.7,411,287.7z"/>
</g>
<g>
	<path class="st3" d="M378.4,322.5h-5.5c-1,0-1.8-0.8-1.8-1.8V307c0-1,0.8-1.8,1.8-1.8h5.5c1,0,1.8,0.8,1.8,1.8v13.8
		C380.2,321.8,379.4,322.5,378.4,322.5z"/>
</g>
<g>
	<path class="st3" d="M378.4,359h-5.5c-1,0-1.8-0.8-1.8-1.8v-13.7c0-1,0.8-1.8,1.8-1.8h5.5c1,0,1.8,0.8,1.8,1.8v13.7
		C380.2,358.2,379.4,359,378.4,359z"/>
</g>
<g>
	<path class="st3" d="M394.6,322.5h-5.5c-1,0-1.8-0.8-1.8-1.8V307c0-1,0.8-1.8,1.8-1.8h5.5c1,0,1.8,0.8,1.8,1.8v13.8
		C396.3,321.7,395.6,322.5,394.6,322.5z"/>
</g>
<g>
	<path class="st3" d="M411,322.5h-5.5c-1,0-1.8-0.8-1.8-1.8V307c0-1,0.8-1.8,1.8-1.8h5.5c1,0,1.8,0.8,1.8,1.8v13.8
		C412.7,321.8,411.9,322.5,411,322.5z"/>
</g>
<g>
	<path class="st3" d="M394.6,359h-5.5c-1,0-1.8-0.8-1.8-1.8v-13.7c0-1,0.8-1.8,1.8-1.8h5.5c1,0,1.8,0.8,1.8,1.8v13.7
		C396.3,358.2,395.6,359,394.6,359z"/>
</g>
<g>
	<path class="st3" d="M411,359h-5.5c-1,0-1.8-0.8-1.8-1.8v-13.7c0-1,0.8-1.8,1.8-1.8h5.5c1,0,1.8,0.8,1.8,1.8v13.7
		C412.7,358.2,411.9,359,411,359z"/>
</g>
<g>
	<path class="st9" d="M323,251.2h-5.5c-1,0-1.8-0.8-1.8-1.8v-13.6c0-1,0.8-1.8,1.8-1.8h5.5c1,0,1.8,0.8,1.8,1.8v13.7
		C324.8,250.4,324,251.2,323,251.2z"/>
</g>
<g>
	<path class="st9" d="M323,287.7h-5.5c-1,0-1.8-0.8-1.8-1.8v-13.7c0-1,0.8-1.8,1.8-1.8h5.5c1,0,1.8,0.8,1.8,1.8v13.7
		C324.8,286.9,324,287.7,323,287.7z"/>
</g>
<g>
	<path class="st9" d="M339.2,251.2h-5.5c-1,0-1.8-0.8-1.8-1.8v-13.6c0-1,0.8-1.8,1.8-1.8h5.5c1,0,1.8,0.8,1.8,1.8v13.7
		C341,250.4,340.2,251.2,339.2,251.2z"/>
</g>
<g>
	<path class="st9" d="M355.6,251.2h-5.5c-1,0-1.8-0.8-1.8-1.8v-13.6c0-1,0.8-1.8,1.8-1.8h5.5c1,0,1.8,0.8,1.8,1.8v13.7
		C357.3,250.4,356.5,251.2,355.6,251.2z"/>
</g>
<g>
	<path class="st9" d="M339.2,287.7h-5.5c-1,0-1.8-0.8-1.8-1.8v-13.7c0-1,0.8-1.8,1.8-1.8h5.5c1,0,1.8,0.8,1.8,1.8v13.7
		C341,286.9,340.2,287.7,339.2,287.7z"/>
</g>
<g>
	<path class="st9" d="M355.6,287.7h-5.5c-1,0-1.8-0.8-1.8-1.8v-13.7c0-1,0.8-1.8,1.8-1.8h5.5c1,0,1.8,0.8,1.8,1.8v13.7
		C357.3,286.9,356.5,287.7,355.6,287.7z"/>
</g>
<g>
	<path class="st9" d="M323,322.5h-5.5c-1,0-1.8-0.8-1.8-1.8V307c0-1,0.8-1.8,1.8-1.8h5.5c1,0,1.8,0.8,1.8,1.8v13.8
		C324.8,321.8,324,322.5,323,322.5z"/>
</g>
<g>
	<path class="st9" d="M323,359h-5.5c-1,0-1.8-0.8-1.8-1.8v-13.7c0-1,0.8-1.8,1.8-1.8h5.5c1,0,1.8,0.8,1.8,1.8v13.7
		C324.8,358.2,324,359,323,359z"/>
</g>
<g>
	<path class="st9" d="M339.2,322.5h-5.5c-1,0-1.8-0.8-1.8-1.8V307c0-1,0.8-1.8,1.8-1.8h5.5c1,0,1.8,0.8,1.8,1.8v13.8
		C341,321.7,340.2,322.5,339.2,322.5z"/>
</g>
<g>
	<path class="st9" d="M355.6,322.5h-5.5c-1,0-1.8-0.8-1.8-1.8V307c0-1,0.8-1.8,1.8-1.8h5.5c1,0,1.8,0.8,1.8,1.8v13.8
		C357.3,321.8,356.5,322.5,355.6,322.5z"/>
</g>
<g>
	<path class="st9" d="M339.2,359h-5.5c-1,0-1.8-0.8-1.8-1.8v-13.7c0-1,0.8-1.8,1.8-1.8h5.5c1,0,1.8,0.8,1.8,1.8v13.7
		C341,358.2,340.2,359,339.2,359z"/>
</g>
<g>
	<path class="st9" d="M355.6,359h-5.5c-1,0-1.8-0.8-1.8-1.8v-13.7c0-1,0.8-1.8,1.8-1.8h5.5c1,0,1.8,0.8,1.8,1.8v13.7
		C357.3,358.2,356.5,359,355.6,359z"/>
</g>
<path class="st5" d="M414.3,220.1l-46.9,0.1c-1.5,0-2.9-0.5-3.9-1.3L331.7,191c-2.8-2.4-0.5-6.2,3.9-6.2H380c1.5,0,2.9,0.5,3.9,1.3
	l34.4,27.8C421,216.4,418.6,220.1,414.3,220.1z"/>
<path class="st12" d="M364.2,378.4h-51.3c-2.3,0-4.1-1.8-4.1-4.1v-9.8h55.4V378.4z"/>
<path class="st6" d="M364.2,378.4h51.5c2.2,0,4-1.8,4-4v-9.9h-55.4v13.9H364.2z"/>
<path class="st6" d="M383.4,199.3h-16.9c-0.6,0-1-0.5-1-1v-21.8h18.9v21.8C384.4,198.9,383.9,199.3,383.4,199.3z"/>
<path class="st4" d="M383.4,199.3H375v-22.8h9.5v21.7C384.4,198.8,383.9,199.3,383.4,199.3z"/>
<path class="st6" d="M387.1,179.4h-24.3c-0.4,0-0.8-0.4-0.8-0.8v-4.2c0-0.4,0.4-0.8,0.8-0.8h24.3c0.4,0,0.8,0.4,0.8,0.8v4.2
	C387.9,179.1,387.6,179.4,387.1,179.4z"/>
<path class="st4" d="M387.1,179.4H375v-5.8h12.1c0.5,0,0.8,0.4,0.8,0.8v4.2C387.9,179.1,387.5,179.4,387.1,179.4z"/>
<path class="st13" d="M356.5,201.5L356.5,201.5c-0.8,0-1.4-0.6-1.4-1.4v-15.3c0.9,0,2.1,0,2.8,0v15.3
	C357.9,200.9,357.2,201.5,356.5,201.5z"/>
<path class="st13" d="M366,202.5L366,202.5c-0.6,0.6-1.4,0.6-2,0l-8.5-8.5c-0.6-0.6-0.6-1.4,0-2l0,0c0.6-0.6,1.4-0.6,2,0l8.5,8.5
	C366.5,201.1,366.5,202,366,202.5z"/>
<path class="st13" d="M354.9,208L354.9,208c-0.6-0.6-0.6-1.4,0-2l6.2-6.2c0.6-0.6,1.4-0.6,2,0l0,0c0.6,0.6,0.6,1.4,0,2l-6.2,6.2
	C356.3,208.6,355.5,208.6,354.9,208z"/>
<path class="st13" d="M372.8,216.6L372.8,216.6c-0.6,0.6-1.4,0.6-2,0l-11.7-11.7c-0.6-0.6-0.6-1.4,0-2l0,0c0.6-0.6,1.4-0.6,2,0
	l11.7,11.7C373.4,215.2,373.4,216.1,372.8,216.6z"/>
<g>
	<path class="st14" d="M327,212.4L327,212.4c0.8,0,1.4-0.6,1.4-1.4v-18.4l-2.8,3.5v14.8C325.5,211.7,326.2,212.4,327,212.4z"/>
	<path class="st14" d="M317.5,215.1L317.5,215.1c0.6,0.6,1.4,0.6,2,0l8.5-8.5c0.6-0.6,0.6-1.4,0-2l0,0c-0.6-0.6-1.4-0.6-2,0
		l-8.5,8.5C316.9,213.7,316.9,214.6,317.5,215.1z"/>
	<path class="st14" d="M335,227.1L335,227.1c0.6-0.6,0.6-1.4,0-2l-12.7-12.7c-0.6-0.6-1.4-0.6-2,0l0,0c-0.6,0.6-0.6,1.4,0,2
		l12.7,12.7C333.5,227.6,334.4,227.6,335,227.1z"/>
	<path class="st14" d="M317.5,230.1L317.5,230.1c0.6,0.6,1.4,0.6,2,0l8.5-8.5c0.6-0.6,0.6-1.4,0-2l0,0c-0.6-0.6-1.4-0.6-2,0
		l-8.5,8.5C316.9,228.7,316.9,229.6,317.5,230.1z"/>
</g>
<g>
	<path class="st15" d="M373.2,246.2v5h1.4v-5c0-0.4-0.3-0.7-0.7-0.7l0,0C373.5,245.5,373.2,245.8,373.2,246.2z"/>
	<path class="st15" d="M378.3,243.7c-0.3-0.3-0.7-0.3-1,0l-3.7,3.7c-0.3,0.3-0.3,0.7,0,1l0,0c0.3,0.3,0.7,0.3,1,0l3.7-3.7
		C378.6,244.4,378.6,244,378.3,243.7L378.3,243.7z"/>
	<path class="st15" d="M371.1,239.7l5.3,5.3c0.3,0.3,0.7,0.3,1,0l0,0c0.3-0.3,0.3-0.7,0-1l-6.2-6.2L371.1,239.7z"/>
	<path class="st15" d="M378.3,236.3c-0.3-0.3-0.7-0.3-1,0l-4.2,4.2c-0.1,0.1-0.1,0.3,0,0.5l0.5,0.5c0.1,0.1,0.3,0.1,0.5,0l4.2-4.2
		C378.6,237.1,378.6,236.6,378.3,236.3L378.3,236.3z"/>
</g>
<g>
	<path class="st15" d="M394.4,275.6v-5H393v5c0,0.4,0.3,0.7,0.7,0.7l0,0C394.1,276.3,394.4,276,394.4,275.6z"/>
	<path class="st15" d="M389.2,278.1c0.3,0.3,0.7,0.3,1,0l3.7-3.7c0.3-0.3,0.3-0.7,0-1l0,0c-0.3-0.3-0.7-0.3-1,0l-3.7,3.7
		C389,277.4,389,277.8,389.2,278.1L389.2,278.1z"/>
	<path class="st15" d="M396.4,282.1l-5.3-5.3c-0.3-0.3-0.7-0.3-1,0l0,0c-0.3,0.3-0.3,0.7,0,1l6.2,6.2L396.4,282.1z"/>
	<path class="st15" d="M389.2,285.5c0.3,0.3,0.7,0.3,1,0l4.2-4.2c0.1-0.1,0.1-0.3,0-0.5l-0.5-0.5c-0.1-0.1-0.3-0.1-0.5,0l-4.2,4.2
		C389,284.7,389,285.2,389.2,285.5L389.2,285.5z"/>
</g>
<path class="st16" d="M338.2,239.1v-5h-1.4v5c0,0.4,0.3,0.7,0.7,0.7l0,0C337.9,239.8,338.2,239.5,338.2,239.1z"/>
<path class="st16" d="M333.1,241.6c0.3,0.3,0.7,0.3,1,0l3.7-3.7c0.3-0.3,0.3-0.7,0-1l0,0c-0.3-0.3-0.7-0.3-1,0l-3.7,3.7
	C332.8,240.9,332.8,241.3,333.1,241.6L333.1,241.6z"/>
<path class="st16" d="M335.2,246.8L335.2,246.8c-0.4,0-0.7-0.3-0.7-0.7v-6.3c0-0.4,0.3-0.7,0.7-0.7l0,0c0.4,0,0.7,0.3,0.7,0.7v6.3
	C335.9,246.5,335.6,246.8,335.2,246.8z"/>
<path class="st16" d="M338.3,244.9L338.3,244.9c-0.3,0.3-0.7,0.3-1,0l-2.5-2.5c-0.3-0.3-0.3-0.7,0-1l0,0c0.3-0.3,0.7-0.3,1,0
	l2.5,2.5C338.5,244.2,338.5,244.7,338.3,244.9z"/>
<g>
	<g>
		<path class="st2" d="M457.4,263.7l-26,33.8c-0.4,0.5-0.6,1.1-0.6,1.8l-1.6,46.9c-0.1,1.7,1.3,3.1,3,3.2l49.9,1.7l1.7-51
			l-22.6-36.2C460.3,262.5,458.4,262.5,457.4,263.7z"/>
		<path class="st3" d="M467.1,350.6l-22.6-0.8l1.2-35.6c0.1-2.5,2.1-4.4,4.6-4.3l13.7,0.5c2.5,0.1,4.4,2.1,4.3,4.6L467.1,350.6z"/>
		<path class="st4" d="M529.5,352.7l-47.6-1.6l1.7-50.9l47.6,1.6c1.5,0.1,2.7,1.3,2.7,2.9l-1.5,45.4
			C532.3,351.6,531.1,352.7,529.5,352.7z"/>
		<path class="st3" d="M502.6,338.1l-9.3-0.3c-1.2,0-2.1-1-2.1-2.2l0.7-19.5c0-1.2,1-2.1,2.2-2.1l9.3,0.3c1.2,0,2.1,1,2.1,2.2
			l-0.7,19.5C504.8,337.2,503.8,338.1,502.6,338.1z"/>
		<path class="st3" d="M524.4,338.8l-9.3-0.3c-1.2,0-2.1-1-2.1-2.2l0.7-19.5c0-1.2,1-2.1,2.2-2.1l9.3,0.3c1.2,0,2.1,1,2.1,2.2
			l-0.6,19.6C526.6,337.9,525.6,338.9,524.4,338.8z"/>
		<path class="st5" d="M532.1,304.1l-47.3-1.6c-0.9,0-1.8-0.5-2.2-1.3L459.2,264c-0.5-0.8,0.1-1.8,1-1.8l47.3,1.6
			c1.8,0.1,3.4,1,4.4,2.5l21.9,34.9C534.5,302.4,533.5,304.1,532.1,304.1z"/>
		<g>
			<path class="st4" d="M498.2,273.2l-7.8-0.3c-0.6,0-1-0.5-1-1.1l0.4-10.8l9.9,0.3l-0.4,10.8C499.2,272.8,498.7,273.2,498.2,273.2z
				"/>
			<path class="st6" d="M498.1,273.2l-3.9-0.1l0.4-11.9l4.9,0.2l-0.4,10.8C499.2,272.8,498.7,273.2,498.1,273.2z"/>
			<path class="st4" d="M500.6,261.4l-11.9-0.4c-0.4,0-0.8-0.4-0.8-0.8v-1.5c0-0.4,0.4-0.8,0.8-0.8l11.9,0.4c0.4,0,0.8,0.4,0.8,0.8
				v1.5C501.4,261.1,501,261.4,500.6,261.4z"/>
			<path class="st6" d="M500.6,261.4l-5.9-0.2l0.1-3l5.9,0.2c0.5,0,0.8,0.4,0.8,0.9v1.4C501.4,261.1,501,261.4,500.6,261.4z"/>
		</g>
	</g>
	<g>
		<path class="st15" d="M502.5,331.8l-0.2,6.2l-1.7-0.1l0.2-6.2c0-0.5,0.4-0.8,0.9-0.8l0,0C502.1,331,502.5,331.4,502.5,331.8z"/>
		<path class="st15" d="M496.2,328.5c0.3-0.3,0.9-0.3,1.2,0l4.4,4.8c0.3,0.3,0.3,0.9,0,1.2l0,0c-0.3,0.3-0.9,0.3-1.2,0l-4.4-4.8
			C495.9,329.4,495.9,328.8,496.2,328.5L496.2,328.5z"/>
		<path class="st15" d="M505.3,323.9l-6.7,6.3c-0.3,0.3-0.9,0.3-1.2,0l0,0c-0.3-0.3-0.3-0.9,0-1.2l8-7.5L505.3,323.9z"/>
		<path class="st15" d="M496.6,319.4c0.3-0.3,0.9-0.3,1.2,0l5,5.4c0.2,0.2,0.1,0.4,0,0.6l-0.7,0.6c-0.2,0.2-0.4,0.1-0.6,0l-5-5.4
			C496.2,320.3,496.2,319.7,496.6,319.4L496.6,319.4z"/>
	</g>
</g>
<g>
	<path class="st2" d="M191.6,289.6V385c0,1.7,1.4,3.1,3.1,3.1h41.8V287.5l-19.1-30.7c-1.5-2.5-5.1-2.5-6.6,0l-18.2,29
		C191.9,286.9,191.6,288.3,191.6,289.6z"/>
	<path class="st4" d="M273,388h-36.6V287.6H273c1.5,0,2.8,1.2,2.8,2.8v94.9C275.7,386.8,274.5,388,273,388z"/>
	<path class="st3" d="M251.9,364.3h-9.3c-1.2,0-2.1-1-2.1-2.1v-12c0-1.2,1-2.1,2.1-2.1h9.3c1.2,0,2.1,1,2.1,2.1v12
		C254.1,363.3,253.1,364.3,251.9,364.3z"/>
	<path class="st3" d="M218.6,361.9h-9.3c-1.2,0-2.1-1-2.1-2.1v-12c0-1.2,1-2.1,2.1-2.1h9.3c1.2,0,2.1,1,2.1,2.1v12
		C220.8,361,219.8,361.9,218.6,361.9z"/>
	<path class="st3" d="M270.5,364.3h-9.3c-1.2,0-2.1-1-2.1-2.1v-12c0-1.2,1-2.1,2.1-2.1h9.3c1.2,0,2.1,1,2.1,2.1v12
		C272.6,363.3,271.6,364.3,270.5,364.3z"/>
	<path class="st3" d="M251.9,329.5h-9.3c-1.2,0-2.1-1-2.1-2.1v-12c0-1.2,1-2.1,2.1-2.1h9.3c1.2,0,2.1,1,2.1,2.1v12
		C254.1,328.5,253.1,329.5,251.9,329.5z"/>
	<path class="st3" d="M218.6,329.5h-9.3c-1.2,0-2.1-1-2.1-2.1v-12c0-1.2,1-2.1,2.1-2.1h9.3c1.2,0,2.1,1,2.1,2.1v12
		C220.8,328.5,219.8,329.5,218.6,329.5z"/>
	<path class="st3" d="M270.5,329.5h-9.3c-1.2,0-2.1-1-2.1-2.1v-12c0-1.2,1-2.1,2.1-2.1h9.3c1.2,0,2.1,1,2.1,2.1v12
		C272.6,328.5,271.6,329.5,270.5,329.5z"/>
	<path class="st5" d="M275.7,288.6h-40.2c-0.8,0-1.5-0.4-1.9-1l-20.9-31c-0.4-0.7,0-1.6,0.8-1.6h40.2c1.5,0,2.9,0.8,3.8,2l19.6,29
		C277.7,287.1,277,288.6,275.7,288.6z"/>
	<g>
		<path class="st4" d="M248.8,260.2H241c-0.6,0-1-0.5-1-1v-10.9h9.9v10.9C249.8,259.7,249.4,260.2,248.8,260.2z"/>
		<path class="st6" d="M248.8,260.2h-3.9v-11.9h4.9v10.8C249.8,259.7,249.3,260.2,248.8,260.2z"/>
		<path class="st4" d="M250.8,248.3h-11.9c-0.4,0-0.8-0.4-0.8-0.8V246c0-0.4,0.4-0.8,0.8-0.8h11.9c0.4,0,0.8,0.4,0.8,0.8v1.5
			C251.6,248,251.3,248.3,250.8,248.3z"/>
		<path class="st6" d="M250.8,248.3h-5.9v-3h5.9c0.5,0,0.8,0.4,0.8,0.8v1.4C251.6,247.9,251.3,248.3,250.8,248.3z"/>
	</g>
	<g>
		<path class="st13" d="M251.2,271.8L251.2,271.8c-0.8,0-1.4-0.6-1.4-1.4v-15.3c0.9,0,2.1,0,2.8,0v15.3
			C252.6,271.1,252,271.8,251.2,271.8z"/>
		<path class="st13" d="M260.7,272.8L260.7,272.8c-0.6,0.6-1.4,0.6-2,0l-8.5-8.5c-0.6-0.6-0.6-1.4,0-2l0,0c0.6-0.6,1.4-0.6,2,0
			l8.5,8.5C261.3,271.3,261.3,272.2,260.7,272.8z"/>
		<path class="st13" d="M247.4,280.5L247.4,280.5c-0.6-0.6-0.6-1.4,0-2l8.5-8.5c0.6-0.6,1.4-0.6,2,0l0,0c0.6,0.6,0.6,1.4,0,2
			l-8.5,8.5C248.8,281.1,247.9,281.1,247.4,280.5z"/>
	</g>
</g>
<g>
	<path class="st4" d="M359.3,286.9v95.4c0,1.7-1.4,3.1-3.1,3.1h-41.8V284.9l19.1-30.7c1.5-2.5,5.1-2.5,6.6,0l18,28.9
		C358.9,284.2,359.3,285.6,359.3,286.9z"/>
	<path class="st2" d="M277.8,385.4h36.6V285h-36.6c-1.5,0-2.8,1.2-2.8,2.8v94.9C275.1,384.1,276.3,385.4,277.8,385.4z"/>
	<path class="st9" d="M298.9,361.6h9.3c1.2,0,2.1-1,2.1-2.1v-12c0-1.2-1-2.1-2.1-2.1h-9.3c-1.2,0-2.1,1-2.1,2.1v12
		C296.7,360.7,297.7,361.6,298.9,361.6z"/>
	<path class="st3" d="M332.2,359.3h9.3c1.2,0,2.1-1,2.1-2.1v-12c0-1.2-1-2.1-2.1-2.1h-9.3c-1.2,0-2.1,1-2.1,2.1v12
		C330,358.3,331,359.3,332.2,359.3z"/>
	<path class="st9" d="M280.3,361.6h9.4c1.2,0,2.1-1,2.1-2.1v-12c0-1.2-1-2.1-2.1-2.1h-9.3c-1.2,0-2.1,1-2.1,2.1v12
		C278.2,360.7,279.2,361.6,280.3,361.6z"/>
	<path class="st9" d="M298.9,326.8h9.3c1.2,0,2.1-1,2.1-2.1v-12c0-1.2-1-2.1-2.1-2.1h-9.3c-1.2,0-2.1,1-2.1,2.1v12
		C296.7,325.9,297.7,326.8,298.9,326.8z"/>
	<path class="st3" d="M332.2,326.8h9.3c1.2,0,2.1-1,2.1-2.1v-12c0-1.2-1-2.1-2.1-2.1h-9.3c-1.2,0-2.1,1-2.1,2.1v12
		C330,325.9,331,326.8,332.2,326.8z"/>
	<path class="st9" d="M280.3,326.8h9.4c1.2,0,2.1-1,2.1-2.1v-12c0-1.2-1-2.1-2.1-2.1h-9.3c-1.2,0-2.1,1-2.1,2.1v12
		C278.2,325.9,279.2,326.8,280.3,326.8z"/>
	<path class="st7" d="M275.1,285.9h40.2c0.8,0,1.5-0.4,1.9-1l20.9-30.9c0.4-0.7,0-1.6-0.8-1.6h-40.2c-1.5,0-2.9,0.8-3.8,2l-19.6,29
		C273.1,284.5,273.8,285.9,275.1,285.9z"/>
	<g>
		<path class="st4" d="M302,257.5h7.8c0.6,0,1-0.5,1-1v-10.9h-9.9v10.9C301,257.1,301.4,257.5,302,257.5z"/>
		<path class="st6" d="M302,257.5h3.9v-11.9H301v10.8C301,257.1,301.5,257.5,302,257.5z"/>
		<path class="st4" d="M300,245.7h11.9c0.4,0,0.8-0.4,0.8-0.8v-1.5c0-0.4-0.4-0.8-0.8-0.8H300c-0.4,0-0.8,0.4-0.8,0.8v1.5
			C299.2,245.3,299.5,245.7,300,245.7z"/>
		<path class="st6" d="M300,245.7h5.9v-3H300c-0.5,0-0.8,0.4-0.8,0.8v1.4C299.2,245.3,299.6,245.7,300,245.7z"/>
	</g>
	<g>
		<path class="st17" d="M313.6,269.1L313.6,269.1c-0.8,0-1.4-0.6-1.4-1.4v-15.3c0.9,0,2.1,0,2.8,0v15.3
			C315,268.5,314.3,269.1,313.6,269.1z"/>
		<path class="st17" d="M323.1,270.1L323.1,270.1c-0.6,0.6-1.4,0.6-2,0l-8.5-8.5c-0.6-0.6-0.6-1.4,0-2l0,0c0.6-0.6,1.4-0.6,2,0
			l8.5,8.5C323.6,268.7,323.6,269.6,323.1,270.1z"/>
		<path class="st17" d="M309.7,277.9L309.7,277.9c-0.6-0.6-0.6-1.4,0-2l8.5-8.5c0.6-0.6,1.4-0.6,2,0l0,0c0.6,0.6,0.6,1.4,0,2
			l-8.5,8.5C311.2,278.4,310.3,278.4,309.7,277.9z"/>
	</g>
	<g>
		<path class="st6" d="M346.5,279.1L346.5,279.1c0.8,0,1.4-0.6,1.4-1.4v-11.1c-1.2-1.9-1.4-2.2-2.8-4.5v15.6
			C345.1,278.5,345.7,279.1,346.5,279.1z"/>
		<path class="st6" d="M337,281.9L337,281.9c0.6,0.6,1.4,0.6,2,0l8.5-8.5c0.6-0.6,0.6-1.4,0-2l0,0c-0.6-0.6-1.4-0.6-2,0l-8.5,8.5
			C336.4,280.4,336.4,281.3,337,281.9z"/>
		<path class="st6" d="M354.5,293.8L354.5,293.8c0.6-0.6,0.6-1.4,0-2l-12.7-12.7c-0.6-0.6-1.4-0.6-2,0l0,0c-0.6,0.6-0.6,1.4,0,2
			l12.7,12.7C353,294.3,353.9,294.3,354.5,293.8z"/>
		<path class="st6" d="M337,296.8L337,296.8c0.6,0.6,1.4,0.6,2,0l8.5-8.5c0.6-0.6,0.6-1.4,0-2l0,0c-0.6-0.6-1.4-0.6-2,0l-8.5,8.5
			C336.4,295.4,336.4,296.3,337,296.8z"/>
	</g>
</g>
<g>
	<path class="st4" d="M437.1,289.6V385c0,1.7-1.4,3.1-3.1,3.1h-41.8V287.6l19.1-30.7c1.5-2.5,5.1-2.5,6.6,0l18,28.9
		C436.8,287,437.1,288.3,437.1,289.6z"/>
	<path class="st2" d="M355.7,388.1h36.6V287.6h-36.6c-1.5,0-2.8,1.2-2.8,2.8v94.9C352.9,386.8,354.2,388.1,355.7,388.1z"/>
	<path class="st9" d="M376.8,364.3h9.3c1.2,0,2.1-1,2.1-2.1v-12c0-1.2-1-2.1-2.1-2.1h-9.3c-1.2,0-2.1,1-2.1,2.1v12
		C374.6,363.3,375.6,364.3,376.8,364.3z"/>
	<path class="st3" d="M410,362h9.3c1.2,0,2.1-1,2.1-2.1v-12c0-1.2-1-2.1-2.1-2.1H410c-1.2,0-2.1,1-2.1,2.1v12
		C407.9,361,408.9,362,410,362z"/>
	<path class="st9" d="M358.2,364.3h9.3c1.2,0,2.1-1,2.1-2.1v-12c0-1.2-1-2.1-2.1-2.1h-9.3c-1.2,0-2.1,1-2.1,2.1v12
		C356.1,363.3,357,364.3,358.2,364.3z"/>
	<path class="st9" d="M376.8,329.5h9.3c1.2,0,2.1-1,2.1-2.1v-12c0-1.2-1-2.1-2.1-2.1h-9.3c-1.2,0-2.1,1-2.1,2.1v12
		C374.6,328.5,375.6,329.5,376.8,329.5z"/>
	<path class="st3" d="M410,329.5h9.3c1.2,0,2.1-1,2.1-2.1v-12c0-1.2-1-2.1-2.1-2.1H410c-1.2,0-2.1,1-2.1,2.1v12
		C407.9,328.5,408.9,329.5,410,329.5z"/>
	<path class="st9" d="M358.2,329.5h9.3c1.2,0,2.1-1,2.1-2.1v-12c0-1.2-1-2.1-2.1-2.1h-9.3c-1.2,0-2.1,1-2.1,2.1v12
		C356.1,328.5,357,329.5,358.2,329.5z"/>
	<path class="st5" d="M353,288.6h40.2c0.8,0,1.5-0.4,1.9-1l20.9-30.9c0.4-0.7,0-1.6-0.8-1.6H375c-1.5,0-2.9,0.8-3.8,2l-19.6,29
		C351,287.1,351.7,288.6,353,288.6z"/>
	<path class="st4" d="M379.9,260.2h7.8c0.6,0,1-0.5,1-1v-10.9h-9.9v10.9C378.9,259.7,379.3,260.2,379.9,260.2z"/>
	<path class="st2" d="M379.9,260.2h3.9v-11.9h-4.9v10.8C378.9,259.7,379.3,260.2,379.9,260.2z"/>
	<path class="st4" d="M377.8,248.3h11.9c0.4,0,0.8-0.4,0.8-0.8V246c0-0.4-0.4-0.8-0.8-0.8h-11.9c-0.4,0-0.8,0.4-0.8,0.8v1.5
		C377.1,248,377.4,248.3,377.8,248.3z"/>
	<path class="st2" d="M377.9,248.3h5.9v-3h-5.9c-0.5,0-0.8,0.4-0.8,0.8v1.4C377.1,248,377.4,248.3,377.9,248.3z"/>
	<g>
		<path class="st18" d="M364.3,296.6L364.3,296.6c-0.8,0-1.4-0.6-1.4-1.4v-6.6h2.8v6.6C365.7,295.9,365.1,296.6,364.3,296.6z"/>
		<path class="st18" d="M373.8,300.6L373.8,300.6c-0.6,0.6-1.4,0.6-2,0l-8.5-8.5c-0.6-0.6-0.6-1.4,0-2l0,0c0.6-0.6,1.4-0.6,2,0
			l8.5,8.5C374.4,299.2,374.4,300.1,373.8,300.6z"/>
		<path class="st18" d="M358.4,307L358.4,307c-0.6-0.6-0.6-1.4,0-2l9.4-9.4c0.6-0.6,1.4-0.6,2,0l0,0c0.6,0.6,0.6,1.4,0,2l-9.4,9.4
			C359.9,307.6,359,307.6,358.4,307z"/>
		<path class="st18" d="M373.8,312.2L373.8,312.2c-0.6,0.6-1.4,0.6-2,0l-8.5-8.5c-0.6-0.6-0.6-1.4,0-2l0,0c0.6-0.6,1.4-0.6,2,0
			l8.5,8.5C374.4,310.7,374.4,311.6,373.8,312.2z"/>
	</g>
</g>
<g>
	<path class="st4" d="M667,264.5v95.3c0,1.7-1.4,3.1-3.1,3.1h-41.8V262.4l19.1-30.7c1.5-2.5,5.1-2.5,6.6,0l18,28.9
		C666.6,261.8,667,263.1,667,264.5z"/>
	<path class="st2" d="M585.6,363h36.6V262.5h-36.6c-1.5,0-2.8,1.2-2.8,2.8v94.9C582.8,361.7,584,363,585.6,363z"/>
	<path class="st9" d="M606.6,339.2h9.3c1.2,0,2.1-1,2.1-2.1v-12c0-1.2-1-2.1-2.1-2.1h-9.3c-1.2,0-2.1,1-2.1,2.1v12
		C604.5,338.3,605.4,339.2,606.6,339.2z"/>
	<path class="st3" d="M639.9,336.9h9.3c1.2,0,2.1-1,2.1-2.1v-12c0-1.2-1-2.1-2.1-2.1h-9.3c-1.2,0-2.1,1-2.1,2.1v12
		C637.8,335.9,638.7,336.9,639.9,336.9z"/>
	<path class="st9" d="M588.1,339.2h9.3c1.2,0,2.1-1,2.1-2.1v-12c0-1.2-1-2.1-2.1-2.1h-9.3c-1.2,0-2.1,1-2.1,2.1v12
		C586,338.3,586.9,339.2,588.1,339.2z"/>
	<path class="st9" d="M606.6,304.4h9.3c1.2,0,2.1-1,2.1-2.1v-12c0-1.2-1-2.1-2.1-2.1h-9.3c-1.2,0-2.1,1-2.1,2.1v12
		C604.5,303.4,605.4,304.4,606.6,304.4z"/>
	<path class="st3" d="M639.9,304.4h9.3c1.2,0,2.1-1,2.1-2.1v-12c0-1.2-1-2.1-2.1-2.1h-9.3c-1.2,0-2.1,1-2.1,2.1v12
		C637.8,303.4,638.7,304.4,639.9,304.4z"/>
	<path class="st9" d="M588.1,304.4h9.3c1.2,0,2.1-1,2.1-2.1v-12c0-1.2-1-2.1-2.1-2.1h-9.3c-1.2,0-2.1,1-2.1,2.1v12
		C586,303.4,586.9,304.4,588.1,304.4z"/>
	<path class="st7" d="M582.8,263.5H623c0.8,0,1.5-0.4,1.9-1l20.9-30.9c0.4-0.7,0-1.6-0.8-1.6h-40.2c-1.5,0-2.9,0.8-3.8,2l-19.6,29
		C580.8,262,581.6,263.5,582.8,263.5z"/>
	<path class="st4" d="M612.6,235.1h7.8c0.6,0,1-0.5,1-1v-10.9h-9.9v10.9C611.6,234.6,612,235.1,612.6,235.1z"/>
	<path class="st2" d="M612.6,235.1h3.9v-11.9h-4.9V234C611.6,234.6,612.1,235.1,612.6,235.1z"/>
	<path class="st4" d="M610.6,223.2h11.9c0.4,0,0.8-0.4,0.8-0.8v-1.5c0-0.4-0.4-0.8-0.8-0.8h-11.9c-0.4,0-0.8,0.4-0.8,0.8v1.5
		C609.8,222.9,610.1,223.2,610.6,223.2z"/>
	<path class="st2" d="M610.6,223.2h5.9v-3h-5.9c-0.5,0-0.8,0.4-0.8,0.8v1.4C609.8,222.9,610.2,223.2,610.6,223.2z"/>
	<g>
		<path class="st17" d="M608.8,246.6L608.8,246.6c-0.8,0-1.4-0.6-1.4-1.4v-15.3c0.9,0,2.1,0,2.8,0v15.3
			C610.2,246,609.5,246.6,608.8,246.6z"/>
		<path class="st17" d="M618.3,247.6L618.3,247.6c-0.6,0.6-1.4,0.6-2,0l-8.5-8.5c-0.6-0.6-0.6-1.4,0-2l0,0c0.6-0.6,1.4-0.6,2,0
			l8.5,8.5C618.8,246.2,618.8,247.1,618.3,247.6z"/>
		<path class="st17" d="M604.9,255.4L604.9,255.4c-0.6-0.6-0.6-1.4,0-2l8.5-8.5c0.6-0.6,1.4-0.6,2,0l0,0c0.6,0.6,0.6,1.4,0,2
			l-8.5,8.5C606.4,256,605.5,256,604.9,255.4z"/>
	</g>
</g>
<g>
	<path class="st2" d="M746.6,265.6V361c0,1.7,1.4,3.1,3.1,3.1h41.8V263.6l-19.1-30.7c-1.5-2.5-5.1-2.5-6.6,0l-18,28.9
		C746.9,263,746.6,264.3,746.6,265.6z"/>
	<path class="st4" d="M828,364.1h-36.6V263.7H828c1.5,0,2.8,1.2,2.8,2.8v94.9C830.8,362.9,829.5,364.1,828,364.1z"/>
	<path class="st3" d="M806.9,340.3h-9.3c-1.2,0-2.1-1-2.1-2.1v-12c0-1.2,1-2.1,2.1-2.1h9.3c1.2,0,2.1,1,2.1,2.1v12
		C809.1,339.4,808.1,340.3,806.9,340.3z"/>
	<path class="st9" d="M773.6,338h-9.3c-1.2,0-2.1-1-2.1-2.1v-12c0-1.2,1-2.1,2.1-2.1h9.3c1.2,0,2.1,1,2.1,2.1v12
		C775.8,337.1,774.8,338,773.6,338z"/>
	<path class="st3" d="M825.5,340.3h-9.3c-1.2,0-2.1-1-2.1-2.1v-12c0-1.2,1-2.1,2.1-2.1h9.3c1.2,0,2.1,1,2.1,2.1v12
		C827.6,339.4,826.7,340.3,825.5,340.3z"/>
	<path class="st3" d="M806.9,305.5h-9.3c-1.2,0-2.1-1-2.1-2.1v-12c0-1.2,1-2.1,2.1-2.1h9.3c1.2,0,2.1,1,2.1,2.1v12
		C809.1,304.6,808.1,305.5,806.9,305.5z"/>
	<path class="st9" d="M773.6,305.5h-9.3c-1.2,0-2.1-1-2.1-2.1v-12c0-1.2,1-2.1,2.1-2.1h9.3c1.2,0,2.1,1,2.1,2.1v12
		C775.8,304.6,774.8,305.5,773.6,305.5z"/>
	<path class="st3" d="M825.5,305.5h-9.3c-1.2,0-2.1-1-2.1-2.1v-12c0-1.2,1-2.1,2.1-2.1h9.3c1.2,0,2.1,1,2.1,2.1v12
		C827.6,304.6,826.7,305.5,825.5,305.5z"/>
	<path class="st7" d="M830.7,264.6h-40.2c-0.8,0-1.5-0.4-1.9-1l-20.9-30.9c-0.4-0.7,0-1.6,0.8-1.6h40.2c1.5,0,2.9,0.8,3.8,2l19.6,29
		C832.7,263.2,832,264.6,830.7,264.6z"/>
	<path class="st2" d="M805.6,237.8h-7.8c-0.6,0-1-0.5-1-1v-10.9h9.9v10.9C806.6,237.3,806.2,237.8,805.6,237.8z"/>
	<path class="st4" d="M805.6,237.8h-3.9v-11.9h4.9v10.8C806.6,237.3,806.2,237.8,805.6,237.8z"/>
	<path class="st2" d="M807.7,225.9h-12c-0.4,0-0.8-0.4-0.8-0.8v-1.5c0-0.4,0.4-0.8,0.8-0.8h12c0.4,0,0.8,0.4,0.8,0.8v1.5
		C808.4,225.5,808.1,225.9,807.7,225.9z"/>
	<path class="st4" d="M807.6,225.9h-5.9v-3h5.9c0.5,0,0.8,0.4,0.8,0.8v1.4C808.4,225.5,808.1,225.9,807.6,225.9z"/>
	<g>
		<path class="st17" d="M792.3,247.8L792.3,247.8c0.8,0,1.4-0.6,1.4-1.4v-15.3c-0.9,0-2.1,0-2.8,0v15.3
			C790.8,247.2,791.5,247.8,792.3,247.8z"/>
		<path class="st17" d="M782.8,248.8L782.8,248.8c0.6,0.6,1.4,0.6,2,0l8.5-8.5c0.6-0.6,0.6-1.4,0-2l0,0c-0.6-0.6-1.4-0.6-2,0
			l-8.5,8.5C782.2,247.4,782.2,248.3,782.8,248.8z"/>
		<path class="st17" d="M796.1,256.6L796.1,256.6c0.6-0.6,0.6-1.4,0-2l-8.5-8.5c-0.6-0.6-1.4-0.6-2,0l0,0c-0.6,0.6-0.6,1.4,0,2
			l8.5,8.5C794.6,257.1,795.5,257.1,796.1,256.6z"/>
	</g>
	<g>
		<path class="st19" d="M759.4,257.8L759.4,257.8c-0.8,0-1.4-0.6-1.4-1.4v-11.1c1.2-1.9,1.4-2.2,2.8-4.5v15.6
			C760.8,257.2,760.1,257.8,759.4,257.8z"/>
		<path class="st19" d="M768.9,260.6L768.9,260.6c-0.6,0.6-1.4,0.6-2,0l-8.5-8.5c-0.6-0.6-0.6-1.4,0-2l0,0c0.6-0.6,1.4-0.6,2,0
			l8.5,8.5C769.4,259.1,769.4,260,768.9,260.6z"/>
		<path class="st19" d="M751.4,272.5L751.4,272.5c-0.6-0.6-0.6-1.4,0-2l12.7-12.7c0.6-0.6,1.4-0.6,2,0l0,0c0.6,0.6,0.6,1.4,0,2
			l-12.7,12.7C752.8,273.1,751.9,273.1,751.4,272.5z"/>
		<path class="st19" d="M768.9,275.5L768.9,275.5c-0.6,0.6-1.4,0.6-2,0l-8.5-8.5c-0.6-0.6-0.6-1.4,0-2l0,0c0.6-0.6,1.4-0.6,2,0
			l8.5,8.5C769.4,274.1,769.4,275,768.9,275.5z"/>
	</g>
</g>
<g>
	<path class="st4" d="M347.9,308.9l24.8,34.7c0.4,0.5,0.6,1.1,0.6,1.8v46.9c0,1.7-1.4,3.1-3.1,3.1h-49.9v-51l23.8-35.4
		C345.1,307.6,347,307.6,347.9,308.9z"/>
	<path class="st3" d="M335.4,395.4H358v-35.6c0-2.5-2-4.4-4.4-4.4h-13.7c-2.5,0-4.4,2-4.4,4.4v35.6H335.4z"/>
	<path class="st6" d="M272.9,395.4h47.6v-50.9h-47.6c-1.5,0-2.8,1.2-2.8,2.8v45.4C270.1,394.2,271.3,395.4,272.9,395.4z"/>
	<path class="st10" d="M300.3,381.7h9.3c1.2,0,2.1-1,2.1-2.1v-19.5c0-1.2-1-2.1-2.1-2.1h-9.3c-1.2,0-2.1,1-2.1,2.1v19.5
		C298.1,380.7,299.1,381.7,300.3,381.7z"/>
	<path class="st3" d="M278.4,381.7h9.3c1.2,0,2.1-1,2.1-2.1v-19.5c0-1.2-1-2.1-2.1-2.1h-9.3c-1.2,0-2.1,1-2.1,2.1v19.5
		C276.3,380.7,277.2,381.7,278.4,381.7z"/>
	<path class="st5" d="M272,346.7h47.3c0.9,0,1.8-0.5,2.3-1.2l24.6-36.4c0.5-0.8,0-1.8-1-1.8h-47.3c-1.8,0-3.4,0.9-4.4,2.4
		l-23.1,34.1C269.6,345,270.5,346.7,272,346.7z"/>
	<g>
		<path class="st4" d="M306.9,317h7.8c0.6,0,1-0.5,1-1v-10.9h-9.9V316C305.9,316.6,306.3,317,306.9,317z"/>
		<path class="st6" d="M306.9,317h3.9v-11.9h-4.9v10.8C305.9,316.5,306.4,317,306.9,317z"/>
		<path class="st4" d="M304.9,305.1h11.9c0.4,0,0.8-0.4,0.8-0.8v-1.5c0-0.4-0.4-0.8-0.8-0.8h-11.9c-0.4,0-0.8,0.4-0.8,0.8v1.5
			C304.1,304.8,304.4,305.1,304.9,305.1z"/>
		<path class="st6" d="M304.9,305.1h5.9v-3h-5.9c-0.5,0-0.8,0.4-0.8,0.8v1.4C304.1,304.8,304.5,305.1,304.9,305.1z"/>
	</g>
	<g>
		<path class="st6" d="M339.6,337.8L339.6,337.8c0.8,0,1.4-0.6,1.4-1.4V317l-2.8,4v15.4C338.2,337.1,338.8,337.8,339.6,337.8z"/>
		<path class="st6" d="M330.1,340.5L330.1,340.5c0.6,0.6,1.4,0.6,2,0l8.5-8.5c0.6-0.6,0.6-1.4,0-2l0,0c-0.6-0.6-1.4-0.6-2,0
			l-8.5,8.5C329.5,339.1,329.5,340,330.1,340.5z"/>
		<path class="st6" d="M347.6,352.5L347.6,352.5c0.6-0.6,0.6-1.4,0-2l-12.7-12.7c-0.6-0.6-1.4-0.6-2,0l0,0c-0.6,0.6-0.6,1.4,0,2
			l12.7,12.7C346.1,353,347,353,347.6,352.5z"/>
		<path class="st6" d="M330.1,355.5L330.1,355.5c0.6,0.6,1.4,0.6,2,0l8.5-8.5c0.6-0.6,0.6-1.4,0-2l0,0c-0.6-0.6-1.4-0.6-2,0
			l-8.5,8.5C329.5,354.1,329.5,355,330.1,355.5z"/>
	</g>
</g>
<g>
	<g>
		<path class="st4" d="M696.7,308.2l24.8,34.7c0.4,0.5,0.6,1.1,0.6,1.8v46.9c0,1.7-1.4,3.1-3.1,3.1h-49.9v-51l23.8-35.4
			C693.9,306.9,695.8,306.9,696.7,308.2z"/>
		<path class="st3" d="M684.2,394.7h22.6v-35.6c0-2.5-2-4.4-4.4-4.4h-13.7c-2.5,0-4.4,2-4.4,4.4L684.2,394.7L684.2,394.7z"/>
		<path class="st6" d="M621.7,394.7h47.6v-50.9h-47.6c-1.5,0-2.8,1.2-2.8,2.8V392C618.9,393.4,620.2,394.7,621.7,394.7z"/>
		<path class="st3" d="M649.1,381h9.3c1.2,0,2.1-1,2.1-2.1v-19.5c0-1.2-1-2.1-2.1-2.1h-9.3c-1.2,0-2.1,1-2.1,2.1v19.4
			C646.9,380,647.9,381,649.1,381z"/>
		<path class="st3" d="M627.2,381h9.3c1.2,0,2.1-1,2.1-2.1v-19.5c0-1.2-1-2.1-2.1-2.1h-9.3c-1.2,0-2.1,1-2.1,2.1v19.4
			C625.1,380,626.1,381,627.2,381z"/>
		<path class="st7" d="M620.8,346h47.3c0.9,0,1.8-0.5,2.3-1.2l24.6-36.4c0.5-0.8,0-1.8-1-1.8h-47.3c-1.8,0-3.4,0.9-4.4,2.4
			l-23.1,34.1C618.4,344.3,619.3,346,620.8,346z"/>
		<g>
			<path class="st4" d="M655.7,316.3h7.8c0.6,0,1-0.5,1-1v-10.9h-9.8v10.9C654.7,315.8,655.2,316.3,655.7,316.3z"/>
			<path class="st6" d="M655.8,316.3h3.9v-11.9h-5v10.8C654.7,315.8,655.2,316.3,655.8,316.3z"/>
			<path class="st4" d="M653.7,304.4h11.9c0.4,0,0.8-0.4,0.8-0.8v-1.5c0-0.4-0.4-0.8-0.8-0.8h-11.9c-0.4,0-0.8,0.4-0.8,0.8v1.5
				C652.9,304.1,653.3,304.4,653.7,304.4z"/>
			<path class="st6" d="M653.7,304.4h5.9v-3h-5.9c-0.5,0-0.8,0.4-0.8,0.8v1.4C652.9,304,653.3,304.4,653.7,304.4z"/>
		</g>
	</g>
	<g>
		<path class="st17" d="M649.8,323.2L649.8,323.2c0.8,0,1.4-0.6,1.4-1.4v-15.3c-0.9,0-2.1,0-2.8,0v15.3
			C648.4,322.6,649,323.2,649.8,323.2z"/>
		<path class="st17" d="M640.3,324.2L640.3,324.2c0.6,0.6,1.4,0.6,2,0l8.5-8.5c0.6-0.6,0.6-1.4,0-2l0,0c-0.6-0.6-1.4-0.6-2,0
			l-8.5,8.5C639.7,322.8,639.7,323.7,640.3,324.2z"/>
		<path class="st17" d="M660.9,339L660.9,339c0.6-0.6,0.6-1.4,0-2l-16.3-16.3c-0.6-0.6-1.4-0.6-2,0l0,0c-0.6,0.6-0.6,1.4,0,2
			l16.3,16.3C659.4,339.5,660.3,339.5,660.9,339z"/>
		<path class="st17" d="M648.5,342.1L648.5,342.1c0.6,0.6,1.4,0.6,2,0l6-6c0.6-0.6,0.6-1.4,0-2l0,0c-0.6-0.6-1.4-0.6-2,0l-6,6
			C647.9,340.7,647.9,341.5,648.5,342.1z"/>
	</g>
</g>
<g>
	<path class="st4" d="M604.4,283.9v95.4c0,1.7-1.4,3.1-3.1,3.1h-41.8V281.9l19.1-30.7c1.5-2.5,5.1-2.5,6.6,0l18,28.9
		C604,281.3,604.4,282.6,604.4,283.9z"/>
	<path class="st2" d="M522.9,382.4h36.6V282h-36.6c-1.5,0-2.8,1.2-2.8,2.8v94.9C520.2,381.2,521.4,382.4,522.9,382.4z"/>
	<path class="st9" d="M544,358.6h9.3c1.2,0,2.1-1,2.1-2.1v-12c0-1.2-1-2.1-2.1-2.1H544c-1.2,0-2.1,1-2.1,2.1v12
		C541.9,357.7,542.8,358.6,544,358.6z"/>
	<path class="st3" d="M577.3,356.3h9.3c1.2,0,2.1-1,2.1-2.1v-12c0-1.2-1-2.1-2.1-2.1h-9.3c-1.2,0-2.1,1-2.1,2.1v12
		C575.1,355.4,576.1,356.3,577.3,356.3z"/>
	<path class="st9" d="M525.5,358.6h9.3c1.2,0,2.1-1,2.1-2.1v-12c0-1.2-1-2.1-2.1-2.1h-9.3c-1.2,0-2.1,1-2.1,2.1v12
		C523.3,357.7,524.3,358.6,525.5,358.6z"/>
	<path class="st9" d="M544,323.8h9.3c1.2,0,2.1-1,2.1-2.1v-12c0-1.2-1-2.1-2.1-2.1H544c-1.2,0-2.1,1-2.1,2.1v12
		C541.9,322.9,542.8,323.8,544,323.8z"/>
	<path class="st3" d="M577.3,323.8h9.3c1.2,0,2.1-1,2.1-2.1v-12c0-1.2-1-2.1-2.1-2.1h-9.3c-1.2,0-2.1,1-2.1,2.1v12
		C575.1,322.9,576.1,323.8,577.3,323.8z"/>
	<path class="st9" d="M525.5,323.8h9.3c1.2,0,2.1-1,2.1-2.1v-12c0-1.2-1-2.1-2.1-2.1h-9.3c-1.2,0-2.1,1-2.1,2.1v12
		C523.3,322.9,524.3,323.8,525.5,323.8z"/>
	<path class="st7" d="M520.2,282.9h40.2c0.8,0,1.5-0.4,1.9-1l20.9-30.9c0.4-0.7,0-1.6-0.8-1.6h-40.2c-1.5,0-2.9,0.8-3.8,2l-19.6,29
		C518.2,281.5,518.9,282.9,520.2,282.9z"/>
	<g>
		<path class="st4" d="M547.1,254.5h7.8c0.6,0,1-0.5,1-1v-10.9H546v10.9C546.1,254.1,546.6,254.5,547.1,254.5z"/>
		<path class="st2" d="M547.2,254.5h3.9v-11.9h-4.9v10.8C546.1,254.1,546.6,254.5,547.2,254.5z"/>
		<path class="st4" d="M545.1,242.7H557c0.4,0,0.8-0.4,0.8-0.8v-1.5c0-0.4-0.4-0.8-0.8-0.8h-11.9c-0.4,0-0.8,0.4-0.8,0.8v1.5
			C544.3,242.3,544.7,242.7,545.1,242.7z"/>
		<path class="st2" d="M545.1,242.7h5.9v-3h-5.9c-0.5,0-0.8,0.4-0.8,0.8v1.4C544.3,242.3,544.7,242.7,545.1,242.7z"/>
	</g>
	<g>
		<path class="st6" d="M591.6,276.1L591.6,276.1c0.8,0,1.4-0.6,1.4-1.4v-11.1c-1.2-1.9-1.4-2.2-2.8-4.5v15.6
			C590.2,275.5,590.8,276.1,591.6,276.1z"/>
		<path class="st6" d="M582.1,278.9L582.1,278.9c0.6,0.6,1.4,0.6,2,0l8.5-8.5c0.6-0.6,0.6-1.4,0-2l0,0c-0.6-0.6-1.4-0.6-2,0
			l-8.5,8.5C581.5,277.4,581.5,278.3,582.1,278.9z"/>
		<path class="st6" d="M599.6,290.8L599.6,290.8c0.6-0.6,0.6-1.4,0-2l-12.7-12.7c-0.6-0.6-1.4-0.6-2,0l0,0c-0.6,0.6-0.6,1.4,0,2
			l12.7,12.7C598.1,291.4,599,291.4,599.6,290.8z"/>
		<path class="st6" d="M582.1,293.8L582.1,293.8c0.6,0.6,1.4,0.6,2,0l8.5-8.5c0.6-0.6,0.6-1.4,0-2l0,0c-0.6-0.6-1.4-0.6-2,0
			l-8.5,8.5C581.5,292.4,581.5,293.3,582.1,293.8z"/>
	</g>
	<g>
		<path class="st17" d="M544.3,266.1L544.3,266.1c0.8,0,1.4-0.6,1.4-1.4v-15.3c-0.9,0-2.1,0-2.8,0v15.3
			C542.9,265.4,543.5,266.1,544.3,266.1z"/>
		<path class="st17" d="M534.8,267.1L534.8,267.1c0.6,0.6,1.4,0.6,2,0l8.5-8.5c0.6-0.6,0.6-1.4,0-2l0,0c-0.6-0.6-1.4-0.6-2,0
			l-8.5,8.5C534.2,265.6,534.2,266.5,534.8,267.1z"/>
		<path class="st17" d="M552.3,278.7L552.3,278.7c0.6-0.6,0.6-1.4,0-2l-13.2-13.2c-0.6-0.6-1.4-0.6-2,0l0,0c-0.6,0.6-0.6,1.4,0,2
			l13.2,13.2C550.8,279.3,551.7,279.3,552.3,278.7z"/>
		<path class="st17" d="M540.3,281.1L540.3,281.1c0.6,0.6,1.4,0.6,2,0l6-6c0.6-0.6,0.6-1.4,0-2l0,0c-0.6-0.6-1.4-0.6-2,0l-6,6
			C539.7,279.6,539.7,280.5,540.3,281.1z"/>
	</g>
</g>
<g>
	<path class="st4" d="M503.4,308.3l24.8,34.7c0.4,0.5,0.6,1.1,0.6,1.8v46.9c0,1.7-1.4,3.1-3.1,3.1h-49.9v-51l23.8-35.4
		C500.6,307,502.5,307,503.4,308.3z"/>
	<path class="st3" d="M490.8,394.8h22.6v-35.6c0-2.5-2-4.4-4.4-4.4h-13.7c-2.5,0-4.4,2-4.4,4.4v35.6H490.8z"/>
	<path class="st6" d="M428.4,394.8H476v-50.9h-47.6c-1.5,0-2.8,1.2-2.8,2.8v45.4C425.6,393.6,426.8,394.8,428.4,394.8z"/>
	<path class="st3" d="M455.7,381.1h9.3c1.2,0,2.1-1,2.1-2.1v-19.5c0-1.2-1-2.1-2.1-2.1h-9.3c-1.2,0-2.1,1-2.1,2.1V379
		C453.6,380.1,454.6,381.1,455.7,381.1z"/>
	<path class="st3" d="M433.9,381.1h9.3c1.2,0,2.1-1,2.1-2.1v-19.5c0-1.2-1-2.1-2.1-2.1h-9.3c-1.2,0-2.1,1-2.1,2.1V379
		C431.8,380.1,432.7,381.1,433.9,381.1z"/>
	<path class="st7" d="M427.5,346.1h47.3c0.9,0,1.8-0.5,2.3-1.2l24.6-36.4c0.5-0.8,0-1.8-1-1.8h-47.3c-1.8,0-3.4,0.9-4.4,2.4
		l-23.1,34.1C425.1,344.4,426,346.1,427.5,346.1z"/>
	<g>
		<path class="st4" d="M462.4,316.4h7.8c0.6,0,1-0.5,1-1v-10.9h-9.9v10.9C461.4,316,461.8,316.4,462.4,316.4z"/>
		<path class="st6" d="M462.4,316.4h3.9v-11.9h-4.9v10.8C461.4,315.9,461.8,316.4,462.4,316.4z"/>
		<path class="st4" d="M460.4,304.5h11.9c0.4,0,0.8-0.4,0.8-0.8v-1.5c0-0.4-0.4-0.8-0.8-0.8h-11.9c-0.4,0-0.8,0.4-0.8,0.8v1.5
			C459.6,304.2,459.9,304.5,460.4,304.5z"/>
		<path class="st6" d="M460.4,304.5h5.9v-3h-5.9c-0.5,0-0.8,0.4-0.8,0.8v1.4C459.6,304.2,459.9,304.5,460.4,304.5z"/>
	</g>
	<path class="st17" d="M457.8,323.2L457.8,323.2c0.8,0,1.4-0.6,1.4-1.4v-15.3c-0.9,0-2.1,0-2.8,0v15.3
		C456.4,322.6,457.1,323.2,457.8,323.2z"/>
	<path class="st17" d="M448.3,324.2L448.3,324.2c0.6,0.6,1.4,0.6,2,0l8.5-8.5c0.6-0.6,0.6-1.4,0-2l0,0c-0.6-0.6-1.4-0.6-2,0
		l-8.5,8.5C447.8,322.8,447.8,323.7,448.3,324.2z"/>
	<path class="st17" d="M469,339L469,339c0.6-0.6,0.6-1.4,0-2l-16.3-16.3c-0.6-0.6-1.4-0.6-2,0l0,0c-0.6,0.6-0.6,1.4,0,2L467,339
		C467.5,339.5,468.4,339.5,469,339z"/>
	<path class="st17" d="M456.5,342.1L456.5,342.1c0.6,0.6,1.4,0.6,2,0l6-6c0.6-0.6,0.6-1.4,0-2l0,0c-0.6-0.6-1.4-0.6-2,0l-6,6
		C456,340.7,456,341.5,456.5,342.1z"/>
</g>
<g>
	<path class="st6" d="M720.4,310.5l-24.8,34.7c-0.4,0.5-0.6,1.1-0.6,1.8v46.9c0,1.7,1.4,3.1,3.1,3.1H748v-51l-23.8-35.4
		C723.2,309.2,721.3,309.2,720.4,310.5z"/>
	<path class="st9" d="M732.9,397h-22.6v-35.6c0-2.5,2-4.4,4.4-4.4h13.7c2.5,0,4.4,2,4.4,4.4L732.9,397L732.9,397z"/>
	<path class="st4" d="M795.4,397h-47.6v-50.9h47.6c1.5,0,2.8,1.2,2.8,2.8v45.4C798.2,395.8,796.9,397,795.4,397z"/>
	<path class="st3" d="M768,383.3h-9.3c-1.2,0-2.1-1-2.1-2.1v-19.5c0-1.2,1-2.1,2.1-2.1h9.3c1.2,0,2.1,1,2.1,2.1v19.5
		C770.2,382.4,769.2,383.3,768,383.3z"/>
	<path class="st3" d="M789.9,383.3h-9.3c-1.2,0-2.1-1-2.1-2.1v-19.5c0-1.2,1-2.1,2.1-2.1h9.3c1.2,0,2.1,1,2.1,2.1v19.5
		C792,382.4,791.1,383.3,789.9,383.3z"/>
	<path class="st5" d="M796.3,348.3H749c-0.9,0-1.8-0.5-2.3-1.2l-24.6-36.4c-0.5-0.8,0-1.8,1-1.8h47.3c1.8,0,3.4,0.9,4.4,2.4
		l23.1,34.1C798.7,346.6,797.8,348.3,796.3,348.3z"/>
	<path class="st6" d="M761.4,318.6h-7.8c-0.6,0-1-0.5-1-1v-10.8h9.9v10.9C762.4,318.2,761.9,318.6,761.4,318.6z"/>
	<path class="st4" d="M761.3,318.6h-3.9v-11.8h4.9v10.8C762.4,318.2,761.9,318.6,761.3,318.6z"/>
	<path class="st6" d="M763.4,306.8h-11.9c-0.4,0-0.8-0.4-0.8-0.8v-1.5c0-0.4,0.4-0.8,0.8-0.8h11.9c0.4,0,0.8,0.4,0.8,0.8v1.5
		C764.2,306.4,763.9,306.8,763.4,306.8z"/>
	<path class="st4" d="M763.4,306.8h-5.9v-3h5.9c0.5,0,0.8,0.4,0.8,0.8v1.4C764.2,306.4,763.8,306.8,763.4,306.8z"/>
</g>
<g>
	<path class="st2" d="M925.8,375h-50.1c-2.9,0-5.3-3.8-5.3-8.6V216.9c0-2.7,0.8-4.1,2.1-5.8l20.6-25.8c1.8-2.2,4.2-2.4,6.1-0.3
		l26.6,28.7L925.8,375L925.8,375z"/>
	<path class="st4" d="M973.9,375h-48V213.7h50.6c2.7,0,4.8,2.2,4.8,4.8v149.2C981.2,371.7,977.9,375,973.9,375z"/>
	<g>
		<path class="st3" d="M940,247.9h-5.5c-1,0-1.8-0.8-1.8-1.8v-13.7c0-1,0.8-1.8,1.8-1.8h5.5c1,0,1.8,0.8,1.8,1.8v13.7
			C941.8,247.1,941,247.9,940,247.9z"/>
	</g>
	<g>
		<path class="st3" d="M940,284.3h-5.5c-1,0-1.8-0.8-1.8-1.8v-13.6c0-1,0.8-1.8,1.8-1.8h5.5c1,0,1.8,0.8,1.8,1.8v13.7
			C941.8,283.5,941,284.3,940,284.3z"/>
	</g>
	<g>
		<path class="st3" d="M956.2,247.9h-5.5c-1,0-1.8-0.8-1.8-1.8v-13.7c0-1,0.8-1.8,1.8-1.8h5.5c1,0,1.8,0.8,1.8,1.8v13.7
			C958,247.1,957.2,247.9,956.2,247.9z"/>
	</g>
	<g>
		<path class="st10" d="M972.6,247.9h-5.5c-1,0-1.8-0.8-1.8-1.8v-13.7c0-1,0.8-1.8,1.8-1.8h5.5c1,0,1.8,0.8,1.8,1.8v13.7
			C974.3,247.1,973.5,247.9,972.6,247.9z"/>
	</g>
	<g>
		<path class="st3" d="M956.2,284.3h-5.5c-1,0-1.8-0.8-1.8-1.8v-13.6c0-1,0.8-1.8,1.8-1.8h5.5c1,0,1.8,0.8,1.8,1.8v13.7
			C958,283.5,957.2,284.3,956.2,284.3z"/>
	</g>
	<g>
		<path class="st3" d="M972.6,284.3h-5.5c-1,0-1.8-0.8-1.8-1.8v-13.6c0-1,0.8-1.8,1.8-1.8h5.5c1,0,1.8,0.8,1.8,1.8v13.7
			C974.3,283.5,973.5,284.3,972.6,284.3z"/>
	</g>
	<g>
		<path class="st10" d="M940,319.2h-5.5c-1,0-1.8-0.8-1.8-1.8v-13.7c0-1,0.8-1.8,1.8-1.8h5.5c1,0,1.8,0.8,1.8,1.8v13.7
			C941.8,318.4,941,319.2,940,319.2z"/>
	</g>
	<g>
		<path class="st3" d="M940,355.6h-5.5c-1,0-1.8-0.8-1.8-1.8v-13.7c0-1,0.8-1.8,1.8-1.8h5.5c1,0,1.8,0.8,1.8,1.8v13.7
			C941.8,354.8,941,355.6,940,355.6z"/>
	</g>
	<g>
		<path class="st3" d="M956.2,319.2h-5.5c-1,0-1.8-0.8-1.8-1.8v-13.7c0-1,0.8-1.8,1.8-1.8h5.5c1,0,1.8,0.8,1.8,1.8v13.7
			C958,318.4,957.2,319.2,956.2,319.2z"/>
	</g>
	<g>
		<path class="st10" d="M972.6,319.2h-5.5c-1,0-1.8-0.8-1.8-1.8v-13.7c0-1,0.8-1.8,1.8-1.8h5.5c1,0,1.8,0.8,1.8,1.8v13.7
			C974.3,318.4,973.5,319.2,972.6,319.2z"/>
	</g>
	<g>
		<path class="st3" d="M956.2,355.6h-5.5c-1,0-1.8-0.8-1.8-1.8v-13.7c0-1,0.8-1.8,1.8-1.8h5.5c1,0,1.8,0.8,1.8,1.8v13.7
			C958,354.8,957.2,355.6,956.2,355.6z"/>
	</g>
	<g>
		<path class="st3" d="M972.6,355.6h-5.5c-1,0-1.8-0.8-1.8-1.8v-13.7c0-1,0.8-1.8,1.8-1.8h5.5c1,0,1.8,0.8,1.8,1.8v13.7
			C974.3,354.8,973.5,355.6,972.6,355.6z"/>
	</g>
	<g>
		<path class="st10" d="M884.6,247.9h-5.5c-1,0-1.8-0.8-1.8-1.8v-13.7c0-1,0.8-1.8,1.8-1.8h5.5c1,0,1.8,0.8,1.8,1.8v13.7
			C886.4,247.1,885.6,247.9,884.6,247.9z"/>
	</g>
	<g>
		<path class="st9" d="M884.6,284.3h-5.5c-1,0-1.8-0.8-1.8-1.8v-13.6c0-1,0.8-1.8,1.8-1.8h5.5c1,0,1.8,0.8,1.8,1.8v13.7
			C886.4,283.5,885.6,284.3,884.6,284.3z"/>
	</g>
	<g>
		<path class="st9" d="M900.8,247.9h-5.5c-1,0-1.8-0.8-1.8-1.8v-13.7c0-1,0.8-1.8,1.8-1.8h5.5c1,0,1.8,0.8,1.8,1.8v13.7
			C902.6,247.1,901.8,247.9,900.8,247.9z"/>
	</g>
	<g>
		<path class="st9" d="M917.2,247.9h-5.5c-1,0-1.8-0.8-1.8-1.8v-13.7c0-1,0.8-1.8,1.8-1.8h5.5c1,0,1.8,0.8,1.8,1.8v13.7
			C919,247.1,918.2,247.9,917.2,247.9z"/>
	</g>
	<g>
		<path class="st10" d="M900.8,284.3h-5.5c-1,0-1.8-0.8-1.8-1.8v-13.6c0-1,0.8-1.8,1.8-1.8h5.5c1,0,1.8,0.8,1.8,1.8v13.7
			C902.6,283.5,901.8,284.3,900.8,284.3z"/>
	</g>
	<g>
		<path class="st9" d="M917.2,284.3h-5.5c-1,0-1.8-0.8-1.8-1.8v-13.6c0-1,0.8-1.8,1.8-1.8h5.5c1,0,1.8,0.8,1.8,1.8v13.7
			C919,283.5,918.2,284.3,917.2,284.3z"/>
	</g>
	<g>
		<path class="st10" d="M884.6,319.2h-5.5c-1,0-1.8-0.8-1.8-1.8v-13.7c0-1,0.8-1.8,1.8-1.8h5.5c1,0,1.8,0.8,1.8,1.8v13.7
			C886.4,318.4,885.6,319.2,884.6,319.2z"/>
	</g>
	<g>
		<path class="st9" d="M884.6,355.6h-5.5c-1,0-1.8-0.8-1.8-1.8v-13.7c0-1,0.8-1.8,1.8-1.8h5.5c1,0,1.8,0.8,1.8,1.8v13.7
			C886.4,354.8,885.6,355.6,884.6,355.6z"/>
	</g>
	<g>
		<path class="st9" d="M900.8,319.2h-5.5c-1,0-1.8-0.8-1.8-1.8v-13.7c0-1,0.8-1.8,1.8-1.8h5.5c1,0,1.8,0.8,1.8,1.8v13.7
			C902.6,318.4,901.8,319.2,900.8,319.2z"/>
	</g>
	<g>
		<path class="st9" d="M917.2,319.2h-5.5c-1,0-1.8-0.8-1.8-1.8v-13.7c0-1,0.8-1.8,1.8-1.8h5.5c1,0,1.8,0.8,1.8,1.8v13.7
			C919,318.4,918.2,319.2,917.2,319.2z"/>
	</g>
	<g>
		<path class="st9" d="M900.8,355.6h-5.5c-1,0-1.8-0.8-1.8-1.8v-13.7c0-1,0.8-1.8,1.8-1.8h5.5c1,0,1.8,0.8,1.8,1.8v13.7
			C902.6,354.8,901.8,355.6,900.8,355.6z"/>
	</g>
	<g>
		<path class="st9" d="M917.2,355.6h-5.5c-1,0-1.8-0.8-1.8-1.8v-13.7c0-1,0.8-1.8,1.8-1.8h5.5c1,0,1.8,0.8,1.8,1.8v13.7
			C919,354.8,918.2,355.6,917.2,355.6z"/>
	</g>
	<path class="st5" d="M975.9,216.8l-46.9,0.1c-1.5,0-2.9-0.5-3.9-1.3l-31.8-27.9c-2.8-2.4-0.5-6.2,3.9-6.2h44.4
		c1.5,0,2.9,0.5,3.9,1.3l34.4,27.8C982.6,213,980.3,216.8,975.9,216.8z"/>
	<path class="st6" d="M945,195.9h-16.9c-0.6,0-1-0.5-1-1v-21.7H946v21.7C946,195.5,945.6,195.9,945,195.9z"/>
	<path class="st4" d="M945,195.9h-8.4v-22.7h9.5v21.7C946,195.5,945.5,195.9,945,195.9z"/>
	<path class="st6" d="M948.7,176.1h-24.3c-0.4,0-0.8-0.4-0.8-0.8v-4.2c0-0.4,0.4-0.8,0.8-0.8h24.3c0.4,0,0.8,0.4,0.8,0.8v4.2
		C949.5,175.7,949.2,176.1,948.7,176.1z"/>
	<path class="st4" d="M948.7,176.1h-12.1v-5.8h12.1c0.5,0,0.8,0.4,0.8,0.8v4.2C949.5,175.7,949.2,176.1,948.7,176.1z"/>
	<path class="st13" d="M918.1,198.1L918.1,198.1c-0.8,0-1.4-0.6-1.4-1.4v-15.3c0.9,0,2.1,0,2.8,0v15.3
		C919.5,197.5,918.9,198.1,918.1,198.1z"/>
	<path class="st13" d="M927.6,199.2L927.6,199.2c-0.6,0.6-1.4,0.6-2,0l-8.5-8.5c-0.6-0.6-0.6-1.4,0-2l0,0c0.6-0.6,1.4-0.6,2,0
		l8.5,8.5C928.1,197.7,928.1,198.6,927.6,199.2z"/>
	<path class="st13" d="M916.5,204.6L916.5,204.6c-0.6-0.6-0.6-1.4,0-2l6.2-6.2c0.6-0.6,1.4-0.6,2,0l0,0c0.6,0.6,0.6,1.4,0,2
		l-6.2,6.2C918,205.2,917.1,205.2,916.5,204.6z"/>
	<path class="st13" d="M934.4,213.2L934.4,213.2c-0.6,0.6-1.4,0.6-2,0l-11.7-11.7c-0.6-0.6-0.6-1.4,0-2l0,0c0.6-0.6,1.4-0.6,2,0
		l11.7,11.7C935,211.8,935,212.7,934.4,213.2z"/>
	<g>
		<path class="st14" d="M888.6,209L888.6,209c0.8,0,1.4-0.6,1.4-1.4v-18.3l-2.8,3.5v14.8C887.2,208.4,887.8,209,888.6,209z"/>
		<path class="st14" d="M879.1,211.8L879.1,211.8c0.6,0.6,1.4,0.6,2,0l8.5-8.5c0.6-0.6,0.6-1.4,0-2l0,0c-0.6-0.6-1.4-0.6-2,0
			l-8.5,8.5C878.5,210.3,878.5,211.2,879.1,211.8z"/>
		<path class="st14" d="M896.6,223.7L896.6,223.7c0.6-0.6,0.6-1.4,0-2L883.9,209c-0.6-0.6-1.4-0.6-2,0l0,0c-0.6,0.6-0.6,1.4,0,2
			l12.7,12.7C895.1,224.3,896,224.3,896.6,223.7z"/>
		<path class="st14" d="M879.1,226.7L879.1,226.7c0.6,0.6,1.4,0.6,2,0l8.5-8.5c0.6-0.6,0.6-1.4,0-2l0,0c-0.6-0.6-1.4-0.6-2,0
			l-8.5,8.5C878.5,225.3,878.5,226.2,879.1,226.7z"/>
	</g>
	<g>
		<path class="st15" d="M934.8,242.8v5h1.4v-5c0-0.4-0.3-0.7-0.7-0.7l0,0C935.1,242.1,934.8,242.4,934.8,242.8z"/>
		<path class="st15" d="M939.9,240.3c-0.3-0.3-0.7-0.3-1,0l-3.7,3.7c-0.3,0.3-0.3,0.7,0,1l0,0c0.3,0.3,0.7,0.3,1,0l3.7-3.7
			C940.2,241,940.2,240.6,939.9,240.3L939.9,240.3z"/>
		<path class="st15" d="M932.7,236.4l5.3,5.3c0.3,0.3,0.7,0.3,1,0l0,0c0.3-0.3,0.3-0.7,0-1l-6.2-6.2L932.7,236.4z"/>
		<path class="st15" d="M939.9,233c-0.3-0.3-0.7-0.3-1,0l-4.2,4.2c-0.1,0.1-0.1,0.3,0,0.5l0.5,0.5c0.1,0.1,0.3,0.1,0.5,0l4.2-4.2
			C940.2,233.7,940.2,233.2,939.9,233L939.9,233z"/>
	</g>
	<g>
		<path class="st15" d="M956,272.2v-5h-1.4v5c0,0.4,0.3,0.7,0.7,0.7l0,0C955.7,272.9,956,272.6,956,272.2z"/>
		<path class="st15" d="M950.9,274.7c0.3,0.3,0.7,0.3,1,0l3.7-3.7c0.3-0.3,0.3-0.7,0-1l0,0c-0.3-0.3-0.7-0.3-1,0l-3.7,3.7
			C950.6,274,950.6,274.5,950.9,274.7L950.9,274.7z"/>
		<path class="st15" d="M958,278.7l-5.3-5.3c-0.3-0.3-0.7-0.3-1,0l0,0c-0.3,0.3-0.3,0.7,0,1l6.2,6.2L958,278.7z"/>
		<path class="st15" d="M950.9,282.1c0.3,0.3,0.7,0.3,1,0l4.2-4.2c0.1-0.1,0.1-0.3,0-0.5l-0.5-0.5c-0.1-0.1-0.3-0.1-0.5,0l-4.2,4.2
			C950.6,281.4,950.6,281.8,950.9,282.1L950.9,282.1z"/>
	</g>
	<path class="st16" d="M899.8,235.7v-5h-1.4v5c0,0.4,0.3,0.7,0.7,0.7l0,0C899.5,236.4,899.8,236.1,899.8,235.7z"/>
	<path class="st16" d="M894.7,238.2c0.3,0.3,0.7,0.3,1,0l3.7-3.7c0.3-0.3,0.3-0.7,0-1l0,0c-0.3-0.3-0.7-0.3-1,0l-3.7,3.7
		C894.4,237.5,894.4,238,894.7,238.2L894.7,238.2z"/>
	<path class="st16" d="M896.9,243.4L896.9,243.4c-0.4,0-0.7-0.3-0.7-0.7v-6.3c0-0.4,0.3-0.7,0.7-0.7l0,0c0.4,0,0.7,0.3,0.7,0.7v6.3
		C897.6,243.1,897.2,243.4,896.9,243.4z"/>
	<path class="st16" d="M899.9,241.6L899.9,241.6c-0.3,0.3-0.7,0.3-1,0l-2.5-2.5c-0.3-0.3-0.3-0.7,0-1l0,0c0.3-0.3,0.7-0.3,1,0
		l2.5,2.5C900.2,240.9,900.2,241.3,899.9,241.6z"/>
</g>
<g>
	<path class="st2" d="M1064.4,279.2v95.4c0,1.7,1.4,3.1,3.1,3.1h41.8V277.2l-19.1-30.7c-1.5-2.5-5.1-2.5-6.6,0l-18,28.9
		C1064.8,276.6,1064.4,277.9,1064.4,279.2z"/>
	<path class="st4" d="M1145.8,377.7h-36.6V277.3h36.6c1.5,0,2.8,1.2,2.8,2.8V375C1148.6,376.5,1147.3,377.7,1145.8,377.7z"/>
	<path class="st3" d="M1124.8,354h-9.3c-1.2,0-2.1-1-2.1-2.1v-12c0-1.2,1-2.1,2.1-2.1h9.3c1.2,0,2.1,1,2.1,2.1v12
		C1126.9,353,1125.9,354,1124.8,354z"/>
	<path class="st9" d="M1091.5,351.6h-9.3c-1.2,0-2.1-1-2.1-2.1v-12c0-1.2,1-2.1,2.1-2.1h9.3c1.2,0,2.1,1,2.1,2.1v12
		C1093.6,350.7,1092.6,351.6,1091.5,351.6z"/>
	<path class="st3" d="M1143.3,354h-9.3c-1.2,0-2.1-1-2.1-2.1v-12c0-1.2,1-2.1,2.1-2.1h9.3c1.2,0,2.1,1,2.1,2.1v12
		C1145.4,353,1144.5,354,1143.3,354z"/>
	<path class="st3" d="M1124.8,319.1h-9.3c-1.2,0-2.1-1-2.1-2.1v-12c0-1.2,1-2.1,2.1-2.1h9.3c1.2,0,2.1,1,2.1,2.1v12
		C1126.9,318.2,1125.9,319.1,1124.8,319.1z"/>
	<path class="st9" d="M1091.5,319.1h-9.3c-1.2,0-2.1-1-2.1-2.1v-12c0-1.2,1-2.1,2.1-2.1h9.3c1.2,0,2.1,1,2.1,2.1v12
		C1093.6,318.2,1092.6,319.1,1091.5,319.1z"/>
	<path class="st3" d="M1143.3,319.1h-9.3c-1.2,0-2.1-1-2.1-2.1v-12c0-1.2,1-2.1,2.1-2.1h9.3c1.2,0,2.1,1,2.1,2.1v12
		C1145.4,318.2,1144.5,319.1,1143.3,319.1z"/>
	<path class="st7" d="M1148.5,278.2h-40.2c-0.8,0-1.5-0.4-1.9-1l-20.9-30.9c-0.4-0.7,0-1.6,0.8-1.6h40.2c1.5,0,2.9,0.8,3.8,2
		l19.6,29C1150.6,276.8,1149.8,278.2,1148.5,278.2z"/>
	<path class="st2" d="M1121.6,249.8h-7.8c-0.6,0-1-0.5-1-1v-10.9h9.9v10.9C1122.7,249.4,1122.2,249.8,1121.6,249.8z"/>
	<path class="st4" d="M1121.6,249.8h-3.9v-11.9h4.9v10.9C1122.7,249.4,1122.2,249.8,1121.6,249.8z"/>
	<path class="st2" d="M1123.7,238h-11.9c-0.4,0-0.8-0.4-0.8-0.8v-1.5c0-0.4,0.4-0.8,0.8-0.8h11.9c0.4,0,0.8,0.4,0.8,0.8v1.5
		C1124.5,237.6,1124.1,238,1123.7,238z"/>
	<path class="st4" d="M1123.6,238h-5.9v-3h5.9c0.5,0,0.8,0.4,0.8,0.8v1.4C1124.5,237.6,1124.1,238,1123.6,238z"/>
	<g>
		<path class="st17" d="M1110.1,261.4L1110.1,261.4c0.8,0,1.4-0.6,1.4-1.4v-15.3c-0.9,0-2.1,0-2.8,0V260
			C1108.7,260.8,1109.3,261.4,1110.1,261.4z"/>
		<path class="st17" d="M1100.6,262.4L1100.6,262.4c0.6,0.6,1.4,0.6,2,0l8.5-8.5c0.6-0.6,0.6-1.4,0-2l0,0c-0.6-0.6-1.4-0.6-2,0
			l-8.5,8.5C1100,261,1100,261.9,1100.6,262.4z"/>
		<path class="st17" d="M1113.9,270.2L1113.9,270.2c0.6-0.6,0.6-1.4,0-2l-8.5-8.5c-0.6-0.6-1.4-0.6-2,0l0,0c-0.6,0.6-0.6,1.4,0,2
			l8.5,8.5C1112.5,270.7,1113.4,270.7,1113.9,270.2z"/>
	</g>
	<g>
		<path class="st20" d="M1077.2,271.4L1077.2,271.4c-0.8,0-1.4-0.6-1.4-1.4v-11.1c1.2-1.9,1.4-2.2,2.8-4.5V270
			C1078.6,270.8,1078,271.4,1077.2,271.4z"/>
		<path class="st20" d="M1086.7,274.2L1086.7,274.2c-0.6,0.6-1.4,0.6-2,0l-8.5-8.5c-0.6-0.6-0.6-1.4,0-2l0,0c0.6-0.6,1.4-0.6,2,0
			l8.5,8.5C1087.2,272.7,1087.2,273.6,1086.7,274.2z"/>
		<path class="st20" d="M1069.2,286.1L1069.2,286.1c-0.6-0.6-0.6-1.4,0-2l12.7-12.7c0.6-0.6,1.4-0.6,2,0l0,0c0.6,0.6,0.6,1.4,0,2
			l-12.7,12.7C1070.6,286.7,1069.7,286.7,1069.2,286.1z"/>
		<path class="st20" d="M1086.7,289.1L1086.7,289.1c-0.6,0.6-1.4,0.6-2,0l-8.5-8.5c-0.6-0.6-0.6-1.4,0-2l0,0c0.6-0.6,1.4-0.6,2,0
			l8.5,8.5C1087.2,287.7,1087.2,288.6,1086.7,289.1z"/>
	</g>
</g>
<g>
	<path class="st4" d="M937.9,290l24.9,34.7c0.4,0.5,0.6,1.1,0.6,1.8v46.9c0,1.7-1.4,3.1-3.1,3.1h-49.9v-51l23.8-35.5
		C935.1,288.7,937,288.7,937.9,290z"/>
	<path class="st3" d="M925.5,376.5h22.6v-35.6c0-2.5-2-4.4-4.4-4.4H930c-2.5,0-4.4,2-4.4,4.4L925.5,376.5z"/>
	<path class="st2" d="M863,376.6h47.6v-50.9H863c-1.5,0-2.8,1.2-2.8,2.8v45.4C860.2,375.3,861.4,376.6,863,376.6z"/>
	<path class="st9" d="M890.3,362.8h9.3c1.2,0,2.1-1,2.1-2.1v-19.5c0-1.2-1-2.1-2.1-2.1h-9.3c-1.2,0-2.1,1-2.1,2.1v19.5
		C888.2,361.9,889.2,362.8,890.3,362.8z"/>
	<path class="st9" d="M868.5,362.9h9.3c1.2,0,2.1-1,2.1-2.1v-19.5c0-1.2-1-2.1-2.1-2.1h-9.3c-1.2,0-2.1,1-2.1,2.1v19.5
		C866.4,361.9,867.3,362.9,868.5,362.9z"/>
	<path class="st5" d="M862.1,327.9h47.3c0.9,0,1.8-0.5,2.3-1.2l24.6-36.4c0.5-0.8,0-1.8-1-1.8H888c-1.8,0-3.4,0.9-4.4,2.4l-23,34.2
		C859.7,326.1,860.6,327.9,862.1,327.9z"/>
	<path class="st4" d="M896.9,298.2h7.8c0.6,0,1-0.5,1-1v-10.9h-9.9v10.9C895.9,297.7,896.4,298.2,896.9,298.2z"/>
	<path class="st2" d="M897,298.2h3.9v-11.9H896v10.8C895.9,297.7,896.4,298.2,897,298.2z"/>
	<path class="st4" d="M894.9,286.3h11.9c0.4,0,0.8-0.4,0.8-0.8V284c0-0.4-0.4-0.8-0.8-0.8h-11.9c-0.4,0-0.8,0.4-0.8,0.8v1.5
		C894.1,285.9,894.5,286.3,894.9,286.3z"/>
	<path class="st2" d="M894.9,286.3h5.9v-3h-5.9c-0.5,0-0.8,0.4-0.8,0.8v1.4C894.1,285.9,894.5,286.3,894.9,286.3z"/>
	<g>
		<path class="st21" d="M890.7,356.6v6.2h1.7v-6.2c0-0.5-0.4-0.9-0.9-0.9l0,0C891.1,355.7,890.7,356.1,890.7,356.6z"/>
		<path class="st21" d="M897,353.5c-0.3-0.3-0.9-0.3-1.2,0l-4.6,4.6c-0.3,0.3-0.3,0.9,0,1.2l0,0c0.3,0.3,0.9,0.3,1.2,0l4.6-4.6
			C897.4,354.4,897.4,353.8,897,353.5L897,353.5z"/>
		<path class="st21" d="M888.1,348.6l6.5,6.5c0.3,0.3,0.9,0.3,1.2,0l0,0c0.3-0.3,0.3-0.9,0-1.2l-7.7-7.7V348.6z"/>
		<path class="st21" d="M897,344.4c-0.3-0.3-0.9-0.3-1.2,0l-5.2,5.2c-0.2,0.2-0.2,0.4,0,0.6l0.6,0.6c0.2,0.2,0.4,0.2,0.6,0l5.2-5.2
			C897.4,345.2,897.4,344.7,897,344.4L897,344.4z"/>
	</g>
</g>
<path class="st4" d="M1216,282v95.4c0,1.7-1.4,3.1-3.1,3.1h-41.8V280l19.1-30.7c1.5-2.5,5.1-2.5,6.6,0l18,28.9
	C1215.7,279.4,1216,280.7,1216,282z"/>
<path class="st2" d="M1134.6,380.5h36.6V280h-36.6c-1.5,0-2.8,1.2-2.8,2.8v94.9C1131.8,379.2,1133.1,380.5,1134.6,380.5z"/>
<path class="st9" d="M1155.7,356.7h9.3c1.2,0,2.1-1,2.1-2.1v-12c0-1.2-1-2.1-2.1-2.1h-9.3c-1.2,0-2.1,1-2.1,2.1v12
	C1153.5,355.8,1154.5,356.7,1155.7,356.7z"/>
<path class="st3" d="M1188.9,354.4h9.3c1.2,0,2.1-1,2.1-2.1v-12c0-1.2-1-2.1-2.1-2.1h-9.3c-1.2,0-2.1,1-2.1,2.1v12
	C1186.8,353.4,1187.8,354.4,1188.9,354.4z"/>
<path class="st9" d="M1137.1,356.7h9.3c1.2,0,2.1-1,2.1-2.1v-12c0-1.2-1-2.1-2.1-2.1h-9.3c-1.2,0-2.1,1-2.1,2.1v12
	C1135,355.8,1135.9,356.7,1137.1,356.7z"/>
<path class="st10" d="M1155.7,321.9h9.3c1.2,0,2.1-1,2.1-2.1v-12c0-1.2-1-2.1-2.1-2.1h-9.3c-1.2,0-2.1,1-2.1,2.1v12
	C1153.5,320.9,1154.5,321.9,1155.7,321.9z"/>
<path class="st10" d="M1188.9,321.9h9.3c1.2,0,2.1-1,2.1-2.1v-12c0-1.2-1-2.1-2.1-2.1h-9.3c-1.2,0-2.1,1-2.1,2.1v12
	C1186.8,320.9,1187.8,321.9,1188.9,321.9z"/>
<path class="st9" d="M1137.1,321.9h9.3c1.2,0,2.1-1,2.1-2.1v-12c0-1.2-1-2.1-2.1-2.1h-9.3c-1.2,0-2.1,1-2.1,2.1v12
	C1135,320.9,1135.9,321.9,1137.1,321.9z"/>
<path class="st5" d="M1131.9,281h40.2c0.8,0,1.5-0.4,1.9-1l20.9-30.9c0.4-0.7,0-1.6-0.8-1.6h-40.2c-1.5,0-2.9,0.8-3.8,2l-19.6,29
	C1129.9,279.5,1130.6,281,1131.9,281z"/>
<path class="st4" d="M1158.8,252.6h7.8c0.6,0,1-0.5,1-1v-10.9h-9.9v10.9C1157.8,252.2,1158.2,252.6,1158.8,252.6z"/>
<path class="st2" d="M1158.8,252.6h3.9v-11.9h-4.9v10.8C1157.8,252.1,1158.2,252.6,1158.8,252.6z"/>
<path class="st4" d="M1156.7,240.7h12c0.4,0,0.8-0.4,0.8-0.8v-1.5c0-0.4-0.4-0.8-0.8-0.8h-12c-0.4,0-0.8,0.4-0.8,0.8v1.5
	C1156,240.4,1156.3,240.7,1156.7,240.7z"/>
<path class="st2" d="M1156.8,240.7h5.9v-3h-5.9c-0.5,0-0.8,0.4-0.8,0.8v1.4C1156,240.4,1156.3,240.7,1156.8,240.7z"/>
<g>
	<path class="st13" d="M1156.3,264.2L1156.3,264.2c0.8,0,1.4-0.6,1.4-1.4v-15.3c-0.9,0-2.1,0-2.8,0v15.3
		C1154.9,263.6,1155.6,264.2,1156.3,264.2z"/>
	<path class="st13" d="M1146.9,265.2L1146.9,265.2c0.6,0.6,1.4,0.6,2,0l8.5-8.5c0.6-0.6,0.6-1.4,0-2l0,0c-0.6-0.6-1.4-0.6-2,0
		l-8.5,8.5C1146.3,263.7,1146.3,264.6,1146.9,265.2z"/>
	<path class="st13" d="M1160.2,273L1160.2,273c0.6-0.6,0.6-1.4,0-2l-8.5-8.5c-0.6-0.6-1.4-0.6-2,0l0,0c-0.6,0.6-0.6,1.4,0,2l8.5,8.5
		C1158.7,273.5,1159.6,273.5,1160.2,273z"/>
</g>
<g>
	<path class="st6" d="M964.4,300.7l-24.8,34.7c-0.4,0.5-0.6,1.1-0.6,1.8v46.9c0,1.7,1.4,3.1,3.1,3.1H992v-51l-23.8-35.4
		C967.2,299.4,965.3,299.4,964.4,300.7z"/>
	<path class="st9" d="M976.9,387.2h-22.6v-35.6c0-2.5,2-4.4,4.4-4.4h13.7c2.5,0,4.4,2,4.4,4.4L976.9,387.2L976.9,387.2z"/>
	<path class="st4" d="M1039.4,387h-47.6v-50.9h47.6c1.5,0,2.8,1.2,2.8,2.8v45.4C1042.2,385.8,1040.9,387,1039.4,387z"/>
	<path class="st3" d="M1012,373.5h-9.3c-1.2,0-2.1-1-2.1-2.1v-19.6c0-1.2,1-2.1,2.1-2.1h9.3c1.2,0,2.1,1,2.1,2.1v19.5
		C1014.2,372.5,1013.2,373.5,1012,373.5z"/>
	<path class="st3" d="M1033.9,373.5h-9.3c-1.2,0-2.1-1-2.1-2.1v-19.6c0-1.2,1-2.1,2.1-2.1h9.3c1.2,0,2.1,1,2.1,2.1v19.5
		C1036,372.5,1035,373.5,1033.9,373.5z"/>
	<path class="st5" d="M1040.3,338.5H993c-0.9,0-1.8-0.5-2.3-1.2l-24.6-36.5c-0.5-0.8,0-1.8,1-1.8h47.3c1.8,0,3.4,0.9,4.4,2.4
		l23.1,34.1C1042.7,336.8,1041.8,338.5,1040.3,338.5z"/>
	<path class="st6" d="M1005.4,308.8h-7.8c-0.6,0-1-0.5-1-1v-10.9h9.9v10.9C1006.4,308.3,1005.9,308.8,1005.4,308.8z"/>
	<path class="st4" d="M1005.3,308.8h-3.9v-11.9h4.9v10.8C1006.4,308.3,1005.9,308.8,1005.3,308.8z"/>
	<path class="st6" d="M1007.4,296.9h-11.9c-0.4,0-0.8-0.4-0.8-0.8v-1.5c0-0.4,0.4-0.8,0.8-0.8h11.9c0.4,0,0.8,0.4,0.8,0.8v1.5
		C1008.2,296.6,1007.8,296.9,1007.4,296.9z"/>
	<path class="st4" d="M1007.4,296.9h-5.9v-3h5.9c0.5,0,0.8,0.4,0.8,0.8v1.4C1008.2,296.6,1007.8,296.9,1007.4,296.9z"/>
	<g>
		<path class="st22" d="M972.7,329.5L972.7,329.5c-0.8,0-1.4-0.6-1.4-1.4v-19.3l2.8,4v15.4C974.1,328.9,973.5,329.5,972.7,329.5z"/>
		<path class="st22" d="M982.2,332.3L982.2,332.3c-0.6,0.6-1.4,0.6-2,0l-8.5-8.5c-0.6-0.6-0.6-1.4,0-2l0,0c0.6-0.6,1.4-0.6,2,0
			l8.5,8.5C982.7,330.9,982.7,331.8,982.2,332.3z"/>
		<path class="st22" d="M964.7,344.2L964.7,344.2c-0.6-0.6-0.6-1.4,0-2l12.7-12.7c0.6-0.6,1.4-0.6,2,0l0,0c0.6,0.6,0.6,1.4,0,2
			l-12.7,12.7C966.1,344.8,965.2,344.8,964.7,344.2z"/>
		<path class="st22" d="M982.2,347.3L982.2,347.3c-0.6,0.6-1.4,0.6-2,0l-8.5-8.5c-0.6-0.6-0.6-1.4,0-2l0,0c0.6-0.6,1.4-0.6,2,0
			l8.5,8.5C982.7,345.8,982.7,346.7,982.2,347.3z"/>
	</g>
</g>
<g>
	<path class="st6" d="M1042.6,301.1l-24.9,34.7c-0.4,0.5-0.6,1.1-0.6,1.8v46.9c0,1.7,1.4,3.1,3.1,3.1h49.9v-51l-23.8-35.4
		C1045.4,299.8,1043.5,299.8,1042.6,301.1z"/>
	<path class="st3" d="M1055.1,387.6h-22.6V352c0-2.5,2-4.4,4.4-4.4h13.8c2.5,0,4.4,2,4.4,4.4L1055.1,387.6L1055.1,387.6z"/>
	<path class="st4" d="M1117.6,387.6H1070v-50.9h47.6c1.5,0,2.8,1.2,2.8,2.8v45.3C1120.4,386.4,1119.1,387.6,1117.6,387.6z"/>
	<path class="st3" d="M1090.2,373.9h-9.3c-1.2,0-2.1-1-2.1-2.1v-19.5c0-1.2,1-2.1,2.1-2.1h9.3c1.2,0,2.1,1,2.1,2.1v19.5
		C1092.4,373,1091.4,373.9,1090.2,373.9z"/>
	<path class="st3" d="M1112.1,373.9h-9.4c-1.2,0-2.1-1-2.1-2.1v-19.5c0-1.2,1-2.1,2.1-2.1h9.3c1.2,0,2.1,1,2.1,2.1v19.5
		C1114.2,373,1113.2,373.9,1112.1,373.9z"/>
	<path class="st7" d="M1118.5,338.9h-47.3c-0.9,0-1.8-0.5-2.3-1.2l-24.6-36.4c-0.5-0.8,0-1.8,1-1.8h47.3c1.8,0,3.4,0.9,4.4,2.4
		l23.1,34.1C1120.9,337.2,1120,338.9,1118.5,338.9z"/>
	<path class="st6" d="M1083.6,309.2h-7.9c-0.6,0-1-0.5-1-1v-10.9h9.9v10.9C1084.6,308.8,1084.1,309.2,1083.6,309.2z"/>
	<path class="st4" d="M1083.5,309.2h-3.8v-11.9h4.9v10.8C1084.6,308.8,1084.1,309.2,1083.5,309.2z"/>
	<path class="st6" d="M1085.6,297.4h-11.9c-0.4,0-0.8-0.4-0.8-0.8v-1.5c0-0.4,0.4-0.8,0.8-0.8h11.9c0.4,0,0.8,0.4,0.8,0.8v1.5
		C1086.4,297,1086,297.4,1085.6,297.4z"/>
	<path class="st4" d="M1085.6,297.4h-5.9v-3h5.9c0.5,0,0.8,0.4,0.8,0.8v1.4C1086.4,297,1086,297.4,1085.6,297.4z"/>
	<path class="st17" d="M1088.1,316L1088.1,316c-0.8,0-1.4-0.6-1.4-1.4v-15.3c0.9,0,2.1,0,2.8,0v15.3
		C1089.5,315.4,1088.9,316,1088.1,316z"/>
	<path class="st17" d="M1097.6,317L1097.6,317c-0.6,0.6-1.4,0.6-2,0l-8.5-8.5c-0.6-0.6-0.6-1.4,0-2l0,0c0.6-0.6,1.4-0.6,2,0l8.5,8.5
		C1098.2,315.6,1098.2,316.5,1097.6,317z"/>
	<path class="st17" d="M1077,331.8L1077,331.8c-0.6-0.6-0.6-1.4,0-2l16.3-16.3c0.6-0.6,1.4-0.6,2,0l0,0c0.6,0.6,0.6,1.4,0,2
		l-16.3,16.3C1078.5,332.3,1077.6,332.3,1077,331.8z"/>
	<path class="st17" d="M1089.4,334.9L1089.4,334.9c-0.6,0.6-1.4,0.6-2,0l-6-6c-0.6-0.6-0.6-1.4,0-2l0,0c0.6-0.6,1.4-0.6,2,0l6,6
		C1090,333.5,1090,334.4,1089.4,334.9z"/>
</g>
<g>
	<path class="st2" d="M800,297.2v95.4c0,1.7,1.4,3.1,3.1,3.1h41.8V295.1l-19.2-30.6c-1.5-2.5-5.1-2.5-6.6,0l-18,28.9
		C800.4,294.5,800,295.8,800,297.2z"/>
	<path class="st4" d="M881.4,395.6h-36.6V295.2h36.6c1.5,0,2.8,1.2,2.8,2.8v94.9C884.2,394.4,883,395.6,881.4,395.6z"/>
	<path class="st3" d="M860.4,371.9h-9.3c-1.2,0-2.1-1-2.1-2.1v-12c0-1.2,1-2.1,2.1-2.1h9.3c1.2,0,2.1,1,2.1,2.1v12
		C862.5,370.9,861.6,371.9,860.4,371.9z"/>
	<path class="st3" d="M827.1,369.5h-9.3c-1.2,0-2.1-1-2.1-2.1v-12c0-1.2,1-2.1,2.1-2.1h9.3c1.2,0,2.1,1,2.1,2.1v12
		C829.2,368.6,828.3,369.5,827.1,369.5z"/>
	<path class="st3" d="M878.9,371.9h-9.3c-1.2,0-2.1-1-2.1-2.1v-12c0-1.2,1-2.1,2.1-2.1h9.3c1.2,0,2.1,1,2.1,2.1v12
		C881.1,370.9,880.1,371.9,878.9,371.9z"/>
	<path class="st3" d="M860.4,337.1h-9.3c-1.2,0-2.1-1-2.1-2.1v-12c0-1.2,1-2.1,2.1-2.1h9.3c1.2,0,2.1,1,2.1,2.1v12
		C862.5,336.1,861.6,337.1,860.4,337.1z"/>
	<path class="st3" d="M827.1,337.1h-9.3c-1.2,0-2.1-1-2.1-2.1v-12c0-1.2,1-2.1,2.1-2.1h9.3c1.2,0,2.1,1,2.1,2.1v12
		C829.2,336.1,828.3,337.1,827.1,337.1z"/>
	<path class="st3" d="M878.9,337.1h-9.3c-1.2,0-2.1-1-2.1-2.1v-12c0-1.2,1-2.1,2.1-2.1h9.3c1.2,0,2.1,1,2.1,2.1v12
		C881.1,336.1,880.1,337.1,878.9,337.1z"/>
	<path class="st5" d="M884.2,296.2H844c-0.8,0-1.5-0.4-1.9-1l-20.9-30.9c-0.4-0.7,0-1.6,0.8-1.6h40.2c1.5,0,2.9,0.8,3.8,2l19.6,29
		C886.2,294.7,885.4,296.2,884.2,296.2z"/>
	<g>
		<path class="st4" d="M857.3,267.8h-7.8c-0.6,0-1-0.5-1-1v-10.9h9.9v10.9C858.3,267.3,857.8,267.8,857.3,267.8z"/>
		<path class="st6" d="M857.2,267.8h-3.9v-11.9h4.9v10.8C858.3,267.3,857.8,267.8,857.2,267.8z"/>
		<path class="st4" d="M859.3,255.9h-11.9c-0.4,0-0.8-0.4-0.8-0.8v-1.5c0-0.4,0.4-0.8,0.8-0.8h11.9c0.4,0,0.8,0.4,0.8,0.8v1.5
			C860.1,255.5,859.7,255.9,859.3,255.9z"/>
		<path class="st6" d="M859.2,255.9h-5.9v-3h5.9c0.5,0,0.8,0.4,0.8,0.8v1.4C860.1,255.5,859.7,255.9,859.2,255.9z"/>
	</g>
	<g>
		<path class="st13" d="M859.7,279.3L859.7,279.3c-0.8,0-1.4-0.6-1.4-1.4v-15.3c0.9,0,2.1,0,2.8,0v15.3
			C861.1,278.7,860.5,279.3,859.7,279.3z"/>
		<path class="st13" d="M869.2,280.3L869.2,280.3c-0.6,0.6-1.4,0.6-2,0l-8.5-8.5c-0.6-0.6-0.6-1.4,0-2l0,0c0.6-0.6,1.4-0.6,2,0
			l8.5,8.5C869.7,278.9,869.7,279.8,869.2,280.3z"/>
		<path class="st13" d="M855.8,288.1L855.8,288.1c-0.6-0.6-0.6-1.4,0-2l8.5-8.5c0.6-0.6,1.4-0.6,2,0l0,0c0.6,0.6,0.6,1.4,0,2
			l-8.5,8.5C857.3,288.7,856.4,288.7,855.8,288.1z"/>
	</g>
</g>
<g id="ROW2">
</g>
<g id="Layer_16">
</g>
</svg>
