<?xml version="1.0" encoding="utf-8"?>
<!-- Generator: Adobe Illustrator 19.1.0, SVG Export Plug-In . SVG Version: 6.00 Build 0)  -->
<svg version="1.1" xmlns="http://www.w3.org/2000/svg" xmlns:xlink="http://www.w3.org/1999/xlink" x="0px" y="0px"
	 viewBox="0 0 124 124" style="enable-background:new 0 0 124 124;" xml:space="preserve">
<style type="text/css">
	.st0{fill:#33A89D;}
	.st1{fill:#18717A;}
	.st2{display:none;}
	.st3{display:inline;}
	.st4{fill:#1A7F84;}
	.st5{fill:#84D3C9;}
	.st6{fill:#EA9C68;}
	.st7{fill:#176266;}
	.st8{fill:#5B463B;}
	.st9{fill:#1B8989;}
	.st10{fill:#EFEFEF;}
	.st11{fill:#4ACCC2;}
	.st12{fill:#1C88A5;}
	.st13{fill:#1B7989;}
	.st14{fill:#31AA9B;}
	.st15{fill:#EDA574;}
	.st16{fill:#F2F9F8;}
	.st17{fill:#166D6D;}
	.st18{fill:#166468;}
	.st19{fill:#493831;}
	.st20{fill:#135454;}
	.st21{fill:#72B5AB;}
	.st22{fill:#2D9185;}
	.st23{fill:#BC825B;}
	.st24{fill:#145656;}
	.st25{fill:#145151;}
	.st26{fill:#155656;}
	.st27{fill:#30998C;}
	.st28{fill:#146266;}
	.st29{fill:none;stroke:#1A7F84;stroke-width:6;stroke-linecap:round;stroke-miterlimit:10;}
	.st30{fill:none;stroke:#EA9C68;stroke-width:6;stroke-linecap:round;stroke-miterlimit:10;}
	.st31{fill:none;stroke:#5B463B;stroke-width:6;stroke-linecap:round;stroke-miterlimit:10;}
</style>
<g id="Layer_3">
</g>
<g id="Layer_1">
	<g id="Layer_4">
	</g>
</g>
<g id="Houses">
</g>
<g id="Layer_6" class="st2">
</g>
<g id="Layer_11">
</g>
<g id="Layer_10">
</g>
<g id="Layer_9" class="st2">
</g>
<g id="houserow">
</g>
<g id="Layer_13">
</g>
<g id="Layer_8">
</g>
<g id="Layer_2">
</g>
<g id="Layer_12">
</g>
<g id="Layer_14">
</g>
<g id="ROW2">
</g>
<g id="Layer_16">
	<g>
		<g>
			<g>
				<path class="st4" d="M86.4,23.6l24.8,34.7c0.4,0.5,0.6,1.1,0.6,1.8V107c0,1.7-1.4,3.1-3.1,3.1H58.9v-51l23.8-35.4
					C83.6,22.3,85.5,22.3,86.4,23.6z"/>
				<path class="st5" d="M73.9,110.1h22.6V74.4c0-2.5-2-4.4-4.4-4.4H78.3c-2.5,0-4.4,2-4.4,4.4V110.1z"/>
				<path class="st1" d="M11.4,110.1H59V59.1H11.4c-1.5,0-2.8,1.2-2.8,2.8v45.4C8.6,108.8,9.9,110.1,11.4,110.1z"/>
				<path class="st5" d="M38.8,96.4h9.3c1.2,0,2.1-1,2.1-2.1V74.7c0-1.2-1-2.1-2.1-2.1h-9.3c-1.2,0-2.1,1-2.1,2.1v19.5
					C36.6,95.4,37.6,96.4,38.8,96.4z"/>
				<path class="st5" d="M16.9,96.4h9.3c1.2,0,2.1-1,2.1-2.1V74.7c0-1.2-1-2.1-2.1-2.1h-9.3c-1.2,0-2.1,1-2.1,2.1v19.5
					C14.8,95.4,15.8,96.4,16.9,96.4z"/>
				<path class="st8" d="M10.5,61.4h47.3c0.9,0,1.8-0.5,2.3-1.2l24.6-36.4c0.5-0.8,0-1.8-1-1.8H36.5c-1.8,0-3.4,0.9-4.4,2.4L9,58.4
					C8.1,59.7,9,61.4,10.5,61.4z"/>
				<g>
					<path class="st4" d="M45.4,31.7h7.8c0.6,0,1-0.5,1-1V19.8h-9.9v10.9C44.4,31.2,44.9,31.7,45.4,31.7z"/>
					<path class="st1" d="M45.5,31.7h3.9V19.8h-4.9v10.8C44.4,31.2,44.9,31.7,45.5,31.7z"/>
					<path class="st4" d="M43.4,19.8h11.9c0.4,0,0.8-0.4,0.8-0.8v-1.5c0-0.4-0.4-0.8-0.8-0.8H43.4c-0.4,0-0.8,0.4-0.8,0.8V19
						C42.6,19.5,43,19.8,43.4,19.8z"/>
					<path class="st1" d="M43.4,19.8h5.9v-3h-5.9c-0.5,0-0.8,0.4-0.8,0.8V19C42.6,19.5,43,19.8,43.4,19.8z"/>
				</g>
			</g>
			<g>
				<path class="st1" d="M78.1,52.5L78.1,52.5c0.8,0,1.4-0.6,1.4-1.4V31.7l-2.8,4V51C76.7,51.8,77.3,52.5,78.1,52.5z"/>
				<path class="st1" d="M68.6,55.2L68.6,55.2c0.6,0.6,1.4,0.6,2,0l8.5-8.5c0.6-0.6,0.6-1.4,0-2v0c-0.6-0.6-1.4-0.6-2,0l-8.5,8.5
					C68.1,53.8,68.1,54.7,68.6,55.2z"/>
				<path class="st1" d="M86.1,67.1L86.1,67.1c0.6-0.6,0.6-1.4,0-2L73.5,52.5c-0.6-0.6-1.4-0.6-2,0v0c-0.6,0.6-0.6,1.4,0,2
					l12.7,12.7C84.7,67.7,85.6,67.7,86.1,67.1z"/>
				<path class="st1" d="M68.6,70.2L68.6,70.2c0.6,0.6,1.4,0.6,2,0l8.5-8.5c0.6-0.6,0.6-1.4,0-2h0c-0.6-0.6-1.4-0.6-2,0l-8.5,8.5
					C68.1,68.7,68.1,69.6,68.6,70.2z"/>
			</g>
		</g>
		<g>
			<circle class="st5" cx="104.2" cy="36.7" r="13.9"/>
			<circle class="st5" cx="107.5" cy="56.1" r="10.2"/>
			<circle class="st5" cx="112.5" cy="44.1" r="10.2"/>
			<circle class="st5" cx="101.8" cy="68.9" r="6.7"/>
			<circle class="st5" cx="96.2" cy="72.7" r="6.4"/>
			<circle class="st5" cx="92.7" cy="78.2" r="3.8"/>
			<circle class="st5" cx="108.7" cy="69.2" r="5.8"/>
		</g>
	</g>
</g>
</svg>
