<?xml version="1.0" encoding="utf-8"?>
<!-- Generator: Adobe Illustrator 19.1.0, SVG Export Plug-In . SVG Version: 6.00 Build 0)  -->
<svg version="1.1" id="Layer_1" xmlns="http://www.w3.org/2000/svg" xmlns:xlink="http://www.w3.org/1999/xlink" x="0px" y="0px"
	 viewBox="-257 179 124 124" style="enable-background:new -257 179 124 124;" xml:space="preserve">
<style type="text/css">
	.st0{display:none;}
	.st1{fill:#1A7F84;}
	.st2{fill:#34514D;}
	.st3{fill:#18717A;}
	.st4{fill:#84D3C9;}
	.st5{fill:#5B463B;}
</style>
<g id="Layer_3">
</g>
<g id="Layer_1_1_">
	<g id="Layer_4">
	</g>
</g>
<g id="Houses">
</g>
<g id="Layer_6" class="st0">
</g>
<g id="Layer_11">
</g>
<g id="Layer_10">
</g>
<g id="Layer_9" class="st0">
</g>
<g id="houserow">
</g>
<g id="Layer_13">
</g>
<g id="Layer_8">
</g>
<g id="Layer_2">
</g>
<g id="Layer_12">
</g>
<g id="Layer_14">
</g>
<g id="ROW2">
</g>
<g>
	<path class="st1" d="M-168.8,209.9l24.8,34.7c0.4,0.5,0.6,1.1,0.6,1.8v46.9c0,1.7-1.4,3.1-3.1,3.1h-49.8v-51l23.8-35.4
		C-171.6,208.6-169.7,208.6-168.8,209.9z"/>
	<path class="st2" d="M-181.3,296.4h22.6v-35.7c0-2.5-2-4.4-4.4-4.4h-13.8c-2.5,0-4.4,2-4.4,4.4L-181.3,296.4L-181.3,296.4z"/>
	<path class="st3" d="M-243.8,296.4h47.6v-51h-47.6c-1.5,0-2.8,1.2-2.8,2.8v45.4C-246.6,295.1-245.3,296.4-243.8,296.4z"/>
	<path class="st4" d="M-216.4,282.7h9.3c1.2,0,2.1-1,2.1-2.1V261c0-1.2-1-2.1-2.1-2.1h-9.3c-1.2,0-2.1,1-2.1,2.1v19.5
		C-218.6,281.7-217.6,282.7-216.4,282.7z"/>
	<path class="st4" d="M-238.3,282.7h9.3c1.2,0,2.1-1,2.1-2.1V261c0-1.2-1-2.1-2.1-2.1h-9.3c-1.2,0-2.1,1-2.1,2.1v19.5
		C-240.4,281.7-239.4,282.7-238.3,282.7z"/>
	<path class="st5" d="M-244.7,247.7h47.3c0.9,0,1.8-0.5,2.3-1.2l24.6-36.4c0.5-0.8,0-1.8-1-1.8h-47.2c-1.8,0-3.4,0.9-4.4,2.4
		l-23.1,34C-247.1,246-246.2,247.7-244.7,247.7z"/>
	<g>
		<path class="st1" d="M-209.8,218h7.8c0.6,0,1-0.5,1-1v-10.9h-9.9V217C-210.8,217.5-210.3,218-209.8,218z"/>
		<path class="st3" d="M-209.7,218h3.9v-11.9h-4.9v10.8C-210.8,217.5-210.3,218-209.7,218z"/>
		<path class="st1" d="M-211.8,206.1h11.9c0.4,0,0.8-0.4,0.8-0.8v-1.5c0-0.4-0.4-0.8-0.8-0.8h-11.9c-0.4,0-0.8,0.4-0.8,0.8v1.5
			C-212.6,205.8-212.2,206.1-211.8,206.1z"/>
		<path class="st3" d="M-211.8,206.1h5.9v-3h-5.9c-0.5,0-0.8,0.4-0.8,0.8v1.4C-212.6,205.8-212.2,206.1-211.8,206.1z"/>
	</g>
	<g>
		<path class="st3" d="M-177.1,238.8L-177.1,238.8c0.8,0,1.4-0.6,1.4-1.4V218l-2.8,4v15.3C-178.5,238.1-177.9,238.8-177.1,238.8z"/>
		<path class="st3" d="M-186.6,241.5L-186.6,241.5c0.6,0.6,1.4,0.6,2,0l8.5-8.5c0.6-0.6,0.6-1.4,0-2l0,0c-0.6-0.6-1.4-0.6-2,0
			l-8.5,8.5C-187.1,240.1-187.1,241-186.6,241.5z"/>
		<path class="st3" d="M-169.1,253.4L-169.1,253.4c0.6-0.6,0.6-1.4,0-2l-12.6-12.6c-0.6-0.6-1.4-0.6-2,0l0,0c-0.6,0.6-0.6,1.4,0,2
			l12.7,12.7C-170.5,254-169.6,254-169.1,253.4z"/>
		<path class="st3" d="M-186.6,256.5L-186.6,256.5c0.6,0.6,1.4,0.6,2,0l8.5-8.5c0.6-0.6,0.6-1.4,0-2l0,0c-0.6-0.6-1.4-0.6-2,0
			l-8.5,8.5C-187.1,255-187.1,255.9-186.6,256.5z"/>
	</g>
</g>
</svg>
