<?xml version="1.0" encoding="utf-8"?>
<!-- Generator: Adobe Illustrator 19.1.0, SVG Export Plug-In . SVG Version: 6.00 Build 0)  -->
<svg version="1.1" xmlns="http://www.w3.org/2000/svg" xmlns:xlink="http://www.w3.org/1999/xlink" x="0px" y="0px"
	 viewBox="0 0 100 160" style="enable-background:new 0 0 100 160;" xml:space="preserve">
<style type="text/css">
	.st0{fill:#33A89D;}
	.st1{fill:#18717A;}
	.st2{display:none;}
	.st3{display:inline;}
	.st4{fill:#1A7F84;}
	.st5{fill:#84D3C9;}
	.st6{fill:#EA9C68;}
	.st7{fill:#176266;}
	.st8{fill:#5B463B;}
	.st9{fill:#1B8989;}
	.st10{fill:#EFEFEF;}
	.st11{fill:#4ACCC2;}
	.st12{fill:#1C88A5;}
	.st13{fill:#1B7989;}
	.st14{fill:#31AA9B;}
	.st15{fill:#EDA574;}
	.st16{fill:#F2F9F8;}
	.st17{fill:#166D6D;}
	.st18{fill:#166468;}
	.st19{fill:#493831;}
	.st20{fill:#135454;}
	.st21{fill:#72B5AB;}
	.st22{fill:#2D9185;}
	.st23{fill:#BC825B;}
	.st24{fill:#145656;}
	.st25{fill:#145151;}
	.st26{fill:#155656;}
	.st27{fill:#30998C;}
	.st28{fill:#146266;}
	.st29{fill:none;stroke:#1A7F84;stroke-width:6;stroke-linecap:round;stroke-miterlimit:10;}
	.st30{fill:none;stroke:#EA9C68;stroke-width:6;stroke-linecap:round;stroke-miterlimit:10;}
	.st31{fill:none;stroke:#5B463B;stroke-width:6;stroke-linecap:round;stroke-miterlimit:10;}
</style>
<g id="Layer_3">
</g>
<g id="Layer_1">
	<g id="Layer_4">
	</g>
</g>
<g id="Houses">
</g>
<g id="Layer_6" class="st2">
</g>
<g id="Layer_11">
</g>
<g id="Layer_10">
</g>
<g id="Layer_9" class="st2">
</g>
<g id="houserow">
</g>
<g id="Layer_13">
</g>
<g id="Layer_8">
</g>
<g id="Layer_2">
</g>
<g id="Layer_12">
</g>
<g id="Layer_14">
</g>
<g id="ROW2">
</g>
<g id="Layer_16">
	<g>
		<path class="st4" d="M93.5,52.9v95.4c0,1.7-1.4,3.1-3.1,3.1H48.6V50.8l19.1-30.7c1.5-2.5,5.1-2.5,6.6,0l18,28.9
			C93.1,50.2,93.5,51.6,93.5,52.9z"/>
		<path class="st7" d="M12,151.4h36.6V51H12c-1.5,0-2.8,1.2-2.8,2.8v94.9C9.3,150.1,10.5,151.4,12,151.4z"/>
		<path class="st0" d="M33.1,127.6h9.3c1.2,0,2.1-1,2.1-2.1v-12c0-1.2-1-2.1-2.1-2.1h-9.3c-1.2,0-2.1,1-2.1,2.1v12
			C31,126.7,31.9,127.6,33.1,127.6z"/>
		<path class="st5" d="M66.4,125.3h9.3c1.2,0,2.1-1,2.1-2.1v-12c0-1.2-1-2.1-2.1-2.1h-9.3c-1.2,0-2.1,1-2.1,2.1v12
			C64.2,124.3,65.2,125.3,66.4,125.3z"/>
		<path class="st0" d="M14.6,127.6h9.3c1.2,0,2.1-1,2.1-2.1v-12c0-1.2-1-2.1-2.1-2.1h-9.3c-1.2,0-2.1,1-2.1,2.1v12
			C12.4,126.7,13.4,127.6,14.6,127.6z"/>
		<path class="st0" d="M33.1,92.8h9.3c1.2,0,2.1-1,2.1-2.1v-12c0-1.2-1-2.1-2.1-2.1h-9.3c-1.2,0-2.1,1-2.1,2.1v12
			C31,91.9,31.9,92.8,33.1,92.8z"/>
		<path class="st5" d="M66.4,92.8h9.3c1.2,0,2.1-1,2.1-2.1v-12c0-1.2-1-2.1-2.1-2.1h-9.3c-1.2,0-2.1,1-2.1,2.1v12
			C64.2,91.9,65.2,92.8,66.4,92.8z"/>
		<path class="st0" d="M14.6,92.8h9.3c1.2,0,2.1-1,2.1-2.1v-12c0-1.2-1-2.1-2.1-2.1h-9.3c-1.2,0-2.1,1-2.1,2.1v12
			C12.4,91.9,13.4,92.8,14.6,92.8z"/>
		<path class="st6" d="M9.3,51.9h40.2c0.8,0,1.5-0.4,1.9-1l20.9-30.9c0.4-0.7,0-1.6-0.8-1.6H31.4c-1.5,0-2.9,0.8-3.8,2L8,49.4
			C7.3,50.5,8,51.9,9.3,51.9z"/>
		<g>
			<path class="st4" d="M36.2,23.5h7.8c0.6,0,1-0.5,1-1V11.7h-9.9v10.9C35.2,23.1,35.6,23.5,36.2,23.5z"/>
			<path class="st1" d="M36.2,23.5h3.9V11.7h-4.9v10.8C35.2,23.1,35.7,23.5,36.2,23.5z"/>
			<path class="st4" d="M34.2,11.7h11.9c0.4,0,0.8-0.4,0.8-0.8V9.4c0-0.4-0.4-0.8-0.8-0.8H34.2c-0.4,0-0.8,0.4-0.8,0.8v1.5
				C33.4,11.3,33.7,11.7,34.2,11.7z"/>
			<path class="st1" d="M34.2,11.7h5.9v-3h-5.9c-0.5,0-0.8,0.4-0.8,0.8v1.4C33.4,11.3,33.8,11.7,34.2,11.7z"/>
		</g>
		<g>
			<path class="st23" d="M47.8,35.1L47.8,35.1c-0.8,0-1.4-0.6-1.4-1.4V18.4c0.9,0,2.1,0,2.8,0v15.3C49.2,34.5,48.6,35.1,47.8,35.1z"
				/>
			<path class="st23" d="M57.3,36.1L57.3,36.1c-0.6,0.6-1.4,0.6-2,0l-8.5-8.5c-0.6-0.6-0.6-1.4,0-2l0,0c0.6-0.6,1.4-0.6,2,0l8.5,8.5
				C57.8,34.7,57.8,35.6,57.3,36.1z"/>
			<path class="st23" d="M43.9,43.9L43.9,43.9c-0.6-0.6-0.6-1.4,0-2l8.5-8.5c0.6-0.6,1.4-0.6,2,0h0c0.6,0.6,0.6,1.4,0,2l-8.5,8.5
				C45.4,44.4,44.5,44.4,43.9,43.9z"/>
		</g>
		<g>
			<path class="st1" d="M80.7,45.1L80.7,45.1c0.8,0,1.4-0.6,1.4-1.4V32.6c-1.2-1.9-1.4-2.2-2.8-4.5v15.6
				C79.3,44.5,79.9,45.1,80.7,45.1z"/>
			<path class="st1" d="M71.2,47.9L71.2,47.9c0.6,0.6,1.4,0.6,2,0l8.5-8.5c0.6-0.6,0.6-1.4,0-2v0c-0.6-0.6-1.4-0.6-2,0l-8.5,8.5
				C70.6,46.4,70.6,47.3,71.2,47.9z"/>
			<path class="st1" d="M88.7,59.8L88.7,59.8c0.6-0.6,0.6-1.4,0-2L76,45.1c-0.6-0.6-1.4-0.6-2,0h0c-0.6,0.6-0.6,1.4,0,2l12.7,12.7
				C87.2,60.3,88.1,60.3,88.7,59.8z"/>
			<path class="st1" d="M71.2,62.8L71.2,62.8c0.6,0.6,1.4,0.6,2,0l8.5-8.5c0.6-0.6,0.6-1.4,0-2v0c-0.6-0.6-1.4-0.6-2,0l-8.5,8.5
				C70.6,61.4,70.6,62.3,71.2,62.8z"/>
		</g>
	</g>
</g>
</svg>
