<?xml version="1.0" encoding="utf-8"?>
<!-- Generator: Adobe Illustrator 19.1.0, SVG Export Plug-In . SVG Version: 6.00 Build 0)  -->
<svg version="1.1" xmlns="http://www.w3.org/2000/svg" xmlns:xlink="http://www.w3.org/1999/xlink" x="0px" y="0px"
	 viewBox="0 0 124 124" style="enable-background:new 0 0 124 124;" xml:space="preserve">
<style type="text/css">
	.st0{fill:#33A89D;}
	.st1{fill:#18717A;}
	.st2{display:none;}
	.st3{display:inline;}
	.st4{fill:#1A7F84;}
	.st5{fill:#84D3C9;}
	.st6{fill:#EA9C68;}
	.st7{fill:#176266;}
	.st8{fill:#5B463B;}
	.st9{fill:#1B8989;}
	.st10{fill:#EFEFEF;}
	.st11{fill:#4ACCC2;}
	.st12{fill:#1C88A5;}
	.st13{fill:#1B7989;}
	.st14{fill:#31AA9B;}
	.st15{fill:#EDA574;}
	.st16{fill:#F2F9F8;}
	.st17{fill:#166D6D;}
	.st18{fill:#166468;}
	.st19{fill:#493831;}
	.st20{fill:#135454;}
	.st21{fill:#72B5AB;}
	.st22{fill:#2D9185;}
	.st23{fill:#BC825B;}
	.st24{fill:#145656;}
	.st25{fill:#145151;}
	.st26{fill:#155656;}
	.st27{fill:#30998C;}
	.st28{fill:#146266;}
	.st29{fill:none;stroke:#1A7F84;stroke-width:6;stroke-linecap:round;stroke-miterlimit:10;}
	.st30{fill:none;stroke:#EA9C68;stroke-width:6;stroke-linecap:round;stroke-miterlimit:10;}
	.st31{fill:none;stroke:#5B463B;stroke-width:6;stroke-linecap:round;stroke-miterlimit:10;}
</style>
<g id="Layer_3">
</g>
<g id="Layer_1">
	<g id="Layer_4">
	</g>
</g>
<g id="Houses">
</g>
<g id="Layer_6" class="st2">
</g>
<g id="Layer_11">
</g>
<g id="Layer_10">
</g>
<g id="Layer_9" class="st2">
</g>
<g id="houserow">
</g>
<g id="Layer_13">
</g>
<g id="Layer_8">
</g>
<g id="Layer_2">
</g>
<g id="Layer_12">
</g>
<g id="Layer_14">
</g>
<g id="ROW2">
</g>
<g id="Layer_16">
	<g>
		<g>
			<path class="st4" d="M88.1,20.8l24.8,34.7c0.4,0.5,0.6,1.1,0.6,1.8v46.9c0,1.7-1.4,3.1-3.1,3.1H60.5v-51l23.8-35.4
				C85.2,19.5,87.2,19.5,88.1,20.8z"/>
			<path class="st5" d="M75.5,107.3h22.6V71.6c0-2.5-2-4.4-4.4-4.4H80c-2.5,0-4.4,2-4.4,4.4V107.3z"/>
			<path class="st1" d="M13,107.3h47.6V56.3H13c-1.5,0-2.8,1.2-2.8,2.8v45.4C10.3,106,11.5,107.3,13,107.3z"/>
			<path class="st5" d="M40.4,93.6h9.3c1.2,0,2.1-1,2.1-2.1V71.9c0-1.2-1-2.1-2.1-2.1h-9.3c-1.2,0-2.1,1-2.1,2.1v19.5
				C38.3,92.6,39.2,93.6,40.4,93.6z"/>
			<path class="st5" d="M18.6,93.6h9.3c1.2,0,2.1-1,2.1-2.1V71.9c0-1.2-1-2.1-2.1-2.1h-9.3c-1.2,0-2.1,1-2.1,2.1v19.5
				C16.5,92.6,17.4,93.6,18.6,93.6z"/>
			<path class="st8" d="M12.2,58.6h47.3c0.9,0,1.8-0.5,2.3-1.2l24.6-36.4c0.5-0.8,0-1.8-1-1.8H38.1c-1.8,0-3.4,0.9-4.4,2.4
				L10.6,55.6C9.8,56.9,10.7,58.6,12.2,58.6z"/>
			<g>
				<path class="st4" d="M47.1,28.9h7.8c0.6,0,1-0.5,1-1V17h-9.9v10.9C46.1,28.4,46.5,28.9,47.1,28.9z"/>
				<path class="st1" d="M47.1,28.9H51V17h-4.9v10.8C46.1,28.4,46.5,28.9,47.1,28.9z"/>
				<path class="st4" d="M45,17H57c0.4,0,0.8-0.4,0.8-0.8v-1.5c0-0.4-0.4-0.8-0.8-0.8H45c-0.4,0-0.8,0.4-0.8,0.8v1.5
					C44.3,16.7,44.6,17,45,17z"/>
				<path class="st1" d="M45.1,17H51v-3h-5.9c-0.5,0-0.8,0.4-0.8,0.8v1.4C44.3,16.6,44.6,17,45.1,17z"/>
			</g>
		</g>
		<g>
			<path class="st1" d="M79.8,49.6L79.8,49.6c0.8,0,1.4-0.6,1.4-1.4V28.8l-2.8,4v15.4C78.4,49,79,49.6,79.8,49.6z"/>
			<path class="st1" d="M70.3,52.4L70.3,52.4c0.6,0.6,1.4,0.6,2,0l8.5-8.5c0.6-0.6,0.6-1.4,0-2l0,0c-0.6-0.6-1.4-0.6-2,0l-8.5,8.5
				C69.7,51,69.7,51.9,70.3,52.4z"/>
			<path class="st1" d="M87.8,64.3L87.8,64.3c0.6-0.6,0.6-1.4,0-2L75.1,49.7c-0.6-0.6-1.4-0.6-2,0l0,0c-0.6,0.6-0.6,1.4,0,2
				l12.7,12.7C86.3,64.9,87.2,64.9,87.8,64.3z"/>
			<path class="st1" d="M70.3,67.4L70.3,67.4c0.6,0.6,1.4,0.6,2,0l8.5-8.5c0.6-0.6,0.6-1.4,0-2v0c-0.6-0.6-1.4-0.6-2,0l-8.5,8.5
				C69.7,65.9,69.7,66.8,70.3,67.4z"/>
		</g>
	</g>
</g>
</svg>
