<?xml version="1.0" encoding="utf-8"?>
<!-- Generator: Adobe Illustrator 19.1.0, SVG Export Plug-In . SVG Version: 6.00 Build 0)  -->
<svg version="1.1" id="Lager_1" xmlns="http://www.w3.org/2000/svg" xmlns:xlink="http://www.w3.org/1999/xlink" x="0px" y="0px"
	 viewBox="240 157.6 960 327.4" style="enable-background:new 240 157.6 960 327.4;" xml:space="preserve">
<style type="text/css">
	.st0{fill:#18717A;}
	.st1{fill:#F2F9F8;}
</style>
<path class="st0" d="M1200,486.7H240V184.1c0,0,89,41.9,125.1,41.9c43.6,0,124.5-48.4,168.9-50.3c49.1-2,139.6,35.5,186,37.2
	c40.5,1.5,112.9-28.3,153-29.8c33.7-1.2,159.8,30.7,194.1,33.3c39.4,3,132.9-22.8,132.9-22.8V486.7z"/>
<g>
	<circle class="st1" cx="257.8" cy="190.5" r="14.8"/>
	<circle class="st1" cx="351" cy="228.5" r="14.8"/>
	<circle class="st1" cx="448.1" cy="201.2" r="11"/>
	<circle class="st1" cx="531.6" cy="177" r="9.4"/>
	<circle class="st1" cx="633.3" cy="189.7" r="12.1"/>
	<circle class="st1" cx="791.2" cy="200.6" r="12"/>
	<circle class="st1" cx="876.6" cy="181.3" r="11.5"/>
	<circle class="st1" cx="975" cy="198.5" r="14.8"/>
	<circle class="st1" cx="1075" cy="218.3" r="14.8"/>
	<circle class="st1" cx="1166.7" cy="203.2" r="10.6"/>
	<circle class="st1" cx="280.1" cy="199.5" r="7.4"/>
	<circle class="st1" cx="466.2" cy="196" r="7.4"/>
	<circle class="st1" cx="583" cy="182" r="7.4"/>
	<circle class="st1" cx="597.8" cy="184.6" r="7.4"/>
	<circle class="st1" cx="508.2" cy="182" r="7.4"/>
	<circle class="st1" cx="771.8" cy="207.3" r="7.4"/>
	<circle class="st1" cx="822" cy="192.5" r="7.4"/>
	<circle class="st1" cx="912.9" cy="188.6" r="7.4"/>
	<circle class="st1" cx="997.2" cy="205.5" r="7.4"/>
	<circle class="st1" cx="1097.2" cy="218.3" r="7.4"/>
	<circle class="st1" cx="1146" cy="205.5" r="6.1"/>
	<circle class="st1" cx="369.5" cy="219.8" r="11.9"/>
	<circle class="st1" cx="291.7" cy="209.5" r="4.2"/>
	<circle class="st1" cx="303" cy="209.5" r="4.2"/>
	<circle class="st1" cx="311.3" cy="213.6" r="2.1"/>
	<circle class="st1" cx="298.8" cy="203.5" r="2.1"/>
	<circle class="st1" cx="315.5" cy="218.8" r="2.1"/>
	<circle class="st1" cx="322.9" cy="220.9" r="7.4"/>
	
		<ellipse transform="matrix(-0.7083 -0.7059 0.7059 -0.7083 511.3337 657.4563)" class="st1" cx="391.5" cy="223.1" rx="7.2" ry="6.5"/>
	
		<ellipse transform="matrix(-0.7083 -0.7059 0.7059 -0.7083 552.216 659.6943)" class="st1" cx="412.4" cy="215.8" rx="4" ry="3.6"/>
	
		<ellipse transform="matrix(-0.7083 -0.7059 0.7059 -0.7083 589.9604 666.1359)" class="st1" cx="432.6" cy="211.2" rx="7.2" ry="6.5"/>
	<circle class="st1" cx="405.4" cy="221.7" r="4.6"/>
	<circle class="st1" cx="478.3" cy="192.5" r="4.6"/>
	<circle class="st1" cx="495" cy="185.9" r="5.7"/>
	<circle class="st1" cx="611.5" cy="191.6" r="4"/>
	<circle class="st1" cx="660.3" cy="199.9" r="2.5"/>
	<circle class="st1" cx="419.9" cy="211.6" r="7.4"/>
	<circle class="st1" cx="557.2" cy="177.6" r="4.6"/>
	<circle class="st1" cx="670.3" cy="207.9" r="2.5"/>
	<circle class="st1" cx="683.7" cy="207.9" r="4.6"/>
	<circle class="st1" cx="702" cy="212.9" r="4.6"/>
	<circle class="st1" cx="649.3" cy="201.9" r="2.5"/>
	<circle class="st1" cx="567" cy="184.6" r="2.5"/>
	<circle class="st1" cx="715" cy="218.3" r="2.5"/>
	<circle class="st1" cx="723" cy="213.5" r="2.5"/>
	<circle class="st1" cx="723" cy="220.9" r="2.5"/>
	<circle class="st1" cx="717.5" cy="212.5" r="4.6"/>
	<circle class="st1" cx="521.1" cy="185.6" r="2.5"/>
	<circle class="st1" cx="561.8" cy="188.6" r="4.6"/>
	<circle class="st1" cx="489.3" cy="197.4" r="4.2"/>
	<circle class="st1" cx="688.3" cy="216.2" r="4.6"/>
	<circle class="st1" cx="662.8" cy="207.9" r="4.2"/>
	<circle class="st1" cx="741" cy="220.8" r="2.5"/>
	<circle class="st1" cx="749.7" cy="211.6" r="2.5"/>
	<circle class="st1" cx="760.4" cy="217.5" r="3.2"/>
	<circle class="st1" cx="738.5" cy="209.2" r="3.2"/>
	<circle class="st1" cx="738.5" cy="216.2" r="3.2"/>
	<circle class="st1" cx="822" cy="202.3" r="3.2"/>
	<circle class="st1" cx="814.6" cy="203.3" r="2.5"/>
	<circle class="st1" cx="857.8" cy="190.2" r="2.5"/>
	<circle class="st1" cx="808.8" cy="194.1" r="2.5"/>
	<circle class="st1" cx="860.3" cy="183.6" r="2.5"/>
	
		<ellipse transform="matrix(-0.7083 -0.7059 0.7059 -0.7083 1624.4413 1095.074)" class="st1" cx="1038.5" cy="211.9" rx="7.2" ry="6.5"/>
	<circle class="st1" cx="1025.8" cy="212.3" r="7.4"/>
	<circle class="st1" cx="937.8" cy="190.4" r="4"/>
	<circle class="st1" cx="1056.2" cy="219.7" r="4"/>
	<circle class="st1" cx="1136" cy="214.7" r="4"/>
	<circle class="st1" cx="1191" cy="196.6" r="4"/>
	<circle class="st1" cx="949" cy="194.1" r="4"/>
	<circle class="st1" cx="1118" cy="214.7" r="8.5"/>
	
		<ellipse transform="matrix(-0.7083 -0.7059 0.7059 -0.7083 1054.0872 869.0406)" class="st1" cx="706.6" cy="216.7" rx="7.2" ry="6.5"/>
	<circle class="st1" cx="416.3" cy="223.7" r="2.5"/>
	<circle class="st1" cx="400.8" cy="230.1" r="2.5"/>
	<circle class="st1" cx="444.1" cy="213.7" r="2.5"/>
	<circle class="st1" cx="425.7" cy="219.2" r="2.5"/>
	<circle class="st1" cx="547.5" cy="182.2" r="2.5"/>
	<circle class="st1" cx="847" cy="187.7" r="4"/>
	<circle class="st1" cx="922.8" cy="191.6" r="2.5"/>
	<circle class="st1" cx="895" cy="187.1" r="2.5"/>
	<circle class="st1" cx="1007.2" cy="212.2" r="2.5"/>
	<circle class="st1" cx="1018.4" cy="206.9" r="2.5"/>
	<circle class="st1" cx="1185" cy="198.6" r="2.5"/>
	<circle class="st1" cx="837.6" cy="192.9" r="4.6"/>
</g>
</svg>
