<?xml version="1.0" encoding="utf-8"?>
<!-- Generator: Adobe Illustrator 19.1.0, SVG Export Plug-In . SVG Version: 6.00 Build 0)  -->
<svg version="1.1" id="Lager_1" xmlns="http://www.w3.org/2000/svg" xmlns:xlink="http://www.w3.org/1999/xlink" x="0px" y="0px"
	 viewBox="240 118 960 405" style="enable-background:new 240 118 960 405;" xml:space="preserve">
<style type="text/css">
	.st0{fill:#18717A;}
	.st1{fill:#F2F9F8;}
</style>
<path class="st0" d="M1200,524.8H240V222.2c0,0,89,41.9,125.1,41.9c43.6,0,124.5-48.4,168.9-50.3c49.1-2,139.6,35.5,186,37.2
	c40.5,1.5,112.9-28.3,153-29.8c33.7-1.2,159.8,30.7,194.1,33.3c39.4,3,132.9-22.8,132.9-22.8V524.8z"/>
<g>
	<circle class="st1" cx="254.8" cy="228.5" r="14.8"/>
	<circle class="st1" cx="348" cy="266.5" r="14.8"/>
	<circle class="st1" cx="445.1" cy="239.3" r="11"/>
	<circle class="st1" cx="528.6" cy="215.1" r="9.4"/>
	<circle class="st1" cx="630.3" cy="227.8" r="12.1"/>
	<circle class="st1" cx="788.2" cy="238.7" r="12"/>
	<circle class="st1" cx="873.6" cy="219.3" r="11.5"/>
	<circle class="st1" cx="972" cy="236.5" r="14.8"/>
	<circle class="st1" cx="1072" cy="256.4" r="14.8"/>
	<circle class="st1" cx="1163.7" cy="241.2" r="10.6"/>
	<circle class="st1" cx="277.1" cy="237.5" r="7.4"/>
	<circle class="st1" cx="463.2" cy="234.1" r="7.4"/>
	<circle class="st1" cx="580" cy="220.1" r="7.4"/>
	<circle class="st1" cx="594.8" cy="222.7" r="7.4"/>
	<circle class="st1" cx="505.2" cy="220.1" r="7.4"/>
	<circle class="st1" cx="768.8" cy="245.4" r="7.4"/>
	<circle class="st1" cx="819" cy="230.5" r="7.4"/>
	<circle class="st1" cx="909.9" cy="226.7" r="7.4"/>
	<circle class="st1" cx="994.2" cy="243.5" r="7.4"/>
	<circle class="st1" cx="1094.2" cy="256.4" r="7.4"/>
	<circle class="st1" cx="1143" cy="243.5" r="6.1"/>
	<circle class="st1" cx="366.5" cy="257.9" r="11.9"/>
	<circle class="st1" cx="288.7" cy="247.5" r="4.2"/>
	<circle class="st1" cx="300" cy="247.5" r="4.2"/>
	<circle class="st1" cx="308.3" cy="251.7" r="2.1"/>
	<circle class="st1" cx="295.8" cy="241.5" r="2.1"/>
	<circle class="st1" cx="312.5" cy="256.9" r="2.1"/>
	<circle class="st1" cx="319.9" cy="259" r="7.4"/>
	
		<ellipse transform="matrix(-0.7083 -0.7059 0.7059 -0.7083 479.3257 720.4273)" class="st1" cx="388.5" cy="261.2" rx="7.2" ry="6.5"/>
	
		<ellipse transform="matrix(-0.7083 -0.7059 0.7059 -0.7083 520.2081 722.6653)" class="st1" cx="409.4" cy="253.9" rx="4" ry="3.6"/>
	
		<ellipse transform="matrix(-0.7083 -0.7059 0.7059 -0.7083 557.9526 729.107)" class="st1" cx="429.6" cy="249.3" rx="7.2" ry="6.5"/>
	<circle class="st1" cx="402.4" cy="259.8" r="4.6"/>
	<circle class="st1" cx="475.3" cy="230.5" r="4.6"/>
	<circle class="st1" cx="492" cy="224" r="5.7"/>
	<circle class="st1" cx="608.5" cy="229.7" r="4"/>
	<circle class="st1" cx="657.3" cy="238" r="2.5"/>
	<circle class="st1" cx="416.9" cy="249.7" r="7.4"/>
	<circle class="st1" cx="554.2" cy="215.7" r="4.6"/>
	<circle class="st1" cx="667.3" cy="246" r="2.5"/>
	<circle class="st1" cx="680.7" cy="246" r="4.6"/>
	<circle class="st1" cx="699" cy="251" r="4.6"/>
	<circle class="st1" cx="646.3" cy="240" r="2.5"/>
	<circle class="st1" cx="564" cy="222.7" r="2.5"/>
	<circle class="st1" cx="712" cy="256.4" r="2.5"/>
	<circle class="st1" cx="720" cy="251.5" r="2.5"/>
	<circle class="st1" cx="720" cy="259" r="2.5"/>
	<circle class="st1" cx="714.5" cy="250.6" r="4.6"/>
	<circle class="st1" cx="518.1" cy="223.7" r="2.5"/>
	<circle class="st1" cx="558.8" cy="226.7" r="4.6"/>
	<circle class="st1" cx="486.3" cy="235.5" r="4.2"/>
	<circle class="st1" cx="685.3" cy="254.3" r="4.6"/>
	<circle class="st1" cx="659.8" cy="246" r="4.2"/>
	<circle class="st1" cx="738" cy="258.9" r="2.5"/>
	<circle class="st1" cx="746.7" cy="249.7" r="2.5"/>
	<circle class="st1" cx="757.4" cy="255.6" r="3.2"/>
	<circle class="st1" cx="735.5" cy="247.2" r="3.2"/>
	<circle class="st1" cx="735.5" cy="254.3" r="3.2"/>
	<circle class="st1" cx="819" cy="240.4" r="3.2"/>
	<circle class="st1" cx="811.6" cy="241.4" r="2.5"/>
	<circle class="st1" cx="854.8" cy="228.2" r="2.5"/>
	<circle class="st1" cx="805.8" cy="232.2" r="2.5"/>
	<circle class="st1" cx="857.3" cy="221.7" r="2.5"/>
	
		<ellipse transform="matrix(-0.7083 -0.7059 0.7059 -0.7083 1592.4332 1158.045)" class="st1" cx="1035.5" cy="250" rx="7.2" ry="6.5"/>
	<circle class="st1" cx="1022.8" cy="250.4" r="7.4"/>
	<circle class="st1" cx="934.8" cy="228.5" r="4"/>
	<circle class="st1" cx="1053.2" cy="257.8" r="4"/>
	<circle class="st1" cx="1133" cy="252.8" r="4"/>
	<circle class="st1" cx="1188" cy="234.7" r="4"/>
	<circle class="st1" cx="946" cy="232.2" r="4"/>
	<circle class="st1" cx="1115" cy="252.8" r="8.5"/>
	
		<ellipse transform="matrix(-0.7083 -0.7059 0.7059 -0.7083 1022.0792 932.0117)" class="st1" cx="703.6" cy="254.8" rx="7.2" ry="6.5"/>
	<circle class="st1" cx="413.3" cy="261.8" r="2.5"/>
	<circle class="st1" cx="397.8" cy="268.2" r="2.5"/>
	<circle class="st1" cx="441.1" cy="251.7" r="2.5"/>
	<circle class="st1" cx="422.7" cy="257.3" r="2.5"/>
	<circle class="st1" cx="544.5" cy="220.3" r="2.5"/>
	<circle class="st1" cx="844" cy="225.8" r="4"/>
	<circle class="st1" cx="919.8" cy="229.7" r="2.5"/>
	<circle class="st1" cx="892" cy="225.2" r="2.5"/>
	<circle class="st1" cx="1004.2" cy="250.3" r="2.5"/>
	<circle class="st1" cx="1015.4" cy="245" r="2.5"/>
	<circle class="st1" cx="1182" cy="236.7" r="2.5"/>
	<circle class="st1" cx="834.6" cy="231" r="4.6"/>
</g>
</svg>
