<?xml version="1.0" encoding="utf-8"?>
<!-- Generator: Adobe Illustrator 19.1.0, SVG Export Plug-In . SVG Version: 6.00 Build 0)  -->
<svg version="1.1" id="Lager_1" xmlns="http://www.w3.org/2000/svg" xmlns:xlink="http://www.w3.org/1999/xlink" x="0px" y="0px"
	 viewBox="240 165.8 960 319.2" style="enable-background:new 240 165.8 960 319.2;" xml:space="preserve">
<style type="text/css">
	.st0{fill:#18717A;}
	.st1{fill:#F2F9F8;}
</style>
<path class="st0" d="M1200,485H240V182.3c0,0,89,41.9,125.1,41.9c43.6,0,124.5-48.4,168.9-50.3c49.1-2,139.6,35.5,186,37.2
	c40.5,1.5,112.9-28.3,153-29.8c33.7-1.2,159.8,30.7,194.1,33.3c39.4,3,132.9-22.8,132.9-22.8V485z"/>
<g>
	<circle class="st1" cx="257.8" cy="188.7" r="14.8"/>
	<circle class="st1" cx="351" cy="226.7" r="14.8"/>
	<circle class="st1" cx="448.1" cy="199.4" r="11"/>
	<circle class="st1" cx="531.6" cy="175.2" r="9.4"/>
	<circle class="st1" cx="633.3" cy="187.9" r="12.1"/>
	<circle class="st1" cx="791.2" cy="198.9" r="12"/>
	<circle class="st1" cx="876.6" cy="179.5" r="11.5"/>
	<circle class="st1" cx="975" cy="196.7" r="14.8"/>
	<circle class="st1" cx="1075" cy="216.5" r="14.8"/>
	<circle class="st1" cx="1166.7" cy="201.4" r="10.6"/>
	<circle class="st1" cx="280.1" cy="197.7" r="7.4"/>
	<circle class="st1" cx="466.2" cy="194.2" r="7.4"/>
	<circle class="st1" cx="583" cy="180.2" r="7.4"/>
	<circle class="st1" cx="597.8" cy="182.9" r="7.4"/>
	<circle class="st1" cx="508.2" cy="180.2" r="7.4"/>
	<circle class="st1" cx="771.8" cy="205.5" r="7.4"/>
	<circle class="st1" cx="822" cy="190.7" r="7.4"/>
	<circle class="st1" cx="912.9" cy="186.9" r="7.4"/>
	<circle class="st1" cx="997.2" cy="203.7" r="7.4"/>
	<circle class="st1" cx="1097.2" cy="216.5" r="7.4"/>
	<circle class="st1" cx="1146" cy="203.7" r="6.1"/>
	<circle class="st1" cx="369.5" cy="218" r="11.9"/>
	<circle class="st1" cx="291.7" cy="207.7" r="4.2"/>
	<circle class="st1" cx="303" cy="207.7" r="4.2"/>
	<circle class="st1" cx="311.3" cy="211.9" r="2.1"/>
	<circle class="st1" cx="298.8" cy="201.7" r="2.1"/>
	<circle class="st1" cx="315.5" cy="217" r="2.1"/>
	<circle class="st1" cx="322.9" cy="219.1" r="7.4"/>
	
		<ellipse transform="matrix(0.7083 0.7059 -0.7059 0.7083 270.45 -211.8413)" class="st1" cx="391.6" cy="221.3" rx="7.2" ry="6.5"/>
	
		<ellipse transform="matrix(0.7083 0.7059 -0.7059 0.7083 271.3301 -228.7603)" class="st1" cx="412.5" cy="213.9" rx="4" ry="3.6"/>
	
		<ellipse transform="matrix(0.7083 0.7059 -0.7059 0.7083 274.0325 -244.3469)" class="st1" cx="432.7" cy="209.4" rx="7.2" ry="6.5"/>
	<circle class="st1" cx="405.4" cy="219.9" r="4.6"/>
	<circle class="st1" cx="478.3" cy="190.7" r="4.6"/>
	<circle class="st1" cx="495" cy="184.1" r="5.7"/>
	<circle class="st1" cx="611.5" cy="189.9" r="4"/>
	<circle class="st1" cx="660.3" cy="198.1" r="2.5"/>
	<circle class="st1" cx="419.9" cy="209.9" r="7.4"/>
	<circle class="st1" cx="557.2" cy="175.9" r="4.6"/>
	<circle class="st1" cx="670.3" cy="206.1" r="2.5"/>
	<circle class="st1" cx="683.7" cy="206.1" r="4.6"/>
	<circle class="st1" cx="702" cy="211.1" r="4.6"/>
	<circle class="st1" cx="649.3" cy="200.1" r="2.5"/>
	<circle class="st1" cx="567" cy="182.9" r="2.5"/>
	<circle class="st1" cx="715" cy="216.5" r="2.5"/>
	<circle class="st1" cx="723" cy="211.7" r="2.5"/>
	<circle class="st1" cx="723" cy="219.1" r="2.5"/>
	<circle class="st1" cx="717.5" cy="210.7" r="4.6"/>
	<circle class="st1" cx="521.1" cy="183.9" r="2.5"/>
	<circle class="st1" cx="561.8" cy="186.9" r="4.6"/>
	<circle class="st1" cx="489.3" cy="195.6" r="4.2"/>
	<circle class="st1" cx="688.3" cy="214.4" r="4.6"/>
	<circle class="st1" cx="662.8" cy="206.1" r="4.2"/>
	<circle class="st1" cx="741" cy="219" r="2.5"/>
	<circle class="st1" cx="749.7" cy="209.9" r="2.5"/>
	<circle class="st1" cx="760.4" cy="215.7" r="3.2"/>
	<circle class="st1" cx="738.5" cy="207.4" r="3.2"/>
	<circle class="st1" cx="738.5" cy="214.4" r="3.2"/>
	<circle class="st1" cx="822" cy="200.5" r="3.2"/>
	<circle class="st1" cx="814.6" cy="201.5" r="2.5"/>
	<circle class="st1" cx="857.8" cy="188.4" r="2.5"/>
	<circle class="st1" cx="808.8" cy="192.3" r="2.5"/>
	<circle class="st1" cx="860.3" cy="181.9" r="2.5"/>
	
		<ellipse transform="matrix(0.7083 0.7059 -0.7059 0.7083 451.2452 -671.7068)" class="st1" cx="1038.4" cy="210.2" rx="7.2" ry="6.5"/>
	<circle class="st1" cx="1025.8" cy="210.5" r="7.4"/>
	<circle class="st1" cx="937.8" cy="188.6" r="4"/>
	<circle class="st1" cx="1056.2" cy="217.9" r="4"/>
	<circle class="st1" cx="1136" cy="212.9" r="4"/>
	<circle class="st1" cx="1191" cy="194.9" r="4"/>
	<circle class="st1" cx="949" cy="192.3" r="4"/>
	<circle class="st1" cx="1118" cy="212.9" r="8.5"/>
	
		<ellipse transform="matrix(0.7083 0.7059 -0.7059 0.7083 357.8986 -436.0416)" class="st1" cx="706.6" cy="215" rx="7.2" ry="6.5"/>
	<circle class="st1" cx="416.3" cy="221.9" r="2.5"/>
	<circle class="st1" cx="400.8" cy="228.3" r="2.5"/>
	<circle class="st1" cx="444.1" cy="211.9" r="2.5"/>
	<circle class="st1" cx="425.7" cy="217.4" r="2.5"/>
	<circle class="st1" cx="547.5" cy="180.4" r="2.5"/>
	<circle class="st1" cx="847" cy="185.9" r="4"/>
	<circle class="st1" cx="922.8" cy="189.9" r="2.5"/>
	<circle class="st1" cx="895" cy="185.3" r="2.5"/>
	<circle class="st1" cx="1007.2" cy="210.4" r="2.5"/>
	<circle class="st1" cx="1018.4" cy="205.1" r="2.5"/>
	<circle class="st1" cx="1185" cy="196.9" r="2.5"/>
	<circle class="st1" cx="837.6" cy="191.1" r="4.6"/>
</g>
</svg>
