<?xml version="1.0" encoding="utf-8"?>
<!-- Generator: Adobe Illustrator 19.1.0, SVG Export Plug-In . SVG Version: 6.00 Build 0)  -->
<svg version="1.1" id="Lager_1" xmlns="http://www.w3.org/2000/svg" xmlns:xlink="http://www.w3.org/1999/xlink" x="0px" y="0px"
	 viewBox="0 0 447 348" style="enable-background:new 0 0 447 348;" xml:space="preserve">
<style type="text/css">
	.st0{fill:#F0F2F1;}
	.st1{fill:#F2F9F8;}
	.st2{fill:#EDF2F1;}
	.st3{fill:#EBF2F2;}
	.st4{fill:#EAEFEF;}
	.st5{fill:#EAEAEA;}
	.st6{fill:#E2E2E2;}
	.st7{fill:#EBEDED;}
</style>
<path class="st0" d="M199.1,129.2c-8.1,0-15.5,2.8-21.6,7.2c-2.8-1.6-5.9-2.7-9.2-3.1c-5-2.6-10.6-4.1-16.5-4.1
	c-8.1,0-15.5,2.8-21.6,7.2c-3.7-2.1-7.9-3.3-12.5-3.3c-5.8,0-11.2,2-15.5,5.4c-1.3,1-0.6,3.2,1.1,3.2l118.5,0c1.7,0,2.5-2.1,1.2-3.3
	C216.7,132.9,208.3,129.2,199.1,129.2z"/>
<g>
	<g>
		<path class="st1" d="M288.9,56.7c0-18.3-13.8-35.4-31.2-33.2c-13.3,1.7-24.8,9-29.2,21.5c-2,5.7,2,11.7,7.7,11.7L354,56.3
			c5,0,8.6-5.3,7-10.4c-4.1-13-15.6-21.4-29.2-22.4c-17-1.3-30.8,14.7-30.8,32.8"/>
		<path class="st1" d="M278.6,56.8c-7-5.1-11.6-13.6-11.6-23.3c0-15.5,11.8-28.1,26.4-28.1s26.4,12.6,26.4,28.1
			c0,9.4-4.3,17.7-10.9,22.8"/>
	</g>
	<path class="st1" d="M271,56.7c3.7-10.8,13.4-18.6,24.8-18.6c11.3,0,20.9,7.5,24.7,18.1"/>
</g>
<path class="st2" d="M230.7,115.2c-8.1,0-15.5,2.8-21.6,7.2c-2.8-1.6-5.9-2.7-9.2-3.1c-5-2.6-10.6-4.1-16.5-4.1
	c-8.1,0-15.5,2.8-21.6,7.2c-3.7-2.1-7.9-3.3-12.5-3.3c-5.8,0-11.2,2-15.5,5.4c-1.3,1-0.6,3.2,1.1,3.2l118.5,0c1.7,0,2.5-2.1,1.2-3.3
	C248.3,118.9,239.9,115.2,230.7,115.2z"/>
<path class="st1" d="M336.3,45.2c5-0.5,9.7,0.7,13.7,3.1c5.4-7.6,14-12.5,23.8-12.5c12,0,22.2,7.3,26.9,17.9
	c0.9-0.1,1.7-0.2,2.6-0.2c6.9,0,12.7,4.5,14.9,10.7c1.3-0.5,2.7-0.7,4.3-0.5c3.5,0.6,6.3,3.5,6.8,7.1c0,0,0,0.1,0,0.1
	c0.2,1.8-1.2,3.4-2.9,3.4l-7.7,0h-5.3h-11.1h-14.3h-27.8h-14.8h-20.9c-4.8,0-8.6-4.4-7.9-9.3c0-0.1,0-0.2,0-0.2
	C318,54.3,326.2,46.2,336.3,45.2z"/>
<path class="st3" d="M246.2,35.3c5.5-0.7,10.7,0.9,15,4.2c5.9-10.4,15.5-17.2,26.2-17.2c13.2,0,24.5,10.1,29.6,24.6
	c0.9-0.2,1.9-0.3,2.9-0.3c7.5,0,14,6.1,16.4,14.7c1.4-0.7,3-1,4.7-0.7c3.8,0.8,6.9,4.7,7.5,9.7c0,0,0,0.1,0,0.1
	c0.3,2.5-1.3,4.7-3.2,4.7l-8.5,0H331h-12.2H303h-30.6h-16.3l-23.1,0c-5.3,0-9.4-6-8.7-12.8c0-0.1,0-0.2,0-0.3
	C226.1,47.9,235.1,36.8,246.2,35.3z"/>
<g>
	<path class="st2" d="M152.3,55.7c0-19.9-14.9-38.5-33.5-36c-14.3,1.8-26.6,9.7-31.4,23.4c-2.1,6.1,2.2,12.7,8.3,12.6l126.7-0.4
		c5.4,0,9.2-5.7,7.5-11.2c-4.4-14.1-16.8-23.2-31.4-24.3c-18.2-1.5-33.1,15.9-33.1,35.5"/>
	<path class="st2" d="M140.2,55.8c-7.6-4.9-12.5-13.2-12.5-22.7c0-15.1,12.7-27.3,28.4-27.3s28.4,12.2,28.4,27.3
		c0,9.1-4.6,17.2-11.7,22.1"/>
</g>
<g>
	<path class="st1" d="M73,78.3c0-19.6-14.6-38-33-35.6c-14,1.8-26.2,9.6-30.9,23.1c-2.1,6.1,2.1,12.5,8.1,12.5l124.6-0.4
		c5.3,0,9.1-5.6,7.4-11.1c-4.3-14-16.5-22.9-30.9-24c-17.9-1.4-32.5,15.7-32.5,35.1"/>
	<path class="st1" d="M61.1,78.4C53.7,73.5,48.8,65.3,48.8,56c0-14.9,12.5-27,27.9-27s27.9,12.1,27.9,27c0,9-4.5,17-11.5,21.9"/>
</g>
<g>
	<path class="st3" d="M172.7,76.7c0-18-12.6-34.7-28.4-32.5c-12.1,1.7-22.5,8.8-26.6,21.1c-1.8,5.5,1.8,11.4,7,11.4l107.2-0.4
		c4.6,0,7.8-5.2,6.4-10.1c-3.7-12.8-14.2-20.9-26.6-22c-15.4-1.3-28,14.4-28,32.1"/>
	<path class="st3" d="M162.5,76.8c-6.4-4.4-10.6-11.9-10.6-20.5c0-13.6,10.8-24.7,24-24.7c13.3,0,24,11,24,24.7
		c0,8.2-3.9,15.5-9.9,20"/>
</g>
<path class="st4" d="M32.2,60.4c6.1-0.7,11.8,0.9,16.6,4.3c6.5-10.7,17.1-17.7,29-17.7c14.5,0,27.1,10.4,32.7,25.2
	c1-0.2,2.1-0.3,3.2-0.3c8.3,0,15.4,6.3,18.2,15.1c1.6-0.7,3.3-1,5.2-0.7c4.2,0.8,7.6,4.9,8.3,9.9c0,0,0,0.1,0,0.1
	c0.3,2.5-1.4,4.8-3.6,4.8l-9.4,0H126h-13.5H95H61.2h-18H17.8c-5.9,0-10.4-6.2-9.6-13.1c0-0.1,0-0.2,0-0.3C10,73.3,20,61.9,32.2,60.4
	z"/>
<g>
	<g>
		<path class="st1" d="M164.4,101.7c0-21.3-14.8-41.2-33.5-38.6c-14.2,2-26.6,10.4-31.3,25c-2.1,6.6,2.2,13.6,8.2,13.5l126.4-0.4
			c5.4,0,9.2-6.1,7.5-12c-4.4-15.2-16.8-24.8-31.3-26.1c-18.2-1.6-33,17.1-33,38.1"/>
		<path class="st1" d="M153.3,101.8c-7.5-5.9-12.5-15.8-12.5-27.1c0-18,12.7-32.7,28.3-32.7s28.3,14.6,28.3,32.7
			c0,10.9-4.6,20.5-11.7,26.5"/>
	</g>
	<path class="st1" d="M145.1,101.7c3.9-12.6,14.4-21.6,26.6-21.6c12.1,0,22.4,8.7,26.5,21.1"/>
</g>
<path class="st5" d="M307.6,66.8c-6.1-0.6-11.8,0.8-16.6,3.6c-6.5-8.9-17-14.7-28.9-14.7c-14.5,0-27,8.6-32.6,21
	c-1-0.2-2.1-0.3-3.2-0.3c-8.3,0-15.4,5.2-18.1,12.6c-1.6-0.6-3.3-0.9-5.2-0.6c-4.2,0.7-7.6,4-8.3,8.3c0,0,0,0.1,0,0.1
	c-0.3,2.1,1.4,4,3.6,4l9.4,0h6.4h13.5H245h33.7h17.9H322c5.8,0,10.4-5.1,9.6-10.9c0-0.1,0-0.2,0-0.3
	C329.7,77.5,319.8,68.1,307.6,66.8z"/>
<g>
	<g>
		<path class="st2" d="M366,101.7c0-16.4-12.9-31.7-29.1-29.7c-12.4,1.5-23.1,8-27.3,19.2c-1.9,5,1.9,10.4,7.2,10.4l110-0.3
			c4.7,0,8-4.7,6.5-9.2c-3.8-11.6-14.6-19.1-27.3-20c-15.8-1.2-28.7,13.1-28.7,29.3"/>
		<path class="st2" d="M356.3,101.8c-6.6-4.5-10.9-12.2-10.9-20.8c0-13.9,11-25.1,24.6-25.1s24.6,11.2,24.6,25.1
			c0,8.4-4,15.8-10.2,20.3"/>
	</g>
	<path class="st2" d="M349.2,101.7c3.4-9.7,12.5-16.6,23.2-16.6c10.5,0,19.5,6.7,23,16.2"/>
</g>
<path class="st6" d="M139.4,82.3c-7.1-0.7-13.8,0.9-19.4,4.2c-7.6-10.5-20-17.3-33.9-17.3c-17,0-31.6,10.1-38.2,24.7
	c-1.2-0.2-2.5-0.3-3.7-0.3c-9.7,0-18,6.1-21.2,14.8c-1.8-0.7-3.9-1-6.1-0.7c-5,0.8-8.9,4.8-9.7,9.7c0,0,0,0.1,0,0.1
	c-0.3,2.5,1.7,4.7,4.2,4.7l11,0h7.5h15.8H66h39.5h21h29.8c6.8,0,12.2-6,11.2-12.8c0-0.1,0-0.2,0-0.3
	C165.4,94.9,153.7,83.8,139.4,82.3z"/>
<g>
	<g>
		<path class="st7" d="M366.4,123.7c0-16.7-11.7-32.3-26.5-30.2c-11.3,1.5-21,8.1-24.8,19.6c-1.7,5.1,1.7,10.6,6.5,10.6l100-0.4
			c4.3,0,7.3-4.8,6-9.4c-3.4-11.9-13.3-19.4-24.8-20.4c-14.4-1.2-26.1,13.4-26.1,29.8"/>
		<path class="st7" d="M357.6,123.8c-6-4.6-9.9-12.4-9.9-21.2c0-14.1,10-25.6,22.4-25.6s22.4,11.5,22.4,25.6
			c0,8.5-3.7,16.1-9.3,20.7"/>
	</g>
	<path class="st7" d="M351.2,123.7c3.1-9.8,11.4-16.9,21.1-16.9c9.6,0,17.7,6.8,21,16.5"/>
</g>
<g>
	<g>
		<path class="st1" d="M289.9,121.7c0-18.3-13.8-35.4-31.2-33.2c-13.3,1.7-24.8,9-29.2,21.5c-2,5.7,2,11.7,7.7,11.7l117.8-0.4
			c5,0,8.6-5.3,7-10.4c-4.1-13-15.6-21.4-29.2-22.4c-17-1.3-30.8,14.7-30.8,32.8"/>
		<path class="st1" d="M279.6,121.8c-7-5.1-11.6-13.6-11.6-23.3c0-15.5,11.8-28.1,26.4-28.1s26.4,12.6,26.4,28.1
			c0,9.4-4.3,17.7-10.9,22.8"/>
	</g>
	<path class="st1" d="M272,121.7c3.7-10.8,13.4-18.6,24.8-18.6c11.3,0,20.9,7.5,24.7,18.1"/>
</g>
<g>
	<path class="st6" d="M200.5,122.7c0-23.2-12.9-44.9-29.1-42.1c-12.4,2.2-23.1,11.3-27.3,27.3c-1.9,7.2,1.9,14.8,7.2,14.8l110.1-0.5
		c4.7,0,8-6.7,6.6-13.1c-3.8-16.5-14.6-27.1-27.3-28.4c-15.8-1.7-28.7,18.6-28.7,41.5"/>
	<path class="st6" d="M190,122.8c-6.6-5.7-10.9-15.5-10.9-26.5c0-17.6,11-31.9,24.7-31.9s24.7,14.3,24.7,31.9
		c0,10.6-4,20.1-10.2,25.9"/>
</g>
<path class="st3" d="M247.2,100.3c5.5-0.7,10.7,0.9,15,4.2c5.9-10.4,15.5-17.2,26.2-17.2c13.2,0,24.5,10.1,29.6,24.6
	c0.9-0.2,1.9-0.3,2.9-0.3c7.5,0,14,6.1,16.4,14.7c1.4-0.7,3-1,4.7-0.7c3.8,0.8,6.9,4.7,7.5,9.7c0,0,0,0.1,0,0.1
	c0.3,2.5-1.3,4.7-3.2,4.7l-8.5,0H332h-12.2H304h-30.6h-16.3h-23.1c-5.3,0-9.4-6-8.7-12.8c0-0.1,0-0.2,0-0.3
	C227.1,112.9,236.1,101.8,247.2,100.3z"/>
<g>
	<path class="st2" d="M153.3,120.7c0-19.9-14.9-38.5-33.5-36c-14.3,1.8-26.6,9.7-31.4,23.4c-2.1,6.1,2.2,12.7,8.3,12.6l126.7-0.4
		c5.4,0,9.2-5.7,7.5-11.2c-4.4-14.1-16.8-23.2-31.4-24.3c-18.2-1.5-33.1,15.9-33.1,35.5"/>
	<path class="st2" d="M141.2,120.8c-7.6-4.9-12.5-13.2-12.5-22.7c0-15.1,12.7-27.3,28.4-27.3s28.4,12.2,28.4,27.3
		c0,9.1-4.6,17.2-11.7,22.1"/>
</g>
<g>
	<path class="st3" d="M173.7,141.7c0-18-12.6-34.7-28.4-32.5c-12.1,1.7-22.5,8.8-26.6,21.1c-1.8,5.5,1.8,11.4,7,11.4l107.2-0.4
		c4.6,0,7.8-5.2,6.4-10.1c-3.7-12.8-14.2-20.9-26.6-22c-15.4-1.3-28,14.4-28,32.1"/>
	<path class="st3" d="M163.5,141.8c-6.4-4.4-10.6-11.9-10.6-20.5c0-13.6,10.8-24.7,24-24.7c13.3,0,24,11,24,24.7
		c0,8.2-3.9,15.5-9.9,20"/>
</g>
<path class="st4" d="M33.2,125.4c6.1-0.7,11.8,0.9,16.6,4.3c6.5-10.7,17.1-17.7,29-17.7c14.5,0,27.1,10.4,32.7,25.2
	c1-0.2,2.1-0.3,3.2-0.3c8.3,0,15.4,6.3,18.2,15.1c1.6-0.7,3.3-1,5.2-0.7c4.2,0.8,7.6,4.9,8.3,9.9c0,0,0,0.1,0,0.1
	c0.3,2.5-1.4,4.8-3.6,4.8l-9.4,0H127h-13.5H96H62.2h-18H18.8c-5.9,0-10.4-6.2-9.6-13.1c0-0.1,0-0.2,0-0.3
	C11,138.3,21,126.9,33.2,125.4z"/>
<g>
	<g>
		<path class="st1" d="M165.4,166.7c0-21.3-14.8-41.2-33.5-38.6c-14.2,2-26.6,10.4-31.3,25c-2.1,6.6,2.2,13.6,8.2,13.5l126.4-0.4
			c5.4,0,9.2-6.1,7.5-12c-4.4-15.2-16.8-24.8-31.3-26.1c-18.2-1.6-33,17.1-33,38.1"/>
		<path class="st1" d="M154.3,166.8c-7.5-5.9-12.5-15.8-12.5-27.1c0-18,12.7-32.7,28.3-32.7s28.3,14.6,28.3,32.7
			c0,10.9-4.6,20.5-11.7,26.5"/>
	</g>
	<path class="st1" d="M146.1,166.7c3.9-12.6,14.4-21.6,26.6-21.6c12.1,0,22.4,8.7,26.5,21.1"/>
</g>
<path class="st5" d="M308.6,131.8c-6.1-0.6-11.8,0.8-16.6,3.6c-6.5-8.9-17-14.7-28.9-14.7c-14.5,0-27,8.6-32.6,21
	c-1-0.2-2.1-0.3-3.2-0.3c-8.3,0-15.4,5.2-18.1,12.6c-1.6-0.6-3.3-0.9-5.2-0.6c-4.2,0.7-7.6,4-8.3,8.3c0,0,0,0.1,0,0.1
	c-0.3,2.1,1.4,4,3.6,4h9.4h6.4h13.5H246h33.7h17.9H323c5.8,0,10.4-5.1,9.6-10.9c0-0.1,0-0.2,0-0.3
	C330.7,142.5,320.8,133.1,308.6,131.8z"/>
<g>
	<g>
		<path class="st2" d="M367,166.7c0-16.4-12.9-31.7-29.1-29.7c-12.4,1.5-23.1,8-27.3,19.2c-1.9,5,1.9,10.4,7.2,10.4l110-0.3
			c4.7,0,8-4.7,6.5-9.2c-3.8-11.6-14.6-19.1-27.3-20c-15.8-1.2-28.7,13.1-28.7,29.3"/>
		<path class="st2" d="M357.3,166.8c-6.6-4.5-10.9-12.2-10.9-20.8c0-13.9,11-25.1,24.6-25.1s24.6,11.2,24.6,25.1
			c0,8.4-4,15.8-10.2,20.3"/>
	</g>
	<path class="st2" d="M350.2,166.7c3.4-9.7,12.5-16.6,23.2-16.6c10.5,0,19.5,6.7,23,16.2"/>
</g>
<path class="st0" d="M202.1,210.2c-8.1,0-15.5,2.8-21.6,7.2c-2.8-1.6-5.9-2.7-9.2-3.1c-5-2.6-10.6-4.1-16.5-4.1
	c-8.1,0-15.5,2.8-21.6,7.2c-3.7-2.1-7.9-3.3-12.5-3.3c-5.8,0-11.2,2-15.5,5.4c-1.3,1-0.6,3.2,1.1,3.2l118.5,0c1.7,0,2.5-2.1,1.2-3.3
	C219.7,213.9,211.3,210.2,202.1,210.2z"/>
<path class="st2" d="M233.7,196.2c-8.1,0-15.5,2.8-21.6,7.2c-2.8-1.6-5.9-2.7-9.2-3.1c-5-2.6-10.6-4.1-16.5-4.1
	c-8.1,0-15.5,2.8-21.6,7.2c-3.7-2.1-7.9-3.3-12.5-3.3c-5.8,0-11.2,2-15.5,5.4c-1.3,1-0.6,3.2,1.1,3.2l118.5,0c1.7,0,2.5-2.1,1.2-3.3
	C251.3,199.9,242.9,196.2,233.7,196.2z"/>
<g>
	<g>
		<path class="st1" d="M167.4,182.7c0-21.3-14.8-41.2-33.5-38.6c-14.2,2-26.6,10.4-31.3,25c-2.1,6.6,2.2,13.6,8.2,13.5l126.4-0.4
			c5.4,0,9.2-6.1,7.5-12c-4.4-15.2-16.8-24.8-31.3-26.1c-18.2-1.6-33,17.1-33,38.1"/>
		<path class="st1" d="M156.3,182.8c-7.5-5.9-12.5-15.8-12.5-27.1c0-18,12.7-32.7,28.3-32.7s28.3,14.6,28.3,32.7
			c0,10.9-4.6,20.5-11.7,26.5"/>
	</g>
	<path class="st1" d="M148.1,182.7c3.9-12.6,14.4-21.6,26.6-21.6c12.1,0,22.4,8.7,26.5,21.1"/>
</g>
<path class="st5" d="M310.6,147.8c-6.1-0.6-11.8,0.8-16.6,3.6c-6.5-8.9-17-14.7-28.9-14.7c-14.5,0-27,8.6-32.6,21
	c-1-0.2-2.1-0.3-3.2-0.3c-8.3,0-15.4,5.2-18.1,12.6c-1.6-0.6-3.3-0.9-5.2-0.6c-4.2,0.7-7.6,4-8.3,8.3c0,0,0,0.1,0,0.1
	c-0.3,2.1,1.4,4,3.6,4h9.4h6.4h13.5H248h33.7h17.9H325c5.8,0,10.4-5.1,9.6-10.9c0-0.1,0-0.2,0-0.3
	C332.7,158.5,322.8,149.1,310.6,147.8z"/>
<path class="st6" d="M142.4,163.3c-7.1-0.7-13.8,0.9-19.4,4.2c-7.6-10.5-20-17.3-33.9-17.3c-17,0-31.6,10.1-38.2,24.7
	c-1.2-0.2-2.5-0.3-3.7-0.3c-9.7,0-18,6.1-21.2,14.8c-1.8-0.7-3.9-1-6.1-0.7c-5,0.8-8.9,4.8-9.7,9.7c0,0,0,0.1,0,0.1
	c-0.3,2.5,1.7,4.7,4.2,4.7l11,0h7.5h15.8H69h39.5h21l29.8,0c6.8,0,12.2-6,11.2-12.8c0-0.1,0-0.2,0-0.3
	C168.4,175.9,156.7,164.8,142.4,163.3z"/>
<g>
	<g>
		<path class="st7" d="M369.4,204.7c0-16.7-11.7-32.3-26.5-30.2c-11.3,1.5-21,8.1-24.8,19.6c-1.7,5.1,1.7,10.6,6.5,10.6l100-0.4
			c4.3,0,7.3-4.8,6-9.4c-3.4-11.9-13.3-19.4-24.8-20.4c-14.4-1.2-26.1,13.4-26.1,29.8"/>
		<path class="st7" d="M360.6,204.8c-6-4.6-9.9-12.4-9.9-21.2c0-14.1,10-25.6,22.4-25.6s22.4,11.5,22.4,25.6
			c0,8.5-3.7,16.1-9.3,20.7"/>
	</g>
	<path class="st7" d="M354.2,204.7c3.1-9.8,11.4-16.9,21.1-16.9c9.6,0,17.7,6.8,21,16.5"/>
</g>
<g>
	<g>
		<path class="st1" d="M292.9,202.7c0-18.3-13.8-35.4-31.2-33.2c-13.3,1.7-24.8,9-29.2,21.5c-2,5.7,2,11.7,7.7,11.7l117.8-0.4
			c5,0,8.6-5.3,7-10.4c-4.1-13-15.6-21.4-29.2-22.4c-17-1.3-30.8,14.7-30.8,32.8"/>
		<path class="st1" d="M282.6,202.8c-7-5.1-11.6-13.6-11.6-23.3c0-15.5,11.8-28.1,26.4-28.1s26.4,12.6,26.4,28.1
			c0,9.4-4.3,17.7-10.9,22.8"/>
	</g>
	<path class="st1" d="M275,202.7c3.7-10.8,13.4-18.6,24.8-18.6c11.3,0,20.9,7.5,24.7,18.1"/>
</g>
<path class="st1" d="M340.3,191.2c5-0.5,9.7,0.7,13.7,3.1c5.4-7.6,14-12.5,23.8-12.5c12,0,22.2,7.3,26.9,17.9
	c0.9-0.1,1.7-0.2,2.6-0.2c6.9,0,12.7,4.5,14.9,10.7c1.3-0.5,2.7-0.7,4.3-0.5c3.5,0.6,6.3,3.5,6.8,7.1c0,0,0,0.1,0,0.1
	c0.2,1.8-1.2,3.4-2.9,3.4l-7.7,0h-5.3h-11.1h-14.3h-27.8h-14.8h-20.9c-4.8,0-8.6-4.4-7.9-9.3c0-0.1,0-0.2,0-0.2
	C322,200.3,330.2,192.2,340.3,191.2z"/>
<g>
	<path class="st6" d="M203.5,203.7c0-23.2-12.9-44.9-29.1-42.1c-12.4,2.2-23.1,11.3-27.3,27.3c-1.9,7.2,1.9,14.8,7.2,14.8l110.1-0.5
		c4.7,0,8-6.7,6.6-13.1c-3.8-16.5-14.6-27.1-27.3-28.4c-15.8-1.7-28.7,18.6-28.7,41.5"/>
	<path class="st6" d="M193,203.8c-6.6-5.7-10.9-15.5-10.9-26.5c0-17.6,11-31.9,24.7-31.9s24.7,14.3,24.7,31.9
		c0,10.6-4,20.1-10.2,25.9"/>
</g>
<path class="st3" d="M250.2,181.3c5.5-0.7,10.7,0.9,15,4.2c5.9-10.4,15.5-17.2,26.2-17.2c13.2,0,24.5,10.1,29.6,24.6
	c0.9-0.2,1.9-0.3,2.9-0.3c7.5,0,14,6.1,16.4,14.7c1.4-0.7,3-1,4.7-0.7c3.8,0.8,6.9,4.7,7.5,9.7c0,0,0,0.1,0,0.1
	c0.3,2.5-1.3,4.7-3.2,4.7l-8.5,0H335h-12.2H307h-30.6h-16.3h-23.1c-5.3,0-9.4-6-8.7-12.8c0-0.1,0-0.2,0-0.3
	C230.1,193.9,239.1,182.8,250.2,181.3z"/>
<g>
	<path class="st2" d="M156.3,201.7c0-19.9-14.9-38.5-33.5-36c-14.3,1.8-26.6,9.7-31.4,23.4c-2.1,6.1,2.2,12.7,8.3,12.6l126.7-0.4
		c5.4,0,9.2-5.7,7.5-11.2c-4.4-14.1-16.8-23.2-31.4-24.3c-18.2-1.5-33.1,15.9-33.1,35.5"/>
	<path class="st2" d="M144.2,201.8c-7.6-4.9-12.5-13.2-12.5-22.7c0-15.1,12.7-27.3,28.4-27.3s28.4,12.2,28.4,27.3
		c0,9.1-4.6,17.2-11.7,22.1"/>
</g>
<g>
	<path class="st1" d="M77,224.3c0-19.6-14.6-38-33-35.6c-14,1.8-26.2,9.6-30.9,23.1c-2.1,6.1,2.1,12.5,8.1,12.5l124.6-0.4
		c5.3,0,9.1-5.6,7.4-11.1c-4.3-14-16.5-22.9-30.9-24c-17.9-1.4-32.5,15.7-32.5,35.1"/>
	<path class="st1" d="M65.1,224.4c-7.4-4.9-12.3-13.1-12.3-22.4c0-14.9,12.5-27,27.9-27s27.9,12.1,27.9,27c0,9-4.5,17-11.5,21.9"/>
</g>
<g>
	<path class="st3" d="M176.7,222.7c0-18-12.6-34.7-28.4-32.5c-12.1,1.7-22.5,8.8-26.6,21.1c-1.8,5.5,1.8,11.4,7,11.4l107.2-0.4
		c4.6,0,7.8-5.2,6.4-10.1c-3.7-12.8-14.2-20.9-26.6-22c-15.4-1.3-28,14.4-28,32.1"/>
	<path class="st3" d="M166.5,222.8c-6.4-4.4-10.6-11.9-10.6-20.5c0-13.6,10.8-24.7,24-24.7c13.3,0,24,11,24,24.7
		c0,8.2-3.9,15.5-9.9,20"/>
</g>
<path class="st4" d="M36.2,206.4c6.1-0.7,11.8,0.9,16.6,4.3c6.5-10.7,17.1-17.7,29-17.7c14.5,0,27.1,10.4,32.7,25.2
	c1-0.2,2.1-0.3,3.2-0.3c8.3,0,15.4,6.3,18.2,15.1c1.6-0.7,3.3-1,5.2-0.7c4.2,0.8,7.6,4.9,8.3,9.9c0,0,0,0.1,0,0.1
	c0.3,2.5-1.4,4.8-3.6,4.8l-9.4,0H130h-13.5H99H65.2h-18H21.8c-5.9,0-10.4-6.2-9.6-13.1c0-0.1,0-0.2,0-0.3
	C14,219.3,24,207.9,36.2,206.4z"/>
<g>
	<g>
		<path class="st1" d="M168.4,247.7c0-21.3-14.8-41.2-33.5-38.6c-14.2,2-26.6,10.4-31.3,25c-2.1,6.6,2.2,13.6,8.2,13.5l126.4-0.4
			c5.4,0,9.2-6.1,7.5-12c-4.4-15.2-16.8-24.8-31.3-26.1c-18.2-1.6-33,17.1-33,38.1"/>
		<path class="st1" d="M157.3,247.8c-7.5-5.9-12.5-15.8-12.5-27.1c0-18,12.7-32.7,28.3-32.7s28.3,14.6,28.3,32.7
			c0,10.9-4.6,20.5-11.7,26.5"/>
	</g>
	<path class="st1" d="M149.1,247.7c3.9-12.6,14.4-21.6,26.6-21.6c12.1,0,22.4,8.7,26.5,21.1"/>
</g>
<path class="st5" d="M311.6,212.8c-6.1-0.6-11.8,0.8-16.6,3.6c-6.5-8.9-17-14.7-28.9-14.7c-14.5,0-27,8.6-32.6,21
	c-1-0.2-2.1-0.3-3.2-0.3c-8.3,0-15.4,5.2-18.1,12.6c-1.6-0.6-3.3-0.9-5.2-0.6c-4.2,0.7-7.6,4-8.3,8.3c0,0,0,0.1,0,0.1
	c-0.3,2.1,1.4,4,3.6,4h9.4h6.4h13.5H249h33.7h17.9H326c5.8,0,10.4-5.1,9.6-10.9c0-0.1,0-0.2,0-0.3
	C333.7,223.5,323.8,214.1,311.6,212.8z"/>
<g>
	<g>
		<path class="st2" d="M370,247.7c0-16.4-12.9-31.7-29.1-29.7c-12.4,1.5-23.1,8-27.3,19.2c-1.9,5,1.9,10.4,7.2,10.4l110-0.3
			c4.7,0,8-4.7,6.5-9.2c-3.8-11.6-14.6-19.1-27.3-20c-15.8-1.2-28.7,13.1-28.7,29.3"/>
		<path class="st2" d="M360.3,247.8c-6.6-4.5-10.9-12.2-10.9-20.8c0-13.9,11-25.1,24.6-25.1s24.6,11.2,24.6,25.1
			c0,8.4-4,15.8-10.2,20.3"/>
	</g>
	<path class="st2" d="M353.2,247.7c3.4-9.7,12.5-16.6,23.2-16.6c10.5,0,19.5,6.7,23,16.2"/>
</g>
<path class="st4" d="M38.2,219.4c6.1-0.7,11.8,0.9,16.6,4.3c6.5-10.7,17.1-17.7,29-17.7c14.5,0,27.1,10.4,32.7,25.2
	c1-0.2,2.1-0.3,3.2-0.3c8.3,0,15.4,6.3,18.2,15.1c1.6-0.7,3.3-1,5.2-0.7c4.2,0.8,7.6,4.9,8.3,9.9c0,0,0,0.1,0,0.1
	c0.3,2.5-1.4,4.8-3.6,4.8h-9.4H132h-13.5H101H67.2h-18H23.8c-5.9,0-10.4-6.2-9.6-13.1c0-0.1,0-0.2,0-0.3
	C16,232.3,26,220.9,38.2,219.4z"/>
<g>
	<g>
		<path class="st1" d="M170.4,260.7c0-21.3-14.8-41.2-33.5-38.6c-14.2,2-26.6,10.4-31.3,25c-2.1,6.6,2.2,13.6,8.2,13.5l126.4-0.4
			c5.4,0,9.2-6.1,7.5-12c-4.4-15.2-16.8-24.8-31.3-26.1c-18.2-1.6-33,17.1-33,38.1"/>
		<path class="st1" d="M159.3,260.8c-7.5-5.9-12.5-15.8-12.5-27.1c0-18,12.7-32.7,28.3-32.7s28.3,14.6,28.3,32.7
			c0,10.9-4.6,20.5-11.7,26.5"/>
	</g>
	<path class="st1" d="M151.1,260.7c3.9-12.6,14.4-21.6,26.6-21.6c12.1,0,22.4,8.7,26.5,21.1"/>
</g>
<path class="st5" d="M313.6,225.8c-6.1-0.6-11.8,0.8-16.6,3.6c-6.5-8.9-17-14.7-28.9-14.7c-14.5,0-27,8.6-32.6,21
	c-1-0.2-2.1-0.3-3.2-0.3c-8.3,0-15.4,5.2-18.1,12.6c-1.6-0.6-3.3-0.9-5.2-0.6c-4.2,0.7-7.6,4-8.3,8.3c0,0,0,0.1,0,0.1
	c-0.3,2.1,1.4,4,3.6,4l9.4,0h6.4h13.5H251h33.7h17.9H328c5.8,0,10.4-5.1,9.6-10.9c0-0.1,0-0.2,0-0.3
	C335.7,236.5,325.8,227.1,313.6,225.8z"/>
<path class="st0" d="M207.1,304.2c-8.1,0-15.5,2.8-21.6,7.2c-2.8-1.6-5.9-2.7-9.2-3.1c-5-2.6-10.6-4.1-16.5-4.1
	c-8.1,0-15.5,2.8-21.6,7.2c-3.7-2.1-7.9-3.3-12.5-3.3c-5.8,0-11.2,2-15.5,5.4c-1.3,1-0.6,3.2,1.1,3.2l118.5,0c1.7,0,2.5-2.1,1.2-3.3
	C224.7,307.9,216.3,304.2,207.1,304.2z"/>
<path class="st2" d="M238.7,290.2c-8.1,0-15.5,2.8-21.6,7.2c-2.8-1.6-5.9-2.7-9.2-3.1c-5-2.6-10.6-4.1-16.5-4.1
	c-8.1,0-15.5,2.8-21.6,7.2c-3.7-2.1-7.9-3.3-12.5-3.3c-5.8,0-11.2,2-15.5,5.4c-1.3,1-0.6,3.2,1.1,3.2h118.5c1.7,0,2.5-2.1,1.2-3.3
	C256.3,293.9,247.9,290.2,238.7,290.2z"/>
<g>
	<g>
		<path class="st1" d="M172.4,276.7c0-21.3-14.8-41.2-33.5-38.6c-14.2,2-26.6,10.4-31.3,25c-2.1,6.6,2.2,13.6,8.2,13.5l126.4-0.4
			c5.4,0,9.2-6.1,7.5-12c-4.4-15.2-16.8-24.8-31.3-26.1c-18.2-1.6-33,17.1-33,38.1"/>
		<path class="st1" d="M161.3,276.8c-7.5-5.9-12.5-15.8-12.5-27.1c0-18,12.7-32.7,28.3-32.7s28.3,14.6,28.3,32.7
			c0,10.9-4.6,20.5-11.7,26.5"/>
	</g>
	<path class="st1" d="M153.1,276.7c3.9-12.6,14.4-21.6,26.6-21.6c12.1,0,22.4,8.7,26.5,21.1"/>
</g>
<path class="st5" d="M315.6,241.8c-6.1-0.6-11.8,0.8-16.6,3.6c-6.5-8.9-17-14.7-28.9-14.7c-14.5,0-27,8.6-32.6,21
	c-1-0.2-2.1-0.3-3.2-0.3c-8.3,0-15.4,5.2-18.1,12.6c-1.6-0.6-3.3-0.9-5.2-0.6c-4.2,0.7-7.6,4-8.3,8.3c0,0,0,0.1,0,0.1
	c-0.3,2.1,1.4,4,3.6,4l9.4,0h6.4h13.5H253h33.7h17.9H330c5.8,0,10.4-5.1,9.6-10.9c0-0.1,0-0.2,0-0.3
	C337.7,252.5,327.8,243.1,315.6,241.8z"/>
<path class="st6" d="M147.8,257.3c-7.3-0.8-14.1,0.8-19.8,4.2c-7.6-10.5-20-17.3-33.9-17.3c-17,0-31.6,10.1-38.2,24.7
	c-1.2-0.2-2.5-0.3-3.7-0.3c-9.7,0-18,6.1-21.2,14.8c-2.1-0.8-4.4-1.1-6.9-0.5c-4.3,1-7.8,4.5-8.7,8.8c-0.1,0.3-0.1,0.6-0.1,0.8
	c-0.3,2.5,1.7,4.7,4.2,4.7l10.9,0h7.5h15.8H74h39.5h21h29.8c6.8,0,12.2-5.9,11.3-12.7c0-0.1,0-0.2,0-0.3
	C173.5,270.1,162,258.9,147.8,257.3z"/>
<g>
	<g>
		<path class="st7" d="M374.4,298.7c0-16.7-11.7-32.3-26.5-30.2c-11.3,1.5-21,8.1-24.8,19.6c-1.7,5.1,1.7,10.6,6.5,10.6l100-0.4
			c4.3,0,7.3-4.8,6-9.4c-3.4-11.9-13.3-19.4-24.8-20.4c-14.4-1.2-26.1,13.4-26.1,29.8"/>
		<path class="st7" d="M365.6,298.8c-6-4.6-9.9-12.4-9.9-21.2c0-14.1,10-25.6,22.4-25.6s22.4,11.5,22.4,25.6
			c0,8.5-3.7,16.1-9.3,20.7"/>
	</g>
	<path class="st7" d="M359.2,298.7c3.1-9.8,11.4-16.9,21.1-16.9c9.6,0,17.7,6.8,21,16.5"/>
</g>
<g>
	<g>
		<path class="st1" d="M297.9,296.7c0-18.3-13.8-35.4-31.2-33.2c-13.3,1.7-24.8,9-29.2,21.5c-2,5.7,2,11.7,7.7,11.7l117.8-0.4
			c5,0,8.6-5.3,7-10.4c-4.1-13-15.6-21.4-29.2-22.4c-17-1.3-30.8,14.7-30.8,32.8"/>
		<path class="st1" d="M287.6,296.8c-7-5.1-11.6-13.6-11.6-23.3c0-15.5,11.8-28.1,26.4-28.1s26.4,12.6,26.4,28.1
			c0,9.4-4.3,17.7-10.9,22.8"/>
	</g>
	<path class="st1" d="M280,296.7c3.7-10.8,13.4-18.6,24.8-18.6c11.3,0,20.9,7.5,24.7,18.1"/>
</g>
<path class="st1" d="M345.3,285.2c5-0.5,9.7,0.7,13.7,3.1c5.4-7.6,14-12.5,23.8-12.5c12,0,22.2,7.3,26.9,17.9
	c0.9-0.1,1.7-0.2,2.6-0.2c6.9,0,12.7,4.5,14.9,10.7c1.3-0.5,2.7-0.7,4.3-0.5c3.5,0.6,6.3,3.5,6.8,7.1c0,0,0,0.1,0,0.1
	c0.2,1.8-1.2,3.4-2.9,3.4h-7.7h-5.3h-11.1h-14.3h-27.8h-14.8h-20.9c-4.8,0-8.6-4.4-7.9-9.3c0-0.1,0-0.2,0-0.2
	C327,294.3,335.2,286.2,345.3,285.2z"/>
<g>
	<path class="st6" d="M208.5,297.7c0-23.2-12.9-44.9-29.1-42.1c-12.4,2.2-23.1,11.3-27.3,27.3c-1.9,7.2,1.9,14.8,7.2,14.8l110.1-0.5
		c4.7,0,8-6.7,6.6-13.1c-3.8-16.5-14.6-27.1-27.3-28.4c-15.8-1.7-28.7,18.6-28.7,41.5"/>
	<path class="st6" d="M198,297.8c-6.6-5.7-10.9-15.5-10.9-26.5c0-17.6,11-31.9,24.7-31.9s24.7,14.3,24.7,31.9
		c0,10.6-4,20.1-10.2,25.9"/>
</g>
<path class="st3" d="M255.2,275.3c5.5-0.7,10.7,0.9,15,4.2c5.9-10.4,15.5-17.2,26.2-17.2c13.2,0,24.5,10.1,29.6,24.6
	c0.9-0.2,1.9-0.3,2.9-0.3c7.5,0,14,6.1,16.4,14.7c1.4-0.7,3-1,4.7-0.7c3.8,0.8,6.9,4.7,7.5,9.7c0,0,0,0.1,0,0.1
	c0.3,2.5-1.3,4.7-3.2,4.7l-8.5,0H340h-12.2H312h-30.6h-16.3h-23.1c-5.3,0-9.4-6-8.7-12.8c0-0.1,0-0.2,0-0.3
	C235.1,287.9,244.1,276.8,255.2,275.3z"/>
<g>
	<path class="st2" d="M161.3,295.7c0-19.9-14.9-38.5-33.5-36c-14.3,1.8-26.6,9.7-31.4,23.4c-2.1,6.1,2.2,12.7,8.3,12.6l126.7-0.4
		c5.4,0,9.2-5.7,7.5-11.2c-4.4-14.1-16.8-23.2-31.4-24.3c-18.2-1.5-33.1,15.9-33.1,35.5"/>
	<path class="st2" d="M149.2,295.8c-7.6-4.9-12.5-13.2-12.5-22.7c0-15.1,12.7-27.3,28.4-27.3s28.4,12.2,28.4,27.3
		c0,9.1-4.6,17.2-11.7,22.1"/>
</g>
<g>
	<path class="st1" d="M82,318.3c0-19.6-14.6-38-33-35.6c-14,1.8-26.2,9.6-30.9,23.1c-2.1,6.1,2.1,12.5,8.1,12.5l124.6-0.4
		c5.3,0,9.1-5.6,7.4-11.1c-4.3-14-16.5-22.9-30.9-24c-17.9-1.4-32.5,15.7-32.5,35.1"/>
	<path class="st1" d="M70.1,318.4c-7.4-4.9-12.3-13.1-12.3-22.4c0-14.9,12.5-27,27.9-27s27.9,12.1,27.9,27c0,9-4.5,17-11.5,21.9"/>
</g>
<g>
	<path class="st3" d="M181.7,316.7c0-18-12.6-34.7-28.4-32.5c-12.1,1.7-22.5,8.8-26.6,21.1c-1.8,5.5,1.8,11.4,7,11.4l107.2-0.4
		c4.6,0,7.8-5.2,6.4-10.1c-3.7-12.8-14.2-20.9-26.6-22c-15.4-1.3-28,14.4-28,32.1"/>
	<path class="st3" d="M171.5,316.8c-6.4-4.4-10.6-11.9-10.6-20.5c0-13.6,10.8-24.7,24-24.7c13.3,0,24,11,24,24.7
		c0,8.2-3.9,15.5-9.9,20"/>
</g>
<g>
	<g>
		<path class="st1" d="M173.4,341.7c0-21.3-14.8-41.2-33.5-38.6c-14.2,2-26.6,10.4-31.3,25c-2.1,6.6,2.2,13.6,8.2,13.5l126.4-0.4
			c5.4,0,9.2-6.1,7.5-12c-4.4-15.2-16.8-24.8-31.3-26.1c-18.2-1.6-33,17.1-33,38.1"/>
		<path class="st1" d="M162.3,341.8c-7.5-5.9-12.5-15.8-12.5-27.1c0-18,12.7-32.7,28.3-32.7s28.3,14.6,28.3,32.7
			c0,10.9-4.6,20.5-11.7,26.5"/>
	</g>
	<path class="st1" d="M154.1,341.7c3.9-12.6,14.4-21.6,26.6-21.6c12.1,0,22.4,8.7,26.5,21.1"/>
</g>
<g>
	<g>
		<path class="st2" d="M375,341.7c0-16.4-12.9-31.7-29.1-29.7c-12.4,1.5-23.1,8-27.3,19.2c-1.9,5,1.9,10.4,7.2,10.4l110-0.3
			c4.7,0,8-4.7,6.5-9.2c-3.8-11.6-14.6-19.1-27.3-20c-15.8-1.2-28.7,13.1-28.7,29.3"/>
		<path class="st2" d="M365.3,341.8c-6.6-4.5-10.9-12.2-10.9-20.8c0-13.9,11-25.1,24.6-25.1s24.6,11.2,24.6,25.1
			c0,8.4-4,15.8-10.2,20.3"/>
	</g>
	<path class="st2" d="M358.2,341.7c3.4-9.7,12.5-16.6,23.2-16.6c10.5,0,19.5,6.7,23,16.2"/>
</g>
<g>
	<g>
		<path class="st7" d="M273.4,340.7c0-21.3-14.8-41.2-33.5-38.6c-14.2,2-26.6,10.4-31.3,25c-2.1,6.6,2.2,13.6,8.2,13.5l126.4-0.4
			c5.4,0,9.2-6.1,7.5-12c-4.4-15.2-16.8-24.8-31.3-26.1c-18.2-1.6-33,17.1-33,38.1"/>
		<path class="st7" d="M262.3,340.8c-7.5-5.9-12.5-15.8-12.5-27.1c0-18,12.7-32.7,28.3-32.7c15.6,0,28.3,14.6,28.3,32.7
			c0,10.9-4.6,20.5-11.7,26.5"/>
	</g>
	<path class="st7" d="M254.1,340.7c3.9-12.6,14.4-21.6,26.6-21.6c12.1,0,22.4,8.7,26.5,21.1"/>
</g>
<path class="st4" d="M42.3,300.2c6.1-0.7,11.8,0.9,16.6,4.3c6.5-10.7,17.1-17.7,29-17.7c14.5,0,27.1,10.4,32.7,25.2
	c1-0.2,2.1-0.3,3.2-0.3c8.3,0,15.4,6.3,18.2,15.1c1.6-0.7,3.3-1,5.2-0.7c4.2,0.8,7.6,4.9,8.3,9.9c0,0,0,0.1,0,0.1
	c0.3,2.5-1.4,4.8-3.6,4.8l-9.4,0h-6.4h-13.5h-17.4H71.3h-18H27.9c-5.9,0-10.4-6.2-9.6-13.1c0-0.1,0-0.2,0-0.3
	C20.1,313,30.1,301.6,42.3,300.2z"/>
</svg>
