<?xml version="1.0" encoding="utf-8"?>
<!-- Generator: Adobe Illustrator 19.1.0, SVG Export Plug-In . SVG Version: 6.00 Build 0)  -->
<svg version="1.1" id="Lager_1" xmlns="http://www.w3.org/2000/svg" xmlns:xlink="http://www.w3.org/1999/xlink" x="0px" y="0px"
	 viewBox="240 203.9 960 319.1" style="enable-background:new 240 203.9 960 319.1;" xml:space="preserve">
<style type="text/css">
	.st0{fill:#18717A;}
	.st1{fill:#F2F9F8;}
</style>
<path class="st0" d="M1200,522.9H240V220.3c0,0,89,41.9,125.1,41.9c43.6,0,124.5-48.4,168.9-50.3c49.1-2,139.6,35.5,186,37.2
	c40.5,1.5,112.9-28.3,153-29.8c33.7-1.2,159.8,30.7,194.1,33.3c39.4,3,132.9-22.8,132.9-22.8V522.9z"/>
<g>
	<circle class="st1" cx="254.8" cy="226.6" r="14.8"/>
	<circle class="st1" cx="348" cy="264.6" r="14.8"/>
	<circle class="st1" cx="445.1" cy="237.4" r="11"/>
	<circle class="st1" cx="528.6" cy="213.2" r="9.4"/>
	<circle class="st1" cx="630.3" cy="225.9" r="12.1"/>
	<circle class="st1" cx="788.2" cy="236.8" r="12"/>
	<circle class="st1" cx="873.6" cy="217.4" r="11.5"/>
	<circle class="st1" cx="972" cy="234.6" r="14.8"/>
	<circle class="st1" cx="1072" cy="254.5" r="14.8"/>
	<circle class="st1" cx="1163.7" cy="239.3" r="10.6"/>
	<circle class="st1" cx="277.1" cy="235.6" r="7.4"/>
	<circle class="st1" cx="463.2" cy="232.2" r="7.4"/>
	<circle class="st1" cx="580" cy="218.2" r="7.4"/>
	<circle class="st1" cx="594.8" cy="220.8" r="7.4"/>
	<circle class="st1" cx="505.2" cy="218.2" r="7.4"/>
	<circle class="st1" cx="768.8" cy="243.5" r="7.4"/>
	<circle class="st1" cx="819" cy="228.6" r="7.4"/>
	<circle class="st1" cx="909.9" cy="224.8" r="7.4"/>
	<circle class="st1" cx="994.2" cy="241.6" r="7.4"/>
	<circle class="st1" cx="1094.2" cy="254.5" r="7.4"/>
	<circle class="st1" cx="1143" cy="241.6" r="6.1"/>
	<circle class="st1" cx="366.5" cy="256" r="11.9"/>
	<circle class="st1" cx="288.7" cy="245.6" r="4.2"/>
	<circle class="st1" cx="300" cy="245.6" r="4.2"/>
	<circle class="st1" cx="308.3" cy="249.8" r="2.1"/>
	<circle class="st1" cx="295.8" cy="239.6" r="2.1"/>
	<circle class="st1" cx="312.5" cy="255" r="2.1"/>
	<circle class="st1" cx="319.9" cy="257.1" r="7.4"/>
	
		<ellipse transform="matrix(-0.7059 0.7083 -0.7083 -0.7059 846.4824 167.1881)" class="st1" cx="388.5" cy="259.3" rx="6.5" ry="7.2"/>
	<ellipse transform="matrix(-0.7059 0.7083 -0.7083 -0.7059 876.9776 139.8368)" class="st1" cx="409.5" cy="252" rx="3.6" ry="4"/>
	
		<ellipse transform="matrix(-0.7059 0.7083 -0.7083 -0.7059 908.1898 117.7586)" class="st1" cx="429.6" cy="247.4" rx="6.5" ry="7.2"/>
	<circle class="st1" cx="402.4" cy="257.9" r="4.6"/>
	<circle class="st1" cx="475.3" cy="228.6" r="4.6"/>
	<circle class="st1" cx="492" cy="222.1" r="5.7"/>
	<circle class="st1" cx="608.5" cy="227.8" r="4"/>
	<circle class="st1" cx="657.3" cy="236.1" r="2.5"/>
	<circle class="st1" cx="416.9" cy="247.9" r="7.4"/>
	<circle class="st1" cx="554.2" cy="213.8" r="4.6"/>
	<circle class="st1" cx="667.3" cy="244.1" r="2.5"/>
	<circle class="st1" cx="680.7" cy="244.1" r="4.6"/>
	<circle class="st1" cx="699" cy="249.1" r="4.6"/>
	<circle class="st1" cx="646.3" cy="238.1" r="2.5"/>
	<circle class="st1" cx="564" cy="220.8" r="2.5"/>
	<circle class="st1" cx="712" cy="254.5" r="2.5"/>
	<circle class="st1" cx="720" cy="249.6" r="2.5"/>
	<circle class="st1" cx="720" cy="257.1" r="2.5"/>
	<circle class="st1" cx="714.5" cy="248.8" r="4.6"/>
	<circle class="st1" cx="518.1" cy="221.8" r="2.5"/>
	<circle class="st1" cx="558.8" cy="224.8" r="4.6"/>
	<circle class="st1" cx="486.3" cy="233.6" r="4.2"/>
	<circle class="st1" cx="685.3" cy="252.4" r="4.6"/>
	<circle class="st1" cx="659.8" cy="244.1" r="4.2"/>
	<circle class="st1" cx="738" cy="257" r="2.5"/>
	<circle class="st1" cx="746.7" cy="247.8" r="2.5"/>
	<circle class="st1" cx="757.4" cy="253.8" r="3.2"/>
	<circle class="st1" cx="735.5" cy="245.3" r="3.2"/>
	<circle class="st1" cx="735.5" cy="252.4" r="3.2"/>
	<circle class="st1" cx="819" cy="238.5" r="3.2"/>
	<circle class="st1" cx="811.6" cy="239.5" r="2.5"/>
	<circle class="st1" cx="854.8" cy="226.3" r="2.5"/>
	<circle class="st1" cx="805.8" cy="230.3" r="2.5"/>
	<circle class="st1" cx="857.3" cy="219.8" r="2.5"/>
	
		<ellipse transform="matrix(-0.7059 0.7083 -0.7083 -0.7059 1942.1769 -310.0863)" class="st1" cx="1035.5" cy="248.2" rx="6.5" ry="7.2"/>
	<circle class="st1" cx="1022.8" cy="248.5" r="7.4"/>
	<circle class="st1" cx="934.8" cy="226.6" r="4"/>
	<circle class="st1" cx="1053.2" cy="255.9" r="4"/>
	<circle class="st1" cx="1133" cy="250.9" r="4"/>
	<circle class="st1" cx="1188" cy="232.8" r="4"/>
	<circle class="st1" cx="946" cy="230.3" r="4"/>
	<circle class="st1" cx="1115" cy="250.9" r="8.5"/>
	
		<ellipse transform="matrix(-0.7059 0.7083 -0.7083 -0.7059 1379.4583 -66.7308)" class="st1" cx="703.6" cy="253" rx="6.5" ry="7.2"/>
	<circle class="st1" cx="413.3" cy="259.9" r="2.5"/>
	<circle class="st1" cx="397.8" cy="266.4" r="2.5"/>
	<circle class="st1" cx="441.1" cy="249.8" r="2.5"/>
	<circle class="st1" cx="422.7" cy="255.4" r="2.5"/>
	<circle class="st1" cx="544.5" cy="218.4" r="2.5"/>
	<circle class="st1" cx="844" cy="223.9" r="4"/>
	<circle class="st1" cx="919.8" cy="227.8" r="2.5"/>
	<circle class="st1" cx="892" cy="223.3" r="2.5"/>
	<circle class="st1" cx="1004.2" cy="248.4" r="2.5"/>
	<circle class="st1" cx="1015.4" cy="243.1" r="2.5"/>
	<circle class="st1" cx="1182" cy="234.8" r="2.5"/>
	<circle class="st1" cx="834.6" cy="229.1" r="4.6"/>
</g>
</svg>
