<?xml version="1.0" encoding="utf-8"?>
<!-- Generator: Adobe Illustrator 19.1.0, SVG Export Plug-In . SVG Version: 6.00 Build 0)  -->
<svg version="1.1" id="Lager_1" xmlns="http://www.w3.org/2000/svg" xmlns:xlink="http://www.w3.org/1999/xlink" x="0px" y="0px"
	 viewBox="160 77.6 960 327.4" style="enable-background:new 160 77.6 960 327.4;" xml:space="preserve">
<style type="text/css">
	.st0{fill:#18717A;}
	.st1{fill:#F2F9F8;}
</style>
<path class="st0" d="M1118.3,400.9h-960V98.2c0,0,89,41.9,125.1,41.9c43.6,0,124.5-48.4,168.9-50.3c49.1-2,139.6,35.5,186,37.2
	c40.5,1.5,112.9-28.3,153-29.8c33.7-1.2,159.8,30.7,194.1,33.3c39.4,3,132.9-22.8,132.9-22.8V400.9z"/>
<g>
	<circle class="st1" cx="176.1" cy="104.6" r="14.8"/>
	<circle class="st1" cx="269.3" cy="142.6" r="14.8"/>
	<circle class="st1" cx="366.4" cy="115.3" r="11"/>
	<circle class="st1" cx="449.9" cy="91.1" r="9.4"/>
	<circle class="st1" cx="551.6" cy="103.8" r="12.1"/>
	<circle class="st1" cx="709.5" cy="114.8" r="12"/>
	<circle class="st1" cx="794.9" cy="95.4" r="11.5"/>
	<circle class="st1" cx="893.3" cy="112.6" r="14.8"/>
	<circle class="st1" cx="993.3" cy="132.4" r="14.8"/>
	<circle class="st1" cx="1085" cy="117.3" r="10.6"/>
	<circle class="st1" cx="198.4" cy="113.6" r="7.4"/>
	<circle class="st1" cx="384.5" cy="110.1" r="7.4"/>
	<circle class="st1" cx="501.3" cy="96.1" r="7.4"/>
	<circle class="st1" cx="516.1" cy="98.8" r="7.4"/>
	<circle class="st1" cx="426.5" cy="96.1" r="7.4"/>
	<circle class="st1" cx="690.1" cy="121.4" r="7.4"/>
	<circle class="st1" cx="740.3" cy="106.6" r="7.4"/>
	<circle class="st1" cx="831.2" cy="102.8" r="7.4"/>
	<circle class="st1" cx="915.5" cy="119.6" r="7.4"/>
	<circle class="st1" cx="1015.5" cy="132.4" r="7.4"/>
	<circle class="st1" cx="1064.3" cy="119.6" r="6.1"/>
	<circle class="st1" cx="287.8" cy="133.9" r="11.9"/>
	<circle class="st1" cx="210" cy="123.6" r="4.2"/>
	<circle class="st1" cx="221.3" cy="123.6" r="4.2"/>
	<circle class="st1" cx="229.6" cy="127.8" r="2.1"/>
	<circle class="st1" cx="217.1" cy="117.6" r="2.1"/>
	<circle class="st1" cx="233.8" cy="132.9" r="2.1"/>
	<circle class="st1" cx="241.2" cy="135" r="7.4"/>
	
		<ellipse transform="matrix(-0.7059 0.7083 -0.7083 -0.7059 625.7217 14.6447)" class="st1" cx="309.8" cy="137.2" rx="6.5" ry="7.2"/>
	
		<ellipse transform="matrix(-0.7059 0.7083 -0.7083 -0.7059 656.2167 -12.7065)" class="st1" cx="330.7" cy="129.9" rx="3.6" ry="4"/>
	
		<ellipse transform="matrix(-0.7059 0.7083 -0.7083 -0.7059 687.4288 -34.7847)" class="st1" cx="350.9" cy="125.3" rx="6.5" ry="7.2"/>
	<circle class="st1" cx="323.7" cy="135.8" r="4.6"/>
	<circle class="st1" cx="396.6" cy="106.6" r="4.6"/>
	<circle class="st1" cx="413.3" cy="100" r="5.7"/>
	<circle class="st1" cx="529.8" cy="105.8" r="4"/>
	<circle class="st1" cx="578.6" cy="114" r="2.5"/>
	<circle class="st1" cx="338.2" cy="125.8" r="7.4"/>
	<circle class="st1" cx="475.5" cy="91.8" r="4.6"/>
	<circle class="st1" cx="588.6" cy="122" r="2.5"/>
	<circle class="st1" cx="602" cy="122" r="4.6"/>
	<circle class="st1" cx="620.3" cy="127" r="4.6"/>
	<circle class="st1" cx="567.6" cy="116" r="2.5"/>
	<circle class="st1" cx="485.3" cy="98.8" r="2.5"/>
	<circle class="st1" cx="633.3" cy="132.4" r="2.5"/>
	<circle class="st1" cx="641.3" cy="127.6" r="2.5"/>
	<circle class="st1" cx="641.3" cy="135" r="2.5"/>
	<circle class="st1" cx="635.8" cy="126.6" r="4.6"/>
	<circle class="st1" cx="439.4" cy="99.8" r="2.5"/>
	<circle class="st1" cx="480.1" cy="102.8" r="4.6"/>
	<circle class="st1" cx="407.6" cy="111.5" r="4.2"/>
	<circle class="st1" cx="606.6" cy="130.3" r="4.6"/>
	<circle class="st1" cx="581.1" cy="122" r="4.2"/>
	<circle class="st1" cx="659.3" cy="134.9" r="2.5"/>
	<circle class="st1" cx="668" cy="125.8" r="2.5"/>
	<circle class="st1" cx="678.7" cy="131.6" r="3.2"/>
	<circle class="st1" cx="656.8" cy="123.3" r="3.2"/>
	<circle class="st1" cx="656.8" cy="130.3" r="3.2"/>
	<circle class="st1" cx="740.3" cy="116.4" r="3.2"/>
	<circle class="st1" cx="732.9" cy="117.4" r="2.5"/>
	<circle class="st1" cx="776.1" cy="104.3" r="2.5"/>
	<circle class="st1" cx="727.1" cy="108.2" r="2.5"/>
	<circle class="st1" cx="778.6" cy="97.8" r="2.5"/>
	
		<ellipse transform="matrix(-0.7059 0.7083 -0.7083 -0.7059 1721.4163 -462.6298)" class="st1" cx="956.8" cy="126.1" rx="6.5" ry="7.2"/>
	<circle class="st1" cx="944.1" cy="126.4" r="7.4"/>
	<circle class="st1" cx="856.1" cy="104.5" r="4"/>
	<circle class="st1" cx="974.5" cy="133.8" r="4"/>
	<circle class="st1" cx="1054.3" cy="128.8" r="4"/>
	<circle class="st1" cx="1109.3" cy="110.8" r="4"/>
	<circle class="st1" cx="867.3" cy="108.2" r="4"/>
	<circle class="st1" cx="1036.3" cy="128.8" r="8.5"/>
	
		<ellipse transform="matrix(-0.7059 0.7083 -0.7083 -0.7059 1158.6974 -219.2744)" class="st1" cx="624.9" cy="130.9" rx="6.5" ry="7.2"/>
	<circle class="st1" cx="334.6" cy="137.8" r="2.5"/>
	<circle class="st1" cx="319.1" cy="144.2" r="2.5"/>
	<circle class="st1" cx="362.4" cy="127.8" r="2.5"/>
	<circle class="st1" cx="344" cy="133.3" r="2.5"/>
	<circle class="st1" cx="465.8" cy="96.3" r="2.5"/>
	<circle class="st1" cx="765.3" cy="101.8" r="4"/>
	<circle class="st1" cx="841.1" cy="105.8" r="2.5"/>
	<circle class="st1" cx="813.3" cy="101.2" r="2.5"/>
	<circle class="st1" cx="925.5" cy="126.3" r="2.5"/>
	<circle class="st1" cx="936.7" cy="121" r="2.5"/>
	<circle class="st1" cx="1103.3" cy="112.8" r="2.5"/>
	<circle class="st1" cx="755.9" cy="107" r="4.6"/>
</g>
</svg>
