<?xml version="1.0" encoding="utf-8"?>
<!-- Generator: Adobe Illustrator 19.1.0, SVG Export Plug-In . SVG Version: 6.00 Build 0)  -->
<svg version="1.1" id="Lager_1" xmlns="http://www.w3.org/2000/svg" xmlns:xlink="http://www.w3.org/1999/xlink" x="0px" y="0px"
	 viewBox="0 0 960 405" style="enable-background:new 0 0 960 405;" xml:space="preserve">
<style type="text/css">
	.st0{fill:#1B7989;}
	.st1{fill:#F2F9F8;}
	.st2{fill:#18717A;}
</style>
<path class="st0" d="M960,396H0V7.3C0,7.3,89.8,50,126,50c43.6,0,119.6-32.6,164-35c49.1-2.6,143.6,17.6,190,19.9
	c40.5,2,119.7-19.3,159.9-21.3c33.7-1.6,153,23,187.2,26.4C866.5,43.8,960,29,960,29V396z"/>
<g>
	<circle class="st1" cx="14.9" cy="17" r="11.9"/>
	<circle class="st1" cx="204.3" cy="30.7" r="11"/>
	<circle class="st1" cx="290.7" cy="17.6" r="9.4"/>
	<circle class="st1" cx="547.3" cy="30.2" r="12"/>
	<circle class="st1" cx="635.9" cy="14" r="8.3"/>
	<circle class="st1" cx="720.9" cy="26.9" r="11.1"/>
	<circle class="st1" cx="831.1" cy="43.1" r="10.1"/>
	<circle class="st1" cx="922.8" cy="34.7" r="10.6"/>
	<circle class="st1" cx="36.2" cy="29" r="7.4"/>
	<circle class="st1" cx="222.4" cy="25.6" r="7.4"/>
	<circle class="st1" cx="336.1" cy="17.6" r="7.4"/>
	<circle class="st1" cx="354" cy="24.2" r="7.4"/>
	<circle class="st1" cx="264.3" cy="25.6" r="7.4"/>
	<circle class="st1" cx="527.9" cy="36.8" r="7.4"/>
	<circle class="st1" cx="578.1" cy="22" r="7.4"/>
	<circle class="st1" cx="664.6" cy="16.2" r="7.4"/>
	<circle class="st1" cx="753.4" cy="35" r="7.4"/>
	<circle class="st1" cx="853.4" cy="44.8" r="7.4"/>
	<circle class="st1" cx="902.2" cy="38" r="6.1"/>
	<circle class="st1" cx="111.7" cy="49.4" r="11.9"/>
	<circle class="st1" cx="47.8" cy="39" r="4.2"/>
	<circle class="st1" cx="59.1" cy="39" r="4.2"/>
	<circle class="st1" cx="67.5" cy="43.2" r="2.1"/>
	<circle class="st1" cx="55" cy="33" r="2.1"/>
	<circle class="st1" cx="74.6" cy="40.3" r="2.1"/>
	<circle class="st1" cx="87" cy="43.4" r="7.4"/>
	<ellipse transform="matrix(0.7059 -0.7083 0.7083 0.7059 3.9064 112.6253)" class="st1" cx="137.6" cy="51.6" rx="6.5" ry="7.2"/>
	<ellipse transform="matrix(0.7059 -0.7083 0.7083 0.7059 17.5305 132.7016)" class="st1" cx="168.6" cy="45.2" rx="3.6" ry="4"/>
	<ellipse transform="matrix(0.7059 -0.7083 0.7083 0.7059 26.6618 145.6083)" class="st1" cx="188.7" cy="40.7" rx="6.5" ry="7.2"/>
	<circle class="st1" cx="159.5" cy="49.2" r="4.6"/>
	<circle class="st1" cx="234.4" cy="22" r="4.6"/>
	<circle class="st1" cx="251.1" cy="20.4" r="5.7"/>
	<circle class="st1" cx="367.6" cy="21.1" r="4"/>
	<circle class="st1" cx="416.5" cy="29.4" r="2.5"/>
	<circle class="st1" cx="97.5" cy="46.2" r="7.4"/>
	<circle class="st1" cx="309.4" cy="15.2" r="4.6"/>
	<circle class="st1" cx="424.8" cy="31.8" r="2.5"/>
	<circle class="st1" cx="435.2" cy="27.6" r="4.6"/>
	<circle class="st1" cx="408.8" cy="28.7" r="4.6"/>
	<circle class="st1" cx="389.5" cy="22.4" r="2.5"/>
	<circle class="st1" cx="323.1" cy="14.2" r="2.5"/>
	<circle class="st1" cx="378.2" cy="23.6" r="2.5"/>
	<circle class="st1" cx="394.5" cy="25.6" r="2.5"/>
	<circle class="st1" cx="498" cy="37.4" r="2.5"/>
	<circle class="st1" cx="473.6" cy="36.4" r="4.6"/>
	<circle class="st1" cx="275.3" cy="18.1" r="2.5"/>
	<circle class="st1" cx="317.9" cy="18.2" r="4.6"/>
	<circle class="st1" cx="242.4" cy="27.9" r="4.2"/>
	<circle class="st1" cx="450.2" cy="30.2" r="4.6"/>
	<circle class="st1" cx="402.4" cy="28.7" r="4.2"/>
	<circle class="st1" cx="488.1" cy="36.4" r="2.5"/>
	<circle class="st1" cx="509.2" cy="37.4" r="2.5"/>
	<circle class="st1" cx="514.3" cy="35.3" r="3.2"/>
	<circle class="st1" cx="504.2" cy="35" r="3.2"/>
	<circle class="st1" cx="482.5" cy="36.4" r="3.2"/>
	<circle class="st1" cx="578.1" cy="31.8" r="3.2"/>
	<circle class="st1" cx="570.7" cy="32.8" r="2.5"/>
	<circle class="st1" cx="614" cy="19.7" r="2.5"/>
	<circle class="st1" cx="565" cy="23.6" r="2.5"/>
	<circle class="st1" cx="616.5" cy="13.2" r="2.5"/>
	
		<ellipse transform="matrix(0.7059 -0.7083 0.7083 0.7059 204.3244 575.0082)" class="st1" cx="794.6" cy="41.4" rx="6.5" ry="7.2"/>
	<circle class="st1" cx="781.9" cy="41.8" r="7.4"/>
	<circle class="st1" cx="694" cy="19.9" r="4"/>
	<circle class="st1" cx="812.3" cy="49.3" r="4"/>
	<circle class="st1" cx="890.1" cy="41.2" r="4"/>
	<circle class="st1" cx="950.1" cy="31.1" r="4"/>
	<circle class="st1" cx="705.1" cy="23.6" r="4"/>
	<circle class="st1" cx="874.1" cy="44.2" r="8.5"/>
	
		<ellipse transform="matrix(0.7059 -0.7083 0.7083 0.7059 112.6938 338.4498)" class="st1" cx="463.9" cy="33.5" rx="6.5" ry="7.2"/>
	<circle class="st1" cx="172.4" cy="53.2" r="2.5"/>
	<circle class="st1" cx="151.9" cy="48.7" r="2.5"/>
	<circle class="st1" cx="200.3" cy="43.2" r="2.5"/>
	<circle class="st1" cx="176.9" cy="44.6" r="2.5"/>
	<circle class="st1" cx="303.7" cy="11.8" r="2.5"/>
	<circle class="st1" cx="603.2" cy="17.2" r="4"/>
	<circle class="st1" cx="683.9" cy="19.1" r="2.5"/>
	<circle class="st1" cx="651.1" cy="16.7" r="2.5"/>
	<circle class="st1" cx="764.3" cy="37.7" r="2.5"/>
	<circle class="st1" cx="774.5" cy="36.4" r="2.5"/>
	<circle class="st1" cx="939.2" cy="32.1" r="2.5"/>
	<circle class="st1" cx="593.8" cy="22.4" r="4.6"/>
	<circle class="st1" cx="737.4" cy="29.4" r="2.5"/>
	<circle class="st1" cx="744" cy="30.6" r="2.5"/>
	<circle class="st1" cx="732" cy="31.8" r="2.5"/>
	<circle class="st1" cx="767.3" cy="31.7" r="2.5"/>
	<circle class="st1" cx="676.6" cy="18.6" r="5.3"/>
</g>
<path class="st2" d="M960,404H0V101.4c0,0,89,41.9,125.1,41.9c43.6,0,124.5-48.4,168.9-50.3c49.1-2,139.6,35.5,186,37.2
	c40.5,1.5,112.9-28.3,153-29.8c33.7-1.2,159.8,30.7,194.1,33.3c39.4,3,132.9-22.8,132.9-22.8V404z"/>
<g>
	<circle class="st1" cx="14.8" cy="107.7" r="14.8"/>
	<circle class="st1" cx="108" cy="145.7" r="14.8"/>
	<circle class="st1" cx="205.1" cy="118.5" r="11"/>
	<circle class="st1" cx="288.6" cy="94.3" r="9.4"/>
	<circle class="st1" cx="390.3" cy="107" r="12.1"/>
	<circle class="st1" cx="548.2" cy="117.9" r="12"/>
	<circle class="st1" cx="633.6" cy="98.5" r="11.5"/>
	<circle class="st1" cx="732" cy="115.7" r="14.8"/>
	<circle class="st1" cx="832" cy="135.6" r="14.8"/>
	<circle class="st1" cx="923.7" cy="120.4" r="10.6"/>
	<circle class="st1" cx="37.1" cy="116.7" r="7.4"/>
	<circle class="st1" cx="223.2" cy="113.3" r="7.4"/>
	<circle class="st1" cx="340" cy="99.3" r="7.4"/>
	<circle class="st1" cx="354.8" cy="101.9" r="7.4"/>
	<circle class="st1" cx="265.2" cy="99.3" r="7.4"/>
	<circle class="st1" cx="528.8" cy="124.6" r="7.4"/>
	<circle class="st1" cx="579" cy="109.7" r="7.4"/>
	<circle class="st1" cx="669.9" cy="105.9" r="7.4"/>
	<circle class="st1" cx="754.2" cy="122.7" r="7.4"/>
	<circle class="st1" cx="854.2" cy="135.6" r="7.4"/>
	<circle class="st1" cx="903" cy="122.7" r="6.1"/>
	<circle class="st1" cx="126.5" cy="137.1" r="11.9"/>
	<circle class="st1" cx="48.7" cy="126.7" r="4.2"/>
	<circle class="st1" cx="60" cy="126.7" r="4.2"/>
	<circle class="st1" cx="68.3" cy="130.9" r="2.1"/>
	<circle class="st1" cx="55.8" cy="120.7" r="2.1"/>
	<circle class="st1" cx="72.5" cy="136.1" r="2.1"/>
	<circle class="st1" cx="79.9" cy="138.2" r="7.4"/>
	
		<ellipse transform="matrix(0.7059 -0.7083 0.7083 0.7059 -55.7612 146.4294)" class="st1" cx="148.5" cy="140.4" rx="6.5" ry="7.2"/>
	<ellipse transform="matrix(0.7059 -0.7083 0.7083 0.7059 -44.3695 159.1288)" class="st1" cx="169.4" cy="133" rx="3.6" ry="4"/>
	
		<ellipse transform="matrix(0.7059 -0.7083 0.7083 0.7059 -35.2382 172.0355)" class="st1" cx="189.6" cy="128.5" rx="6.5" ry="7.2"/>
	<circle class="st1" cx="162.4" cy="139" r="4.6"/>
	<circle class="st1" cx="235.3" cy="109.7" r="4.6"/>
	<circle class="st1" cx="252" cy="103.2" r="5.7"/>
	<circle class="st1" cx="368.5" cy="108.9" r="4"/>
	<circle class="st1" cx="417.3" cy="117.2" r="2.5"/>
	<circle class="st1" cx="176.9" cy="128.9" r="7.4"/>
	<circle class="st1" cx="314.2" cy="94.9" r="4.6"/>
	<circle class="st1" cx="427.3" cy="125.2" r="2.5"/>
	<circle class="st1" cx="440.7" cy="125.2" r="4.6"/>
	<circle class="st1" cx="459" cy="130.2" r="4.6"/>
	<circle class="st1" cx="406.3" cy="119.2" r="2.5"/>
	<circle class="st1" cx="324" cy="101.9" r="2.5"/>
	<circle class="st1" cx="472" cy="135.6" r="2.5"/>
	<circle class="st1" cx="480" cy="130.7" r="2.5"/>
	<circle class="st1" cx="480" cy="138.2" r="2.5"/>
	<circle class="st1" cx="474.5" cy="129.8" r="4.6"/>
	<circle class="st1" cx="278.1" cy="102.9" r="2.5"/>
	<circle class="st1" cx="318.8" cy="105.9" r="4.6"/>
	<circle class="st1" cx="246.3" cy="114.7" r="4.2"/>
	<circle class="st1" cx="445.3" cy="133.5" r="4.6"/>
	<circle class="st1" cx="419.8" cy="125.2" r="4.2"/>
	<circle class="st1" cx="498" cy="138.1" r="2.5"/>
	<circle class="st1" cx="506.7" cy="128.9" r="2.5"/>
	<circle class="st1" cx="517.4" cy="134.8" r="3.2"/>
	<circle class="st1" cx="495.5" cy="126.4" r="3.2"/>
	<circle class="st1" cx="495.5" cy="133.5" r="3.2"/>
	<circle class="st1" cx="579" cy="119.6" r="3.2"/>
	<circle class="st1" cx="571.6" cy="120.6" r="2.5"/>
	<circle class="st1" cx="614.8" cy="107.4" r="2.5"/>
	<circle class="st1" cx="565.8" cy="111.4" r="2.5"/>
	<circle class="st1" cx="617.3" cy="100.9" r="2.5"/>
	
		<ellipse transform="matrix(0.7059 -0.7083 0.7083 0.7059 142.4244 601.4354)" class="st1" cx="795.5" cy="129.2" rx="6.5" ry="7.2"/>
	<circle class="st1" cx="782.8" cy="129.6" r="7.4"/>
	<circle class="st1" cx="694.8" cy="107.7" r="4"/>
	<circle class="st1" cx="813.2" cy="137" r="4"/>
	<circle class="st1" cx="893" cy="132" r="4"/>
	<circle class="st1" cx="948" cy="113.9" r="4"/>
	<circle class="st1" cx="706" cy="111.4" r="4"/>
	<circle class="st1" cx="875" cy="132" r="8.5"/>
	<ellipse transform="matrix(0.7059 -0.7083 0.7083 0.7059 41.435 367.7864)" class="st1" cx="463.6" cy="134" rx="6.5" ry="7.2"/>
	<circle class="st1" cx="173.3" cy="141" r="2.5"/>
	<circle class="st1" cx="157.8" cy="147.4" r="2.5"/>
	<circle class="st1" cx="201.1" cy="130.9" r="2.5"/>
	<circle class="st1" cx="182.7" cy="136.5" r="2.5"/>
	<circle class="st1" cx="304.5" cy="99.5" r="2.5"/>
	<circle class="st1" cx="604" cy="105" r="4"/>
	<circle class="st1" cx="679.8" cy="108.9" r="2.5"/>
	<circle class="st1" cx="652" cy="104.4" r="2.5"/>
	<circle class="st1" cx="764.2" cy="129.5" r="2.5"/>
	<circle class="st1" cx="775.4" cy="124.2" r="2.5"/>
	<circle class="st1" cx="942" cy="115.9" r="2.5"/>
	<circle class="st1" cx="594.6" cy="110.2" r="4.6"/>
</g>
</svg>
